<svg width="1198" height="376" fill="none" xmlns="http://www.w3.org/2000/svg"><mask id="a" maskUnits="userSpaceOnUse" x=".564" y=".39" width="1197" height="376" fill="#000"><path fill="#fff" d="M.564.39h1197v376H.564z"/><path d="M163.851 6.364V370H86.969V79.34h-2.13l-83.275 52.2V63.359L91.586 6.364h72.265zm217.996-4.972c18.702 0 36.695 3.137 53.977 9.41 17.401 6.274 32.907 16.277 46.52 30.008 13.731 13.73 24.562 31.96 32.493 54.687 8.049 22.609 12.133 50.367 12.251 83.274 0 30.895-3.492 58.476-10.476 82.742-6.865 24.148-16.749 44.685-29.652 61.612-12.902 16.927-28.468 29.83-46.697 38.707-18.229 8.76-38.589 13.14-61.08 13.14-24.266 0-45.691-4.676-64.275-14.027-18.584-9.47-33.558-22.313-44.922-38.53-11.245-16.335-18.052-34.683-20.419-55.043h75.817c2.959 13.258 9.173 23.556 18.643 30.895 9.47 7.221 21.189 10.831 35.156 10.831 23.675 0 41.667-10.298 53.978-30.895 12.31-20.715 18.525-49.065 18.643-85.05h-2.486c-5.445 10.654-12.784 19.828-22.017 27.522-9.233 7.575-19.827 13.435-31.782 17.578-11.837 4.143-24.444 6.214-37.82 6.214-21.425 0-40.542-5.03-57.351-15.092-16.809-10.062-30.066-23.911-39.773-41.548-9.706-17.638-14.559-37.761-14.559-60.37-.119-24.384 5.504-46.105 16.868-65.163 11.363-19.058 27.225-33.972 47.585-44.744C330.947 6.66 354.74 1.274 381.847 1.392zm.532 60.37c-11.955 0-22.608 2.84-31.96 8.522-9.233 5.682-16.572 13.317-22.017 22.905-5.327 9.588-7.931 20.301-7.812 32.138 0 11.955 2.604 22.727 7.812 32.315 5.327 9.47 12.548 17.046 21.662 22.727 9.233 5.564 19.768 8.345 31.605 8.345 8.878 0 17.105-1.657 24.681-4.971 7.575-3.314 14.145-7.872 19.708-13.672 5.682-5.919 10.121-12.725 13.317-20.419 3.196-7.694 4.794-15.862 4.794-24.503-.118-11.482-2.841-22.017-8.167-31.605-5.327-9.588-12.666-17.282-22.017-23.082-9.352-5.8-19.887-8.7-31.606-8.7zM574.851 306.08v-60.547L726.662 6.363h52.202v83.808h-30.895l-95.703 151.455v2.841h215.731v61.613H574.851zM749.389 370v-82.386l1.421-26.811V6.363h72.088V370h-73.509zM1050.79 1.392c18.7 0 36.7 3.137 53.98 9.41 17.4 6.274 32.91 16.277 46.52 30.008 13.73 13.73 24.56 31.96 32.49 54.687 8.05 22.609 12.14 50.367 12.25 83.274 0 30.895-3.49 58.476-10.47 82.742-6.87 24.148-16.75 44.685-29.65 61.612-12.91 16.927-28.47 29.83-46.7 38.707-18.23 8.76-38.59 13.14-61.08 13.14-24.27 0-45.69-4.676-64.277-14.027-18.584-9.47-33.558-22.313-44.922-38.53-11.245-16.335-18.051-34.683-20.419-55.043h75.817c2.959 13.258 9.171 23.556 18.641 30.895 9.47 7.221 21.19 10.831 35.16 10.831 23.67 0 41.67-10.298 53.98-30.895 12.31-20.715 18.52-49.065 18.64-85.05h-2.49c-5.44 10.654-12.78 19.828-22.01 27.522-9.24 7.575-19.83 13.435-31.79 17.578-11.83 4.143-24.44 6.214-37.82 6.214-21.42 0-40.538-5.03-57.346-15.092-16.809-10.062-30.067-23.911-39.773-41.548-9.707-17.638-14.56-37.761-14.56-60.37-.118-24.384 5.504-46.105 16.868-65.163 11.364-19.058 27.225-33.972 47.585-44.744 20.478-10.89 44.276-16.276 71.376-16.158zm.53 60.37c-11.95 0-22.6 2.84-31.96 8.522-9.23 5.682-16.57 13.317-22.013 22.905-5.326 9.588-7.93 20.301-7.812 32.138 0 11.955 2.604 22.727 7.812 32.315 5.323 9.47 12.543 17.046 21.663 22.727 9.23 5.564 19.77 8.345 31.6 8.345 8.88 0 17.11-1.657 24.68-4.971 7.58-3.314 14.15-7.872 19.71-13.672 5.69-5.919 10.12-12.725 13.32-20.419 3.2-7.694 4.79-15.862 4.79-24.503-.11-11.482-2.84-22.017-8.16-31.605-5.33-9.588-12.67-17.282-22.02-23.082-9.35-5.8-19.89-8.7-31.61-8.7z"/></mask><path d="M163.851 6.364V370H86.969V79.34h-2.13l-83.275 52.2V63.359L91.586 6.364h72.265zm217.996-4.972c18.702 0 36.695 3.137 53.977 9.41 17.401 6.274 32.907 16.277 46.52 30.008 13.731 13.73 24.562 31.96 32.493 54.687 8.049 22.609 12.133 50.367 12.251 83.274 0 30.895-3.492 58.476-10.476 82.742-6.865 24.148-16.749 44.685-29.652 61.612-12.902 16.927-28.468 29.83-46.697 38.707-18.229 8.76-38.589 13.14-61.08 13.14-24.266 0-45.691-4.676-64.275-14.027-18.584-9.47-33.558-22.313-44.922-38.53-11.245-16.335-18.052-34.683-20.419-55.043h75.817c2.959 13.258 9.173 23.556 18.643 30.895 9.47 7.221 21.189 10.831 35.156 10.831 23.675 0 41.667-10.298 53.978-30.895 12.31-20.715 18.525-49.065 18.643-85.05h-2.486c-5.445 10.654-12.784 19.828-22.017 27.522-9.233 7.575-19.827 13.435-31.782 17.578-11.837 4.143-24.444 6.214-37.82 6.214-21.425 0-40.542-5.03-57.351-15.092-16.809-10.062-30.066-23.911-39.773-41.548-9.706-17.638-14.559-37.761-14.559-60.37-.119-24.384 5.504-46.105 16.868-65.163 11.363-19.058 27.225-33.972 47.585-44.744C330.947 6.66 354.74 1.274 381.847 1.392zm.532 60.37c-11.955 0-22.608 2.84-31.96 8.522-9.233 5.682-16.572 13.317-22.017 22.905-5.327 9.588-7.931 20.301-7.812 32.138 0 11.955 2.604 22.727 7.812 32.315 5.327 9.47 12.548 17.046 21.662 22.727 9.233 5.564 19.768 8.345 31.605 8.345 8.878 0 17.105-1.657 24.681-4.971 7.575-3.314 14.145-7.872 19.708-13.672 5.682-5.919 10.121-12.725 13.317-20.419 3.196-7.694 4.794-15.862 4.794-24.503-.118-11.482-2.841-22.017-8.167-31.605-5.327-9.588-12.666-17.282-22.017-23.082-9.352-5.8-19.887-8.7-31.606-8.7zM574.851 306.08v-60.547L726.662 6.363h52.202v83.808h-30.895l-95.703 151.455v2.841h215.731v61.613H574.851zM749.389 370v-82.386l1.421-26.811V6.363h72.088V370h-73.509zM1050.79 1.392c18.7 0 36.7 3.137 53.98 9.41 17.4 6.274 32.91 16.277 46.52 30.008 13.73 13.73 24.56 31.96 32.49 54.687 8.05 22.609 12.14 50.367 12.25 83.274 0 30.895-3.49 58.476-10.47 82.742-6.87 24.148-16.75 44.685-29.65 61.612-12.91 16.927-28.47 29.83-46.7 38.707-18.23 8.76-38.59 13.14-61.08 13.14-24.27 0-45.69-4.676-64.277-14.027-18.584-9.47-33.558-22.313-44.922-38.53-11.245-16.335-18.051-34.683-20.419-55.043h75.817c2.959 13.258 9.171 23.556 18.641 30.895 9.47 7.221 21.19 10.831 35.16 10.831 23.67 0 41.67-10.298 53.98-30.895 12.31-20.715 18.52-49.065 18.64-85.05h-2.49c-5.44 10.654-12.78 19.828-22.01 27.522-9.24 7.575-19.83 13.435-31.79 17.578-11.83 4.143-24.44 6.214-37.82 6.214-21.42 0-40.538-5.03-57.346-15.092-16.809-10.062-30.067-23.911-39.773-41.548-9.707-17.638-14.56-37.761-14.56-60.37-.118-24.384 5.504-46.105 16.868-65.163 11.364-19.058 27.225-33.972 47.585-44.744 20.478-10.89 44.276-16.276 71.376-16.158zm.53 60.37c-11.95 0-22.6 2.84-31.96 8.522-9.23 5.682-16.57 13.317-22.013 22.905-5.326 9.588-7.93 20.301-7.812 32.138 0 11.955 2.604 22.727 7.812 32.315 5.323 9.47 12.543 17.046 21.663 22.727 9.23 5.564 19.77 8.345 31.6 8.345 8.88 0 17.11-1.657 24.68-4.971 7.58-3.314 14.15-7.872 19.71-13.672 5.69-5.919 10.12-12.725 13.32-20.419 3.2-7.694 4.79-15.862 4.79-24.503-.11-11.482-2.84-22.017-8.16-31.605-5.33-9.588-12.67-17.282-22.02-23.082-9.35-5.8-19.89-8.7-31.61-8.7z" fill="#fff" fill-opacity=".6"/><path d="M163.851 6.364V370H86.969V79.34h-2.13l-83.275 52.2V63.359L91.586 6.364h72.265zm217.996-4.972c18.702 0 36.695 3.137 53.977 9.41 17.401 6.274 32.907 16.277 46.52 30.008 13.731 13.73 24.562 31.96 32.493 54.687 8.049 22.609 12.133 50.367 12.251 83.274 0 30.895-3.492 58.476-10.476 82.742-6.865 24.148-16.749 44.685-29.652 61.612-12.902 16.927-28.468 29.83-46.697 38.707-18.229 8.76-38.589 13.14-61.08 13.14-24.266 0-45.691-4.676-64.275-14.027-18.584-9.47-33.558-22.313-44.922-38.53-11.245-16.335-18.052-34.683-20.419-55.043h75.817c2.959 13.258 9.173 23.556 18.643 30.895 9.47 7.221 21.189 10.831 35.156 10.831 23.675 0 41.667-10.298 53.978-30.895 12.31-20.715 18.525-49.065 18.643-85.05h-2.486c-5.445 10.654-12.784 19.828-22.017 27.522-9.233 7.575-19.827 13.435-31.782 17.578-11.837 4.143-24.444 6.214-37.82 6.214-21.425 0-40.542-5.03-57.351-15.092-16.809-10.062-30.066-23.911-39.773-41.548-9.706-17.638-14.559-37.761-14.559-60.37-.119-24.384 5.504-46.105 16.868-65.163 11.363-19.058 27.225-33.972 47.585-44.744C330.947 6.66 354.74 1.274 381.847 1.392zm.532 60.37c-11.955 0-22.608 2.84-31.96 8.522-9.233 5.682-16.572 13.317-22.017 22.905-5.327 9.588-7.931 20.301-7.812 32.138 0 11.955 2.604 22.727 7.812 32.315 5.327 9.47 12.548 17.046 21.662 22.727 9.233 5.564 19.768 8.345 31.605 8.345 8.878 0 17.105-1.657 24.681-4.971 7.575-3.314 14.145-7.872 19.708-13.672 5.682-5.919 10.121-12.725 13.317-20.419 3.196-7.694 4.794-15.862 4.794-24.503-.118-11.482-2.841-22.017-8.167-31.605-5.327-9.588-12.666-17.282-22.017-23.082-9.352-5.8-19.887-8.7-31.606-8.7zM574.851 306.08v-60.547L726.662 6.363h52.202v83.808h-30.895l-95.703 151.455v2.841h215.731v61.613H574.851zM749.389 370v-82.386l1.421-26.811V6.363h72.088V370h-73.509zM1050.79 1.392c18.7 0 36.7 3.137 53.98 9.41 17.4 6.274 32.91 16.277 46.52 30.008 13.73 13.73 24.56 31.96 32.49 54.687 8.05 22.609 12.14 50.367 12.25 83.274 0 30.895-3.49 58.476-10.47 82.742-6.87 24.148-16.75 44.685-29.65 61.612-12.91 16.927-28.47 29.83-46.7 38.707-18.23 8.76-38.59 13.14-61.08 13.14-24.27 0-45.69-4.676-64.277-14.027-18.584-9.47-33.558-22.313-44.922-38.53-11.245-16.335-18.051-34.683-20.419-55.043h75.817c2.959 13.258 9.171 23.556 18.641 30.895 9.47 7.221 21.19 10.831 35.16 10.831 23.67 0 41.67-10.298 53.98-30.895 12.31-20.715 18.52-49.065 18.64-85.05h-2.49c-5.44 10.654-12.78 19.828-22.01 27.522-9.24 7.575-19.83 13.435-31.79 17.578-11.83 4.143-24.44 6.214-37.82 6.214-21.42 0-40.538-5.03-57.346-15.092-16.809-10.062-30.067-23.911-39.773-41.548-9.707-17.638-14.56-37.761-14.56-60.37-.118-24.384 5.504-46.105 16.868-65.163 11.364-19.058 27.225-33.972 47.585-44.744 20.478-10.89 44.276-16.276 71.376-16.158zm.53 60.37c-11.95 0-22.6 2.84-31.96 8.522-9.23 5.682-16.57 13.317-22.013 22.905-5.326 9.588-7.93 20.301-7.812 32.138 0 11.955 2.604 22.727 7.812 32.315 5.323 9.47 12.543 17.046 21.663 22.727 9.23 5.564 19.77 8.345 31.6 8.345 8.88 0 17.11-1.657 24.68-4.971 7.58-3.314 14.15-7.872 19.71-13.672 5.69-5.919 10.12-12.725 13.32-20.419 3.2-7.694 4.79-15.862 4.79-24.503-.11-11.482-2.84-22.017-8.16-31.605-5.33-9.588-12.67-17.282-22.02-23.082-9.35-5.8-19.89-8.7-31.61-8.7z" stroke="#9796A5" stroke-opacity=".15" stroke-width="2" mask="url(#a)"/></svg>