<svg width="1178" height="376" fill="none" xmlns="http://www.w3.org/2000/svg"><mask id="a" maskUnits="userSpaceOnUse" x=".109" y=".39" width="1178" height="376" fill="#000"><path fill="#fff" d="M.109.39h1178v376H.109z"/><path d="M163.396 6.364V370H86.514V79.34h-2.13l-83.276 52.2V63.359L91.131 6.364h72.265zm217.996-4.972c18.702 0 36.695 3.137 53.977 9.41 17.401 6.274 32.907 16.277 46.52 30.008 13.731 13.73 24.562 31.96 32.493 54.687 8.049 22.609 12.133 50.367 12.251 83.274 0 30.895-3.492 58.476-10.476 82.742-6.865 24.148-16.749 44.685-29.652 61.612-12.902 16.927-28.468 29.83-46.697 38.707-18.229 8.76-38.589 13.14-61.08 13.14-24.266 0-45.691-4.676-64.275-14.027-18.585-9.47-33.558-22.313-44.922-38.53-11.245-16.335-18.052-34.683-20.419-55.043h75.817c2.959 13.258 9.173 23.556 18.643 30.895 9.47 7.221 21.189 10.831 35.156 10.831 23.675 0 41.667-10.298 53.978-30.895 12.31-20.715 18.525-49.065 18.643-85.05h-2.486c-5.445 10.654-12.784 19.828-22.017 27.522-9.233 7.575-19.827 13.435-31.782 17.578-11.838 4.143-24.444 6.214-37.82 6.214-21.425 0-40.542-5.03-57.351-15.092-16.809-10.062-30.066-23.911-39.773-41.548-9.706-17.638-14.559-37.761-14.559-60.37-.119-24.384 5.504-46.105 16.868-65.163 11.363-19.058 27.225-33.972 47.585-44.744 20.478-10.89 44.271-16.276 71.378-16.158zm.532 60.37c-11.955 0-22.609 2.84-31.96 8.522-9.233 5.682-16.572 13.317-22.017 22.905-5.327 9.588-7.931 20.301-7.812 32.138 0 11.955 2.604 22.727 7.812 32.315 5.327 9.47 12.547 17.046 21.662 22.727 9.233 5.564 19.768 8.345 31.605 8.345 8.878 0 17.105-1.657 24.681-4.971 7.575-3.314 14.145-7.872 19.708-13.672 5.682-5.919 10.121-12.725 13.317-20.419 3.196-7.694 4.794-15.862 4.794-24.503-.118-11.482-2.841-22.017-8.167-31.605-5.327-9.588-12.666-17.282-22.018-23.082-9.351-5.8-19.886-8.7-31.605-8.7zm330.789 313.21c-25.095 0-47.467-4.617-67.117-13.85-19.531-9.233-35.038-21.958-46.52-38.175-11.482-16.216-17.459-34.801-17.933-55.752h74.574c.829 14.086 6.747 25.509 17.756 34.268 11.008 8.76 24.088 13.139 39.24 13.139 12.074 0 22.727-2.663 31.96-7.99 9.351-5.445 16.631-12.961 21.839-22.55 5.327-9.706 7.991-20.833 7.991-33.38 0-12.784-2.723-24.03-8.168-33.736-5.327-9.706-12.725-17.282-22.195-22.727-9.469-5.445-20.3-8.227-32.493-8.345-10.653 0-21.01 2.189-31.072 6.569-9.943 4.38-17.697 10.358-23.26 17.933l-68.359-12.251L606.179 6.364H828.48v62.855H669.566l-9.41 91.086h2.131c6.392-8.996 16.039-16.453 28.941-22.372 12.903-5.918 27.344-8.878 43.324-8.878 21.899 0 41.43 5.15 58.594 15.448s30.717 24.444 40.66 42.436c9.944 17.874 14.856 38.471 14.738 61.79.118 24.503-5.564 46.283-17.046 65.341-11.363 18.939-27.284 33.854-47.763 44.744-20.359 10.772-44.034 16.158-71.022 16.158zm323.867 0c-26.52 0-50.134-4.558-70.849-13.672-20.596-9.233-36.872-21.899-48.828-37.997-11.837-16.217-17.933-34.92-18.288-56.108h77.414c.474 8.877 3.374 16.69 8.701 23.437 5.445 6.629 12.665 11.778 21.66 15.448 9 3.669 19.12 5.504 30.36 5.504 11.72 0 22.08-2.072 31.08-6.215 8.99-4.143 16.04-9.884 21.13-17.223 5.09-7.339 7.63-15.802 7.63-25.39 0-9.707-2.72-18.289-8.17-25.746-5.32-7.576-13.02-13.494-23.08-17.756-9.94-4.261-21.78-6.392-35.51-6.392h-33.914v-56.463h33.914c11.6 0 21.84-2.012 30.72-6.037 8.99-4.024 15.98-9.588 20.95-16.69 4.97-7.221 7.46-15.625 7.46-25.213 0-9.115-2.19-17.105-6.57-23.97-4.27-6.984-10.3-12.43-18.11-16.336-7.7-3.906-16.7-5.859-26.99-5.859-10.42 0-19.95 1.894-28.59 5.682-8.64 3.67-15.566 8.937-20.774 15.802-5.209 6.866-7.99 14.915-8.345 24.148h-73.686c.355-20.952 6.332-39.418 17.933-55.398 11.6-15.98 27.225-28.468 46.875-37.464 19.768-9.115 42.077-13.672 66.937-13.672 25.1 0 47.05 4.557 65.88 13.672 18.82 9.114 33.44 21.425 43.85 36.932 10.54 15.388 15.75 32.67 15.63 51.846.12 20.36-6.22 37.346-19 50.959-12.67 13.613-29.18 22.254-49.54 25.923v2.841c26.75 3.433 47.11 12.725 61.08 27.877 14.09 15.033 21.07 33.854 20.95 56.463.12 20.715-5.86 39.122-17.93 55.22-11.96 16.098-28.47 28.764-49.54 37.997s-45.22 13.85-72.44 13.85z"/></mask><path d="M163.396 6.364V370H86.514V79.34h-2.13l-83.276 52.2V63.359L91.131 6.364h72.265zm217.996-4.972c18.702 0 36.695 3.137 53.977 9.41 17.401 6.274 32.907 16.277 46.52 30.008 13.731 13.73 24.562 31.96 32.493 54.687 8.049 22.609 12.133 50.367 12.251 83.274 0 30.895-3.492 58.476-10.476 82.742-6.865 24.148-16.749 44.685-29.652 61.612-12.902 16.927-28.468 29.83-46.697 38.707-18.229 8.76-38.589 13.14-61.08 13.14-24.266 0-45.691-4.676-64.275-14.027-18.585-9.47-33.558-22.313-44.922-38.53-11.245-16.335-18.052-34.683-20.419-55.043h75.817c2.959 13.258 9.173 23.556 18.643 30.895 9.47 7.221 21.189 10.831 35.156 10.831 23.675 0 41.667-10.298 53.978-30.895 12.31-20.715 18.525-49.065 18.643-85.05h-2.486c-5.445 10.654-12.784 19.828-22.017 27.522-9.233 7.575-19.827 13.435-31.782 17.578-11.838 4.143-24.444 6.214-37.82 6.214-21.425 0-40.542-5.03-57.351-15.092-16.809-10.062-30.066-23.911-39.773-41.548-9.706-17.638-14.559-37.761-14.559-60.37-.119-24.384 5.504-46.105 16.868-65.163 11.363-19.058 27.225-33.972 47.585-44.744 20.478-10.89 44.271-16.276 71.378-16.158zm.532 60.37c-11.955 0-22.609 2.84-31.96 8.522-9.233 5.682-16.572 13.317-22.017 22.905-5.327 9.588-7.931 20.301-7.812 32.138 0 11.955 2.604 22.727 7.812 32.315 5.327 9.47 12.547 17.046 21.662 22.727 9.233 5.564 19.768 8.345 31.605 8.345 8.878 0 17.105-1.657 24.681-4.971 7.575-3.314 14.145-7.872 19.708-13.672 5.682-5.919 10.121-12.725 13.317-20.419 3.196-7.694 4.794-15.862 4.794-24.503-.118-11.482-2.841-22.017-8.167-31.605-5.327-9.588-12.666-17.282-22.018-23.082-9.351-5.8-19.886-8.7-31.605-8.7zm330.789 313.21c-25.095 0-47.467-4.617-67.117-13.85-19.531-9.233-35.038-21.958-46.52-38.175-11.482-16.216-17.459-34.801-17.933-55.752h74.574c.829 14.086 6.747 25.509 17.756 34.268 11.008 8.76 24.088 13.139 39.24 13.139 12.074 0 22.727-2.663 31.96-7.99 9.351-5.445 16.631-12.961 21.839-22.55 5.327-9.706 7.991-20.833 7.991-33.38 0-12.784-2.723-24.03-8.168-33.736-5.327-9.706-12.725-17.282-22.195-22.727-9.469-5.445-20.3-8.227-32.493-8.345-10.653 0-21.01 2.189-31.072 6.569-9.943 4.38-17.697 10.358-23.26 17.933l-68.359-12.251L606.179 6.364H828.48v62.855H669.566l-9.41 91.086h2.131c6.392-8.996 16.039-16.453 28.941-22.372 12.903-5.918 27.344-8.878 43.324-8.878 21.899 0 41.43 5.15 58.594 15.448s30.717 24.444 40.66 42.436c9.944 17.874 14.856 38.471 14.738 61.79.118 24.503-5.564 46.283-17.046 65.341-11.363 18.939-27.284 33.854-47.763 44.744-20.359 10.772-44.034 16.158-71.022 16.158zm323.867 0c-26.52 0-50.134-4.558-70.849-13.672-20.596-9.233-36.872-21.899-48.828-37.997-11.837-16.217-17.933-34.92-18.288-56.108h77.414c.474 8.877 3.374 16.69 8.701 23.437 5.445 6.629 12.665 11.778 21.66 15.448 9 3.669 19.12 5.504 30.36 5.504 11.72 0 22.08-2.072 31.08-6.215 8.99-4.143 16.04-9.884 21.13-17.223 5.09-7.339 7.63-15.802 7.63-25.39 0-9.707-2.72-18.289-8.17-25.746-5.32-7.576-13.02-13.494-23.08-17.756-9.94-4.261-21.78-6.392-35.51-6.392h-33.914v-56.463h33.914c11.6 0 21.84-2.012 30.72-6.037 8.99-4.024 15.98-9.588 20.95-16.69 4.97-7.221 7.46-15.625 7.46-25.213 0-9.115-2.19-17.105-6.57-23.97-4.27-6.984-10.3-12.43-18.11-16.336-7.7-3.906-16.7-5.859-26.99-5.859-10.42 0-19.95 1.894-28.59 5.682-8.64 3.67-15.566 8.937-20.774 15.802-5.209 6.866-7.99 14.915-8.345 24.148h-73.686c.355-20.952 6.332-39.418 17.933-55.398 11.6-15.98 27.225-28.468 46.875-37.464 19.768-9.115 42.077-13.672 66.937-13.672 25.1 0 47.05 4.557 65.88 13.672 18.82 9.114 33.44 21.425 43.85 36.932 10.54 15.388 15.75 32.67 15.63 51.846.12 20.36-6.22 37.346-19 50.959-12.67 13.613-29.18 22.254-49.54 25.923v2.841c26.75 3.433 47.11 12.725 61.08 27.877 14.09 15.033 21.07 33.854 20.95 56.463.12 20.715-5.86 39.122-17.93 55.22-11.96 16.098-28.47 28.764-49.54 37.997s-45.22 13.85-72.44 13.85z" fill="#fff" fill-opacity=".6"/><path d="M163.396 6.364V370H86.514V79.34h-2.13l-83.276 52.2V63.359L91.131 6.364h72.265zm217.996-4.972c18.702 0 36.695 3.137 53.977 9.41 17.401 6.274 32.907 16.277 46.52 30.008 13.731 13.73 24.562 31.96 32.493 54.687 8.049 22.609 12.133 50.367 12.251 83.274 0 30.895-3.492 58.476-10.476 82.742-6.865 24.148-16.749 44.685-29.652 61.612-12.902 16.927-28.468 29.83-46.697 38.707-18.229 8.76-38.589 13.14-61.08 13.14-24.266 0-45.691-4.676-64.275-14.027-18.585-9.47-33.558-22.313-44.922-38.53-11.245-16.335-18.052-34.683-20.419-55.043h75.817c2.959 13.258 9.173 23.556 18.643 30.895 9.47 7.221 21.189 10.831 35.156 10.831 23.675 0 41.667-10.298 53.978-30.895 12.31-20.715 18.525-49.065 18.643-85.05h-2.486c-5.445 10.654-12.784 19.828-22.017 27.522-9.233 7.575-19.827 13.435-31.782 17.578-11.838 4.143-24.444 6.214-37.82 6.214-21.425 0-40.542-5.03-57.351-15.092-16.809-10.062-30.066-23.911-39.773-41.548-9.706-17.638-14.559-37.761-14.559-60.37-.119-24.384 5.504-46.105 16.868-65.163 11.363-19.058 27.225-33.972 47.585-44.744 20.478-10.89 44.271-16.276 71.378-16.158zm.532 60.37c-11.955 0-22.609 2.84-31.96 8.522-9.233 5.682-16.572 13.317-22.017 22.905-5.327 9.588-7.931 20.301-7.812 32.138 0 11.955 2.604 22.727 7.812 32.315 5.327 9.47 12.547 17.046 21.662 22.727 9.233 5.564 19.768 8.345 31.605 8.345 8.878 0 17.105-1.657 24.681-4.971 7.575-3.314 14.145-7.872 19.708-13.672 5.682-5.919 10.121-12.725 13.317-20.419 3.196-7.694 4.794-15.862 4.794-24.503-.118-11.482-2.841-22.017-8.167-31.605-5.327-9.588-12.666-17.282-22.018-23.082-9.351-5.8-19.886-8.7-31.605-8.7zm330.789 313.21c-25.095 0-47.467-4.617-67.117-13.85-19.531-9.233-35.038-21.958-46.52-38.175-11.482-16.216-17.459-34.801-17.933-55.752h74.574c.829 14.086 6.747 25.509 17.756 34.268 11.008 8.76 24.088 13.139 39.24 13.139 12.074 0 22.727-2.663 31.96-7.99 9.351-5.445 16.631-12.961 21.839-22.55 5.327-9.706 7.991-20.833 7.991-33.38 0-12.784-2.723-24.03-8.168-33.736-5.327-9.706-12.725-17.282-22.195-22.727-9.469-5.445-20.3-8.227-32.493-8.345-10.653 0-21.01 2.189-31.072 6.569-9.943 4.38-17.697 10.358-23.26 17.933l-68.359-12.251L606.179 6.364H828.48v62.855H669.566l-9.41 91.086h2.131c6.392-8.996 16.039-16.453 28.941-22.372 12.903-5.918 27.344-8.878 43.324-8.878 21.899 0 41.43 5.15 58.594 15.448s30.717 24.444 40.66 42.436c9.944 17.874 14.856 38.471 14.738 61.79.118 24.503-5.564 46.283-17.046 65.341-11.363 18.939-27.284 33.854-47.763 44.744-20.359 10.772-44.034 16.158-71.022 16.158zm323.867 0c-26.52 0-50.134-4.558-70.849-13.672-20.596-9.233-36.872-21.899-48.828-37.997-11.837-16.217-17.933-34.92-18.288-56.108h77.414c.474 8.877 3.374 16.69 8.701 23.437 5.445 6.629 12.665 11.778 21.66 15.448 9 3.669 19.12 5.504 30.36 5.504 11.72 0 22.08-2.072 31.08-6.215 8.99-4.143 16.04-9.884 21.13-17.223 5.09-7.339 7.63-15.802 7.63-25.39 0-9.707-2.72-18.289-8.17-25.746-5.32-7.576-13.02-13.494-23.08-17.756-9.94-4.261-21.78-6.392-35.51-6.392h-33.914v-56.463h33.914c11.6 0 21.84-2.012 30.72-6.037 8.99-4.024 15.98-9.588 20.95-16.69 4.97-7.221 7.46-15.625 7.46-25.213 0-9.115-2.19-17.105-6.57-23.97-4.27-6.984-10.3-12.43-18.11-16.336-7.7-3.906-16.7-5.859-26.99-5.859-10.42 0-19.95 1.894-28.59 5.682-8.64 3.67-15.566 8.937-20.774 15.802-5.209 6.866-7.99 14.915-8.345 24.148h-73.686c.355-20.952 6.332-39.418 17.933-55.398 11.6-15.98 27.225-28.468 46.875-37.464 19.768-9.115 42.077-13.672 66.937-13.672 25.1 0 47.05 4.557 65.88 13.672 18.82 9.114 33.44 21.425 43.85 36.932 10.54 15.388 15.75 32.67 15.63 51.846.12 20.36-6.22 37.346-19 50.959-12.67 13.613-29.18 22.254-49.54 25.923v2.841c26.75 3.433 47.11 12.725 61.08 27.877 14.09 15.033 21.07 33.854 20.95 56.463.12 20.715-5.86 39.122-17.93 55.22-11.96 16.098-28.47 28.764-49.54 37.997s-45.22 13.85-72.44 13.85z" stroke="#9796A5" stroke-opacity=".15" stroke-width="2" mask="url(#a)"/></svg>