<svg width="1173" height="376" fill="none" xmlns="http://www.w3.org/2000/svg"><mask id="a" maskUnits="userSpaceOnUse" x=".771" y=".39" width="1172" height="376" fill="#000"><path fill="#fff" d="M.771.39h1172v376H.771z"/><path d="M164.058 6.364V370H87.176V79.34h-2.13L1.77 131.54V63.359L91.793 6.364h72.265zm217.996-4.972c18.702 0 36.695 3.137 53.977 9.41 17.401 6.274 32.907 16.277 46.52 30.008 13.731 13.73 24.562 31.96 32.493 54.687 8.049 22.609 12.133 50.367 12.251 83.274 0 30.895-3.492 58.476-10.476 82.742-6.865 24.148-16.749 44.685-29.652 61.612-12.902 16.927-28.468 29.83-46.697 38.707-18.229 8.76-38.589 13.14-61.08 13.14-24.266 0-45.691-4.676-64.275-14.027-18.584-9.47-33.558-22.313-44.922-38.53-11.245-16.335-18.052-34.683-20.419-55.043h75.817c2.959 13.258 9.173 23.556 18.643 30.895 9.47 7.221 21.189 10.831 35.156 10.831 23.675 0 41.667-10.298 53.978-30.895 12.31-20.715 18.525-49.065 18.643-85.05h-2.486c-5.445 10.654-12.784 19.828-22.017 27.522-9.233 7.575-19.827 13.435-31.782 17.578-11.837 4.143-24.444 6.214-37.82 6.214-21.425 0-40.542-5.03-57.351-15.092-16.809-10.062-30.066-23.911-39.772-41.548-9.707-17.638-14.56-37.761-14.56-60.37-.119-24.384 5.504-46.105 16.868-65.163 11.363-19.058 27.225-33.972 47.585-44.744 20.478-10.89 44.271-16.276 71.378-16.158zm.532 60.37c-11.955 0-22.608 2.84-31.96 8.522-9.233 5.682-16.572 13.317-22.017 22.905-5.327 9.588-7.931 20.301-7.812 32.138 0 11.955 2.604 22.727 7.812 32.315 5.327 9.47 12.548 17.046 21.662 22.727 9.233 5.564 19.768 8.345 31.605 8.345 8.878 0 17.105-1.657 24.681-4.971 7.575-3.314 14.145-7.872 19.708-13.672 5.682-5.919 10.121-12.725 13.317-20.419 3.196-7.694 4.794-15.862 4.794-24.503-.118-11.482-2.841-22.017-8.167-31.605-5.327-9.588-12.666-17.282-22.017-23.082-9.352-5.8-19.887-8.7-31.606-8.7zm330.789 313.21c-25.095 0-47.467-4.617-67.117-13.85-19.531-9.233-35.038-21.958-46.52-38.175-11.482-16.216-17.459-34.801-17.933-55.752h74.574c.829 14.086 6.747 25.509 17.756 34.268 11.008 8.76 24.088 13.139 39.24 13.139 12.074 0 22.727-2.663 31.96-7.99 9.351-5.445 16.631-12.961 21.84-22.55 5.326-9.706 7.99-20.833 7.99-33.38 0-12.784-2.723-24.03-8.168-33.736-5.327-9.706-12.725-17.282-22.195-22.727-9.469-5.445-20.3-8.227-32.492-8.345-10.654 0-21.011 2.189-31.073 6.569-9.943 4.38-17.696 10.358-23.26 17.933l-68.359-12.251L606.841 6.364h222.301v62.855H670.229l-9.411 91.086h2.131c6.392-8.996 16.039-16.453 28.941-22.372 12.903-5.918 27.344-8.878 43.324-8.878 21.899 0 41.43 5.15 58.594 15.448s30.717 24.444 40.661 42.436c9.943 17.874 14.855 38.471 14.737 61.79.118 24.503-5.564 46.283-17.046 65.341-11.363 18.939-27.284 33.854-47.762 44.744-20.36 10.772-44.035 16.158-71.023 16.158zm322.265 0c-25.09 0-47.466-4.617-67.116-13.85-19.531-9.233-35.038-21.958-46.52-38.175-11.482-16.216-17.46-34.801-17.933-55.752h74.574c.828 14.086 6.747 25.509 17.755 34.268 11.01 8.76 24.09 13.139 39.24 13.139 12.07 0 22.73-2.663 31.96-7.99 9.35-5.445 16.63-12.961 21.84-22.55 5.33-9.706 7.99-20.833 7.99-33.38 0-12.784-2.72-24.03-8.17-33.736-5.32-9.706-12.72-17.282-22.19-22.727s-20.3-8.227-32.49-8.345c-10.66 0-21.02 2.189-31.08 6.569-9.941 4.38-17.694 10.358-23.257 17.933l-68.36-12.251L929.106 6.364h222.304v62.855H992.494l-9.41 91.086h2.13c6.392-8.996 16.036-16.453 28.946-22.372 12.9-5.918 27.34-8.878 43.32-8.878 21.9 0 41.43 5.15 58.59 15.448 17.17 10.298 30.72 24.444 40.66 42.436 9.95 17.874 14.86 38.471 14.74 61.79.12 24.503-5.56 46.283-17.04 65.341-11.37 18.939-27.29 33.854-47.77 44.744-20.36 10.772-44.03 16.158-71.02 16.158z"/></mask><path d="M164.058 6.364V370H87.176V79.34h-2.13L1.77 131.54V63.359L91.793 6.364h72.265zm217.996-4.972c18.702 0 36.695 3.137 53.977 9.41 17.401 6.274 32.907 16.277 46.52 30.008 13.731 13.73 24.562 31.96 32.493 54.687 8.049 22.609 12.133 50.367 12.251 83.274 0 30.895-3.492 58.476-10.476 82.742-6.865 24.148-16.749 44.685-29.652 61.612-12.902 16.927-28.468 29.83-46.697 38.707-18.229 8.76-38.589 13.14-61.08 13.14-24.266 0-45.691-4.676-64.275-14.027-18.584-9.47-33.558-22.313-44.922-38.53-11.245-16.335-18.052-34.683-20.419-55.043h75.817c2.959 13.258 9.173 23.556 18.643 30.895 9.47 7.221 21.189 10.831 35.156 10.831 23.675 0 41.667-10.298 53.978-30.895 12.31-20.715 18.525-49.065 18.643-85.05h-2.486c-5.445 10.654-12.784 19.828-22.017 27.522-9.233 7.575-19.827 13.435-31.782 17.578-11.837 4.143-24.444 6.214-37.82 6.214-21.425 0-40.542-5.03-57.351-15.092-16.809-10.062-30.066-23.911-39.772-41.548-9.707-17.638-14.56-37.761-14.56-60.37-.119-24.384 5.504-46.105 16.868-65.163 11.363-19.058 27.225-33.972 47.585-44.744 20.478-10.89 44.271-16.276 71.378-16.158zm.532 60.37c-11.955 0-22.608 2.84-31.96 8.522-9.233 5.682-16.572 13.317-22.017 22.905-5.327 9.588-7.931 20.301-7.812 32.138 0 11.955 2.604 22.727 7.812 32.315 5.327 9.47 12.548 17.046 21.662 22.727 9.233 5.564 19.768 8.345 31.605 8.345 8.878 0 17.105-1.657 24.681-4.971 7.575-3.314 14.145-7.872 19.708-13.672 5.682-5.919 10.121-12.725 13.317-20.419 3.196-7.694 4.794-15.862 4.794-24.503-.118-11.482-2.841-22.017-8.167-31.605-5.327-9.588-12.666-17.282-22.017-23.082-9.352-5.8-19.887-8.7-31.606-8.7zm330.789 313.21c-25.095 0-47.467-4.617-67.117-13.85-19.531-9.233-35.038-21.958-46.52-38.175-11.482-16.216-17.459-34.801-17.933-55.752h74.574c.829 14.086 6.747 25.509 17.756 34.268 11.008 8.76 24.088 13.139 39.24 13.139 12.074 0 22.727-2.663 31.96-7.99 9.351-5.445 16.631-12.961 21.84-22.55 5.326-9.706 7.99-20.833 7.99-33.38 0-12.784-2.723-24.03-8.168-33.736-5.327-9.706-12.725-17.282-22.195-22.727-9.469-5.445-20.3-8.227-32.492-8.345-10.654 0-21.011 2.189-31.073 6.569-9.943 4.38-17.696 10.358-23.26 17.933l-68.359-12.251L606.841 6.364h222.301v62.855H670.229l-9.411 91.086h2.131c6.392-8.996 16.039-16.453 28.941-22.372 12.903-5.918 27.344-8.878 43.324-8.878 21.899 0 41.43 5.15 58.594 15.448s30.717 24.444 40.661 42.436c9.943 17.874 14.855 38.471 14.737 61.79.118 24.503-5.564 46.283-17.046 65.341-11.363 18.939-27.284 33.854-47.762 44.744-20.36 10.772-44.035 16.158-71.023 16.158zm322.265 0c-25.09 0-47.466-4.617-67.116-13.85-19.531-9.233-35.038-21.958-46.52-38.175-11.482-16.216-17.46-34.801-17.933-55.752h74.574c.828 14.086 6.747 25.509 17.755 34.268 11.01 8.76 24.09 13.139 39.24 13.139 12.07 0 22.73-2.663 31.96-7.99 9.35-5.445 16.63-12.961 21.84-22.55 5.33-9.706 7.99-20.833 7.99-33.38 0-12.784-2.72-24.03-8.17-33.736-5.32-9.706-12.72-17.282-22.19-22.727s-20.3-8.227-32.49-8.345c-10.66 0-21.02 2.189-31.08 6.569-9.941 4.38-17.694 10.358-23.257 17.933l-68.36-12.251L929.106 6.364h222.304v62.855H992.494l-9.41 91.086h2.13c6.392-8.996 16.036-16.453 28.946-22.372 12.9-5.918 27.34-8.878 43.32-8.878 21.9 0 41.43 5.15 58.59 15.448 17.17 10.298 30.72 24.444 40.66 42.436 9.95 17.874 14.86 38.471 14.74 61.79.12 24.503-5.56 46.283-17.04 65.341-11.37 18.939-27.29 33.854-47.77 44.744-20.36 10.772-44.03 16.158-71.02 16.158z" fill="#fff" fill-opacity=".7"/><path d="M164.058 6.364V370H87.176V79.34h-2.13L1.77 131.54V63.359L91.793 6.364h72.265zm217.996-4.972c18.702 0 36.695 3.137 53.977 9.41 17.401 6.274 32.907 16.277 46.52 30.008 13.731 13.73 24.562 31.96 32.493 54.687 8.049 22.609 12.133 50.367 12.251 83.274 0 30.895-3.492 58.476-10.476 82.742-6.865 24.148-16.749 44.685-29.652 61.612-12.902 16.927-28.468 29.83-46.697 38.707-18.229 8.76-38.589 13.14-61.08 13.14-24.266 0-45.691-4.676-64.275-14.027-18.584-9.47-33.558-22.313-44.922-38.53-11.245-16.335-18.052-34.683-20.419-55.043h75.817c2.959 13.258 9.173 23.556 18.643 30.895 9.47 7.221 21.189 10.831 35.156 10.831 23.675 0 41.667-10.298 53.978-30.895 12.31-20.715 18.525-49.065 18.643-85.05h-2.486c-5.445 10.654-12.784 19.828-22.017 27.522-9.233 7.575-19.827 13.435-31.782 17.578-11.837 4.143-24.444 6.214-37.82 6.214-21.425 0-40.542-5.03-57.351-15.092-16.809-10.062-30.066-23.911-39.772-41.548-9.707-17.638-14.56-37.761-14.56-60.37-.119-24.384 5.504-46.105 16.868-65.163 11.363-19.058 27.225-33.972 47.585-44.744 20.478-10.89 44.271-16.276 71.378-16.158zm.532 60.37c-11.955 0-22.608 2.84-31.96 8.522-9.233 5.682-16.572 13.317-22.017 22.905-5.327 9.588-7.931 20.301-7.812 32.138 0 11.955 2.604 22.727 7.812 32.315 5.327 9.47 12.548 17.046 21.662 22.727 9.233 5.564 19.768 8.345 31.605 8.345 8.878 0 17.105-1.657 24.681-4.971 7.575-3.314 14.145-7.872 19.708-13.672 5.682-5.919 10.121-12.725 13.317-20.419 3.196-7.694 4.794-15.862 4.794-24.503-.118-11.482-2.841-22.017-8.167-31.605-5.327-9.588-12.666-17.282-22.017-23.082-9.352-5.8-19.887-8.7-31.606-8.7zm330.789 313.21c-25.095 0-47.467-4.617-67.117-13.85-19.531-9.233-35.038-21.958-46.52-38.175-11.482-16.216-17.459-34.801-17.933-55.752h74.574c.829 14.086 6.747 25.509 17.756 34.268 11.008 8.76 24.088 13.139 39.24 13.139 12.074 0 22.727-2.663 31.96-7.99 9.351-5.445 16.631-12.961 21.84-22.55 5.326-9.706 7.99-20.833 7.99-33.38 0-12.784-2.723-24.03-8.168-33.736-5.327-9.706-12.725-17.282-22.195-22.727-9.469-5.445-20.3-8.227-32.492-8.345-10.654 0-21.011 2.189-31.073 6.569-9.943 4.38-17.696 10.358-23.26 17.933l-68.359-12.251L606.841 6.364h222.301v62.855H670.229l-9.411 91.086h2.131c6.392-8.996 16.039-16.453 28.941-22.372 12.903-5.918 27.344-8.878 43.324-8.878 21.899 0 41.43 5.15 58.594 15.448s30.717 24.444 40.661 42.436c9.943 17.874 14.855 38.471 14.737 61.79.118 24.503-5.564 46.283-17.046 65.341-11.363 18.939-27.284 33.854-47.762 44.744-20.36 10.772-44.035 16.158-71.023 16.158zm322.265 0c-25.09 0-47.466-4.617-67.116-13.85-19.531-9.233-35.038-21.958-46.52-38.175-11.482-16.216-17.46-34.801-17.933-55.752h74.574c.828 14.086 6.747 25.509 17.755 34.268 11.01 8.76 24.09 13.139 39.24 13.139 12.07 0 22.73-2.663 31.96-7.99 9.35-5.445 16.63-12.961 21.84-22.55 5.33-9.706 7.99-20.833 7.99-33.38 0-12.784-2.72-24.03-8.17-33.736-5.32-9.706-12.72-17.282-22.19-22.727s-20.3-8.227-32.49-8.345c-10.66 0-21.02 2.189-31.08 6.569-9.941 4.38-17.694 10.358-23.257 17.933l-68.36-12.251L929.106 6.364h222.304v62.855H992.494l-9.41 91.086h2.13c6.392-8.996 16.036-16.453 28.946-22.372 12.9-5.918 27.34-8.878 43.32-8.878 21.9 0 41.43 5.15 58.59 15.448 17.17 10.298 30.72 24.444 40.66 42.436 9.95 17.874 14.86 38.471 14.74 61.79.12 24.503-5.56 46.283-17.04 65.341-11.37 18.939-27.29 33.854-47.77 44.744-20.36 10.772-44.03 16.158-71.02 16.158z" stroke="#9796A5" stroke-opacity=".35" stroke-width="2" mask="url(#a)"/></svg>