<svg width="1144" height="374" fill="none" xmlns="http://www.w3.org/2000/svg"><path d="M162.486 5.364V369H85.604V78.34h-2.13L.198 130.54V62.359L90.221 5.364h72.265zM380.482.392c18.702 0 36.695 3.137 53.977 9.41 17.4 6.274 32.907 16.277 46.52 30.008 13.731 13.73 24.562 31.96 32.493 54.687 8.049 22.609 12.133 50.367 12.251 83.274 0 30.895-3.492 58.476-10.476 82.742-6.865 24.148-16.749 44.685-29.652 61.612-12.902 16.927-28.468 29.83-46.697 38.707-18.229 8.76-38.589 13.14-61.08 13.14-24.266 0-45.691-4.676-64.275-14.027-18.585-9.47-33.559-22.313-44.922-38.53-11.246-16.335-18.052-34.683-20.419-55.043h75.816c2.96 13.258 9.174 23.556 18.644 30.895 9.47 7.221 21.188 10.831 35.156 10.831 23.674 0 41.667-10.298 53.977-30.895 12.311-20.715 18.526-49.065 18.644-85.05h-2.486c-5.445 10.654-12.784 19.828-22.017 27.522-9.233 7.575-19.827 13.435-31.783 17.578-11.837 4.143-24.443 6.214-37.819 6.214-21.425 0-40.542-5.03-57.351-15.092-16.809-10.062-30.066-23.911-39.773-41.548-9.706-17.638-14.559-37.761-14.559-60.37-.119-24.384 5.504-46.105 16.867-65.163 11.364-19.058 27.226-33.972 47.586-44.744C329.582 5.66 353.375.274 380.482.392zm.532 60.37c-11.955 0-22.609 2.84-31.96 8.522-9.233 5.682-16.572 13.317-22.017 22.905-5.327 9.588-7.931 20.301-7.813 32.138 0 11.955 2.605 22.727 7.813 32.315 5.327 9.47 12.547 17.045 21.662 22.727 9.233 5.564 19.768 8.345 31.605 8.345 8.878 0 17.105-1.657 24.68-4.971 7.576-3.315 14.146-7.872 19.709-13.672 5.682-5.919 10.121-12.725 13.317-20.419 3.196-7.694 4.794-15.862 4.794-24.503-.118-11.482-2.841-22.017-8.168-31.605-5.326-9.588-12.665-17.282-22.017-23.082-9.351-5.8-19.886-8.7-31.605-8.7zM710.56.391c18.702 0 36.695 3.137 53.977 9.41 17.401 6.274 32.907 16.277 46.52 30.008 13.731 13.73 24.562 31.96 32.493 54.687 8.049 22.609 12.133 50.367 12.251 83.274 0 30.895-3.492 58.476-10.476 82.742-6.865 24.148-16.749 44.685-29.652 61.612-12.902 16.927-28.468 29.83-46.697 38.707-18.229 8.76-38.589 13.14-61.08 13.14-24.266 0-45.691-4.676-64.275-14.027-18.585-9.47-33.558-22.313-44.922-38.53-11.245-16.335-18.052-34.683-20.419-55.043h75.817c2.959 13.258 9.173 23.556 18.643 30.895 9.47 7.221 21.189 10.831 35.156 10.831 23.675 0 41.667-10.298 53.978-30.895 12.31-20.715 18.525-49.065 18.643-85.05h-2.486c-5.445 10.654-12.784 19.828-22.017 27.522-9.233 7.575-19.827 13.435-31.782 17.578-11.838 4.143-24.444 6.214-37.82 6.214-21.425 0-40.542-5.03-57.351-15.092-16.809-10.062-30.066-23.911-39.773-41.548-9.706-17.638-14.559-37.761-14.559-60.37-.119-24.384 5.504-46.105 16.868-65.163 11.363-19.058 27.225-33.972 47.585-44.744C659.66 5.66 683.453.274 710.56.392zm.532 60.37c-11.955 0-22.609 2.84-31.96 8.522-9.233 5.682-16.572 13.317-22.017 22.905-5.327 9.588-7.931 20.301-7.812 32.138 0 11.955 2.604 22.727 7.812 32.315 5.327 9.47 12.547 17.045 21.662 22.727 9.233 5.564 19.768 8.345 31.605 8.345 8.878 0 17.105-1.657 24.68-4.971 7.576-3.315 14.146-7.872 19.709-13.672 5.682-5.919 10.121-12.725 13.317-20.419 3.196-7.694 4.794-15.862 4.794-24.503-.118-11.482-2.841-22.017-8.168-31.605-5.326-9.588-12.665-17.282-22.017-23.082-9.351-5.8-19.886-8.7-31.605-8.7zM913.685 369L1064.43 70.704V68.22H888.827V5.364h255.153v63.742L993.053 369h-79.368z" fill="#fff" fill-opacity=".6"/><path d="M515.728 260.65c-6.879 24.197-16.788 44.793-29.735 61.778-12.947 16.986-28.573 29.941-46.876 38.854l-.002.001c-18.304 8.796-38.74 13.189-61.297 13.189-24.331 0-45.835-4.689-64.5-14.08l-.002-.001c-18.654-9.506-33.692-22.401-45.104-38.689l-.003-.003c-11.294-16.405-18.128-34.831-20.504-55.269l-.064-.558h76.778l.087.391c2.938 13.159 9.095 23.348 18.459 30.606 9.369 7.144 20.975 10.729 34.853 10.729 23.495 0 41.327-10.203 53.548-30.651 12.191-20.514 18.397-48.597 18.571-84.294h-1.679c-5.461 10.598-12.796 19.735-22.002 27.406l-.003.003c-9.281 7.614-19.927 13.502-31.935 17.663-11.893 4.163-24.556 6.242-37.984 6.242-21.507 0-40.714-5.05-57.608-15.163-16.887-10.109-30.206-24.024-39.954-41.736-9.751-17.72-14.621-37.927-14.621-60.609-.119-24.465 5.523-46.278 16.938-65.421 11.412-19.14 27.343-34.117 47.78-44.93C329.431 5.173 353.308-.226 380.483-.108c18.759 0 36.809 3.147 54.147 9.44m81.098 251.318l-.001.001-.48-.138.481.137zm0 0c6.999-24.32 10.495-51.948 10.495-82.879v-.002c-.118-32.943-4.206-60.761-12.28-83.438m0 0c-7.949-22.78-18.815-41.079-32.609-54.874m32.609 54.874v-.002l-.471.168m.471-.166l.001.001-.472.165m-32.138-55.04c-13.663-13.78-29.232-23.825-46.704-30.124m46.704 30.124h-.001l-.354.353m.355-.353s0 0 0 0l-.355.353M434.63 9.333h-.001l-.17.47m.171-.47l-.171.47m0 0c17.4 6.273 32.907 16.276 46.52 30.007m-46.52-30.007l91.264 167.968c-.118-32.907-4.202-60.665-12.251-83.274M480.979 39.81c13.731 13.73 24.562 31.96 32.493 54.687M313.543 359.945c18.584 9.351 40.009 14.027 64.275 14.027 22.491 0 42.851-4.38 61.08-13.14l-125.355-.887zm0 0c-18.585-9.47-33.559-22.313-44.922-38.53l44.922 38.53zm13.494-267.756c-5.327 9.588-7.931 20.301-7.813 32.138 0 11.955 2.605 22.727 7.813 32.315m0-64.453l.435.247.001-.002m-.436-.245c5.445-9.588 12.784-17.223 22.017-22.905M327.037 92.19l.437.243-.001.002m0 0c-5.281 9.506-7.866 20.132-7.749 31.888v.005c0 11.878 2.587 22.566 7.75 32.073m-.001-63.966c5.403-9.515 12.683-17.087 21.841-22.723m-21.84 86.689l-.001-.003-.436.245m.437-.242l.002.003-.439.239m.437-.242c5.286 9.395 12.446 16.906 21.486 22.542m-21.923-22.3c5.327 9.47 12.547 17.045 21.662 22.727m0 0l.258-.428.003.001m-.261.427c9.233 5.564 19.768 8.345 31.605 8.345 8.878 0 17.105-1.657 24.68-4.971 7.576-3.315 14.146-7.872 19.709-13.672m-75.994 10.298l.265-.424-.004-.003m0 0c9.147 5.512 19.59 8.272 31.344 8.272 8.814 0 16.972-1.645 24.48-4.929 7.517-3.289 14.032-7.809 19.548-13.56l.361.346m0 0l-.361-.346c5.639-5.874 10.044-12.627 13.216-20.265 3.17-7.63 4.756-15.732 4.756-24.309m-17.611 44.92c5.682-5.919 10.121-12.725 13.317-20.419 3.196-7.694 4.794-15.862 4.794-24.503m-.5.002c-.118-11.401-2.821-21.853-8.105-31.364l.437-.243m7.668 31.607v-.002h.5m-.5.002v.003l.5-.005m0 0c-.118-11.482-2.841-22.017-8.168-31.605m0 0c-5.326-9.588-12.665-17.282-22.017-23.082m22.017 23.082l-.437.243c-5.285-9.513-12.564-17.145-21.844-22.9l.264-.425m0 0c-9.351-5.8-19.886-8.7-31.605-8.7-11.955 0-22.609 2.84-31.96 8.522m63.565.178l-.264.424c-9.266-5.747-19.709-8.625-31.341-8.625-11.872 0-22.434 2.82-31.7 8.45m-.26-.427l.262.426-.002.001m-.26-.427l.26.427s0 0 0 0M845.806 260.65c-6.879 24.197-16.788 44.793-29.735 61.778-12.947 16.986-28.573 29.941-46.876 38.854l-.002.001c-18.304 8.796-38.74 13.189-61.297 13.189-24.331 0-45.835-4.689-64.5-14.08l-.002-.001c-18.654-9.506-33.691-22.401-45.105-38.689l-.002-.003c-11.293-16.405-18.128-34.831-20.504-55.269l-.064-.558h76.779l.087.391c2.937 13.159 9.094 23.348 18.458 30.606 9.369 7.144 20.976 10.729 34.853 10.729 23.496 0 41.327-10.203 53.549-30.652 12.19-20.513 18.396-48.596 18.57-84.293h-1.679c-5.461 10.598-12.796 19.735-22.002 27.406l-.003.003c-9.281 7.614-19.927 13.502-31.934 17.663-11.894 4.163-24.557 6.242-37.985 6.242-21.507 0-40.714-5.05-57.608-15.163-16.887-10.109-30.206-24.024-39.954-41.736-9.751-17.72-14.621-37.927-14.621-60.609-.119-24.465 5.523-46.278 16.939-65.421 11.411-19.14 27.342-34.117 47.78-44.93C659.51 5.173 683.386-.226 710.561-.108c18.759 0 36.809 3.147 54.147 9.44m81.098 251.318l-.001.001-.48-.138.481.137zm0 0c6.999-24.32 10.495-51.948 10.495-82.879v-.002c-.118-32.943-4.206-60.761-12.28-83.438m0 0c-7.949-22.78-18.815-41.079-32.609-54.874-13.663-13.78-29.231-23.825-46.704-30.124m79.313 84.998v-.002l-.471.168m.471-.166l.001.001-.472.165M764.708 9.333h-.001l-.17.47m.171-.47l-.171.47m0 0c17.401 6.273 32.907 16.276 46.52 30.007 13.731 13.73 24.562 31.96 32.493 54.687M764.537 9.803l91.264 167.968c-.118-32.907-4.202-60.665-12.251-83.274M643.621 359.945c18.584 9.351 40.009 14.027 64.275 14.027 22.491 0 42.851-4.38 61.08-13.14l-125.355-.887zm0 0c-18.585-9.47-33.558-22.313-44.922-38.53l44.922 38.53zM162.986 5.364v-.5h-72.91l-.123.077L-.068 61.937l-.233.147v69.361l.766-.48 83.152-52.126h1.487V369.5h77.882V5.364zm486.817 118.963v-.005c-.118-11.757 2.467-22.384 7.749-31.89 5.404-9.514 12.682-17.085 21.84-22.72 9.265-5.63 19.828-8.45 31.7-8.45 11.632 0 22.075 2.877 31.341 8.624 9.28 5.756 16.559 13.388 21.844 22.9 5.285 9.513 7.988 19.965 8.105 31.368-.001 8.576-1.587 16.677-4.756 24.306-3.172 7.638-7.577 14.391-13.216 20.265l.361.346-.361-.346c-5.516 5.751-12.031 10.271-19.548 13.56-7.508 3.284-15.666 4.929-24.48 4.929-11.753 0-22.196-2.76-31.342-8.27-9.041-5.637-16.201-13.148-21.487-22.543-5.163-9.507-7.75-20.195-7.75-32.074zm263.436 244.447l-.367.726h80.489l.139-.275 150.93-299.894.05-.106V4.864H888.327v63.855h175.603v1.866L913.239 368.774z" stroke="#9796A5" stroke-opacity=".35"/></svg>