<svg width="1070" height="376" fill="none" xmlns="http://www.w3.org/2000/svg"><mask id="a" maskUnits="userSpaceOnUse" x=".439" y=".39" width="1070" height="376" fill="#000"><path fill="#fff" d="M.439.39h1070v376H.439z"/><path d="M163.726 6.364V370H86.844V79.34h-2.13l-83.275 52.2V63.359L91.461 6.364h72.265zm217.996-4.972c18.702 0 36.695 3.137 53.977 9.41 17.401 6.274 32.907 16.277 46.52 30.008 13.731 13.73 24.562 31.96 32.493 54.687 8.049 22.609 12.133 50.367 12.251 83.274 0 30.895-3.492 58.476-10.476 82.742-6.865 24.148-16.749 44.685-29.652 61.612-12.902 16.927-28.468 29.83-46.697 38.707-18.229 8.76-38.589 13.14-61.08 13.14-24.266 0-45.691-4.676-64.275-14.027-18.584-9.47-33.558-22.313-44.922-38.53-11.245-16.335-18.052-34.683-20.419-55.043h75.817c2.959 13.258 9.173 23.556 18.643 30.895 9.47 7.221 21.189 10.831 35.156 10.831 23.675 0 41.667-10.298 53.978-30.895 12.31-20.715 18.525-49.065 18.643-85.05h-2.486c-5.445 10.654-12.784 19.828-22.017 27.522-9.233 7.575-19.827 13.435-31.782 17.578-11.837 4.143-24.444 6.214-37.82 6.214-21.425 0-40.542-5.03-57.351-15.092-16.809-10.062-30.066-23.911-39.773-41.548-9.706-17.638-14.559-37.761-14.559-60.37-.119-24.384 5.504-46.105 16.868-65.163 11.363-19.058 27.225-33.972 47.585-44.744 20.478-10.89 44.271-16.276 71.378-16.158zm.532 60.37c-11.955 0-22.608 2.84-31.96 8.522-9.233 5.682-16.572 13.317-22.017 22.905-5.327 9.588-7.931 20.301-7.812 32.138 0 11.955 2.604 22.727 7.812 32.315 5.327 9.47 12.548 17.046 21.662 22.727 9.233 5.564 19.768 8.345 31.605 8.345 8.878 0 17.105-1.657 24.681-4.971 7.575-3.314 14.145-7.872 19.708-13.672 5.682-5.919 10.121-12.725 13.317-20.419 3.196-7.694 4.794-15.862 4.794-24.503-.118-11.482-2.841-22.017-8.167-31.605-5.327-9.588-12.666-17.282-22.017-23.082-9.352-5.8-19.887-8.7-31.606-8.7zm333.63 313.21c-27.344 0-51.669-4.439-72.976-13.317-21.189-8.996-37.82-21.248-49.894-36.754-12.073-15.507-18.11-33.085-18.11-52.735 0-15.151 3.432-29.06 10.298-41.726 6.984-12.784 16.453-23.378 28.409-31.782 11.955-8.523 25.331-13.968 40.128-16.336v-2.485c-19.413-3.907-35.156-13.317-47.23-28.232-12.074-15.033-18.111-32.493-18.111-52.38 0-18.82 5.504-35.57 16.513-50.248 11.008-14.796 26.101-26.396 45.277-34.8 19.294-8.524 41.193-12.785 65.696-12.785s46.342 4.261 65.518 12.784c19.295 8.523 34.446 20.182 45.455 34.979 11.008 14.678 16.572 31.368 16.69 50.07-.118 20.006-6.274 37.465-18.466 52.38s-27.817 24.325-46.875 28.232v2.485c14.56 2.368 27.758 7.813 39.595 16.336 11.956 8.404 21.426 18.998 28.409 31.782 7.103 12.666 10.713 26.575 10.831 41.726-.118 19.65-6.214 37.228-18.288 52.735-12.074 15.506-28.764 27.758-50.071 36.754-21.188 8.878-45.455 13.317-72.798 13.317zm0-56.463c12.192 0 22.845-2.19 31.96-6.57 9.115-4.498 16.217-10.653 21.307-18.466 5.208-7.931 7.812-17.045 7.812-27.344 0-10.535-2.663-19.827-7.99-27.876-5.327-8.168-12.547-14.56-21.662-19.176-9.114-4.735-19.59-7.103-31.427-7.103-11.719 0-22.195 2.368-31.428 7.103-9.233 4.616-16.513 11.008-21.839 19.176-5.209 8.049-7.813 17.341-7.813 27.876 0 10.299 2.545 19.413 7.635 27.344 5.09 7.813 12.252 13.968 21.484 18.466 9.233 4.38 19.887 6.57 31.961 6.57zm0-162.465c10.18 0 19.235-2.071 27.166-6.214 7.931-4.143 14.145-9.884 18.643-17.223 4.498-7.339 6.748-15.803 6.748-25.391 0-9.47-2.25-17.756-6.748-24.858-4.498-7.22-10.653-12.843-18.466-16.868-7.812-4.143-16.927-6.214-27.343-6.214-10.299 0-19.413 2.071-27.344 6.214-7.931 4.025-14.145 9.647-18.644 16.868-4.379 7.102-6.569 15.388-6.569 24.858 0 9.588 2.249 18.052 6.747 25.391 4.498 7.339 10.713 13.08 18.644 17.223 7.93 4.143 16.986 6.214 27.166 6.214zM1069 6.364V370h-76.882V79.34h-2.131l-83.274 52.201V63.359l90.021-56.995H1069z"/></mask><path d="M163.726 6.364V370H86.844V79.34h-2.13l-83.275 52.2V63.359L91.461 6.364h72.265zm217.996-4.972c18.702 0 36.695 3.137 53.977 9.41 17.401 6.274 32.907 16.277 46.52 30.008 13.731 13.73 24.562 31.96 32.493 54.687 8.049 22.609 12.133 50.367 12.251 83.274 0 30.895-3.492 58.476-10.476 82.742-6.865 24.148-16.749 44.685-29.652 61.612-12.902 16.927-28.468 29.83-46.697 38.707-18.229 8.76-38.589 13.14-61.08 13.14-24.266 0-45.691-4.676-64.275-14.027-18.584-9.47-33.558-22.313-44.922-38.53-11.245-16.335-18.052-34.683-20.419-55.043h75.817c2.959 13.258 9.173 23.556 18.643 30.895 9.47 7.221 21.189 10.831 35.156 10.831 23.675 0 41.667-10.298 53.978-30.895 12.31-20.715 18.525-49.065 18.643-85.05h-2.486c-5.445 10.654-12.784 19.828-22.017 27.522-9.233 7.575-19.827 13.435-31.782 17.578-11.837 4.143-24.444 6.214-37.82 6.214-21.425 0-40.542-5.03-57.351-15.092-16.809-10.062-30.066-23.911-39.773-41.548-9.706-17.638-14.559-37.761-14.559-60.37-.119-24.384 5.504-46.105 16.868-65.163 11.363-19.058 27.225-33.972 47.585-44.744 20.478-10.89 44.271-16.276 71.378-16.158zm.532 60.37c-11.955 0-22.608 2.84-31.96 8.522-9.233 5.682-16.572 13.317-22.017 22.905-5.327 9.588-7.931 20.301-7.812 32.138 0 11.955 2.604 22.727 7.812 32.315 5.327 9.47 12.548 17.046 21.662 22.727 9.233 5.564 19.768 8.345 31.605 8.345 8.878 0 17.105-1.657 24.681-4.971 7.575-3.314 14.145-7.872 19.708-13.672 5.682-5.919 10.121-12.725 13.317-20.419 3.196-7.694 4.794-15.862 4.794-24.503-.118-11.482-2.841-22.017-8.167-31.605-5.327-9.588-12.666-17.282-22.017-23.082-9.352-5.8-19.887-8.7-31.606-8.7zm333.63 313.21c-27.344 0-51.669-4.439-72.976-13.317-21.189-8.996-37.82-21.248-49.894-36.754-12.073-15.507-18.11-33.085-18.11-52.735 0-15.151 3.432-29.06 10.298-41.726 6.984-12.784 16.453-23.378 28.409-31.782 11.955-8.523 25.331-13.968 40.128-16.336v-2.485c-19.413-3.907-35.156-13.317-47.23-28.232-12.074-15.033-18.111-32.493-18.111-52.38 0-18.82 5.504-35.57 16.513-50.248 11.008-14.796 26.101-26.396 45.277-34.8 19.294-8.524 41.193-12.785 65.696-12.785s46.342 4.261 65.518 12.784c19.295 8.523 34.446 20.182 45.455 34.979 11.008 14.678 16.572 31.368 16.69 50.07-.118 20.006-6.274 37.465-18.466 52.38s-27.817 24.325-46.875 28.232v2.485c14.56 2.368 27.758 7.813 39.595 16.336 11.956 8.404 21.426 18.998 28.409 31.782 7.103 12.666 10.713 26.575 10.831 41.726-.118 19.65-6.214 37.228-18.288 52.735-12.074 15.506-28.764 27.758-50.071 36.754-21.188 8.878-45.455 13.317-72.798 13.317zm0-56.463c12.192 0 22.845-2.19 31.96-6.57 9.115-4.498 16.217-10.653 21.307-18.466 5.208-7.931 7.812-17.045 7.812-27.344 0-10.535-2.663-19.827-7.99-27.876-5.327-8.168-12.547-14.56-21.662-19.176-9.114-4.735-19.59-7.103-31.427-7.103-11.719 0-22.195 2.368-31.428 7.103-9.233 4.616-16.513 11.008-21.839 19.176-5.209 8.049-7.813 17.341-7.813 27.876 0 10.299 2.545 19.413 7.635 27.344 5.09 7.813 12.252 13.968 21.484 18.466 9.233 4.38 19.887 6.57 31.961 6.57zm0-162.465c10.18 0 19.235-2.071 27.166-6.214 7.931-4.143 14.145-9.884 18.643-17.223 4.498-7.339 6.748-15.803 6.748-25.391 0-9.47-2.25-17.756-6.748-24.858-4.498-7.22-10.653-12.843-18.466-16.868-7.812-4.143-16.927-6.214-27.343-6.214-10.299 0-19.413 2.071-27.344 6.214-7.931 4.025-14.145 9.647-18.644 16.868-4.379 7.102-6.569 15.388-6.569 24.858 0 9.588 2.249 18.052 6.747 25.391 4.498 7.339 10.713 13.08 18.644 17.223 7.93 4.143 16.986 6.214 27.166 6.214zM1069 6.364V370h-76.882V79.34h-2.131l-83.274 52.201V63.359l90.021-56.995H1069z" fill="#fff" fill-opacity=".6"/><path d="M163.726 6.364V370H86.844V79.34h-2.13l-83.275 52.2V63.359L91.461 6.364h72.265zm217.996-4.972c18.702 0 36.695 3.137 53.977 9.41 17.401 6.274 32.907 16.277 46.52 30.008 13.731 13.73 24.562 31.96 32.493 54.687 8.049 22.609 12.133 50.367 12.251 83.274 0 30.895-3.492 58.476-10.476 82.742-6.865 24.148-16.749 44.685-29.652 61.612-12.902 16.927-28.468 29.83-46.697 38.707-18.229 8.76-38.589 13.14-61.08 13.14-24.266 0-45.691-4.676-64.275-14.027-18.584-9.47-33.558-22.313-44.922-38.53-11.245-16.335-18.052-34.683-20.419-55.043h75.817c2.959 13.258 9.173 23.556 18.643 30.895 9.47 7.221 21.189 10.831 35.156 10.831 23.675 0 41.667-10.298 53.978-30.895 12.31-20.715 18.525-49.065 18.643-85.05h-2.486c-5.445 10.654-12.784 19.828-22.017 27.522-9.233 7.575-19.827 13.435-31.782 17.578-11.837 4.143-24.444 6.214-37.82 6.214-21.425 0-40.542-5.03-57.351-15.092-16.809-10.062-30.066-23.911-39.773-41.548-9.706-17.638-14.559-37.761-14.559-60.37-.119-24.384 5.504-46.105 16.868-65.163 11.363-19.058 27.225-33.972 47.585-44.744 20.478-10.89 44.271-16.276 71.378-16.158zm.532 60.37c-11.955 0-22.608 2.84-31.96 8.522-9.233 5.682-16.572 13.317-22.017 22.905-5.327 9.588-7.931 20.301-7.812 32.138 0 11.955 2.604 22.727 7.812 32.315 5.327 9.47 12.548 17.046 21.662 22.727 9.233 5.564 19.768 8.345 31.605 8.345 8.878 0 17.105-1.657 24.681-4.971 7.575-3.314 14.145-7.872 19.708-13.672 5.682-5.919 10.121-12.725 13.317-20.419 3.196-7.694 4.794-15.862 4.794-24.503-.118-11.482-2.841-22.017-8.167-31.605-5.327-9.588-12.666-17.282-22.017-23.082-9.352-5.8-19.887-8.7-31.606-8.7zm333.63 313.21c-27.344 0-51.669-4.439-72.976-13.317-21.189-8.996-37.82-21.248-49.894-36.754-12.073-15.507-18.11-33.085-18.11-52.735 0-15.151 3.432-29.06 10.298-41.726 6.984-12.784 16.453-23.378 28.409-31.782 11.955-8.523 25.331-13.968 40.128-16.336v-2.485c-19.413-3.907-35.156-13.317-47.23-28.232-12.074-15.033-18.111-32.493-18.111-52.38 0-18.82 5.504-35.57 16.513-50.248 11.008-14.796 26.101-26.396 45.277-34.8 19.294-8.524 41.193-12.785 65.696-12.785s46.342 4.261 65.518 12.784c19.295 8.523 34.446 20.182 45.455 34.979 11.008 14.678 16.572 31.368 16.69 50.07-.118 20.006-6.274 37.465-18.466 52.38s-27.817 24.325-46.875 28.232v2.485c14.56 2.368 27.758 7.813 39.595 16.336 11.956 8.404 21.426 18.998 28.409 31.782 7.103 12.666 10.713 26.575 10.831 41.726-.118 19.65-6.214 37.228-18.288 52.735-12.074 15.506-28.764 27.758-50.071 36.754-21.188 8.878-45.455 13.317-72.798 13.317zm0-56.463c12.192 0 22.845-2.19 31.96-6.57 9.115-4.498 16.217-10.653 21.307-18.466 5.208-7.931 7.812-17.045 7.812-27.344 0-10.535-2.663-19.827-7.99-27.876-5.327-8.168-12.547-14.56-21.662-19.176-9.114-4.735-19.59-7.103-31.427-7.103-11.719 0-22.195 2.368-31.428 7.103-9.233 4.616-16.513 11.008-21.839 19.176-5.209 8.049-7.813 17.341-7.813 27.876 0 10.299 2.545 19.413 7.635 27.344 5.09 7.813 12.252 13.968 21.484 18.466 9.233 4.38 19.887 6.57 31.961 6.57zm0-162.465c10.18 0 19.235-2.071 27.166-6.214 7.931-4.143 14.145-9.884 18.643-17.223 4.498-7.339 6.748-15.803 6.748-25.391 0-9.47-2.25-17.756-6.748-24.858-4.498-7.22-10.653-12.843-18.466-16.868-7.812-4.143-16.927-6.214-27.343-6.214-10.299 0-19.413 2.071-27.344 6.214-7.931 4.025-14.145 9.647-18.644 16.868-4.379 7.102-6.569 15.388-6.569 24.858 0 9.588 2.249 18.052 6.747 25.391 4.498 7.339 10.713 13.08 18.644 17.223 7.93 4.143 16.986 6.214 27.166 6.214zM1069 6.364V370h-76.882V79.34h-2.131l-83.274 52.201V63.359l90.021-56.995H1069z" stroke="#9796A5" stroke-opacity=".15" stroke-width="2" mask="url(#a)"/></svg>