<svg width="1181" height="376" fill="none" xmlns="http://www.w3.org/2000/svg"><mask id="a" maskUnits="userSpaceOnUse" x=".621" y=".39" width="1181" height="376" fill="#000"><path fill="#fff" d="M.621.39h1181v376H.621z"/><path d="M163.908 6.364V370H87.026V79.34h-2.13L1.62 131.54V63.359L91.642 6.364h72.266zm217.995-4.972c18.703 0 36.695 3.137 53.978 9.41 17.4 6.274 32.907 16.277 46.52 30.008 13.731 13.73 24.562 31.96 32.492 54.687 8.05 22.609 12.134 50.367 12.252 83.274 0 30.895-3.492 58.476-10.476 82.742-6.866 24.148-16.749 44.685-29.652 61.612-12.902 16.927-28.468 29.83-46.697 38.707-18.23 8.76-38.589 13.14-61.08 13.14-24.266 0-45.691-4.676-64.276-14.027-18.584-9.47-33.558-22.313-44.921-38.53-11.246-16.335-18.052-34.683-20.419-55.043h75.816c2.96 13.258 9.174 23.556 18.644 30.895 9.469 7.221 21.188 10.831 35.156 10.831 23.674 0 41.667-10.298 53.977-30.895 12.311-20.715 18.525-49.065 18.644-85.05h-2.486c-5.445 10.654-12.784 19.828-22.017 27.522-9.233 7.575-19.827 13.435-31.783 17.578-11.837 4.143-24.443 6.214-37.819 6.214-21.426 0-40.542-5.03-57.351-15.092-16.809-10.062-30.066-23.911-39.773-41.548-9.706-17.638-14.56-37.761-14.56-60.37-.118-24.384 5.505-46.105 16.868-65.163 11.364-19.058 27.226-33.972 47.586-44.744 20.478-10.89 44.27-16.276 71.377-16.158zm.533 60.37c-11.955 0-22.609 2.84-31.96 8.522-9.233 5.682-16.572 13.317-22.017 22.905-5.327 9.588-7.931 20.301-7.813 32.138 0 11.955 2.604 22.727 7.813 32.315 5.327 9.47 12.547 17.046 21.662 22.727 9.233 5.564 19.768 8.345 31.605 8.345 8.878 0 17.104-1.657 24.68-4.971 7.576-3.314 14.146-7.872 19.709-13.672 5.682-5.919 10.121-12.725 13.317-20.419 3.196-7.694 4.794-15.862 4.794-24.503-.119-11.482-2.841-22.017-8.168-31.605-5.326-9.588-12.665-17.282-22.017-23.082-9.351-5.8-19.886-8.7-31.605-8.7zm333.629 313.21c-27.343 0-51.669-4.439-72.976-13.317-21.188-8.996-37.819-21.248-49.893-36.754-12.074-15.507-18.111-33.085-18.111-52.735 0-15.151 3.433-29.06 10.299-41.726 6.983-12.784 16.453-23.378 28.409-31.782 11.955-8.523 25.331-13.968 40.127-16.336v-2.485c-19.412-3.907-35.156-13.317-47.23-28.232-12.073-15.033-18.11-32.493-18.11-52.38 0-18.82 5.504-35.57 16.512-50.248 11.009-14.796 26.101-26.396 45.277-34.8 19.295-8.524 41.194-12.785 65.696-12.785 24.503 0 46.343 4.261 65.519 12.784 19.294 8.523 34.446 20.182 45.454 34.979 11.009 14.678 16.572 31.368 16.691 50.07-.119 20.006-6.274 37.465-18.466 52.38s-27.817 24.325-46.875 28.232v2.485c14.559 2.368 27.758 7.813 39.595 16.336 11.955 8.404 21.425 18.998 28.409 31.782 7.102 12.666 10.713 26.575 10.831 41.726-.118 19.65-6.214 37.228-18.288 52.735-12.074 15.506-28.765 27.758-50.071 36.754-21.189 8.878-45.455 13.317-72.799 13.317zm0-56.463c12.193 0 22.846-2.19 31.961-6.57 9.114-4.498 16.216-10.653 21.306-18.466 5.209-7.931 7.813-17.045 7.813-27.344 0-10.535-2.663-19.827-7.99-27.876-5.327-8.168-12.547-14.56-21.662-19.176-9.115-4.735-19.591-7.103-31.428-7.103-11.718 0-22.194 2.368-31.427 7.103-9.233 4.616-16.513 11.008-21.84 19.176-5.208 8.049-7.812 17.341-7.812 27.876 0 10.299 2.545 19.413 7.635 27.344 5.09 7.813 12.251 13.968 21.484 18.466 9.233 4.38 19.887 6.57 31.96 6.57zm0-162.465c10.18 0 19.236-2.071 27.167-6.214 7.93-4.143 14.145-9.884 18.643-17.223 4.498-7.339 6.747-15.803 6.747-25.391 0-9.47-2.249-17.756-6.747-24.858-4.498-7.22-10.653-12.843-18.466-16.868-7.812-4.143-16.927-6.214-27.344-6.214-10.298 0-19.413 2.071-27.343 6.214-7.931 4.025-14.146 9.647-18.644 16.868-4.38 7.102-6.569 15.388-6.569 24.858 0 9.588 2.249 18.052 6.747 25.391 4.498 7.339 10.712 13.08 18.643 17.223 7.931 4.143 16.986 6.214 27.166 6.214zm327.725 218.928c-25.09 0-47.466-4.617-67.116-13.85-19.531-9.233-35.038-21.958-46.52-38.175-11.482-16.216-17.459-34.801-17.933-55.752h74.574c.829 14.086 6.747 25.509 17.755 34.268 11.01 8.76 24.09 13.139 39.24 13.139 12.07 0 22.73-2.663 31.96-7.99 9.35-5.445 16.63-12.961 21.84-22.55 5.33-9.706 7.99-20.833 7.99-33.38 0-12.784-2.72-24.03-8.17-33.736-5.32-9.706-12.72-17.282-22.19-22.727s-20.3-8.227-32.49-8.345c-10.66 0-21.02 2.189-31.08 6.569-9.94 4.38-17.693 10.358-23.257 17.933l-68.359-12.251L937.257 6.364h222.303v62.855h-158.92l-9.406 91.086h2.131c6.392-8.996 16.035-16.453 28.945-22.372 12.9-5.918 27.34-8.878 43.32-8.878 21.9 0 41.43 5.15 58.59 15.448 17.17 10.298 30.72 24.444 40.66 42.436 9.95 17.874 14.86 38.471 14.74 61.79.12 24.503-5.56 46.283-17.04 65.341-11.37 18.939-27.29 33.854-47.77 44.744-20.36 10.772-44.03 16.158-71.02 16.158z"/></mask><path d="M163.908 6.364V370H87.026V79.34h-2.13L1.62 131.54V63.359L91.642 6.364h72.266zm217.995-4.972c18.703 0 36.695 3.137 53.978 9.41 17.4 6.274 32.907 16.277 46.52 30.008 13.731 13.73 24.562 31.96 32.492 54.687 8.05 22.609 12.134 50.367 12.252 83.274 0 30.895-3.492 58.476-10.476 82.742-6.866 24.148-16.749 44.685-29.652 61.612-12.902 16.927-28.468 29.83-46.697 38.707-18.23 8.76-38.589 13.14-61.08 13.14-24.266 0-45.691-4.676-64.276-14.027-18.584-9.47-33.558-22.313-44.921-38.53-11.246-16.335-18.052-34.683-20.419-55.043h75.816c2.96 13.258 9.174 23.556 18.644 30.895 9.469 7.221 21.188 10.831 35.156 10.831 23.674 0 41.667-10.298 53.977-30.895 12.311-20.715 18.525-49.065 18.644-85.05h-2.486c-5.445 10.654-12.784 19.828-22.017 27.522-9.233 7.575-19.827 13.435-31.783 17.578-11.837 4.143-24.443 6.214-37.819 6.214-21.426 0-40.542-5.03-57.351-15.092-16.809-10.062-30.066-23.911-39.773-41.548-9.706-17.638-14.56-37.761-14.56-60.37-.118-24.384 5.505-46.105 16.868-65.163 11.364-19.058 27.226-33.972 47.586-44.744 20.478-10.89 44.27-16.276 71.377-16.158zm.533 60.37c-11.955 0-22.609 2.84-31.96 8.522-9.233 5.682-16.572 13.317-22.017 22.905-5.327 9.588-7.931 20.301-7.813 32.138 0 11.955 2.604 22.727 7.813 32.315 5.327 9.47 12.547 17.046 21.662 22.727 9.233 5.564 19.768 8.345 31.605 8.345 8.878 0 17.104-1.657 24.68-4.971 7.576-3.314 14.146-7.872 19.709-13.672 5.682-5.919 10.121-12.725 13.317-20.419 3.196-7.694 4.794-15.862 4.794-24.503-.119-11.482-2.841-22.017-8.168-31.605-5.326-9.588-12.665-17.282-22.017-23.082-9.351-5.8-19.886-8.7-31.605-8.7zm333.629 313.21c-27.343 0-51.669-4.439-72.976-13.317-21.188-8.996-37.819-21.248-49.893-36.754-12.074-15.507-18.111-33.085-18.111-52.735 0-15.151 3.433-29.06 10.299-41.726 6.983-12.784 16.453-23.378 28.409-31.782 11.955-8.523 25.331-13.968 40.127-16.336v-2.485c-19.412-3.907-35.156-13.317-47.23-28.232-12.073-15.033-18.11-32.493-18.11-52.38 0-18.82 5.504-35.57 16.512-50.248 11.009-14.796 26.101-26.396 45.277-34.8 19.295-8.524 41.194-12.785 65.696-12.785 24.503 0 46.343 4.261 65.519 12.784 19.294 8.523 34.446 20.182 45.454 34.979 11.009 14.678 16.572 31.368 16.691 50.07-.119 20.006-6.274 37.465-18.466 52.38s-27.817 24.325-46.875 28.232v2.485c14.559 2.368 27.758 7.813 39.595 16.336 11.955 8.404 21.425 18.998 28.409 31.782 7.102 12.666 10.713 26.575 10.831 41.726-.118 19.65-6.214 37.228-18.288 52.735-12.074 15.506-28.765 27.758-50.071 36.754-21.189 8.878-45.455 13.317-72.799 13.317zm0-56.463c12.193 0 22.846-2.19 31.961-6.57 9.114-4.498 16.216-10.653 21.306-18.466 5.209-7.931 7.813-17.045 7.813-27.344 0-10.535-2.663-19.827-7.99-27.876-5.327-8.168-12.547-14.56-21.662-19.176-9.115-4.735-19.591-7.103-31.428-7.103-11.718 0-22.194 2.368-31.427 7.103-9.233 4.616-16.513 11.008-21.84 19.176-5.208 8.049-7.812 17.341-7.812 27.876 0 10.299 2.545 19.413 7.635 27.344 5.09 7.813 12.251 13.968 21.484 18.466 9.233 4.38 19.887 6.57 31.96 6.57zm0-162.465c10.18 0 19.236-2.071 27.167-6.214 7.93-4.143 14.145-9.884 18.643-17.223 4.498-7.339 6.747-15.803 6.747-25.391 0-9.47-2.249-17.756-6.747-24.858-4.498-7.22-10.653-12.843-18.466-16.868-7.812-4.143-16.927-6.214-27.344-6.214-10.298 0-19.413 2.071-27.343 6.214-7.931 4.025-14.146 9.647-18.644 16.868-4.38 7.102-6.569 15.388-6.569 24.858 0 9.588 2.249 18.052 6.747 25.391 4.498 7.339 10.712 13.08 18.643 17.223 7.931 4.143 16.986 6.214 27.166 6.214zm327.725 218.928c-25.09 0-47.466-4.617-67.116-13.85-19.531-9.233-35.038-21.958-46.52-38.175-11.482-16.216-17.459-34.801-17.933-55.752h74.574c.829 14.086 6.747 25.509 17.755 34.268 11.01 8.76 24.09 13.139 39.24 13.139 12.07 0 22.73-2.663 31.96-7.99 9.35-5.445 16.63-12.961 21.84-22.55 5.33-9.706 7.99-20.833 7.99-33.38 0-12.784-2.72-24.03-8.17-33.736-5.32-9.706-12.72-17.282-22.19-22.727s-20.3-8.227-32.49-8.345c-10.66 0-21.02 2.189-31.08 6.569-9.94 4.38-17.693 10.358-23.257 17.933l-68.359-12.251L937.257 6.364h222.303v62.855h-158.92l-9.406 91.086h2.131c6.392-8.996 16.035-16.453 28.945-22.372 12.9-5.918 27.34-8.878 43.32-8.878 21.9 0 41.43 5.15 58.59 15.448 17.17 10.298 30.72 24.444 40.66 42.436 9.95 17.874 14.86 38.471 14.74 61.79.12 24.503-5.56 46.283-17.04 65.341-11.37 18.939-27.29 33.854-47.77 44.744-20.36 10.772-44.03 16.158-71.02 16.158z" fill="#fff" fill-opacity=".6"/><path d="M163.908 6.364V370H87.026V79.34h-2.13L1.62 131.54V63.359L91.642 6.364h72.266zm217.995-4.972c18.703 0 36.695 3.137 53.978 9.41 17.4 6.274 32.907 16.277 46.52 30.008 13.731 13.73 24.562 31.96 32.492 54.687 8.05 22.609 12.134 50.367 12.252 83.274 0 30.895-3.492 58.476-10.476 82.742-6.866 24.148-16.749 44.685-29.652 61.612-12.902 16.927-28.468 29.83-46.697 38.707-18.23 8.76-38.589 13.14-61.08 13.14-24.266 0-45.691-4.676-64.276-14.027-18.584-9.47-33.558-22.313-44.921-38.53-11.246-16.335-18.052-34.683-20.419-55.043h75.816c2.96 13.258 9.174 23.556 18.644 30.895 9.469 7.221 21.188 10.831 35.156 10.831 23.674 0 41.667-10.298 53.977-30.895 12.311-20.715 18.525-49.065 18.644-85.05h-2.486c-5.445 10.654-12.784 19.828-22.017 27.522-9.233 7.575-19.827 13.435-31.783 17.578-11.837 4.143-24.443 6.214-37.819 6.214-21.426 0-40.542-5.03-57.351-15.092-16.809-10.062-30.066-23.911-39.773-41.548-9.706-17.638-14.56-37.761-14.56-60.37-.118-24.384 5.505-46.105 16.868-65.163 11.364-19.058 27.226-33.972 47.586-44.744 20.478-10.89 44.27-16.276 71.377-16.158zm.533 60.37c-11.955 0-22.609 2.84-31.96 8.522-9.233 5.682-16.572 13.317-22.017 22.905-5.327 9.588-7.931 20.301-7.813 32.138 0 11.955 2.604 22.727 7.813 32.315 5.327 9.47 12.547 17.046 21.662 22.727 9.233 5.564 19.768 8.345 31.605 8.345 8.878 0 17.104-1.657 24.68-4.971 7.576-3.314 14.146-7.872 19.709-13.672 5.682-5.919 10.121-12.725 13.317-20.419 3.196-7.694 4.794-15.862 4.794-24.503-.119-11.482-2.841-22.017-8.168-31.605-5.326-9.588-12.665-17.282-22.017-23.082-9.351-5.8-19.886-8.7-31.605-8.7zm333.629 313.21c-27.343 0-51.669-4.439-72.976-13.317-21.188-8.996-37.819-21.248-49.893-36.754-12.074-15.507-18.111-33.085-18.111-52.735 0-15.151 3.433-29.06 10.299-41.726 6.983-12.784 16.453-23.378 28.409-31.782 11.955-8.523 25.331-13.968 40.127-16.336v-2.485c-19.412-3.907-35.156-13.317-47.23-28.232-12.073-15.033-18.11-32.493-18.11-52.38 0-18.82 5.504-35.57 16.512-50.248 11.009-14.796 26.101-26.396 45.277-34.8 19.295-8.524 41.194-12.785 65.696-12.785 24.503 0 46.343 4.261 65.519 12.784 19.294 8.523 34.446 20.182 45.454 34.979 11.009 14.678 16.572 31.368 16.691 50.07-.119 20.006-6.274 37.465-18.466 52.38s-27.817 24.325-46.875 28.232v2.485c14.559 2.368 27.758 7.813 39.595 16.336 11.955 8.404 21.425 18.998 28.409 31.782 7.102 12.666 10.713 26.575 10.831 41.726-.118 19.65-6.214 37.228-18.288 52.735-12.074 15.506-28.765 27.758-50.071 36.754-21.189 8.878-45.455 13.317-72.799 13.317zm0-56.463c12.193 0 22.846-2.19 31.961-6.57 9.114-4.498 16.216-10.653 21.306-18.466 5.209-7.931 7.813-17.045 7.813-27.344 0-10.535-2.663-19.827-7.99-27.876-5.327-8.168-12.547-14.56-21.662-19.176-9.115-4.735-19.591-7.103-31.428-7.103-11.718 0-22.194 2.368-31.427 7.103-9.233 4.616-16.513 11.008-21.84 19.176-5.208 8.049-7.812 17.341-7.812 27.876 0 10.299 2.545 19.413 7.635 27.344 5.09 7.813 12.251 13.968 21.484 18.466 9.233 4.38 19.887 6.57 31.96 6.57zm0-162.465c10.18 0 19.236-2.071 27.167-6.214 7.93-4.143 14.145-9.884 18.643-17.223 4.498-7.339 6.747-15.803 6.747-25.391 0-9.47-2.249-17.756-6.747-24.858-4.498-7.22-10.653-12.843-18.466-16.868-7.812-4.143-16.927-6.214-27.344-6.214-10.298 0-19.413 2.071-27.343 6.214-7.931 4.025-14.146 9.647-18.644 16.868-4.38 7.102-6.569 15.388-6.569 24.858 0 9.588 2.249 18.052 6.747 25.391 4.498 7.339 10.712 13.08 18.643 17.223 7.931 4.143 16.986 6.214 27.166 6.214zm327.725 218.928c-25.09 0-47.466-4.617-67.116-13.85-19.531-9.233-35.038-21.958-46.52-38.175-11.482-16.216-17.459-34.801-17.933-55.752h74.574c.829 14.086 6.747 25.509 17.755 34.268 11.01 8.76 24.09 13.139 39.24 13.139 12.07 0 22.73-2.663 31.96-7.99 9.35-5.445 16.63-12.961 21.84-22.55 5.33-9.706 7.99-20.833 7.99-33.38 0-12.784-2.72-24.03-8.17-33.736-5.32-9.706-12.72-17.282-22.19-22.727s-20.3-8.227-32.49-8.345c-10.66 0-21.02 2.189-31.08 6.569-9.94 4.38-17.693 10.358-23.257 17.933l-68.359-12.251L937.257 6.364h222.303v62.855h-158.92l-9.406 91.086h2.131c6.392-8.996 16.035-16.453 28.945-22.372 12.9-5.918 27.34-8.878 43.32-8.878 21.9 0 41.43 5.15 58.59 15.448 17.17 10.298 30.72 24.444 40.66 42.436 9.95 17.874 14.86 38.471 14.74 61.79.12 24.503-5.56 46.283-17.04 65.341-11.37 18.939-27.29 33.854-47.77 44.744-20.36 10.772-44.03 16.158-71.02 16.158z" stroke="#9796A5" stroke-opacity=".15" stroke-width="2" mask="url(#a)"/></svg>