<svg width="1189" height="376" fill="none" xmlns="http://www.w3.org/2000/svg"><mask id="a" maskUnits="userSpaceOnUse" x=".715" y=".39" width="1189" height="376" fill="#000"><path fill="#fff" d="M.715.39h1189v376H.715z"/><path d="M164.002 6.364V370H87.12V79.34h-2.131l-83.274 52.2V63.359L91.736 6.364h72.266zm217.995-4.972c18.703 0 36.695 3.137 53.977 9.41 17.401 6.274 32.908 16.277 46.52 30.008 13.731 13.73 24.562 31.96 32.493 54.687 8.049 22.609 12.133 50.367 12.252 83.274 0 30.895-3.492 58.476-10.476 82.742-6.866 24.148-16.75 44.685-29.652 61.612-12.903 16.927-28.468 29.83-46.698 38.707-18.229 8.76-38.589 13.14-61.079 13.14-24.266 0-45.691-4.676-64.276-14.027-18.584-9.47-33.558-22.313-44.922-38.53-11.245-16.335-18.051-34.683-20.419-55.043h75.817c2.959 13.258 9.174 23.556 18.644 30.895 9.469 7.221 21.188 10.831 35.156 10.831 23.674 0 41.666-10.298 53.977-30.895 12.311-20.715 18.525-49.065 18.644-85.05h-2.486c-5.445 10.654-12.784 19.828-22.017 27.522-9.233 7.575-19.827 13.435-31.783 17.578-11.837 4.143-24.444 6.214-37.82 6.214-21.425 0-40.542-5.03-57.35-15.092-16.809-10.062-30.067-23.911-39.773-41.548-9.707-17.638-14.56-37.761-14.56-60.37-.118-24.384 5.504-46.105 16.868-65.163 11.364-19.058 27.225-33.972 47.585-44.744C331.098 6.66 354.89 1.274 381.997 1.392zm.533 60.37c-11.956 0-22.609 2.84-31.96 8.522-9.233 5.682-16.572 13.317-22.017 22.905-5.327 9.588-7.931 20.301-7.813 32.138 0 11.955 2.604 22.727 7.813 32.315 5.326 9.47 12.547 17.046 21.662 22.727 9.232 5.564 19.767 8.345 31.605 8.345 8.877 0 17.104-1.657 24.68-4.971 7.576-3.314 14.145-7.872 19.709-13.672 5.682-5.919 10.121-12.725 13.317-20.419 3.196-7.694 4.794-15.862 4.794-24.503-.119-11.482-2.841-22.017-8.168-31.605-5.327-9.588-12.666-17.282-22.017-23.082-9.351-5.8-19.886-8.7-31.605-8.7zm333.629 313.21c-27.344 0-51.669-4.439-72.976-13.317-21.188-8.996-37.819-21.248-49.893-36.754-12.074-15.507-18.111-33.085-18.111-52.735 0-15.151 3.433-29.06 10.298-41.726 6.984-12.784 16.454-23.378 28.409-31.782 11.956-8.523 25.332-13.968 40.128-16.336v-2.485c-19.413-3.907-35.156-13.317-47.23-28.232-12.074-15.033-18.111-32.493-18.111-52.38 0-18.82 5.505-35.57 16.513-50.248 11.009-14.796 26.101-26.396 45.277-34.8 19.295-8.524 41.193-12.785 65.696-12.785s46.342 4.261 65.519 12.784c19.294 8.523 34.446 20.182 45.454 34.979 11.009 14.678 16.572 31.368 16.69 50.07-.118 20.006-6.273 37.465-18.465 52.38-12.193 14.915-27.818 24.325-46.875 28.232v2.485c14.559 2.368 27.758 7.813 39.595 16.336 11.955 8.404 21.425 18.998 28.409 31.782 7.102 12.666 10.712 26.575 10.831 41.726-.119 19.65-6.215 37.228-18.289 52.735-12.073 15.506-28.764 27.758-50.071 36.754-21.188 8.878-45.454 13.317-72.798 13.317zm0-56.463c12.192 0 22.846-2.19 31.96-6.57 9.115-4.498 16.217-10.653 21.307-18.466 5.208-7.931 7.813-17.045 7.813-27.344 0-10.535-2.664-19.827-7.99-27.876-5.327-8.168-12.548-14.56-21.662-19.176-9.115-4.735-19.591-7.103-31.428-7.103-11.719 0-22.195 2.368-31.427 7.103-9.233 4.616-16.513 11.008-21.84 19.176-5.208 8.049-7.812 17.341-7.812 27.876 0 10.299 2.545 19.413 7.634 27.344 5.09 7.813 12.252 13.968 21.485 18.466 9.233 4.38 19.886 6.57 31.96 6.57zm0-162.465c10.18 0 19.235-2.071 27.166-6.214 7.931-4.143 14.146-9.884 18.644-17.223 4.498-7.339 6.747-15.803 6.747-25.391 0-9.47-2.249-17.756-6.747-24.858-4.498-7.22-10.654-12.843-18.466-16.868-7.813-4.143-16.927-6.214-27.344-6.214-10.298 0-19.413 2.071-27.344 6.214-7.931 4.025-14.145 9.647-18.643 16.868-4.38 7.102-6.57 15.388-6.57 24.858 0 9.588 2.249 18.052 6.747 25.391 4.499 7.339 10.713 13.08 18.644 17.223 7.931 4.143 16.986 6.214 27.166 6.214zM1042.64 1.392c18.7 0 36.7 3.137 53.98 9.41 17.4 6.274 32.91 16.277 46.52 30.008 13.73 13.73 24.56 31.96 32.49 54.687 8.05 22.609 12.13 50.367 12.25 83.274 0 30.895-3.49 58.476-10.47 82.742-6.87 24.148-16.75 44.685-29.65 61.612-12.91 16.927-28.47 29.83-46.7 38.707-18.23 8.76-38.59 13.14-61.08 13.14-24.27 0-45.693-4.676-64.277-14.027-18.585-9.47-33.558-22.313-44.922-38.53-11.245-16.335-18.052-34.683-20.419-55.043h75.817c2.959 13.258 9.173 23.556 18.641 30.895 9.47 7.221 21.19 10.831 35.16 10.831 23.67 0 41.66-10.298 53.98-30.895 12.31-20.715 18.52-49.065 18.64-85.05h-2.49c-5.44 10.654-12.78 19.828-22.01 27.522-9.24 7.575-19.83 13.435-31.79 17.578-11.83 4.143-24.44 6.214-37.82 6.214-21.421 0-40.538-5.03-57.347-15.092-16.809-10.062-30.066-23.911-39.773-41.548-9.706-17.638-14.559-37.761-14.559-60.37-.119-24.384 5.504-46.105 16.868-65.163 11.363-19.058 27.225-33.972 47.585-44.744 20.478-10.89 44.266-16.276 71.376-16.158zm.53 60.37c-11.95 0-22.6 2.84-31.96 8.522-9.23 5.682-16.568 13.317-22.013 22.905-5.327 9.588-7.931 20.301-7.812 32.138 0 11.955 2.604 22.727 7.812 32.315 5.327 9.47 12.543 17.046 21.663 22.727 9.23 5.564 19.77 8.345 31.6 8.345 8.88 0 17.11-1.657 24.68-4.971 7.58-3.314 14.15-7.872 19.71-13.672 5.69-5.919 10.12-12.725 13.32-20.419 3.2-7.694 4.79-15.862 4.79-24.503-.11-11.482-2.84-22.017-8.16-31.605-5.33-9.588-12.67-17.282-22.02-23.082-9.35-5.8-19.89-8.7-31.61-8.7z"/></mask><path d="M164.002 6.364V370H87.12V79.34h-2.131l-83.274 52.2V63.359L91.736 6.364h72.266zm217.995-4.972c18.703 0 36.695 3.137 53.977 9.41 17.401 6.274 32.908 16.277 46.52 30.008 13.731 13.73 24.562 31.96 32.493 54.687 8.049 22.609 12.133 50.367 12.252 83.274 0 30.895-3.492 58.476-10.476 82.742-6.866 24.148-16.75 44.685-29.652 61.612-12.903 16.927-28.468 29.83-46.698 38.707-18.229 8.76-38.589 13.14-61.079 13.14-24.266 0-45.691-4.676-64.276-14.027-18.584-9.47-33.558-22.313-44.922-38.53-11.245-16.335-18.051-34.683-20.419-55.043h75.817c2.959 13.258 9.174 23.556 18.644 30.895 9.469 7.221 21.188 10.831 35.156 10.831 23.674 0 41.666-10.298 53.977-30.895 12.311-20.715 18.525-49.065 18.644-85.05h-2.486c-5.445 10.654-12.784 19.828-22.017 27.522-9.233 7.575-19.827 13.435-31.783 17.578-11.837 4.143-24.444 6.214-37.82 6.214-21.425 0-40.542-5.03-57.35-15.092-16.809-10.062-30.067-23.911-39.773-41.548-9.707-17.638-14.56-37.761-14.56-60.37-.118-24.384 5.504-46.105 16.868-65.163 11.364-19.058 27.225-33.972 47.585-44.744C331.098 6.66 354.89 1.274 381.997 1.392zm.533 60.37c-11.956 0-22.609 2.84-31.96 8.522-9.233 5.682-16.572 13.317-22.017 22.905-5.327 9.588-7.931 20.301-7.813 32.138 0 11.955 2.604 22.727 7.813 32.315 5.326 9.47 12.547 17.046 21.662 22.727 9.232 5.564 19.767 8.345 31.605 8.345 8.877 0 17.104-1.657 24.68-4.971 7.576-3.314 14.145-7.872 19.709-13.672 5.682-5.919 10.121-12.725 13.317-20.419 3.196-7.694 4.794-15.862 4.794-24.503-.119-11.482-2.841-22.017-8.168-31.605-5.327-9.588-12.666-17.282-22.017-23.082-9.351-5.8-19.886-8.7-31.605-8.7zm333.629 313.21c-27.344 0-51.669-4.439-72.976-13.317-21.188-8.996-37.819-21.248-49.893-36.754-12.074-15.507-18.111-33.085-18.111-52.735 0-15.151 3.433-29.06 10.298-41.726 6.984-12.784 16.454-23.378 28.409-31.782 11.956-8.523 25.332-13.968 40.128-16.336v-2.485c-19.413-3.907-35.156-13.317-47.23-28.232-12.074-15.033-18.111-32.493-18.111-52.38 0-18.82 5.505-35.57 16.513-50.248 11.009-14.796 26.101-26.396 45.277-34.8 19.295-8.524 41.193-12.785 65.696-12.785s46.342 4.261 65.519 12.784c19.294 8.523 34.446 20.182 45.454 34.979 11.009 14.678 16.572 31.368 16.69 50.07-.118 20.006-6.273 37.465-18.465 52.38-12.193 14.915-27.818 24.325-46.875 28.232v2.485c14.559 2.368 27.758 7.813 39.595 16.336 11.955 8.404 21.425 18.998 28.409 31.782 7.102 12.666 10.712 26.575 10.831 41.726-.119 19.65-6.215 37.228-18.289 52.735-12.073 15.506-28.764 27.758-50.071 36.754-21.188 8.878-45.454 13.317-72.798 13.317zm0-56.463c12.192 0 22.846-2.19 31.96-6.57 9.115-4.498 16.217-10.653 21.307-18.466 5.208-7.931 7.813-17.045 7.813-27.344 0-10.535-2.664-19.827-7.99-27.876-5.327-8.168-12.548-14.56-21.662-19.176-9.115-4.735-19.591-7.103-31.428-7.103-11.719 0-22.195 2.368-31.427 7.103-9.233 4.616-16.513 11.008-21.84 19.176-5.208 8.049-7.812 17.341-7.812 27.876 0 10.299 2.545 19.413 7.634 27.344 5.09 7.813 12.252 13.968 21.485 18.466 9.233 4.38 19.886 6.57 31.96 6.57zm0-162.465c10.18 0 19.235-2.071 27.166-6.214 7.931-4.143 14.146-9.884 18.644-17.223 4.498-7.339 6.747-15.803 6.747-25.391 0-9.47-2.249-17.756-6.747-24.858-4.498-7.22-10.654-12.843-18.466-16.868-7.813-4.143-16.927-6.214-27.344-6.214-10.298 0-19.413 2.071-27.344 6.214-7.931 4.025-14.145 9.647-18.643 16.868-4.38 7.102-6.57 15.388-6.57 24.858 0 9.588 2.249 18.052 6.747 25.391 4.499 7.339 10.713 13.08 18.644 17.223 7.931 4.143 16.986 6.214 27.166 6.214zM1042.64 1.392c18.7 0 36.7 3.137 53.98 9.41 17.4 6.274 32.91 16.277 46.52 30.008 13.73 13.73 24.56 31.96 32.49 54.687 8.05 22.609 12.13 50.367 12.25 83.274 0 30.895-3.49 58.476-10.47 82.742-6.87 24.148-16.75 44.685-29.65 61.612-12.91 16.927-28.47 29.83-46.7 38.707-18.23 8.76-38.59 13.14-61.08 13.14-24.27 0-45.693-4.676-64.277-14.027-18.585-9.47-33.558-22.313-44.922-38.53-11.245-16.335-18.052-34.683-20.419-55.043h75.817c2.959 13.258 9.173 23.556 18.641 30.895 9.47 7.221 21.19 10.831 35.16 10.831 23.67 0 41.66-10.298 53.98-30.895 12.31-20.715 18.52-49.065 18.64-85.05h-2.49c-5.44 10.654-12.78 19.828-22.01 27.522-9.24 7.575-19.83 13.435-31.79 17.578-11.83 4.143-24.44 6.214-37.82 6.214-21.421 0-40.538-5.03-57.347-15.092-16.809-10.062-30.066-23.911-39.773-41.548-9.706-17.638-14.559-37.761-14.559-60.37-.119-24.384 5.504-46.105 16.868-65.163 11.363-19.058 27.225-33.972 47.585-44.744 20.478-10.89 44.266-16.276 71.376-16.158zm.53 60.37c-11.95 0-22.6 2.84-31.96 8.522-9.23 5.682-16.568 13.317-22.013 22.905-5.327 9.588-7.931 20.301-7.812 32.138 0 11.955 2.604 22.727 7.812 32.315 5.327 9.47 12.543 17.046 21.663 22.727 9.23 5.564 19.77 8.345 31.6 8.345 8.88 0 17.11-1.657 24.68-4.971 7.58-3.314 14.15-7.872 19.71-13.672 5.69-5.919 10.12-12.725 13.32-20.419 3.2-7.694 4.79-15.862 4.79-24.503-.11-11.482-2.84-22.017-8.16-31.605-5.33-9.588-12.67-17.282-22.02-23.082-9.35-5.8-19.89-8.7-31.61-8.7z" fill="#fff" fill-opacity=".7"/><path d="M164.002 6.364V370H87.12V79.34h-2.131l-83.274 52.2V63.359L91.736 6.364h72.266zm217.995-4.972c18.703 0 36.695 3.137 53.977 9.41 17.401 6.274 32.908 16.277 46.52 30.008 13.731 13.73 24.562 31.96 32.493 54.687 8.049 22.609 12.133 50.367 12.252 83.274 0 30.895-3.492 58.476-10.476 82.742-6.866 24.148-16.75 44.685-29.652 61.612-12.903 16.927-28.468 29.83-46.698 38.707-18.229 8.76-38.589 13.14-61.079 13.14-24.266 0-45.691-4.676-64.276-14.027-18.584-9.47-33.558-22.313-44.922-38.53-11.245-16.335-18.051-34.683-20.419-55.043h75.817c2.959 13.258 9.174 23.556 18.644 30.895 9.469 7.221 21.188 10.831 35.156 10.831 23.674 0 41.666-10.298 53.977-30.895 12.311-20.715 18.525-49.065 18.644-85.05h-2.486c-5.445 10.654-12.784 19.828-22.017 27.522-9.233 7.575-19.827 13.435-31.783 17.578-11.837 4.143-24.444 6.214-37.82 6.214-21.425 0-40.542-5.03-57.35-15.092-16.809-10.062-30.067-23.911-39.773-41.548-9.707-17.638-14.56-37.761-14.56-60.37-.118-24.384 5.504-46.105 16.868-65.163 11.364-19.058 27.225-33.972 47.585-44.744C331.098 6.66 354.89 1.274 381.997 1.392zm.533 60.37c-11.956 0-22.609 2.84-31.96 8.522-9.233 5.682-16.572 13.317-22.017 22.905-5.327 9.588-7.931 20.301-7.813 32.138 0 11.955 2.604 22.727 7.813 32.315 5.326 9.47 12.547 17.046 21.662 22.727 9.232 5.564 19.767 8.345 31.605 8.345 8.877 0 17.104-1.657 24.68-4.971 7.576-3.314 14.145-7.872 19.709-13.672 5.682-5.919 10.121-12.725 13.317-20.419 3.196-7.694 4.794-15.862 4.794-24.503-.119-11.482-2.841-22.017-8.168-31.605-5.327-9.588-12.666-17.282-22.017-23.082-9.351-5.8-19.886-8.7-31.605-8.7zm333.629 313.21c-27.344 0-51.669-4.439-72.976-13.317-21.188-8.996-37.819-21.248-49.893-36.754-12.074-15.507-18.111-33.085-18.111-52.735 0-15.151 3.433-29.06 10.298-41.726 6.984-12.784 16.454-23.378 28.409-31.782 11.956-8.523 25.332-13.968 40.128-16.336v-2.485c-19.413-3.907-35.156-13.317-47.23-28.232-12.074-15.033-18.111-32.493-18.111-52.38 0-18.82 5.505-35.57 16.513-50.248 11.009-14.796 26.101-26.396 45.277-34.8 19.295-8.524 41.193-12.785 65.696-12.785s46.342 4.261 65.519 12.784c19.294 8.523 34.446 20.182 45.454 34.979 11.009 14.678 16.572 31.368 16.69 50.07-.118 20.006-6.273 37.465-18.465 52.38-12.193 14.915-27.818 24.325-46.875 28.232v2.485c14.559 2.368 27.758 7.813 39.595 16.336 11.955 8.404 21.425 18.998 28.409 31.782 7.102 12.666 10.712 26.575 10.831 41.726-.119 19.65-6.215 37.228-18.289 52.735-12.073 15.506-28.764 27.758-50.071 36.754-21.188 8.878-45.454 13.317-72.798 13.317zm0-56.463c12.192 0 22.846-2.19 31.96-6.57 9.115-4.498 16.217-10.653 21.307-18.466 5.208-7.931 7.813-17.045 7.813-27.344 0-10.535-2.664-19.827-7.99-27.876-5.327-8.168-12.548-14.56-21.662-19.176-9.115-4.735-19.591-7.103-31.428-7.103-11.719 0-22.195 2.368-31.427 7.103-9.233 4.616-16.513 11.008-21.84 19.176-5.208 8.049-7.812 17.341-7.812 27.876 0 10.299 2.545 19.413 7.634 27.344 5.09 7.813 12.252 13.968 21.485 18.466 9.233 4.38 19.886 6.57 31.96 6.57zm0-162.465c10.18 0 19.235-2.071 27.166-6.214 7.931-4.143 14.146-9.884 18.644-17.223 4.498-7.339 6.747-15.803 6.747-25.391 0-9.47-2.249-17.756-6.747-24.858-4.498-7.22-10.654-12.843-18.466-16.868-7.813-4.143-16.927-6.214-27.344-6.214-10.298 0-19.413 2.071-27.344 6.214-7.931 4.025-14.145 9.647-18.643 16.868-4.38 7.102-6.57 15.388-6.57 24.858 0 9.588 2.249 18.052 6.747 25.391 4.499 7.339 10.713 13.08 18.644 17.223 7.931 4.143 16.986 6.214 27.166 6.214zM1042.64 1.392c18.7 0 36.7 3.137 53.98 9.41 17.4 6.274 32.91 16.277 46.52 30.008 13.73 13.73 24.56 31.96 32.49 54.687 8.05 22.609 12.13 50.367 12.25 83.274 0 30.895-3.49 58.476-10.47 82.742-6.87 24.148-16.75 44.685-29.65 61.612-12.91 16.927-28.47 29.83-46.7 38.707-18.23 8.76-38.59 13.14-61.08 13.14-24.27 0-45.693-4.676-64.277-14.027-18.585-9.47-33.558-22.313-44.922-38.53-11.245-16.335-18.052-34.683-20.419-55.043h75.817c2.959 13.258 9.173 23.556 18.641 30.895 9.47 7.221 21.19 10.831 35.16 10.831 23.67 0 41.66-10.298 53.98-30.895 12.31-20.715 18.52-49.065 18.64-85.05h-2.49c-5.44 10.654-12.78 19.828-22.01 27.522-9.24 7.575-19.83 13.435-31.79 17.578-11.83 4.143-24.44 6.214-37.82 6.214-21.421 0-40.538-5.03-57.347-15.092-16.809-10.062-30.066-23.911-39.773-41.548-9.706-17.638-14.559-37.761-14.559-60.37-.119-24.384 5.504-46.105 16.868-65.163 11.363-19.058 27.225-33.972 47.585-44.744 20.478-10.89 44.266-16.276 71.376-16.158zm.53 60.37c-11.95 0-22.6 2.84-31.96 8.522-9.23 5.682-16.568 13.317-22.013 22.905-5.327 9.588-7.931 20.301-7.812 32.138 0 11.955 2.604 22.727 7.812 32.315 5.327 9.47 12.543 17.046 21.663 22.727 9.23 5.564 19.77 8.345 31.6 8.345 8.88 0 17.11-1.657 24.68-4.971 7.58-3.314 14.15-7.872 19.71-13.672 5.69-5.919 10.12-12.725 13.32-20.419 3.2-7.694 4.79-15.862 4.79-24.503-.11-11.482-2.84-22.017-8.16-31.605-5.33-9.588-12.67-17.282-22.02-23.082-9.35-5.8-19.89-8.7-31.61-8.7z" stroke="#9796A5" stroke-opacity=".35" stroke-width="2" mask="url(#a)"/></svg>