<svg width="1202" height="379" fill="none" xmlns="http://www.w3.org/2000/svg"><mask id="a" maskUnits="userSpaceOnUse" x=".879" y=".39" width="1201" height="379" fill="#000"><path fill="#fff" d="M.879.39h1201v379H.879z"/><path d="M164.166 6.364V370H87.284V79.34h-2.13l-83.276 52.2V63.359L91.9 6.364h72.266zm217.995-4.972c18.703 0 36.695 3.137 53.977 9.41 17.401 6.274 32.908 16.277 46.52 30.008 13.731 13.73 24.562 31.96 32.493 54.687 8.05 22.609 12.133 50.367 12.252 83.274 0 30.895-3.492 58.476-10.476 82.742-6.866 24.148-16.75 44.685-29.652 61.612-12.903 16.927-28.468 29.83-46.698 38.707-18.229 8.76-38.589 13.14-61.079 13.14-24.266 0-45.691-4.676-64.276-14.027-18.584-9.47-33.558-22.313-44.922-38.53-11.245-16.335-18.051-34.683-20.419-55.043h75.817c2.959 13.258 9.174 23.556 18.644 30.895 9.469 7.221 21.188 10.831 35.156 10.831 23.674 0 41.667-10.298 53.977-30.895 12.311-20.715 18.525-49.065 18.644-85.05h-2.486c-5.445 10.654-12.784 19.828-22.017 27.522-9.233 7.575-19.827 13.435-31.783 17.578-11.837 4.143-24.444 6.214-37.82 6.214-21.425 0-40.542-5.03-57.35-15.092-16.809-10.062-30.067-23.911-39.773-41.548-9.707-17.638-14.56-37.761-14.56-60.37-.118-24.384 5.505-46.105 16.868-65.163 11.364-19.058 27.226-33.972 47.585-44.744 20.479-10.89 44.271-16.276 71.378-16.158zm.533 60.37c-11.956 0-22.609 2.84-31.96 8.522-9.233 5.682-16.572 13.317-22.017 22.905-5.327 9.588-7.931 20.301-7.813 32.138 0 11.955 2.604 22.727 7.813 32.315 5.326 9.47 12.547 17.046 21.662 22.727 9.233 5.564 19.768 8.345 31.605 8.345 8.878 0 17.104-1.657 24.68-4.971 7.576-3.314 14.145-7.872 19.709-13.672 5.682-5.919 10.121-12.725 13.317-20.419 3.196-7.694 4.794-15.862 4.794-24.503-.119-11.482-2.841-22.017-8.168-31.605-5.327-9.588-12.666-17.282-22.017-23.082-9.351-5.8-19.886-8.7-31.605-8.7zm329.545-60.37c18.703 0 36.695 3.137 53.978 9.41 17.4 6.274 32.907 16.277 46.52 30.008 13.731 13.73 24.562 31.96 32.492 54.687 8.05 22.609 12.133 50.367 12.252 83.274 0 30.895-3.492 58.476-10.476 82.742-6.866 24.148-16.75 44.685-29.652 61.612-12.902 16.927-28.468 29.83-46.697 38.707-18.23 8.76-38.589 13.14-61.08 13.14-24.266 0-45.691-4.676-64.276-14.027-18.584-9.47-33.558-22.313-44.921-38.53-11.246-16.335-18.052-34.683-20.419-55.043h75.816c2.96 13.258 9.174 23.556 18.644 30.895 9.469 7.221 21.188 10.831 35.156 10.831 23.674 0 41.667-10.298 53.977-30.895 12.311-20.715 18.525-49.065 18.644-85.05h-2.486c-5.445 10.654-12.784 19.828-22.017 27.522-9.233 7.575-19.827 13.435-31.783 17.578-11.837 4.143-24.443 6.214-37.819 6.214-21.426 0-40.543-5.03-57.351-15.092-16.809-10.062-30.067-23.911-39.773-41.548-9.706-17.638-14.56-37.761-14.56-60.37-.118-24.384 5.505-46.105 16.868-65.163 11.364-19.058 27.226-33.972 47.586-44.744 20.478-10.89 44.27-16.276 71.377-16.158zm.533 60.37c-11.955 0-22.609 2.84-31.96 8.522-9.233 5.682-16.572 13.317-22.017 22.905-5.327 9.588-7.931 20.301-7.813 32.138 0 11.955 2.604 22.727 7.813 32.315 5.326 9.47 12.547 17.046 21.662 22.727 9.233 5.564 19.768 8.345 31.605 8.345 8.878 0 17.104-1.657 24.68-4.971 7.576-3.314 14.146-7.872 19.709-13.672 5.682-5.919 10.121-12.725 13.317-20.419 3.196-7.694 4.794-15.862 4.794-24.503-.119-11.482-2.841-22.017-8.168-31.605-5.327-9.588-12.666-17.282-22.017-23.082-9.351-5.8-19.886-8.7-31.605-8.7zM1053.33 377.99c-30.54-.118-56.822-7.635-78.839-22.55-21.899-14.914-38.767-36.517-50.604-64.808-11.719-28.291-17.519-62.322-17.4-102.095 0-39.654 5.859-73.449 17.578-101.385 11.837-27.936 28.705-49.183 50.603-63.743C996.685 8.731 1022.9 1.392 1053.33 1.392c30.42 0 56.58 7.34 78.48 22.017 22.01 14.678 38.94 35.985 50.78 63.92 11.83 27.818 17.69 61.554 17.58 101.208 0 39.891-5.92 73.982-17.76 102.273-11.72 28.29-28.53 49.893-50.43 64.808-21.9 14.915-48.11 22.372-78.65 22.372zm0-63.743c20.83 0 37.46-10.476 49.89-31.427 12.43-20.952 18.58-52.38 18.47-94.283 0-27.581-2.85-50.545-8.53-68.892-5.56-18.348-13.49-32.138-23.79-41.37-10.18-9.234-22.19-13.85-36.04-13.85-20.72 0-37.29 10.357-49.72 31.072-12.429 20.715-18.703 51.728-18.821 93.04 0 27.936 2.782 51.255 8.345 69.957 5.682 18.585 13.676 32.552 23.966 41.904 10.3 9.233 22.38 13.849 36.23 13.849z"/></mask><path d="M164.166 6.364V370H87.284V79.34h-2.13l-83.276 52.2V63.359L91.9 6.364h72.266zm217.995-4.972c18.703 0 36.695 3.137 53.977 9.41 17.401 6.274 32.908 16.277 46.52 30.008 13.731 13.73 24.562 31.96 32.493 54.687 8.05 22.609 12.133 50.367 12.252 83.274 0 30.895-3.492 58.476-10.476 82.742-6.866 24.148-16.75 44.685-29.652 61.612-12.903 16.927-28.468 29.83-46.698 38.707-18.229 8.76-38.589 13.14-61.079 13.14-24.266 0-45.691-4.676-64.276-14.027-18.584-9.47-33.558-22.313-44.922-38.53-11.245-16.335-18.051-34.683-20.419-55.043h75.817c2.959 13.258 9.174 23.556 18.644 30.895 9.469 7.221 21.188 10.831 35.156 10.831 23.674 0 41.667-10.298 53.977-30.895 12.311-20.715 18.525-49.065 18.644-85.05h-2.486c-5.445 10.654-12.784 19.828-22.017 27.522-9.233 7.575-19.827 13.435-31.783 17.578-11.837 4.143-24.444 6.214-37.82 6.214-21.425 0-40.542-5.03-57.35-15.092-16.809-10.062-30.067-23.911-39.773-41.548-9.707-17.638-14.56-37.761-14.56-60.37-.118-24.384 5.505-46.105 16.868-65.163 11.364-19.058 27.226-33.972 47.585-44.744 20.479-10.89 44.271-16.276 71.378-16.158zm.533 60.37c-11.956 0-22.609 2.84-31.96 8.522-9.233 5.682-16.572 13.317-22.017 22.905-5.327 9.588-7.931 20.301-7.813 32.138 0 11.955 2.604 22.727 7.813 32.315 5.326 9.47 12.547 17.046 21.662 22.727 9.233 5.564 19.768 8.345 31.605 8.345 8.878 0 17.104-1.657 24.68-4.971 7.576-3.314 14.145-7.872 19.709-13.672 5.682-5.919 10.121-12.725 13.317-20.419 3.196-7.694 4.794-15.862 4.794-24.503-.119-11.482-2.841-22.017-8.168-31.605-5.327-9.588-12.666-17.282-22.017-23.082-9.351-5.8-19.886-8.7-31.605-8.7zm329.545-60.37c18.703 0 36.695 3.137 53.978 9.41 17.4 6.274 32.907 16.277 46.52 30.008 13.731 13.73 24.562 31.96 32.492 54.687 8.05 22.609 12.133 50.367 12.252 83.274 0 30.895-3.492 58.476-10.476 82.742-6.866 24.148-16.75 44.685-29.652 61.612-12.902 16.927-28.468 29.83-46.697 38.707-18.23 8.76-38.589 13.14-61.08 13.14-24.266 0-45.691-4.676-64.276-14.027-18.584-9.47-33.558-22.313-44.921-38.53-11.246-16.335-18.052-34.683-20.419-55.043h75.816c2.96 13.258 9.174 23.556 18.644 30.895 9.469 7.221 21.188 10.831 35.156 10.831 23.674 0 41.667-10.298 53.977-30.895 12.311-20.715 18.525-49.065 18.644-85.05h-2.486c-5.445 10.654-12.784 19.828-22.017 27.522-9.233 7.575-19.827 13.435-31.783 17.578-11.837 4.143-24.443 6.214-37.819 6.214-21.426 0-40.543-5.03-57.351-15.092-16.809-10.062-30.067-23.911-39.773-41.548-9.706-17.638-14.56-37.761-14.56-60.37-.118-24.384 5.505-46.105 16.868-65.163 11.364-19.058 27.226-33.972 47.586-44.744 20.478-10.89 44.27-16.276 71.377-16.158zm.533 60.37c-11.955 0-22.609 2.84-31.96 8.522-9.233 5.682-16.572 13.317-22.017 22.905-5.327 9.588-7.931 20.301-7.813 32.138 0 11.955 2.604 22.727 7.813 32.315 5.326 9.47 12.547 17.046 21.662 22.727 9.233 5.564 19.768 8.345 31.605 8.345 8.878 0 17.104-1.657 24.68-4.971 7.576-3.314 14.146-7.872 19.709-13.672 5.682-5.919 10.121-12.725 13.317-20.419 3.196-7.694 4.794-15.862 4.794-24.503-.119-11.482-2.841-22.017-8.168-31.605-5.327-9.588-12.666-17.282-22.017-23.082-9.351-5.8-19.886-8.7-31.605-8.7zM1053.33 377.99c-30.54-.118-56.822-7.635-78.839-22.55-21.899-14.914-38.767-36.517-50.604-64.808-11.719-28.291-17.519-62.322-17.4-102.095 0-39.654 5.859-73.449 17.578-101.385 11.837-27.936 28.705-49.183 50.603-63.743C996.685 8.731 1022.9 1.392 1053.33 1.392c30.42 0 56.58 7.34 78.48 22.017 22.01 14.678 38.94 35.985 50.78 63.92 11.83 27.818 17.69 61.554 17.58 101.208 0 39.891-5.92 73.982-17.76 102.273-11.72 28.29-28.53 49.893-50.43 64.808-21.9 14.915-48.11 22.372-78.65 22.372zm0-63.743c20.83 0 37.46-10.476 49.89-31.427 12.43-20.952 18.58-52.38 18.47-94.283 0-27.581-2.85-50.545-8.53-68.892-5.56-18.348-13.49-32.138-23.79-41.37-10.18-9.234-22.19-13.85-36.04-13.85-20.72 0-37.29 10.357-49.72 31.072-12.429 20.715-18.703 51.728-18.821 93.04 0 27.936 2.782 51.255 8.345 69.957 5.682 18.585 13.676 32.552 23.966 41.904 10.3 9.233 22.38 13.849 36.23 13.849z" fill="#fff" fill-opacity=".7"/><path d="M164.166 6.364V370H87.284V79.34h-2.13l-83.276 52.2V63.359L91.9 6.364h72.266zm217.995-4.972c18.703 0 36.695 3.137 53.977 9.41 17.401 6.274 32.908 16.277 46.52 30.008 13.731 13.73 24.562 31.96 32.493 54.687 8.05 22.609 12.133 50.367 12.252 83.274 0 30.895-3.492 58.476-10.476 82.742-6.866 24.148-16.75 44.685-29.652 61.612-12.903 16.927-28.468 29.83-46.698 38.707-18.229 8.76-38.589 13.14-61.079 13.14-24.266 0-45.691-4.676-64.276-14.027-18.584-9.47-33.558-22.313-44.922-38.53-11.245-16.335-18.051-34.683-20.419-55.043h75.817c2.959 13.258 9.174 23.556 18.644 30.895 9.469 7.221 21.188 10.831 35.156 10.831 23.674 0 41.667-10.298 53.977-30.895 12.311-20.715 18.525-49.065 18.644-85.05h-2.486c-5.445 10.654-12.784 19.828-22.017 27.522-9.233 7.575-19.827 13.435-31.783 17.578-11.837 4.143-24.444 6.214-37.82 6.214-21.425 0-40.542-5.03-57.35-15.092-16.809-10.062-30.067-23.911-39.773-41.548-9.707-17.638-14.56-37.761-14.56-60.37-.118-24.384 5.505-46.105 16.868-65.163 11.364-19.058 27.226-33.972 47.585-44.744 20.479-10.89 44.271-16.276 71.378-16.158zm.533 60.37c-11.956 0-22.609 2.84-31.96 8.522-9.233 5.682-16.572 13.317-22.017 22.905-5.327 9.588-7.931 20.301-7.813 32.138 0 11.955 2.604 22.727 7.813 32.315 5.326 9.47 12.547 17.046 21.662 22.727 9.233 5.564 19.768 8.345 31.605 8.345 8.878 0 17.104-1.657 24.68-4.971 7.576-3.314 14.145-7.872 19.709-13.672 5.682-5.919 10.121-12.725 13.317-20.419 3.196-7.694 4.794-15.862 4.794-24.503-.119-11.482-2.841-22.017-8.168-31.605-5.327-9.588-12.666-17.282-22.017-23.082-9.351-5.8-19.886-8.7-31.605-8.7zm329.545-60.37c18.703 0 36.695 3.137 53.978 9.41 17.4 6.274 32.907 16.277 46.52 30.008 13.731 13.73 24.562 31.96 32.492 54.687 8.05 22.609 12.133 50.367 12.252 83.274 0 30.895-3.492 58.476-10.476 82.742-6.866 24.148-16.75 44.685-29.652 61.612-12.902 16.927-28.468 29.83-46.697 38.707-18.23 8.76-38.589 13.14-61.08 13.14-24.266 0-45.691-4.676-64.276-14.027-18.584-9.47-33.558-22.313-44.921-38.53-11.246-16.335-18.052-34.683-20.419-55.043h75.816c2.96 13.258 9.174 23.556 18.644 30.895 9.469 7.221 21.188 10.831 35.156 10.831 23.674 0 41.667-10.298 53.977-30.895 12.311-20.715 18.525-49.065 18.644-85.05h-2.486c-5.445 10.654-12.784 19.828-22.017 27.522-9.233 7.575-19.827 13.435-31.783 17.578-11.837 4.143-24.443 6.214-37.819 6.214-21.426 0-40.543-5.03-57.351-15.092-16.809-10.062-30.067-23.911-39.773-41.548-9.706-17.638-14.56-37.761-14.56-60.37-.118-24.384 5.505-46.105 16.868-65.163 11.364-19.058 27.226-33.972 47.586-44.744 20.478-10.89 44.27-16.276 71.377-16.158zm.533 60.37c-11.955 0-22.609 2.84-31.96 8.522-9.233 5.682-16.572 13.317-22.017 22.905-5.327 9.588-7.931 20.301-7.813 32.138 0 11.955 2.604 22.727 7.813 32.315 5.326 9.47 12.547 17.046 21.662 22.727 9.233 5.564 19.768 8.345 31.605 8.345 8.878 0 17.104-1.657 24.68-4.971 7.576-3.314 14.146-7.872 19.709-13.672 5.682-5.919 10.121-12.725 13.317-20.419 3.196-7.694 4.794-15.862 4.794-24.503-.119-11.482-2.841-22.017-8.168-31.605-5.327-9.588-12.666-17.282-22.017-23.082-9.351-5.8-19.886-8.7-31.605-8.7zM1053.33 377.99c-30.54-.118-56.822-7.635-78.839-22.55-21.899-14.914-38.767-36.517-50.604-64.808-11.719-28.291-17.519-62.322-17.4-102.095 0-39.654 5.859-73.449 17.578-101.385 11.837-27.936 28.705-49.183 50.603-63.743C996.685 8.731 1022.9 1.392 1053.33 1.392c30.42 0 56.58 7.34 78.48 22.017 22.01 14.678 38.94 35.985 50.78 63.92 11.83 27.818 17.69 61.554 17.58 101.208 0 39.891-5.92 73.982-17.76 102.273-11.72 28.29-28.53 49.893-50.43 64.808-21.9 14.915-48.11 22.372-78.65 22.372zm0-63.743c20.83 0 37.46-10.476 49.89-31.427 12.43-20.952 18.58-52.38 18.47-94.283 0-27.581-2.85-50.545-8.53-68.892-5.56-18.348-13.49-32.138-23.79-41.37-10.18-9.234-22.19-13.85-36.04-13.85-20.72 0-37.29 10.357-49.72 31.072-12.429 20.715-18.703 51.728-18.821 93.04 0 27.936 2.782 51.255 8.345 69.957 5.682 18.585 13.676 32.552 23.966 41.904 10.3 9.233 22.38 13.849 36.23 13.849z" stroke="#9796A5" stroke-opacity=".35" stroke-width="2" mask="url(#a)"/></svg>