<svg width="1070" height="376" fill="none" xmlns="http://www.w3.org/2000/svg"><path d="M163.971 6.364V370H87.088V79.34h-2.13l-83.274 52.2V63.359l90.02-56.995h72.267zm217.995-4.972c18.703 0 36.695 3.137 53.977 9.41 17.401 6.274 32.907 16.277 46.52 30.008 13.731 13.73 24.562 31.96 32.493 54.687 8.049 22.609 12.133 50.367 12.251 83.274 0 30.895-3.492 58.476-10.475 82.742-6.866 24.148-16.75 44.685-29.652 61.612-12.903 16.927-28.469 29.83-46.698 38.707-18.229 8.76-38.589 13.14-61.079 13.14-24.267 0-45.692-4.676-64.276-14.027-18.584-9.47-33.558-22.313-44.922-38.53-11.245-16.335-18.051-34.683-20.419-55.043h75.817c2.959 13.258 9.174 23.556 18.643 30.895 9.47 7.221 21.189 10.831 35.157 10.831 23.674 0 41.666-10.298 53.977-30.895 12.31-20.715 18.525-49.065 18.643-85.05h-2.485c-5.446 10.654-12.785 19.828-22.018 27.522-9.232 7.575-19.827 13.435-31.782 17.578-11.837 4.143-24.444 6.214-37.82 6.214-21.425 0-40.542-5.03-57.351-15.092-16.808-10.062-30.066-23.911-39.772-41.548-9.707-17.638-14.56-37.761-14.56-60.37-.118-24.384 5.504-46.105 16.868-65.163 11.363-19.058 27.225-33.972 47.585-44.744 20.478-10.89 44.271-16.276 71.378-16.158zm.533 60.37c-11.956 0-22.609 2.84-31.961 8.522-9.233 5.682-16.572 13.317-22.017 22.905-5.326 9.588-7.931 20.301-7.812 32.138 0 11.955 2.604 22.727 7.812 32.315 5.327 9.47 12.548 17.046 21.662 22.727 9.233 5.564 19.768 8.345 31.605 8.345 8.878 0 17.105-1.657 24.681-4.971 7.576-3.314 14.145-7.872 19.709-13.672 5.681-5.919 10.12-12.725 13.316-20.419 3.196-7.694 4.794-15.862 4.794-24.503-.118-11.482-2.841-22.017-8.167-31.605-5.327-9.588-12.666-17.282-22.017-23.082-9.352-5.8-19.887-8.7-31.605-8.7zm329.545-60.37c18.703 0 36.695 3.137 53.977 9.41 17.401 6.274 32.908 16.277 46.52 30.008 13.731 13.73 24.562 31.96 32.493 54.687 8.049 22.609 12.133 50.367 12.252 83.274 0 30.895-3.492 58.476-10.476 82.742-6.866 24.148-16.75 44.685-29.652 61.612-12.903 16.927-28.469 29.83-46.698 38.707-18.229 8.76-38.589 13.14-61.079 13.14-24.266 0-45.692-4.676-64.276-14.027-18.584-9.47-33.558-22.313-44.922-38.53-11.245-16.335-18.051-34.683-20.419-55.043h75.817c2.959 13.258 9.174 23.556 18.643 30.895 9.47 7.221 21.189 10.831 35.157 10.831 23.674 0 41.666-10.298 53.977-30.895 12.311-20.715 18.525-49.065 18.643-85.05h-2.485c-5.445 10.654-12.784 19.828-22.017 27.522-9.233 7.575-19.828 13.435-31.783 17.578-11.837 4.143-24.444 6.214-37.82 6.214-21.425 0-40.542-5.03-57.351-15.092-16.808-10.062-30.066-23.911-39.772-41.548-9.707-17.638-14.56-37.761-14.56-60.37-.118-24.384 5.504-46.105 16.868-65.163 11.364-19.058 27.225-33.972 47.585-44.744 20.478-10.89 44.271-16.276 71.378-16.158zm.533 60.37c-11.956 0-22.609 2.84-31.961 8.522-9.233 5.682-16.572 13.317-22.017 22.905-5.326 9.588-7.93 20.301-7.812 32.138 0 11.955 2.604 22.727 7.812 32.315 5.327 9.47 12.548 17.046 21.662 22.727 9.233 5.564 19.768 8.345 31.605 8.345 8.878 0 17.105-1.657 24.681-4.971 7.576-3.314 14.145-7.872 19.709-13.672 5.681-5.919 10.12-12.725 13.316-20.419 3.196-7.694 4.794-15.862 4.794-24.503-.118-11.482-2.84-22.017-8.167-31.605-5.327-9.588-12.666-17.282-22.017-23.082-9.352-5.8-19.887-8.7-31.605-8.7zM1068.76 6.364V370h-76.886V79.34h-2.131l-83.274 52.201V63.359L996.49 6.364h72.27z" fill="#fff" fill-opacity=".7"/><path d="M451.421 193.653c-.174 35.698-6.38 63.781-18.571 84.295-12.222 20.447-30.052 30.65-53.547 30.65-13.878 0-25.485-3.585-34.854-10.729-9.363-7.258-15.521-17.447-18.458-30.606l-.087-.391h-76.779l.064.558c2.377 20.438 9.211 38.864 20.504 55.268l.003.004c11.413 16.287 26.451 29.183 45.104 38.688l.002.001c18.665 9.392 40.169 14.081 64.501 14.081 22.557 0 42.992-4.394 61.296-13.189l.002-.001c18.303-8.914 33.929-21.868 46.876-38.854 12.947-16.985 22.856-37.581 29.735-61.778m-65.791-67.997l-55.618 45.072h-.001c-11.894 4.163-24.556 6.242-37.984 6.242-21.507 0-40.714-5.051-57.607-15.163-16.887-10.108-30.207-24.024-39.954-41.736-9.752-17.719-14.622-37.927-14.622-60.608-.119-24.466 5.524-46.278 16.938-65.422 11.413-19.14 27.343-34.117 47.78-44.93C330.916 6.173 354.792.774 381.967.892c18.759 0 36.809 3.147 54.147 9.44m15.307 183.321h-1.678 1.678zm65.791 67.997v.001l-.48-.138.48.137zm0 0c7-24.32 10.495-51.948 10.495-82.879v-.001c-.118-32.943-4.206-60.76-12.279-83.438m0 0c-7.95-22.78-18.816-41.08-32.611-54.875m32.611 54.875l-.001-.002-.471.167m.472-.165l-.472.165m-32.139-55.04c-13.662-13.78-29.23-23.825-46.703-30.124m46.703 30.124s0 0 0 0l-.354.353m.354-.353h.001l-.355.353m-46.349-30.477h-.001l-.17.47m.171-.47l-.171.47m0 0c17.401 6.273 32.907 16.276 46.52 30.007m-46.52-30.008l91.264 167.969c-.118-32.907-4.202-60.665-12.251-83.274M482.463 40.81c13.731 13.73 24.562 31.96 32.493 54.687M315.027 360.945c18.584 9.351 40.009 14.027 64.276 14.027 22.49 0 42.85-4.38 61.079-13.14l-125.355-.887zm0 0c-18.584-9.47-33.558-22.313-44.922-38.53l44.922 38.53zm13.494-267.756c-5.326 9.588-7.931 20.301-7.812 32.138 0 11.955 2.604 22.727 7.812 32.315m0-64.453l.435.247.001-.002m-.436-.245c5.445-9.588 12.784-17.223 22.017-22.905M328.521 93.19l.437.243-.001.002m0 0c-5.28 9.506-7.866 20.131-7.748 31.888v.005c0 11.879 2.586 22.566 7.75 32.073m-.002-63.966c5.404-9.514 12.683-17.086 21.842-22.723m-21.84 86.689l-.002-.003-.436.245m.438-.242l.002.003-.44.239m.438-.242c5.285 9.394 12.445 16.906 21.485 22.542m-21.923-22.3c5.327 9.47 12.548 17.046 21.662 22.727m0 0l.258-.428.003.001m-.261.427c9.233 5.564 19.768 8.345 31.605 8.345 8.878 0 17.105-1.657 24.681-4.971 7.576-3.314 14.145-7.872 19.709-13.672m-75.995 10.298l.265-.424a.014.014 0 01-.004-.003m0 0c9.147 5.511 19.59 8.272 31.344 8.272 8.814 0 16.972-1.644 24.48-4.929 7.518-3.289 14.032-7.809 19.549-13.56l.361.346m0 0l-.361-.346c5.638-5.873 10.043-12.627 13.216-20.265 3.169-7.63 4.755-15.732 4.755-24.309m-17.61 44.92c5.681-5.919 10.12-12.725 13.316-20.419 3.196-7.694 4.794-15.862 4.794-24.503m-.5.002c-.118-11.401-2.82-21.853-8.104-31.364-5.286-9.514-12.565-17.145-21.844-22.9-9.267-5.748-19.71-8.626-31.341-8.626-11.873 0-22.435 2.82-31.7 8.45m92.989 54.44v-.002h.5m-.5.002v.003l.5-.005m0 0c-.118-11.482-2.841-22.017-8.167-31.605-5.327-9.588-12.666-17.282-22.017-23.082-9.352-5.8-19.887-8.7-31.605-8.7-11.956 0-22.609 2.84-31.961 8.522m0 0l.262.426-.001.001m-.261-.427l.26.427h.001M164.471 6.364v-.5H91.56l-.123.077-90.02 56.996-.233.147v69.361l.765-.48 83.152-52.126h1.487V370.5h77.883V6.364zM712.045.892c-27.175-.118-51.051 5.281-71.613 16.216-20.437 10.813-36.368 25.79-47.78 44.93-11.415 19.144-17.058 40.956-16.939 65.422 0 22.681 4.87 42.889 14.622 60.608 9.748 17.712 23.067 31.628 39.954 41.736 16.893 10.112 36.1 15.163 57.607 15.163 13.428 0 26.09-2.079 37.984-6.242 12.008-4.161 22.654-10.048 31.936-17.664l.003-.002c9.205-7.672 16.54-16.808 22.002-27.406h1.678c-.174 35.698-6.38 63.78-18.57 84.294-12.222 20.448-30.053 30.651-53.548 30.651-13.878 0-25.485-3.585-34.853-10.729-9.364-7.258-15.522-17.447-18.459-30.606l-.087-.391h-76.779l.065.558c2.376 20.438 9.21 38.864 20.503 55.268l.003.004c11.413 16.287 26.451 29.183 45.104 38.688l.002.001c18.665 9.392 40.169 14.081 64.501 14.081 22.557 0 42.992-4.394 61.296-13.189l.002-.001c18.303-8.914 33.929-21.868 46.876-38.854 12.947-16.985 22.856-37.581 29.736-61.778L712.045.892zm-60.758 124.435v-.005c-.118-11.758 2.468-22.384 7.749-31.89 5.404-9.514 12.683-17.085 21.84-22.72 9.266-5.63 19.828-8.45 31.701-8.45 11.632 0 22.074 2.877 31.341 8.624 9.279 5.756 16.559 13.388 21.844 22.9 5.284 9.513 7.987 19.965 8.104 31.368 0 8.576-1.586 16.677-4.755 24.306-3.173 7.638-7.578 14.392-13.216 20.265l.361.346-.361-.346c-5.517 5.751-12.031 10.271-19.549 13.56-7.508 3.285-15.666 4.929-24.48 4.929-11.754 0-22.197-2.76-31.343-8.271-9.04-5.636-16.2-13.147-21.485-22.542-5.164-9.507-7.751-20.195-7.751-32.074zM1069.26 6.364v-.5h-72.915l-.122.077-90.022 56.996-.232.147v69.361l.765-.48 83.153-52.126h1.487V370.5h77.886V6.364z" stroke="#9796A5" stroke-opacity=".35"/></svg>