<svg width="1186" height="376" fill="none" xmlns="http://www.w3.org/2000/svg"><mask id="a" maskUnits="userSpaceOnUse" x=".203" y=".39" width="1186" height="376" fill="#000"><path fill="#fff" d="M.203.39h1186v376H.203z"/><path d="M163.49 6.364V370H86.608V79.34h-2.13l-83.276 52.2V63.359L91.224 6.364h72.266zm217.995-4.972c18.703 0 36.696 3.137 53.978 9.41 17.4 6.274 32.907 16.277 46.52 30.008 13.731 13.73 24.562 31.96 32.493 54.687 8.049 22.609 12.133 50.367 12.251 83.274 0 30.895-3.492 58.476-10.476 82.742-6.865 24.148-16.749 44.685-29.652 61.612-12.902 16.927-28.468 29.83-46.697 38.707-18.23 8.76-38.589 13.14-61.08 13.14-24.266 0-45.691-4.676-64.275-14.027-18.585-9.47-33.559-22.313-44.922-38.53-11.246-16.335-18.052-34.683-20.419-55.043h75.816c2.96 13.258 9.174 23.556 18.644 30.895 9.47 7.221 21.188 10.831 35.156 10.831 23.674 0 41.667-10.298 53.977-30.895 12.311-20.715 18.525-49.065 18.644-85.05h-2.486c-5.445 10.654-12.784 19.828-22.017 27.522-9.233 7.575-19.827 13.435-31.783 17.578-11.837 4.143-24.443 6.214-37.819 6.214-21.425 0-40.542-5.03-57.351-15.092-16.809-10.062-30.066-23.911-39.773-41.548-9.706-17.638-14.56-37.761-14.56-60.37-.118-24.384 5.505-46.105 16.868-65.163 11.364-19.058 27.226-33.972 47.586-44.744 20.478-10.89 44.27-16.276 71.377-16.158zm.533 60.37c-11.955 0-22.609 2.84-31.96 8.522-9.233 5.682-16.572 13.317-22.017 22.905-5.327 9.588-7.931 20.301-7.813 32.138 0 11.955 2.604 22.727 7.813 32.315 5.327 9.47 12.547 17.046 21.662 22.727 9.233 5.564 19.768 8.345 31.605 8.345 8.878 0 17.105-1.657 24.68-4.971 7.576-3.314 14.146-7.872 19.709-13.672 5.682-5.919 10.121-12.725 13.317-20.419 3.196-7.694 4.794-15.862 4.794-24.503-.118-11.482-2.841-22.017-8.168-31.605-5.326-9.588-12.665-17.282-22.017-23.082-9.351-5.8-19.886-8.7-31.605-8.7zm329.546-60.37c18.702 0 36.695 3.137 53.977 9.41 17.4 6.274 32.907 16.277 46.52 30.008 13.731 13.73 24.562 31.96 32.493 54.687 8.049 22.609 12.133 50.367 12.251 83.274 0 30.895-3.492 58.476-10.476 82.742-6.865 24.148-16.749 44.685-29.652 61.612-12.902 16.927-28.468 29.83-46.697 38.707-18.229 8.76-38.589 13.14-61.08 13.14-24.266 0-45.691-4.676-64.275-14.027-18.585-9.47-33.559-22.313-44.922-38.53-11.246-16.335-18.052-34.683-20.419-55.043h75.817c2.959 13.258 9.173 23.556 18.643 30.895 9.47 7.221 21.188 10.831 35.156 10.831 23.674 0 41.667-10.298 53.978-30.895 12.31-20.715 18.525-49.065 18.643-85.05h-2.486c-5.445 10.654-12.784 19.828-22.017 27.522-9.233 7.575-19.827 13.435-31.783 17.578-11.837 4.143-24.443 6.214-37.819 6.214-21.425 0-40.542-5.03-57.351-15.092-16.809-10.062-30.066-23.911-39.773-41.548-9.706-17.638-14.559-37.761-14.559-60.37-.119-24.384 5.504-46.105 16.868-65.163 11.363-19.058 27.225-33.972 47.585-44.744 20.478-10.89 44.271-16.276 71.378-16.158zm.532 60.37c-11.955 0-22.609 2.84-31.96 8.522-9.233 5.682-16.572 13.317-22.017 22.905-5.327 9.588-7.931 20.301-7.813 32.138 0 11.955 2.605 22.727 7.813 32.315 5.327 9.47 12.547 17.046 21.662 22.727 9.233 5.564 19.768 8.345 31.605 8.345 8.878 0 17.105-1.657 24.68-4.971 7.576-3.314 14.146-7.872 19.709-13.672 5.682-5.919 10.121-12.725 13.317-20.419 3.196-7.694 4.794-15.862 4.794-24.503-.118-11.482-2.841-22.017-8.168-31.605-5.326-9.588-12.665-17.282-22.017-23.082-9.351-5.8-19.886-8.7-31.605-8.7zm332.384 313.21c-26.51 0-50.128-4.558-70.843-13.672-20.596-9.233-36.872-21.899-48.828-37.997-11.837-16.217-17.933-34.92-18.288-56.108h77.415c.473 8.877 3.373 16.69 8.7 23.437 5.445 6.629 12.664 11.778 21.664 15.448 8.99 3.669 19.11 5.504 30.36 5.504 11.72 0 22.08-2.072 31.07-6.215 9-4.143 16.04-9.884 21.13-17.223 5.09-7.339 7.64-15.802 7.64-25.39 0-9.707-2.73-18.289-8.17-25.746-5.33-7.576-13.02-13.494-23.08-17.756-9.95-4.261-21.78-6.392-35.51-6.392h-33.92v-56.463h33.92c11.6 0 21.83-2.012 30.71-6.037 9-4.024 15.98-9.588 20.95-16.69 4.98-7.221 7.46-15.625 7.46-25.213 0-9.115-2.19-17.105-6.57-23.97-4.26-6.984-10.3-12.43-18.11-16.336-7.69-3.906-16.69-5.859-26.99-5.859-10.41 0-19.94 1.894-28.58 5.682-8.64 3.67-15.57 8.937-20.778 15.802-5.208 6.866-7.99 14.915-8.345 24.148h-73.686c.355-20.952 6.333-39.418 17.933-55.398 11.6-15.98 27.225-28.468 46.875-37.464 19.768-9.115 42.081-13.672 66.941-13.672 25.09 0 47.05 4.557 65.87 13.672 18.82 9.114 33.44 21.425 43.86 36.932 10.53 15.388 15.74 32.67 15.62 51.846.12 20.36-6.21 37.346-19 50.959-12.66 13.613-29.17 22.254-49.53 25.923v2.841c26.75 3.433 47.11 12.725 61.08 27.877 14.08 15.033 21.07 33.854 20.95 56.463.12 20.715-5.86 39.122-17.94 55.22-11.95 16.098-28.46 28.764-49.53 37.997s-45.22 13.85-72.45 13.85z"/></mask><path d="M163.49 6.364V370H86.608V79.34h-2.13l-83.276 52.2V63.359L91.224 6.364h72.266zm217.995-4.972c18.703 0 36.696 3.137 53.978 9.41 17.4 6.274 32.907 16.277 46.52 30.008 13.731 13.73 24.562 31.96 32.493 54.687 8.049 22.609 12.133 50.367 12.251 83.274 0 30.895-3.492 58.476-10.476 82.742-6.865 24.148-16.749 44.685-29.652 61.612-12.902 16.927-28.468 29.83-46.697 38.707-18.23 8.76-38.589 13.14-61.08 13.14-24.266 0-45.691-4.676-64.275-14.027-18.585-9.47-33.559-22.313-44.922-38.53-11.246-16.335-18.052-34.683-20.419-55.043h75.816c2.96 13.258 9.174 23.556 18.644 30.895 9.47 7.221 21.188 10.831 35.156 10.831 23.674 0 41.667-10.298 53.977-30.895 12.311-20.715 18.525-49.065 18.644-85.05h-2.486c-5.445 10.654-12.784 19.828-22.017 27.522-9.233 7.575-19.827 13.435-31.783 17.578-11.837 4.143-24.443 6.214-37.819 6.214-21.425 0-40.542-5.03-57.351-15.092-16.809-10.062-30.066-23.911-39.773-41.548-9.706-17.638-14.56-37.761-14.56-60.37-.118-24.384 5.505-46.105 16.868-65.163 11.364-19.058 27.226-33.972 47.586-44.744 20.478-10.89 44.27-16.276 71.377-16.158zm.533 60.37c-11.955 0-22.609 2.84-31.96 8.522-9.233 5.682-16.572 13.317-22.017 22.905-5.327 9.588-7.931 20.301-7.813 32.138 0 11.955 2.604 22.727 7.813 32.315 5.327 9.47 12.547 17.046 21.662 22.727 9.233 5.564 19.768 8.345 31.605 8.345 8.878 0 17.105-1.657 24.68-4.971 7.576-3.314 14.146-7.872 19.709-13.672 5.682-5.919 10.121-12.725 13.317-20.419 3.196-7.694 4.794-15.862 4.794-24.503-.118-11.482-2.841-22.017-8.168-31.605-5.326-9.588-12.665-17.282-22.017-23.082-9.351-5.8-19.886-8.7-31.605-8.7zm329.546-60.37c18.702 0 36.695 3.137 53.977 9.41 17.4 6.274 32.907 16.277 46.52 30.008 13.731 13.73 24.562 31.96 32.493 54.687 8.049 22.609 12.133 50.367 12.251 83.274 0 30.895-3.492 58.476-10.476 82.742-6.865 24.148-16.749 44.685-29.652 61.612-12.902 16.927-28.468 29.83-46.697 38.707-18.229 8.76-38.589 13.14-61.08 13.14-24.266 0-45.691-4.676-64.275-14.027-18.585-9.47-33.559-22.313-44.922-38.53-11.246-16.335-18.052-34.683-20.419-55.043h75.817c2.959 13.258 9.173 23.556 18.643 30.895 9.47 7.221 21.188 10.831 35.156 10.831 23.674 0 41.667-10.298 53.978-30.895 12.31-20.715 18.525-49.065 18.643-85.05h-2.486c-5.445 10.654-12.784 19.828-22.017 27.522-9.233 7.575-19.827 13.435-31.783 17.578-11.837 4.143-24.443 6.214-37.819 6.214-21.425 0-40.542-5.03-57.351-15.092-16.809-10.062-30.066-23.911-39.773-41.548-9.706-17.638-14.559-37.761-14.559-60.37-.119-24.384 5.504-46.105 16.868-65.163 11.363-19.058 27.225-33.972 47.585-44.744 20.478-10.89 44.271-16.276 71.378-16.158zm.532 60.37c-11.955 0-22.609 2.84-31.96 8.522-9.233 5.682-16.572 13.317-22.017 22.905-5.327 9.588-7.931 20.301-7.813 32.138 0 11.955 2.605 22.727 7.813 32.315 5.327 9.47 12.547 17.046 21.662 22.727 9.233 5.564 19.768 8.345 31.605 8.345 8.878 0 17.105-1.657 24.68-4.971 7.576-3.314 14.146-7.872 19.709-13.672 5.682-5.919 10.121-12.725 13.317-20.419 3.196-7.694 4.794-15.862 4.794-24.503-.118-11.482-2.841-22.017-8.168-31.605-5.326-9.588-12.665-17.282-22.017-23.082-9.351-5.8-19.886-8.7-31.605-8.7zm332.384 313.21c-26.51 0-50.128-4.558-70.843-13.672-20.596-9.233-36.872-21.899-48.828-37.997-11.837-16.217-17.933-34.92-18.288-56.108h77.415c.473 8.877 3.373 16.69 8.7 23.437 5.445 6.629 12.664 11.778 21.664 15.448 8.99 3.669 19.11 5.504 30.36 5.504 11.72 0 22.08-2.072 31.07-6.215 9-4.143 16.04-9.884 21.13-17.223 5.09-7.339 7.64-15.802 7.64-25.39 0-9.707-2.73-18.289-8.17-25.746-5.33-7.576-13.02-13.494-23.08-17.756-9.95-4.261-21.78-6.392-35.51-6.392h-33.92v-56.463h33.92c11.6 0 21.83-2.012 30.71-6.037 9-4.024 15.98-9.588 20.95-16.69 4.98-7.221 7.46-15.625 7.46-25.213 0-9.115-2.19-17.105-6.57-23.97-4.26-6.984-10.3-12.43-18.11-16.336-7.69-3.906-16.69-5.859-26.99-5.859-10.41 0-19.94 1.894-28.58 5.682-8.64 3.67-15.57 8.937-20.778 15.802-5.208 6.866-7.99 14.915-8.345 24.148h-73.686c.355-20.952 6.333-39.418 17.933-55.398 11.6-15.98 27.225-28.468 46.875-37.464 19.768-9.115 42.081-13.672 66.941-13.672 25.09 0 47.05 4.557 65.87 13.672 18.82 9.114 33.44 21.425 43.86 36.932 10.53 15.388 15.74 32.67 15.62 51.846.12 20.36-6.21 37.346-19 50.959-12.66 13.613-29.17 22.254-49.53 25.923v2.841c26.75 3.433 47.11 12.725 61.08 27.877 14.08 15.033 21.07 33.854 20.95 56.463.12 20.715-5.86 39.122-17.94 55.22-11.95 16.098-28.46 28.764-49.53 37.997s-45.22 13.85-72.45 13.85z" fill="#fff" fill-opacity=".6"/><path d="M163.49 6.364V370H86.608V79.34h-2.13l-83.276 52.2V63.359L91.224 6.364h72.266zm217.995-4.972c18.703 0 36.696 3.137 53.978 9.41 17.4 6.274 32.907 16.277 46.52 30.008 13.731 13.73 24.562 31.96 32.493 54.687 8.049 22.609 12.133 50.367 12.251 83.274 0 30.895-3.492 58.476-10.476 82.742-6.865 24.148-16.749 44.685-29.652 61.612-12.902 16.927-28.468 29.83-46.697 38.707-18.23 8.76-38.589 13.14-61.08 13.14-24.266 0-45.691-4.676-64.275-14.027-18.585-9.47-33.559-22.313-44.922-38.53-11.246-16.335-18.052-34.683-20.419-55.043h75.816c2.96 13.258 9.174 23.556 18.644 30.895 9.47 7.221 21.188 10.831 35.156 10.831 23.674 0 41.667-10.298 53.977-30.895 12.311-20.715 18.525-49.065 18.644-85.05h-2.486c-5.445 10.654-12.784 19.828-22.017 27.522-9.233 7.575-19.827 13.435-31.783 17.578-11.837 4.143-24.443 6.214-37.819 6.214-21.425 0-40.542-5.03-57.351-15.092-16.809-10.062-30.066-23.911-39.773-41.548-9.706-17.638-14.56-37.761-14.56-60.37-.118-24.384 5.505-46.105 16.868-65.163 11.364-19.058 27.226-33.972 47.586-44.744 20.478-10.89 44.27-16.276 71.377-16.158zm.533 60.37c-11.955 0-22.609 2.84-31.96 8.522-9.233 5.682-16.572 13.317-22.017 22.905-5.327 9.588-7.931 20.301-7.813 32.138 0 11.955 2.604 22.727 7.813 32.315 5.327 9.47 12.547 17.046 21.662 22.727 9.233 5.564 19.768 8.345 31.605 8.345 8.878 0 17.105-1.657 24.68-4.971 7.576-3.314 14.146-7.872 19.709-13.672 5.682-5.919 10.121-12.725 13.317-20.419 3.196-7.694 4.794-15.862 4.794-24.503-.118-11.482-2.841-22.017-8.168-31.605-5.326-9.588-12.665-17.282-22.017-23.082-9.351-5.8-19.886-8.7-31.605-8.7zm329.546-60.37c18.702 0 36.695 3.137 53.977 9.41 17.4 6.274 32.907 16.277 46.52 30.008 13.731 13.73 24.562 31.96 32.493 54.687 8.049 22.609 12.133 50.367 12.251 83.274 0 30.895-3.492 58.476-10.476 82.742-6.865 24.148-16.749 44.685-29.652 61.612-12.902 16.927-28.468 29.83-46.697 38.707-18.229 8.76-38.589 13.14-61.08 13.14-24.266 0-45.691-4.676-64.275-14.027-18.585-9.47-33.559-22.313-44.922-38.53-11.246-16.335-18.052-34.683-20.419-55.043h75.817c2.959 13.258 9.173 23.556 18.643 30.895 9.47 7.221 21.188 10.831 35.156 10.831 23.674 0 41.667-10.298 53.978-30.895 12.31-20.715 18.525-49.065 18.643-85.05h-2.486c-5.445 10.654-12.784 19.828-22.017 27.522-9.233 7.575-19.827 13.435-31.783 17.578-11.837 4.143-24.443 6.214-37.819 6.214-21.425 0-40.542-5.03-57.351-15.092-16.809-10.062-30.066-23.911-39.773-41.548-9.706-17.638-14.559-37.761-14.559-60.37-.119-24.384 5.504-46.105 16.868-65.163 11.363-19.058 27.225-33.972 47.585-44.744 20.478-10.89 44.271-16.276 71.378-16.158zm.532 60.37c-11.955 0-22.609 2.84-31.96 8.522-9.233 5.682-16.572 13.317-22.017 22.905-5.327 9.588-7.931 20.301-7.813 32.138 0 11.955 2.605 22.727 7.813 32.315 5.327 9.47 12.547 17.046 21.662 22.727 9.233 5.564 19.768 8.345 31.605 8.345 8.878 0 17.105-1.657 24.68-4.971 7.576-3.314 14.146-7.872 19.709-13.672 5.682-5.919 10.121-12.725 13.317-20.419 3.196-7.694 4.794-15.862 4.794-24.503-.118-11.482-2.841-22.017-8.168-31.605-5.326-9.588-12.665-17.282-22.017-23.082-9.351-5.8-19.886-8.7-31.605-8.7zm332.384 313.21c-26.51 0-50.128-4.558-70.843-13.672-20.596-9.233-36.872-21.899-48.828-37.997-11.837-16.217-17.933-34.92-18.288-56.108h77.415c.473 8.877 3.373 16.69 8.7 23.437 5.445 6.629 12.664 11.778 21.664 15.448 8.99 3.669 19.11 5.504 30.36 5.504 11.72 0 22.08-2.072 31.07-6.215 9-4.143 16.04-9.884 21.13-17.223 5.09-7.339 7.64-15.802 7.64-25.39 0-9.707-2.73-18.289-8.17-25.746-5.33-7.576-13.02-13.494-23.08-17.756-9.95-4.261-21.78-6.392-35.51-6.392h-33.92v-56.463h33.92c11.6 0 21.83-2.012 30.71-6.037 9-4.024 15.98-9.588 20.95-16.69 4.98-7.221 7.46-15.625 7.46-25.213 0-9.115-2.19-17.105-6.57-23.97-4.26-6.984-10.3-12.43-18.11-16.336-7.69-3.906-16.69-5.859-26.99-5.859-10.41 0-19.94 1.894-28.58 5.682-8.64 3.67-15.57 8.937-20.778 15.802-5.208 6.866-7.99 14.915-8.345 24.148h-73.686c.355-20.952 6.333-39.418 17.933-55.398 11.6-15.98 27.225-28.468 46.875-37.464 19.768-9.115 42.081-13.672 66.941-13.672 25.09 0 47.05 4.557 65.87 13.672 18.82 9.114 33.44 21.425 43.86 36.932 10.53 15.388 15.74 32.67 15.62 51.846.12 20.36-6.21 37.346-19 50.959-12.66 13.613-29.17 22.254-49.53 25.923v2.841c26.75 3.433 47.11 12.725 61.08 27.877 14.08 15.033 21.07 33.854 20.95 56.463.12 20.715-5.86 39.122-17.94 55.22-11.95 16.098-28.46 28.764-49.53 37.997s-45.22 13.85-72.45 13.85z" stroke="#9796A5" stroke-opacity=".15" stroke-width="2" mask="url(#a)"/></svg>