<svg width="1200" height="376" fill="none" xmlns="http://www.w3.org/2000/svg"><mask id="a" maskUnits="userSpaceOnUse" x=".564" y=".39" width="1199" height="376" fill="#000"><path fill="#fff" d="M.564.39h1199v376H.564z"/><path d="M163.851 6.364V370H86.969V79.34h-2.13l-83.275 52.2V63.359L91.586 6.364h72.265zm217.996-4.972c18.702 0 36.695 3.137 53.977 9.41 17.401 6.274 32.907 16.277 46.52 30.008 13.731 13.73 24.562 31.96 32.493 54.687 8.049 22.609 12.133 50.367 12.251 83.274 0 30.895-3.492 58.476-10.476 82.742-6.865 24.148-16.749 44.685-29.652 61.612-12.902 16.927-28.468 29.83-46.697 38.707-18.229 8.76-38.589 13.14-61.08 13.14-24.266 0-45.691-4.676-64.275-14.027-18.584-9.47-33.558-22.313-44.922-38.53-11.245-16.335-18.052-34.683-20.419-55.043h75.817c2.959 13.258 9.173 23.556 18.643 30.895 9.47 7.221 21.189 10.831 35.156 10.831 23.675 0 41.667-10.298 53.978-30.895 12.31-20.715 18.525-49.065 18.643-85.05h-2.486c-5.445 10.654-12.784 19.828-22.017 27.522-9.233 7.575-19.827 13.435-31.782 17.578-11.837 4.143-24.444 6.214-37.82 6.214-21.425 0-40.542-5.03-57.351-15.092-16.809-10.062-30.066-23.911-39.773-41.548-9.706-17.638-14.559-37.761-14.559-60.37-.119-24.384 5.504-46.105 16.868-65.163 11.363-19.058 27.225-33.972 47.585-44.744C330.947 6.66 354.74 1.274 381.847 1.392zm.532 60.37c-11.955 0-22.608 2.84-31.96 8.522-9.233 5.682-16.572 13.317-22.017 22.905-5.327 9.588-7.931 20.301-7.812 32.138 0 11.955 2.604 22.727 7.812 32.315 5.327 9.47 12.548 17.046 21.662 22.727 9.233 5.564 19.768 8.345 31.605 8.345 8.878 0 17.105-1.657 24.681-4.971 7.575-3.314 14.145-7.872 19.708-13.672 5.682-5.919 10.121-12.725 13.317-20.419 3.196-7.694 4.794-15.862 4.794-24.503-.118-11.482-2.841-22.017-8.167-31.605-5.327-9.588-12.666-17.282-22.017-23.082-9.352-5.8-19.887-8.7-31.606-8.7zm329.546-60.37c18.703 0 36.695 3.137 53.977 9.41 17.401 6.274 32.907 16.277 46.52 30.008 13.731 13.73 24.562 31.96 32.493 54.687 8.049 22.609 12.133 50.367 12.251 83.274 0 30.895-3.492 58.476-10.476 82.742-6.865 24.148-16.749 44.685-29.651 61.612-12.903 16.927-28.469 29.83-46.698 38.707-18.229 8.76-38.589 13.14-61.079 13.14-24.267 0-45.692-4.676-64.276-14.027-18.584-9.47-33.558-22.313-44.922-38.53-11.245-16.335-18.051-34.683-20.419-55.043h75.817c2.959 13.258 9.174 23.556 18.643 30.895 9.47 7.221 21.189 10.831 35.157 10.831 23.674 0 41.666-10.298 53.977-30.895 12.31-20.715 18.525-49.065 18.643-85.05h-2.486c-5.445 10.654-12.784 19.828-22.017 27.522-9.233 7.575-19.827 13.435-31.782 17.578-11.837 4.143-24.444 6.214-37.82 6.214-21.425 0-40.542-5.03-57.351-15.092-16.808-10.062-30.066-23.911-39.772-41.548-9.707-17.638-14.56-37.761-14.56-60.37-.118-24.384 5.504-46.105 16.868-65.163 11.363-19.058 27.225-33.972 47.585-44.744 20.478-10.89 44.271-16.276 71.378-16.158zm.533 60.37c-11.956 0-22.609 2.84-31.961 8.522-9.233 5.682-16.572 13.317-22.017 22.905-5.326 9.588-7.931 20.301-7.812 32.138 0 11.955 2.604 22.727 7.812 32.315 5.327 9.47 12.548 17.046 21.662 22.727 9.233 5.564 19.768 8.345 31.605 8.345 8.878 0 17.105-1.657 24.681-4.971 7.575-3.314 14.145-7.872 19.709-13.672 5.681-5.919 10.12-12.725 13.316-20.419 3.196-7.694 4.794-15.862 4.794-24.503-.118-11.482-2.841-22.017-8.167-31.605-5.327-9.588-12.666-17.282-22.017-23.082-9.352-5.8-19.887-8.7-31.605-8.7zM904.929 306.08v-60.547L1056.74 6.363h52.2v83.808h-30.89l-95.706 151.455v2.841h215.736v61.613H904.929zM1079.47 370v-82.386l1.42-26.811V6.363h72.09V370h-73.51z"/></mask><path d="M163.851 6.364V370H86.969V79.34h-2.13l-83.275 52.2V63.359L91.586 6.364h72.265zm217.996-4.972c18.702 0 36.695 3.137 53.977 9.41 17.401 6.274 32.907 16.277 46.52 30.008 13.731 13.73 24.562 31.96 32.493 54.687 8.049 22.609 12.133 50.367 12.251 83.274 0 30.895-3.492 58.476-10.476 82.742-6.865 24.148-16.749 44.685-29.652 61.612-12.902 16.927-28.468 29.83-46.697 38.707-18.229 8.76-38.589 13.14-61.08 13.14-24.266 0-45.691-4.676-64.275-14.027-18.584-9.47-33.558-22.313-44.922-38.53-11.245-16.335-18.052-34.683-20.419-55.043h75.817c2.959 13.258 9.173 23.556 18.643 30.895 9.47 7.221 21.189 10.831 35.156 10.831 23.675 0 41.667-10.298 53.978-30.895 12.31-20.715 18.525-49.065 18.643-85.05h-2.486c-5.445 10.654-12.784 19.828-22.017 27.522-9.233 7.575-19.827 13.435-31.782 17.578-11.837 4.143-24.444 6.214-37.82 6.214-21.425 0-40.542-5.03-57.351-15.092-16.809-10.062-30.066-23.911-39.773-41.548-9.706-17.638-14.559-37.761-14.559-60.37-.119-24.384 5.504-46.105 16.868-65.163 11.363-19.058 27.225-33.972 47.585-44.744C330.947 6.66 354.74 1.274 381.847 1.392zm.532 60.37c-11.955 0-22.608 2.84-31.96 8.522-9.233 5.682-16.572 13.317-22.017 22.905-5.327 9.588-7.931 20.301-7.812 32.138 0 11.955 2.604 22.727 7.812 32.315 5.327 9.47 12.548 17.046 21.662 22.727 9.233 5.564 19.768 8.345 31.605 8.345 8.878 0 17.105-1.657 24.681-4.971 7.575-3.314 14.145-7.872 19.708-13.672 5.682-5.919 10.121-12.725 13.317-20.419 3.196-7.694 4.794-15.862 4.794-24.503-.118-11.482-2.841-22.017-8.167-31.605-5.327-9.588-12.666-17.282-22.017-23.082-9.352-5.8-19.887-8.7-31.606-8.7zm329.546-60.37c18.703 0 36.695 3.137 53.977 9.41 17.401 6.274 32.907 16.277 46.52 30.008 13.731 13.73 24.562 31.96 32.493 54.687 8.049 22.609 12.133 50.367 12.251 83.274 0 30.895-3.492 58.476-10.476 82.742-6.865 24.148-16.749 44.685-29.651 61.612-12.903 16.927-28.469 29.83-46.698 38.707-18.229 8.76-38.589 13.14-61.079 13.14-24.267 0-45.692-4.676-64.276-14.027-18.584-9.47-33.558-22.313-44.922-38.53-11.245-16.335-18.051-34.683-20.419-55.043h75.817c2.959 13.258 9.174 23.556 18.643 30.895 9.47 7.221 21.189 10.831 35.157 10.831 23.674 0 41.666-10.298 53.977-30.895 12.31-20.715 18.525-49.065 18.643-85.05h-2.486c-5.445 10.654-12.784 19.828-22.017 27.522-9.233 7.575-19.827 13.435-31.782 17.578-11.837 4.143-24.444 6.214-37.82 6.214-21.425 0-40.542-5.03-57.351-15.092-16.808-10.062-30.066-23.911-39.772-41.548-9.707-17.638-14.56-37.761-14.56-60.37-.118-24.384 5.504-46.105 16.868-65.163 11.363-19.058 27.225-33.972 47.585-44.744 20.478-10.89 44.271-16.276 71.378-16.158zm.533 60.37c-11.956 0-22.609 2.84-31.961 8.522-9.233 5.682-16.572 13.317-22.017 22.905-5.326 9.588-7.931 20.301-7.812 32.138 0 11.955 2.604 22.727 7.812 32.315 5.327 9.47 12.548 17.046 21.662 22.727 9.233 5.564 19.768 8.345 31.605 8.345 8.878 0 17.105-1.657 24.681-4.971 7.575-3.314 14.145-7.872 19.709-13.672 5.681-5.919 10.12-12.725 13.316-20.419 3.196-7.694 4.794-15.862 4.794-24.503-.118-11.482-2.841-22.017-8.167-31.605-5.327-9.588-12.666-17.282-22.017-23.082-9.352-5.8-19.887-8.7-31.605-8.7zM904.929 306.08v-60.547L1056.74 6.363h52.2v83.808h-30.89l-95.706 151.455v2.841h215.736v61.613H904.929zM1079.47 370v-82.386l1.42-26.811V6.363h72.09V370h-73.51z" fill="#fff" fill-opacity=".7"/><path d="M163.851 6.364V370H86.969V79.34h-2.13l-83.275 52.2V63.359L91.586 6.364h72.265zm217.996-4.972c18.702 0 36.695 3.137 53.977 9.41 17.401 6.274 32.907 16.277 46.52 30.008 13.731 13.73 24.562 31.96 32.493 54.687 8.049 22.609 12.133 50.367 12.251 83.274 0 30.895-3.492 58.476-10.476 82.742-6.865 24.148-16.749 44.685-29.652 61.612-12.902 16.927-28.468 29.83-46.697 38.707-18.229 8.76-38.589 13.14-61.08 13.14-24.266 0-45.691-4.676-64.275-14.027-18.584-9.47-33.558-22.313-44.922-38.53-11.245-16.335-18.052-34.683-20.419-55.043h75.817c2.959 13.258 9.173 23.556 18.643 30.895 9.47 7.221 21.189 10.831 35.156 10.831 23.675 0 41.667-10.298 53.978-30.895 12.31-20.715 18.525-49.065 18.643-85.05h-2.486c-5.445 10.654-12.784 19.828-22.017 27.522-9.233 7.575-19.827 13.435-31.782 17.578-11.837 4.143-24.444 6.214-37.82 6.214-21.425 0-40.542-5.03-57.351-15.092-16.809-10.062-30.066-23.911-39.773-41.548-9.706-17.638-14.559-37.761-14.559-60.37-.119-24.384 5.504-46.105 16.868-65.163 11.363-19.058 27.225-33.972 47.585-44.744C330.947 6.66 354.74 1.274 381.847 1.392zm.532 60.37c-11.955 0-22.608 2.84-31.96 8.522-9.233 5.682-16.572 13.317-22.017 22.905-5.327 9.588-7.931 20.301-7.812 32.138 0 11.955 2.604 22.727 7.812 32.315 5.327 9.47 12.548 17.046 21.662 22.727 9.233 5.564 19.768 8.345 31.605 8.345 8.878 0 17.105-1.657 24.681-4.971 7.575-3.314 14.145-7.872 19.708-13.672 5.682-5.919 10.121-12.725 13.317-20.419 3.196-7.694 4.794-15.862 4.794-24.503-.118-11.482-2.841-22.017-8.167-31.605-5.327-9.588-12.666-17.282-22.017-23.082-9.352-5.8-19.887-8.7-31.606-8.7zm329.546-60.37c18.703 0 36.695 3.137 53.977 9.41 17.401 6.274 32.907 16.277 46.52 30.008 13.731 13.73 24.562 31.96 32.493 54.687 8.049 22.609 12.133 50.367 12.251 83.274 0 30.895-3.492 58.476-10.476 82.742-6.865 24.148-16.749 44.685-29.651 61.612-12.903 16.927-28.469 29.83-46.698 38.707-18.229 8.76-38.589 13.14-61.079 13.14-24.267 0-45.692-4.676-64.276-14.027-18.584-9.47-33.558-22.313-44.922-38.53-11.245-16.335-18.051-34.683-20.419-55.043h75.817c2.959 13.258 9.174 23.556 18.643 30.895 9.47 7.221 21.189 10.831 35.157 10.831 23.674 0 41.666-10.298 53.977-30.895 12.31-20.715 18.525-49.065 18.643-85.05h-2.486c-5.445 10.654-12.784 19.828-22.017 27.522-9.233 7.575-19.827 13.435-31.782 17.578-11.837 4.143-24.444 6.214-37.82 6.214-21.425 0-40.542-5.03-57.351-15.092-16.808-10.062-30.066-23.911-39.772-41.548-9.707-17.638-14.56-37.761-14.56-60.37-.118-24.384 5.504-46.105 16.868-65.163 11.363-19.058 27.225-33.972 47.585-44.744 20.478-10.89 44.271-16.276 71.378-16.158zm.533 60.37c-11.956 0-22.609 2.84-31.961 8.522-9.233 5.682-16.572 13.317-22.017 22.905-5.326 9.588-7.931 20.301-7.812 32.138 0 11.955 2.604 22.727 7.812 32.315 5.327 9.47 12.548 17.046 21.662 22.727 9.233 5.564 19.768 8.345 31.605 8.345 8.878 0 17.105-1.657 24.681-4.971 7.575-3.314 14.145-7.872 19.709-13.672 5.681-5.919 10.12-12.725 13.316-20.419 3.196-7.694 4.794-15.862 4.794-24.503-.118-11.482-2.841-22.017-8.167-31.605-5.327-9.588-12.666-17.282-22.017-23.082-9.352-5.8-19.887-8.7-31.605-8.7zM904.929 306.08v-60.547L1056.74 6.363h52.2v83.808h-30.89l-95.706 151.455v2.841h215.736v61.613H904.929zM1079.47 370v-82.386l1.42-26.811V6.363h72.09V370h-73.51z" stroke="#9796A5" stroke-opacity=".35" stroke-width="2" mask="url(#a)"/></svg>