<svg width="1181" height="376" fill="none" xmlns="http://www.w3.org/2000/svg"><mask id="a" maskUnits="userSpaceOnUse" x=".865" y=".39" width="1180" height="376" fill="#000"><path fill="#fff" d="M.865.39h1180v376H.865z"/><path d="M164.152 6.364V370H87.27V79.34h-2.13l-83.276 52.2V63.359L91.887 6.364h72.265zm217.996-4.972c18.702 0 36.695 3.137 53.977 9.41 17.4 6.274 32.907 16.277 46.52 30.008 13.731 13.73 24.562 31.96 32.493 54.687 8.049 22.609 12.133 50.367 12.251 83.274 0 30.895-3.492 58.476-10.476 82.742-6.865 24.148-16.749 44.685-29.652 61.612-12.902 16.927-28.468 29.83-46.697 38.707-18.229 8.76-38.589 13.14-61.08 13.14-24.266 0-45.691-4.676-64.275-14.027-18.585-9.47-33.559-22.313-44.922-38.53-11.246-16.335-18.052-34.683-20.419-55.043h75.816c2.96 13.258 9.174 23.556 18.644 30.895 9.47 7.221 21.188 10.831 35.156 10.831 23.674 0 41.667-10.298 53.977-30.895 12.311-20.715 18.526-49.065 18.644-85.05h-2.486c-5.445 10.654-12.784 19.828-22.017 27.522-9.233 7.575-19.827 13.435-31.783 17.578-11.837 4.143-24.443 6.214-37.819 6.214-21.425 0-40.542-5.03-57.351-15.092-16.809-10.062-30.066-23.911-39.773-41.548-9.706-17.638-14.559-37.761-14.559-60.37-.119-24.384 5.504-46.105 16.867-65.163 11.364-19.058 27.226-33.972 47.586-44.744 20.478-10.89 44.271-16.276 71.378-16.158zm.532 60.37c-11.955 0-22.609 2.84-31.96 8.522-9.233 5.682-16.572 13.317-22.017 22.905-5.327 9.588-7.931 20.301-7.813 32.138 0 11.955 2.605 22.727 7.813 32.315 5.327 9.47 12.547 17.046 21.662 22.727 9.233 5.564 19.768 8.345 31.605 8.345 8.878 0 17.105-1.657 24.68-4.971 7.576-3.314 14.146-7.872 19.709-13.672 5.682-5.919 10.121-12.725 13.317-20.419 3.196-7.694 4.794-15.862 4.794-24.503-.118-11.482-2.841-22.017-8.168-31.605-5.326-9.588-12.665-17.282-22.017-23.082-9.351-5.8-19.886-8.7-31.605-8.7zm329.546-60.37c18.702 0 36.695 3.137 53.977 9.41 17.401 6.274 32.907 16.277 46.52 30.008 13.731 13.73 24.562 31.96 32.493 54.687 8.049 22.609 12.133 50.367 12.251 83.274 0 30.895-3.492 58.476-10.476 82.742-6.865 24.148-16.749 44.685-29.652 61.612-12.902 16.927-28.468 29.83-46.697 38.707-18.229 8.76-38.589 13.14-61.08 13.14-24.266 0-45.691-4.676-64.275-14.027-18.585-9.47-33.558-22.313-44.922-38.53-11.245-16.335-18.052-34.683-20.419-55.043h75.817c2.959 13.258 9.173 23.556 18.643 30.895 9.47 7.221 21.189 10.831 35.156 10.831 23.675 0 41.667-10.298 53.978-30.895 12.31-20.715 18.525-49.065 18.643-85.05h-2.486c-5.445 10.654-12.784 19.828-22.017 27.522-9.233 7.575-19.827 13.435-31.782 17.578-11.838 4.143-24.444 6.214-37.82 6.214-21.425 0-40.542-5.03-57.351-15.092-16.809-10.062-30.066-23.911-39.773-41.548-9.706-17.638-14.559-37.761-14.559-60.37-.119-24.384 5.504-46.105 16.868-65.163 11.363-19.058 27.225-33.972 47.585-44.744 20.478-10.89 44.271-16.276 71.378-16.158zm.532 60.37c-11.955 0-22.609 2.84-31.96 8.522-9.233 5.682-16.572 13.317-22.017 22.905-5.327 9.588-7.931 20.301-7.812 32.138 0 11.955 2.604 22.727 7.812 32.315 5.327 9.47 12.547 17.046 21.662 22.727 9.233 5.564 19.768 8.345 31.605 8.345 8.878 0 17.105-1.657 24.681-4.971 7.575-3.314 14.145-7.872 19.708-13.672 5.682-5.919 10.121-12.725 13.317-20.419 3.196-7.694 4.794-15.862 4.794-24.503-.118-11.482-2.841-22.017-8.168-31.605-5.326-9.588-12.665-17.282-22.017-23.082-9.351-5.8-19.886-8.7-31.605-8.7zm330.792 313.21c-25.1 0-47.47-4.617-67.12-13.85-19.531-9.233-35.038-21.958-46.52-38.175-11.482-16.216-17.459-34.801-17.933-55.752h74.574c.829 14.086 6.747 25.509 17.759 34.268 11.01 8.76 24.09 13.139 39.24 13.139 12.07 0 22.72-2.663 31.96-7.99 9.35-5.445 16.63-12.961 21.84-22.55 5.32-9.706 7.99-20.833 7.99-33.38 0-12.784-2.73-24.03-8.17-33.736-5.33-9.706-12.73-17.282-22.2-22.727-9.47-5.445-20.3-8.227-32.49-8.345-10.65 0-21.01 2.189-31.07 6.569-9.94 4.38-17.698 10.358-23.261 17.933l-68.359-12.251L937.013 6.364h222.297v62.855H1000.4l-9.41 91.086h2.131c6.392-8.996 16.039-16.453 28.939-22.372 12.9-5.918 27.35-8.878 43.33-8.878 21.89 0 41.43 5.15 58.59 15.448 17.16 10.298 30.72 24.444 40.66 42.436 9.94 17.874 14.86 38.471 14.74 61.79.12 24.503-5.57 46.283-17.05 65.341-11.36 18.939-27.28 33.854-47.76 44.744-20.36 10.772-44.03 16.158-71.02 16.158z"/></mask><path d="M164.152 6.364V370H87.27V79.34h-2.13l-83.276 52.2V63.359L91.887 6.364h72.265zm217.996-4.972c18.702 0 36.695 3.137 53.977 9.41 17.4 6.274 32.907 16.277 46.52 30.008 13.731 13.73 24.562 31.96 32.493 54.687 8.049 22.609 12.133 50.367 12.251 83.274 0 30.895-3.492 58.476-10.476 82.742-6.865 24.148-16.749 44.685-29.652 61.612-12.902 16.927-28.468 29.83-46.697 38.707-18.229 8.76-38.589 13.14-61.08 13.14-24.266 0-45.691-4.676-64.275-14.027-18.585-9.47-33.559-22.313-44.922-38.53-11.246-16.335-18.052-34.683-20.419-55.043h75.816c2.96 13.258 9.174 23.556 18.644 30.895 9.47 7.221 21.188 10.831 35.156 10.831 23.674 0 41.667-10.298 53.977-30.895 12.311-20.715 18.526-49.065 18.644-85.05h-2.486c-5.445 10.654-12.784 19.828-22.017 27.522-9.233 7.575-19.827 13.435-31.783 17.578-11.837 4.143-24.443 6.214-37.819 6.214-21.425 0-40.542-5.03-57.351-15.092-16.809-10.062-30.066-23.911-39.773-41.548-9.706-17.638-14.559-37.761-14.559-60.37-.119-24.384 5.504-46.105 16.867-65.163 11.364-19.058 27.226-33.972 47.586-44.744 20.478-10.89 44.271-16.276 71.378-16.158zm.532 60.37c-11.955 0-22.609 2.84-31.96 8.522-9.233 5.682-16.572 13.317-22.017 22.905-5.327 9.588-7.931 20.301-7.813 32.138 0 11.955 2.605 22.727 7.813 32.315 5.327 9.47 12.547 17.046 21.662 22.727 9.233 5.564 19.768 8.345 31.605 8.345 8.878 0 17.105-1.657 24.68-4.971 7.576-3.314 14.146-7.872 19.709-13.672 5.682-5.919 10.121-12.725 13.317-20.419 3.196-7.694 4.794-15.862 4.794-24.503-.118-11.482-2.841-22.017-8.168-31.605-5.326-9.588-12.665-17.282-22.017-23.082-9.351-5.8-19.886-8.7-31.605-8.7zm329.546-60.37c18.702 0 36.695 3.137 53.977 9.41 17.401 6.274 32.907 16.277 46.52 30.008 13.731 13.73 24.562 31.96 32.493 54.687 8.049 22.609 12.133 50.367 12.251 83.274 0 30.895-3.492 58.476-10.476 82.742-6.865 24.148-16.749 44.685-29.652 61.612-12.902 16.927-28.468 29.83-46.697 38.707-18.229 8.76-38.589 13.14-61.08 13.14-24.266 0-45.691-4.676-64.275-14.027-18.585-9.47-33.558-22.313-44.922-38.53-11.245-16.335-18.052-34.683-20.419-55.043h75.817c2.959 13.258 9.173 23.556 18.643 30.895 9.47 7.221 21.189 10.831 35.156 10.831 23.675 0 41.667-10.298 53.978-30.895 12.31-20.715 18.525-49.065 18.643-85.05h-2.486c-5.445 10.654-12.784 19.828-22.017 27.522-9.233 7.575-19.827 13.435-31.782 17.578-11.838 4.143-24.444 6.214-37.82 6.214-21.425 0-40.542-5.03-57.351-15.092-16.809-10.062-30.066-23.911-39.773-41.548-9.706-17.638-14.559-37.761-14.559-60.37-.119-24.384 5.504-46.105 16.868-65.163 11.363-19.058 27.225-33.972 47.585-44.744 20.478-10.89 44.271-16.276 71.378-16.158zm.532 60.37c-11.955 0-22.609 2.84-31.96 8.522-9.233 5.682-16.572 13.317-22.017 22.905-5.327 9.588-7.931 20.301-7.812 32.138 0 11.955 2.604 22.727 7.812 32.315 5.327 9.47 12.547 17.046 21.662 22.727 9.233 5.564 19.768 8.345 31.605 8.345 8.878 0 17.105-1.657 24.681-4.971 7.575-3.314 14.145-7.872 19.708-13.672 5.682-5.919 10.121-12.725 13.317-20.419 3.196-7.694 4.794-15.862 4.794-24.503-.118-11.482-2.841-22.017-8.168-31.605-5.326-9.588-12.665-17.282-22.017-23.082-9.351-5.8-19.886-8.7-31.605-8.7zm330.792 313.21c-25.1 0-47.47-4.617-67.12-13.85-19.531-9.233-35.038-21.958-46.52-38.175-11.482-16.216-17.459-34.801-17.933-55.752h74.574c.829 14.086 6.747 25.509 17.759 34.268 11.01 8.76 24.09 13.139 39.24 13.139 12.07 0 22.72-2.663 31.96-7.99 9.35-5.445 16.63-12.961 21.84-22.55 5.32-9.706 7.99-20.833 7.99-33.38 0-12.784-2.73-24.03-8.17-33.736-5.33-9.706-12.73-17.282-22.2-22.727-9.47-5.445-20.3-8.227-32.49-8.345-10.65 0-21.01 2.189-31.07 6.569-9.94 4.38-17.698 10.358-23.261 17.933l-68.359-12.251L937.013 6.364h222.297v62.855H1000.4l-9.41 91.086h2.131c6.392-8.996 16.039-16.453 28.939-22.372 12.9-5.918 27.35-8.878 43.33-8.878 21.89 0 41.43 5.15 58.59 15.448 17.16 10.298 30.72 24.444 40.66 42.436 9.94 17.874 14.86 38.471 14.74 61.79.12 24.503-5.57 46.283-17.05 65.341-11.36 18.939-27.28 33.854-47.76 44.744-20.36 10.772-44.03 16.158-71.02 16.158z" fill="#fff" fill-opacity=".6"/><path d="M164.152 6.364V370H87.27V79.34h-2.13l-83.276 52.2V63.359L91.887 6.364h72.265zm217.996-4.972c18.702 0 36.695 3.137 53.977 9.41 17.4 6.274 32.907 16.277 46.52 30.008 13.731 13.73 24.562 31.96 32.493 54.687 8.049 22.609 12.133 50.367 12.251 83.274 0 30.895-3.492 58.476-10.476 82.742-6.865 24.148-16.749 44.685-29.652 61.612-12.902 16.927-28.468 29.83-46.697 38.707-18.229 8.76-38.589 13.14-61.08 13.14-24.266 0-45.691-4.676-64.275-14.027-18.585-9.47-33.559-22.313-44.922-38.53-11.246-16.335-18.052-34.683-20.419-55.043h75.816c2.96 13.258 9.174 23.556 18.644 30.895 9.47 7.221 21.188 10.831 35.156 10.831 23.674 0 41.667-10.298 53.977-30.895 12.311-20.715 18.526-49.065 18.644-85.05h-2.486c-5.445 10.654-12.784 19.828-22.017 27.522-9.233 7.575-19.827 13.435-31.783 17.578-11.837 4.143-24.443 6.214-37.819 6.214-21.425 0-40.542-5.03-57.351-15.092-16.809-10.062-30.066-23.911-39.773-41.548-9.706-17.638-14.559-37.761-14.559-60.37-.119-24.384 5.504-46.105 16.867-65.163 11.364-19.058 27.226-33.972 47.586-44.744 20.478-10.89 44.271-16.276 71.378-16.158zm.532 60.37c-11.955 0-22.609 2.84-31.96 8.522-9.233 5.682-16.572 13.317-22.017 22.905-5.327 9.588-7.931 20.301-7.813 32.138 0 11.955 2.605 22.727 7.813 32.315 5.327 9.47 12.547 17.046 21.662 22.727 9.233 5.564 19.768 8.345 31.605 8.345 8.878 0 17.105-1.657 24.68-4.971 7.576-3.314 14.146-7.872 19.709-13.672 5.682-5.919 10.121-12.725 13.317-20.419 3.196-7.694 4.794-15.862 4.794-24.503-.118-11.482-2.841-22.017-8.168-31.605-5.326-9.588-12.665-17.282-22.017-23.082-9.351-5.8-19.886-8.7-31.605-8.7zm329.546-60.37c18.702 0 36.695 3.137 53.977 9.41 17.401 6.274 32.907 16.277 46.52 30.008 13.731 13.73 24.562 31.96 32.493 54.687 8.049 22.609 12.133 50.367 12.251 83.274 0 30.895-3.492 58.476-10.476 82.742-6.865 24.148-16.749 44.685-29.652 61.612-12.902 16.927-28.468 29.83-46.697 38.707-18.229 8.76-38.589 13.14-61.08 13.14-24.266 0-45.691-4.676-64.275-14.027-18.585-9.47-33.558-22.313-44.922-38.53-11.245-16.335-18.052-34.683-20.419-55.043h75.817c2.959 13.258 9.173 23.556 18.643 30.895 9.47 7.221 21.189 10.831 35.156 10.831 23.675 0 41.667-10.298 53.978-30.895 12.31-20.715 18.525-49.065 18.643-85.05h-2.486c-5.445 10.654-12.784 19.828-22.017 27.522-9.233 7.575-19.827 13.435-31.782 17.578-11.838 4.143-24.444 6.214-37.82 6.214-21.425 0-40.542-5.03-57.351-15.092-16.809-10.062-30.066-23.911-39.773-41.548-9.706-17.638-14.559-37.761-14.559-60.37-.119-24.384 5.504-46.105 16.868-65.163 11.363-19.058 27.225-33.972 47.585-44.744 20.478-10.89 44.271-16.276 71.378-16.158zm.532 60.37c-11.955 0-22.609 2.84-31.96 8.522-9.233 5.682-16.572 13.317-22.017 22.905-5.327 9.588-7.931 20.301-7.812 32.138 0 11.955 2.604 22.727 7.812 32.315 5.327 9.47 12.547 17.046 21.662 22.727 9.233 5.564 19.768 8.345 31.605 8.345 8.878 0 17.105-1.657 24.681-4.971 7.575-3.314 14.145-7.872 19.708-13.672 5.682-5.919 10.121-12.725 13.317-20.419 3.196-7.694 4.794-15.862 4.794-24.503-.118-11.482-2.841-22.017-8.168-31.605-5.326-9.588-12.665-17.282-22.017-23.082-9.351-5.8-19.886-8.7-31.605-8.7zm330.792 313.21c-25.1 0-47.47-4.617-67.12-13.85-19.531-9.233-35.038-21.958-46.52-38.175-11.482-16.216-17.459-34.801-17.933-55.752h74.574c.829 14.086 6.747 25.509 17.759 34.268 11.01 8.76 24.09 13.139 39.24 13.139 12.07 0 22.72-2.663 31.96-7.99 9.35-5.445 16.63-12.961 21.84-22.55 5.32-9.706 7.99-20.833 7.99-33.38 0-12.784-2.73-24.03-8.17-33.736-5.33-9.706-12.73-17.282-22.2-22.727-9.47-5.445-20.3-8.227-32.49-8.345-10.65 0-21.01 2.189-31.07 6.569-9.94 4.38-17.698 10.358-23.261 17.933l-68.359-12.251L937.013 6.364h222.297v62.855H1000.4l-9.41 91.086h2.131c6.392-8.996 16.039-16.453 28.939-22.372 12.9-5.918 27.35-8.878 43.33-8.878 21.89 0 41.43 5.15 58.59 15.448 17.16 10.298 30.72 24.444 40.66 42.436 9.94 17.874 14.86 38.471 14.74 61.79.12 24.503-5.57 46.283-17.05 65.341-11.36 18.939-27.28 33.854-47.76 44.744-20.36 10.772-44.03 16.158-71.02 16.158z" stroke="#9796A5" stroke-opacity=".15" stroke-width="2" mask="url(#a)"/></svg>