<svg width="1188" height="376" fill="none" xmlns="http://www.w3.org/2000/svg"><mask id="a" maskUnits="userSpaceOnUse" x=".959" y=".39" width="1187" height="376" fill="#000"><path fill="#fff" d="M.959.39h1187v376H.959z"/><path d="M164.246 6.364V370H87.364V79.34h-2.13l-83.276 52.2V63.359L91.98 6.364h72.266zm217.995-4.972c18.703 0 36.695 3.137 53.978 9.41 17.4 6.274 32.907 16.277 46.519 30.008 13.732 13.73 24.563 31.96 32.493 54.687 8.05 22.609 12.133 50.367 12.252 83.274 0 30.895-3.492 58.476-10.476 82.742-6.866 24.148-16.75 44.685-29.652 61.612-12.903 16.927-28.468 29.83-46.697 38.707-18.23 8.76-38.59 13.14-61.08 13.14-24.266 0-45.691-4.676-64.276-14.027-18.584-9.47-33.558-22.313-44.922-38.53-11.245-16.335-18.051-34.683-20.419-55.043h75.817c2.96 13.258 9.174 23.556 18.644 30.895 9.469 7.221 21.188 10.831 35.156 10.831 23.674 0 41.667-10.298 53.977-30.895 12.311-20.715 18.525-49.065 18.644-85.05h-2.486c-5.445 10.654-12.784 19.828-22.017 27.522-9.233 7.575-19.827 13.435-31.783 17.578-11.837 4.143-24.443 6.214-37.819 6.214-21.426 0-40.543-5.03-57.351-15.092-16.809-10.062-30.067-23.911-39.773-41.548-9.706-17.638-14.56-37.761-14.56-60.37-.118-24.384 5.505-46.105 16.868-65.163 11.364-19.058 27.226-33.972 47.585-44.744 20.479-10.89 44.271-16.276 71.378-16.158zm.533 60.37c-11.956 0-22.609 2.84-31.96 8.522-9.233 5.682-16.572 13.317-22.017 22.905-5.327 9.588-7.931 20.301-7.813 32.138 0 11.955 2.604 22.727 7.813 32.315 5.326 9.47 12.547 17.046 21.662 22.727 9.233 5.564 19.768 8.345 31.605 8.345 8.878 0 17.104-1.657 24.68-4.971 7.576-3.314 14.145-7.872 19.709-13.672 5.682-5.919 10.121-12.725 13.317-20.419 3.196-7.694 4.794-15.862 4.794-24.503-.119-11.482-2.841-22.017-8.168-31.605-5.327-9.588-12.666-17.282-22.017-23.082-9.351-5.8-19.886-8.7-31.605-8.7zm329.545-60.37c18.703 0 36.695 3.137 53.978 9.41 17.4 6.274 32.907 16.277 46.52 30.008 13.731 13.73 24.562 31.96 32.493 54.687 8.049 22.609 12.133 50.367 12.251 83.274 0 30.895-3.492 58.476-10.476 82.742-6.865 24.148-16.749 44.685-29.652 61.612-12.902 16.927-28.468 29.83-46.697 38.707-18.23 8.76-38.589 13.14-61.08 13.14-24.266 0-45.691-4.676-64.276-14.027-18.584-9.47-33.558-22.313-44.921-38.53-11.246-16.335-18.052-34.683-20.419-55.043h75.816c2.96 13.258 9.174 23.556 18.644 30.895 9.47 7.221 21.188 10.831 35.156 10.831 23.674 0 41.667-10.298 53.977-30.895 12.311-20.715 18.525-49.065 18.644-85.05h-2.486c-5.445 10.654-12.784 19.828-22.017 27.522-9.233 7.575-19.827 13.435-31.783 17.578-11.837 4.143-24.443 6.214-37.819 6.214-21.425 0-40.542-5.03-57.351-15.092-16.809-10.062-30.066-23.911-39.773-41.548-9.706-17.638-14.56-37.761-14.56-60.37-.118-24.384 5.505-46.105 16.868-65.163 11.364-19.058 27.226-33.972 47.586-44.744 20.478-10.89 44.27-16.276 71.377-16.158zm.533 60.37c-11.955 0-22.609 2.84-31.96 8.522-9.233 5.682-16.572 13.317-22.017 22.905-5.327 9.588-7.931 20.301-7.813 32.138 0 11.955 2.604 22.727 7.813 32.315 5.327 9.47 12.547 17.046 21.662 22.727 9.233 5.564 19.768 8.345 31.605 8.345 8.878 0 17.105-1.657 24.68-4.971 7.576-3.314 14.146-7.872 19.709-13.672 5.682-5.919 10.121-12.725 13.317-20.419 3.196-7.694 4.794-15.862 4.794-24.503-.119-11.482-2.841-22.017-8.168-31.605-5.326-9.588-12.665-17.282-22.017-23.082-9.351-5.8-19.886-8.7-31.605-8.7zm337.538 313.21c-18.71-.119-36.76-3.256-54.157-9.411-17.282-6.155-32.789-16.158-46.52-30.007-13.731-13.849-24.621-32.197-32.671-55.043-7.93-22.845-11.896-50.899-11.896-84.162.118-30.539 3.61-57.824 10.476-81.853 6.984-24.148 16.927-44.626 29.83-61.435 13.02-16.809 28.586-29.593 46.697-38.352 18.111-8.878 38.411-13.317 60.901-13.317 24.27 0 45.69 4.735 64.28 14.205 18.58 9.35 33.5 22.076 44.74 38.174 11.36 16.099 18.23 34.15 20.6 54.155h-75.82c-2.96-12.666-9.17-22.609-18.64-29.83-9.47-7.22-21.19-10.83-35.16-10.83-23.67 0-41.67 10.298-53.976 30.894-12.193 20.597-18.407 48.592-18.644 83.985h2.486c5.445-10.772 12.784-19.946 22.014-27.521 9.35-7.695 19.95-13.554 31.79-17.579 11.95-4.143 24.56-6.214 37.82-6.214 21.54 0 40.72 5.09 57.52 15.27 16.81 10.061 30.07 23.911 39.78 41.548 9.7 17.637 14.56 37.82 14.56 60.547 0 24.621-5.74 46.52-17.23 65.696-11.36 19.176-27.28 34.209-47.76 45.099-20.36 10.772-44.03 16.099-71.02 15.981zm-.36-60.37c11.84 0 22.43-2.841 31.79-8.522 9.35-5.682 16.69-13.376 22.01-23.083 5.33-9.706 7.99-20.596 7.99-32.67 0-12.074-2.66-22.905-7.99-32.493-5.21-9.588-12.43-17.223-21.66-22.905-9.23-5.682-19.77-8.523-31.6-8.523-8.88 0-17.11 1.657-24.69 4.972-7.45 3.314-14.02 7.931-19.7 13.849-5.57 5.919-9.947 12.784-13.143 20.597-3.196 7.694-4.794 15.921-4.794 24.68 0 11.719 2.663 22.432 7.99 32.138 5.447 9.707 12.787 17.46 22.017 23.26 9.35 5.8 19.95 8.7 31.78 8.7z"/></mask><path d="M164.246 6.364V370H87.364V79.34h-2.13l-83.276 52.2V63.359L91.98 6.364h72.266zm217.995-4.972c18.703 0 36.695 3.137 53.978 9.41 17.4 6.274 32.907 16.277 46.519 30.008 13.732 13.73 24.563 31.96 32.493 54.687 8.05 22.609 12.133 50.367 12.252 83.274 0 30.895-3.492 58.476-10.476 82.742-6.866 24.148-16.75 44.685-29.652 61.612-12.903 16.927-28.468 29.83-46.697 38.707-18.23 8.76-38.59 13.14-61.08 13.14-24.266 0-45.691-4.676-64.276-14.027-18.584-9.47-33.558-22.313-44.922-38.53-11.245-16.335-18.051-34.683-20.419-55.043h75.817c2.96 13.258 9.174 23.556 18.644 30.895 9.469 7.221 21.188 10.831 35.156 10.831 23.674 0 41.667-10.298 53.977-30.895 12.311-20.715 18.525-49.065 18.644-85.05h-2.486c-5.445 10.654-12.784 19.828-22.017 27.522-9.233 7.575-19.827 13.435-31.783 17.578-11.837 4.143-24.443 6.214-37.819 6.214-21.426 0-40.543-5.03-57.351-15.092-16.809-10.062-30.067-23.911-39.773-41.548-9.706-17.638-14.56-37.761-14.56-60.37-.118-24.384 5.505-46.105 16.868-65.163 11.364-19.058 27.226-33.972 47.585-44.744 20.479-10.89 44.271-16.276 71.378-16.158zm.533 60.37c-11.956 0-22.609 2.84-31.96 8.522-9.233 5.682-16.572 13.317-22.017 22.905-5.327 9.588-7.931 20.301-7.813 32.138 0 11.955 2.604 22.727 7.813 32.315 5.326 9.47 12.547 17.046 21.662 22.727 9.233 5.564 19.768 8.345 31.605 8.345 8.878 0 17.104-1.657 24.68-4.971 7.576-3.314 14.145-7.872 19.709-13.672 5.682-5.919 10.121-12.725 13.317-20.419 3.196-7.694 4.794-15.862 4.794-24.503-.119-11.482-2.841-22.017-8.168-31.605-5.327-9.588-12.666-17.282-22.017-23.082-9.351-5.8-19.886-8.7-31.605-8.7zm329.545-60.37c18.703 0 36.695 3.137 53.978 9.41 17.4 6.274 32.907 16.277 46.52 30.008 13.731 13.73 24.562 31.96 32.493 54.687 8.049 22.609 12.133 50.367 12.251 83.274 0 30.895-3.492 58.476-10.476 82.742-6.865 24.148-16.749 44.685-29.652 61.612-12.902 16.927-28.468 29.83-46.697 38.707-18.23 8.76-38.589 13.14-61.08 13.14-24.266 0-45.691-4.676-64.276-14.027-18.584-9.47-33.558-22.313-44.921-38.53-11.246-16.335-18.052-34.683-20.419-55.043h75.816c2.96 13.258 9.174 23.556 18.644 30.895 9.47 7.221 21.188 10.831 35.156 10.831 23.674 0 41.667-10.298 53.977-30.895 12.311-20.715 18.525-49.065 18.644-85.05h-2.486c-5.445 10.654-12.784 19.828-22.017 27.522-9.233 7.575-19.827 13.435-31.783 17.578-11.837 4.143-24.443 6.214-37.819 6.214-21.425 0-40.542-5.03-57.351-15.092-16.809-10.062-30.066-23.911-39.773-41.548-9.706-17.638-14.56-37.761-14.56-60.37-.118-24.384 5.505-46.105 16.868-65.163 11.364-19.058 27.226-33.972 47.586-44.744 20.478-10.89 44.27-16.276 71.377-16.158zm.533 60.37c-11.955 0-22.609 2.84-31.96 8.522-9.233 5.682-16.572 13.317-22.017 22.905-5.327 9.588-7.931 20.301-7.813 32.138 0 11.955 2.604 22.727 7.813 32.315 5.327 9.47 12.547 17.046 21.662 22.727 9.233 5.564 19.768 8.345 31.605 8.345 8.878 0 17.105-1.657 24.68-4.971 7.576-3.314 14.146-7.872 19.709-13.672 5.682-5.919 10.121-12.725 13.317-20.419 3.196-7.694 4.794-15.862 4.794-24.503-.119-11.482-2.841-22.017-8.168-31.605-5.326-9.588-12.665-17.282-22.017-23.082-9.351-5.8-19.886-8.7-31.605-8.7zm337.538 313.21c-18.71-.119-36.76-3.256-54.157-9.411-17.282-6.155-32.789-16.158-46.52-30.007-13.731-13.849-24.621-32.197-32.671-55.043-7.93-22.845-11.896-50.899-11.896-84.162.118-30.539 3.61-57.824 10.476-81.853 6.984-24.148 16.927-44.626 29.83-61.435 13.02-16.809 28.586-29.593 46.697-38.352 18.111-8.878 38.411-13.317 60.901-13.317 24.27 0 45.69 4.735 64.28 14.205 18.58 9.35 33.5 22.076 44.74 38.174 11.36 16.099 18.23 34.15 20.6 54.155h-75.82c-2.96-12.666-9.17-22.609-18.64-29.83-9.47-7.22-21.19-10.83-35.16-10.83-23.67 0-41.67 10.298-53.976 30.894-12.193 20.597-18.407 48.592-18.644 83.985h2.486c5.445-10.772 12.784-19.946 22.014-27.521 9.35-7.695 19.95-13.554 31.79-17.579 11.95-4.143 24.56-6.214 37.82-6.214 21.54 0 40.72 5.09 57.52 15.27 16.81 10.061 30.07 23.911 39.78 41.548 9.7 17.637 14.56 37.82 14.56 60.547 0 24.621-5.74 46.52-17.23 65.696-11.36 19.176-27.28 34.209-47.76 45.099-20.36 10.772-44.03 16.099-71.02 15.981zm-.36-60.37c11.84 0 22.43-2.841 31.79-8.522 9.35-5.682 16.69-13.376 22.01-23.083 5.33-9.706 7.99-20.596 7.99-32.67 0-12.074-2.66-22.905-7.99-32.493-5.21-9.588-12.43-17.223-21.66-22.905-9.23-5.682-19.77-8.523-31.6-8.523-8.88 0-17.11 1.657-24.69 4.972-7.45 3.314-14.02 7.931-19.7 13.849-5.57 5.919-9.947 12.784-13.143 20.597-3.196 7.694-4.794 15.921-4.794 24.68 0 11.719 2.663 22.432 7.99 32.138 5.447 9.707 12.787 17.46 22.017 23.26 9.35 5.8 19.95 8.7 31.78 8.7z" fill="#fff" fill-opacity=".7"/><path d="M164.246 6.364V370H87.364V79.34h-2.13l-83.276 52.2V63.359L91.98 6.364h72.266zm217.995-4.972c18.703 0 36.695 3.137 53.978 9.41 17.4 6.274 32.907 16.277 46.519 30.008 13.732 13.73 24.563 31.96 32.493 54.687 8.05 22.609 12.133 50.367 12.252 83.274 0 30.895-3.492 58.476-10.476 82.742-6.866 24.148-16.75 44.685-29.652 61.612-12.903 16.927-28.468 29.83-46.697 38.707-18.23 8.76-38.59 13.14-61.08 13.14-24.266 0-45.691-4.676-64.276-14.027-18.584-9.47-33.558-22.313-44.922-38.53-11.245-16.335-18.051-34.683-20.419-55.043h75.817c2.96 13.258 9.174 23.556 18.644 30.895 9.469 7.221 21.188 10.831 35.156 10.831 23.674 0 41.667-10.298 53.977-30.895 12.311-20.715 18.525-49.065 18.644-85.05h-2.486c-5.445 10.654-12.784 19.828-22.017 27.522-9.233 7.575-19.827 13.435-31.783 17.578-11.837 4.143-24.443 6.214-37.819 6.214-21.426 0-40.543-5.03-57.351-15.092-16.809-10.062-30.067-23.911-39.773-41.548-9.706-17.638-14.56-37.761-14.56-60.37-.118-24.384 5.505-46.105 16.868-65.163 11.364-19.058 27.226-33.972 47.585-44.744 20.479-10.89 44.271-16.276 71.378-16.158zm.533 60.37c-11.956 0-22.609 2.84-31.96 8.522-9.233 5.682-16.572 13.317-22.017 22.905-5.327 9.588-7.931 20.301-7.813 32.138 0 11.955 2.604 22.727 7.813 32.315 5.326 9.47 12.547 17.046 21.662 22.727 9.233 5.564 19.768 8.345 31.605 8.345 8.878 0 17.104-1.657 24.68-4.971 7.576-3.314 14.145-7.872 19.709-13.672 5.682-5.919 10.121-12.725 13.317-20.419 3.196-7.694 4.794-15.862 4.794-24.503-.119-11.482-2.841-22.017-8.168-31.605-5.327-9.588-12.666-17.282-22.017-23.082-9.351-5.8-19.886-8.7-31.605-8.7zm329.545-60.37c18.703 0 36.695 3.137 53.978 9.41 17.4 6.274 32.907 16.277 46.52 30.008 13.731 13.73 24.562 31.96 32.493 54.687 8.049 22.609 12.133 50.367 12.251 83.274 0 30.895-3.492 58.476-10.476 82.742-6.865 24.148-16.749 44.685-29.652 61.612-12.902 16.927-28.468 29.83-46.697 38.707-18.23 8.76-38.589 13.14-61.08 13.14-24.266 0-45.691-4.676-64.276-14.027-18.584-9.47-33.558-22.313-44.921-38.53-11.246-16.335-18.052-34.683-20.419-55.043h75.816c2.96 13.258 9.174 23.556 18.644 30.895 9.47 7.221 21.188 10.831 35.156 10.831 23.674 0 41.667-10.298 53.977-30.895 12.311-20.715 18.525-49.065 18.644-85.05h-2.486c-5.445 10.654-12.784 19.828-22.017 27.522-9.233 7.575-19.827 13.435-31.783 17.578-11.837 4.143-24.443 6.214-37.819 6.214-21.425 0-40.542-5.03-57.351-15.092-16.809-10.062-30.066-23.911-39.773-41.548-9.706-17.638-14.56-37.761-14.56-60.37-.118-24.384 5.505-46.105 16.868-65.163 11.364-19.058 27.226-33.972 47.586-44.744 20.478-10.89 44.27-16.276 71.377-16.158zm.533 60.37c-11.955 0-22.609 2.84-31.96 8.522-9.233 5.682-16.572 13.317-22.017 22.905-5.327 9.588-7.931 20.301-7.813 32.138 0 11.955 2.604 22.727 7.813 32.315 5.327 9.47 12.547 17.046 21.662 22.727 9.233 5.564 19.768 8.345 31.605 8.345 8.878 0 17.105-1.657 24.68-4.971 7.576-3.314 14.146-7.872 19.709-13.672 5.682-5.919 10.121-12.725 13.317-20.419 3.196-7.694 4.794-15.862 4.794-24.503-.119-11.482-2.841-22.017-8.168-31.605-5.326-9.588-12.665-17.282-22.017-23.082-9.351-5.8-19.886-8.7-31.605-8.7zm337.538 313.21c-18.71-.119-36.76-3.256-54.157-9.411-17.282-6.155-32.789-16.158-46.52-30.007-13.731-13.849-24.621-32.197-32.671-55.043-7.93-22.845-11.896-50.899-11.896-84.162.118-30.539 3.61-57.824 10.476-81.853 6.984-24.148 16.927-44.626 29.83-61.435 13.02-16.809 28.586-29.593 46.697-38.352 18.111-8.878 38.411-13.317 60.901-13.317 24.27 0 45.69 4.735 64.28 14.205 18.58 9.35 33.5 22.076 44.74 38.174 11.36 16.099 18.23 34.15 20.6 54.155h-75.82c-2.96-12.666-9.17-22.609-18.64-29.83-9.47-7.22-21.19-10.83-35.16-10.83-23.67 0-41.67 10.298-53.976 30.894-12.193 20.597-18.407 48.592-18.644 83.985h2.486c5.445-10.772 12.784-19.946 22.014-27.521 9.35-7.695 19.95-13.554 31.79-17.579 11.95-4.143 24.56-6.214 37.82-6.214 21.54 0 40.72 5.09 57.52 15.27 16.81 10.061 30.07 23.911 39.78 41.548 9.7 17.637 14.56 37.82 14.56 60.547 0 24.621-5.74 46.52-17.23 65.696-11.36 19.176-27.28 34.209-47.76 45.099-20.36 10.772-44.03 16.099-71.02 15.981zm-.36-60.37c11.84 0 22.43-2.841 31.79-8.522 9.35-5.682 16.69-13.376 22.01-23.083 5.33-9.706 7.99-20.596 7.99-32.67 0-12.074-2.66-22.905-7.99-32.493-5.21-9.588-12.43-17.223-21.66-22.905-9.23-5.682-19.77-8.523-31.6-8.523-8.88 0-17.11 1.657-24.69 4.972-7.45 3.314-14.02 7.931-19.7 13.849-5.57 5.919-9.947 12.784-13.143 20.597-3.196 7.694-4.794 15.921-4.794 24.68 0 11.719 2.663 22.432 7.99 32.138 5.447 9.707 12.787 17.46 22.017 23.26 9.35 5.8 19.95 8.7 31.78 8.7z" stroke="#9796A5" stroke-opacity=".35" stroke-width="2" mask="url(#a)"/></svg>