<svg width="1144" height="374" fill="none" xmlns="http://www.w3.org/2000/svg"><path d="M162.486 5.364V369H85.604V78.34h-2.13L.198 130.54V62.359L90.221 5.364h72.265zM380.482.392c18.702 0 36.695 3.137 53.977 9.41 17.4 6.274 32.907 16.277 46.52 30.008 13.731 13.73 24.562 31.96 32.493 54.687 8.049 22.609 12.133 50.367 12.251 83.274 0 30.895-3.492 58.476-10.476 82.742-6.865 24.148-16.749 44.685-29.652 61.612-12.902 16.927-28.468 29.83-46.697 38.707-18.229 8.76-38.589 13.14-61.08 13.14-24.266 0-45.691-4.676-64.275-14.027-18.585-9.47-33.559-22.313-44.922-38.53-11.246-16.335-18.052-34.683-20.419-55.043h75.816c2.96 13.258 9.174 23.556 18.644 30.895 9.47 7.221 21.188 10.831 35.156 10.831 23.674 0 41.667-10.298 53.977-30.895 12.311-20.715 18.526-49.065 18.644-85.05h-2.486c-5.445 10.654-12.784 19.828-22.017 27.522-9.233 7.575-19.827 13.435-31.783 17.578-11.837 4.143-24.443 6.214-37.819 6.214-21.425 0-40.542-5.03-57.351-15.092-16.809-10.062-30.066-23.911-39.773-41.548-9.706-17.638-14.559-37.761-14.559-60.37-.119-24.384 5.504-46.105 16.867-65.163 11.364-19.058 27.226-33.972 47.586-44.744C329.582 5.66 353.375.274 380.482.392zm.532 60.37c-11.955 0-22.609 2.84-31.96 8.522-9.233 5.682-16.572 13.317-22.017 22.905-5.327 9.588-7.931 20.301-7.813 32.138 0 11.955 2.605 22.727 7.813 32.315 5.327 9.47 12.547 17.045 21.662 22.727 9.233 5.564 19.768 8.345 31.605 8.345 8.878 0 17.105-1.657 24.68-4.971 7.576-3.315 14.146-7.872 19.709-13.672 5.682-5.919 10.121-12.725 13.317-20.419 3.196-7.694 4.794-15.862 4.794-24.503-.118-11.482-2.841-22.017-8.168-31.605-5.326-9.588-12.665-17.282-22.017-23.082-9.351-5.8-19.886-8.7-31.605-8.7zM710.56.391c18.702 0 36.695 3.137 53.977 9.41 17.401 6.274 32.907 16.277 46.52 30.008 13.731 13.73 24.562 31.96 32.493 54.687 8.049 22.609 12.133 50.367 12.251 83.274 0 30.895-3.492 58.476-10.476 82.742-6.865 24.148-16.749 44.685-29.652 61.612-12.902 16.927-28.468 29.83-46.697 38.707-18.229 8.76-38.589 13.14-61.08 13.14-24.266 0-45.691-4.676-64.275-14.027-18.585-9.47-33.558-22.313-44.922-38.53-11.245-16.335-18.052-34.683-20.419-55.043h75.817c2.959 13.258 9.173 23.556 18.643 30.895 9.47 7.221 21.189 10.831 35.156 10.831 23.675 0 41.667-10.298 53.978-30.895 12.31-20.715 18.525-49.065 18.643-85.05h-2.486c-5.445 10.654-12.784 19.828-22.017 27.522-9.233 7.575-19.827 13.435-31.782 17.578-11.838 4.143-24.444 6.214-37.82 6.214-21.425 0-40.542-5.03-57.351-15.092-16.809-10.062-30.066-23.911-39.773-41.548-9.706-17.638-14.559-37.761-14.559-60.37-.119-24.384 5.504-46.105 16.868-65.163 11.363-19.058 27.225-33.972 47.585-44.744C659.66 5.66 683.453.274 710.56.392zm.532 60.37c-11.955 0-22.609 2.84-31.96 8.522-9.233 5.682-16.572 13.317-22.017 22.905-5.327 9.588-7.931 20.301-7.812 32.138 0 11.955 2.604 22.727 7.812 32.315 5.327 9.47 12.547 17.045 21.662 22.727 9.233 5.564 19.768 8.345 31.605 8.345 8.878 0 17.105-1.657 24.68-4.971 7.576-3.315 14.146-7.872 19.709-13.672 5.682-5.919 10.121-12.725 13.317-20.419 3.196-7.694 4.794-15.862 4.794-24.503-.118-11.482-2.841-22.017-8.168-31.605-5.326-9.588-12.665-17.282-22.017-23.082-9.351-5.8-19.886-8.7-31.605-8.7zM913.685 369L1064.43 70.704V68.22H888.827V5.364h255.153v63.742L993.053 369h-79.368z" fill="#fff" fill-opacity=".6"/><path d="M162.486 5.364h1v-1h-1v1zm0 363.636v1h1v-1h-1zm-76.882 0h-1v1h1v-1zm0-290.66h1v-1h-1v1zm-2.13 0v-1h-.288l-.244.152.531.847zM.198 130.54h-1v1.807l1.531-.96-.53-.847zm0-68.182l-.535-.845-.465.295v.55h1zM90.221 5.364v-1h-.29l-.245.155.534.845zm71.265 0V369h2V5.364h-2zm1 362.636H85.604v2h76.882v-2zm-75.882 1V78.34h-2V369h2zm-1-291.66h-2.13v2h2.13v-2zm-2.662.152L-.332 129.694l1.062 1.694 83.274-52.201-1.062-1.695zM1.2 130.541V62.359h-2v68.182h2zM.734 63.204L90.756 6.21l-1.07-1.69L-.336 61.514l1.07 1.69zm89.487-56.84h72.265v-2H90.221v2zM380.482.392l-.005 1h.005v-1zm53.977 9.41l-.341.94.002.001.339-.94zm46.52 30.008l-.71.704.003.003.707-.707zm32.493 54.687l-.945.33.003.006.942-.336zm12.251 83.274h1v-.003l-1 .003zm-10.476 82.742l-.961-.277-.001.003.962.274zm-29.652 61.612l.795.606-.795-.606zm-46.697 38.707l.433.902.005-.003-.438-.899zm-125.355-.887l-.454.891.004.002.45-.893zm-44.922-38.53l-.824.567.005.007.819-.574zm-20.419-55.043v-1h-1.123l.129 1.116.994-.116zm75.816 0l.976-.218-.174-.782h-.802v1zm18.644 30.895l-.613.79.007.005.606-.795zm89.133-20.064l.859.513.001-.002-.86-.511zm18.644-85.05l1 .004.003-1.004h-1.003v1zm-2.486 0v-1h-.612l-.278.545.89.455zm-22.017 27.522l.634.773.006-.005-.64-.768zm-31.783 17.578l-.327-.945-.003.001.33.944zm-95.17-8.878l-.514.858.514-.858zm-39.773-41.548l-.876.482.876-.482zm-14.559-60.37h1v-.004l-1 .004zm16.867-65.163l.859.512-.859-.512zm47.586-44.744l.467.884.002-.001-.469-.883zm39.95 52.734l-.519-.855-.005.003.524.852zM327.037 92.19l-.87-.494-.004.008.874.486zm-7.813 32.138h1v-.01l-1 .01zm7.813 32.315l-.879.477.004.007.003.006.872-.49zm21.662 22.727l-.529.849.006.004.007.004.516-.857zm56.285 3.374l-.4-.916.4.916zm19.709-13.672l-.721-.693v.001l.721.692zm13.317-20.419l.923.384-.923-.384zm4.794-24.503h1v-.01l-1 .01zm-8.168-31.605l.875-.486-.875.486zm-22.017-23.082l.527-.85-.527.85zm-32.137-68.07c18.588 0 36.465 3.117 53.636 9.35l.682-1.88c-17.393-6.314-35.501-9.47-54.318-9.47v2zm53.638 9.351c17.254 6.221 32.636 16.14 46.149 29.77l1.42-1.407c-13.713-13.832-29.344-23.918-46.891-30.244l-.678 1.881zm46.152 29.774c13.602 13.602 24.363 31.691 32.255 54.31l1.889-.66c-7.969-22.835-18.87-41.205-32.73-55.065l-1.414 1.415zm32.258 54.316c8 22.471 12.075 50.109 12.193 82.942l2-.007c-.119-32.982-4.211-60.859-12.309-83.606l-1.884.67zm12.193 82.938c0 30.822-3.484 58.306-10.437 82.465l1.922.553c7.015-24.373 10.515-52.049 10.515-83.018h-2zm-10.438 82.468c-6.837 24.049-16.671 44.468-29.485 61.28l1.59 1.212c12.991-17.043 22.925-37.698 29.819-61.945l-1.924-.547zM484.8 321.52c-12.813 16.809-28.258 29.608-46.34 38.414l.876 1.798c18.376-8.949 34.062-21.955 47.054-39l-1.59-1.212zm-46.335 38.412c-18.08 8.688-38.289 13.041-60.647 13.041v2c22.624 0 43.134-4.407 61.513-13.238l-.866-1.803zm-60.647 13.041c-24.136 0-45.403-4.65-63.826-13.921l-.899 1.787c18.745 9.432 40.329 14.134 64.725 14.134v-2zm-63.821-13.918c-18.447-9.4-33.293-22.137-44.557-38.213l-1.638 1.148c11.462 16.358 26.565 29.307 45.287 38.847l.908-1.782zm-44.553-38.206c-11.149-16.196-17.9-34.388-20.249-54.591l-1.987.231c2.386 20.516 9.248 39.02 20.589 55.494l1.647-1.134zm-21.242-53.476h75.816v-2h-75.816v2zm74.84-.782c3.003 13.453 9.329 23.967 19.007 31.467l1.226-1.58c-9.262-7.178-15.365-17.26-18.281-30.323l-1.952.436zm19.014 31.472c9.672 7.376 21.615 11.036 35.762 11.036v-2c-13.788 0-25.283-3.56-34.55-10.626l-1.212 1.59zm35.762 11.036c24.032 0 42.348-10.488 54.836-31.382l-1.717-1.026c-12.133 20.3-29.802 30.408-53.119 30.408v2zm54.837-31.384c12.436-20.926 18.665-49.476 18.784-85.557l-2-.007c-.118 35.888-6.318 64.039-18.503 84.542l1.719 1.022zm17.784-86.561h-2.486v2h2.486v-2zm-3.376.545c-5.384 10.533-12.637 19.6-21.767 27.208l1.28 1.537c9.336-7.78 16.761-17.06 22.268-27.834l-1.781-.911zm-21.761 27.204c-9.137 7.496-19.625 13.299-31.476 17.406l.655 1.89c12.06-4.18 22.76-10.095 32.089-17.75l-1.268-1.546zm-31.479 17.407c-11.724 4.103-24.218 6.158-37.489 6.158v2c13.481 0 26.2-2.088 38.15-6.27l-.661-1.888zm-37.489 6.158c-21.262 0-40.198-4.99-56.837-14.95l-1.028 1.716c16.979 10.163 36.276 15.234 57.865 15.234v-2zm-56.837-14.95c-16.653-9.968-29.787-23.686-39.411-41.172l-1.752.964c9.79 17.788 23.17 31.769 40.135 41.924l1.028-1.716zm-39.411-41.172c-9.615-17.473-14.435-37.426-14.435-59.888h-2c0 22.757 4.886 43.049 14.683 60.852l1.752-.964zm-14.435-59.892c-.118-24.222 5.465-45.76 16.726-64.647l-1.717-1.024c-11.466 19.23-17.129 41.132-17.009 65.68l2-.009zm16.726-64.647c11.266-18.894 26.99-33.683 47.194-44.372l-.935-1.768C288.121 26.52 272.121 41.56 260.66 60.782l1.717 1.024zm47.196-44.373c20.31-10.8 43.934-16.159 70.904-16.041l.009-2c-27.244-.119-51.205 5.295-71.852 16.275l.939 1.766zm71.441 42.328c-12.121 0-22.957 2.883-32.479 8.669l1.038 1.709c9.181-5.578 19.651-8.378 31.441-8.378v-2zm-32.484 8.671c-9.379 5.772-16.836 13.531-22.363 23.263l1.739.988c5.364-9.445 12.585-16.955 21.672-22.547l-1.048-1.704zm-22.367 23.271c-5.418 9.752-8.058 20.637-7.939 32.634l2-.02c-.116-11.678 2.451-22.218 7.687-31.642l-1.748-.972zm-7.939 32.624c0 12.106 2.639 23.044 7.934 32.792l1.758-.954c-5.122-9.428-7.692-20.033-7.692-31.838h-2zm7.941 32.805c5.408 9.615 12.746 17.314 22.005 23.086l1.058-1.697c-8.971-5.592-16.074-13.044-21.319-22.369l-1.744.98zm22.018 23.094c9.404 5.666 20.12 8.488 32.121 8.488v-2c-11.674 0-22.027-2.741-31.089-8.201l-1.032 1.713zm32.121 8.488c9.005 0 17.37-1.681 25.081-5.055l-.801-1.832c-7.441 3.255-15.53 4.887-24.28 4.887v2zm25.081-5.055c7.693-3.366 14.373-7.998 20.03-13.896l-1.443-1.384c-5.47 5.702-11.93 10.185-19.388 13.448l.801 1.832zm20.03-13.895c5.769-6.01 10.276-12.921 13.518-20.728l-1.847-.768c-3.149 7.582-7.52 14.283-13.114 20.11l1.443 1.386zm13.518-20.728c3.249-7.821 4.871-16.119 4.871-24.887h-2c0 8.515-1.574 16.551-4.718 24.119l1.847.768zm4.871-24.897c-.12-11.641-2.882-22.34-8.293-32.08l-1.749.97c5.242 9.436 7.925 19.807 8.042 31.13l2-.02zm-8.293-32.08c-5.41-9.738-12.869-17.557-22.365-23.447l-1.054 1.7c9.207 5.71 16.427 13.28 21.67 22.718l1.749-.972zm-22.365-23.447c-9.52-5.905-20.239-8.85-32.132-8.85v2c11.545 0 21.896 2.854 31.078 8.55l1.054-1.7zM710.56.392l-.005 1h.005v-1zm53.977 9.41l-.341.94.002.001.339-.94zm46.52 30.008l-.71.704.003.003.707-.707zm32.493 54.687l-.944.33.002.006.942-.336zm12.251 83.274h1v-.003l-1 .003zm-10.476 82.742l-.961-.277-.001.003.962.274zm-29.652 61.612l.796.606-.796-.606zm-46.697 38.707l.433.902.005-.003-.438-.899zm-125.355-.887l-.454.891.004.002.45-.893zm-44.922-38.53l-.824.567.005.007.819-.574zm-20.419-55.043v-1h-1.123l.13 1.116.993-.116zm75.817 0l.976-.218-.175-.782h-.801v1zm18.643 30.895l-.613.79.007.005.606-.795zm89.134-20.064l.858.513.001-.002-.859-.511zm18.643-85.05l1 .004.003-1.004h-1.003v1zm-2.486 0v-1h-.612l-.278.545.89.455zm-22.017 27.522l.635.773.005-.005-.64-.768zm-31.782 17.578l-.328-.945-.003.001.331.944zm-95.171-8.878l-.514.858.514-.858zm-39.773-41.548l-.876.482.876-.482zm-14.559-60.37h1v-.004l-1 .004zm16.868-65.163l.858.512-.858-.512zm47.585-44.744l.467.884.002-.001-.469-.883zm39.95 52.734l-.519-.855-.005.003.524.852zM657.115 92.19l-.87-.494-.004.008.874.486zm-7.812 32.138h1v-.01l-1 .01zm7.812 32.315l-.879.477.004.007.003.006.872-.49zm21.662 22.727l-.529.849.006.004.007.004.516-.857zm56.285 3.374l-.4-.916.4.916zm19.709-13.672l-.721-.693v.001l.721.692zm13.317-20.419l.924.384-.924-.384zm4.794-24.503h1v-.01l-1 .01zm-8.168-31.605l.875-.486-.875.486zm-22.017-23.082l.528-.85-.528.85zM710.56 1.392c18.588 0 36.465 3.117 53.636 9.35l.682-1.88c-17.393-6.314-35.501-9.47-54.318-9.47v2zm53.638 9.351c17.254 6.221 32.636 16.14 46.149 29.77l1.42-1.407c-13.712-13.832-29.344-23.918-46.891-30.244l-.678 1.881zm46.152 29.774c13.602 13.602 24.363 31.691 32.256 54.31l1.888-.66c-7.969-22.835-18.87-41.205-32.73-55.065l-1.414 1.415zm32.258 54.316c8 22.471 12.075 50.109 12.193 82.942l2-.007c-.118-32.982-4.211-60.859-12.309-83.606l-1.884.67zm12.193 82.938c0 30.822-3.484 58.306-10.437 82.465l1.922.553c7.015-24.373 10.515-52.049 10.515-83.018h-2zm-10.438 82.468c-6.837 24.049-16.671 44.468-29.485 61.28l1.591 1.212c12.99-17.043 22.924-37.698 29.818-61.945l-1.924-.547zm-29.485 61.28c-12.813 16.809-28.258 29.608-46.34 38.414l.876 1.798c18.376-8.949 34.062-21.955 47.055-39l-1.591-1.212zm-46.335 38.412c-18.08 8.688-38.289 13.041-60.647 13.041v2c22.624 0 43.134-4.407 61.513-13.238l-.866-1.803zm-60.647 13.041c-24.136 0-45.402-4.65-63.826-13.921l-.899 1.787c18.745 9.432 40.329 14.134 64.725 14.134v-2zm-63.821-13.918c-18.447-9.4-33.292-22.137-44.557-38.213l-1.638 1.148c11.462 16.358 26.565 29.307 45.287 38.847l.908-1.782zm-44.552-38.206c-11.15-16.196-17.901-34.388-20.25-54.591l-1.986.231c2.385 20.516 9.247 39.02 20.588 55.494l1.648-1.134zm-21.243-53.476h75.817v-2H578.28v2zm74.841-.782c3.002 13.453 9.328 23.967 19.006 31.467l1.226-1.58c-9.261-7.178-15.365-17.26-18.28-30.323l-1.952.436zm19.013 31.472c9.673 7.376 21.615 11.036 35.762 11.036v-2c-13.788 0-25.283-3.56-34.55-10.626l-1.212 1.59zm35.762 11.036c24.032 0 42.348-10.488 54.836-31.382l-1.717-1.026c-12.133 20.3-29.802 30.408-53.119 30.408v2zm54.837-31.384c12.436-20.926 18.665-49.476 18.784-85.557l-2-.007c-.118 35.888-6.318 64.039-18.503 84.542l1.719 1.022zm17.784-86.561h-2.486v2h2.486v-2zm-3.376.545c-5.384 10.533-12.637 19.6-21.767 27.208l1.28 1.537c9.337-7.78 16.761-17.06 22.268-27.834l-1.781-.911zm-21.761 27.204c-9.136 7.496-19.625 13.299-31.476 17.406l.655 1.89c12.06-4.18 22.76-10.095 32.09-17.75l-1.269-1.546zm-31.479 17.407c-11.724 4.103-24.218 6.158-37.489 6.158v2c13.481 0 26.2-2.088 38.15-6.27l-.661-1.888zm-37.489 6.158c-21.262 0-40.198-4.99-56.837-14.95l-1.028 1.716c16.979 10.163 36.276 15.234 57.865 15.234v-2zm-56.837-14.95c-16.653-9.968-29.787-23.686-39.411-41.172l-1.752.964c9.79 17.788 23.17 31.769 40.135 41.924l1.028-1.716zm-39.411-41.172c-9.615-17.473-14.435-37.426-14.435-59.888h-2c0 22.757 4.886 43.049 14.683 60.852l1.752-.964zm-14.435-59.892c-.118-24.222 5.465-45.76 16.726-64.647l-1.717-1.024c-11.466 19.23-17.128 41.132-17.009 65.68l2-.009zm16.726-64.647c11.267-18.894 26.99-33.683 47.194-44.372l-.935-1.768c-20.515 10.854-36.515 25.894-47.976 45.116l1.717 1.024zm47.196-44.373c20.31-10.8 43.935-16.159 70.904-16.041l.009-2c-27.244-.119-51.205 5.295-71.852 16.275l.939 1.766zm71.441 42.328c-12.121 0-22.957 2.883-32.479 8.669l1.038 1.709c9.181-5.578 19.651-8.378 31.441-8.378v-2zm-32.484 8.671c-9.379 5.772-16.836 13.531-22.362 23.263l1.739.988c5.363-9.445 12.584-16.955 21.671-22.547l-1.048-1.704zm-22.367 23.271c-5.418 9.752-8.058 20.637-7.938 32.634l2-.02c-.117-11.678 2.45-22.218 7.686-31.642l-1.748-.972zm-7.938 32.624c0 12.106 2.638 23.044 7.933 32.792l1.758-.954c-5.122-9.428-7.691-20.033-7.691-31.838h-2zm7.94 32.805c5.408 9.615 12.746 17.314 22.005 23.086l1.058-1.697c-8.97-5.592-16.074-13.044-21.319-22.369l-1.744.98zm22.018 23.094c9.404 5.666 20.121 8.488 32.121 8.488v-2c-11.674 0-22.027-2.741-31.089-8.201l-1.032 1.713zm32.121 8.488c9.006 0 17.37-1.681 25.081-5.055l-.801-1.832c-7.441 3.255-15.53 4.887-24.28 4.887v2zm25.081-5.055c7.693-3.366 14.373-7.998 20.03-13.896l-1.443-1.384c-5.47 5.702-11.93 10.185-19.388 13.448l.801 1.832zm20.03-13.895c5.769-6.01 10.276-12.921 13.519-20.728l-1.847-.768c-3.15 7.582-7.521 14.283-13.115 20.11l1.443 1.386zm13.519-20.728c3.248-7.821 4.87-16.119 4.87-24.887h-2c0 8.515-1.574 16.551-4.717 24.119l1.847.768zm4.87-24.897c-.12-11.641-2.882-22.34-8.293-32.08l-1.749.97c5.242 9.436 7.925 19.807 8.042 31.13l2-.02zm-8.293-32.08c-5.41-9.738-12.869-17.557-22.364-23.447l-1.055 1.7c9.207 5.71 16.427 13.28 21.67 22.718l1.749-.972zm-22.364-23.447c-9.52-5.905-20.24-8.85-32.133-8.85v2c11.545 0 21.896 2.854 31.078 8.55l1.055-1.7zM913.685 369l-.893-.451-.733 1.451h1.626v-1zM1064.43 70.704l.89.452.11-.213v-.239h-1zm0-2.485h1v-1h-1v1zm-175.603 0h-1v1h1v-1zm0-62.855v-1h-1v1h1zm255.153 0h1v-1h-1v1zm0 63.742l.89.45.11-.212v-.237h-1zM993.053 369v1h.616l.277-.55-.893-.45zm-78.476.451L1065.32 71.156l-1.78-.903L912.792 368.55l1.785.902zM1065.43 70.704V68.22h-2v2.486h2zm-1-3.485H888.827v2h175.603v-2zm-174.603 1V5.364h-2v62.855h2zm-1-61.855h255.153v-2H888.827v2zm254.153-1v63.742h2V5.364h-2zm.1 63.293L992.159 368.55l1.787.9L1144.87 69.556l-1.79-.899zM993.053 368h-79.368v2h79.368v-2z" fill="#9796A5" fill-opacity=".15"/></svg>