<svg width="1189" height="376" fill="none" xmlns="http://www.w3.org/2000/svg"><mask id="a" maskUnits="userSpaceOnUse" x=".715" y=".39" width="1188" height="376" fill="#000"><path fill="#fff" d="M.715.39h1188v376H.715z"/><path d="M164.002 6.364V370H87.12V79.34h-2.131l-83.274 52.2V63.359L91.736 6.364h72.266zm217.995-4.972c18.703 0 36.695 3.137 53.977 9.41 17.401 6.274 32.908 16.277 46.52 30.008 13.731 13.73 24.562 31.96 32.493 54.687 8.049 22.609 12.133 50.367 12.252 83.274 0 30.895-3.492 58.476-10.476 82.742-6.866 24.148-16.75 44.685-29.652 61.612-12.903 16.927-28.468 29.83-46.698 38.707-18.229 8.76-38.589 13.14-61.079 13.14-24.266 0-45.691-4.676-64.276-14.027-18.584-9.47-33.558-22.313-44.922-38.53-11.245-16.335-18.051-34.683-20.419-55.043h75.817c2.959 13.258 9.174 23.556 18.644 30.895 9.469 7.221 21.188 10.831 35.156 10.831 23.674 0 41.666-10.298 53.977-30.895 12.311-20.715 18.525-49.065 18.644-85.05h-2.486c-5.445 10.654-12.784 19.828-22.017 27.522-9.233 7.575-19.827 13.435-31.783 17.578-11.837 4.143-24.444 6.214-37.82 6.214-21.425 0-40.542-5.03-57.35-15.092-16.809-10.062-30.067-23.911-39.773-41.548-9.707-17.638-14.56-37.761-14.56-60.37-.118-24.384 5.504-46.105 16.868-65.163 11.364-19.058 27.225-33.972 47.585-44.744C331.098 6.66 354.89 1.274 381.997 1.392zm.533 60.37c-11.956 0-22.609 2.84-31.96 8.522-9.233 5.682-16.572 13.317-22.017 22.905-5.327 9.588-7.931 20.301-7.813 32.138 0 11.955 2.604 22.727 7.813 32.315 5.326 9.47 12.547 17.046 21.662 22.727 9.232 5.564 19.767 8.345 31.605 8.345 8.877 0 17.104-1.657 24.68-4.971 7.576-3.314 14.145-7.872 19.709-13.672 5.682-5.919 10.121-12.725 13.317-20.419 3.196-7.694 4.794-15.862 4.794-24.503-.119-11.482-2.841-22.017-8.168-31.605-5.327-9.588-12.666-17.282-22.017-23.082-9.351-5.8-19.886-8.7-31.605-8.7zm329.545-60.37c18.703 0 36.695 3.137 53.978 9.41 17.4 6.274 32.907 16.277 46.519 30.008 13.732 13.73 24.562 31.96 32.493 54.687 8.05 22.609 12.133 50.367 12.252 83.274 0 30.895-3.492 58.476-10.476 82.742-6.866 24.148-16.75 44.685-29.652 61.612-12.903 16.927-28.468 29.83-46.698 38.707-18.229 8.76-38.589 13.14-61.079 13.14-24.266 0-45.691-4.676-64.276-14.027-18.584-9.47-33.558-22.313-44.922-38.53-11.245-16.335-18.051-34.683-20.419-55.043h75.817c2.96 13.258 9.174 23.556 18.644 30.895 9.469 7.221 21.188 10.831 35.156 10.831 23.674 0 41.667-10.298 53.977-30.895 12.311-20.715 18.525-49.065 18.644-85.05h-2.486c-5.445 10.654-12.784 19.828-22.017 27.522-9.233 7.575-19.827 13.435-31.783 17.578-11.837 4.143-24.444 6.214-37.819 6.214-21.426 0-40.543-5.03-57.351-15.092-16.809-10.062-30.067-23.911-39.773-41.548-9.706-17.638-14.56-37.761-14.56-60.37-.118-24.384 5.505-46.105 16.868-65.163 11.364-19.058 27.226-33.972 47.585-44.744 20.479-10.89 44.271-16.276 71.378-16.158zm.533 60.37c-11.956 0-22.609 2.84-31.96 8.522-9.233 5.682-16.572 13.317-22.017 22.905-5.327 9.588-7.931 20.301-7.813 32.138 0 11.955 2.604 22.727 7.813 32.315 5.326 9.47 12.547 17.046 21.662 22.727 9.233 5.564 19.768 8.345 31.605 8.345 8.878 0 17.104-1.657 24.68-4.971 7.576-3.314 14.145-7.872 19.709-13.672 5.682-5.919 10.121-12.725 13.317-20.419 3.196-7.694 4.794-15.862 4.794-24.503-.119-11.482-2.841-22.017-8.168-31.605-5.327-9.588-12.666-17.282-22.017-23.082-9.351-5.8-19.886-8.7-31.605-8.7zm333.632 313.21c-27.35 0-51.672-4.439-72.979-13.317-21.188-8.996-37.819-21.248-49.893-36.754-12.074-15.507-18.111-33.085-18.111-52.735 0-15.151 3.433-29.06 10.298-41.726 6.984-12.784 16.454-23.378 28.409-31.782 11.956-8.523 25.332-13.968 40.128-16.336v-2.485c-19.413-3.907-35.156-13.317-47.23-28.232-12.074-15.033-18.111-32.493-18.111-52.38 0-18.82 5.505-35.57 16.513-50.248 11.009-14.796 26.101-26.396 45.277-34.8 19.295-8.524 41.189-12.785 65.699-12.785 24.5 0 46.34 4.261 65.52 12.784 19.29 8.523 34.44 20.182 45.45 34.979 11.01 14.678 16.57 31.368 16.69 50.07-.12 20.006-6.27 37.465-18.47 52.38-12.19 14.915-27.81 24.325-46.87 28.232v2.485c14.56 2.368 27.76 7.813 39.59 16.336 11.96 8.404 21.43 18.998 28.41 31.782 7.11 12.666 10.72 26.575 10.83 41.726-.11 19.65-6.21 37.228-18.28 52.735-12.08 15.506-28.77 27.758-50.07 36.754-21.19 8.878-45.46 13.317-72.8 13.317zm0-56.463c12.19 0 22.84-2.19 31.96-6.57 9.11-4.498 16.21-10.653 21.3-18.466 5.21-7.931 7.82-17.045 7.82-27.344 0-10.535-2.67-19.827-7.99-27.876-5.33-8.168-12.55-14.56-21.67-19.176-9.11-4.735-19.59-7.103-31.42-7.103-11.72 0-22.2 2.368-31.43 7.103-9.23 4.616-16.513 11.008-21.84 19.176-5.208 8.049-7.812 17.341-7.812 27.876 0 10.299 2.545 19.413 7.635 27.344 5.09 7.813 12.247 13.968 21.487 18.466 9.23 4.38 19.88 6.57 31.96 6.57zm0-162.465c10.18 0 19.23-2.071 27.16-6.214 7.93-4.143 14.15-9.884 18.65-17.223 4.49-7.339 6.74-15.803 6.74-25.391 0-9.47-2.25-17.756-6.74-24.858-4.5-7.22-10.66-12.843-18.47-16.868-7.81-4.143-16.93-6.214-27.34-6.214-10.3 0-19.42 2.071-27.35 6.214-7.93 4.025-14.14 9.647-18.64 16.868-4.38 7.102-6.57 15.388-6.57 24.858 0 9.588 2.249 18.052 6.75 25.391 4.5 7.339 10.71 13.08 18.64 17.223 7.93 4.143 16.99 6.214 27.17 6.214z"/></mask><path d="M164.002 6.364V370H87.12V79.34h-2.131l-83.274 52.2V63.359L91.736 6.364h72.266zm217.995-4.972c18.703 0 36.695 3.137 53.977 9.41 17.401 6.274 32.908 16.277 46.52 30.008 13.731 13.73 24.562 31.96 32.493 54.687 8.049 22.609 12.133 50.367 12.252 83.274 0 30.895-3.492 58.476-10.476 82.742-6.866 24.148-16.75 44.685-29.652 61.612-12.903 16.927-28.468 29.83-46.698 38.707-18.229 8.76-38.589 13.14-61.079 13.14-24.266 0-45.691-4.676-64.276-14.027-18.584-9.47-33.558-22.313-44.922-38.53-11.245-16.335-18.051-34.683-20.419-55.043h75.817c2.959 13.258 9.174 23.556 18.644 30.895 9.469 7.221 21.188 10.831 35.156 10.831 23.674 0 41.666-10.298 53.977-30.895 12.311-20.715 18.525-49.065 18.644-85.05h-2.486c-5.445 10.654-12.784 19.828-22.017 27.522-9.233 7.575-19.827 13.435-31.783 17.578-11.837 4.143-24.444 6.214-37.82 6.214-21.425 0-40.542-5.03-57.35-15.092-16.809-10.062-30.067-23.911-39.773-41.548-9.707-17.638-14.56-37.761-14.56-60.37-.118-24.384 5.504-46.105 16.868-65.163 11.364-19.058 27.225-33.972 47.585-44.744C331.098 6.66 354.89 1.274 381.997 1.392zm.533 60.37c-11.956 0-22.609 2.84-31.96 8.522-9.233 5.682-16.572 13.317-22.017 22.905-5.327 9.588-7.931 20.301-7.813 32.138 0 11.955 2.604 22.727 7.813 32.315 5.326 9.47 12.547 17.046 21.662 22.727 9.232 5.564 19.767 8.345 31.605 8.345 8.877 0 17.104-1.657 24.68-4.971 7.576-3.314 14.145-7.872 19.709-13.672 5.682-5.919 10.121-12.725 13.317-20.419 3.196-7.694 4.794-15.862 4.794-24.503-.119-11.482-2.841-22.017-8.168-31.605-5.327-9.588-12.666-17.282-22.017-23.082-9.351-5.8-19.886-8.7-31.605-8.7zm329.545-60.37c18.703 0 36.695 3.137 53.978 9.41 17.4 6.274 32.907 16.277 46.519 30.008 13.732 13.73 24.562 31.96 32.493 54.687 8.05 22.609 12.133 50.367 12.252 83.274 0 30.895-3.492 58.476-10.476 82.742-6.866 24.148-16.75 44.685-29.652 61.612-12.903 16.927-28.468 29.83-46.698 38.707-18.229 8.76-38.589 13.14-61.079 13.14-24.266 0-45.691-4.676-64.276-14.027-18.584-9.47-33.558-22.313-44.922-38.53-11.245-16.335-18.051-34.683-20.419-55.043h75.817c2.96 13.258 9.174 23.556 18.644 30.895 9.469 7.221 21.188 10.831 35.156 10.831 23.674 0 41.667-10.298 53.977-30.895 12.311-20.715 18.525-49.065 18.644-85.05h-2.486c-5.445 10.654-12.784 19.828-22.017 27.522-9.233 7.575-19.827 13.435-31.783 17.578-11.837 4.143-24.444 6.214-37.819 6.214-21.426 0-40.543-5.03-57.351-15.092-16.809-10.062-30.067-23.911-39.773-41.548-9.706-17.638-14.56-37.761-14.56-60.37-.118-24.384 5.505-46.105 16.868-65.163 11.364-19.058 27.226-33.972 47.585-44.744 20.479-10.89 44.271-16.276 71.378-16.158zm.533 60.37c-11.956 0-22.609 2.84-31.96 8.522-9.233 5.682-16.572 13.317-22.017 22.905-5.327 9.588-7.931 20.301-7.813 32.138 0 11.955 2.604 22.727 7.813 32.315 5.326 9.47 12.547 17.046 21.662 22.727 9.233 5.564 19.768 8.345 31.605 8.345 8.878 0 17.104-1.657 24.68-4.971 7.576-3.314 14.145-7.872 19.709-13.672 5.682-5.919 10.121-12.725 13.317-20.419 3.196-7.694 4.794-15.862 4.794-24.503-.119-11.482-2.841-22.017-8.168-31.605-5.327-9.588-12.666-17.282-22.017-23.082-9.351-5.8-19.886-8.7-31.605-8.7zm333.632 313.21c-27.35 0-51.672-4.439-72.979-13.317-21.188-8.996-37.819-21.248-49.893-36.754-12.074-15.507-18.111-33.085-18.111-52.735 0-15.151 3.433-29.06 10.298-41.726 6.984-12.784 16.454-23.378 28.409-31.782 11.956-8.523 25.332-13.968 40.128-16.336v-2.485c-19.413-3.907-35.156-13.317-47.23-28.232-12.074-15.033-18.111-32.493-18.111-52.38 0-18.82 5.505-35.57 16.513-50.248 11.009-14.796 26.101-26.396 45.277-34.8 19.295-8.524 41.189-12.785 65.699-12.785 24.5 0 46.34 4.261 65.52 12.784 19.29 8.523 34.44 20.182 45.45 34.979 11.01 14.678 16.57 31.368 16.69 50.07-.12 20.006-6.27 37.465-18.47 52.38-12.19 14.915-27.81 24.325-46.87 28.232v2.485c14.56 2.368 27.76 7.813 39.59 16.336 11.96 8.404 21.43 18.998 28.41 31.782 7.11 12.666 10.72 26.575 10.83 41.726-.11 19.65-6.21 37.228-18.28 52.735-12.08 15.506-28.77 27.758-50.07 36.754-21.19 8.878-45.46 13.317-72.8 13.317zm0-56.463c12.19 0 22.84-2.19 31.96-6.57 9.11-4.498 16.21-10.653 21.3-18.466 5.21-7.931 7.82-17.045 7.82-27.344 0-10.535-2.67-19.827-7.99-27.876-5.33-8.168-12.55-14.56-21.67-19.176-9.11-4.735-19.59-7.103-31.42-7.103-11.72 0-22.2 2.368-31.43 7.103-9.23 4.616-16.513 11.008-21.84 19.176-5.208 8.049-7.812 17.341-7.812 27.876 0 10.299 2.545 19.413 7.635 27.344 5.09 7.813 12.247 13.968 21.487 18.466 9.23 4.38 19.88 6.57 31.96 6.57zm0-162.465c10.18 0 19.23-2.071 27.16-6.214 7.93-4.143 14.15-9.884 18.65-17.223 4.49-7.339 6.74-15.803 6.74-25.391 0-9.47-2.25-17.756-6.74-24.858-4.5-7.22-10.66-12.843-18.47-16.868-7.81-4.143-16.93-6.214-27.34-6.214-10.3 0-19.42 2.071-27.35 6.214-7.93 4.025-14.14 9.647-18.64 16.868-4.38 7.102-6.57 15.388-6.57 24.858 0 9.588 2.249 18.052 6.75 25.391 4.5 7.339 10.71 13.08 18.64 17.223 7.93 4.143 16.99 6.214 27.17 6.214z" fill="#fff" fill-opacity=".7"/><path d="M164.002 6.364V370H87.12V79.34h-2.131l-83.274 52.2V63.359L91.736 6.364h72.266zm217.995-4.972c18.703 0 36.695 3.137 53.977 9.41 17.401 6.274 32.908 16.277 46.52 30.008 13.731 13.73 24.562 31.96 32.493 54.687 8.049 22.609 12.133 50.367 12.252 83.274 0 30.895-3.492 58.476-10.476 82.742-6.866 24.148-16.75 44.685-29.652 61.612-12.903 16.927-28.468 29.83-46.698 38.707-18.229 8.76-38.589 13.14-61.079 13.14-24.266 0-45.691-4.676-64.276-14.027-18.584-9.47-33.558-22.313-44.922-38.53-11.245-16.335-18.051-34.683-20.419-55.043h75.817c2.959 13.258 9.174 23.556 18.644 30.895 9.469 7.221 21.188 10.831 35.156 10.831 23.674 0 41.666-10.298 53.977-30.895 12.311-20.715 18.525-49.065 18.644-85.05h-2.486c-5.445 10.654-12.784 19.828-22.017 27.522-9.233 7.575-19.827 13.435-31.783 17.578-11.837 4.143-24.444 6.214-37.82 6.214-21.425 0-40.542-5.03-57.35-15.092-16.809-10.062-30.067-23.911-39.773-41.548-9.707-17.638-14.56-37.761-14.56-60.37-.118-24.384 5.504-46.105 16.868-65.163 11.364-19.058 27.225-33.972 47.585-44.744C331.098 6.66 354.89 1.274 381.997 1.392zm.533 60.37c-11.956 0-22.609 2.84-31.96 8.522-9.233 5.682-16.572 13.317-22.017 22.905-5.327 9.588-7.931 20.301-7.813 32.138 0 11.955 2.604 22.727 7.813 32.315 5.326 9.47 12.547 17.046 21.662 22.727 9.232 5.564 19.767 8.345 31.605 8.345 8.877 0 17.104-1.657 24.68-4.971 7.576-3.314 14.145-7.872 19.709-13.672 5.682-5.919 10.121-12.725 13.317-20.419 3.196-7.694 4.794-15.862 4.794-24.503-.119-11.482-2.841-22.017-8.168-31.605-5.327-9.588-12.666-17.282-22.017-23.082-9.351-5.8-19.886-8.7-31.605-8.7zm329.545-60.37c18.703 0 36.695 3.137 53.978 9.41 17.4 6.274 32.907 16.277 46.519 30.008 13.732 13.73 24.562 31.96 32.493 54.687 8.05 22.609 12.133 50.367 12.252 83.274 0 30.895-3.492 58.476-10.476 82.742-6.866 24.148-16.75 44.685-29.652 61.612-12.903 16.927-28.468 29.83-46.698 38.707-18.229 8.76-38.589 13.14-61.079 13.14-24.266 0-45.691-4.676-64.276-14.027-18.584-9.47-33.558-22.313-44.922-38.53-11.245-16.335-18.051-34.683-20.419-55.043h75.817c2.96 13.258 9.174 23.556 18.644 30.895 9.469 7.221 21.188 10.831 35.156 10.831 23.674 0 41.667-10.298 53.977-30.895 12.311-20.715 18.525-49.065 18.644-85.05h-2.486c-5.445 10.654-12.784 19.828-22.017 27.522-9.233 7.575-19.827 13.435-31.783 17.578-11.837 4.143-24.444 6.214-37.819 6.214-21.426 0-40.543-5.03-57.351-15.092-16.809-10.062-30.067-23.911-39.773-41.548-9.706-17.638-14.56-37.761-14.56-60.37-.118-24.384 5.505-46.105 16.868-65.163 11.364-19.058 27.226-33.972 47.585-44.744 20.479-10.89 44.271-16.276 71.378-16.158zm.533 60.37c-11.956 0-22.609 2.84-31.96 8.522-9.233 5.682-16.572 13.317-22.017 22.905-5.327 9.588-7.931 20.301-7.813 32.138 0 11.955 2.604 22.727 7.813 32.315 5.326 9.47 12.547 17.046 21.662 22.727 9.233 5.564 19.768 8.345 31.605 8.345 8.878 0 17.104-1.657 24.68-4.971 7.576-3.314 14.145-7.872 19.709-13.672 5.682-5.919 10.121-12.725 13.317-20.419 3.196-7.694 4.794-15.862 4.794-24.503-.119-11.482-2.841-22.017-8.168-31.605-5.327-9.588-12.666-17.282-22.017-23.082-9.351-5.8-19.886-8.7-31.605-8.7zm333.632 313.21c-27.35 0-51.672-4.439-72.979-13.317-21.188-8.996-37.819-21.248-49.893-36.754-12.074-15.507-18.111-33.085-18.111-52.735 0-15.151 3.433-29.06 10.298-41.726 6.984-12.784 16.454-23.378 28.409-31.782 11.956-8.523 25.332-13.968 40.128-16.336v-2.485c-19.413-3.907-35.156-13.317-47.23-28.232-12.074-15.033-18.111-32.493-18.111-52.38 0-18.82 5.505-35.57 16.513-50.248 11.009-14.796 26.101-26.396 45.277-34.8 19.295-8.524 41.189-12.785 65.699-12.785 24.5 0 46.34 4.261 65.52 12.784 19.29 8.523 34.44 20.182 45.45 34.979 11.01 14.678 16.57 31.368 16.69 50.07-.12 20.006-6.27 37.465-18.47 52.38-12.19 14.915-27.81 24.325-46.87 28.232v2.485c14.56 2.368 27.76 7.813 39.59 16.336 11.96 8.404 21.43 18.998 28.41 31.782 7.11 12.666 10.72 26.575 10.83 41.726-.11 19.65-6.21 37.228-18.28 52.735-12.08 15.506-28.77 27.758-50.07 36.754-21.19 8.878-45.46 13.317-72.8 13.317zm0-56.463c12.19 0 22.84-2.19 31.96-6.57 9.11-4.498 16.21-10.653 21.3-18.466 5.21-7.931 7.82-17.045 7.82-27.344 0-10.535-2.67-19.827-7.99-27.876-5.33-8.168-12.55-14.56-21.67-19.176-9.11-4.735-19.59-7.103-31.42-7.103-11.72 0-22.2 2.368-31.43 7.103-9.23 4.616-16.513 11.008-21.84 19.176-5.208 8.049-7.812 17.341-7.812 27.876 0 10.299 2.545 19.413 7.635 27.344 5.09 7.813 12.247 13.968 21.487 18.466 9.23 4.38 19.88 6.57 31.96 6.57zm0-162.465c10.18 0 19.23-2.071 27.16-6.214 7.93-4.143 14.15-9.884 18.65-17.223 4.49-7.339 6.74-15.803 6.74-25.391 0-9.47-2.25-17.756-6.74-24.858-4.5-7.22-10.66-12.843-18.47-16.868-7.81-4.143-16.93-6.214-27.34-6.214-10.3 0-19.42 2.071-27.35 6.214-7.93 4.025-14.14 9.647-18.64 16.868-4.38 7.102-6.57 15.388-6.57 24.858 0 9.588 2.249 18.052 6.75 25.391 4.5 7.339 10.71 13.08 18.64 17.223 7.93 4.143 16.99 6.214 27.17 6.214z" stroke="#9796A5" stroke-opacity=".35" stroke-width="2" mask="url(#a)"/></svg>