<svg width="1269" height="379" fill="none" xmlns="http://www.w3.org/2000/svg"><path d="M5.295 370v-55.398l129.439-119.851c11.008-10.653 20.241-20.241 27.699-28.764 7.575-8.522 13.316-16.868 17.223-25.035 3.906-8.286 5.859-17.223 5.859-26.811 0-10.654-2.427-19.828-7.28-27.522-4.853-7.812-11.482-13.79-19.886-17.933-8.405-4.261-17.933-6.392-28.587-6.392-11.127 0-20.833 2.25-29.119 6.747-8.286 4.498-14.678 10.95-19.176 19.354-4.498 8.404-6.748 18.407-6.748 30.007H1.745c0-23.793 5.386-44.448 16.157-61.967 10.772-17.52 25.864-31.073 45.277-40.66 19.413-9.589 41.785-14.383 67.117-14.383 26.041 0 48.71 4.617 68.004 13.85 19.413 9.114 34.505 21.78 45.277 37.997 10.772 16.217 16.158 34.8 16.158 55.753 0 13.731-2.723 27.284-8.168 40.66-5.327 13.376-14.855 28.232-28.587 44.567-13.731 16.217-33.084 35.689-58.061 58.416l-53.089 52.024v2.486h152.699V370H5.295zm457.519 7.99c-30.539-.118-56.818-7.635-78.835-22.55-21.899-14.914-38.766-36.517-50.604-64.808-11.718-28.291-17.519-62.322-17.4-102.095 0-39.654 5.859-73.449 17.578-101.385 11.837-27.936 28.705-49.183 50.604-63.743 22.017-14.678 48.236-22.017 78.657-22.017 30.422 0 56.582 7.34 78.48 22.017 22.017 14.678 38.945 35.985 50.782 63.92 11.837 27.818 17.696 61.554 17.578 101.208 0 39.891-5.919 73.982-17.756 102.273-11.719 28.29-28.527 49.893-50.426 64.808-21.899 14.915-48.118 22.372-78.658 22.372zm0-63.743c20.834 0 37.465-10.476 49.894-31.427 12.429-20.952 18.584-52.38 18.466-94.283 0-27.581-2.841-50.545-8.523-68.892-5.563-18.348-13.494-32.138-23.793-41.37-10.18-9.234-22.194-13.85-36.044-13.85-20.715 0-37.287 10.357-49.716 31.072-12.429 20.715-18.702 51.728-18.821 93.04 0 27.936 2.782 51.255 8.346 69.957 5.681 18.585 13.671 32.552 23.97 41.904 10.298 9.233 22.372 13.849 36.221 13.849zm344.239 63.743c-30.54-.118-56.819-7.635-78.836-22.55-21.898-14.914-38.766-36.517-50.603-64.808-11.719-28.291-17.519-62.322-17.401-102.095 0-39.654 5.86-73.449 17.578-101.385 11.837-27.936 28.705-49.183 50.604-63.743 22.017-14.678 48.236-22.017 78.658-22.017 30.421 0 56.581 7.34 78.48 22.017 22.017 14.678 38.944 35.985 50.781 63.92 11.837 27.818 17.696 61.554 17.578 101.208 0 39.891-5.918 73.982-17.756 102.273-11.718 28.29-28.527 49.893-50.426 64.808-21.898 14.915-48.118 22.372-78.657 22.372zm0-63.743c20.833 0 37.464-10.476 49.893-31.427 12.429-20.952 18.584-52.38 18.466-94.283 0-27.581-2.841-50.545-8.523-68.892-5.563-18.348-13.494-32.138-23.792-41.37-10.18-9.234-22.195-13.85-36.044-13.85-20.715 0-37.287 10.357-49.716 31.072-12.429 20.715-18.703 51.728-18.821 93.04 0 27.936 2.781 51.255 8.345 69.957 5.682 18.585 13.672 32.552 23.97 41.904 10.298 9.233 22.372 13.849 36.222 13.849zM1008.71 370v-55.398l129.44-119.851c11.01-10.653 20.24-20.241 27.7-28.764 7.58-8.522 13.32-16.868 17.22-25.035 3.91-8.286 5.86-17.223 5.86-26.811 0-10.654-2.42-19.828-7.28-27.522-4.85-7.812-11.48-13.79-19.88-17.933-8.41-4.261-17.94-6.392-28.59-6.392-11.13 0-20.83 2.25-29.12 6.747-8.29 4.498-14.68 10.95-19.18 19.354-4.49 8.404-6.74 18.407-6.74 30.007h-72.98c0-23.793 5.39-44.448 16.16-61.967 10.77-17.52 25.86-31.073 45.28-40.66 19.41-9.589 41.78-14.383 67.11-14.383 26.04 0 48.71 4.617 68.01 13.85 19.41 9.114 34.5 21.78 45.27 37.997 10.78 16.217 16.16 34.8 16.16 55.753 0 13.731-2.72 27.284-8.17 40.66-5.32 13.376-14.85 28.232-28.58 44.567-13.73 16.217-33.09 35.689-58.06 58.416l-53.09 52.024v2.486h152.7V370h-259.24z" fill="#fff" fill-opacity=".6"/><path d="M4.795 370v.5h260.233v-63.855H112.329v-1.776l52.926-51.864a.043.043 0 01.007-.006c24.981-22.732 44.35-42.218 58.099-58.457l.001-.001c13.75-16.358 23.314-31.259 28.668-44.701 5.468-13.433 8.204-27.05 8.204-40.848 0-21.043-5.411-39.725-16.241-56.03-10.828-16.3-25.994-29.023-45.48-38.172C179.139 5.519 156.394.892 130.295.892c-25.395 0-47.846 4.806-67.338 14.434-19.493 9.627-34.658 23.243-45.482 40.847C6.648 73.783 1.244 94.532 1.244 118.402v.5h73.975v-.5c0-11.536 2.237-21.454 6.689-29.771 4.452-8.32 10.774-14.7 18.973-19.15 8.201-4.452 17.823-6.687 28.881-6.687 10.585 0 20.035 2.117 28.361 6.338l.005.003c8.322 4.102 14.879 10.017 19.682 17.748l.002.003c4.795 7.602 7.203 16.679 7.203 27.255 0 9.517-1.938 18.38-5.811 26.596-3.881 8.115-9.593 16.422-17.145 24.918l-.003.003c-7.445 8.508-16.666 18.085-27.666 28.73l-.004.004L4.956 314.235l-.161.149V370zm458.017 8.49h.002c30.625 0 56.946-7.479 78.939-22.459 21.991-14.977 38.856-36.663 50.606-65.028 11.869-28.367 17.795-62.527 17.795-102.465.118-39.701-5.748-73.508-17.618-101.404-11.869-28.011-28.854-49.4-50.964-64.14C519.579 8.251 493.319.891 462.814.891c-30.504 0-56.824 7.36-78.934 22.101-21.993 14.622-38.918 35.953-50.787 63.964l-.001.002c-11.751 28.012-17.617 61.876-17.617 101.576-.119 39.821 5.688 73.921 17.438 102.289l.001.001c11.869 28.366 28.793 50.051 50.784 65.029h.001c22.111 14.979 48.489 22.517 79.113 22.636zm67.862-189.953v.001c.118 41.871-6.036 73.19-18.396 94.027-12.357 20.83-28.84 31.182-49.464 31.182-13.726 0-25.681-4.571-35.887-13.721-10.209-9.272-18.161-23.147-23.826-41.676-5.544-18.64-8.324-41.907-8.324-69.812.119-41.277 6.39-72.183 18.75-92.784 12.357-20.594 28.78-30.83 49.287-30.83 13.727 0 25.621 4.572 35.708 13.72l.003.002c10.208 9.153 18.101 22.852 23.647 41.144l.001.003c5.662 18.284 8.501 41.194 8.501 68.744zM807.051 378.49h.002c30.624 0 56.945-7.479 78.939-22.459 21.99-14.977 38.856-36.663 50.606-65.028 11.869-28.367 17.794-62.527 17.794-102.465.119-39.701-5.747-73.508-17.618-101.404-11.869-28.011-28.854-49.4-50.963-64.14C863.818 8.251 837.557.891 807.053.891c-30.505 0-56.824 7.36-78.935 22.1-21.992 14.623-38.918 35.953-50.787 63.965l-.001.002c-11.751 28.012-17.617 61.876-17.617 101.576-.118 39.821 5.688 73.921 17.439 102.289v.001c11.869 28.366 28.793 50.051 50.784 65.029h.001c22.111 14.979 48.49 22.517 79.114 22.636zm67.861-189.953v.001c.118 41.871-6.035 73.19-18.396 94.027-12.357 20.83-28.839 31.182-49.463 31.182-13.727 0-25.682-4.571-35.888-13.721-10.209-9.272-18.16-23.147-23.825-41.676-5.545-18.64-8.324-41.907-8.324-69.812.118-41.277 6.389-72.183 18.749-92.784 12.357-20.594 28.78-30.83 49.288-30.83 13.726 0 25.621 4.572 35.708 13.72l.002.002c10.209 9.153 18.101 22.852 23.648 41.144l.001.003c5.662 18.284 8.5 41.194 8.5 68.744zM1008.21 370v.5h260.24v-63.855h-152.7v-1.776l52.92-51.864c.01-.002.01-.004.01-.006 24.98-22.732 44.35-42.218 58.1-58.457v-.001c13.75-16.357 23.31-31.258 28.67-44.7 5.47-13.433 8.2-27.05 8.2-40.849 0-21.043-5.41-39.725-16.24-56.03-10.83-16.3-25.99-29.024-45.48-38.173-19.37-9.27-42.12-13.897-68.22-13.897-25.39 0-47.84 4.806-67.34 14.434-19.49 9.627-34.65 23.243-45.48 40.847-10.82 17.61-16.23 38.359-16.23 62.229v.5h73.98v-.5c0-11.536 2.23-21.454 6.69-29.771 4.45-8.32 10.77-14.7 18.97-19.15 8.2-4.452 17.82-6.687 28.88-6.687 10.59 0 20.03 2.117 28.36 6.338l.01.003c8.32 4.102 14.88 10.017 19.68 17.748v.003c4.79 7.602 7.2 16.679 7.2 27.255 0 9.518-1.94 18.381-5.81 26.598-3.88 8.115-9.59 16.421-17.14 24.916l-.01.003c-7.44 8.508-16.66 18.084-27.66 28.729 0 .002 0 .003-.01.005l-129.43 119.843-.16.149V370z" stroke="#9796A5" stroke-opacity=".15"/></svg>