<svg width="1278" height="379" fill="none" xmlns="http://www.w3.org/2000/svg"><path d="M4.633 370v-55.398l129.439-119.851c11.008-10.653 20.241-20.241 27.698-28.764 7.576-8.522 13.317-16.868 17.223-25.035 3.907-8.286 5.86-17.223 5.86-26.811 0-10.654-2.427-19.828-7.28-27.522-4.853-7.812-11.482-13.79-19.886-17.933-8.405-4.261-17.934-6.392-28.587-6.392-11.127 0-20.833 2.25-29.12 6.747-8.285 4.498-14.677 10.95-19.175 19.354-4.499 8.404-6.748 18.407-6.748 30.007H1.081c0-23.793 5.386-44.448 16.158-61.967 10.772-17.52 25.864-31.073 45.277-40.66 19.414-9.59 41.785-14.384 67.117-14.384 26.041 0 48.709 4.617 68.004 13.85 19.413 9.114 34.505 21.78 45.277 37.997 10.772 16.217 16.158 34.8 16.158 55.753 0 13.731-2.723 27.284-8.168 40.66-5.327 13.376-14.856 28.232-28.587 44.567-13.731 16.217-33.084 35.689-58.061 58.416l-53.089 52.024v2.486h152.699V370H4.633zm457.519 7.99c-30.54-.118-56.818-7.635-78.835-22.55-21.899-14.914-38.767-36.517-50.604-64.808-11.719-28.291-17.519-62.322-17.4-102.095 0-39.654 5.859-73.449 17.578-101.385 11.837-27.936 28.705-49.183 50.603-63.743 22.018-14.678 48.237-22.017 78.658-22.017 30.422 0 56.582 7.34 78.48 22.017 22.017 14.678 38.944 35.985 50.782 63.92 11.837 27.818 17.696 61.554 17.578 101.208 0 39.891-5.919 73.982-17.756 102.273-11.719 28.29-28.528 49.893-50.426 64.808-21.899 14.915-48.118 22.372-78.658 22.372zm0-63.743c20.833 0 37.465-10.476 49.894-31.427 12.429-20.952 18.584-52.38 18.466-94.283 0-27.581-2.841-50.545-8.523-68.892-5.564-18.348-13.495-32.138-23.793-41.37-10.18-9.234-22.194-13.85-36.044-13.85-20.715 0-37.287 10.357-49.716 31.072-12.429 20.715-18.702 51.728-18.821 93.04 0 27.936 2.782 51.255 8.345 69.957 5.682 18.585 13.672 32.552 23.971 41.904 10.298 9.233 22.372 13.849 36.221 13.849zM806.39 377.99c-30.539-.118-56.818-7.635-78.835-22.55-21.898-14.914-38.766-36.517-50.603-64.808-11.719-28.291-17.519-62.322-17.401-102.095 0-39.654 5.859-73.449 17.578-101.385 11.837-27.936 28.705-49.183 50.604-63.743C749.75 8.731 775.969 1.392 806.39 1.392c30.422 0 56.582 7.34 78.481 22.017 22.017 14.678 38.944 35.985 50.781 63.92 11.837 27.818 17.696 61.554 17.578 101.208 0 39.891-5.919 73.982-17.756 102.273-11.719 28.29-28.527 49.893-50.426 64.808-21.899 14.915-48.118 22.372-78.658 22.372zm0-63.743c20.834 0 37.465-10.476 49.894-31.427 12.429-20.952 18.584-52.38 18.466-94.283 0-27.581-2.841-50.545-8.523-68.892-5.563-18.348-13.494-32.138-23.793-41.37-10.179-9.234-22.194-13.85-36.044-13.85-20.715 0-37.287 10.357-49.716 31.072-12.428 20.715-18.702 51.728-18.82 93.04 0 27.936 2.781 51.255 8.345 69.957 5.681 18.585 13.672 32.552 23.97 41.904 10.298 9.233 22.372 13.849 36.221 13.849zm334.47 60.725c-25.09 0-47.46-4.617-67.11-13.85-19.53-9.233-35.04-21.958-46.52-38.174-11.49-16.217-17.46-34.802-17.94-55.753h74.58c.83 14.086 6.74 25.509 17.75 34.268 11.01 8.76 24.09 13.139 39.24 13.139 12.08 0 22.73-2.663 31.96-7.99 9.35-5.445 16.63-12.961 21.84-22.549 5.33-9.707 7.99-20.834 7.99-33.381 0-12.784-2.72-24.029-8.16-33.736-5.33-9.706-12.73-17.282-22.2-22.727-9.47-5.445-20.3-8.227-32.49-8.345-10.66 0-21.01 2.19-31.07 6.569-9.95 4.38-17.7 10.358-23.26 17.933l-68.36-12.251 17.22-191.761h222.3v62.855h-158.91l-9.41 91.086h2.13c6.39-8.996 16.04-16.453 28.94-22.372 12.9-5.918 27.34-8.878 43.32-8.878 21.9 0 41.43 5.15 58.6 15.448 17.16 10.298 30.71 24.444 40.66 42.436 9.94 17.874 14.85 38.471 14.73 61.79.12 24.503-5.56 46.283-17.04 65.341-11.37 18.939-27.29 33.854-47.76 44.744-20.36 10.772-44.04 16.158-71.03 16.158z" fill="#fff" fill-opacity=".6"/><path d="M1073.53 361.575v-.001c-19.6-9.266-35.18-22.044-46.71-38.338-11.54-16.302-17.55-34.984-18.03-56.03l-.01-.511h75.56l.03.47c.82 13.945 6.67 25.236 17.56 33.907 10.92 8.683 23.89 13.03 38.93 13.03 12 0 22.57-2.646 31.71-7.923 9.27-5.398 16.49-12.847 21.65-22.355v-.002c5.29-9.623 7.93-20.666 7.93-33.14 0-12.711-2.7-23.87-8.1-33.491v-.004c-5.29-9.628-12.62-17.136-22.01-22.535-9.38-5.397-20.13-8.16-32.24-8.278-10.59 0-20.88 2.175-30.88 6.528-9.87 4.35-17.55 10.276-23.05 17.77l-.19.252-.3-.055-68.36-12.252-.45-.081.04-.456 17.22-191.761.04-.455h223.26v63.855h-158.96l-9.31 90.086h1.32c6.46-8.99 16.13-16.427 28.99-22.326 12.98-5.952 27.49-8.924 43.53-8.924 21.98 0 41.6 5.17 58.85 15.519 17.24 10.345 30.86 24.556 40.84 42.623m-188.86 174.878l188.43-174.636m-188.43 174.636c19.73 9.268 42.18 13.897 67.33 13.897 27.06 0 50.82-5.4 71.26-16.216v-.001m-138.59 2.32l138.59-2.32m50.27-172.558l-.43.242m.43-.242v-.001l-.43.243m.43-.242c9.99 17.958 14.92 38.641 14.8 62.032m-15.23-61.79c9.94 17.874 14.85 38.471 14.73 61.79m.5 0v-.003l-.5.003m.5 0c.12 24.584-5.58 46.455-17.11 65.598m17.11-65.598v.002l-.5-.002m0 0l-16.61 65.598m0 0l-.43-.257.43.258v-.001zm0 0c-11.42 19.021-27.41 33.998-47.96 44.928m47.96-44.928l-47.96 44.928M4.133 370v.5h260.233v-63.855H111.667v-1.776l52.926-51.864.006-.006c24.981-22.732 44.35-42.218 58.1-58.457l.001-.001c13.75-16.358 23.314-31.259 28.667-44.701 5.468-13.433 8.205-27.05 8.205-40.848 0-21.043-5.411-39.725-16.242-56.03-10.827-16.3-25.993-29.023-45.479-38.172C178.477 5.519 155.732.892 129.633.892c-25.396 0-47.846 4.806-67.338 14.434-19.493 9.627-34.658 23.243-45.482 40.847C5.986 73.783.581 94.532.581 118.402v.5h73.976v-.5c0-11.536 2.237-21.454 6.688-29.771 4.453-8.32 10.775-14.7 18.974-19.15 8.201-4.452 17.822-6.687 28.881-6.687 10.585 0 20.035 2.117 28.36 6.338l.006.003c8.322 4.102 14.879 10.017 19.682 17.748l.002.003c4.795 7.602 7.203 16.679 7.203 27.255 0 9.517-1.938 18.38-5.811 26.596-3.882 8.115-9.593 16.422-17.145 24.918l-.003.003c-7.445 8.508-16.666 18.085-27.666 28.73l-.004.004L4.293 314.235l-.16.149V370zm458.017 8.49h.002c30.625 0 56.945-7.479 78.939-22.459 21.991-14.977 38.856-36.663 50.606-65.028 11.869-28.367 17.795-62.527 17.795-102.465.118-39.701-5.748-73.508-17.618-101.404-11.869-28.011-28.854-49.4-50.964-64.14C518.917 8.251 492.657.891 462.152.891c-30.505 0-56.824 7.36-78.935 22.101-21.992 14.622-38.917 35.953-50.787 63.964v.002c-11.751 28.012-17.617 61.876-17.617 101.576-.119 39.821 5.688 73.921 17.438 102.289l.001.001c11.868 28.366 28.793 50.051 50.783 65.029h.001c22.111 14.979 48.49 22.517 79.114 22.636zm67.862-189.953v.001c.118 41.871-6.036 73.19-18.396 94.027-12.357 20.83-28.84 31.182-49.464 31.182-13.726 0-25.681-4.571-35.888-13.721-10.208-9.272-18.16-23.147-23.825-41.676-5.545-18.64-8.324-41.907-8.324-69.812.118-41.277 6.39-72.183 18.75-92.784 12.356-20.594 28.78-30.83 49.287-30.83 13.726 0 25.621 4.572 35.708 13.72l.002.002c10.209 9.153 18.102 22.852 23.648 41.144l.001.003c5.662 18.284 8.501 41.194 8.501 68.744zM806.388 378.49h.002c30.625 0 56.946-7.479 78.94-22.459 21.99-14.977 38.855-36.663 50.605-65.028 11.87-28.367 17.795-62.527 17.795-102.465.118-39.701-5.747-73.508-17.618-101.404-11.869-28.011-28.854-49.4-50.964-64.14C863.155 8.251 836.895.891 806.39.891c-30.504 0-56.823 7.36-78.934 22.1-21.992 14.623-38.918 35.953-50.787 63.965l-.001.002c-11.751 28.012-17.617 61.876-17.617 101.576-.119 39.821 5.688 73.921 17.439 102.289v.001c11.869 28.366 28.793 50.051 50.784 65.029h.001c22.111 14.979 48.49 22.517 79.113 22.636zm67.862-189.953v.001c.118 41.871-6.036 73.19-18.396 94.027-12.357 20.83-28.839 31.182-49.464 31.182-13.726 0-25.681-4.571-35.887-13.721-10.209-9.272-18.161-23.147-23.826-41.676-5.544-18.64-8.323-41.907-8.323-69.812.118-41.277 6.389-72.183 18.749-92.784 12.357-20.594 28.78-30.83 49.287-30.83 13.727 0 25.621 4.572 35.709 13.72l.002.002c10.208 9.153 18.101 22.852 23.648 41.144l.001.003c5.662 18.284 8.5 41.194 8.5 68.744zm298.57 118.075c9.35-5.445 16.63-12.961 21.84-22.549 5.33-9.707 7.99-20.834 7.99-33.381 0-12.784-2.72-24.029-8.16-33.736-5.33-9.706-12.73-17.282-22.2-22.727-9.47-5.445-20.3-8.227-32.49-8.345l33.02 120.738zm-84.51-146.307h.5-.5z" stroke="#9796A5" stroke-opacity=".15"/></svg>