<svg width="1276" height="377" fill="none" xmlns="http://www.w3.org/2000/svg"><g clip-path="url(#clip0_237_17)"><path d="M3.633 369v-55.398l129.439-119.851c11.008-10.653 20.241-20.241 27.698-28.764 7.576-8.522 13.317-16.868 17.223-25.035 3.907-8.286 5.86-17.223 5.86-26.811 0-10.654-2.427-19.828-7.28-27.522-4.853-7.812-11.482-13.79-19.886-17.933-8.405-4.261-17.934-6.392-28.587-6.392-11.127 0-20.833 2.25-29.12 6.747-8.186 4.498-14.678 10.95-19.176 19.354-4.498 8.404-6.747 18.407-6.747 30.007H.081c0-23.793 5.386-44.448 16.158-61.967 10.772-17.52 25.864-31.073 45.277-40.66C80.929 5.185 103.301.391 128.633.391c26.041 0 48.709 4.617 68.004 13.85 19.413 9.114 34.505 21.78 45.277 37.997 10.772 16.217 16.158 34.8 16.158 55.753 0 13.731-2.723 27.284-8.168 40.66-5.327 13.376-14.856 28.232-28.587 44.567-13.731 16.217-33.084 35.689-58.061 58.416l-53.089 52.024v2.486h152.699V369H3.633zm801.757 7.99c-30.539-.118-56.818-7.635-78.835-22.55-21.898-14.914-38.766-36.517-50.603-64.808-11.719-28.291-17.519-62.322-17.401-102.095 0-39.654 5.859-73.449 17.578-101.385 11.837-27.936 28.705-49.183 50.604-63.743C748.75 7.731 774.969.392 805.39.392c30.422 0 56.582 7.34 78.481 22.017 22.017 14.678 38.944 35.985 50.781 63.92 11.837 27.818 17.696 61.554 17.578 101.208 0 39.891-5.919 73.982-17.756 102.273-11.719 28.29-28.527 49.893-50.426 64.808-21.899 14.915-48.118 22.372-78.658 22.372zm0-63.743c20.834 0 37.465-10.476 49.894-31.427 12.429-20.952 18.584-52.38 18.466-94.283 0-27.581-2.841-50.545-8.523-68.892-5.563-18.348-13.494-32.138-23.793-41.37-10.179-9.234-22.194-13.85-36.044-13.85-20.715 0-37.287 10.357-49.716 31.072-12.428 20.715-18.702 51.728-18.82 93.04 0 27.936 2.781 51.255 8.345 69.957 5.681 18.585 13.672 32.552 23.97 41.904 10.298 9.233 22.372 13.849 36.221 13.849zm334.47 60.725c-25.09 0-47.46-4.617-67.11-13.85-19.53-9.233-35.04-21.958-46.52-38.174-11.49-16.217-17.46-34.802-17.94-55.753h74.58c.83 14.086 6.74 25.509 17.85 34.268 10.91 8.76 23.99 13.139 39.14 13.139 12.08 0 22.73-2.663 31.96-7.99 9.35-5.445 16.63-12.961 21.84-22.549 5.33-9.707 7.99-20.834 7.99-33.381 0-12.784-2.72-24.029-8.16-33.736-5.33-9.706-12.73-17.282-22.2-22.727-9.47-5.445-20.3-8.227-32.49-8.345-10.66 0-21.01 2.19-31.07 6.569-9.95 4.38-17.7 10.358-23.26 17.933l-68.36-12.251 17.22-191.761h222.3v62.855h-158.91l-9.41 91.086h2.13c6.39-8.996 16.04-16.453 28.94-22.372 12.9-5.918 27.34-8.878 43.32-8.878 21.9 0 41.43 5.15 58.6 15.448 17.16 10.298 30.71 24.444 40.66 42.436 9.94 17.874 14.85 38.471 14.73 61.79.12 24.503-5.56 46.283-17.04 65.341-11.37 18.939-27.29 33.854-47.76 44.744-20.36 10.772-44.04 16.158-71.03 16.158zm-683.7 3.018c-30.539-.118-56.818-7.635-78.835-22.55-21.898-14.914-38.766-36.517-50.603-64.808-11.719-28.291-17.519-62.322-17.401-102.095 0-39.654 5.859-73.449 17.578-101.385 11.837-27.936 28.705-49.183 50.604-63.743C399.52 7.731 425.739.392 456.16.392c30.422 0 56.582 7.34 78.481 22.017 22.017 14.678 38.944 35.985 50.781 63.92 11.837 27.818 17.696 61.554 17.578 101.208 0 39.891-5.919 73.982-17.756 102.273-11.719 28.29-28.527 49.893-50.426 64.808-21.899 14.915-48.118 22.372-78.658 22.372zm0-63.743c20.834 0 37.465-10.476 49.894-31.427 12.429-20.952 18.584-52.38 18.466-94.283 0-27.581-2.841-50.545-8.523-68.892-5.563-18.348-13.494-32.138-23.793-41.37-10.179-9.234-22.194-13.85-36.044-13.85-20.715 0-37.287 10.357-49.716 31.072-12.428 20.715-18.702 51.728-18.82 93.04 0 27.936 2.781 51.255 8.345 69.957 5.681 18.585 13.672 32.552 23.97 41.904 10.298 9.233 22.372 13.849 36.221 13.849z" fill="#fff" fill-opacity=".7"/><path d="M1255.13 68.219h-158.41l-9.36 90.586h-.05v.5l.5.051v-.051h1.63c6.39-8.996 16.04-16.453 28.94-22.372 12.9-5.918 27.34-8.878 43.32-8.878 21.9 0 41.43 5.15 58.6 15.448 17.16 10.298 30.71 24.444 40.66 42.436 9.94 17.874 14.85 38.471 14.73 61.79m-178.97-180.01h158.41V5.864h-221.34l-17.14 190.85 67.6 12.115c5.61-7.537 13.37-13.482 23.28-17.844 10.12-4.406 20.54-6.611 31.27-6.611 12.27.119 23.19 2.919 32.74 8.412 9.55 5.49 17.01 13.132 22.39 22.916 5.48 9.792 8.22 21.123 8.22 33.98 0 12.619-2.68 23.83-8.05 33.62-5.25 9.667-12.6 17.251-22.03 22.742v.001c-9.32 5.377-20.05 8.057-32.21 8.057-15.25 0-28.44-4.411-39.45-13.246-11.1-8.751-17.07-20.149-18.01-34.161h-73.6c.57 20.648 6.5 38.965 17.84 54.964m60.17-162.405l-.05.551h2.94l.15-.21c6.32-8.907 15.9-16.315 28.74-22.208 12.83-5.884 27.19-8.832 43.11-8.832 21.82 0 41.26 5.13 58.34 15.377 17.09 10.251 30.57 24.332 40.48 42.249v.001c9.9 17.789 14.79 38.299 14.67 61.544v.005c.12 24.421-5.54 46.109-16.97 65.081m0 0l.43.258m-.43-.258c-11.32 18.857-27.17 33.71-47.56 44.56-20.28 10.728-43.88 16.1-70.8 16.1-25.03 0-47.32-4.605-66.9-13.803-19.46-9.199-34.9-21.87-46.32-38.01m0 0l-.41.289m229.4-254.23V5.865M.582 116.902c.075-23.504 5.442-43.9 16.083-61.205 10.72-17.435 25.74-30.926 45.073-40.474C81.07 5.673 103.365.893 128.633.893c25.982 0 48.574 4.605 67.788 13.8l.003.001c19.339 9.08 34.357 21.688 45.073 37.821 10.714 16.129 16.075 34.615 16.075 55.477 0 13.663-2.709 27.152-8.131 40.471l-.002.004c-5.3 13.308-14.793 28.118-28.504 44.429-13.711 16.194-33.047 35.65-58.016 58.369l-.006.006-.007.007-53.089 52.024-.15.147v3.196h152.699V368.5H4.133v-54.68l129.279-119.702.008-.008c11.014-10.659 20.256-20.256 27.725-28.792 7.599-8.548 13.369-16.932 17.299-25.15l.001-.003c3.94-8.356 5.908-17.366 5.908-27.024 0-10.731-2.445-20-7.356-27.786-4.902-7.892-11.602-13.933-20.086-18.116-8.483-4.3-18.091-6.445-28.811-6.445-11.195 0-20.986 2.263-29.358 6.808l-.002.001c-8.27 4.544-14.832 11.065-19.376 19.556-4.48 8.37-6.741 18.29-6.805 29.743H.582zM727.01 22.826C748.933 8.21 775.052.892 805.39.892c30.339 0 56.398 7.318 78.203 21.933h.001c21.924 14.616 38.793 35.84 50.598 63.7 11.803 27.738 17.656 61.404 17.538 101.011v.001c0 39.844-5.912 73.866-17.717 102.08l-.001.002c-11.688 28.214-28.439 49.734-50.246 64.586-21.803 14.85-47.92 22.285-78.374 22.285-30.455-.118-56.634-7.613-78.557-22.464-21.805-14.851-38.616-36.371-50.422-64.587-11.687-28.214-17.48-62.176-17.362-101.901 0-39.606 5.852-73.332 17.538-101.19 11.805-27.86 28.615-49.025 50.421-63.522zm9.344 164.71v.001c0 27.965 2.783 51.336 8.366 70.1l.001.003c5.697 18.639 13.726 32.696 24.112 42.128l.002.002c10.39 9.316 22.583 13.977 36.555 13.977 21.043 0 37.823-10.6 50.324-31.672 12.497-21.067 18.654-52.603 18.536-94.539 0-27.61-2.843-50.626-8.545-69.036-5.579-18.402-13.548-32.283-23.935-41.596-10.272-9.317-22.407-13.98-36.38-13.98-20.923 0-37.643 10.48-50.145 31.316-12.496 20.829-18.773 51.95-18.891 93.296zm-426.533.002c0-39.606 5.852-73.332 17.538-101.19 11.805-27.86 28.615-49.025 50.421-63.522C399.703 8.21 425.823.892 456.16.892c30.339 0 56.398 7.318 78.203 21.933h.001c21.924 14.616 38.793 35.84 50.598 63.7 11.804 27.738 17.656 61.404 17.538 101.011v.001c0 39.844-5.912 73.866-17.717 102.08l-.001.002c-11.688 28.214-28.439 49.734-50.245 64.586-21.804 14.85-47.92 22.285-78.375 22.285-30.454-.118-56.633-7.612-78.556-22.463-21.805-14.851-38.616-36.371-50.422-64.586-11.687-28.215-17.481-62.177-17.363-101.903zm77.303-.002v.001c0 27.965 2.783 51.336 8.366 70.1l.001.003c5.697 18.639 13.726 32.696 24.112 42.128l.002.002c10.39 9.316 22.583 13.977 36.555 13.977 21.043 0 37.823-10.6 50.324-31.672 12.497-21.067 18.654-52.603 18.536-94.539 0-27.61-2.843-50.626-8.544-69.036-5.58-18.403-13.549-32.284-23.937-41.597-10.272-9.317-22.406-13.978-36.379-13.978-20.923 0-37.643 10.48-50.145 31.315-12.496 20.829-18.773 51.95-18.891 93.296z" stroke="#9796A5" stroke-opacity=".15"/></g><defs><clipPath id="clip0_237_17"><path fill="#fff" d="M0 0h1276v377H0z"/></clipPath></defs></svg>