<svg width="1285" height="379" fill="none" xmlns="http://www.w3.org/2000/svg"><mask id="a" maskUnits="userSpaceOnUse" x=".175" y=".392" width="1285" height="379" fill="#000"><path fill="#fff" d="M.175.392h1285v379H.175z"/><path d="M4.726 370v-55.398l129.439-119.851c11.009-10.653 20.242-20.241 27.699-28.764 7.576-8.522 13.317-16.868 17.223-25.035 3.906-8.286 5.86-17.223 5.86-26.811 0-10.654-2.427-19.828-7.28-27.522-4.853-7.812-11.482-13.79-19.887-17.933-8.404-4.261-17.933-6.392-28.586-6.392-11.127 0-20.834 2.25-29.12 6.747-8.285 4.498-14.678 10.95-19.176 19.354-4.498 8.404-6.747 18.407-6.747 30.007H1.175c0-23.793 5.386-44.448 16.158-61.967 10.772-17.52 25.864-31.073 45.277-40.66 19.413-9.589 41.785-14.383 67.116-14.383 26.042 0 48.71 4.617 68.005 13.85 19.413 9.114 34.505 21.78 45.277 37.997 10.771 16.217 16.157 34.8 16.157 55.753 0 13.731-2.722 27.284-8.167 40.66-5.327 13.376-14.856 28.232-28.587 44.567-13.731 16.217-33.085 35.689-58.061 58.416l-53.089 52.024v2.486h152.698V370H4.726zm457.52 7.99c-30.54-.118-56.818-7.635-78.835-22.55-21.899-14.914-38.767-36.517-50.604-64.808-11.719-28.291-17.519-62.322-17.401-102.095 0-39.654 5.86-73.449 17.579-101.385 11.837-27.936 28.705-49.183 50.603-63.743 22.017-14.678 48.237-22.017 78.658-22.017s56.581 7.34 78.48 22.017c22.017 14.678 38.944 35.985 50.781 63.92 11.837 27.818 17.697 61.554 17.578 101.208 0 39.891-5.918 73.982-17.755 102.273-11.719 28.29-28.528 49.893-50.426 64.808-21.899 14.915-48.118 22.372-78.658 22.372zm0-63.743c20.833 0 37.464-10.476 49.893-31.427 12.429-20.952 18.585-52.38 18.466-94.283 0-27.581-2.841-50.545-8.522-68.892-5.564-18.348-13.495-32.138-23.793-41.37-10.18-9.234-22.195-13.85-36.044-13.85-20.715 0-37.287 10.357-49.716 31.072-12.429 20.715-18.703 51.728-18.821 93.04 0 27.936 2.782 51.255 8.345 69.957 5.682 18.585 13.672 32.552 23.97 41.904 10.299 9.233 22.373 13.849 36.222 13.849zm344.238 63.743c-30.54-.118-56.818-7.635-78.835-22.55-21.899-14.914-38.767-36.517-50.604-64.808-11.718-28.291-17.519-62.322-17.4-102.095 0-39.654 5.859-73.449 17.578-101.385 11.837-27.936 28.705-49.183 50.604-63.743 22.017-14.678 48.236-22.017 78.657-22.017 30.422 0 56.582 7.34 78.48 22.017 22.017 14.678 38.944 35.985 50.782 63.92 11.837 27.818 17.696 61.554 17.578 101.208 0 39.891-5.919 73.982-17.756 102.273-11.719 28.29-28.527 49.893-50.426 64.808-21.899 14.915-48.118 22.372-78.658 22.372zm0-63.743c20.834 0 37.465-10.476 49.894-31.427 12.429-20.952 18.584-52.38 18.466-94.283 0-27.581-2.841-50.545-8.523-68.892-5.564-18.348-13.494-32.138-23.793-41.37-10.18-9.234-22.194-13.85-36.044-13.85-20.715 0-37.287 10.357-49.716 31.072-12.429 20.715-18.702 51.728-18.821 93.04 0 27.936 2.782 51.255 8.345 69.957 5.682 18.585 13.672 32.552 23.971 41.904 10.298 9.233 22.372 13.849 36.221 13.849zm341.216 60.725c-18.7-.119-36.75-3.256-54.15-9.411-17.28-6.155-32.79-16.158-46.52-30.007-13.73-13.849-24.62-32.197-32.67-55.043-7.93-22.845-11.9-50.899-11.9-84.162.12-30.539 3.61-57.824 10.48-81.853 6.98-24.148 16.93-44.626 29.83-61.435 13.02-16.809 28.58-29.593 46.7-38.352 18.11-8.878 38.41-13.317 60.9-13.317 24.26 0 45.69 4.735 64.27 14.205 18.59 9.351 33.5 22.076 44.75 38.174 11.36 16.099 18.23 34.15 20.59 54.155h-75.81c-2.96-12.666-9.18-22.609-18.65-29.83-9.47-7.22-21.18-10.83-35.15-10.83-23.68 0-41.67 10.298-53.98 30.895-12.19 20.596-18.41 48.591-18.64 83.984h2.48c5.45-10.772 12.79-19.946 22.02-27.521 9.35-7.694 19.95-13.554 31.78-17.578 11.96-4.143 24.56-6.215 37.82-6.215 21.55 0 40.72 5.09 57.53 15.27 16.81 10.061 30.07 23.911 39.77 41.548 9.71 17.638 14.56 37.82 14.56 60.547 0 24.621-5.74 46.52-17.22 65.696-11.36 19.176-27.28 34.209-47.76 45.1-20.36 10.771-44.04 16.098-71.03 15.98zm-.35-60.37c11.84 0 22.43-2.841 31.78-8.522 9.35-5.682 16.69-13.376 22.02-23.083 5.33-9.706 7.99-20.596 7.99-32.67 0-12.074-2.66-22.905-7.99-32.493-5.21-9.588-12.43-17.223-21.66-22.905-9.24-5.682-19.77-8.523-31.61-8.523-8.88 0-17.1 1.657-24.68 4.972-7.46 3.314-14.03 7.931-19.71 13.849-5.56 5.919-9.94 12.784-13.14 20.597-3.19 7.694-4.79 15.921-4.79 24.68 0 11.719 2.66 22.432 7.99 32.138 5.44 9.707 12.78 17.46 22.02 23.26 9.35 5.8 19.94 8.7 31.78 8.7z"/></mask><path d="M4.726 370v-55.398l129.439-119.851c11.009-10.653 20.242-20.241 27.699-28.764 7.576-8.522 13.317-16.868 17.223-25.035 3.906-8.286 5.86-17.223 5.86-26.811 0-10.654-2.427-19.828-7.28-27.522-4.853-7.812-11.482-13.79-19.887-17.933-8.404-4.261-17.933-6.392-28.586-6.392-11.127 0-20.834 2.25-29.12 6.747-8.285 4.498-14.678 10.95-19.176 19.354-4.498 8.404-6.747 18.407-6.747 30.007H1.175c0-23.793 5.386-44.448 16.158-61.967 10.772-17.52 25.864-31.073 45.277-40.66 19.413-9.589 41.785-14.383 67.116-14.383 26.042 0 48.71 4.617 68.005 13.85 19.413 9.114 34.505 21.78 45.277 37.997 10.771 16.217 16.157 34.8 16.157 55.753 0 13.731-2.722 27.284-8.167 40.66-5.327 13.376-14.856 28.232-28.587 44.567-13.731 16.217-33.085 35.689-58.061 58.416l-53.089 52.024v2.486h152.698V370H4.726zm457.52 7.99c-30.54-.118-56.818-7.635-78.835-22.55-21.899-14.914-38.767-36.517-50.604-64.808-11.719-28.291-17.519-62.322-17.401-102.095 0-39.654 5.86-73.449 17.579-101.385 11.837-27.936 28.705-49.183 50.603-63.743 22.017-14.678 48.237-22.017 78.658-22.017s56.581 7.34 78.48 22.017c22.017 14.678 38.944 35.985 50.781 63.92 11.837 27.818 17.697 61.554 17.578 101.208 0 39.891-5.918 73.982-17.755 102.273-11.719 28.29-28.528 49.893-50.426 64.808-21.899 14.915-48.118 22.372-78.658 22.372zm0-63.743c20.833 0 37.464-10.476 49.893-31.427 12.429-20.952 18.585-52.38 18.466-94.283 0-27.581-2.841-50.545-8.522-68.892-5.564-18.348-13.495-32.138-23.793-41.37-10.18-9.234-22.195-13.85-36.044-13.85-20.715 0-37.287 10.357-49.716 31.072-12.429 20.715-18.703 51.728-18.821 93.04 0 27.936 2.782 51.255 8.345 69.957 5.682 18.585 13.672 32.552 23.97 41.904 10.299 9.233 22.373 13.849 36.222 13.849zm344.238 63.743c-30.54-.118-56.818-7.635-78.835-22.55-21.899-14.914-38.767-36.517-50.604-64.808-11.718-28.291-17.519-62.322-17.4-102.095 0-39.654 5.859-73.449 17.578-101.385 11.837-27.936 28.705-49.183 50.604-63.743 22.017-14.678 48.236-22.017 78.657-22.017 30.422 0 56.582 7.34 78.48 22.017 22.017 14.678 38.944 35.985 50.782 63.92 11.837 27.818 17.696 61.554 17.578 101.208 0 39.891-5.919 73.982-17.756 102.273-11.719 28.29-28.527 49.893-50.426 64.808-21.899 14.915-48.118 22.372-78.658 22.372zm0-63.743c20.834 0 37.465-10.476 49.894-31.427 12.429-20.952 18.584-52.38 18.466-94.283 0-27.581-2.841-50.545-8.523-68.892-5.564-18.348-13.494-32.138-23.793-41.37-10.18-9.234-22.194-13.85-36.044-13.85-20.715 0-37.287 10.357-49.716 31.072-12.429 20.715-18.702 51.728-18.821 93.04 0 27.936 2.782 51.255 8.345 69.957 5.682 18.585 13.672 32.552 23.971 41.904 10.298 9.233 22.372 13.849 36.221 13.849zm341.216 60.725c-18.7-.119-36.75-3.256-54.15-9.411-17.28-6.155-32.79-16.158-46.52-30.007-13.73-13.849-24.62-32.197-32.67-55.043-7.93-22.845-11.9-50.899-11.9-84.162.12-30.539 3.61-57.824 10.48-81.853 6.98-24.148 16.93-44.626 29.83-61.435 13.02-16.809 28.58-29.593 46.7-38.352 18.11-8.878 38.41-13.317 60.9-13.317 24.26 0 45.69 4.735 64.27 14.205 18.59 9.351 33.5 22.076 44.75 38.174 11.36 16.099 18.23 34.15 20.59 54.155h-75.81c-2.96-12.666-9.18-22.609-18.65-29.83-9.47-7.22-21.18-10.83-35.15-10.83-23.68 0-41.67 10.298-53.98 30.895-12.19 20.596-18.41 48.591-18.64 83.984h2.48c5.45-10.772 12.79-19.946 22.02-27.521 9.35-7.694 19.95-13.554 31.78-17.578 11.96-4.143 24.56-6.215 37.82-6.215 21.55 0 40.72 5.09 57.53 15.27 16.81 10.061 30.07 23.911 39.77 41.548 9.71 17.638 14.56 37.82 14.56 60.547 0 24.621-5.74 46.52-17.22 65.696-11.36 19.176-27.28 34.209-47.76 45.1-20.36 10.771-44.04 16.098-71.03 15.98zm-.35-60.37c11.84 0 22.43-2.841 31.78-8.522 9.35-5.682 16.69-13.376 22.02-23.083 5.33-9.706 7.99-20.596 7.99-32.67 0-12.074-2.66-22.905-7.99-32.493-5.21-9.588-12.43-17.223-21.66-22.905-9.24-5.682-19.77-8.523-31.61-8.523-8.88 0-17.1 1.657-24.68 4.972-7.46 3.314-14.03 7.931-19.71 13.849-5.56 5.919-9.94 12.784-13.14 20.597-3.19 7.694-4.79 15.921-4.79 24.68 0 11.719 2.66 22.432 7.99 32.138 5.44 9.707 12.78 17.46 22.02 23.26 9.35 5.8 19.94 8.7 31.78 8.7z" fill="#fff" fill-opacity=".6"/><path d="M4.726 370v-55.398l129.439-119.851c11.009-10.653 20.242-20.241 27.699-28.764 7.576-8.522 13.317-16.868 17.223-25.035 3.906-8.286 5.86-17.223 5.86-26.811 0-10.654-2.427-19.828-7.28-27.522-4.853-7.812-11.482-13.79-19.887-17.933-8.404-4.261-17.933-6.392-28.586-6.392-11.127 0-20.834 2.25-29.12 6.747-8.285 4.498-14.678 10.95-19.176 19.354-4.498 8.404-6.747 18.407-6.747 30.007H1.175c0-23.793 5.386-44.448 16.158-61.967 10.772-17.52 25.864-31.073 45.277-40.66 19.413-9.589 41.785-14.383 67.116-14.383 26.042 0 48.71 4.617 68.005 13.85 19.413 9.114 34.505 21.78 45.277 37.997 10.771 16.217 16.157 34.8 16.157 55.753 0 13.731-2.722 27.284-8.167 40.66-5.327 13.376-14.856 28.232-28.587 44.567-13.731 16.217-33.085 35.689-58.061 58.416l-53.089 52.024v2.486h152.698V370H4.726zm457.52 7.99c-30.54-.118-56.818-7.635-78.835-22.55-21.899-14.914-38.767-36.517-50.604-64.808-11.719-28.291-17.519-62.322-17.401-102.095 0-39.654 5.86-73.449 17.579-101.385 11.837-27.936 28.705-49.183 50.603-63.743 22.017-14.678 48.237-22.017 78.658-22.017s56.581 7.34 78.48 22.017c22.017 14.678 38.944 35.985 50.781 63.92 11.837 27.818 17.697 61.554 17.578 101.208 0 39.891-5.918 73.982-17.755 102.273-11.719 28.29-28.528 49.893-50.426 64.808-21.899 14.915-48.118 22.372-78.658 22.372zm0-63.743c20.833 0 37.464-10.476 49.893-31.427 12.429-20.952 18.585-52.38 18.466-94.283 0-27.581-2.841-50.545-8.522-68.892-5.564-18.348-13.495-32.138-23.793-41.37-10.18-9.234-22.195-13.85-36.044-13.85-20.715 0-37.287 10.357-49.716 31.072-12.429 20.715-18.703 51.728-18.821 93.04 0 27.936 2.782 51.255 8.345 69.957 5.682 18.585 13.672 32.552 23.97 41.904 10.299 9.233 22.373 13.849 36.222 13.849zm344.238 63.743c-30.54-.118-56.818-7.635-78.835-22.55-21.899-14.914-38.767-36.517-50.604-64.808-11.718-28.291-17.519-62.322-17.4-102.095 0-39.654 5.859-73.449 17.578-101.385 11.837-27.936 28.705-49.183 50.604-63.743 22.017-14.678 48.236-22.017 78.657-22.017 30.422 0 56.582 7.34 78.48 22.017 22.017 14.678 38.944 35.985 50.782 63.92 11.837 27.818 17.696 61.554 17.578 101.208 0 39.891-5.919 73.982-17.756 102.273-11.719 28.29-28.527 49.893-50.426 64.808-21.899 14.915-48.118 22.372-78.658 22.372zm0-63.743c20.834 0 37.465-10.476 49.894-31.427 12.429-20.952 18.584-52.38 18.466-94.283 0-27.581-2.841-50.545-8.523-68.892-5.564-18.348-13.494-32.138-23.793-41.37-10.18-9.234-22.194-13.85-36.044-13.85-20.715 0-37.287 10.357-49.716 31.072-12.429 20.715-18.702 51.728-18.821 93.04 0 27.936 2.782 51.255 8.345 69.957 5.682 18.585 13.672 32.552 23.971 41.904 10.298 9.233 22.372 13.849 36.221 13.849zm341.216 60.725c-18.7-.119-36.75-3.256-54.15-9.411-17.28-6.155-32.79-16.158-46.52-30.007-13.73-13.849-24.62-32.197-32.67-55.043-7.93-22.845-11.9-50.899-11.9-84.162.12-30.539 3.61-57.824 10.48-81.853 6.98-24.148 16.93-44.626 29.83-61.435 13.02-16.809 28.58-29.593 46.7-38.352 18.11-8.878 38.41-13.317 60.9-13.317 24.26 0 45.69 4.735 64.27 14.205 18.59 9.351 33.5 22.076 44.75 38.174 11.36 16.099 18.23 34.15 20.59 54.155h-75.81c-2.96-12.666-9.18-22.609-18.65-29.83-9.47-7.22-21.18-10.83-35.15-10.83-23.68 0-41.67 10.298-53.98 30.895-12.19 20.596-18.41 48.591-18.64 83.984h2.48c5.45-10.772 12.79-19.946 22.02-27.521 9.35-7.694 19.95-13.554 31.78-17.578 11.96-4.143 24.56-6.215 37.82-6.215 21.55 0 40.72 5.09 57.53 15.27 16.81 10.061 30.07 23.911 39.77 41.548 9.71 17.638 14.56 37.82 14.56 60.547 0 24.621-5.74 46.52-17.22 65.696-11.36 19.176-27.28 34.209-47.76 45.1-20.36 10.771-44.04 16.098-71.03 15.98zm-.35-60.37c11.84 0 22.43-2.841 31.78-8.522 9.35-5.682 16.69-13.376 22.02-23.083 5.33-9.706 7.99-20.596 7.99-32.67 0-12.074-2.66-22.905-7.99-32.493-5.21-9.588-12.43-17.223-21.66-22.905-9.24-5.682-19.77-8.523-31.61-8.523-8.88 0-17.1 1.657-24.68 4.972-7.46 3.314-14.03 7.931-19.71 13.849-5.56 5.919-9.94 12.784-13.14 20.597-3.19 7.694-4.79 15.921-4.79 24.68 0 11.719 2.66 22.432 7.99 32.138 5.44 9.707 12.78 17.46 22.02 23.26 9.35 5.8 19.94 8.7 31.78 8.7z" stroke="#9796A5" stroke-opacity=".15" stroke-width="2" mask="url(#a)"/></svg>