<svg width="1287" height="379" fill="none" xmlns="http://www.w3.org/2000/svg"><mask id="a" maskUnits="userSpaceOnUse" x=".931" y=".392" width="1286" height="379" fill="#000"><path fill="#fff" d="M.931.392h1286v379H.931z"/><path d="M5.482 370v-55.398l129.439-119.851c11.009-10.653 20.242-20.241 27.699-28.764 7.576-8.522 13.317-16.868 17.223-25.035 3.906-8.286 5.859-17.223 5.859-26.811 0-10.654-2.426-19.828-7.279-27.522-4.854-7.812-11.482-13.79-19.887-17.933-8.404-4.261-17.933-6.392-28.586-6.392-11.127 0-20.834 2.25-29.12 6.747-8.286 4.498-14.678 10.95-19.176 19.354-4.498 8.404-6.747 18.407-6.747 30.007H1.931c0-23.793 5.386-44.448 16.158-61.967 10.772-17.52 25.864-31.073 45.277-40.66 19.413-9.59 41.784-14.384 67.116-14.384 26.042 0 48.71 4.617 68.005 13.85 19.412 9.114 34.505 21.78 45.277 37.997 10.771 16.217 16.157 34.8 16.157 55.753 0 13.731-2.722 27.284-8.167 40.66-5.327 13.376-14.856 28.232-28.587 44.567-13.731 16.217-33.085 35.689-58.061 58.416l-53.09 52.024v2.486h152.699V370H5.482zm457.52 7.99c-30.54-.118-56.818-7.635-78.835-22.55-21.899-14.914-38.767-36.517-50.604-64.808-11.719-28.291-17.519-62.322-17.401-102.095 0-39.654 5.86-73.449 17.578-101.385 11.838-27.936 28.705-49.183 50.604-63.743C406.361 8.731 432.58 1.392 463.002 1.392c30.421 0 56.581 7.34 78.48 22.017 22.017 14.678 38.944 35.985 50.781 63.92 11.837 27.818 17.697 61.554 17.578 101.208 0 39.891-5.918 73.982-17.755 102.273-11.719 28.29-28.528 49.893-50.427 64.808-21.898 14.915-48.117 22.372-78.657 22.372zm0-63.743c20.833 0 37.464-10.476 49.893-31.427 12.429-20.952 18.585-52.38 18.466-94.283 0-27.581-2.841-50.545-8.522-68.892-5.564-18.348-13.495-32.138-23.793-41.37-10.18-9.234-22.195-13.85-36.044-13.85-20.715 0-37.287 10.357-49.716 31.072-12.429 20.715-18.703 51.728-18.821 93.04 0 27.936 2.782 51.255 8.345 69.957 5.682 18.585 13.672 32.552 23.97 41.904 10.299 9.233 22.372 13.849 36.222 13.849zM807.24 377.99c-30.54-.118-56.818-7.635-78.835-22.55-21.899-14.914-38.767-36.517-50.604-64.808-11.719-28.291-17.519-62.322-17.4-102.095 0-39.654 5.859-73.449 17.578-101.385 11.837-27.936 28.705-49.183 50.603-63.743C750.6 8.731 776.819 1.392 807.24 1.392c30.422 0 56.582 7.34 78.48 22.017 22.017 14.678 38.944 35.985 50.781 63.92 11.838 27.818 17.697 61.554 17.579 101.208 0 39.891-5.919 73.982-17.756 102.273-11.719 28.29-28.528 49.893-50.426 64.808-21.899 14.915-48.118 22.372-78.658 22.372zm0-63.743c20.833 0 37.465-10.476 49.894-31.427 12.429-20.952 18.584-52.38 18.465-94.283 0-27.581-2.84-50.545-8.522-68.892-5.564-18.348-13.495-32.138-23.793-41.37-10.18-9.234-22.194-13.85-36.044-13.85-20.715 0-37.287 10.357-49.716 31.072-12.429 20.715-18.702 51.728-18.821 93.04 0 27.936 2.782 51.255 8.345 69.957 5.682 18.585 13.672 32.552 23.97 41.904 10.299 9.233 22.373 13.849 36.222 13.849zm337.31 60.725c-27.34 0-51.67-4.439-72.97-13.317-21.19-8.996-37.82-21.248-49.9-36.754-12.07-15.507-18.11-33.085-18.11-52.735 0-15.151 3.44-29.06 10.3-41.726 6.99-12.784 16.46-23.378 28.41-31.782 11.96-8.523 25.33-13.968 40.13-16.336v-2.485c-19.41-3.907-35.16-13.317-47.23-28.232-12.08-15.033-18.11-32.493-18.11-52.38 0-18.82 5.5-35.57 16.51-50.248 11.01-14.796 26.1-26.396 45.28-34.8 19.29-8.524 41.19-12.785 65.69-12.785 24.51 0 46.35 4.261 65.52 12.784 19.3 8.523 34.45 20.182 45.46 34.979 11.01 14.678 16.57 31.368 16.69 50.07-.12 20.006-6.28 37.465-18.47 52.38-12.19 14.915-27.82 24.325-46.87 28.232v2.485c14.56 2.368 27.75 7.813 39.59 16.336 11.96 8.404 21.43 18.998 28.41 31.782 7.1 12.666 10.71 26.575 10.83 41.726-.12 19.65-6.21 37.228-18.29 52.735-12.07 15.506-28.76 27.758-50.07 36.754-21.19 8.878-45.45 13.317-72.8 13.317zm0-56.463c12.2 0 22.85-2.19 31.96-6.57 9.12-4.498 16.22-10.653 21.31-18.466 5.21-7.931 7.81-17.045 7.81-27.344 0-10.535-2.66-19.827-7.99-27.876-5.32-8.168-12.54-14.56-21.66-19.176-9.11-4.735-19.59-7.103-31.43-7.103-11.72 0-22.19 2.368-31.42 7.103-9.24 4.616-16.52 11.008-21.84 19.176-5.21 8.049-7.82 17.341-7.82 27.876 0 10.299 2.55 19.413 7.64 27.344 5.09 7.813 12.25 13.968 21.48 18.466 9.24 4.38 19.89 6.57 31.96 6.57zm0-162.465c10.18 0 19.24-2.071 27.17-6.214 7.93-4.143 14.15-9.884 18.64-17.223 4.5-7.339 6.75-15.803 6.75-25.391 0-9.47-2.25-17.756-6.75-24.858-4.49-7.22-10.65-12.843-18.46-16.868-7.82-4.143-16.93-6.214-27.35-6.214-10.29 0-19.41 2.071-27.34 6.214-7.93 4.025-14.15 9.647-18.64 16.868-4.38 7.102-6.57 15.388-6.57 24.858 0 9.588 2.25 18.052 6.74 25.391 4.5 7.339 10.72 13.08 18.65 17.223 7.93 4.143 16.98 6.214 27.16 6.214z"/></mask><path d="M5.482 370v-55.398l129.439-119.851c11.009-10.653 20.242-20.241 27.699-28.764 7.576-8.522 13.317-16.868 17.223-25.035 3.906-8.286 5.859-17.223 5.859-26.811 0-10.654-2.426-19.828-7.279-27.522-4.854-7.812-11.482-13.79-19.887-17.933-8.404-4.261-17.933-6.392-28.586-6.392-11.127 0-20.834 2.25-29.12 6.747-8.286 4.498-14.678 10.95-19.176 19.354-4.498 8.404-6.747 18.407-6.747 30.007H1.931c0-23.793 5.386-44.448 16.158-61.967 10.772-17.52 25.864-31.073 45.277-40.66 19.413-9.59 41.784-14.384 67.116-14.384 26.042 0 48.71 4.617 68.005 13.85 19.412 9.114 34.505 21.78 45.277 37.997 10.771 16.217 16.157 34.8 16.157 55.753 0 13.731-2.722 27.284-8.167 40.66-5.327 13.376-14.856 28.232-28.587 44.567-13.731 16.217-33.085 35.689-58.061 58.416l-53.09 52.024v2.486h152.699V370H5.482zm457.52 7.99c-30.54-.118-56.818-7.635-78.835-22.55-21.899-14.914-38.767-36.517-50.604-64.808-11.719-28.291-17.519-62.322-17.401-102.095 0-39.654 5.86-73.449 17.578-101.385 11.838-27.936 28.705-49.183 50.604-63.743C406.361 8.731 432.58 1.392 463.002 1.392c30.421 0 56.581 7.34 78.48 22.017 22.017 14.678 38.944 35.985 50.781 63.92 11.837 27.818 17.697 61.554 17.578 101.208 0 39.891-5.918 73.982-17.755 102.273-11.719 28.29-28.528 49.893-50.427 64.808-21.898 14.915-48.117 22.372-78.657 22.372zm0-63.743c20.833 0 37.464-10.476 49.893-31.427 12.429-20.952 18.585-52.38 18.466-94.283 0-27.581-2.841-50.545-8.522-68.892-5.564-18.348-13.495-32.138-23.793-41.37-10.18-9.234-22.195-13.85-36.044-13.85-20.715 0-37.287 10.357-49.716 31.072-12.429 20.715-18.703 51.728-18.821 93.04 0 27.936 2.782 51.255 8.345 69.957 5.682 18.585 13.672 32.552 23.97 41.904 10.299 9.233 22.372 13.849 36.222 13.849zM807.24 377.99c-30.54-.118-56.818-7.635-78.835-22.55-21.899-14.914-38.767-36.517-50.604-64.808-11.719-28.291-17.519-62.322-17.4-102.095 0-39.654 5.859-73.449 17.578-101.385 11.837-27.936 28.705-49.183 50.603-63.743C750.6 8.731 776.819 1.392 807.24 1.392c30.422 0 56.582 7.34 78.48 22.017 22.017 14.678 38.944 35.985 50.781 63.92 11.838 27.818 17.697 61.554 17.579 101.208 0 39.891-5.919 73.982-17.756 102.273-11.719 28.29-28.528 49.893-50.426 64.808-21.899 14.915-48.118 22.372-78.658 22.372zm0-63.743c20.833 0 37.465-10.476 49.894-31.427 12.429-20.952 18.584-52.38 18.465-94.283 0-27.581-2.84-50.545-8.522-68.892-5.564-18.348-13.495-32.138-23.793-41.37-10.18-9.234-22.194-13.85-36.044-13.85-20.715 0-37.287 10.357-49.716 31.072-12.429 20.715-18.702 51.728-18.821 93.04 0 27.936 2.782 51.255 8.345 69.957 5.682 18.585 13.672 32.552 23.97 41.904 10.299 9.233 22.373 13.849 36.222 13.849zm337.31 60.725c-27.34 0-51.67-4.439-72.97-13.317-21.19-8.996-37.82-21.248-49.9-36.754-12.07-15.507-18.11-33.085-18.11-52.735 0-15.151 3.44-29.06 10.3-41.726 6.99-12.784 16.46-23.378 28.41-31.782 11.96-8.523 25.33-13.968 40.13-16.336v-2.485c-19.41-3.907-35.16-13.317-47.23-28.232-12.08-15.033-18.11-32.493-18.11-52.38 0-18.82 5.5-35.57 16.51-50.248 11.01-14.796 26.1-26.396 45.28-34.8 19.29-8.524 41.19-12.785 65.69-12.785 24.51 0 46.35 4.261 65.52 12.784 19.3 8.523 34.45 20.182 45.46 34.979 11.01 14.678 16.57 31.368 16.69 50.07-.12 20.006-6.28 37.465-18.47 52.38-12.19 14.915-27.82 24.325-46.87 28.232v2.485c14.56 2.368 27.75 7.813 39.59 16.336 11.96 8.404 21.43 18.998 28.41 31.782 7.1 12.666 10.71 26.575 10.83 41.726-.12 19.65-6.21 37.228-18.29 52.735-12.07 15.506-28.76 27.758-50.07 36.754-21.19 8.878-45.45 13.317-72.8 13.317zm0-56.463c12.2 0 22.85-2.19 31.96-6.57 9.12-4.498 16.22-10.653 21.31-18.466 5.21-7.931 7.81-17.045 7.81-27.344 0-10.535-2.66-19.827-7.99-27.876-5.32-8.168-12.54-14.56-21.66-19.176-9.11-4.735-19.59-7.103-31.43-7.103-11.72 0-22.19 2.368-31.42 7.103-9.24 4.616-16.52 11.008-21.84 19.176-5.21 8.049-7.82 17.341-7.82 27.876 0 10.299 2.55 19.413 7.64 27.344 5.09 7.813 12.25 13.968 21.48 18.466 9.24 4.38 19.89 6.57 31.96 6.57zm0-162.465c10.18 0 19.24-2.071 27.17-6.214 7.93-4.143 14.15-9.884 18.64-17.223 4.5-7.339 6.75-15.803 6.75-25.391 0-9.47-2.25-17.756-6.75-24.858-4.49-7.22-10.65-12.843-18.46-16.868-7.82-4.143-16.93-6.214-27.35-6.214-10.29 0-19.41 2.071-27.34 6.214-7.93 4.025-14.15 9.647-18.64 16.868-4.38 7.102-6.57 15.388-6.57 24.858 0 9.588 2.25 18.052 6.74 25.391 4.5 7.339 10.72 13.08 18.65 17.223 7.93 4.143 16.98 6.214 27.16 6.214z" fill="#fff" fill-opacity=".6"/><path d="M5.482 370v-55.398l129.439-119.851c11.009-10.653 20.242-20.241 27.699-28.764 7.576-8.522 13.317-16.868 17.223-25.035 3.906-8.286 5.859-17.223 5.859-26.811 0-10.654-2.426-19.828-7.279-27.522-4.854-7.812-11.482-13.79-19.887-17.933-8.404-4.261-17.933-6.392-28.586-6.392-11.127 0-20.834 2.25-29.12 6.747-8.286 4.498-14.678 10.95-19.176 19.354-4.498 8.404-6.747 18.407-6.747 30.007H1.931c0-23.793 5.386-44.448 16.158-61.967 10.772-17.52 25.864-31.073 45.277-40.66 19.413-9.59 41.784-14.384 67.116-14.384 26.042 0 48.71 4.617 68.005 13.85 19.412 9.114 34.505 21.78 45.277 37.997 10.771 16.217 16.157 34.8 16.157 55.753 0 13.731-2.722 27.284-8.167 40.66-5.327 13.376-14.856 28.232-28.587 44.567-13.731 16.217-33.085 35.689-58.061 58.416l-53.09 52.024v2.486h152.699V370H5.482zm457.52 7.99c-30.54-.118-56.818-7.635-78.835-22.55-21.899-14.914-38.767-36.517-50.604-64.808-11.719-28.291-17.519-62.322-17.401-102.095 0-39.654 5.86-73.449 17.578-101.385 11.838-27.936 28.705-49.183 50.604-63.743C406.361 8.731 432.58 1.392 463.002 1.392c30.421 0 56.581 7.34 78.48 22.017 22.017 14.678 38.944 35.985 50.781 63.92 11.837 27.818 17.697 61.554 17.578 101.208 0 39.891-5.918 73.982-17.755 102.273-11.719 28.29-28.528 49.893-50.427 64.808-21.898 14.915-48.117 22.372-78.657 22.372zm0-63.743c20.833 0 37.464-10.476 49.893-31.427 12.429-20.952 18.585-52.38 18.466-94.283 0-27.581-2.841-50.545-8.522-68.892-5.564-18.348-13.495-32.138-23.793-41.37-10.18-9.234-22.195-13.85-36.044-13.85-20.715 0-37.287 10.357-49.716 31.072-12.429 20.715-18.703 51.728-18.821 93.04 0 27.936 2.782 51.255 8.345 69.957 5.682 18.585 13.672 32.552 23.97 41.904 10.299 9.233 22.372 13.849 36.222 13.849zM807.24 377.99c-30.54-.118-56.818-7.635-78.835-22.55-21.899-14.914-38.767-36.517-50.604-64.808-11.719-28.291-17.519-62.322-17.4-102.095 0-39.654 5.859-73.449 17.578-101.385 11.837-27.936 28.705-49.183 50.603-63.743C750.6 8.731 776.819 1.392 807.24 1.392c30.422 0 56.582 7.34 78.48 22.017 22.017 14.678 38.944 35.985 50.781 63.92 11.838 27.818 17.697 61.554 17.579 101.208 0 39.891-5.919 73.982-17.756 102.273-11.719 28.29-28.528 49.893-50.426 64.808-21.899 14.915-48.118 22.372-78.658 22.372zm0-63.743c20.833 0 37.465-10.476 49.894-31.427 12.429-20.952 18.584-52.38 18.465-94.283 0-27.581-2.84-50.545-8.522-68.892-5.564-18.348-13.495-32.138-23.793-41.37-10.18-9.234-22.194-13.85-36.044-13.85-20.715 0-37.287 10.357-49.716 31.072-12.429 20.715-18.702 51.728-18.821 93.04 0 27.936 2.782 51.255 8.345 69.957 5.682 18.585 13.672 32.552 23.97 41.904 10.299 9.233 22.373 13.849 36.222 13.849zm337.31 60.725c-27.34 0-51.67-4.439-72.97-13.317-21.19-8.996-37.82-21.248-49.9-36.754-12.07-15.507-18.11-33.085-18.11-52.735 0-15.151 3.44-29.06 10.3-41.726 6.99-12.784 16.46-23.378 28.41-31.782 11.96-8.523 25.33-13.968 40.13-16.336v-2.485c-19.41-3.907-35.16-13.317-47.23-28.232-12.08-15.033-18.11-32.493-18.11-52.38 0-18.82 5.5-35.57 16.51-50.248 11.01-14.796 26.1-26.396 45.28-34.8 19.29-8.524 41.19-12.785 65.69-12.785 24.51 0 46.35 4.261 65.52 12.784 19.3 8.523 34.45 20.182 45.46 34.979 11.01 14.678 16.57 31.368 16.69 50.07-.12 20.006-6.28 37.465-18.47 52.38-12.19 14.915-27.82 24.325-46.87 28.232v2.485c14.56 2.368 27.75 7.813 39.59 16.336 11.96 8.404 21.43 18.998 28.41 31.782 7.1 12.666 10.71 26.575 10.83 41.726-.12 19.65-6.21 37.228-18.29 52.735-12.07 15.506-28.76 27.758-50.07 36.754-21.19 8.878-45.45 13.317-72.8 13.317zm0-56.463c12.2 0 22.85-2.19 31.96-6.57 9.12-4.498 16.22-10.653 21.31-18.466 5.21-7.931 7.81-17.045 7.81-27.344 0-10.535-2.66-19.827-7.99-27.876-5.32-8.168-12.54-14.56-21.66-19.176-9.11-4.735-19.59-7.103-31.43-7.103-11.72 0-22.19 2.368-31.42 7.103-9.24 4.616-16.52 11.008-21.84 19.176-5.21 8.049-7.82 17.341-7.82 27.876 0 10.299 2.55 19.413 7.64 27.344 5.09 7.813 12.25 13.968 21.48 18.466 9.24 4.38 19.89 6.57 31.96 6.57zm0-162.465c10.18 0 19.24-2.071 27.17-6.214 7.93-4.143 14.15-9.884 18.64-17.223 4.5-7.339 6.75-15.803 6.75-25.391 0-9.47-2.25-17.756-6.75-24.858-4.49-7.22-10.65-12.843-18.46-16.868-7.82-4.143-16.93-6.214-27.35-6.214-10.29 0-19.41 2.071-27.34 6.214-7.93 4.025-14.15 9.647-18.64 16.868-4.38 7.102-6.57 15.388-6.57 24.858 0 9.588 2.25 18.052 6.74 25.391 4.5 7.339 10.72 13.08 18.65 17.223 7.93 4.143 16.98 6.214 27.16 6.214z" stroke="#9796A5" stroke-opacity=".15" stroke-width="2" mask="url(#a)"/></svg>