<svg width="1286" height="379" fill="none" xmlns="http://www.w3.org/2000/svg"><mask id="a" maskUnits="userSpaceOnUse" x=".175" y=".39" width="1286" height="379" fill="#000"><path fill="#fff" d="M.175.39h1286v379H.175z"/><path d="M4.726 370v-55.398l129.439-119.851c11.009-10.653 20.242-20.241 27.699-28.764 7.576-8.523 13.317-16.868 17.223-25.035 3.906-8.286 5.86-17.223 5.86-26.811 0-10.654-2.427-19.828-7.28-27.522-4.853-7.812-11.482-13.79-19.887-17.933-8.404-4.261-17.933-6.392-28.586-6.392-11.127 0-20.834 2.25-29.12 6.747-8.285 4.498-14.678 10.95-19.176 19.354-4.498 8.404-6.747 18.407-6.747 30.007H1.175c0-23.793 5.386-44.448 16.158-61.967 10.772-17.52 25.864-31.073 45.277-40.66 19.413-9.589 41.785-14.383 67.116-14.383 26.042 0 48.71 4.617 68.005 13.85 19.413 9.114 34.505 21.78 45.277 37.997 10.771 16.217 16.157 34.8 16.157 55.752 0 13.732-2.722 27.285-8.167 40.661-5.327 13.376-14.856 28.232-28.587 44.567-13.731 16.217-33.085 35.689-58.061 58.416l-53.089 52.024v2.486h152.698V370H4.726zm457.52 7.99c-30.54-.118-56.818-7.635-78.835-22.55-21.899-14.914-38.767-36.517-50.604-64.808-11.719-28.291-17.519-62.322-17.401-102.095 0-39.654 5.86-73.449 17.579-101.385 11.837-27.936 28.705-49.183 50.603-63.743 22.017-14.678 48.237-22.017 78.658-22.017s56.581 7.34 78.48 22.017c22.017 14.678 38.944 35.985 50.781 63.92 11.837 27.818 17.697 61.554 17.578 101.208 0 39.891-5.918 73.982-17.755 102.273-11.719 28.29-28.528 49.893-50.426 64.808-21.899 14.915-48.118 22.372-78.658 22.372zm0-63.743c20.833 0 37.464-10.476 49.893-31.427 12.429-20.952 18.585-52.38 18.466-94.283 0-27.581-2.841-50.545-8.522-68.892-5.564-18.348-13.495-32.138-23.793-41.37-10.18-9.234-22.195-13.85-36.044-13.85-20.715 0-37.287 10.357-49.716 31.072-12.429 20.715-18.703 51.728-18.821 93.04 0 27.936 2.782 51.255 8.345 69.957 5.682 18.585 13.672 32.552 23.97 41.904 10.299 9.233 22.373 13.849 36.222 13.849zm344.238 63.743c-30.54-.118-56.818-7.635-78.835-22.55-21.899-14.914-38.767-36.517-50.604-64.808-11.718-28.291-17.519-62.322-17.4-102.095 0-39.654 5.859-73.449 17.578-101.385 11.837-27.936 28.705-49.183 50.604-63.743 22.017-14.678 48.236-22.017 78.657-22.017 30.422 0 56.582 7.34 78.48 22.017 22.017 14.678 38.944 35.985 50.782 63.92 11.837 27.818 17.696 61.554 17.578 101.208 0 39.891-5.919 73.982-17.756 102.273-11.719 28.29-28.527 49.893-50.426 64.808-21.899 14.915-48.118 22.372-78.658 22.372zm0-63.743c20.834 0 37.465-10.476 49.894-31.427 12.429-20.952 18.584-52.38 18.466-94.283 0-27.581-2.841-50.545-8.523-68.892-5.564-18.348-13.494-32.138-23.793-41.37-10.18-9.234-22.194-13.85-36.044-13.85-20.715 0-37.287 10.357-49.716 31.072-12.429 20.715-18.702 51.728-18.821 93.04 0 27.936 2.782 51.255 8.345 69.957 5.682 18.585 13.672 32.552 23.971 41.904 10.298 9.233 22.372 13.849 36.221 13.849zM1139.71 1.392c18.71 0 36.7 3.137 53.98 9.41 17.4 6.274 32.91 16.277 46.52 30.008 13.73 13.73 24.56 31.96 32.49 54.687 8.05 22.609 12.14 50.367 12.26 83.274 0 30.895-3.5 58.476-10.48 82.742-6.87 24.148-16.75 44.685-29.65 61.612-12.9 16.927-28.47 29.83-46.7 38.707-18.23 8.76-38.59 13.14-61.08 13.14-24.27 0-45.69-4.676-64.27-14.027-18.59-9.47-33.56-22.313-44.93-38.53-11.24-16.335-18.05-34.683-20.42-55.043h75.82c2.96 13.258 9.17 23.556 18.64 30.895 9.47 7.221 21.19 10.831 35.16 10.831 23.67 0 41.67-10.298 53.98-30.895 12.31-20.715 18.52-49.065 18.64-85.05h-2.48c-5.45 10.654-12.79 19.828-22.02 27.522-9.23 7.575-19.83 13.435-31.78 17.578-11.84 4.143-24.45 6.214-37.82 6.214-21.43 0-40.55-5.03-57.35-15.092-16.81-10.062-30.07-23.911-39.78-41.548-9.7-17.638-14.56-37.761-14.56-60.37-.12-24.384 5.51-46.105 16.87-65.163 11.36-19.058 27.23-33.972 47.59-44.744 20.47-10.89 44.27-16.276 71.37-16.158zm.54 60.37c-11.96 0-22.61 2.84-31.96 8.522-9.24 5.682-16.58 13.317-22.02 22.905-5.33 9.588-7.93 20.301-7.81 32.138 0 11.955 2.6 22.727 7.81 32.315 5.33 9.47 12.55 17.046 21.66 22.727 9.23 5.564 19.77 8.345 31.61 8.345 8.87 0 17.1-1.657 24.68-4.971 7.57-3.314 14.14-7.872 19.71-13.672 5.68-5.919 10.12-12.725 13.31-20.419 3.2-7.694 4.8-15.862 4.8-24.503-.12-11.482-2.84-22.017-8.17-31.605-5.33-9.588-12.67-17.282-22.02-23.082-9.35-5.8-19.88-8.7-31.6-8.7z"/></mask><path d="M4.726 370v-55.398l129.439-119.851c11.009-10.653 20.242-20.241 27.699-28.764 7.576-8.523 13.317-16.868 17.223-25.035 3.906-8.286 5.86-17.223 5.86-26.811 0-10.654-2.427-19.828-7.28-27.522-4.853-7.812-11.482-13.79-19.887-17.933-8.404-4.261-17.933-6.392-28.586-6.392-11.127 0-20.834 2.25-29.12 6.747-8.285 4.498-14.678 10.95-19.176 19.354-4.498 8.404-6.747 18.407-6.747 30.007H1.175c0-23.793 5.386-44.448 16.158-61.967 10.772-17.52 25.864-31.073 45.277-40.66 19.413-9.589 41.785-14.383 67.116-14.383 26.042 0 48.71 4.617 68.005 13.85 19.413 9.114 34.505 21.78 45.277 37.997 10.771 16.217 16.157 34.8 16.157 55.752 0 13.732-2.722 27.285-8.167 40.661-5.327 13.376-14.856 28.232-28.587 44.567-13.731 16.217-33.085 35.689-58.061 58.416l-53.089 52.024v2.486h152.698V370H4.726zm457.52 7.99c-30.54-.118-56.818-7.635-78.835-22.55-21.899-14.914-38.767-36.517-50.604-64.808-11.719-28.291-17.519-62.322-17.401-102.095 0-39.654 5.86-73.449 17.579-101.385 11.837-27.936 28.705-49.183 50.603-63.743 22.017-14.678 48.237-22.017 78.658-22.017s56.581 7.34 78.48 22.017c22.017 14.678 38.944 35.985 50.781 63.92 11.837 27.818 17.697 61.554 17.578 101.208 0 39.891-5.918 73.982-17.755 102.273-11.719 28.29-28.528 49.893-50.426 64.808-21.899 14.915-48.118 22.372-78.658 22.372zm0-63.743c20.833 0 37.464-10.476 49.893-31.427 12.429-20.952 18.585-52.38 18.466-94.283 0-27.581-2.841-50.545-8.522-68.892-5.564-18.348-13.495-32.138-23.793-41.37-10.18-9.234-22.195-13.85-36.044-13.85-20.715 0-37.287 10.357-49.716 31.072-12.429 20.715-18.703 51.728-18.821 93.04 0 27.936 2.782 51.255 8.345 69.957 5.682 18.585 13.672 32.552 23.97 41.904 10.299 9.233 22.373 13.849 36.222 13.849zm344.238 63.743c-30.54-.118-56.818-7.635-78.835-22.55-21.899-14.914-38.767-36.517-50.604-64.808-11.718-28.291-17.519-62.322-17.4-102.095 0-39.654 5.859-73.449 17.578-101.385 11.837-27.936 28.705-49.183 50.604-63.743 22.017-14.678 48.236-22.017 78.657-22.017 30.422 0 56.582 7.34 78.48 22.017 22.017 14.678 38.944 35.985 50.782 63.92 11.837 27.818 17.696 61.554 17.578 101.208 0 39.891-5.919 73.982-17.756 102.273-11.719 28.29-28.527 49.893-50.426 64.808-21.899 14.915-48.118 22.372-78.658 22.372zm0-63.743c20.834 0 37.465-10.476 49.894-31.427 12.429-20.952 18.584-52.38 18.466-94.283 0-27.581-2.841-50.545-8.523-68.892-5.564-18.348-13.494-32.138-23.793-41.37-10.18-9.234-22.194-13.85-36.044-13.85-20.715 0-37.287 10.357-49.716 31.072-12.429 20.715-18.702 51.728-18.821 93.04 0 27.936 2.782 51.255 8.345 69.957 5.682 18.585 13.672 32.552 23.971 41.904 10.298 9.233 22.372 13.849 36.221 13.849zM1139.71 1.392c18.71 0 36.7 3.137 53.98 9.41 17.4 6.274 32.91 16.277 46.52 30.008 13.73 13.73 24.56 31.96 32.49 54.687 8.05 22.609 12.14 50.367 12.26 83.274 0 30.895-3.5 58.476-10.48 82.742-6.87 24.148-16.75 44.685-29.65 61.612-12.9 16.927-28.47 29.83-46.7 38.707-18.23 8.76-38.59 13.14-61.08 13.14-24.27 0-45.69-4.676-64.27-14.027-18.59-9.47-33.56-22.313-44.93-38.53-11.24-16.335-18.05-34.683-20.42-55.043h75.82c2.96 13.258 9.17 23.556 18.64 30.895 9.47 7.221 21.19 10.831 35.16 10.831 23.67 0 41.67-10.298 53.98-30.895 12.31-20.715 18.52-49.065 18.64-85.05h-2.48c-5.45 10.654-12.79 19.828-22.02 27.522-9.23 7.575-19.83 13.435-31.78 17.578-11.84 4.143-24.45 6.214-37.82 6.214-21.43 0-40.55-5.03-57.35-15.092-16.81-10.062-30.07-23.911-39.78-41.548-9.7-17.638-14.56-37.761-14.56-60.37-.12-24.384 5.51-46.105 16.87-65.163 11.36-19.058 27.23-33.972 47.59-44.744 20.47-10.89 44.27-16.276 71.37-16.158zm.54 60.37c-11.96 0-22.61 2.84-31.96 8.522-9.24 5.682-16.58 13.317-22.02 22.905-5.33 9.588-7.93 20.301-7.81 32.138 0 11.955 2.6 22.727 7.81 32.315 5.33 9.47 12.55 17.046 21.66 22.727 9.23 5.564 19.77 8.345 31.61 8.345 8.87 0 17.1-1.657 24.68-4.971 7.57-3.314 14.14-7.872 19.71-13.672 5.68-5.919 10.12-12.725 13.31-20.419 3.2-7.694 4.8-15.862 4.8-24.503-.12-11.482-2.84-22.017-8.17-31.605-5.33-9.588-12.67-17.282-22.02-23.082-9.35-5.8-19.88-8.7-31.6-8.7z" fill="#fff" fill-opacity=".7"/><path d="M4.726 370v-55.398l129.439-119.851c11.009-10.653 20.242-20.241 27.699-28.764 7.576-8.523 13.317-16.868 17.223-25.035 3.906-8.286 5.86-17.223 5.86-26.811 0-10.654-2.427-19.828-7.28-27.522-4.853-7.812-11.482-13.79-19.887-17.933-8.404-4.261-17.933-6.392-28.586-6.392-11.127 0-20.834 2.25-29.12 6.747-8.285 4.498-14.678 10.95-19.176 19.354-4.498 8.404-6.747 18.407-6.747 30.007H1.175c0-23.793 5.386-44.448 16.158-61.967 10.772-17.52 25.864-31.073 45.277-40.66 19.413-9.589 41.785-14.383 67.116-14.383 26.042 0 48.71 4.617 68.005 13.85 19.413 9.114 34.505 21.78 45.277 37.997 10.771 16.217 16.157 34.8 16.157 55.752 0 13.732-2.722 27.285-8.167 40.661-5.327 13.376-14.856 28.232-28.587 44.567-13.731 16.217-33.085 35.689-58.061 58.416l-53.089 52.024v2.486h152.698V370H4.726zm457.52 7.99c-30.54-.118-56.818-7.635-78.835-22.55-21.899-14.914-38.767-36.517-50.604-64.808-11.719-28.291-17.519-62.322-17.401-102.095 0-39.654 5.86-73.449 17.579-101.385 11.837-27.936 28.705-49.183 50.603-63.743 22.017-14.678 48.237-22.017 78.658-22.017s56.581 7.34 78.48 22.017c22.017 14.678 38.944 35.985 50.781 63.92 11.837 27.818 17.697 61.554 17.578 101.208 0 39.891-5.918 73.982-17.755 102.273-11.719 28.29-28.528 49.893-50.426 64.808-21.899 14.915-48.118 22.372-78.658 22.372zm0-63.743c20.833 0 37.464-10.476 49.893-31.427 12.429-20.952 18.585-52.38 18.466-94.283 0-27.581-2.841-50.545-8.522-68.892-5.564-18.348-13.495-32.138-23.793-41.37-10.18-9.234-22.195-13.85-36.044-13.85-20.715 0-37.287 10.357-49.716 31.072-12.429 20.715-18.703 51.728-18.821 93.04 0 27.936 2.782 51.255 8.345 69.957 5.682 18.585 13.672 32.552 23.97 41.904 10.299 9.233 22.373 13.849 36.222 13.849zm344.238 63.743c-30.54-.118-56.818-7.635-78.835-22.55-21.899-14.914-38.767-36.517-50.604-64.808-11.718-28.291-17.519-62.322-17.4-102.095 0-39.654 5.859-73.449 17.578-101.385 11.837-27.936 28.705-49.183 50.604-63.743 22.017-14.678 48.236-22.017 78.657-22.017 30.422 0 56.582 7.34 78.48 22.017 22.017 14.678 38.944 35.985 50.782 63.92 11.837 27.818 17.696 61.554 17.578 101.208 0 39.891-5.919 73.982-17.756 102.273-11.719 28.29-28.527 49.893-50.426 64.808-21.899 14.915-48.118 22.372-78.658 22.372zm0-63.743c20.834 0 37.465-10.476 49.894-31.427 12.429-20.952 18.584-52.38 18.466-94.283 0-27.581-2.841-50.545-8.523-68.892-5.564-18.348-13.494-32.138-23.793-41.37-10.18-9.234-22.194-13.85-36.044-13.85-20.715 0-37.287 10.357-49.716 31.072-12.429 20.715-18.702 51.728-18.821 93.04 0 27.936 2.782 51.255 8.345 69.957 5.682 18.585 13.672 32.552 23.971 41.904 10.298 9.233 22.372 13.849 36.221 13.849zM1139.71 1.392c18.71 0 36.7 3.137 53.98 9.41 17.4 6.274 32.91 16.277 46.52 30.008 13.73 13.73 24.56 31.96 32.49 54.687 8.05 22.609 12.14 50.367 12.26 83.274 0 30.895-3.5 58.476-10.48 82.742-6.87 24.148-16.75 44.685-29.65 61.612-12.9 16.927-28.47 29.83-46.7 38.707-18.23 8.76-38.59 13.14-61.08 13.14-24.27 0-45.69-4.676-64.27-14.027-18.59-9.47-33.56-22.313-44.93-38.53-11.24-16.335-18.05-34.683-20.42-55.043h75.82c2.96 13.258 9.17 23.556 18.64 30.895 9.47 7.221 21.19 10.831 35.16 10.831 23.67 0 41.67-10.298 53.98-30.895 12.31-20.715 18.52-49.065 18.64-85.05h-2.48c-5.45 10.654-12.79 19.828-22.02 27.522-9.23 7.575-19.83 13.435-31.78 17.578-11.84 4.143-24.45 6.214-37.82 6.214-21.43 0-40.55-5.03-57.35-15.092-16.81-10.062-30.07-23.911-39.78-41.548-9.7-17.638-14.56-37.761-14.56-60.37-.12-24.384 5.51-46.105 16.87-65.163 11.36-19.058 27.23-33.972 47.59-44.744 20.47-10.89 44.27-16.276 71.37-16.158zm.54 60.37c-11.96 0-22.61 2.84-31.96 8.522-9.24 5.682-16.58 13.317-22.02 22.905-5.33 9.588-7.93 20.301-7.81 32.138 0 11.955 2.6 22.727 7.81 32.315 5.33 9.47 12.55 17.046 21.66 22.727 9.23 5.564 19.77 8.345 31.61 8.345 8.87 0 17.1-1.657 24.68-4.971 7.57-3.314 14.14-7.872 19.71-13.672 5.68-5.919 10.12-12.725 13.31-20.419 3.2-7.694 4.8-15.862 4.8-24.503-.12-11.482-2.84-22.017-8.17-31.605-5.33-9.588-12.67-17.282-22.02-23.082-9.35-5.8-19.88-8.7-31.6-8.7z" stroke="#9796A5" stroke-opacity=".35" stroke-width="2" mask="url(#a)"/></svg>