<svg width="1184" height="379" fill="none" xmlns="http://www.w3.org/2000/svg"><path d="M4.775 370v-55.398l129.439-119.851c11.009-10.653 20.242-20.241 27.699-28.764 7.576-8.522 13.317-16.868 17.223-25.035 3.906-8.286 5.859-17.223 5.859-26.811 0-10.654-2.426-19.828-7.279-27.522-4.854-7.812-11.482-13.79-19.887-17.933-8.404-4.261-17.933-6.392-28.586-6.392-11.127 0-20.834 2.25-29.12 6.747-8.286 4.498-14.678 10.95-19.176 19.354-4.498 8.404-6.747 18.407-6.747 30.007H1.224c0-23.793 5.386-44.448 16.158-61.967 10.772-17.52 25.864-31.073 45.277-40.66 19.413-9.589 41.785-14.383 67.116-14.383 26.042 0 48.71 4.617 68.005 13.85 19.412 9.114 34.505 21.78 45.277 37.997 10.771 16.217 16.157 34.8 16.157 55.753 0 13.731-2.722 27.284-8.167 40.66-5.327 13.376-14.856 28.232-28.587 44.567-13.731 16.217-33.085 35.689-58.061 58.416l-53.09 52.024v2.486h152.699V370H4.775zm457.52 7.99c-30.54-.118-56.818-7.635-78.835-22.55-21.899-14.914-38.767-36.517-50.604-64.808-11.719-28.291-17.519-62.322-17.401-102.095 0-39.654 5.86-73.449 17.578-101.385 11.838-27.936 28.705-49.183 50.604-63.743 22.017-14.678 48.236-22.017 78.658-22.017 30.421 0 56.581 7.34 78.48 22.017 22.017 14.678 38.944 35.985 50.781 63.92 11.837 27.818 17.697 61.554 17.578 101.208 0 39.891-5.918 73.982-17.755 102.273-11.719 28.29-28.528 49.893-50.427 64.808-21.898 14.915-48.117 22.372-78.657 22.372zm0-63.743c20.833 0 37.464-10.476 49.893-31.427 12.429-20.952 18.585-52.38 18.466-94.283 0-27.581-2.841-50.545-8.523-68.892-5.563-18.348-13.494-32.138-23.792-41.37-10.18-9.234-22.195-13.85-36.044-13.85-20.715 0-37.287 10.357-49.716 31.072-12.429 20.715-18.703 51.728-18.821 93.04 0 27.936 2.782 51.255 8.345 69.957 5.682 18.585 13.672 32.552 23.97 41.904 10.299 9.233 22.372 13.849 36.222 13.849zM822.158 6.364V370h-76.882V79.34h-2.131l-83.274 52.201V63.359l90.021-56.995h72.266zm220.832 368.608c-26.51 0-50.126-4.558-70.841-13.672-20.596-9.233-36.872-21.899-48.828-37.997-11.837-16.217-17.933-34.92-18.288-56.108h77.415c.473 8.878 3.373 16.69 8.7 23.437 5.445 6.629 12.662 11.778 21.662 15.448 9 3.669 19.12 5.504 30.36 5.504 11.72 0 22.08-2.072 31.07-6.215 9-4.143 16.04-9.884 21.13-17.223 5.09-7.339 7.64-15.802 7.64-25.39 0-9.707-2.72-18.289-8.17-25.746-5.33-7.576-13.02-13.494-23.08-17.756-9.94-4.261-21.78-6.392-35.51-6.392h-33.92v-56.463h33.92c11.6 0 21.84-2.012 30.71-6.037 9-4.024 15.98-9.588 20.96-16.69 4.97-7.221 7.45-15.625 7.45-25.213 0-9.115-2.19-17.105-6.57-23.97-4.26-6.984-10.29-12.43-18.11-16.336-7.69-3.906-16.69-5.859-26.99-5.859-10.41 0-19.94 1.894-28.58 5.682-8.64 3.67-15.568 8.937-20.776 15.802-5.209 6.866-7.99 14.915-8.345 24.148h-73.686c.355-20.951 6.332-39.417 17.933-55.398 11.6-15.98 27.225-28.468 46.875-37.464 19.768-9.115 42.079-13.672 66.939-13.672 25.09 0 47.05 4.557 65.87 13.672 18.82 9.114 33.44 21.425 43.86 36.932 10.53 15.388 15.74 32.67 15.62 51.846.12 20.36-6.21 37.346-18.99 50.959-12.67 13.613-29.18 22.254-49.54 25.923v2.841c26.75 3.433 47.11 12.725 61.08 27.877 14.08 15.033 21.07 33.854 20.95 56.463.12 20.715-5.86 39.122-17.93 55.22-11.96 16.099-28.47 28.764-49.54 37.997s-45.22 13.85-72.45 13.85z" fill="#fff" fill-opacity=".6"/><path d="M4.275 370v.5h260.233v-63.855H111.809v-1.776l52.926-51.864a.043.043 0 00.007-.006c24.981-22.732 44.35-42.218 58.1-58.457l.001-.001c13.749-16.358 23.313-31.259 28.667-44.701 5.468-13.433 8.204-27.05 8.204-40.848 0-21.043-5.411-39.725-16.241-56.03-10.827-16.3-25.993-29.023-45.479-38.172C178.619 5.519 155.875.892 129.775.892c-25.395 0-47.845 4.806-67.338 14.434-19.492 9.627-34.657 23.243-45.481 40.847C6.128 73.783.724 94.532.724 118.402v.5H74.7v-.5c0-11.536 2.236-21.454 6.688-29.771 4.453-8.32 10.775-14.7 18.974-19.15 8.2-4.452 17.822-6.687 28.881-6.687 10.585 0 20.035 2.117 28.36 6.338l.005.003c8.322 4.102 14.88 10.017 19.683 17.748l.002.003c4.794 7.602 7.202 16.679 7.202 27.255 0 9.517-1.938 18.38-5.81 26.596-3.882 8.115-9.594 16.422-17.146 24.918l-.002.003c-7.445 8.508-16.667 18.085-27.667 28.73a.008.008 0 01-.004.004L4.436 314.235l-.16.149V370zm458.018 8.49h.002c30.624 0 56.945-7.479 78.939-22.459 21.991-14.977 38.856-36.663 50.606-65.028 11.869-28.367 17.794-62.527 17.794-102.465.119-39.701-5.747-73.508-17.617-101.404-11.87-28.011-28.855-49.4-50.964-64.14C519.06 8.251 492.799.891 462.295.891c-30.505 0-56.824 7.36-78.935 22.101-21.992 14.622-38.918 35.953-50.787 63.964l-.001.002c-11.751 28.012-17.617 61.876-17.617 101.576-.118 39.821 5.689 73.921 17.439 102.289l.001.001c11.868 28.366 28.792 50.051 50.783 65.029h.001c22.111 14.979 48.49 22.517 79.114 22.636zm67.861-189.953v.001c.118 41.871-6.035 73.19-18.396 94.027-12.357 20.83-28.839 31.182-49.463 31.182-13.727 0-25.682-4.571-35.888-13.721-10.209-9.272-18.16-23.147-23.825-41.676-5.545-18.64-8.324-41.907-8.324-69.812.118-41.277 6.389-72.183 18.75-92.784 12.356-20.594 28.779-30.83 49.287-30.83 13.726 0 25.621 4.572 35.708 13.72l.002.002c10.209 9.153 18.101 22.852 23.648 41.144l.001.003c5.662 18.284 8.5 41.194 8.5 68.744zM822.658 6.364v-.5h-72.911l-.122.077-90.021 56.996-.233.147v69.361l.766-.48 83.152-52.126h1.487V370.5h77.882V6.364zm149.287 355.392l.003.001c20.788 9.147 44.472 13.715 71.042 13.715 27.29 0 51.5-4.627 72.65-13.892 21.14-9.262 37.72-21.978 49.74-38.155 12.14-16.188 18.15-34.701 18.03-55.52.12-22.721-6.9-41.667-21.08-56.802-14-15.179-34.33-24.489-60.95-27.977v-1.984c20.26-3.729 36.74-12.391 49.4-26 12.88-13.714 19.25-30.826 19.13-51.299.12-19.274-5.11-36.656-15.71-52.13-10.47-15.587-25.16-27.951-44.05-37.099-18.9-9.153-40.94-13.722-66.09-13.722-24.92 0-47.306 4.569-67.149 13.718-19.719 9.028-35.414 21.569-47.07 37.625-11.664 16.068-17.672 34.635-18.028 55.683l-.009.508h74.676l.018-.481c.352-9.138 3.102-17.086 8.244-23.864 5.151-6.79 12.008-12.006 20.568-15.645l.01-.002c8.57-3.757 18.03-5.64 28.38-5.64 10.24 0 19.16 1.94 26.77 5.805v.002c7.73 3.867 13.7 9.25 17.91 16.148v.009c4.33 6.776 6.49 14.67 6.49 23.701 0 9.496-2.46 17.798-7.36 24.927-4.92 7.018-11.82 12.527-20.75 16.52v.001c-8.8 3.99-18.97 5.992-30.51 5.992h-34.42v57.463h34.42c13.68 0 25.44 2.123 35.31 6.352v.001c9.99 4.231 17.61 10.096 22.87 17.583l.01.007c5.38 7.367 8.07 15.845 8.07 25.451 0 9.494-2.52 17.856-7.55 25.105-5.03 7.258-12 12.944-20.92 17.054-8.92 4.108-19.21 6.169-30.87 6.169-11.19 0-21.24-1.826-30.17-5.467-8.93-3.642-16.077-8.744-21.463-15.298-5.258-6.663-8.122-14.374-8.59-23.151l-.025-.473h-78.398l.009.508c.357 21.286 6.483 40.09 18.384 56.394l.003.004c12.012 16.175 28.36 28.892 49.025 38.155z" stroke="#9796A5" stroke-opacity=".15"/></svg>