<svg width="1179" height="379" fill="none" xmlns="http://www.w3.org/2000/svg"><path d="M5.437 370v-55.398l129.439-119.851c11.009-10.653 20.242-20.241 27.699-28.764 7.576-8.522 13.317-16.868 17.223-25.035 3.906-8.286 5.86-17.223 5.86-26.811 0-10.654-2.427-19.828-7.28-27.522-4.854-7.812-11.482-13.79-19.887-17.933-8.404-4.261-17.933-6.392-28.586-6.392-11.127 0-20.834 2.25-29.12 6.747-8.286 4.498-14.678 10.95-19.176 19.354-4.498 8.404-6.747 18.407-6.747 30.007H1.886c0-23.793 5.386-44.448 16.158-61.967 10.772-17.52 25.864-31.073 45.277-40.66 19.413-9.589 41.785-14.383 67.116-14.383 26.042 0 48.71 4.617 68.005 13.85 19.413 9.114 34.505 21.78 45.277 37.997 10.771 16.217 16.157 34.8 16.157 55.753 0 13.731-2.722 27.284-8.167 40.66-5.327 13.376-14.856 28.232-28.587 44.567-13.731 16.217-33.085 35.689-58.061 58.416l-53.09 52.024v2.486H264.67V370H5.437zm457.52 7.99c-30.54-.118-56.818-7.635-78.835-22.55-21.899-14.914-38.767-36.517-50.604-64.808-11.719-28.291-17.519-62.322-17.401-102.095 0-39.654 5.86-73.449 17.579-101.385 11.837-27.936 28.705-49.183 50.603-63.743 22.017-14.678 48.237-22.017 78.658-22.017s56.581 7.34 78.48 22.017c22.017 14.678 38.944 35.985 50.781 63.92 11.837 27.818 17.697 61.554 17.578 101.208 0 39.891-5.918 73.982-17.755 102.273-11.719 28.29-28.528 49.893-50.426 64.808-21.899 14.915-48.118 22.372-78.658 22.372zm0-63.743c20.833 0 37.464-10.476 49.893-31.427 12.429-20.952 18.585-52.38 18.466-94.283 0-27.581-2.841-50.545-8.522-68.892-5.564-18.348-13.495-32.138-23.793-41.37-10.18-9.234-22.195-13.85-36.044-13.85-20.715 0-37.287 10.357-49.716 31.072-12.429 20.715-18.703 51.728-18.821 93.04 0 27.936 2.782 51.255 8.345 69.957 5.682 18.585 13.672 32.552 23.97 41.904 10.299 9.233 22.372 13.849 36.222 13.849zM822.82 6.364V370h-76.882V79.34h-2.131l-83.274 52.201V63.359l90.022-56.995h72.265zm219.24 368.608c-25.1 0-47.468-4.617-67.118-13.85-19.531-9.233-35.038-21.958-46.52-38.174-11.482-16.217-17.46-34.802-17.933-55.753h74.574c.828 14.086 6.747 25.509 17.757 34.268 11.01 8.76 24.09 13.139 39.24 13.139 12.07 0 22.73-2.663 31.96-7.99 9.35-5.445 16.63-12.961 21.84-22.549 5.32-9.707 7.99-20.834 7.99-33.381 0-12.784-2.72-24.029-8.17-33.736-5.33-9.706-12.72-17.282-22.19-22.727s-20.3-8.227-32.5-8.345c-10.65 0-21.01 2.19-31.07 6.569-9.943 4.38-17.696 10.358-23.259 17.933l-68.36-12.251L935.524 6.364h222.306v62.855H998.912l-9.41 91.086h2.13c6.392-8.996 16.038-16.453 28.938-22.372 12.91-5.918 27.35-8.878 43.33-8.878 21.9 0 41.43 5.15 58.59 15.448 17.17 10.298 30.72 24.444 40.66 42.436 9.95 17.874 14.86 38.471 14.74 61.79.12 24.503-5.56 46.283-17.05 65.341-11.36 18.939-27.28 33.854-47.76 44.744-20.36 10.772-44.03 16.158-71.02 16.158z" fill="#fff" fill-opacity=".7"/><path d="M974.729 361.575l-.001-.001c-19.602-9.266-35.178-22.044-46.714-38.338-11.543-16.302-17.549-34.984-18.025-56.03l-.012-.511h75.557l.028.47c.82 13.945 6.671 25.236 17.568 33.907 10.91 8.683 23.88 13.03 38.93 13.03 12 0 22.56-2.646 31.71-7.923 9.27-5.398 16.48-12.847 21.65-22.355v-.002c5.28-9.623 7.93-20.666 7.93-33.14 0-12.711-2.71-23.87-8.11-33.491v-.004c-5.28-9.628-12.61-17.136-22-22.535-9.39-5.397-20.13-8.16-32.25-8.278-10.58 0-20.87 2.175-30.87 6.528-9.87 4.35-17.553 10.276-23.056 17.77l-.185.252-.306-.055-68.36-12.252-.451-.081.041-.456L935.026 6.319l.041-.455h223.263v63.855H999.363l-9.307 90.086h1.319c6.456-8.99 16.135-16.427 28.995-22.326 12.97-5.952 27.48-8.924 43.53-8.924 21.98 0 41.6 5.17 58.85 15.519 17.24 10.345 30.86 24.556 40.84 42.623M974.729 361.575l188.421-174.636M974.729 361.575c19.726 9.268 42.171 13.897 67.331 13.897 27.05 0 50.81-5.4 71.26-16.216v-.001m-138.591 2.32l138.591-2.32m50.27-172.558l-.44.242m.44-.242v-.001l-.44.243m.44-.242c9.99 17.958 14.92 38.641 14.8 62.032m-15.24-61.79c9.95 17.874 14.86 38.471 14.74 61.79m.5 0v-.003l-.5.003m.5 0c.12 24.584-5.58 46.455-17.12 65.598m17.12-65.598v.002l-.5-.002m0 0l-16.62 65.598m0 0l-.43-.257.43.258v-.001zm0 0c-11.41 19.021-27.4 33.998-47.95 44.928m47.95-44.928l-47.95 44.928M4.937 370v.5H265.17v-63.855H112.471v-1.776l52.926-51.864.007-.006c24.981-22.732 44.35-42.218 58.1-58.457l.001-.001c13.749-16.358 23.313-31.259 28.667-44.701 5.468-13.433 8.204-27.05 8.204-40.848 0-21.043-5.41-39.725-16.241-56.03-10.827-16.3-25.993-29.023-45.479-38.172C179.281 5.519 156.537.892 130.437.892c-25.395 0-47.845 4.806-67.338 14.434-19.492 9.627-34.657 23.243-45.481 40.847C6.791 73.783 1.386 94.532 1.386 118.402v.5h73.976v-.5c0-11.536 2.236-21.454 6.688-29.771 4.453-8.32 10.775-14.7 18.974-19.15 8.201-4.452 17.822-6.687 28.881-6.687 10.585 0 20.035 2.117 28.36 6.338l.005.003c8.322 4.102 14.88 10.017 19.683 17.748l.002.003c4.795 7.602 7.203 16.679 7.203 27.255 0 9.517-1.938 18.38-5.811 26.596-3.882 8.115-9.593 16.422-17.146 24.918l-.002.003c-7.445 8.508-16.666 18.085-27.666 28.73l-.004.004L5.098 314.235l-.16.149V370zm458.018 8.49h.002c30.624 0 56.945-7.479 78.939-22.459 21.991-14.977 38.856-36.663 50.606-65.028 11.869-28.367 17.794-62.527 17.794-102.465.119-39.701-5.747-73.508-17.617-101.404-11.87-28.011-28.855-49.4-50.964-64.14C519.722 8.251 493.462.891 462.957.891c-30.505 0-56.824 7.36-78.935 22.101-21.992 14.622-38.918 35.953-50.787 63.964l-.001.002c-11.75 28.012-17.616 61.876-17.617 101.576-.118 39.821 5.689 73.921 17.439 102.289l.001.001c11.868 28.366 28.793 50.051 50.783 65.029h.001c22.111 14.979 48.49 22.517 79.114 22.636zm67.861-189.953v.001c.119 41.871-6.035 73.19-18.396 94.027-12.357 20.83-28.839 31.182-49.463 31.182-13.727 0-25.681-4.571-35.888-13.721-10.209-9.272-18.16-23.147-23.825-41.676-5.545-18.64-8.324-41.907-8.324-69.812.118-41.277 6.389-72.183 18.75-92.784 12.356-20.594 28.78-30.83 49.287-30.83 13.726 0 25.621 4.572 35.708 13.72l.002.002c10.209 9.153 18.101 22.852 23.648 41.144l.001.003c5.662 18.284 8.5 41.194 8.5 68.744zM823.32 6.364v-.5h-72.91l-.123.077-90.021 56.996-.233.147v69.361l.766-.48 83.152-52.126h1.487V370.5h77.882V6.364zm250.7 300.248c9.35-5.445 16.63-12.961 21.84-22.549 5.32-9.707 7.99-20.834 7.99-33.381 0-12.784-2.72-24.029-8.17-33.736-5.33-9.706-12.72-17.282-22.19-22.727s-20.3-8.227-32.5-8.345l33.03 120.738zm-84.518-146.307h.502-.502z" stroke="#9796A5" stroke-opacity=".35"/></svg>