<svg width="1186" height="379" fill="none" xmlns="http://www.w3.org/2000/svg"><path d="M5.531 370v-55.398L134.97 194.751c11.009-10.653 20.242-20.241 27.699-28.764 7.576-8.522 13.317-16.868 17.223-25.035 3.906-8.286 5.859-17.223 5.859-26.811 0-10.654-2.426-19.828-7.28-27.522-4.853-7.812-11.482-13.79-19.886-17.933-8.404-4.261-17.933-6.392-28.587-6.392-11.126 0-20.833 2.25-29.119 6.747-8.286 4.498-14.678 10.95-19.176 19.354-4.498 8.404-6.747 18.407-6.747 30.007H1.98c0-23.793 5.386-44.448 16.158-61.967 10.771-17.52 25.864-31.073 45.277-40.66C82.828 6.185 105.2 1.391 130.53 1.391c26.042 0 48.71 4.617 68.004 13.85 19.413 9.114 34.506 21.78 45.277 37.997 10.772 16.217 16.158 34.8 16.158 55.753 0 13.731-2.722 27.284-8.168 40.66-5.326 13.376-14.855 28.232-28.586 44.567-13.731 16.217-33.085 35.689-58.061 58.416l-53.09 52.024v2.486h152.699V370H5.531zm457.52 7.99c-30.54-.118-56.819-7.635-78.836-22.55-21.898-14.914-38.766-36.517-50.603-64.808-11.719-28.291-17.519-62.322-17.401-102.095 0-39.654 5.86-73.449 17.578-101.385 11.837-27.936 28.705-49.183 50.604-63.743C406.41 8.731 432.629 1.392 463.051 1.392c30.421 0 56.581 7.34 78.48 22.017 22.017 14.678 38.944 35.985 50.781 63.92 11.837 27.818 17.697 61.554 17.578 101.208 0 39.891-5.918 73.982-17.756 102.273-11.718 28.29-28.527 49.893-50.426 64.808-21.898 14.915-48.118 22.372-78.657 22.372zm0-63.743c20.833 0 37.464-10.476 49.893-31.427 12.429-20.952 18.584-52.38 18.466-94.283 0-27.581-2.841-50.545-8.523-68.892-5.563-18.348-13.494-32.138-23.792-41.37-10.18-9.234-22.195-13.85-36.044-13.85-20.715 0-37.287 10.357-49.716 31.072-12.429 20.715-18.703 51.728-18.821 93.04 0 27.936 2.781 51.255 8.345 69.957 5.682 18.585 13.672 32.552 23.97 41.904 10.298 9.233 22.372 13.849 36.222 13.849zM822.914 6.364V370h-76.882V79.34h-2.131l-83.274 52.201V63.359l90.021-56.995h72.266zM1048.9 374.972c-18.7-.119-36.75-3.256-54.155-9.411-17.283-6.155-32.789-16.158-46.52-30.007-13.731-13.849-24.622-32.197-32.671-55.043-7.931-22.845-11.896-50.899-11.896-84.162.118-30.539 3.61-57.824 10.476-81.853 6.984-24.148 16.927-44.626 29.829-61.435 13.021-16.809 28.587-29.593 46.698-38.352 18.109-8.878 38.409-13.317 60.899-13.317 24.27 0 45.69 4.735 64.28 14.205 18.58 9.351 33.5 22.076 44.74 38.174 11.37 16.099 18.23 34.15 20.6 54.155h-75.82c-2.96-12.666-9.17-22.609-18.64-29.83-9.47-7.22-21.19-10.83-35.16-10.83-23.67 0-41.66 10.298-53.975 30.895-12.192 20.596-18.406 48.591-18.643 83.984h2.486c5.445-10.772 12.784-19.946 22.012-27.521 9.36-7.694 19.95-13.554 31.79-17.578 11.95-4.143 24.56-6.215 37.82-6.215 21.54 0 40.72 5.09 57.53 15.27 16.8 10.061 30.06 23.911 39.77 41.548 9.7 17.638 14.56 37.82 14.56 60.547 0 24.621-5.74 46.52-17.23 65.696-11.36 19.176-27.28 34.209-47.76 45.1-20.36 10.771-44.03 16.098-71.02 15.98zm-.36-60.37c11.84 0 22.44-2.841 31.79-8.522 9.35-5.682 16.69-13.376 22.01-23.083 5.33-9.706 7.99-20.596 7.99-32.67 0-12.074-2.66-22.905-7.99-32.493-5.2-9.588-12.43-17.223-21.66-22.905-9.23-5.682-19.77-8.523-31.6-8.523-8.88 0-17.11 1.657-24.68 4.972-7.46 3.314-14.03 7.931-19.71 13.849-5.566 5.919-9.945 12.784-13.141 20.597-3.196 7.694-4.794 15.921-4.794 24.68 0 11.719 2.663 22.432 7.99 32.138 5.445 9.707 12.785 17.46 22.015 23.26 9.35 5.8 19.95 8.7 31.78 8.7z" fill="#fff" fill-opacity=".6"/><path d="M994.578 366.033l-.001-.001c-17.357-6.182-32.927-16.227-46.707-30.126-13.795-13.913-24.719-32.329-32.787-55.228l-.001-.003c-7.955-22.914-11.924-51.027-11.924-84.326v-.001c.118-30.576 3.614-57.908 10.495-81.99v-.001c6.998-24.197 16.967-44.734 29.914-61.6l.001-.002c13.065-16.866 28.69-29.7 46.874-38.496C1008.63 5.345 1029.01.892 1051.56.892c24.33 0 45.84 4.748 64.51 14.26 18.65 9.385 33.63 22.163 44.92 38.333 11.41 16.168 18.31 34.298 20.69 54.382l.06.559h-76.77l-.09-.386c-2.94-12.564-9.1-22.402-18.46-29.546-9.37-7.143-20.98-10.728-34.86-10.728-23.49 0-41.32 10.203-53.545 30.651-12.073 20.395-18.277 48.123-18.569 83.228h1.675c5.461-10.715 12.798-19.852 22.009-27.407v-.001l.31.387c9.36-7.694 19.95-13.554 31.79-17.578l-40.652 228.987zm0 0c17.452 6.174 35.562 9.32 54.322 9.439 27.05.118 50.81-5.222 71.26-16.038v-.001m-125.582 6.6l125.582-6.6m0 0c20.55-10.931 36.54-26.028 47.96-45.286l-47.96 45.286zM5.031 370v.5h260.233v-63.855H112.565v-1.776l52.926-51.864.007-.006c24.981-22.732 44.35-42.218 58.099-58.457l.002-.001c13.749-16.358 23.313-31.259 28.667-44.701 5.468-13.433 8.204-27.05 8.204-40.848 0-21.043-5.411-39.725-16.241-56.03-10.827-16.3-25.993-29.023-45.479-38.172C179.375 5.519 156.631.892 130.531.892c-25.395 0-47.845 4.806-67.338 14.434-19.492 9.627-34.658 23.243-45.481 40.847C6.884 73.783 1.48 94.532 1.48 118.402v.5h73.976v-.5c0-11.536 2.236-21.454 6.688-29.771 4.452-8.32 10.775-14.7 18.974-19.15 8.2-4.452 17.822-6.687 28.88-6.687 10.586 0 20.035 2.117 28.361 6.338l.005.003c8.322 4.102 14.88 10.017 19.683 17.748l.002.003c4.794 7.602 7.202 16.679 7.202 27.255 0 9.517-1.938 18.38-5.81 26.596-3.882 8.115-9.594 16.422-17.146 24.918l-.002.003c-7.445 8.508-16.667 18.085-27.667 28.73a.008.008 0 01-.004.004L5.192 314.235l-.16.149V370zm458.018 8.49h.002c30.624 0 56.945-7.479 78.939-22.459 21.99-14.977 38.856-36.663 50.606-65.028 11.869-28.367 17.794-62.527 17.794-102.465.119-39.701-5.747-73.508-17.618-101.404-11.869-28.011-28.854-49.4-50.963-64.14C519.816 8.251 493.555.891 463.051.891c-30.505 0-56.824 7.36-78.935 22.101-21.992 14.622-38.918 35.953-50.787 63.964l-.001.002c-11.751 28.012-17.617 61.876-17.617 101.576-.118 39.821 5.688 73.921 17.439 102.289v.001c11.869 28.366 28.793 50.051 50.784 65.029h.001c22.111 14.979 48.49 22.517 79.114 22.636zm67.861-189.953v.001c.118 41.871-6.035 73.19-18.396 94.027-12.357 20.83-28.839 31.182-49.463 31.182-13.727 0-25.682-4.571-35.888-13.721-10.209-9.272-18.16-23.147-23.825-41.676-5.545-18.64-8.324-41.907-8.324-69.812.118-41.277 6.389-72.183 18.749-92.784 12.357-20.594 28.78-30.83 49.288-30.83 13.726 0 25.621 4.572 35.708 13.72l.002.002c10.209 9.153 18.101 22.852 23.648 41.144l.001.003c5.662 18.284 8.5 41.194 8.5 68.744zM823.414 6.364v-.5h-72.911l-.122.077-90.021 56.996-.233.147v69.361l.766-.48 83.152-52.126h1.487V370.5h77.882V6.364zM1101.9 218.073l.01.004c5.28 9.506 7.92 20.252 7.92 32.25 0 11.997-2.64 22.804-7.92 32.43-5.29 9.63-12.57 17.26-21.84 22.895-9.27 5.631-19.77 8.45-31.53 8.45-11.75 0-22.25-2.877-31.51-8.623-9.16-5.755-16.44-13.446-21.849-23.08-5.283-9.628-7.926-20.256-7.926-31.895 0-8.697 1.586-16.858 4.755-24.488l.001-.003c3.174-7.757 7.52-14.569 13.039-20.44 5.64-5.871 12.15-10.449 19.55-13.737 7.5-3.285 15.66-4.93 24.48-4.93 11.75 0 22.19 2.82 31.34 8.449 9.16 5.636 16.32 13.206 21.48 22.718z" stroke="#9796A5" stroke-opacity=".15"/></svg>