<svg width="1155" height="379" fill="none" xmlns="http://www.w3.org/2000/svg"><path d="M4.889 370v-55.398l129.438-119.851c11.009-10.653 20.242-20.241 27.699-28.764 7.576-8.522 13.317-16.868 17.223-25.035 3.907-8.286 5.86-17.223 5.86-26.811 0-10.654-2.427-19.828-7.28-27.522-4.853-7.812-11.482-13.79-19.886-17.933-8.405-4.261-17.934-6.392-28.587-6.392-11.127 0-20.833 2.25-29.119 6.747-8.286 4.498-14.678 10.95-19.177 19.354-4.498 8.404-6.747 18.407-6.747 30.007H1.337c0-23.793 5.386-44.448 16.158-61.967 10.772-17.52 25.864-31.073 45.277-40.66 19.413-9.59 41.785-14.384 67.118-14.384 26.041 0 48.709 4.617 68.004 13.85 19.413 9.114 34.505 21.78 45.277 37.997 10.772 16.217 16.157 34.8 16.157 55.753 0 13.731-2.722 27.284-8.167 40.66-5.327 13.376-14.856 28.232-28.587 44.567-13.731 16.217-33.085 35.689-58.061 58.416l-53.089 52.024v2.486h152.699V370H4.889zm457.519 7.99c-30.54-.118-56.818-7.635-78.835-22.55-21.899-14.914-38.767-36.517-50.604-64.808-11.719-28.291-17.519-62.322-17.4-102.095 0-39.654 5.859-73.449 17.578-101.385 11.837-27.936 28.705-49.183 50.603-63.743 22.017-14.678 48.237-22.017 78.658-22.017s56.582 7.34 78.48 22.017c22.017 14.678 38.944 35.985 50.781 63.92 11.838 27.818 17.697 61.554 17.579 101.208 0 39.891-5.919 73.982-17.756 102.273-11.719 28.29-28.528 49.893-50.426 64.808-21.899 14.915-48.118 22.372-78.658 22.372zm0-63.743c20.833 0 37.465-10.476 49.894-31.427 12.429-20.952 18.584-52.38 18.465-94.283 0-27.581-2.84-50.545-8.522-68.892-5.564-18.348-13.495-32.138-23.793-41.37-10.18-9.234-22.194-13.85-36.044-13.85-20.715 0-37.287 10.357-49.716 31.072-12.429 20.715-18.703 51.728-18.821 93.04 0 27.936 2.782 51.255 8.345 69.957 5.682 18.585 13.672 32.552 23.97 41.904 10.299 9.233 22.373 13.849 36.222 13.849zM822.271 6.364V370h-76.882V79.34h-2.13l-83.275 52.201V63.359l90.022-56.995h72.265zM923.079 370L1073.82 71.705v-2.486H898.221V6.364h255.149v63.743L1002.45 370h-79.371z" fill="#fff" fill-opacity=".7"/><path d="M4.389 370v.5h260.233v-63.855H111.923v-1.776l52.926-51.864.006-.006c24.981-22.732 44.35-42.218 58.1-58.457l.001-.001c13.75-16.358 23.314-31.259 28.667-44.701 5.468-13.433 8.204-27.05 8.204-40.848 0-21.043-5.41-39.725-16.241-56.03-10.827-16.3-25.993-29.023-45.479-38.172C178.732 5.519 155.988.892 129.889.892c-25.396 0-47.846 4.806-67.338 14.434-19.493 9.627-34.658 23.243-45.482 40.847C6.242 73.783.837 94.532.837 118.402v.5h73.976v-.5c0-11.536 2.237-21.454 6.688-29.771 4.453-8.32 10.775-14.7 18.974-19.15 8.201-4.452 17.822-6.687 28.881-6.687 10.585 0 20.035 2.117 28.36 6.338l.005.003c8.323 4.102 14.88 10.017 19.683 17.748l.002.003c4.795 7.602 7.203 16.679 7.203 27.255 0 9.517-1.938 18.38-5.811 26.596-3.882 8.115-9.593 16.422-17.145 24.918l-.003.003c-7.445 8.508-16.666 18.085-27.666 28.73l-.004.004L4.549 314.235l-.16.149V370zm458.017 8.49h.002c30.624 0 56.945-7.479 78.939-22.459 21.991-14.977 38.856-36.663 50.606-65.028 11.869-28.367 17.794-62.527 17.795-102.465.118-39.701-5.748-73.508-17.618-101.404-11.87-28.011-28.854-49.4-50.964-64.14C519.173 8.251 492.913.891 462.408.891c-30.505 0-56.824 7.36-78.935 22.101-21.992 14.622-38.917 35.953-50.787 63.964v.002c-11.751 28.012-17.617 61.876-17.617 101.576-.119 39.821 5.688 73.921 17.438 102.289l.001.001c11.868 28.366 28.793 50.051 50.783 65.029h.001c22.111 14.979 48.49 22.517 79.114 22.636zm67.861-189.953v.001c.119 41.871-6.035 73.19-18.395 94.027-12.357 20.83-28.84 31.182-49.464 31.182-13.726 0-25.681-4.571-35.888-13.721-10.209-9.272-18.16-23.147-23.825-41.676-5.545-18.64-8.324-41.907-8.324-69.812.118-41.277 6.39-72.183 18.75-92.784 12.356-20.594 28.78-30.83 49.287-30.83 13.726 0 25.621 4.572 35.708 13.72l.002.002c10.209 9.153 18.102 22.852 23.648 41.144l.001.003c5.662 18.284 8.5 41.194 8.5 68.744zM822.771 6.364v-.5h-72.91l-.123.077-90.021 56.996-.233.147v69.361l.766-.48 83.152-52.126h1.487V370.5h77.882V6.364zm99.862 363.411l-.367.725h80.494l.13-.275 150.93-299.894.05-.106V5.864H897.721v63.855h175.599v1.866l-150.687 298.19z" stroke="#9796A5" stroke-opacity=".35"/></svg>