<svg width="1187" height="379" fill="none" xmlns="http://www.w3.org/2000/svg"><mask id="a" maskUnits="userSpaceOnUse" x=".736" y=".392" width="1187" height="379" fill="#000"><path fill="#fff" d="M.736.392h1187v379H.736z"/><path d="M5.287 370v-55.398l129.439-119.851c11.008-10.653 20.241-20.241 27.699-28.764 7.576-8.522 13.317-16.868 17.223-25.035 3.906-8.286 5.859-17.223 5.859-26.811 0-10.654-2.426-19.828-7.28-27.522-4.853-7.812-11.482-13.79-19.886-17.933-8.404-4.261-17.933-6.392-28.587-6.392-11.127 0-20.833 2.25-29.119 6.747-8.286 4.498-14.678 10.95-19.176 19.354-4.498 8.404-6.747 18.407-6.747 30.007H1.736c0-23.793 5.386-44.448 16.157-61.967 10.772-17.52 25.865-31.073 45.278-40.66 19.412-9.589 41.785-14.383 67.116-14.383 26.042 0 48.71 4.617 68.004 13.85 19.413 9.114 34.505 21.78 45.277 37.997 10.772 16.217 16.158 34.8 16.158 55.753 0 13.731-2.723 27.284-8.168 40.66-5.326 13.376-14.855 28.232-28.586 44.567-13.731 16.217-33.085 35.689-58.061 58.416l-53.09 52.024v2.486H264.52V370H5.287zm457.52 7.99c-30.54-.118-56.819-7.635-78.836-22.55-21.898-14.914-38.766-36.517-50.603-64.808-11.719-28.291-17.519-62.322-17.401-102.095 0-39.654 5.859-73.449 17.578-101.385 11.837-27.936 28.705-49.183 50.604-63.743 22.017-14.678 48.236-22.017 78.658-22.017 30.421 0 56.581 7.34 78.48 22.017 22.017 14.678 38.944 35.985 50.781 63.92 11.837 27.818 17.696 61.554 17.578 101.208 0 39.891-5.919 73.982-17.756 102.273-11.718 28.29-28.527 49.893-50.426 64.808-21.899 14.915-48.118 22.372-78.657 22.372zm0-63.743c20.833 0 37.464-10.476 49.893-31.427 12.429-20.952 18.584-52.38 18.466-94.283 0-27.581-2.841-50.545-8.523-68.892-5.563-18.348-13.494-32.138-23.792-41.37-10.18-9.234-22.195-13.85-36.044-13.85-20.715 0-37.287 10.357-49.716 31.072-12.429 20.715-18.703 51.728-18.821 93.04 0 27.936 2.781 51.255 8.345 69.957 5.682 18.585 13.672 32.552 23.97 41.904 10.298 9.233 22.372 13.849 36.222 13.849zM822.67 6.364V370h-76.882V79.34h-2.131l-83.274 52.201V63.359l90.021-56.995h72.266zm222.08 368.608c-27.34 0-51.67-4.439-72.977-13.317-21.188-8.996-37.819-21.248-49.893-36.754-12.074-15.507-18.111-33.085-18.111-52.735 0-15.151 3.433-29.06 10.298-41.726 6.984-12.784 16.454-23.378 28.409-31.782 11.956-8.523 25.332-13.968 40.128-16.336v-2.485c-19.413-3.907-35.156-13.317-47.23-28.232-12.074-15.033-18.111-32.493-18.111-52.38 0-18.82 5.504-35.57 16.513-50.248 11.008-14.796 26.101-26.396 45.277-34.8 19.294-8.524 41.197-12.785 65.697-12.785s46.34 4.261 65.52 12.784c19.29 8.523 34.44 20.182 45.45 34.979 11.01 14.678 16.57 31.368 16.69 50.07-.12 20.006-6.27 37.465-18.46 52.38-12.2 14.915-27.82 24.325-46.88 28.232v2.485c14.56 2.368 27.76 7.813 39.6 16.336 11.95 8.404 21.42 18.998 28.41 31.782 7.1 12.666 10.71 26.575 10.83 41.726-.12 19.65-6.22 37.228-18.29 52.735-12.08 15.506-28.77 27.758-50.07 36.754-21.19 8.878-45.46 13.317-72.8 13.317zm0-56.463c12.19 0 22.84-2.19 31.96-6.57 9.11-4.498 16.22-10.653 21.31-18.466 5.2-7.931 7.81-17.045 7.81-27.344 0-10.535-2.66-19.827-7.99-27.876-5.33-8.168-12.55-14.56-21.66-19.176-9.12-4.735-19.59-7.103-31.43-7.103-11.72 0-22.2 2.368-31.43 7.103-9.23 4.616-16.511 11.008-21.838 19.176-5.208 8.049-7.813 17.341-7.813 27.876 0 10.299 2.545 19.413 7.635 27.344 5.09 7.813 12.256 13.968 21.486 18.466 9.23 4.38 19.89 6.57 31.96 6.57zm0-162.465c10.18 0 19.23-2.071 27.17-6.214 7.93-4.143 14.14-9.884 18.64-17.223 4.5-7.339 6.75-15.803 6.75-25.391 0-9.47-2.25-17.756-6.75-24.858-4.5-7.22-10.65-12.843-18.47-16.868-7.81-4.143-16.92-6.214-27.34-6.214-10.3 0-19.41 2.071-27.34 6.214-7.94 4.025-14.15 9.647-18.648 16.868-4.38 7.102-6.57 15.388-6.57 24.858 0 9.588 2.249 18.052 6.747 25.391 4.501 7.339 10.711 13.08 18.641 17.223 7.93 4.143 16.99 6.214 27.17 6.214z"/></mask><path d="M5.287 370v-55.398l129.439-119.851c11.008-10.653 20.241-20.241 27.699-28.764 7.576-8.522 13.317-16.868 17.223-25.035 3.906-8.286 5.859-17.223 5.859-26.811 0-10.654-2.426-19.828-7.28-27.522-4.853-7.812-11.482-13.79-19.886-17.933-8.404-4.261-17.933-6.392-28.587-6.392-11.127 0-20.833 2.25-29.119 6.747-8.286 4.498-14.678 10.95-19.176 19.354-4.498 8.404-6.747 18.407-6.747 30.007H1.736c0-23.793 5.386-44.448 16.157-61.967 10.772-17.52 25.865-31.073 45.278-40.66 19.412-9.589 41.785-14.383 67.116-14.383 26.042 0 48.71 4.617 68.004 13.85 19.413 9.114 34.505 21.78 45.277 37.997 10.772 16.217 16.158 34.8 16.158 55.753 0 13.731-2.723 27.284-8.168 40.66-5.326 13.376-14.855 28.232-28.586 44.567-13.731 16.217-33.085 35.689-58.061 58.416l-53.09 52.024v2.486H264.52V370H5.287zm457.52 7.99c-30.54-.118-56.819-7.635-78.836-22.55-21.898-14.914-38.766-36.517-50.603-64.808-11.719-28.291-17.519-62.322-17.401-102.095 0-39.654 5.859-73.449 17.578-101.385 11.837-27.936 28.705-49.183 50.604-63.743 22.017-14.678 48.236-22.017 78.658-22.017 30.421 0 56.581 7.34 78.48 22.017 22.017 14.678 38.944 35.985 50.781 63.92 11.837 27.818 17.696 61.554 17.578 101.208 0 39.891-5.919 73.982-17.756 102.273-11.718 28.29-28.527 49.893-50.426 64.808-21.899 14.915-48.118 22.372-78.657 22.372zm0-63.743c20.833 0 37.464-10.476 49.893-31.427 12.429-20.952 18.584-52.38 18.466-94.283 0-27.581-2.841-50.545-8.523-68.892-5.563-18.348-13.494-32.138-23.792-41.37-10.18-9.234-22.195-13.85-36.044-13.85-20.715 0-37.287 10.357-49.716 31.072-12.429 20.715-18.703 51.728-18.821 93.04 0 27.936 2.781 51.255 8.345 69.957 5.682 18.585 13.672 32.552 23.97 41.904 10.298 9.233 22.372 13.849 36.222 13.849zM822.67 6.364V370h-76.882V79.34h-2.131l-83.274 52.201V63.359l90.021-56.995h72.266zm222.08 368.608c-27.34 0-51.67-4.439-72.977-13.317-21.188-8.996-37.819-21.248-49.893-36.754-12.074-15.507-18.111-33.085-18.111-52.735 0-15.151 3.433-29.06 10.298-41.726 6.984-12.784 16.454-23.378 28.409-31.782 11.956-8.523 25.332-13.968 40.128-16.336v-2.485c-19.413-3.907-35.156-13.317-47.23-28.232-12.074-15.033-18.111-32.493-18.111-52.38 0-18.82 5.504-35.57 16.513-50.248 11.008-14.796 26.101-26.396 45.277-34.8 19.294-8.524 41.197-12.785 65.697-12.785s46.34 4.261 65.52 12.784c19.29 8.523 34.44 20.182 45.45 34.979 11.01 14.678 16.57 31.368 16.69 50.07-.12 20.006-6.27 37.465-18.46 52.38-12.2 14.915-27.82 24.325-46.88 28.232v2.485c14.56 2.368 27.76 7.813 39.6 16.336 11.95 8.404 21.42 18.998 28.41 31.782 7.1 12.666 10.71 26.575 10.83 41.726-.12 19.65-6.22 37.228-18.29 52.735-12.08 15.506-28.77 27.758-50.07 36.754-21.19 8.878-45.46 13.317-72.8 13.317zm0-56.463c12.19 0 22.84-2.19 31.96-6.57 9.11-4.498 16.22-10.653 21.31-18.466 5.2-7.931 7.81-17.045 7.81-27.344 0-10.535-2.66-19.827-7.99-27.876-5.33-8.168-12.55-14.56-21.66-19.176-9.12-4.735-19.59-7.103-31.43-7.103-11.72 0-22.2 2.368-31.43 7.103-9.23 4.616-16.511 11.008-21.838 19.176-5.208 8.049-7.813 17.341-7.813 27.876 0 10.299 2.545 19.413 7.635 27.344 5.09 7.813 12.256 13.968 21.486 18.466 9.23 4.38 19.89 6.57 31.96 6.57zm0-162.465c10.18 0 19.23-2.071 27.17-6.214 7.93-4.143 14.14-9.884 18.64-17.223 4.5-7.339 6.75-15.803 6.75-25.391 0-9.47-2.25-17.756-6.75-24.858-4.5-7.22-10.65-12.843-18.47-16.868-7.81-4.143-16.92-6.214-27.34-6.214-10.3 0-19.41 2.071-27.34 6.214-7.94 4.025-14.15 9.647-18.648 16.868-4.38 7.102-6.57 15.388-6.57 24.858 0 9.588 2.249 18.052 6.747 25.391 4.501 7.339 10.711 13.08 18.641 17.223 7.93 4.143 16.99 6.214 27.17 6.214z" fill="#fff" fill-opacity=".6"/><path d="M5.287 370v-55.398l129.439-119.851c11.008-10.653 20.241-20.241 27.699-28.764 7.576-8.522 13.317-16.868 17.223-25.035 3.906-8.286 5.859-17.223 5.859-26.811 0-10.654-2.426-19.828-7.28-27.522-4.853-7.812-11.482-13.79-19.886-17.933-8.404-4.261-17.933-6.392-28.587-6.392-11.127 0-20.833 2.25-29.119 6.747-8.286 4.498-14.678 10.95-19.176 19.354-4.498 8.404-6.747 18.407-6.747 30.007H1.736c0-23.793 5.386-44.448 16.157-61.967 10.772-17.52 25.865-31.073 45.278-40.66 19.412-9.589 41.785-14.383 67.116-14.383 26.042 0 48.71 4.617 68.004 13.85 19.413 9.114 34.505 21.78 45.277 37.997 10.772 16.217 16.158 34.8 16.158 55.753 0 13.731-2.723 27.284-8.168 40.66-5.326 13.376-14.855 28.232-28.586 44.567-13.731 16.217-33.085 35.689-58.061 58.416l-53.09 52.024v2.486H264.52V370H5.287zm457.52 7.99c-30.54-.118-56.819-7.635-78.836-22.55-21.898-14.914-38.766-36.517-50.603-64.808-11.719-28.291-17.519-62.322-17.401-102.095 0-39.654 5.859-73.449 17.578-101.385 11.837-27.936 28.705-49.183 50.604-63.743 22.017-14.678 48.236-22.017 78.658-22.017 30.421 0 56.581 7.34 78.48 22.017 22.017 14.678 38.944 35.985 50.781 63.92 11.837 27.818 17.696 61.554 17.578 101.208 0 39.891-5.919 73.982-17.756 102.273-11.718 28.29-28.527 49.893-50.426 64.808-21.899 14.915-48.118 22.372-78.657 22.372zm0-63.743c20.833 0 37.464-10.476 49.893-31.427 12.429-20.952 18.584-52.38 18.466-94.283 0-27.581-2.841-50.545-8.523-68.892-5.563-18.348-13.494-32.138-23.792-41.37-10.18-9.234-22.195-13.85-36.044-13.85-20.715 0-37.287 10.357-49.716 31.072-12.429 20.715-18.703 51.728-18.821 93.04 0 27.936 2.781 51.255 8.345 69.957 5.682 18.585 13.672 32.552 23.97 41.904 10.298 9.233 22.372 13.849 36.222 13.849zM822.67 6.364V370h-76.882V79.34h-2.131l-83.274 52.201V63.359l90.021-56.995h72.266zm222.08 368.608c-27.34 0-51.67-4.439-72.977-13.317-21.188-8.996-37.819-21.248-49.893-36.754-12.074-15.507-18.111-33.085-18.111-52.735 0-15.151 3.433-29.06 10.298-41.726 6.984-12.784 16.454-23.378 28.409-31.782 11.956-8.523 25.332-13.968 40.128-16.336v-2.485c-19.413-3.907-35.156-13.317-47.23-28.232-12.074-15.033-18.111-32.493-18.111-52.38 0-18.82 5.504-35.57 16.513-50.248 11.008-14.796 26.101-26.396 45.277-34.8 19.294-8.524 41.197-12.785 65.697-12.785s46.34 4.261 65.52 12.784c19.29 8.523 34.44 20.182 45.45 34.979 11.01 14.678 16.57 31.368 16.69 50.07-.12 20.006-6.27 37.465-18.46 52.38-12.2 14.915-27.82 24.325-46.88 28.232v2.485c14.56 2.368 27.76 7.813 39.6 16.336 11.95 8.404 21.42 18.998 28.41 31.782 7.1 12.666 10.71 26.575 10.83 41.726-.12 19.65-6.22 37.228-18.29 52.735-12.08 15.506-28.77 27.758-50.07 36.754-21.19 8.878-45.46 13.317-72.8 13.317zm0-56.463c12.19 0 22.84-2.19 31.96-6.57 9.11-4.498 16.22-10.653 21.31-18.466 5.2-7.931 7.81-17.045 7.81-27.344 0-10.535-2.66-19.827-7.99-27.876-5.33-8.168-12.55-14.56-21.66-19.176-9.12-4.735-19.59-7.103-31.43-7.103-11.72 0-22.2 2.368-31.43 7.103-9.23 4.616-16.511 11.008-21.838 19.176-5.208 8.049-7.813 17.341-7.813 27.876 0 10.299 2.545 19.413 7.635 27.344 5.09 7.813 12.256 13.968 21.486 18.466 9.23 4.38 19.89 6.57 31.96 6.57zm0-162.465c10.18 0 19.23-2.071 27.17-6.214 7.93-4.143 14.14-9.884 18.64-17.223 4.5-7.339 6.75-15.803 6.75-25.391 0-9.47-2.25-17.756-6.75-24.858-4.5-7.22-10.65-12.843-18.47-16.868-7.81-4.143-16.92-6.214-27.34-6.214-10.3 0-19.41 2.071-27.34 6.214-7.94 4.025-14.15 9.647-18.648 16.868-4.38 7.102-6.57 15.388-6.57 24.858 0 9.588 2.249 18.052 6.747 25.391 4.501 7.339 10.711 13.08 18.641 17.223 7.93 4.143 16.99 6.214 27.17 6.214z" stroke="#9796A5" stroke-opacity=".15" stroke-width="2" mask="url(#a)"/></svg>