<svg width="1188" height="379" fill="none" xmlns="http://www.w3.org/2000/svg"><path d="M5.531 370v-55.398L134.97 194.751c11.009-10.653 20.242-20.241 27.699-28.764 7.576-8.523 13.317-16.868 17.223-25.035 3.906-8.286 5.859-17.223 5.859-26.811 0-10.654-2.426-19.828-7.28-27.522-4.853-7.812-11.482-13.79-19.886-17.933-8.404-4.261-17.933-6.392-28.587-6.392-11.126 0-20.833 2.25-29.119 6.747-8.286 4.498-14.678 10.95-19.176 19.354-4.498 8.404-6.747 18.407-6.747 30.007H1.98c0-23.793 5.386-44.448 16.158-61.967 10.771-17.52 25.864-31.073 45.277-40.66C82.828 6.185 105.2 1.391 130.53 1.391c26.042 0 48.71 4.617 68.004 13.85 19.413 9.114 34.506 21.78 45.277 37.997 10.772 16.217 16.158 34.8 16.158 55.752 0 13.732-2.722 27.285-8.168 40.661-5.326 13.376-14.855 28.232-28.586 44.567-13.731 16.217-33.085 35.689-58.061 58.416l-53.09 52.024v2.486h152.699V370H5.531zm457.52 7.99c-30.54-.118-56.819-7.635-78.836-22.55-21.898-14.914-38.766-36.517-50.603-64.808-11.719-28.291-17.519-62.322-17.401-102.095 0-39.654 5.86-73.449 17.578-101.385 11.837-27.936 28.705-49.183 50.604-63.743C406.41 8.731 432.629 1.392 463.051 1.392c30.421 0 56.581 7.34 78.48 22.017 22.017 14.678 38.944 35.985 50.781 63.92 11.837 27.818 17.697 61.554 17.578 101.208 0 39.891-5.918 73.982-17.756 102.273-11.718 28.29-28.527 49.893-50.426 64.808-21.898 14.915-48.118 22.372-78.657 22.372zm0-63.743c20.833 0 37.464-10.476 49.893-31.427 12.429-20.952 18.584-52.38 18.466-94.283 0-27.581-2.841-50.545-8.523-68.892-5.563-18.348-13.494-32.138-23.792-41.37-10.18-9.234-22.195-13.85-36.044-13.85-20.715 0-37.287 10.357-49.716 31.072-12.429 20.715-18.703 51.728-18.821 93.04 0 27.936 2.781 51.255 8.345 69.957 5.682 18.585 13.672 32.552 23.97 41.904 10.298 9.233 22.372 13.849 36.222 13.849zM822.914 6.364V370h-76.882V79.34h-2.131l-83.274 52.201V63.359l90.021-56.995h72.266zm217.996-4.972c18.7 0 36.69 3.137 53.98 9.41 17.4 6.274 32.9 16.277 46.52 30.008 13.73 13.73 24.56 31.96 32.49 54.687 8.05 22.609 12.13 50.367 12.25 83.274 0 30.895-3.49 58.476-10.48 82.742-6.86 24.148-16.74 44.685-29.65 61.612-12.9 16.927-28.47 29.83-46.69 38.707-18.23 8.76-38.59 13.14-61.08 13.14-24.27 0-45.695-4.676-64.28-14.027-18.584-9.47-33.558-22.313-44.921-38.53-11.246-16.335-18.052-34.683-20.42-55.043h75.817c2.96 13.258 9.174 23.556 18.644 30.895 9.47 7.221 21.19 10.831 35.16 10.831 23.67 0 41.66-10.298 53.97-30.895 12.31-20.715 18.53-49.065 18.65-85.05h-2.49c-5.44 10.654-12.78 19.828-22.02 27.522-9.23 7.575-19.82 13.435-31.78 17.578-11.84 4.143-24.44 6.214-37.82 6.214-21.424 0-40.541-5.03-57.349-15.092-16.809-10.062-30.067-23.911-39.773-41.548-9.706-17.638-14.56-37.761-14.56-60.37-.118-24.384 5.505-46.105 16.868-65.163 11.364-19.058 27.226-33.972 47.585-44.744C990.01 6.66 1013.8 1.274 1040.91 1.392zm.53 60.37c-11.95 0-22.61 2.84-31.96 8.522-9.23 5.682-16.57 13.317-22.015 22.905-5.327 9.588-7.931 20.301-7.813 32.138 0 11.955 2.604 22.727 7.813 32.315 5.326 9.47 12.545 17.046 21.665 22.727 9.23 5.564 19.76 8.345 31.6 8.345 8.88 0 17.11-1.657 24.68-4.971 7.58-3.314 14.15-7.872 19.71-13.672 5.68-5.919 10.12-12.725 13.32-20.419 3.19-7.694 4.79-15.862 4.79-24.503-.12-11.482-2.84-22.017-8.17-31.605-5.32-9.588-12.66-17.282-22.01-23.082-9.35-5.8-19.89-8.7-31.61-8.7z" fill="#fff" fill-opacity=".7"/><path d="M1110.36 193.653c-.17 35.698-6.38 63.78-18.57 84.294-12.22 20.448-30.05 30.651-53.54 30.651-13.88 0-25.49-3.585-34.86-10.729-9.361-7.258-15.519-17.447-18.456-30.606l-.087-.391h-76.779l.065.558c2.376 20.438 9.211 38.864 20.504 55.268l.002.004c11.413 16.287 26.451 29.183 45.104 38.688l.003.001c18.664 9.392 40.164 14.081 64.504 14.081 22.55 0 42.99-4.394 61.29-13.189v-.001c18.31-8.914 33.93-21.868 46.88-38.854 12.95-16.985 22.86-37.581 29.74-61.778m-65.8-67.997l-69.45-192.26m69.45 192.26h-1.67c-5.47 10.598-12.8 19.734-22.01 27.406v.002c-9.28 7.616-19.93 13.503-31.94 17.664-11.89 4.163-24.55 6.242-37.98 6.242-21.505 0-40.713-5.051-57.606-15.163-16.887-10.108-30.206-24.024-39.954-41.736-9.752-17.719-14.621-37.927-14.622-60.608-.118-24.466 5.524-46.278 16.939-65.422 11.412-19.14 27.343-34.117 47.781-44.93C989.86 6.173 1013.74.774 1040.91.892m69.45 192.761L1040.91.892m135.25 260.758v.001l-.49-.138.49.137zm0 0c7-24.32 10.49-51.948 10.49-82.879-.12-32.946-4.21-60.764-12.28-83.441m0 0c-7.95-22.78-18.81-41.078-32.61-54.872m32.61 54.871l-.47.168.47-.165v-.002zm-32.61-54.871v-.002l-.35.354.35-.352zm0 0c-13.66-13.781-29.23-23.825-46.7-30.125 0 0 0 0 0 0l-.17.47c-17.29-6.274-35.28-9.411-53.98-9.411m0 0v-.5s0 0 0 0m0 .5v-.5s0 0 0 0M5.031 370v.5h260.233v-63.855H112.565v-1.776l52.926-51.864.007-.006c24.981-22.732 44.35-42.218 58.099-58.457l.002-.002c13.749-16.357 23.313-31.258 28.667-44.701 5.468-13.432 8.204-27.049 8.204-40.848 0-21.042-5.411-39.724-16.241-56.029-10.827-16.3-25.993-29.023-45.479-38.172C179.375 5.519 156.631.892 130.531.892c-25.395 0-47.845 4.806-67.338 14.434-19.492 9.627-34.658 23.243-45.481 40.847C6.884 73.783 1.48 94.532 1.48 118.402v.5h73.976v-.5c0-11.536 2.236-21.454 6.688-29.771 4.452-8.32 10.775-14.7 18.974-19.15 8.2-4.452 17.822-6.687 28.88-6.687 10.586 0 20.035 2.117 28.361 6.338l.005.003c8.322 4.102 14.88 10.017 19.683 17.748l.002.003c4.794 7.602 7.202 16.679 7.202 27.255 0 9.517-1.938 18.38-5.81 26.596-3.882 8.115-9.594 16.422-17.146 24.918l-.002.003c-7.445 8.508-16.667 18.085-27.667 28.73a.008.008 0 01-.004.004L5.192 314.235l-.16.149V370zm458.018 8.49h.002c30.624 0 56.945-7.479 78.939-22.459 21.99-14.977 38.856-36.663 50.606-65.028 11.869-28.367 17.794-62.527 17.794-102.465.119-39.701-5.747-73.508-17.618-101.404-11.869-28.011-28.854-49.4-50.963-64.14C519.816 8.251 493.555.891 463.051.891c-30.505 0-56.824 7.36-78.935 22.1-21.992 14.623-38.918 35.954-50.787 63.965l-.001.002c-11.751 28.012-17.617 61.876-17.617 101.576-.118 39.82 5.688 73.921 17.439 102.288v.002c11.869 28.366 28.793 50.051 50.784 65.029h.001c22.111 14.979 48.49 22.517 79.114 22.636zm67.861-189.953v.001c.118 41.871-6.035 73.19-18.396 94.027-12.357 20.83-28.839 31.182-49.463 31.182-13.727 0-25.682-4.571-35.888-13.722-10.209-9.271-18.16-23.146-23.825-41.675-5.545-18.64-8.324-41.907-8.324-69.812.118-41.277 6.389-72.183 18.749-92.784 12.357-20.594 28.78-30.83 49.288-30.83 13.726 0 25.621 4.572 35.708 13.72l.002.002c10.209 9.153 18.101 22.852 23.648 41.144l.001.003c5.662 18.284 8.5 41.194 8.5 68.744zM823.414 6.364v-.5h-72.911l-.122.077-90.021 56.996-.233.147v69.361l.766-.48 83.152-52.126h1.487V370.5h77.882V6.364zm214.836 368.608c-24.27 0-45.695-4.676-64.28-14.027l125.36.887c-18.23 8.76-38.59 13.14-61.08 13.14zm-58.098-249.645v-.005c-.117-11.758 2.468-22.384 7.75-31.89 5.403-9.514 12.678-17.085 21.838-22.72 9.27-5.63 19.83-8.45 31.7-8.45 11.63 0 22.08 2.877 31.34 8.624 9.28 5.756 16.56 13.388 21.85 22.9 5.28 9.513 7.98 19.965 8.1 31.368 0 8.576-1.58 16.677-4.75 24.306-3.18 7.638-7.58 14.392-13.22 20.265-5.52 5.751-12.03 10.271-19.55 13.56-7.51 3.285-15.66 4.929-24.48 4.929-11.75 0-22.2-2.76-31.34-8.271-9.04-5.636-16.202-13.147-21.487-22.542-5.164-9.507-7.751-20.195-7.751-32.074z" stroke="#9796A5" stroke-opacity=".35"/></svg>