<svg width="1270" height="379" fill="none" xmlns="http://www.w3.org/2000/svg"><path d="M5.295 370v-55.398l129.439-119.851c11.008-10.653 20.241-20.241 27.699-28.764 7.575-8.522 13.316-16.868 17.223-25.035 3.906-8.286 5.859-17.223 5.859-26.811 0-10.654-2.427-19.828-7.28-27.522-4.853-7.812-11.482-13.79-19.886-17.933-8.405-4.261-17.933-6.392-28.587-6.392-11.127 0-20.833 2.25-29.119 6.747-8.286 4.498-14.678 10.95-19.176 19.354-4.498 8.404-6.748 18.407-6.748 30.007H1.745c0-23.793 5.386-44.448 16.157-61.967 10.772-17.52 25.864-31.073 45.277-40.66 19.413-9.589 41.785-14.383 67.117-14.383 26.041 0 48.71 4.617 68.004 13.85 19.413 9.114 34.505 21.78 45.277 37.997 10.772 16.217 16.158 34.8 16.158 55.753 0 13.731-2.723 27.284-8.168 40.66-5.327 13.376-14.855 28.232-28.587 44.567-13.731 16.217-33.084 35.689-58.061 58.416l-53.089 52.024v2.486h152.699V370H5.295zm457.519 7.99c-30.539-.118-56.818-7.635-78.835-22.55-21.899-14.914-38.766-36.517-50.604-64.808-11.718-28.291-17.519-62.322-17.4-102.095 0-39.654 5.859-73.449 17.578-101.385 11.837-27.936 28.705-49.183 50.604-63.743 22.017-14.678 48.236-22.017 78.657-22.017 30.422 0 56.582 7.34 78.48 22.017 22.017 14.678 38.945 35.985 50.782 63.92 11.837 27.818 17.696 61.554 17.578 101.208 0 39.891-5.919 73.982-17.756 102.273-11.719 28.29-28.527 49.893-50.426 64.808-21.899 14.915-48.118 22.372-78.658 22.372zm0-63.743c20.834 0 37.465-10.476 49.894-31.427 12.429-20.952 18.584-52.38 18.466-94.283 0-27.581-2.841-50.545-8.523-68.892-5.563-18.348-13.494-32.138-23.793-41.37-10.18-9.234-22.194-13.85-36.044-13.85-20.715 0-37.287 10.357-49.716 31.072-12.429 20.715-18.702 51.728-18.821 93.04 0 27.936 2.782 51.255 8.346 69.957 5.681 18.585 13.671 32.552 23.97 41.904 10.298 9.233 22.372 13.849 36.221 13.849zM664.474 370v-55.398l129.439-119.851c11.009-10.653 20.242-20.241 27.699-28.764 7.576-8.522 13.317-16.868 17.223-25.035 3.907-8.286 5.86-17.223 5.86-26.811 0-10.654-2.427-19.828-7.28-27.522-4.853-7.812-11.482-13.79-19.887-17.933-8.404-4.261-17.933-6.392-28.586-6.392-11.127 0-20.834 2.25-29.119 6.747-8.286 4.498-14.679 10.95-19.177 19.354-4.498 8.404-6.747 18.407-6.747 30.007h-72.976c0-23.793 5.386-44.448 16.158-61.967 10.772-17.52 25.864-31.073 45.277-40.66 19.413-9.589 41.785-14.383 67.116-14.383 26.042 0 48.71 4.617 68.005 13.85 19.413 9.114 34.505 21.78 45.277 37.997 10.772 16.217 16.157 34.8 16.157 55.753 0 13.731-2.722 27.284-8.167 40.66-5.327 13.376-14.856 28.232-28.587 44.567-13.731 16.217-33.085 35.689-58.061 58.416l-53.089 52.024v2.486h152.698V370H664.474zm457.516 7.99c-30.54-.118-56.81-7.635-78.83-22.55-21.9-14.914-38.77-36.517-50.605-64.808-11.719-28.291-17.519-62.322-17.4-102.095 0-39.654 5.859-73.449 17.578-101.385 11.837-27.936 28.707-49.183 50.607-63.743 22.01-14.678 48.23-22.017 78.65-22.017 30.43 0 56.59 7.34 78.48 22.017 22.02 14.678 38.95 35.985 50.79 63.92 11.83 27.818 17.69 61.554 17.57 101.208 0 39.891-5.91 73.982-17.75 102.273-11.72 28.29-28.53 49.893-50.43 64.808-21.9 14.915-48.12 22.372-78.66 22.372zm0-63.743c20.84 0 37.47-10.476 49.9-31.427 12.43-20.952 18.58-52.38 18.46-94.283 0-27.581-2.84-50.545-8.52-68.892-5.56-18.348-13.49-32.138-23.79-41.37-10.18-9.234-22.2-13.85-36.05-13.85-20.71 0-37.28 10.357-49.71 31.072s-18.7 51.728-18.82 93.04c0 27.936 2.78 51.255 8.34 69.957 5.68 18.585 13.67 32.552 23.97 41.904 10.3 9.233 22.37 13.849 36.22 13.849z" fill="#fff" fill-opacity=".6"/><path d="M4.795 370v.5h260.233v-63.855H112.329v-1.776l52.926-51.864a.043.043 0 01.007-.006c24.981-22.732 44.35-42.218 58.099-58.457l.001-.001c13.75-16.358 23.314-31.259 28.668-44.701 5.468-13.433 8.204-27.05 8.204-40.848 0-21.043-5.411-39.725-16.241-56.03-10.828-16.3-25.994-29.023-45.48-38.172C179.139 5.519 156.394.892 130.295.892c-25.395 0-47.846 4.806-67.338 14.434-19.493 9.627-34.658 23.243-45.482 40.847C6.648 73.783 1.244 94.532 1.244 118.402v.5h73.975v-.5c0-11.536 2.237-21.454 6.689-29.771 4.452-8.32 10.774-14.7 18.973-19.15 8.201-4.452 17.823-6.687 28.881-6.687 10.585 0 20.035 2.117 28.361 6.338l.005.003c8.322 4.102 14.879 10.017 19.682 17.748l.002.003c4.795 7.602 7.203 16.679 7.203 27.255 0 9.517-1.938 18.38-5.811 26.596-3.881 8.115-9.593 16.422-17.145 24.918l-.003.003c-7.445 8.508-16.666 18.085-27.666 28.73l-.004.004L4.956 314.235l-.161.149V370zm458.017 8.49h.002c30.625 0 56.946-7.479 78.939-22.459 21.991-14.977 38.856-36.663 50.606-65.028 11.869-28.367 17.795-62.527 17.795-102.465.118-39.701-5.748-73.508-17.618-101.404-11.869-28.011-28.854-49.4-50.964-64.14C519.579 8.251 493.319.891 462.814.891c-30.504 0-56.824 7.36-78.934 22.101-21.993 14.622-38.918 35.953-50.787 63.964l-.001.002c-11.751 28.012-17.617 61.876-17.617 101.576-.119 39.821 5.688 73.921 17.438 102.289l.001.001c11.869 28.366 28.793 50.051 50.784 65.029h.001c22.111 14.979 48.489 22.517 79.113 22.636zm67.862-189.953v.001c.118 41.871-6.036 73.19-18.396 94.027-12.357 20.83-28.84 31.182-49.464 31.182-13.726 0-25.681-4.571-35.887-13.721-10.209-9.272-18.161-23.147-23.826-41.676-5.544-18.64-8.324-41.907-8.324-69.812.119-41.277 6.39-72.183 18.75-92.784 12.357-20.594 28.78-30.83 49.287-30.83 13.727 0 25.621 4.572 35.708 13.72l.003.002c10.208 9.153 18.101 22.852 23.647 41.144l.001.003c5.662 18.284 8.501 41.194 8.501 68.744zM663.974 370v.5h260.233v-63.855H771.509v-1.776l52.926-51.864.007-.007c24.981-22.732 44.349-42.218 58.099-58.456l.001-.001c13.75-16.359 23.315-31.261 28.668-44.704 5.468-13.431 8.203-27.048 8.203-40.845 0-21.043-5.41-39.725-16.241-56.03-10.827-16.3-25.994-29.024-45.481-38.173C838.317 5.519 815.573.892 789.474.892c-25.395 0-47.845 4.806-67.337 14.434-19.493 9.627-34.658 23.243-45.482 40.847-10.827 17.61-16.232 38.359-16.232 62.229v.5h73.976v-.5c0-11.536 2.236-21.454 6.688-29.771 4.453-8.32 10.775-14.7 18.974-19.15 8.201-4.452 17.822-6.687 28.881-6.687 10.585 0 20.035 2.117 28.36 6.338l.005.003c8.323 4.102 14.88 10.017 19.683 17.748l.002.003c4.795 7.602 7.203 16.679 7.203 27.255 0 9.518-1.939 18.381-5.812 26.598-3.882 8.115-9.593 16.421-17.144 24.916l-.003.003c-7.445 8.508-16.666 18.085-27.666 28.73l-.004.004-129.431 119.843-.161.149V370zm458.016 8.49h0c30.63 0 56.95-7.479 78.94-22.459 21.99-14.977 38.86-36.663 50.61-65.028 11.87-28.368 17.79-62.528 17.79-102.465.12-39.702-5.74-73.508-17.61-101.404-11.87-28.011-28.86-49.4-50.97-64.14C1178.76 8.252 1152.5.892 1121.99.892c-30.5 0-56.82 7.36-78.93 22.1-21.99 14.623-38.92 35.953-50.788 63.965v.002c-11.751 28.012-17.617 61.876-17.617 101.576-.119 39.821 5.688 73.921 17.438 102.289l.001.001c11.866 28.366 28.796 50.051 50.786 65.029h0c22.11 14.979 48.49 22.517 79.11 22.636zm59.36-258.7v.003c5.67 18.284 8.5 41.194 8.5 68.744.12 41.872-6.03 73.191-18.39 94.028-12.36 20.83-28.84 31.182-49.47 31.182-13.72 0-25.68-4.57-35.88-13.719-10.21-9.271-18.16-23.148-23.83-41.678-5.54-18.641-8.32-41.907-8.32-69.812.12-41.277 6.39-72.183 18.75-92.784 12.35-20.594 28.78-30.83 49.28-30.83 13.73 0 25.62 4.572 35.71 13.72v.002c10.21 9.153 18.11 22.852 23.65 41.144z" stroke="#9796A5" stroke-opacity=".15"/></svg>