<svg width="1240" height="379" fill="none" xmlns="http://www.w3.org/2000/svg"><mask id="a" maskUnits="userSpaceOnUse" x=".392" y=".392" width="1239" height="379" fill="#000"><path fill="#fff" d="M.392.392h1239v379H.392z"/><path d="M4.943 370v-55.398l129.439-119.851c11.009-10.653 20.242-20.241 27.699-28.764 7.576-8.522 13.317-16.868 17.223-25.035 3.906-8.286 5.859-17.223 5.859-26.811 0-10.654-2.426-19.828-7.279-27.522-4.854-7.812-11.482-13.79-19.887-17.933-8.404-4.261-17.933-6.392-28.586-6.392-11.127 0-20.834 2.25-29.12 6.747-8.286 4.498-14.678 10.95-19.176 19.354-4.498 8.404-6.747 18.407-6.747 30.007H1.392c0-23.793 5.386-44.448 16.158-61.967 10.771-17.52 25.864-31.073 45.277-40.66 19.413-9.59 41.785-14.384 67.116-14.384 26.042 0 48.71 4.617 68.004 13.85 19.413 9.114 34.506 21.78 45.277 37.997 10.772 16.217 16.158 34.8 16.158 55.753 0 13.731-2.722 27.284-8.167 40.66-5.327 13.376-14.856 28.232-28.587 44.567-13.731 16.217-33.085 35.689-58.061 58.416l-53.09 52.024v2.486h152.699V370H4.943zm457.52 7.99c-30.54-.118-56.818-7.635-78.835-22.55-21.899-14.914-38.767-36.517-50.604-64.808-11.719-28.291-17.519-62.322-17.401-102.095 0-39.654 5.86-73.449 17.578-101.385 11.838-27.936 28.705-49.183 50.604-63.743 22.017-14.678 48.236-22.017 78.658-22.017 30.421 0 56.581 7.34 78.48 22.017 22.017 14.678 38.944 35.985 50.781 63.92 11.837 27.818 17.697 61.554 17.578 101.208 0 39.891-5.918 73.982-17.755 102.273-11.719 28.29-28.528 49.893-50.427 64.808-21.898 14.915-48.117 22.372-78.657 22.372zm0-63.743c20.833 0 37.464-10.476 49.893-31.427 12.429-20.952 18.585-52.38 18.466-94.283 0-27.581-2.841-50.545-8.523-68.892-5.563-18.348-13.494-32.138-23.792-41.37-10.18-9.234-22.195-13.85-36.044-13.85-20.715 0-37.287 10.357-49.716 31.072-12.429 20.715-18.703 51.728-18.821 93.04 0 27.936 2.782 51.255 8.345 69.957 5.682 18.585 13.672 32.552 23.97 41.904 10.298 9.233 22.372 13.849 36.222 13.849zM664.123 370v-55.398l129.439-119.851c11.008-10.653 20.241-20.241 27.699-28.764 7.575-8.522 13.316-16.868 17.223-25.035 3.906-8.286 5.859-17.223 5.859-26.811 0-10.654-2.427-19.828-7.28-27.522-4.853-7.812-11.482-13.79-19.886-17.933-8.404-4.261-17.933-6.392-28.587-6.392-11.127 0-20.833 2.25-29.119 6.747-8.286 4.498-14.678 10.95-19.176 19.354-4.498 8.404-6.747 18.407-6.747 30.007h-72.976c0-23.793 5.386-44.448 16.157-61.967 10.772-17.52 25.865-31.073 45.277-40.66 19.413-9.589 41.785-14.383 67.117-14.383 26.042 0 48.71 4.617 68.004 13.85 19.413 9.114 34.505 21.78 45.277 37.997 10.772 16.217 16.158 34.8 16.158 55.753 0 13.731-2.723 27.284-8.168 40.66-5.326 13.376-14.855 28.232-28.586 44.567-13.732 16.217-33.085 35.689-58.061 58.416l-53.09 52.024v2.486h152.699V370H664.123zm314.941 0v-55.398L1108.5 194.751c11.01-10.653 20.24-20.241 27.7-28.764 7.58-8.522 13.32-16.868 17.23-25.035 3.9-8.286 5.85-17.223 5.85-26.811 0-10.654-2.42-19.828-7.28-27.522-4.85-7.812-11.48-13.79-19.88-17.933-8.41-4.261-17.93-6.392-28.59-6.392-11.13 0-20.83 2.25-29.12 6.747-8.28 4.498-14.68 10.95-19.17 19.354-4.5 8.404-6.75 18.407-6.75 30.007h-72.977c0-23.793 5.386-44.448 16.158-61.967 10.769-17.52 25.859-31.073 45.279-40.66 19.41-9.589 41.78-14.383 67.11-14.383 26.05 0 48.71 4.617 68.01 13.85 19.41 9.114 34.5 21.78 45.28 37.997 10.77 16.217 16.15 34.8 16.15 55.753 0 13.731-2.72 27.284-8.16 40.66-5.33 13.376-14.86 28.232-28.59 44.567-13.73 16.217-33.09 35.689-58.06 58.416l-53.09 52.024v2.486h152.7V370H979.064z"/></mask><path d="M4.943 370v-55.398l129.439-119.851c11.009-10.653 20.242-20.241 27.699-28.764 7.576-8.522 13.317-16.868 17.223-25.035 3.906-8.286 5.859-17.223 5.859-26.811 0-10.654-2.426-19.828-7.279-27.522-4.854-7.812-11.482-13.79-19.887-17.933-8.404-4.261-17.933-6.392-28.586-6.392-11.127 0-20.834 2.25-29.12 6.747-8.286 4.498-14.678 10.95-19.176 19.354-4.498 8.404-6.747 18.407-6.747 30.007H1.392c0-23.793 5.386-44.448 16.158-61.967 10.771-17.52 25.864-31.073 45.277-40.66 19.413-9.59 41.785-14.384 67.116-14.384 26.042 0 48.71 4.617 68.004 13.85 19.413 9.114 34.506 21.78 45.277 37.997 10.772 16.217 16.158 34.8 16.158 55.753 0 13.731-2.722 27.284-8.167 40.66-5.327 13.376-14.856 28.232-28.587 44.567-13.731 16.217-33.085 35.689-58.061 58.416l-53.09 52.024v2.486h152.699V370H4.943zm457.52 7.99c-30.54-.118-56.818-7.635-78.835-22.55-21.899-14.914-38.767-36.517-50.604-64.808-11.719-28.291-17.519-62.322-17.401-102.095 0-39.654 5.86-73.449 17.578-101.385 11.838-27.936 28.705-49.183 50.604-63.743 22.017-14.678 48.236-22.017 78.658-22.017 30.421 0 56.581 7.34 78.48 22.017 22.017 14.678 38.944 35.985 50.781 63.92 11.837 27.818 17.697 61.554 17.578 101.208 0 39.891-5.918 73.982-17.755 102.273-11.719 28.29-28.528 49.893-50.427 64.808-21.898 14.915-48.117 22.372-78.657 22.372zm0-63.743c20.833 0 37.464-10.476 49.893-31.427 12.429-20.952 18.585-52.38 18.466-94.283 0-27.581-2.841-50.545-8.523-68.892-5.563-18.348-13.494-32.138-23.792-41.37-10.18-9.234-22.195-13.85-36.044-13.85-20.715 0-37.287 10.357-49.716 31.072-12.429 20.715-18.703 51.728-18.821 93.04 0 27.936 2.782 51.255 8.345 69.957 5.682 18.585 13.672 32.552 23.97 41.904 10.298 9.233 22.372 13.849 36.222 13.849zM664.123 370v-55.398l129.439-119.851c11.008-10.653 20.241-20.241 27.699-28.764 7.575-8.522 13.316-16.868 17.223-25.035 3.906-8.286 5.859-17.223 5.859-26.811 0-10.654-2.427-19.828-7.28-27.522-4.853-7.812-11.482-13.79-19.886-17.933-8.404-4.261-17.933-6.392-28.587-6.392-11.127 0-20.833 2.25-29.119 6.747-8.286 4.498-14.678 10.95-19.176 19.354-4.498 8.404-6.747 18.407-6.747 30.007h-72.976c0-23.793 5.386-44.448 16.157-61.967 10.772-17.52 25.865-31.073 45.277-40.66 19.413-9.589 41.785-14.383 67.117-14.383 26.042 0 48.71 4.617 68.004 13.85 19.413 9.114 34.505 21.78 45.277 37.997 10.772 16.217 16.158 34.8 16.158 55.753 0 13.731-2.723 27.284-8.168 40.66-5.326 13.376-14.855 28.232-28.586 44.567-13.732 16.217-33.085 35.689-58.061 58.416l-53.09 52.024v2.486h152.699V370H664.123zm314.941 0v-55.398L1108.5 194.751c11.01-10.653 20.24-20.241 27.7-28.764 7.58-8.522 13.32-16.868 17.23-25.035 3.9-8.286 5.85-17.223 5.85-26.811 0-10.654-2.42-19.828-7.28-27.522-4.85-7.812-11.48-13.79-19.88-17.933-8.41-4.261-17.93-6.392-28.59-6.392-11.13 0-20.83 2.25-29.12 6.747-8.28 4.498-14.68 10.95-19.17 19.354-4.5 8.404-6.75 18.407-6.75 30.007h-72.977c0-23.793 5.386-44.448 16.158-61.967 10.769-17.52 25.859-31.073 45.279-40.66 19.41-9.589 41.78-14.383 67.11-14.383 26.05 0 48.71 4.617 68.01 13.85 19.41 9.114 34.5 21.78 45.28 37.997 10.77 16.217 16.15 34.8 16.15 55.753 0 13.731-2.72 27.284-8.16 40.66-5.33 13.376-14.86 28.232-28.59 44.567-13.73 16.217-33.09 35.689-58.06 58.416l-53.09 52.024v2.486h152.7V370H979.064z" fill="#fff" fill-opacity=".7"/><path d="M4.943 370v-55.398l129.439-119.851c11.009-10.653 20.242-20.241 27.699-28.764 7.576-8.522 13.317-16.868 17.223-25.035 3.906-8.286 5.859-17.223 5.859-26.811 0-10.654-2.426-19.828-7.279-27.522-4.854-7.812-11.482-13.79-19.887-17.933-8.404-4.261-17.933-6.392-28.586-6.392-11.127 0-20.834 2.25-29.12 6.747-8.286 4.498-14.678 10.95-19.176 19.354-4.498 8.404-6.747 18.407-6.747 30.007H1.392c0-23.793 5.386-44.448 16.158-61.967 10.771-17.52 25.864-31.073 45.277-40.66 19.413-9.59 41.785-14.384 67.116-14.384 26.042 0 48.71 4.617 68.004 13.85 19.413 9.114 34.506 21.78 45.277 37.997 10.772 16.217 16.158 34.8 16.158 55.753 0 13.731-2.722 27.284-8.167 40.66-5.327 13.376-14.856 28.232-28.587 44.567-13.731 16.217-33.085 35.689-58.061 58.416l-53.09 52.024v2.486h152.699V370H4.943zm457.52 7.99c-30.54-.118-56.818-7.635-78.835-22.55-21.899-14.914-38.767-36.517-50.604-64.808-11.719-28.291-17.519-62.322-17.401-102.095 0-39.654 5.86-73.449 17.578-101.385 11.838-27.936 28.705-49.183 50.604-63.743 22.017-14.678 48.236-22.017 78.658-22.017 30.421 0 56.581 7.34 78.48 22.017 22.017 14.678 38.944 35.985 50.781 63.92 11.837 27.818 17.697 61.554 17.578 101.208 0 39.891-5.918 73.982-17.755 102.273-11.719 28.29-28.528 49.893-50.427 64.808-21.898 14.915-48.117 22.372-78.657 22.372zm0-63.743c20.833 0 37.464-10.476 49.893-31.427 12.429-20.952 18.585-52.38 18.466-94.283 0-27.581-2.841-50.545-8.523-68.892-5.563-18.348-13.494-32.138-23.792-41.37-10.18-9.234-22.195-13.85-36.044-13.85-20.715 0-37.287 10.357-49.716 31.072-12.429 20.715-18.703 51.728-18.821 93.04 0 27.936 2.782 51.255 8.345 69.957 5.682 18.585 13.672 32.552 23.97 41.904 10.298 9.233 22.372 13.849 36.222 13.849zM664.123 370v-55.398l129.439-119.851c11.008-10.653 20.241-20.241 27.699-28.764 7.575-8.522 13.316-16.868 17.223-25.035 3.906-8.286 5.859-17.223 5.859-26.811 0-10.654-2.427-19.828-7.28-27.522-4.853-7.812-11.482-13.79-19.886-17.933-8.404-4.261-17.933-6.392-28.587-6.392-11.127 0-20.833 2.25-29.119 6.747-8.286 4.498-14.678 10.95-19.176 19.354-4.498 8.404-6.747 18.407-6.747 30.007h-72.976c0-23.793 5.386-44.448 16.157-61.967 10.772-17.52 25.865-31.073 45.277-40.66 19.413-9.589 41.785-14.383 67.117-14.383 26.042 0 48.71 4.617 68.004 13.85 19.413 9.114 34.505 21.78 45.277 37.997 10.772 16.217 16.158 34.8 16.158 55.753 0 13.731-2.723 27.284-8.168 40.66-5.326 13.376-14.855 28.232-28.586 44.567-13.732 16.217-33.085 35.689-58.061 58.416l-53.09 52.024v2.486h152.699V370H664.123zm314.941 0v-55.398L1108.5 194.751c11.01-10.653 20.24-20.241 27.7-28.764 7.58-8.522 13.32-16.868 17.23-25.035 3.9-8.286 5.85-17.223 5.85-26.811 0-10.654-2.42-19.828-7.28-27.522-4.85-7.812-11.48-13.79-19.88-17.933-8.41-4.261-17.93-6.392-28.59-6.392-11.13 0-20.83 2.25-29.12 6.747-8.28 4.498-14.68 10.95-19.17 19.354-4.5 8.404-6.75 18.407-6.75 30.007h-72.977c0-23.793 5.386-44.448 16.158-61.967 10.769-17.52 25.859-31.073 45.279-40.66 19.41-9.589 41.78-14.383 67.11-14.383 26.05 0 48.71 4.617 68.01 13.85 19.41 9.114 34.5 21.78 45.28 37.997 10.77 16.217 16.15 34.8 16.15 55.753 0 13.731-2.72 27.284-8.16 40.66-5.33 13.376-14.86 28.232-28.59 44.567-13.73 16.217-33.09 35.689-58.06 58.416l-53.09 52.024v2.486h152.7V370H979.064z" stroke="#9796A5" stroke-opacity=".35" stroke-width="2" mask="url(#a)"/></svg>