<svg width="1255" height="379" fill="none" xmlns="http://www.w3.org/2000/svg"><mask id="a" maskUnits="userSpaceOnUse" x=".068" y=".392" width="1254" height="379" fill="#000"><path fill="#fff" d="M.068.392h1254v379H.068z"/><path d="M4.619 370v-55.398l129.439-119.851c11.008-10.653 20.241-20.241 27.699-28.764 7.576-8.522 13.317-16.868 17.223-25.035 3.906-8.286 5.859-17.223 5.859-26.811 0-10.654-2.426-19.828-7.28-27.522-4.853-7.812-11.482-13.79-19.886-17.933-8.404-4.261-17.933-6.392-28.587-6.392-11.127 0-20.833 2.25-29.119 6.747-8.286 4.498-14.678 10.95-19.176 19.354-4.498 8.404-6.747 18.407-6.747 30.007H1.068c0-23.793 5.386-44.448 16.157-61.967 10.772-17.52 25.865-31.073 45.278-40.66 19.412-9.589 41.785-14.383 67.116-14.383 26.042 0 48.71 4.617 68.004 13.85 19.413 9.114 34.505 21.78 45.277 37.997 10.772 16.217 16.158 34.8 16.158 55.753 0 13.731-2.723 27.284-8.168 40.66-5.326 13.376-14.855 28.232-28.586 44.567-13.731 16.217-33.085 35.689-58.061 58.416l-53.09 52.024v2.486h152.699V370H4.619zm457.52 7.99c-30.54-.118-56.819-7.635-78.836-22.55-21.898-14.914-38.766-36.517-50.603-64.808-11.719-28.291-17.519-62.322-17.401-102.095 0-39.654 5.859-73.449 17.578-101.385 11.837-27.936 28.705-49.183 50.604-63.743 22.017-14.678 48.236-22.017 78.658-22.017 30.421 0 56.581 7.34 78.48 22.017 22.017 14.678 38.944 35.985 50.781 63.92 11.837 27.818 17.696 61.554 17.578 101.208 0 39.891-5.919 73.982-17.756 102.273-11.718 28.29-28.527 49.893-50.426 64.808-21.898 14.915-48.118 22.372-78.657 22.372zm0-63.743c20.833 0 37.464-10.476 49.893-31.427 12.429-20.952 18.584-52.38 18.466-94.283 0-27.581-2.841-50.545-8.523-68.892-5.563-18.348-13.494-32.138-23.792-41.37-10.18-9.234-22.195-13.85-36.044-13.85-20.715 0-37.287 10.357-49.716 31.072-12.429 20.715-18.703 51.728-18.821 93.04 0 27.936 2.781 51.255 8.345 69.957 5.682 18.585 13.672 32.552 23.97 41.904 10.298 9.233 22.372 13.849 36.222 13.849zM663.799 370v-55.398l129.439-119.851c11.008-10.653 20.241-20.241 27.698-28.764 7.576-8.522 13.317-16.868 17.223-25.035 3.907-8.286 5.86-17.223 5.86-26.811 0-10.654-2.427-19.828-7.28-27.522-4.853-7.812-11.482-13.79-19.886-17.933-8.405-4.261-17.934-6.392-28.587-6.392-11.127 0-20.833 2.25-29.119 6.747-8.286 4.498-14.678 10.95-19.176 19.354-4.499 8.404-6.748 18.407-6.748 30.007h-72.975c0-23.793 5.385-44.448 16.157-61.967 10.772-17.52 25.864-31.073 45.277-40.66 19.413-9.589 41.785-14.383 67.117-14.383 26.041 0 48.709 4.617 68.004 13.85 19.413 9.114 34.505 21.78 45.277 37.997 10.772 16.217 16.158 34.8 16.158 55.753 0 13.731-2.723 27.284-8.168 40.66-5.327 13.376-14.856 28.232-28.587 44.567-13.731 16.217-33.084 35.689-58.061 58.416l-53.089 52.024v2.486h152.699V370H663.799zm449.351 4.972c-26.51 0-50.13-4.558-70.84-13.672-20.6-9.233-36.88-21.899-48.833-37.997-11.837-16.217-17.933-34.92-18.288-56.108h77.411c.48 8.878 3.38 16.69 8.7 23.437 5.45 6.629 12.67 11.778 21.67 15.448 8.99 3.669 19.11 5.504 30.36 5.504 11.72 0 22.07-2.072 31.07-6.215s16.04-9.884 21.13-17.223c5.09-7.339 7.63-15.802 7.63-25.39 0-9.707-2.72-18.289-8.16-25.746-5.33-7.576-13.02-13.494-23.09-17.756-9.94-4.261-21.78-6.392-35.51-6.392h-33.91v-56.463h33.91c11.6 0 21.84-2.012 30.72-6.037 9-4.024 15.98-9.588 20.95-16.69 4.97-7.221 7.46-15.625 7.46-25.213 0-9.115-2.19-17.105-6.57-23.97-4.26-6.984-10.3-12.43-18.11-16.336-7.69-3.906-16.69-5.859-26.99-5.859-10.42 0-19.94 1.894-28.59 5.682-8.64 3.67-15.56 8.937-20.77 15.802-5.21 6.866-7.99 14.915-8.35 24.148h-73.681c.355-20.951 6.333-39.417 17.931-55.398 11.6-15.98 27.23-28.468 46.88-37.464 19.76-9.115 42.08-13.672 66.94-13.672 25.09 0 47.05 4.557 65.87 13.672 18.82 9.114 33.44 21.425 43.86 36.932 10.53 15.388 15.74 32.67 15.62 51.846.12 20.36-6.21 37.346-19 50.959-12.66 13.613-29.18 22.254-49.54 25.923v2.841c26.76 3.433 47.12 12.725 61.08 27.877 14.09 15.033 21.07 33.854 20.96 56.463.11 20.715-5.86 39.122-17.94 55.22-11.95 16.099-28.47 28.764-49.54 37.997s-45.21 13.85-72.44 13.85z"/></mask><path d="M4.619 370v-55.398l129.439-119.851c11.008-10.653 20.241-20.241 27.699-28.764 7.576-8.522 13.317-16.868 17.223-25.035 3.906-8.286 5.859-17.223 5.859-26.811 0-10.654-2.426-19.828-7.28-27.522-4.853-7.812-11.482-13.79-19.886-17.933-8.404-4.261-17.933-6.392-28.587-6.392-11.127 0-20.833 2.25-29.119 6.747-8.286 4.498-14.678 10.95-19.176 19.354-4.498 8.404-6.747 18.407-6.747 30.007H1.068c0-23.793 5.386-44.448 16.157-61.967 10.772-17.52 25.865-31.073 45.278-40.66 19.412-9.589 41.785-14.383 67.116-14.383 26.042 0 48.71 4.617 68.004 13.85 19.413 9.114 34.505 21.78 45.277 37.997 10.772 16.217 16.158 34.8 16.158 55.753 0 13.731-2.723 27.284-8.168 40.66-5.326 13.376-14.855 28.232-28.586 44.567-13.731 16.217-33.085 35.689-58.061 58.416l-53.09 52.024v2.486h152.699V370H4.619zm457.52 7.99c-30.54-.118-56.819-7.635-78.836-22.55-21.898-14.914-38.766-36.517-50.603-64.808-11.719-28.291-17.519-62.322-17.401-102.095 0-39.654 5.859-73.449 17.578-101.385 11.837-27.936 28.705-49.183 50.604-63.743 22.017-14.678 48.236-22.017 78.658-22.017 30.421 0 56.581 7.34 78.48 22.017 22.017 14.678 38.944 35.985 50.781 63.92 11.837 27.818 17.696 61.554 17.578 101.208 0 39.891-5.919 73.982-17.756 102.273-11.718 28.29-28.527 49.893-50.426 64.808-21.898 14.915-48.118 22.372-78.657 22.372zm0-63.743c20.833 0 37.464-10.476 49.893-31.427 12.429-20.952 18.584-52.38 18.466-94.283 0-27.581-2.841-50.545-8.523-68.892-5.563-18.348-13.494-32.138-23.792-41.37-10.18-9.234-22.195-13.85-36.044-13.85-20.715 0-37.287 10.357-49.716 31.072-12.429 20.715-18.703 51.728-18.821 93.04 0 27.936 2.781 51.255 8.345 69.957 5.682 18.585 13.672 32.552 23.97 41.904 10.298 9.233 22.372 13.849 36.222 13.849zM663.799 370v-55.398l129.439-119.851c11.008-10.653 20.241-20.241 27.698-28.764 7.576-8.522 13.317-16.868 17.223-25.035 3.907-8.286 5.86-17.223 5.86-26.811 0-10.654-2.427-19.828-7.28-27.522-4.853-7.812-11.482-13.79-19.886-17.933-8.405-4.261-17.934-6.392-28.587-6.392-11.127 0-20.833 2.25-29.119 6.747-8.286 4.498-14.678 10.95-19.176 19.354-4.499 8.404-6.748 18.407-6.748 30.007h-72.975c0-23.793 5.385-44.448 16.157-61.967 10.772-17.52 25.864-31.073 45.277-40.66 19.413-9.589 41.785-14.383 67.117-14.383 26.041 0 48.709 4.617 68.004 13.85 19.413 9.114 34.505 21.78 45.277 37.997 10.772 16.217 16.158 34.8 16.158 55.753 0 13.731-2.723 27.284-8.168 40.66-5.327 13.376-14.856 28.232-28.587 44.567-13.731 16.217-33.084 35.689-58.061 58.416l-53.089 52.024v2.486h152.699V370H663.799zm449.351 4.972c-26.51 0-50.13-4.558-70.84-13.672-20.6-9.233-36.88-21.899-48.833-37.997-11.837-16.217-17.933-34.92-18.288-56.108h77.411c.48 8.878 3.38 16.69 8.7 23.437 5.45 6.629 12.67 11.778 21.67 15.448 8.99 3.669 19.11 5.504 30.36 5.504 11.72 0 22.07-2.072 31.07-6.215s16.04-9.884 21.13-17.223c5.09-7.339 7.63-15.802 7.63-25.39 0-9.707-2.72-18.289-8.16-25.746-5.33-7.576-13.02-13.494-23.09-17.756-9.94-4.261-21.78-6.392-35.51-6.392h-33.91v-56.463h33.91c11.6 0 21.84-2.012 30.72-6.037 9-4.024 15.98-9.588 20.95-16.69 4.97-7.221 7.46-15.625 7.46-25.213 0-9.115-2.19-17.105-6.57-23.97-4.26-6.984-10.3-12.43-18.11-16.336-7.69-3.906-16.69-5.859-26.99-5.859-10.42 0-19.94 1.894-28.59 5.682-8.64 3.67-15.56 8.937-20.77 15.802-5.21 6.866-7.99 14.915-8.35 24.148h-73.681c.355-20.951 6.333-39.417 17.931-55.398 11.6-15.98 27.23-28.468 46.88-37.464 19.76-9.115 42.08-13.672 66.94-13.672 25.09 0 47.05 4.557 65.87 13.672 18.82 9.114 33.44 21.425 43.86 36.932 10.53 15.388 15.74 32.67 15.62 51.846.12 20.36-6.21 37.346-19 50.959-12.66 13.613-29.18 22.254-49.54 25.923v2.841c26.76 3.433 47.12 12.725 61.08 27.877 14.09 15.033 21.07 33.854 20.96 56.463.11 20.715-5.86 39.122-17.94 55.22-11.95 16.099-28.47 28.764-49.54 37.997s-45.21 13.85-72.44 13.85z" fill="#fff" fill-opacity=".6"/><path d="M4.619 370v-55.398l129.439-119.851c11.008-10.653 20.241-20.241 27.699-28.764 7.576-8.522 13.317-16.868 17.223-25.035 3.906-8.286 5.859-17.223 5.859-26.811 0-10.654-2.426-19.828-7.28-27.522-4.853-7.812-11.482-13.79-19.886-17.933-8.404-4.261-17.933-6.392-28.587-6.392-11.127 0-20.833 2.25-29.119 6.747-8.286 4.498-14.678 10.95-19.176 19.354-4.498 8.404-6.747 18.407-6.747 30.007H1.068c0-23.793 5.386-44.448 16.157-61.967 10.772-17.52 25.865-31.073 45.278-40.66 19.412-9.589 41.785-14.383 67.116-14.383 26.042 0 48.71 4.617 68.004 13.85 19.413 9.114 34.505 21.78 45.277 37.997 10.772 16.217 16.158 34.8 16.158 55.753 0 13.731-2.723 27.284-8.168 40.66-5.326 13.376-14.855 28.232-28.586 44.567-13.731 16.217-33.085 35.689-58.061 58.416l-53.09 52.024v2.486h152.699V370H4.619zm457.52 7.99c-30.54-.118-56.819-7.635-78.836-22.55-21.898-14.914-38.766-36.517-50.603-64.808-11.719-28.291-17.519-62.322-17.401-102.095 0-39.654 5.859-73.449 17.578-101.385 11.837-27.936 28.705-49.183 50.604-63.743 22.017-14.678 48.236-22.017 78.658-22.017 30.421 0 56.581 7.34 78.48 22.017 22.017 14.678 38.944 35.985 50.781 63.92 11.837 27.818 17.696 61.554 17.578 101.208 0 39.891-5.919 73.982-17.756 102.273-11.718 28.29-28.527 49.893-50.426 64.808-21.898 14.915-48.118 22.372-78.657 22.372zm0-63.743c20.833 0 37.464-10.476 49.893-31.427 12.429-20.952 18.584-52.38 18.466-94.283 0-27.581-2.841-50.545-8.523-68.892-5.563-18.348-13.494-32.138-23.792-41.37-10.18-9.234-22.195-13.85-36.044-13.85-20.715 0-37.287 10.357-49.716 31.072-12.429 20.715-18.703 51.728-18.821 93.04 0 27.936 2.781 51.255 8.345 69.957 5.682 18.585 13.672 32.552 23.97 41.904 10.298 9.233 22.372 13.849 36.222 13.849zM663.799 370v-55.398l129.439-119.851c11.008-10.653 20.241-20.241 27.698-28.764 7.576-8.522 13.317-16.868 17.223-25.035 3.907-8.286 5.86-17.223 5.86-26.811 0-10.654-2.427-19.828-7.28-27.522-4.853-7.812-11.482-13.79-19.886-17.933-8.405-4.261-17.934-6.392-28.587-6.392-11.127 0-20.833 2.25-29.119 6.747-8.286 4.498-14.678 10.95-19.176 19.354-4.499 8.404-6.748 18.407-6.748 30.007h-72.975c0-23.793 5.385-44.448 16.157-61.967 10.772-17.52 25.864-31.073 45.277-40.66 19.413-9.589 41.785-14.383 67.117-14.383 26.041 0 48.709 4.617 68.004 13.85 19.413 9.114 34.505 21.78 45.277 37.997 10.772 16.217 16.158 34.8 16.158 55.753 0 13.731-2.723 27.284-8.168 40.66-5.327 13.376-14.856 28.232-28.587 44.567-13.731 16.217-33.084 35.689-58.061 58.416l-53.089 52.024v2.486h152.699V370H663.799zm449.351 4.972c-26.51 0-50.13-4.558-70.84-13.672-20.6-9.233-36.88-21.899-48.833-37.997-11.837-16.217-17.933-34.92-18.288-56.108h77.411c.48 8.878 3.38 16.69 8.7 23.437 5.45 6.629 12.67 11.778 21.67 15.448 8.99 3.669 19.11 5.504 30.36 5.504 11.72 0 22.07-2.072 31.07-6.215s16.04-9.884 21.13-17.223c5.09-7.339 7.63-15.802 7.63-25.39 0-9.707-2.72-18.289-8.16-25.746-5.33-7.576-13.02-13.494-23.09-17.756-9.94-4.261-21.78-6.392-35.51-6.392h-33.91v-56.463h33.91c11.6 0 21.84-2.012 30.72-6.037 9-4.024 15.98-9.588 20.95-16.69 4.97-7.221 7.46-15.625 7.46-25.213 0-9.115-2.19-17.105-6.57-23.97-4.26-6.984-10.3-12.43-18.11-16.336-7.69-3.906-16.69-5.859-26.99-5.859-10.42 0-19.94 1.894-28.59 5.682-8.64 3.67-15.56 8.937-20.77 15.802-5.21 6.866-7.99 14.915-8.35 24.148h-73.681c.355-20.951 6.333-39.417 17.931-55.398 11.6-15.98 27.23-28.468 46.88-37.464 19.76-9.115 42.08-13.672 66.94-13.672 25.09 0 47.05 4.557 65.87 13.672 18.82 9.114 33.44 21.425 43.86 36.932 10.53 15.388 15.74 32.67 15.62 51.846.12 20.36-6.21 37.346-19 50.959-12.66 13.613-29.18 22.254-49.54 25.923v2.841c26.76 3.433 47.12 12.725 61.08 27.877 14.09 15.033 21.07 33.854 20.96 56.463.11 20.715-5.86 39.122-17.94 55.22-11.95 16.099-28.47 28.764-49.54 37.997s-45.21 13.85-72.44 13.85z" stroke="#9796A5" stroke-opacity=".15" stroke-width="2" mask="url(#a)"/></svg>