<svg width="198" height="34" fill="none" xmlns="http://www.w3.org/2000/svg"><path d="M43.623 30.148c2.632 0 3.99-1.188 4.52-3.978h-2.207c-.42 1.435-.856 2.105-2.293 2.105-1.56 0-2.409-1.15-2.409-3.357 0-2.193.842-3.388 2.386-3.388 1.373 0 1.88.605 2.299 1.96h2.2c-.487-2.71-1.924-3.83-4.499-3.83-2.953 0-4.722 1.973-4.722 5.258.003 3.277 1.758 5.23 4.725 5.23zm5.364-.22h7.524V28.07h-4.687v-.015l4.717-6.67v-1.508h-7.357v1.858h4.52v.015l-4.717 6.67v1.507zM65.445 21.7v-1.82h-7.327v10.05h7.327v-1.82h-5.078v-2.367h4.106v-1.705h-4.106V21.7h5.078zm5.698 8.448c2.632 0 3.99-1.188 4.52-3.978h-2.206c-.421 1.435-.857 2.105-2.294 2.105-1.56 0-2.409-1.15-2.409-3.357 0-2.193.842-3.388 2.386-3.388 1.373 0 1.88.605 2.3 1.96h2.198c-.485-2.71-1.922-3.83-4.498-3.83-2.953 0-4.722 1.973-4.722 5.258.003 3.277 1.759 5.23 4.725 5.23zm6.062-.22h2.286v-4.146h4.085v4.145h2.286v-10.05h-2.286v4.036H79.49v-4.035h-2.286v10.05zm18.186.22c2.632 0 3.99-1.188 4.52-3.978h-2.207c-.42 1.435-.856 2.105-2.293 2.105-1.56 0-2.409-1.15-2.409-3.357 0-2.193.842-3.388 2.386-3.388 1.372 0 1.88.605 2.299 1.96h2.199c-.486-2.71-1.923-3.83-4.498-3.83-2.954 0-4.722 1.973-4.722 5.258.003 3.277 1.758 5.23 4.725 5.23zm13.391-8.448v-1.82h-7.329v10.05h7.329v-1.82h-5.078v-2.367h4.107v-1.705h-4.107V21.7h5.078zm1.679 8.227h1.972v-6.482h.015l4.702 6.482h1.975v-10.05h-1.975v6.468h-.015l-4.702-6.467h-1.972v10.05zm12.741 0h2.287v-8.192h2.923v-1.857h-8.134v1.857h2.924v8.192zm12.764-3.182c-.284-.422-.523-.707-.872-.867 1.589-.153 2.548-1.326 2.548-2.92 0-1.93-1.233-3.08-3.621-3.08h-4.453v10.05h2.279v-3.773h.588c.595 0 .797.168 1.138.685l2.044 3.087h2.489l-2.14-3.182zm-4.119-2.265v-2.878h1.786c1.21 0 1.805.408 1.805 1.428 0 .997-.608 1.45-1.828 1.45h-1.763zm15.043-2.78v-1.82h-7.328v10.05h7.328v-1.82h-5.079v-2.367h4.107v-1.705h-4.107V21.7h5.079zm4.819 8.448c2.503 0 3.99-1.29 3.99-3.27 0-1.64-1.074-2.448-3.012-2.798l-1.262-.225c-1.066-.183-1.472-.59-1.472-1.215 0-.773.637-1.245 1.669-1.245 1.13 0 1.566.48 1.85 1.45h2.06c-.406-2.135-1.547-3.182-3.91-3.182-2.518 0-3.861 1.305-3.861 3.14 0 1.674 1.054 2.555 2.976 2.912l1.308.247c1.001.183 1.457.453 1.457 1.13 0 .83-.675 1.326-1.736 1.326-1.138 0-1.748-.366-2.109-1.485h-2.097c.361 2.232 1.623 3.215 4.149 3.215z" fill="#D52B1E"/><path d="M42.883 2.285h1.48L46.386.123H44.63l-.951.91h-.015L42.7.123h-1.843l2.025 2.162zm.74 11.225c2.632 0 3.99-1.188 4.52-3.977h-2.207c-.42 1.434-.856 2.104-2.293 2.104-1.56 0-2.409-1.15-2.409-3.357 0-2.192.842-3.387 2.386-3.387 1.373 0 1.88.605 2.299 1.96h2.2c-.487-2.71-1.924-3.83-4.499-3.83-2.953 0-4.722 1.972-4.722 5.257.003 3.277 1.758 5.23 4.725 5.23zm13.389-8.45V3.24h-7.327v10.05h7.327v-1.82h-5.078V9.103h4.106V7.398h-4.106V5.06h5.078zm4.821 8.45c2.503 0 3.99-1.29 3.99-3.27 0-1.64-1.073-2.447-3.01-2.797l-1.264-.225c-1.066-.183-1.471-.59-1.471-1.215 0-.773.637-1.245 1.668-1.245 1.13 0 1.567.48 1.85 1.45h2.06c-.406-2.135-1.546-3.183-3.91-3.183-2.518 0-3.86 1.303-3.86 3.14 0 1.675 1.05 2.555 2.974 2.913l1.305.247c1 .183 1.46.453 1.46 1.13 0 .83-.676 1.325-1.734 1.325-1.139 0-1.749-.365-2.112-1.485h-2.097c.363 2.23 1.626 3.215 4.151 3.215zM75.838 3.24h-2.439l-3.7 4.748h-.016V3.24h-2.286v10.05h2.286V8.338h.015l3.679 4.952h2.59L72.05 7.988l3.789-4.748zm4.363-.955h1.631l1.82-2.207h-2.226l-1.225 2.207zM83.8 13.29h2.366L82.37 3.24h-2.314l-3.815 10.05h2.207l.697-1.972h3.975l.68 1.972zm-4.07-3.647l1.437-4.035h.015l1.385 4.035H79.73zm15.038 3.867c2.632 0 3.99-1.188 4.52-3.977h-2.206c-.421 1.434-.857 2.104-2.294 2.104-1.56 0-2.408-1.15-2.408-3.357 0-2.192.841-3.387 2.386-3.387 1.372 0 1.88.605 2.298 1.96h2.2c-.486-2.71-1.923-3.83-4.498-3.83-2.954 0-4.723 1.972-4.723 5.257.003 3.277 1.759 5.23 4.725 5.23zm13.389-8.45V3.24h-7.327v10.05h7.327v-1.82h-5.078V9.103h4.107V7.398h-4.107V5.06h5.078zm1.679 8.23h1.972V6.808h.015l4.702 6.482h1.973V3.24h-1.973v6.468h-.015l-4.702-6.468h-1.972v10.05zm12.741 0h2.286V5.098h2.924V3.24h-8.134v1.858h2.924v8.192zm12.767-3.182c-.284-.423-.523-.708-.87-.868 1.589-.152 2.548-1.325 2.548-2.92 0-1.93-1.235-3.08-3.621-3.08h-4.453v10.05h2.279V9.518h.587c.596 0 .797.167 1.139.684L135 13.29h2.488l-2.144-3.182zm-4.122-2.265V4.965h1.785c1.211 0 1.809.408 1.809 1.428 0 .997-.611 1.45-1.829 1.45h-1.765zm14.151 5.447h2.366l-3.793-10.05h-2.316l-3.816 10.05h2.207l.697-1.972h3.975l.68 1.972zm-4.07-3.647l1.437-4.035h.015l1.388 4.035h-2.84zM28.555 27.788H6.235V5.383h22.32v7.907h-2.627V8.02H8.863v17.13h17.065v-5.267h2.627v7.905z" fill="#0039A6"/><path d="M.985.113v32.945h32.82V19.883H31.18v10.54H3.61V2.748h27.57v10.54h2.625V.112H.985z" fill="#0039A6"/><path d="M23.3 22.515H11.49v-11.86H23.3v2.635h-9.185v6.59H23.3v2.635z" fill="#0039A6"/><path d="M175.8 28.063V19.87h-2.284v10.05h6.398v-1.857H175.8zm12.786-6.373v-1.82h-7.327v10.05h7.327V28.1h-5.078v-2.367h4.104v-1.706h-4.104V21.69h5.078zm4.112 8.228h2.286v-8.193h2.922v-1.857h-8.132v1.857h2.924v8.193z" fill="#D52B1E"/><path d="M176.808 13.5c2.568 0 3.94-1.092 3.94-2.935 0-1.572-1.036-2.242-2.074-2.375v-.015c.986-.255 1.805-1.02 1.79-2.475-.015-1.682-1.277-2.687-3.628-2.687-2.371 0-3.343 1.042-3.823 3.152h2.089c.314-1.035.732-1.485 1.741-1.485.986 0 1.539.438 1.539 1.333 0 .997-.71 1.405-1.79 1.405h-.778v1.625h.885c1.155 0 1.922.297 1.922 1.325 0 .997-.587 1.47-1.813 1.465-1.133-.008-1.661-.453-1.98-1.515h-2.097c.356 2.212 1.537 3.182 4.077 3.182zm9.287 0c2.65 0 4.13-1.652 4.13-5.242s-1.48-5.243-4.13-5.243c-2.64 0-4.126 1.653-4.126 5.243 0 3.59 1.486 5.242 4.126 5.242zm0-1.812c-1.312 0-1.863-1.028-1.863-3.43 0-2.403.551-3.43 1.863-3.43 1.32 0 1.873 1.027 1.873 3.43 0 2.402-.55 3.43-1.873 3.43z" fill="#0039A6"/></svg>