<svg width="370" height="370" fill="none" xmlns="http://www.w3.org/2000/svg"><g clip-path="url(#clip0_143_2)" fill="#1F419B"><path d="M368.948 292.749c-28.202-16.637-58.727-24.958-91.578-24.958-32.851 0-64.274 8.236-92.473 24.704-27.298 15.938-49.076 37.415-65.339 64.425l-.833-1.497L98.293 370h39.614c14.283-24.465 33.653-43.818 58.124-58.052 24.787-14.417 51.9-21.632 81.339-21.632s55.503 7.298 80.249 21.889a170.09 170.09 0 0112.378 8.044v-26.87c-.35-.209-.699-.421-1.052-.63h.003zm-91.575 64.123c-17.321 0-33.259 4.21-47.805 12.624-.281.165-.555.336-.836.504h96.467c-.243-.144-.479-.295-.726-.439-14.509-8.462-30.207-12.689-47.1-12.689z"/><path d="M277.435 311.821c-25.331 0-48.72 6.293-70.17 18.877-17.325 10.164-31.738 23.265-43.249 39.302h28.795c7.41-7.702 15.886-14.334 25.431-19.901 18.003-10.501 37.712-15.753 59.131-15.753 21.419 0 40.08 5.338 58.042 16.01 9.332 5.546 17.671 12.093 25.023 19.644H370v-21.803c-7.095-6.505-14.899-12.299-23.416-17.369-21.282-12.669-44.328-19.004-69.149-19.004v-.003zM370 271.117c-28.713-.846-55.425-8.444-80.143-22.799-26.266-15.249-47.045-35.945-62.345-62.074-15.3-26.13-22.95-54.582-22.95-85.364 0-30.782 7.582-59.748 22.745-86.104a176.664 176.664 0 019.503-14.78h-28.36c-.558.926-1.11 1.857-1.654 2.796-17.377 29.922-26.061 62.616-26.061 98.088 0 35.472 8.753 67.336 26.266 96.936 17.51 29.607 41.224 53.03 71.146 70.266 28.367 16.342 58.985 24.934 91.853 25.784v-22.752.003z"/><path d="M247.609 174.195c13.44 22.611 31.484 40.436 54.129 53.478 21.073 12.142 43.828 18.627 68.262 19.466v-23.844c-20.395-.812-39.326-6.235-56.785-16.277-19-10.925-34.074-25.828-45.218-44.701-11.148-18.874-16.719-39.374-16.719-61.502s5.502-43.575 16.516-62.719c8.771-15.252 20.097-27.948 33.965-38.1h-35.054c-7.297 7.959-13.759 16.764-19.367 26.425-13.258 22.834-19.891 47.654-19.891 74.462s6.722 50.704 20.162 73.312z"/><path d="M275.102 100.887c0 18.075 4.512 34.684 13.539 49.823 9.024 15.136 21.258 27.092 36.692 35.859 13.868 7.876 28.757 12.213 44.667 13.012V178.95c-11.744-.802-22.711-4.235-32.892-10.305-11.734-6.993-21.032-16.606-27.891-28.836-6.862-12.231-10.288-25.565-10.288-40.005 0-14.44 3.45-27.28 10.357-39.33 6.906-12.049 16.201-21.549 27.89-28.5 10.141-6.03 21.083-9.438 32.824-10.236V.02c-16.239.798-31.286 5.203-45.143 13.22-15.39 8.9-27.528 21.104-36.418 36.603-8.89 15.502-13.334 32.515-13.334 51.043h-.003zM31.567 277.274c-9.052 0-19.573-2.892-31.567-8.668v22.176c1.473.566 2.987 1.117 4.556 1.652 10.607 3.611 19.607 5.416 27.01 5.416 20.217 0 36.082-6.112 47.59-18.342 11.508-12.231 17.263-27.37 17.263-45.425 0-11.823-3.409-22.655-10.223-32.495-6.817-9.836-15.502-17.78-26.06-23.827-10.56-6.047-21.21-9.658-31.95-10.829l34.385-85.97H0v21.12h31.567L.02 181.961c18.503 0 35.403 4.331 50.703 12.998 15.297 8.664 22.947 21.71 22.947 39.128 0 12.275-4.084 22.542-12.251 30.799-8.17 8.26-18.12 12.388-29.854 12.388z"/><path d="M154.633 20.58l-47.655 119.14c13.81 10.116 24.845 19.507 33.101 28.178 8.26 8.671 14.509 18.74 18.75 30.21 4.242 11.47 6.544 26.057 6.907 43.759 0 15.893-2.73 30.864-8.191 44.907-5.461 14.043-13.314 26.486-23.557 37.322-10.244 10.84-22.34 19.261-36.284 25.266-13.947 6.006-29.13 9.007-45.558 9.007-20.384 0-37.764-2.446-52.146-7.335V370h98.704a134.266 134.266 0 005.766-2.289c16.561-7.04 31.138-16.811 43.729-29.312 12.59-12.501 22.45-27.078 29.583-43.728 7.129-16.654 10.695-34.095 10.695-52.328 0-45.308-19.586-82.448-58.758-111.425L186.312 0H0v20.58h154.633z"/><path d="M43.208 337.789c19.315 0 36.486-4.398 51.515-13.2 15.03-8.801 26.647-20.579 34.863-35.338 8.212-14.759 12.319-30.936 12.319-48.535 0-15.975-2.076-29.264-6.228-39.871-4.152-10.603-10.607-20.079-19.36-28.432-8.757-8.345-20.94-17.397-36.555-27.143L124.17 39.94H0v20.579h91.948l-39.802 94.23c21.751 8.935 38.357 20.669 49.823 35.198 11.46 14.533 17.195 30.689 17.195 48.47 0 22.293-7.561 40.998-22.676 56.117-15.119 15.118-35.089 22.676-59.91 22.676-13.162 0-25.351-1.984-36.578-5.948v20.032c12.82 4.327 27.222 6.495 43.208 6.495z"/></g><defs><clipPath id="clip0_143_2"><path fill="#fff" d="M0 0h370v370H0z"/></clipPath></defs></svg>