<svg width="200" height="34" fill="none" xmlns="http://www.w3.org/2000/svg"><path d="M173.321 20.804h2.356v9.186h4.776v1.94h-7.132V20.805zm8.631 0h7.505v1.941h-5.153v2.65h4.765v1.94h-4.765v2.659h5.173v1.94h-7.529V20.809l.004-.004zm8.9 0H200v1.941h-3.41v9.186h-2.328v-9.186h-3.41v-1.941z" fill="#D52B1E"/><path d="M173.06 11.062h2.372c.044.817.822 1.357 1.86 1.357 1.038 0 1.839-.608 1.831-1.493.004-.896-.781-1.525-2.044-1.525h-1.038V7.672h1.038c1.07 0 1.816-.592 1.812-1.465.004-.836-.63-1.413-1.583-1.413-.954 0-1.739.549-1.767 1.397h-2.256c.032-1.925 1.751-3.258 4.035-3.258 2.284 0 3.847 1.381 3.839 3.134.004 1.249-.854 2.13-2.1 2.354v.088c1.639.208 2.52 1.196 2.512 2.581.004 1.901-1.783 3.278-4.287 3.278-2.505 0-4.188-1.353-4.228-3.298l.004-.008zm9.834-2.405c.004-3.647 1.703-5.728 4.5-5.728 2.797 0 4.504 2.085 4.5 5.728-.004 3.666-1.699 5.795-4.5 5.795-2.805-.004-4.508-2.141-4.5-5.795zm6.591 0c0-2.526-.825-3.799-2.095-3.799-1.271 0-2.096 1.273-2.1 3.799-.004 2.565.821 3.846 2.1 3.846 1.278 0 2.099-1.28 2.095-3.846z" fill="#0039A6"/><path d="M151.566 31.086c2.516 0 4.011-1.288 4.011-3.27 0-1.64-1.078-2.45-3.03-2.797l-1.27-.224c-1.074-.185-1.482-.589-1.482-1.217 0-.773.641-1.245 1.679-1.245 1.138 0 1.574.48 1.859 1.449h2.072c-.409-2.133-1.555-3.186-3.931-3.186-2.533 0-3.883 1.305-3.883 3.142 0 1.677 1.058 2.557 2.989 2.914l1.314.248c1.006.184 1.467.452 1.467 1.128 0 .833-.677 1.325-1.743 1.325-1.146 0-1.759-.364-2.124-1.485h-2.108c.365 2.238 1.635 3.222 4.172 3.222m-4.849-8.453v-1.82h-7.369v10.057h7.369v-1.821h-5.105v-2.37h4.127V24.98h-4.127v-2.34h5.105v-.004zm-15.127 2.786v-2.878h1.795c1.219 0 1.816.408 1.816 1.429 0 1.02-.613 1.449-1.84 1.449h-1.771zm4.144 2.265c-.285-.424-.525-.708-.874-.868 1.599-.152 2.561-1.325 2.561-2.922 0-1.93-1.239-3.082-3.643-3.082h-4.48v10.058h2.292V27.1h.589c.597 0 .802.168 1.146.684l2.056 3.09h2.5l-2.151-3.186h.004zm-12.835 3.186h2.3v-8.197h2.941V20.82h-8.179v1.857h2.942v8.197h-.004zm-12.815 0h1.983V24.39h.016l4.729 6.484h1.983V20.816h-1.983v6.472h-.016l-4.729-6.472h-1.983v10.058zm-1.687-8.233v-1.82h-7.369v10.057h7.369v-1.821h-5.105v-2.37h4.127v-1.704h-4.127v-2.338h5.105v-.004zm-13.464 8.453c2.649 0 4.011-1.188 4.544-3.978h-2.216c-.425 1.437-.862 2.105-2.304 2.105-1.567 0-2.42-1.153-2.42-3.358s.845-3.39 2.4-3.39c1.378 0 1.891.604 2.312 1.961h2.212c-.489-2.71-1.931-3.834-4.524-3.834-2.97 0-4.749 1.973-4.749 5.26 0 3.285 1.768 5.23 4.749 5.23m-18.289-.22h2.3v-4.146h4.108v4.146h2.3V20.812h-2.3v4.038H78.94v-4.038h-2.3V30.87zm-6.094.22c2.648 0 4.01-1.188 4.544-3.978h-2.216c-.425 1.437-.862 2.105-2.304 2.105-1.567 0-2.42-1.153-2.42-3.358s.845-3.39 2.4-3.39c1.378 0 1.89.604 2.312 1.961h2.212c-.49-2.71-1.932-3.834-4.525-3.834-2.969 0-4.748 1.973-4.748 5.26 0 3.285 1.767 5.23 4.748 5.23m-5.73-8.453v-1.82H57.45V30.87h7.37v-1.82h-5.106v-2.37h4.128v-1.704h-4.128v-2.338h5.105v-.004zm-16.55 8.233h7.566V29.01h-4.712v-.016l4.74-6.676v-1.509h-7.397v1.857h4.544v.016l-4.74 6.676v1.51zm-5.393.22c2.649 0 4.011-1.188 4.544-3.978h-2.216c-.424 1.437-.861 2.105-2.304 2.105-1.566 0-2.42-1.153-2.42-3.358s.846-3.39 2.4-3.39c1.379 0 1.892.604 2.312 1.961h2.212c-.489-2.71-1.931-3.834-4.524-3.834-2.969 0-4.748 1.973-4.748 5.26 0 3.285 1.767 5.23 4.748 5.23" fill="#D52B1E"/><path d="M141.099 10.57l1.443-4.039h.016l1.394 4.039h-2.853zm4.091 3.65h2.381l-3.815-10.058h-2.328l-3.839 10.058h2.216l.701-1.973h3.999l.685 1.973zm-14.229-5.451V5.89h1.795c1.218 0 1.816.408 1.816 1.429 0 1.02-.614 1.449-1.84 1.449h-1.771zm4.144 2.265c-.285-.424-.525-.708-.874-.869 1.599-.152 2.561-1.324 2.561-2.921 0-1.933-1.239-3.082-3.643-3.082h-4.48V14.22h2.292v-3.774h.589c.597 0 .802.168 1.146.684l2.056 3.09h2.5l-2.151-3.186h.004zM122.27 14.22h2.3V6.019h2.941V4.162h-8.179v1.857h2.942v8.197l-.004.004zm-12.815 0h1.983V7.736h.016l4.729 6.484h1.983V4.162h-1.983v6.472h-.016l-4.729-6.472h-1.983V14.22zm-1.687-8.233V4.166h-7.369v10.058h7.369v-1.821h-5.105v-2.37h4.127V8.328h-4.127V5.991h5.105v-.004zM94.304 14.44c2.649 0 4.011-1.189 4.544-3.978h-2.216c-.425 1.437-.862 2.105-2.304 2.105-1.567 0-2.42-1.153-2.42-3.358s.845-3.39 2.4-3.39c1.378 0 1.891.604 2.312 1.961h2.212c-.489-2.71-1.931-3.834-4.524-3.834-2.97 0-4.749 1.973-4.749 5.259 0 3.286 1.768 5.231 4.749 5.231m-15.123-3.87l1.442-4.039h.017l1.394 4.039h-2.853zm4.091 3.65h2.38L81.843 4.158h-2.328l-3.84 10.058h2.217l.7-1.973h4l.685 1.973zm-3.618-11.01H81.3l1.831-2.21h-2.24l-1.234 2.21zm-4.388.956h-2.452l-3.723 4.75h-.016v-4.75h-2.3V14.22h2.3V9.265h.016l3.699 4.955h2.604L71.46 8.917l3.807-4.751.004-.004zM61.185 14.436c2.516 0 4.011-1.289 4.011-3.27 0-1.64-1.078-2.45-3.03-2.798l-1.27-.224c-1.074-.184-1.482-.588-1.482-1.216 0-.773.64-1.245 1.679-1.245 1.138 0 1.575.48 1.86 1.449h2.07c-.408-2.134-1.554-3.186-3.93-3.186-2.533 0-3.883 1.305-3.883 3.142 0 1.677 1.058 2.557 2.99 2.913l1.313.249c1.006.184 1.467.452 1.467 1.128 0 .833-.677 1.325-1.743 1.325-1.146 0-1.76-.364-2.124-1.485h-2.108c.365 2.238 1.635 3.222 4.172 3.222m-4.849-8.453V4.166H48.96v10.058h7.37v-1.821h-5.106v-2.37h4.127V8.328h-4.127V5.991h5.105v-.004zM42.864 14.44c2.649 0 4.012-1.189 4.544-3.978h-2.215c-.425 1.437-.862 2.105-2.305 2.105-1.566 0-2.42-1.153-2.42-3.358s.846-3.39 2.4-3.39c1.379 0 1.892.604 2.312 1.961h2.212c-.489-2.71-1.931-3.834-4.524-3.834-2.969 0-4.748 1.973-4.748 5.259 0 3.286 1.767 5.231 4.748 5.231m-.745-11.23h1.487l2.047-2.162H43.89l-.958.913h-.016l-.97-.913h-1.85l2.035 2.165-.008-.004zM27.725 28.725H5.281V6.307h22.444v7.909h-2.64V8.945H7.922v17.142h17.163v-5.275h2.64v7.913z" fill="#0039A6"/><path d="M0 1.032V34h33.003V20.816h-2.641v10.546H2.641V3.67h27.721v10.546h2.64V1.032H0z" fill="#0039A6"/><path d="M22.44 23.45H10.563V11.582H22.44v2.638h-9.237v6.592h9.237v2.638z" fill="#0039A6"/></svg>