<svg width="1526" height="542" fill="none" xmlns="http://www.w3.org/2000/svg"><path d="M1007.11 188.014l35.16 110.512h1.35l35.22-110.512h34.1l-50.15 145.455h-39.63l-50.21-145.455h34.16zm141.44 186.364c-3.83 0-7.43-.308-10.79-.923-3.32-.569-6.06-1.303-8.24-2.202l6.82-22.585c3.55 1.089 6.74 1.68 9.59 1.775 2.88.095 5.37-.568 7.45-1.988 2.13-1.421 3.86-3.836 5.19-7.245l1.77-4.616-39.13-112.216h31.82l22.58 80.113h1.14l22.8-80.113h32.03l-42.4 120.881c-2.04 5.871-4.81 10.984-8.31 15.34-3.46 4.404-7.84 7.789-13.14 10.157-5.3 2.414-11.7 3.622-19.18 3.622zm16.77-164.063L1180.37 178h27.98l-21.66 32.315h-21.37zm183.45 14.063l-38.14 109.091h-34.09l-38.14-109.091h31.96l22.65 78.054h1.14l22.59-78.054h32.03zm61.25 111.221c-11.03 0-20.57-2.343-28.62-7.031-8-4.735-14.18-11.316-18.54-19.744-4.35-8.476-6.53-18.3-6.53-29.475 0-11.269 2.18-21.117 6.53-29.545 4.36-8.475 10.54-15.057 18.54-19.744 8.05-4.735 17.59-7.103 28.62-7.103 11.04 0 20.55 2.368 28.55 7.103 8.05 4.687 14.26 11.269 18.61 19.744 4.36 8.428 6.54 18.276 6.54 29.545 0 11.175-2.18 20.999-6.54 29.475-4.35 8.428-10.56 15.009-18.61 19.744-8 4.688-17.51 7.031-28.55 7.031zm.15-23.437c5.01 0 9.21-1.421 12.57-4.261 3.36-2.889 5.89-6.819 7.6-11.79 1.75-4.972 2.62-10.63 2.62-16.975 0-6.344-.87-12.002-2.62-16.974-1.71-4.972-4.24-8.902-7.6-11.79-3.36-2.888-7.56-4.332-12.57-4.332-5.07 0-9.33 1.444-12.79 4.332-3.41 2.888-5.99 6.818-7.74 11.79-1.7 4.972-2.56 10.63-2.56 16.974 0 6.345.86 12.003 2.56 16.975 1.75 4.971 4.33 8.901 7.74 11.79 3.46 2.84 7.72 4.261 12.79 4.261zm73.22-87.784h30.26v114.488c0 8.429-1.66 15.247-4.98 20.455-3.31 5.208-8.07 9.02-14.27 11.435-6.16 2.414-13.52 3.622-22.09 3.622-1.04 0-2.04-.024-2.98-.071-1 0-2.04-.024-3.13-.071v-23.651c.81.048 1.52.071 2.13.071.57.048 1.19.071 1.85.071 4.88 0 8.29-1.041 10.23-3.125 1.99-2.036 2.98-5.113 2.98-9.233V224.378zm15.06-14.063c-4.45 0-8.29-1.491-11.51-4.474-3.22-3.03-4.83-6.653-4.83-10.867 0-4.166 1.61-7.741 4.83-10.724 3.22-3.03 7.06-4.545 11.51-4.545 4.54 0 8.4 1.515 11.57 4.545 3.22 2.983 4.83 6.558 4.83 10.724 0 4.214-1.61 7.837-4.83 10.867-3.17 2.983-7.03 4.474-11.57 4.474z" fill="#fff" fill-opacity=".7"/><path d="M1189.65 345.422l42.4-120.879.23-.665h-33.11l-.1.363-22.7 79.75h-.38l-22.48-79.749-.1-.364h-32.9l.23.664 39.07 112.043-1.71 4.444v.001c-1.3 3.352-2.98 5.665-4.99 7.008l-.01.003c-1.98 1.353-4.36 1.994-7.16 1.902-2.78-.092-5.93-.674-9.46-1.753l-.48-.148-.14.481-6.82 22.585-.13.434.42.173c2.22.918 5.01 1.66 8.34 2.232 3.4.621 7.02.931 10.88.931 7.54 0 14-1.215 19.39-3.667 5.37-2.399 9.81-5.833 13.32-10.301 3.54-4.404 6.34-9.568 8.39-15.486m320.72-139.219c-3.27 3.074-7.26 4.61-11.92 4.61-4.58 0-8.53-1.537-11.85-4.607v-.003c-3.32-3.12-4.99-6.871-4.99-11.231 0-4.312 1.67-8.017 4.99-11.088 3.31-3.118 7.27-4.681 11.85-4.681 4.66 0 8.65 1.56 11.92 4.681 3.31 3.071 4.98 6.776 4.98 11.088 0 4.36-1.67 8.111-4.98 11.231zm0 0l-.35-.364m-502.43-17.978l-.11-.349h-35.232l.229.663 50.213 145.455.12.337h40.34l.12-.337 50.14-145.455.23-.663h-35.16l-.11.348-35.12 110.164h-.62l-35.04-110.163zm157.27 22.241l-.33.711h22.43l.15-.221 21.66-32.316.52-.778h-29.24l-.13.289-15.06 32.315zm184.38 14.439l.23-.665h-33.11l-.1.361-22.49 77.693h-.38l-22.55-77.694-.11-.36h-33.04l.24.665 38.13 109.091.12.335h34.8l.12-.335 38.14-109.091zm13.18 84.509v.001c4.4 8.51 10.64 15.162 18.73 19.946V329c8.14 4.74 17.77 7.099 28.87 7.099 11.11 0 20.72-2.359 28.81-7.099v-.001c8.13-4.783 14.4-11.435 18.8-19.946v-.001c4.4-8.557 6.59-18.463 6.59-29.703 0-11.333-2.19-21.263-6.59-29.775-4.4-8.557-10.67-15.209-18.8-19.946-8.09-4.787-17.7-7.171-28.81-7.171-11.1 0-20.73 2.384-28.87 7.172-8.09 4.736-14.33 11.389-18.73 19.945-4.4 8.512-6.59 18.442-6.59 29.775 0 11.24 2.19 21.146 6.59 29.703zm67.44-13.107v.004c-1.68 4.902-4.17 8.751-7.45 11.572-3.26 2.752-7.33 4.141-12.24 4.141-4.97 0-9.11-1.389-12.47-4.145-3.33-2.822-5.86-6.671-7.59-11.572-1.68-4.909-2.53-10.51-2.53-16.809 0-6.299.85-11.899 2.53-16.808 1.73-4.902 4.26-8.752 7.59-11.573 3.36-2.803 7.5-4.215 12.47-4.215 4.91 0 8.98 1.411 12.24 4.211 3.28 2.821 5.77 6.67 7.45 11.573v.004c1.73 4.909 2.6 10.509 2.6 16.808 0 6.3-.87 11.9-2.6 16.809zm53.53-72.067h-.5v114.491c0 4.047-.98 6.976-2.84 8.884l-.01.008c-1.8 1.93-5.03 2.966-9.86 2.966-.65 0-1.25-.023-1.8-.069l-.03-.002h-.02c-.6 0-1.3-.023-2.1-.07l-.53-.031v24.66l.48.02c1.09.048 2.14.072 3.14.072.95.047 1.95.071 2.99.071 8.62 0 16.04-1.214 22.27-3.657 6.29-2.45 11.14-6.327 14.52-11.632 3.38-5.312 5.05-12.233 5.05-20.723V223.878h-30.76z" stroke="#9796A5" stroke-opacity=".35"/><path d="M1 0H0v1h1V0z" fill="#fff"/></svg>