<svg width="1187" height="374" fill="none" xmlns="http://www.w3.org/2000/svg"><g clip-path="url(#clip0_221_75)"><path d="M673.112 184.545l35.156 110.512h1.35l35.227-110.512h34.091L728.794 330h-39.631L638.95 184.545h34.162zm141.442 186.364c-3.836 0-7.434-.308-10.796-.923-3.314-.568-6.06-1.302-8.238-2.202l6.818-22.585c3.551 1.089 6.747 1.681 9.588 1.775 2.888.095 5.374-.568 7.457-1.988 2.131-1.421 3.859-3.835 5.185-7.245l1.775-4.616-39.133-112.216h31.818l22.585 80.114h1.137l22.798-80.114h32.031l-42.4 120.881c-2.036 5.871-4.806 10.985-8.31 15.341-3.456 4.403-7.836 7.789-13.139 10.156-5.303 2.415-11.695 3.622-19.176 3.622zm16.761-164.062l15.057-32.316h27.983l-21.662 32.316h-21.378zm183.455 14.062L976.628 330h-34.091l-38.14-109.091h31.961l22.656 78.054h1.136l22.585-78.054h32.035zm61.25 111.222c-11.03 0-20.57-2.344-28.62-7.032-8-4.734-14.18-11.316-18.54-19.744-4.35-8.475-6.53-18.3-6.53-29.474 0-11.269 2.18-21.118 6.53-29.546 4.36-8.475 10.54-15.057 18.54-19.744 8.05-4.735 17.59-7.102 28.62-7.102 11.04 0 20.55 2.367 28.55 7.102 8.05 4.687 14.26 11.269 18.61 19.744 4.36 8.428 6.54 18.277 6.54 29.546 0 11.174-2.18 20.999-6.54 29.474-4.35 8.428-10.56 15.01-18.61 19.744-8 4.688-17.51 7.032-28.55 7.032zm.15-23.438c5.01 0 9.21-1.42 12.57-4.261 3.36-2.888 5.89-6.818 7.6-11.79 1.75-4.972 2.62-10.63 2.62-16.974 0-6.345-.87-12.003-2.62-16.975-1.71-4.971-4.24-8.901-7.6-11.79-3.36-2.888-7.56-4.332-12.57-4.332-5.07 0-9.33 1.444-12.79 4.332-3.41 2.889-5.99 6.819-7.74 11.79-1.7 4.972-2.56 10.63-2.56 16.975 0 6.344.86 12.002 2.56 16.974 1.75 4.972 4.33 8.902 7.74 11.79 3.46 2.841 7.72 4.261 12.79 4.261zm73.22-87.784h30.26v114.489c0 8.428-1.66 15.246-4.98 20.454-3.31 5.209-8.07 9.02-14.27 11.435-6.16 2.415-13.52 3.622-22.09 3.622-1.04 0-2.04-.024-2.98-.071-1 0-2.04-.024-3.13-.071v-23.651c.81.048 1.52.072 2.13.072.57.047 1.19.071 1.85.071 4.88 0 8.29-1.042 10.23-3.125 1.99-2.036 2.98-5.114 2.98-9.233V220.909zm15.06-14.062c-4.45 0-8.29-1.492-11.51-4.475-3.22-3.03-4.83-6.652-4.83-10.866 0-4.167 1.61-7.742 4.83-10.725 3.22-3.03 7.06-4.545 11.51-4.545 4.54 0 8.4 1.515 11.57 4.545 3.22 2.983 4.83 6.558 4.83 10.725 0 4.214-1.61 7.836-4.83 10.866-3.17 2.983-7.03 4.475-11.57 4.475z" fill="#fff" fill-opacity=".6"/><path d="M842.372 300.523l22.695-79.751.103-.363h33.114l-.233.666-42.4 120.879-13.279-41.431zm0 0h-.38l-22.483-79.75-.102-.364h-32.901l.232.665 39.073 112.043-1.709 4.443v.001c-1.304 3.352-2.981 5.665-4.996 7.009l-.004.003c-1.984 1.352-4.361 1.993-7.16 1.902-2.785-.093-5.937-.674-9.458-1.754l-.48-.147-.145.48-6.818 22.586-.131.433.419.173c2.222.918 5.007 1.66 8.342 2.232 3.394.621 7.022.931 10.883.931 7.532 0 13.998-1.215 19.381-3.666 5.373-2.399 9.818-5.833 13.326-10.302 3.542-4.404 6.337-9.568 8.389-15.486l-13.278-41.432zM673.588 184.394l-.11-.349h-35.23l.229.664 50.213 145.454.117.337h40.343l.116-.337 50.142-145.455.229-.663h-35.158l-.111.349-35.116 110.163h-.618l-35.046-110.163zm157.274 22.241l-.332.712h22.43l.148-.222 21.662-32.315.522-.779h-29.239l-.134.289-15.057 32.315zm184.378 14.439l.23-.665h-33.11l-.105.361-22.481 77.693h-.385l-22.551-77.693-.105-.361h-33.04l.232.665 38.14 109.091.117.335h34.8l.117-.335 38.141-109.091zm13.18 84.51v.001c4.4 8.509 10.64 15.161 18.73 19.945v.001c8.14 4.74 17.77 7.1 28.87 7.1 11.11 0 20.72-2.36 28.81-7.1v-.001c8.13-4.783 14.4-11.435 18.8-19.945v-.001c4.4-8.558 6.59-18.463 6.59-29.703 0-11.334-2.19-21.264-6.59-29.775-4.4-8.558-10.67-15.21-18.8-19.947-8.09-4.787-17.7-7.17-28.81-7.17-11.1 0-20.73 2.383-28.87 7.171-8.09 4.737-14.33 11.389-18.73 19.946-4.4 8.511-6.59 18.441-6.59 29.775 0 11.24 2.19 21.145 6.59 29.703zm67.44-13.108v.004c-1.68 4.903-4.17 8.752-7.45 11.572-3.26 2.753-7.33 4.141-12.24 4.141-4.97 0-9.11-1.389-12.47-4.145-3.33-2.821-5.86-6.671-7.59-11.572-1.68-4.909-2.53-10.51-2.53-16.808 0-6.299.85-11.9 2.53-16.809 1.73-4.902 4.26-8.751 7.59-11.573 3.36-2.803 7.5-4.215 12.47-4.215 4.91 0 8.98 1.412 12.24 4.212 3.28 2.82 5.77 6.669 7.45 11.572v.004c1.73 4.909 2.6 10.509 2.6 16.809 0 6.299-.87 11.899-2.6 16.808zm53.53-72.067h-.5v114.492c0 4.047-.98 6.975-2.84 8.883l-.01.009c-1.8 1.929-5.03 2.966-9.86 2.966-.65 0-1.25-.024-1.8-.07l-.03-.001h-.02c-.6 0-1.3-.024-2.1-.071l-.53-.031v24.66l.48.021c1.09.047 2.14.071 3.14.071.95.047 1.95.071 2.99.071 8.62 0 16.04-1.213 22.27-3.657 6.29-2.45 11.14-6.326 14.52-11.631 3.38-5.313 5.05-12.234 5.05-20.723V220.409h-30.76zm3.21-17.673v.003c3.32 3.07 7.27 4.608 11.85 4.608 4.66 0 8.65-1.536 11.92-4.611l-.35-.364.35.364c3.31-3.119 4.98-6.871 4.98-11.23 0-4.313-1.67-8.018-4.98-11.089-3.27-3.121-7.26-4.681-11.92-4.681-4.58 0-8.54 1.563-11.85 4.681-3.32 3.072-4.99 6.776-4.99 11.089 0 4.359 1.67 8.111 4.99 11.23z" stroke="#9796A5" stroke-opacity=".15"/><path d="M1 0h1v1H1V0z" fill="#fff"/></g><defs><clipPath id="clip0_221_75"><path fill="#fff" transform="translate(.715 .39)" d="M0 0h1186.17v373.581H0z"/></clipPath></defs></svg>