<svg width="1198" height="376" viewBox="0 0 1198 376" fill="none" xmlns="http://www.w3.org/2000/svg">
<mask id="path-1-outside-1_218_34" maskUnits="userSpaceOnUse" x="0.564453" y="0.390137" width="1197" height="376" fill="black">
<rect fill="white" x="0.564453" y="0.390137" width="1197" height="376"/>
<path d="M163.851 6.36364V370H86.9693V79.3395H84.8386L1.56445 131.541V63.3594L91.5858 6.36364H163.851Z"/>
<path d="M381.847 1.39205C400.549 1.39205 418.542 4.52888 435.824 10.8025C453.225 17.0762 468.731 27.0786 482.344 40.8097C496.075 54.5407 506.906 72.7699 514.837 95.4972C522.886 118.106 526.97 145.864 527.088 178.771C527.088 209.666 523.596 237.247 516.612 261.513C509.747 285.661 499.863 306.198 486.96 323.125C474.058 340.052 458.492 352.955 440.263 361.832C422.034 370.592 401.674 374.972 379.183 374.972C354.917 374.972 333.492 370.296 314.908 360.945C296.324 351.475 281.35 338.632 269.986 322.415C258.741 306.08 251.934 287.732 249.567 267.372H325.384C328.343 280.63 334.557 290.928 344.027 298.267C353.497 305.488 365.216 309.098 379.183 309.098C402.858 309.098 420.85 298.8 433.161 278.203C445.471 257.488 451.686 229.138 451.804 193.153H449.318C443.873 203.807 436.534 212.981 427.301 220.675C418.068 228.25 407.474 234.11 395.519 238.253C383.682 242.396 371.075 244.467 357.699 244.467C336.274 244.467 317.157 239.437 300.348 229.375C283.539 219.313 270.282 205.464 260.575 187.827C250.869 170.189 246.016 150.066 246.016 127.457C245.897 103.073 251.52 81.3518 262.884 62.294C274.247 43.2363 290.109 28.3215 310.469 17.5497C330.947 6.65957 354.74 1.27367 381.847 1.39205ZM382.379 61.7614C370.424 61.7614 359.771 64.6023 350.419 70.2841C341.186 75.9659 333.847 83.6009 328.402 93.1889C323.075 102.777 320.471 113.49 320.59 125.327C320.59 137.282 323.194 148.054 328.402 157.642C333.729 167.112 340.95 174.688 350.064 180.369C359.297 185.933 369.832 188.714 381.669 188.714C390.547 188.714 398.774 187.057 406.35 183.743C413.925 180.429 420.495 175.871 426.058 170.071C431.74 164.152 436.179 157.346 439.375 149.652C442.571 141.958 444.169 133.79 444.169 125.149C444.051 113.667 441.328 103.132 436.002 93.544C430.675 83.956 423.336 76.2618 413.985 70.4616C404.633 64.6615 394.098 61.7614 382.379 61.7614Z"/>
<path d="M574.851 306.08V245.533L726.662 6.36364H778.864V90.1705H747.969L652.266 241.626V244.467H867.997V306.08H574.851ZM749.389 370V287.614L750.81 260.803V6.36364H822.898V370H749.389Z"/>
<path d="M1050.79 1.39205C1069.49 1.39205 1087.49 4.52888 1104.77 10.8025C1122.17 17.0762 1137.68 27.0786 1151.29 40.8097C1165.02 54.5407 1175.85 72.7699 1183.78 95.4972C1191.83 118.106 1195.92 145.864 1196.03 178.771C1196.03 209.666 1192.54 237.247 1185.56 261.513C1178.69 285.661 1168.81 306.198 1155.91 323.125C1143 340.052 1127.44 352.955 1109.21 361.832C1090.98 370.592 1070.62 374.972 1048.13 374.972C1023.86 374.972 1002.44 370.296 983.853 360.945C965.269 351.475 950.295 338.632 938.931 322.415C927.686 306.08 920.88 287.732 918.512 267.372H994.329C997.288 280.63 1003.5 290.928 1012.97 298.267C1022.44 305.488 1034.16 309.098 1048.13 309.098C1071.8 309.098 1089.8 298.8 1102.11 278.203C1114.42 257.488 1120.63 229.138 1120.75 193.153H1118.26C1112.82 203.807 1105.48 212.981 1096.25 220.675C1087.01 228.25 1076.42 234.11 1064.46 238.253C1052.63 242.396 1040.02 244.467 1026.64 244.467C1005.22 244.467 986.102 239.437 969.294 229.375C952.485 219.313 939.227 205.464 929.521 187.827C919.814 170.189 914.961 150.066 914.961 127.457C914.843 103.073 920.465 81.3518 931.829 62.294C943.193 43.2363 959.054 28.3215 979.414 17.5497C999.892 6.65957 1023.69 1.27367 1050.79 1.39205ZM1051.32 61.7614C1039.37 61.7614 1028.72 64.6023 1019.36 70.2841C1010.13 75.9659 1002.79 83.6009 997.347 93.1889C992.021 102.777 989.417 113.49 989.535 125.327C989.535 137.282 992.139 148.054 997.347 157.642C1002.67 167.112 1009.89 174.688 1019.01 180.369C1028.24 185.933 1038.78 188.714 1050.61 188.714C1059.49 188.714 1067.72 187.057 1075.29 183.743C1082.87 180.429 1089.44 175.871 1095 170.071C1100.69 164.152 1105.12 157.346 1108.32 149.652C1111.52 141.958 1113.11 133.79 1113.11 125.149C1113 113.667 1110.27 103.132 1104.95 93.544C1099.62 83.956 1092.28 76.2618 1082.93 70.4616C1073.58 64.6615 1063.04 61.7614 1051.32 61.7614Z"/>
</mask>
<path d="M163.851 6.36364V370H86.9693V79.3395H84.8386L1.56445 131.541V63.3594L91.5858 6.36364H163.851Z" fill="white" fill-opacity="0.7"/>
<path d="M381.847 1.39205C400.549 1.39205 418.542 4.52888 435.824 10.8025C453.225 17.0762 468.731 27.0786 482.344 40.8097C496.075 54.5407 506.906 72.7699 514.837 95.4972C522.886 118.106 526.97 145.864 527.088 178.771C527.088 209.666 523.596 237.247 516.612 261.513C509.747 285.661 499.863 306.198 486.96 323.125C474.058 340.052 458.492 352.955 440.263 361.832C422.034 370.592 401.674 374.972 379.183 374.972C354.917 374.972 333.492 370.296 314.908 360.945C296.324 351.475 281.35 338.632 269.986 322.415C258.741 306.08 251.934 287.732 249.567 267.372H325.384C328.343 280.63 334.557 290.928 344.027 298.267C353.497 305.488 365.216 309.098 379.183 309.098C402.858 309.098 420.85 298.8 433.161 278.203C445.471 257.488 451.686 229.138 451.804 193.153H449.318C443.873 203.807 436.534 212.981 427.301 220.675C418.068 228.25 407.474 234.11 395.519 238.253C383.682 242.396 371.075 244.467 357.699 244.467C336.274 244.467 317.157 239.437 300.348 229.375C283.539 219.313 270.282 205.464 260.575 187.827C250.869 170.189 246.016 150.066 246.016 127.457C245.897 103.073 251.52 81.3518 262.884 62.294C274.247 43.2363 290.109 28.3215 310.469 17.5497C330.947 6.65957 354.74 1.27367 381.847 1.39205ZM382.379 61.7614C370.424 61.7614 359.771 64.6023 350.419 70.2841C341.186 75.9659 333.847 83.6009 328.402 93.1889C323.075 102.777 320.471 113.49 320.59 125.327C320.59 137.282 323.194 148.054 328.402 157.642C333.729 167.112 340.95 174.688 350.064 180.369C359.297 185.933 369.832 188.714 381.669 188.714C390.547 188.714 398.774 187.057 406.35 183.743C413.925 180.429 420.495 175.871 426.058 170.071C431.74 164.152 436.179 157.346 439.375 149.652C442.571 141.958 444.169 133.79 444.169 125.149C444.051 113.667 441.328 103.132 436.002 93.544C430.675 83.956 423.336 76.2618 413.985 70.4616C404.633 64.6615 394.098 61.7614 382.379 61.7614Z" fill="white" fill-opacity="0.7"/>
<path d="M574.851 306.08V245.533L726.662 6.36364H778.864V90.1705H747.969L652.266 241.626V244.467H867.997V306.08H574.851ZM749.389 370V287.614L750.81 260.803V6.36364H822.898V370H749.389Z" fill="white" fill-opacity="0.7"/>
<path d="M1050.79 1.39205C1069.49 1.39205 1087.49 4.52888 1104.77 10.8025C1122.17 17.0762 1137.68 27.0786 1151.29 40.8097C1165.02 54.5407 1175.85 72.7699 1183.78 95.4972C1191.83 118.106 1195.92 145.864 1196.03 178.771C1196.03 209.666 1192.54 237.247 1185.56 261.513C1178.69 285.661 1168.81 306.198 1155.91 323.125C1143 340.052 1127.44 352.955 1109.21 361.832C1090.98 370.592 1070.62 374.972 1048.13 374.972C1023.86 374.972 1002.44 370.296 983.853 360.945C965.269 351.475 950.295 338.632 938.931 322.415C927.686 306.08 920.88 287.732 918.512 267.372H994.329C997.288 280.63 1003.5 290.928 1012.97 298.267C1022.44 305.488 1034.16 309.098 1048.13 309.098C1071.8 309.098 1089.8 298.8 1102.11 278.203C1114.42 257.488 1120.63 229.138 1120.75 193.153H1118.26C1112.82 203.807 1105.48 212.981 1096.25 220.675C1087.01 228.25 1076.42 234.11 1064.46 238.253C1052.63 242.396 1040.02 244.467 1026.64 244.467C1005.22 244.467 986.102 239.437 969.294 229.375C952.485 219.313 939.227 205.464 929.521 187.827C919.814 170.189 914.961 150.066 914.961 127.457C914.843 103.073 920.465 81.3518 931.829 62.294C943.193 43.2363 959.054 28.3215 979.414 17.5497C999.892 6.65957 1023.69 1.27367 1050.79 1.39205ZM1051.32 61.7614C1039.37 61.7614 1028.72 64.6023 1019.36 70.2841C1010.13 75.9659 1002.79 83.6009 997.347 93.1889C992.021 102.777 989.417 113.49 989.535 125.327C989.535 137.282 992.139 148.054 997.347 157.642C1002.67 167.112 1009.89 174.688 1019.01 180.369C1028.24 185.933 1038.78 188.714 1050.61 188.714C1059.49 188.714 1067.72 187.057 1075.29 183.743C1082.87 180.429 1089.44 175.871 1095 170.071C1100.69 164.152 1105.12 157.346 1108.32 149.652C1111.52 141.958 1113.11 133.79 1113.11 125.149C1113 113.667 1110.27 103.132 1104.95 93.544C1099.62 83.956 1092.28 76.2618 1082.93 70.4616C1073.58 64.6615 1063.04 61.7614 1051.32 61.7614Z" fill="white" fill-opacity="0.7"/>
<path d="M163.851 6.36364V370H86.9693V79.3395H84.8386L1.56445 131.541V63.3594L91.5858 6.36364H163.851Z" stroke="#9796A5" stroke-opacity="0.35" stroke-width="2" mask="url(#path-1-outside-1_218_34)"/>
<path d="M381.847 1.39205C400.549 1.39205 418.542 4.52888 435.824 10.8025C453.225 17.0762 468.731 27.0786 482.344 40.8097C496.075 54.5407 506.906 72.7699 514.837 95.4972C522.886 118.106 526.97 145.864 527.088 178.771C527.088 209.666 523.596 237.247 516.612 261.513C509.747 285.661 499.863 306.198 486.96 323.125C474.058 340.052 458.492 352.955 440.263 361.832C422.034 370.592 401.674 374.972 379.183 374.972C354.917 374.972 333.492 370.296 314.908 360.945C296.324 351.475 281.35 338.632 269.986 322.415C258.741 306.08 251.934 287.732 249.567 267.372H325.384C328.343 280.63 334.557 290.928 344.027 298.267C353.497 305.488 365.216 309.098 379.183 309.098C402.858 309.098 420.85 298.8 433.161 278.203C445.471 257.488 451.686 229.138 451.804 193.153H449.318C443.873 203.807 436.534 212.981 427.301 220.675C418.068 228.25 407.474 234.11 395.519 238.253C383.682 242.396 371.075 244.467 357.699 244.467C336.274 244.467 317.157 239.437 300.348 229.375C283.539 219.313 270.282 205.464 260.575 187.827C250.869 170.189 246.016 150.066 246.016 127.457C245.897 103.073 251.52 81.3518 262.884 62.294C274.247 43.2363 290.109 28.3215 310.469 17.5497C330.947 6.65957 354.74 1.27367 381.847 1.39205ZM382.379 61.7614C370.424 61.7614 359.771 64.6023 350.419 70.2841C341.186 75.9659 333.847 83.6009 328.402 93.1889C323.075 102.777 320.471 113.49 320.59 125.327C320.59 137.282 323.194 148.054 328.402 157.642C333.729 167.112 340.95 174.688 350.064 180.369C359.297 185.933 369.832 188.714 381.669 188.714C390.547 188.714 398.774 187.057 406.35 183.743C413.925 180.429 420.495 175.871 426.058 170.071C431.74 164.152 436.179 157.346 439.375 149.652C442.571 141.958 444.169 133.79 444.169 125.149C444.051 113.667 441.328 103.132 436.002 93.544C430.675 83.956 423.336 76.2618 413.985 70.4616C404.633 64.6615 394.098 61.7614 382.379 61.7614Z" stroke="#9796A5" stroke-opacity="0.35" stroke-width="2" mask="url(#path-1-outside-1_218_34)"/>
<path d="M574.851 306.08V245.533L726.662 6.36364H778.864V90.1705H747.969L652.266 241.626V244.467H867.997V306.08H574.851ZM749.389 370V287.614L750.81 260.803V6.36364H822.898V370H749.389Z" stroke="#9796A5" stroke-opacity="0.35" stroke-width="2" mask="url(#path-1-outside-1_218_34)"/>
<path d="M1050.79 1.39205C1069.49 1.39205 1087.49 4.52888 1104.77 10.8025C1122.17 17.0762 1137.68 27.0786 1151.29 40.8097C1165.02 54.5407 1175.85 72.7699 1183.78 95.4972C1191.83 118.106 1195.92 145.864 1196.03 178.771C1196.03 209.666 1192.54 237.247 1185.56 261.513C1178.69 285.661 1168.81 306.198 1155.91 323.125C1143 340.052 1127.44 352.955 1109.21 361.832C1090.98 370.592 1070.62 374.972 1048.13 374.972C1023.86 374.972 1002.44 370.296 983.853 360.945C965.269 351.475 950.295 338.632 938.931 322.415C927.686 306.08 920.88 287.732 918.512 267.372H994.329C997.288 280.63 1003.5 290.928 1012.97 298.267C1022.44 305.488 1034.16 309.098 1048.13 309.098C1071.8 309.098 1089.8 298.8 1102.11 278.203C1114.42 257.488 1120.63 229.138 1120.75 193.153H1118.26C1112.82 203.807 1105.48 212.981 1096.25 220.675C1087.01 228.25 1076.42 234.11 1064.46 238.253C1052.63 242.396 1040.02 244.467 1026.64 244.467C1005.22 244.467 986.102 239.437 969.294 229.375C952.485 219.313 939.227 205.464 929.521 187.827C919.814 170.189 914.961 150.066 914.961 127.457C914.843 103.073 920.465 81.3518 931.829 62.294C943.193 43.2363 959.054 28.3215 979.414 17.5497C999.892 6.65957 1023.69 1.27367 1050.79 1.39205ZM1051.32 61.7614C1039.37 61.7614 1028.72 64.6023 1019.36 70.2841C1010.13 75.9659 1002.79 83.6009 997.347 93.1889C992.021 102.777 989.417 113.49 989.535 125.327C989.535 137.282 992.139 148.054 997.347 157.642C1002.67 167.112 1009.89 174.688 1019.01 180.369C1028.24 185.933 1038.78 188.714 1050.61 188.714C1059.49 188.714 1067.72 187.057 1075.29 183.743C1082.87 180.429 1089.44 175.871 1095 170.071C1100.69 164.152 1105.12 157.346 1108.32 149.652C1111.52 141.958 1113.11 133.79 1113.11 125.149C1113 113.667 1110.27 103.132 1104.95 93.544C1099.62 83.956 1092.28 76.2618 1082.93 70.4616C1073.58 64.6615 1063.04 61.7614 1051.32 61.7614Z" stroke="#9796A5" stroke-opacity="0.35" stroke-width="2" mask="url(#path-1-outside-1_218_34)"/>
</svg>
