<svg width="1178" height="376" viewBox="0 0 1178 376" fill="none" xmlns="http://www.w3.org/2000/svg">
<mask id="path-1-outside-1_218_44" maskUnits="userSpaceOnUse" x="0.109375" y="0.390137" width="1178" height="376" fill="black">
<rect fill="white" x="0.109375" y="0.390137" width="1178" height="376"/>
<path d="M163.396 6.36364V370H86.5142V79.3395H84.3835L1.10938 131.541V63.3594L91.1307 6.36364H163.396Z"/>
<path d="M381.392 1.39205C400.094 1.39205 418.087 4.52888 435.369 10.8025C452.77 17.0762 468.276 27.0786 481.889 40.8097C495.62 54.5407 506.451 72.7699 514.382 95.4972C522.431 118.106 526.515 145.864 526.633 178.771C526.633 209.666 523.141 237.247 516.157 261.513C509.292 285.661 499.408 306.198 486.505 323.125C473.603 340.052 458.037 352.955 439.808 361.832C421.579 370.592 401.219 374.972 378.728 374.972C354.462 374.972 333.037 370.296 314.453 360.945C295.868 351.475 280.895 338.632 269.531 322.415C258.286 306.08 251.479 287.732 249.112 267.372H324.929C327.888 280.63 334.102 290.928 343.572 298.267C353.042 305.488 364.761 309.098 378.728 309.098C402.403 309.098 420.395 298.8 432.706 278.203C445.016 257.488 451.231 229.138 451.349 193.153H448.863C443.418 203.807 436.079 212.981 426.846 220.675C417.613 228.25 407.019 234.11 395.064 238.253C383.226 242.396 370.62 244.467 357.244 244.467C335.819 244.467 316.702 239.437 299.893 229.375C283.084 219.313 269.827 205.464 260.12 187.827C250.414 170.189 245.561 150.066 245.561 127.457C245.442 103.073 251.065 81.3518 262.429 62.294C273.792 43.2363 289.654 28.3215 310.014 17.5497C330.492 6.65957 354.285 1.27367 381.392 1.39205ZM381.924 61.7614C369.969 61.7614 359.315 64.6023 349.964 70.2841C340.731 75.9659 333.392 83.6009 327.947 93.1889C322.62 102.777 320.016 113.49 320.135 125.327C320.135 137.282 322.739 148.054 327.947 157.642C333.274 167.112 340.494 174.688 349.609 180.369C358.842 185.933 369.377 188.714 381.214 188.714C390.092 188.714 398.319 187.057 405.895 183.743C413.47 180.429 420.04 175.871 425.603 170.071C431.285 164.152 435.724 157.346 438.92 149.652C442.116 141.958 443.714 133.79 443.714 125.149C443.596 113.667 440.873 103.132 435.547 93.544C430.22 83.956 422.881 76.2618 413.529 70.4616C404.178 64.6615 393.643 61.7614 381.924 61.7614Z"/>
<path d="M712.713 374.972C687.618 374.972 665.246 370.355 645.596 361.122C626.065 351.889 610.558 339.164 599.076 322.947C587.594 306.731 581.617 288.146 581.143 267.195H655.717C656.546 281.281 662.464 292.704 673.473 301.463C684.481 310.223 697.561 314.602 712.713 314.602C724.787 314.602 735.44 311.939 744.673 306.612C754.024 301.167 761.304 293.651 766.512 284.062C771.839 274.356 774.503 263.229 774.503 250.682C774.503 237.898 771.78 226.652 766.335 216.946C761.008 207.24 753.61 199.664 744.14 194.219C734.671 188.774 723.84 185.992 711.647 185.874C700.994 185.874 690.637 188.063 680.575 192.443C670.632 196.823 662.878 202.801 657.315 210.376L588.956 198.125L606.179 6.36364H828.48V69.2188H669.566L660.156 160.305H662.287C668.679 151.309 678.326 143.852 691.228 137.933C704.131 132.015 718.572 129.055 734.552 129.055C756.451 129.055 775.982 134.205 793.146 144.503C810.31 154.801 823.863 168.947 833.806 186.939C843.75 204.813 848.662 225.41 848.544 248.729C848.662 273.232 842.98 295.012 831.498 314.07C820.135 333.009 804.214 347.924 783.735 358.814C763.376 369.586 739.701 374.972 712.713 374.972Z"/>
<path d="M1036.58 374.972C1010.06 374.972 986.446 370.414 965.731 361.3C945.135 352.067 928.859 339.401 916.903 323.303C905.066 307.086 898.97 288.383 898.615 267.195H976.029C976.503 276.072 979.403 283.885 984.73 290.632C990.175 297.261 997.395 302.41 1006.39 306.08C1015.39 309.749 1025.51 311.584 1036.75 311.584C1048.47 311.584 1058.83 309.512 1067.83 305.369C1076.82 301.226 1083.87 295.485 1088.96 288.146C1094.05 280.807 1096.59 272.344 1096.59 262.756C1096.59 253.049 1093.87 244.467 1088.42 237.01C1083.1 229.434 1075.4 223.516 1065.34 219.254C1055.4 214.993 1043.56 212.862 1029.83 212.862H995.916V156.399H1029.83C1041.43 156.399 1051.67 154.387 1060.55 150.362C1069.54 146.338 1076.53 140.774 1081.5 133.672C1086.47 126.451 1088.96 118.047 1088.96 108.459C1088.96 99.3442 1086.77 91.3542 1082.39 84.4886C1078.12 77.5047 1072.09 72.0597 1064.28 68.1534C1056.58 64.2472 1047.58 62.294 1037.29 62.294C1026.87 62.294 1017.34 64.188 1008.7 67.9759C1000.06 71.6454 993.134 76.9129 987.926 83.7784C982.717 90.6439 979.936 98.6932 979.581 107.926H905.895C906.25 86.9744 912.227 68.5085 923.828 52.5284C935.428 36.5483 951.053 24.0601 970.703 15.0639C990.471 5.94934 1012.78 1.39205 1037.64 1.39205C1062.74 1.39205 1084.69 5.94934 1103.52 15.0639C1122.34 24.1785 1136.96 36.4891 1147.37 51.9957C1157.91 67.384 1163.12 84.6662 1163 103.842C1163.12 124.202 1156.78 141.188 1144 154.801C1131.33 168.414 1114.82 177.055 1094.46 180.724V183.565C1121.21 186.998 1141.57 196.29 1155.54 211.442C1169.63 226.475 1176.61 245.296 1176.49 267.905C1176.61 288.62 1170.63 307.027 1158.56 323.125C1146.6 339.223 1130.09 351.889 1109.02 361.122C1087.95 370.355 1063.8 374.972 1036.58 374.972Z"/>
</mask>
<path d="M163.396 6.36364V370H86.5142V79.3395H84.3835L1.10938 131.541V63.3594L91.1307 6.36364H163.396Z" fill="white" fill-opacity="0.7"/>
<path d="M381.392 1.39205C400.094 1.39205 418.087 4.52888 435.369 10.8025C452.77 17.0762 468.276 27.0786 481.889 40.8097C495.62 54.5407 506.451 72.7699 514.382 95.4972C522.431 118.106 526.515 145.864 526.633 178.771C526.633 209.666 523.141 237.247 516.157 261.513C509.292 285.661 499.408 306.198 486.505 323.125C473.603 340.052 458.037 352.955 439.808 361.832C421.579 370.592 401.219 374.972 378.728 374.972C354.462 374.972 333.037 370.296 314.453 360.945C295.868 351.475 280.895 338.632 269.531 322.415C258.286 306.08 251.479 287.732 249.112 267.372H324.929C327.888 280.63 334.102 290.928 343.572 298.267C353.042 305.488 364.761 309.098 378.728 309.098C402.403 309.098 420.395 298.8 432.706 278.203C445.016 257.488 451.231 229.138 451.349 193.153H448.863C443.418 203.807 436.079 212.981 426.846 220.675C417.613 228.25 407.019 234.11 395.064 238.253C383.226 242.396 370.62 244.467 357.244 244.467C335.819 244.467 316.702 239.437 299.893 229.375C283.084 219.313 269.827 205.464 260.12 187.827C250.414 170.189 245.561 150.066 245.561 127.457C245.442 103.073 251.065 81.3518 262.429 62.294C273.792 43.2363 289.654 28.3215 310.014 17.5497C330.492 6.65957 354.285 1.27367 381.392 1.39205ZM381.924 61.7614C369.969 61.7614 359.315 64.6023 349.964 70.2841C340.731 75.9659 333.392 83.6009 327.947 93.1889C322.62 102.777 320.016 113.49 320.135 125.327C320.135 137.282 322.739 148.054 327.947 157.642C333.274 167.112 340.494 174.688 349.609 180.369C358.842 185.933 369.377 188.714 381.214 188.714C390.092 188.714 398.319 187.057 405.895 183.743C413.47 180.429 420.04 175.871 425.603 170.071C431.285 164.152 435.724 157.346 438.92 149.652C442.116 141.958 443.714 133.79 443.714 125.149C443.596 113.667 440.873 103.132 435.547 93.544C430.22 83.956 422.881 76.2618 413.529 70.4616C404.178 64.6615 393.643 61.7614 381.924 61.7614Z" fill="white" fill-opacity="0.7"/>
<path d="M712.713 374.972C687.618 374.972 665.246 370.355 645.596 361.122C626.065 351.889 610.558 339.164 599.076 322.947C587.594 306.731 581.617 288.146 581.143 267.195H655.717C656.546 281.281 662.464 292.704 673.473 301.463C684.481 310.223 697.561 314.602 712.713 314.602C724.787 314.602 735.44 311.939 744.673 306.612C754.024 301.167 761.304 293.651 766.512 284.062C771.839 274.356 774.503 263.229 774.503 250.682C774.503 237.898 771.78 226.652 766.335 216.946C761.008 207.24 753.61 199.664 744.14 194.219C734.671 188.774 723.84 185.992 711.647 185.874C700.994 185.874 690.637 188.063 680.575 192.443C670.632 196.823 662.878 202.801 657.315 210.376L588.956 198.125L606.179 6.36364H828.48V69.2188H669.566L660.156 160.305H662.287C668.679 151.309 678.326 143.852 691.228 137.933C704.131 132.015 718.572 129.055 734.552 129.055C756.451 129.055 775.982 134.205 793.146 144.503C810.31 154.801 823.863 168.947 833.806 186.939C843.75 204.813 848.662 225.41 848.544 248.729C848.662 273.232 842.98 295.012 831.498 314.07C820.135 333.009 804.214 347.924 783.735 358.814C763.376 369.586 739.701 374.972 712.713 374.972Z" fill="white" fill-opacity="0.7"/>
<path d="M1036.58 374.972C1010.06 374.972 986.446 370.414 965.731 361.3C945.135 352.067 928.859 339.401 916.903 323.303C905.066 307.086 898.97 288.383 898.615 267.195H976.029C976.503 276.072 979.403 283.885 984.73 290.632C990.175 297.261 997.395 302.41 1006.39 306.08C1015.39 309.749 1025.51 311.584 1036.75 311.584C1048.47 311.584 1058.83 309.512 1067.83 305.369C1076.82 301.226 1083.87 295.485 1088.96 288.146C1094.05 280.807 1096.59 272.344 1096.59 262.756C1096.59 253.049 1093.87 244.467 1088.42 237.01C1083.1 229.434 1075.4 223.516 1065.34 219.254C1055.4 214.993 1043.56 212.862 1029.83 212.862H995.916V156.399H1029.83C1041.43 156.399 1051.67 154.387 1060.55 150.362C1069.54 146.338 1076.53 140.774 1081.5 133.672C1086.47 126.451 1088.96 118.047 1088.96 108.459C1088.96 99.3442 1086.77 91.3542 1082.39 84.4886C1078.12 77.5047 1072.09 72.0597 1064.28 68.1534C1056.58 64.2472 1047.58 62.294 1037.29 62.294C1026.87 62.294 1017.34 64.188 1008.7 67.9759C1000.06 71.6454 993.134 76.9129 987.926 83.7784C982.717 90.6439 979.936 98.6932 979.581 107.926H905.895C906.25 86.9744 912.227 68.5085 923.828 52.5284C935.428 36.5483 951.053 24.0601 970.703 15.0639C990.471 5.94934 1012.78 1.39205 1037.64 1.39205C1062.74 1.39205 1084.69 5.94934 1103.52 15.0639C1122.34 24.1785 1136.96 36.4891 1147.37 51.9957C1157.91 67.384 1163.12 84.6662 1163 103.842C1163.12 124.202 1156.78 141.188 1144 154.801C1131.33 168.414 1114.82 177.055 1094.46 180.724V183.565C1121.21 186.998 1141.57 196.29 1155.54 211.442C1169.63 226.475 1176.61 245.296 1176.49 267.905C1176.61 288.62 1170.63 307.027 1158.56 323.125C1146.6 339.223 1130.09 351.889 1109.02 361.122C1087.95 370.355 1063.8 374.972 1036.58 374.972Z" fill="white" fill-opacity="0.7"/>
<path d="M163.396 6.36364V370H86.5142V79.3395H84.3835L1.10938 131.541V63.3594L91.1307 6.36364H163.396Z" stroke="#9796A5" stroke-opacity="0.35" stroke-width="2" mask="url(#path-1-outside-1_218_44)"/>
<path d="M381.392 1.39205C400.094 1.39205 418.087 4.52888 435.369 10.8025C452.77 17.0762 468.276 27.0786 481.889 40.8097C495.62 54.5407 506.451 72.7699 514.382 95.4972C522.431 118.106 526.515 145.864 526.633 178.771C526.633 209.666 523.141 237.247 516.157 261.513C509.292 285.661 499.408 306.198 486.505 323.125C473.603 340.052 458.037 352.955 439.808 361.832C421.579 370.592 401.219 374.972 378.728 374.972C354.462 374.972 333.037 370.296 314.453 360.945C295.868 351.475 280.895 338.632 269.531 322.415C258.286 306.08 251.479 287.732 249.112 267.372H324.929C327.888 280.63 334.102 290.928 343.572 298.267C353.042 305.488 364.761 309.098 378.728 309.098C402.403 309.098 420.395 298.8 432.706 278.203C445.016 257.488 451.231 229.138 451.349 193.153H448.863C443.418 203.807 436.079 212.981 426.846 220.675C417.613 228.25 407.019 234.11 395.064 238.253C383.226 242.396 370.62 244.467 357.244 244.467C335.819 244.467 316.702 239.437 299.893 229.375C283.084 219.313 269.827 205.464 260.12 187.827C250.414 170.189 245.561 150.066 245.561 127.457C245.442 103.073 251.065 81.3518 262.429 62.294C273.792 43.2363 289.654 28.3215 310.014 17.5497C330.492 6.65957 354.285 1.27367 381.392 1.39205ZM381.924 61.7614C369.969 61.7614 359.315 64.6023 349.964 70.2841C340.731 75.9659 333.392 83.6009 327.947 93.1889C322.62 102.777 320.016 113.49 320.135 125.327C320.135 137.282 322.739 148.054 327.947 157.642C333.274 167.112 340.494 174.688 349.609 180.369C358.842 185.933 369.377 188.714 381.214 188.714C390.092 188.714 398.319 187.057 405.895 183.743C413.47 180.429 420.04 175.871 425.603 170.071C431.285 164.152 435.724 157.346 438.92 149.652C442.116 141.958 443.714 133.79 443.714 125.149C443.596 113.667 440.873 103.132 435.547 93.544C430.22 83.956 422.881 76.2618 413.529 70.4616C404.178 64.6615 393.643 61.7614 381.924 61.7614Z" stroke="#9796A5" stroke-opacity="0.35" stroke-width="2" mask="url(#path-1-outside-1_218_44)"/>
<path d="M712.713 374.972C687.618 374.972 665.246 370.355 645.596 361.122C626.065 351.889 610.558 339.164 599.076 322.947C587.594 306.731 581.617 288.146 581.143 267.195H655.717C656.546 281.281 662.464 292.704 673.473 301.463C684.481 310.223 697.561 314.602 712.713 314.602C724.787 314.602 735.44 311.939 744.673 306.612C754.024 301.167 761.304 293.651 766.512 284.062C771.839 274.356 774.503 263.229 774.503 250.682C774.503 237.898 771.78 226.652 766.335 216.946C761.008 207.24 753.61 199.664 744.14 194.219C734.671 188.774 723.84 185.992 711.647 185.874C700.994 185.874 690.637 188.063 680.575 192.443C670.632 196.823 662.878 202.801 657.315 210.376L588.956 198.125L606.179 6.36364H828.48V69.2188H669.566L660.156 160.305H662.287C668.679 151.309 678.326 143.852 691.228 137.933C704.131 132.015 718.572 129.055 734.552 129.055C756.451 129.055 775.982 134.205 793.146 144.503C810.31 154.801 823.863 168.947 833.806 186.939C843.75 204.813 848.662 225.41 848.544 248.729C848.662 273.232 842.98 295.012 831.498 314.07C820.135 333.009 804.214 347.924 783.735 358.814C763.376 369.586 739.701 374.972 712.713 374.972Z" stroke="#9796A5" stroke-opacity="0.35" stroke-width="2" mask="url(#path-1-outside-1_218_44)"/>
<path d="M1036.58 374.972C1010.06 374.972 986.446 370.414 965.731 361.3C945.135 352.067 928.859 339.401 916.903 323.303C905.066 307.086 898.97 288.383 898.615 267.195H976.029C976.503 276.072 979.403 283.885 984.73 290.632C990.175 297.261 997.395 302.41 1006.39 306.08C1015.39 309.749 1025.51 311.584 1036.75 311.584C1048.47 311.584 1058.83 309.512 1067.83 305.369C1076.82 301.226 1083.87 295.485 1088.96 288.146C1094.05 280.807 1096.59 272.344 1096.59 262.756C1096.59 253.049 1093.87 244.467 1088.42 237.01C1083.1 229.434 1075.4 223.516 1065.34 219.254C1055.4 214.993 1043.56 212.862 1029.83 212.862H995.916V156.399H1029.83C1041.43 156.399 1051.67 154.387 1060.55 150.362C1069.54 146.338 1076.53 140.774 1081.5 133.672C1086.47 126.451 1088.96 118.047 1088.96 108.459C1088.96 99.3442 1086.77 91.3542 1082.39 84.4886C1078.12 77.5047 1072.09 72.0597 1064.28 68.1534C1056.58 64.2472 1047.58 62.294 1037.29 62.294C1026.87 62.294 1017.34 64.188 1008.7 67.9759C1000.06 71.6454 993.134 76.9129 987.926 83.7784C982.717 90.6439 979.936 98.6932 979.581 107.926H905.895C906.25 86.9744 912.227 68.5085 923.828 52.5284C935.428 36.5483 951.053 24.0601 970.703 15.0639C990.471 5.94934 1012.78 1.39205 1037.64 1.39205C1062.74 1.39205 1084.69 5.94934 1103.52 15.0639C1122.34 24.1785 1136.96 36.4891 1147.37 51.9957C1157.91 67.384 1163.12 84.6662 1163 103.842C1163.12 124.202 1156.78 141.188 1144 154.801C1131.33 168.414 1114.82 177.055 1094.46 180.724V183.565C1121.21 186.998 1141.57 196.29 1155.54 211.442C1169.63 226.475 1176.61 245.296 1176.49 267.905C1176.61 288.62 1170.63 307.027 1158.56 323.125C1146.6 339.223 1130.09 351.889 1109.02 361.122C1087.95 370.355 1063.8 374.972 1036.58 374.972Z" stroke="#9796A5" stroke-opacity="0.35" stroke-width="2" mask="url(#path-1-outside-1_218_44)"/>
</svg>
