<svg width="1173" height="376" viewBox="0 0 1173 376" fill="none" xmlns="http://www.w3.org/2000/svg">
<mask id="path-1-outside-1_218_45" maskUnits="userSpaceOnUse" x="0.771484" y="0.390137" width="1172" height="376" fill="black">
<rect fill="white" x="0.771484" y="0.390137" width="1172" height="376"/>
<path d="M164.058 6.36364V370H87.1763V79.3395H85.0456L1.77148 131.541V63.3594L91.7928 6.36364H164.058Z"/>
<path d="M382.054 1.39205C400.756 1.39205 418.749 4.52888 436.031 10.8025C453.432 17.0762 468.938 27.0786 482.551 40.8097C496.282 54.5407 507.113 72.7699 515.044 95.4972C523.093 118.106 527.177 145.864 527.295 178.771C527.295 209.666 523.803 237.247 516.819 261.513C509.954 285.661 500.07 306.198 487.167 323.125C474.265 340.052 458.699 352.955 440.47 361.832C422.241 370.592 401.881 374.972 379.39 374.972C355.124 374.972 333.699 370.296 315.115 360.945C296.531 351.475 281.557 338.632 270.193 322.415C258.948 306.08 252.141 287.732 249.774 267.372H325.591C328.55 280.63 334.764 290.928 344.234 298.267C353.704 305.488 365.423 309.098 379.39 309.098C403.065 309.098 421.057 298.8 433.368 278.203C445.678 257.488 451.893 229.138 452.011 193.153H449.525C444.08 203.807 436.741 212.981 427.508 220.675C418.275 228.25 407.681 234.11 395.726 238.253C383.889 242.396 371.282 244.467 357.906 244.467C336.481 244.467 317.364 239.437 300.555 229.375C283.746 219.313 270.489 205.464 260.783 187.827C251.076 170.189 246.223 150.066 246.223 127.457C246.104 103.073 251.727 81.3518 263.091 62.294C274.454 43.2363 290.316 28.3215 310.676 17.5497C331.154 6.65957 354.947 1.27367 382.054 1.39205ZM382.586 61.7614C370.631 61.7614 359.978 64.6023 350.626 70.2841C341.393 75.9659 334.054 83.6009 328.609 93.1889C323.282 102.777 320.678 113.49 320.797 125.327C320.797 137.282 323.401 148.054 328.609 157.642C333.936 167.112 341.157 174.688 350.271 180.369C359.504 185.933 370.039 188.714 381.876 188.714C390.754 188.714 398.981 187.057 406.557 183.743C414.132 180.429 420.702 175.871 426.265 170.071C431.947 164.152 436.386 157.346 439.582 149.652C442.778 141.958 444.376 133.79 444.376 125.149C444.258 113.667 441.535 103.132 436.209 93.544C430.882 83.956 423.543 76.2618 414.192 70.4616C404.84 64.6615 394.305 61.7614 382.586 61.7614Z"/>
<path d="M713.375 374.972C688.28 374.972 665.908 370.355 646.258 361.122C626.727 351.889 611.22 339.164 599.738 322.947C588.256 306.731 582.279 288.146 581.805 267.195H656.379C657.208 281.281 663.126 292.704 674.135 301.463C685.143 310.223 698.223 314.602 713.375 314.602C725.449 314.602 736.102 311.939 745.335 306.612C754.686 301.167 761.966 293.651 767.175 284.062C772.501 274.356 775.165 263.229 775.165 250.682C775.165 237.898 772.442 226.652 766.997 216.946C761.67 207.24 754.272 199.664 744.802 194.219C735.333 188.774 724.502 185.992 712.31 185.874C701.656 185.874 691.299 188.063 681.237 192.443C671.294 196.823 663.541 202.801 657.977 210.376L589.618 198.125L606.841 6.36364H829.142V69.2188H670.229L660.818 160.305H662.949C669.341 151.309 678.988 143.852 691.89 137.933C704.793 132.015 719.234 129.055 735.214 129.055C757.113 129.055 776.644 134.205 793.808 144.503C810.972 154.801 824.525 168.947 834.469 186.939C844.412 204.813 849.324 225.41 849.206 248.729C849.324 273.232 843.642 295.012 832.16 314.07C820.797 333.009 804.876 347.924 784.398 358.814C764.038 369.586 740.363 374.972 713.375 374.972Z"/>
<path d="M1035.64 374.972C1010.55 374.972 988.174 370.355 968.524 361.122C948.993 351.889 933.486 339.164 922.004 322.947C910.522 306.731 904.544 288.146 904.071 267.195H978.645C979.473 281.281 985.392 292.704 996.4 301.463C1007.41 310.223 1020.49 314.602 1035.64 314.602C1047.71 314.602 1058.37 311.939 1067.6 306.612C1076.95 301.167 1084.23 293.651 1089.44 284.062C1094.77 274.356 1097.43 263.229 1097.43 250.682C1097.43 237.898 1094.71 226.652 1089.26 216.946C1083.94 207.24 1076.54 199.664 1067.07 194.219C1057.6 188.774 1046.77 185.992 1034.58 185.874C1023.92 185.874 1013.56 188.063 1003.5 192.443C993.559 196.823 985.806 202.801 980.243 210.376L911.883 198.125L929.106 6.36364H1151.41V69.2188H992.494L983.084 160.305H985.214C991.606 151.309 1001.25 143.852 1014.16 137.933C1027.06 132.015 1041.5 129.055 1057.48 129.055C1079.38 129.055 1098.91 134.205 1116.07 144.503C1133.24 154.801 1146.79 168.947 1156.73 186.939C1166.68 204.813 1171.59 225.41 1171.47 248.729C1171.59 273.232 1165.91 295.012 1154.43 314.07C1143.06 333.009 1127.14 347.924 1106.66 358.814C1086.3 369.586 1062.63 374.972 1035.64 374.972Z"/>
</mask>
<path d="M164.058 6.36364V370H87.1763V79.3395H85.0456L1.77148 131.541V63.3594L91.7928 6.36364H164.058Z" fill="white" fill-opacity="0.7"/>
<path d="M382.054 1.39205C400.756 1.39205 418.749 4.52888 436.031 10.8025C453.432 17.0762 468.938 27.0786 482.551 40.8097C496.282 54.5407 507.113 72.7699 515.044 95.4972C523.093 118.106 527.177 145.864 527.295 178.771C527.295 209.666 523.803 237.247 516.819 261.513C509.954 285.661 500.07 306.198 487.167 323.125C474.265 340.052 458.699 352.955 440.47 361.832C422.241 370.592 401.881 374.972 379.39 374.972C355.124 374.972 333.699 370.296 315.115 360.945C296.531 351.475 281.557 338.632 270.193 322.415C258.948 306.08 252.141 287.732 249.774 267.372H325.591C328.55 280.63 334.764 290.928 344.234 298.267C353.704 305.488 365.423 309.098 379.39 309.098C403.065 309.098 421.057 298.8 433.368 278.203C445.678 257.488 451.893 229.138 452.011 193.153H449.525C444.08 203.807 436.741 212.981 427.508 220.675C418.275 228.25 407.681 234.11 395.726 238.253C383.889 242.396 371.282 244.467 357.906 244.467C336.481 244.467 317.364 239.437 300.555 229.375C283.746 219.313 270.489 205.464 260.783 187.827C251.076 170.189 246.223 150.066 246.223 127.457C246.104 103.073 251.727 81.3518 263.091 62.294C274.454 43.2363 290.316 28.3215 310.676 17.5497C331.154 6.65957 354.947 1.27367 382.054 1.39205ZM382.586 61.7614C370.631 61.7614 359.978 64.6023 350.626 70.2841C341.393 75.9659 334.054 83.6009 328.609 93.1889C323.282 102.777 320.678 113.49 320.797 125.327C320.797 137.282 323.401 148.054 328.609 157.642C333.936 167.112 341.157 174.688 350.271 180.369C359.504 185.933 370.039 188.714 381.876 188.714C390.754 188.714 398.981 187.057 406.557 183.743C414.132 180.429 420.702 175.871 426.265 170.071C431.947 164.152 436.386 157.346 439.582 149.652C442.778 141.958 444.376 133.79 444.376 125.149C444.258 113.667 441.535 103.132 436.209 93.544C430.882 83.956 423.543 76.2618 414.192 70.4616C404.84 64.6615 394.305 61.7614 382.586 61.7614Z" fill="white" fill-opacity="0.7"/>
<path d="M713.375 374.972C688.28 374.972 665.908 370.355 646.258 361.122C626.727 351.889 611.22 339.164 599.738 322.947C588.256 306.731 582.279 288.146 581.805 267.195H656.379C657.208 281.281 663.126 292.704 674.135 301.463C685.143 310.223 698.223 314.602 713.375 314.602C725.449 314.602 736.102 311.939 745.335 306.612C754.686 301.167 761.966 293.651 767.175 284.062C772.501 274.356 775.165 263.229 775.165 250.682C775.165 237.898 772.442 226.652 766.997 216.946C761.67 207.24 754.272 199.664 744.802 194.219C735.333 188.774 724.502 185.992 712.31 185.874C701.656 185.874 691.299 188.063 681.237 192.443C671.294 196.823 663.541 202.801 657.977 210.376L589.618 198.125L606.841 6.36364H829.142V69.2188H670.229L660.818 160.305H662.949C669.341 151.309 678.988 143.852 691.89 137.933C704.793 132.015 719.234 129.055 735.214 129.055C757.113 129.055 776.644 134.205 793.808 144.503C810.972 154.801 824.525 168.947 834.469 186.939C844.412 204.813 849.324 225.41 849.206 248.729C849.324 273.232 843.642 295.012 832.16 314.07C820.797 333.009 804.876 347.924 784.398 358.814C764.038 369.586 740.363 374.972 713.375 374.972Z" fill="white" fill-opacity="0.7"/>
<path d="M1035.64 374.972C1010.55 374.972 988.174 370.355 968.524 361.122C948.993 351.889 933.486 339.164 922.004 322.947C910.522 306.731 904.544 288.146 904.071 267.195H978.645C979.473 281.281 985.392 292.704 996.4 301.463C1007.41 310.223 1020.49 314.602 1035.64 314.602C1047.71 314.602 1058.37 311.939 1067.6 306.612C1076.95 301.167 1084.23 293.651 1089.44 284.062C1094.77 274.356 1097.43 263.229 1097.43 250.682C1097.43 237.898 1094.71 226.652 1089.26 216.946C1083.94 207.24 1076.54 199.664 1067.07 194.219C1057.6 188.774 1046.77 185.992 1034.58 185.874C1023.92 185.874 1013.56 188.063 1003.5 192.443C993.559 196.823 985.806 202.801 980.243 210.376L911.883 198.125L929.106 6.36364H1151.41V69.2188H992.494L983.084 160.305H985.214C991.606 151.309 1001.25 143.852 1014.16 137.933C1027.06 132.015 1041.5 129.055 1057.48 129.055C1079.38 129.055 1098.91 134.205 1116.07 144.503C1133.24 154.801 1146.79 168.947 1156.73 186.939C1166.68 204.813 1171.59 225.41 1171.47 248.729C1171.59 273.232 1165.91 295.012 1154.43 314.07C1143.06 333.009 1127.14 347.924 1106.66 358.814C1086.3 369.586 1062.63 374.972 1035.64 374.972Z" fill="white" fill-opacity="0.7"/>
<path d="M164.058 6.36364V370H87.1763V79.3395H85.0456L1.77148 131.541V63.3594L91.7928 6.36364H164.058Z" stroke="#9796A5" stroke-opacity="0.35" stroke-width="2" mask="url(#path-1-outside-1_218_45)"/>
<path d="M382.054 1.39205C400.756 1.39205 418.749 4.52888 436.031 10.8025C453.432 17.0762 468.938 27.0786 482.551 40.8097C496.282 54.5407 507.113 72.7699 515.044 95.4972C523.093 118.106 527.177 145.864 527.295 178.771C527.295 209.666 523.803 237.247 516.819 261.513C509.954 285.661 500.07 306.198 487.167 323.125C474.265 340.052 458.699 352.955 440.47 361.832C422.241 370.592 401.881 374.972 379.39 374.972C355.124 374.972 333.699 370.296 315.115 360.945C296.531 351.475 281.557 338.632 270.193 322.415C258.948 306.08 252.141 287.732 249.774 267.372H325.591C328.55 280.63 334.764 290.928 344.234 298.267C353.704 305.488 365.423 309.098 379.39 309.098C403.065 309.098 421.057 298.8 433.368 278.203C445.678 257.488 451.893 229.138 452.011 193.153H449.525C444.08 203.807 436.741 212.981 427.508 220.675C418.275 228.25 407.681 234.11 395.726 238.253C383.889 242.396 371.282 244.467 357.906 244.467C336.481 244.467 317.364 239.437 300.555 229.375C283.746 219.313 270.489 205.464 260.783 187.827C251.076 170.189 246.223 150.066 246.223 127.457C246.104 103.073 251.727 81.3518 263.091 62.294C274.454 43.2363 290.316 28.3215 310.676 17.5497C331.154 6.65957 354.947 1.27367 382.054 1.39205ZM382.586 61.7614C370.631 61.7614 359.978 64.6023 350.626 70.2841C341.393 75.9659 334.054 83.6009 328.609 93.1889C323.282 102.777 320.678 113.49 320.797 125.327C320.797 137.282 323.401 148.054 328.609 157.642C333.936 167.112 341.157 174.688 350.271 180.369C359.504 185.933 370.039 188.714 381.876 188.714C390.754 188.714 398.981 187.057 406.557 183.743C414.132 180.429 420.702 175.871 426.265 170.071C431.947 164.152 436.386 157.346 439.582 149.652C442.778 141.958 444.376 133.79 444.376 125.149C444.258 113.667 441.535 103.132 436.209 93.544C430.882 83.956 423.543 76.2618 414.192 70.4616C404.84 64.6615 394.305 61.7614 382.586 61.7614Z" stroke="#9796A5" stroke-opacity="0.35" stroke-width="2" mask="url(#path-1-outside-1_218_45)"/>
<path d="M713.375 374.972C688.28 374.972 665.908 370.355 646.258 361.122C626.727 351.889 611.22 339.164 599.738 322.947C588.256 306.731 582.279 288.146 581.805 267.195H656.379C657.208 281.281 663.126 292.704 674.135 301.463C685.143 310.223 698.223 314.602 713.375 314.602C725.449 314.602 736.102 311.939 745.335 306.612C754.686 301.167 761.966 293.651 767.175 284.062C772.501 274.356 775.165 263.229 775.165 250.682C775.165 237.898 772.442 226.652 766.997 216.946C761.67 207.24 754.272 199.664 744.802 194.219C735.333 188.774 724.502 185.992 712.31 185.874C701.656 185.874 691.299 188.063 681.237 192.443C671.294 196.823 663.541 202.801 657.977 210.376L589.618 198.125L606.841 6.36364H829.142V69.2188H670.229L660.818 160.305H662.949C669.341 151.309 678.988 143.852 691.89 137.933C704.793 132.015 719.234 129.055 735.214 129.055C757.113 129.055 776.644 134.205 793.808 144.503C810.972 154.801 824.525 168.947 834.469 186.939C844.412 204.813 849.324 225.41 849.206 248.729C849.324 273.232 843.642 295.012 832.16 314.07C820.797 333.009 804.876 347.924 784.398 358.814C764.038 369.586 740.363 374.972 713.375 374.972Z" stroke="#9796A5" stroke-opacity="0.35" stroke-width="2" mask="url(#path-1-outside-1_218_45)"/>
<path d="M1035.64 374.972C1010.55 374.972 988.174 370.355 968.524 361.122C948.993 351.889 933.486 339.164 922.004 322.947C910.522 306.731 904.544 288.146 904.071 267.195H978.645C979.473 281.281 985.392 292.704 996.4 301.463C1007.41 310.223 1020.49 314.602 1035.64 314.602C1047.71 314.602 1058.37 311.939 1067.6 306.612C1076.95 301.167 1084.23 293.651 1089.44 284.062C1094.77 274.356 1097.43 263.229 1097.43 250.682C1097.43 237.898 1094.71 226.652 1089.26 216.946C1083.94 207.24 1076.54 199.664 1067.07 194.219C1057.6 188.774 1046.77 185.992 1034.58 185.874C1023.92 185.874 1013.56 188.063 1003.5 192.443C993.559 196.823 985.806 202.801 980.243 210.376L911.883 198.125L929.106 6.36364H1151.41V69.2188H992.494L983.084 160.305H985.214C991.606 151.309 1001.25 143.852 1014.16 137.933C1027.06 132.015 1041.5 129.055 1057.48 129.055C1079.38 129.055 1098.91 134.205 1116.07 144.503C1133.24 154.801 1146.79 168.947 1156.73 186.939C1166.68 204.813 1171.59 225.41 1171.47 248.729C1171.59 273.232 1165.91 295.012 1154.43 314.07C1143.06 333.009 1127.14 347.924 1106.66 358.814C1086.3 369.586 1062.63 374.972 1035.64 374.972Z" stroke="#9796A5" stroke-opacity="0.35" stroke-width="2" mask="url(#path-1-outside-1_218_45)"/>
</svg>
