<svg width="1144" height="374" viewBox="0 0 1144 374" fill="none" xmlns="http://www.w3.org/2000/svg">
<path d="M162.486 5.36364V369H85.6041V78.3395H83.4734L0.199219 130.541V62.3594L90.2205 5.36364H162.486ZM380.482 0.392046C399.184 0.392046 417.177 3.52888 434.459 9.80254C451.859 16.0762 467.366 26.0786 480.979 39.8097C494.71 53.5407 505.541 71.7699 513.472 94.4972C521.521 117.106 525.605 144.864 525.723 177.771C525.723 208.666 522.231 236.247 515.247 260.513C508.382 284.661 498.498 305.198 485.595 322.125C472.693 339.052 457.127 351.955 438.898 360.832C420.669 369.592 400.309 373.972 377.818 373.972C353.552 373.972 332.127 369.296 313.543 359.945C294.958 350.475 279.984 337.632 268.621 321.415C257.375 305.08 250.569 286.732 248.202 266.372H324.018C326.978 279.63 333.192 289.928 342.662 297.267C352.132 304.488 363.85 308.098 377.818 308.098C401.492 308.098 419.485 297.8 431.795 277.203C444.106 256.488 450.321 228.138 450.439 192.153H447.953C442.508 202.807 435.169 211.981 425.936 219.675C416.703 227.25 406.109 233.11 394.153 237.253C382.316 241.396 369.71 243.467 356.334 243.467C334.909 243.467 315.792 238.437 298.983 228.375C282.174 218.313 268.917 204.464 259.21 186.827C249.504 169.189 244.651 149.066 244.651 126.457C244.532 102.073 250.155 80.3518 261.518 61.294C272.882 42.2363 288.744 27.3215 309.104 16.5497C329.582 5.65956 353.375 0.273671 380.482 0.392046ZM381.014 60.7613C369.059 60.7613 358.405 63.6023 349.054 69.2841C339.821 74.9659 332.482 82.6008 327.037 92.1889C321.71 101.777 319.106 112.49 319.224 124.327C319.224 136.282 321.829 147.054 327.037 156.642C332.364 166.112 339.584 173.687 348.699 179.369C357.932 184.933 368.467 187.714 380.304 187.714C389.182 187.714 397.409 186.057 404.984 182.743C412.56 179.428 419.13 174.871 424.693 169.071C430.375 163.152 434.814 156.346 438.01 148.652C441.206 140.958 442.804 132.79 442.804 124.149C442.686 112.667 439.963 102.132 434.636 92.544C429.31 82.956 421.971 75.2618 412.619 69.4616C403.268 63.6614 392.733 60.7613 381.014 60.7613ZM710.56 0.392046C729.262 0.392046 747.255 3.52888 764.537 9.80254C781.938 16.0762 797.444 26.0786 811.057 39.8097C824.788 53.5407 835.619 71.7699 843.55 94.4972C851.599 117.106 855.683 144.864 855.801 177.771C855.801 208.666 852.309 236.247 845.325 260.513C838.46 284.661 828.576 305.198 815.673 322.125C802.771 339.052 787.205 351.955 768.976 360.832C750.747 369.592 730.387 373.972 707.896 373.972C683.63 373.972 662.205 369.296 643.621 359.945C625.036 350.475 610.063 337.632 598.699 321.415C587.454 305.08 580.647 286.732 578.28 266.372H654.097C657.056 279.63 663.27 289.928 672.74 297.267C682.21 304.488 693.929 308.098 707.896 308.098C731.571 308.098 749.563 297.8 761.874 277.203C774.184 256.488 780.399 228.138 780.517 192.153H778.031C772.586 202.807 765.247 211.981 756.014 219.675C746.781 227.25 736.187 233.11 724.232 237.253C712.394 241.396 699.788 243.467 686.412 243.467C664.987 243.467 645.87 238.437 629.061 228.375C612.252 218.313 598.995 204.464 589.288 186.827C579.582 169.189 574.729 149.066 574.729 126.457C574.61 102.073 580.233 80.3518 591.597 61.294C602.96 42.2363 618.822 27.3215 639.182 16.5497C659.66 5.65956 683.453 0.273671 710.56 0.392046ZM711.092 60.7613C699.137 60.7613 688.483 63.6023 679.132 69.2841C669.899 74.9659 662.56 82.6008 657.115 92.1889C651.788 101.777 649.184 112.49 649.303 124.327C649.303 136.282 651.907 147.054 657.115 156.642C662.442 166.112 669.662 173.687 678.777 179.369C688.01 184.933 698.545 187.714 710.382 187.714C719.26 187.714 727.487 186.057 735.062 182.743C742.638 179.428 749.208 174.871 754.771 169.071C760.453 163.152 764.892 156.346 768.088 148.652C771.284 140.958 772.882 132.79 772.882 124.149C772.764 112.667 770.041 102.132 764.714 92.544C759.388 82.956 752.049 75.2618 742.697 69.4616C733.346 63.6614 722.811 60.7613 711.092 60.7613ZM913.685 369L1064.43 70.7045V68.2188H888.827V5.36364H1143.98V69.1065L993.053 369H913.685Z" fill="white" fill-opacity="0.6"/>
<path d="M515.728 260.65C508.849 284.847 498.94 305.443 485.993 322.428C473.046 339.414 457.42 352.369 439.117 361.282L439.115 361.283C420.811 370.079 400.375 374.472 377.818 374.472C353.487 374.472 331.983 369.783 313.318 360.392L313.316 360.391C294.662 350.885 279.624 337.99 268.212 321.702L268.209 321.699C256.915 305.294 250.081 286.868 247.705 266.43L247.641 265.872H248.202H324.018H324.419L324.506 266.263C327.444 279.422 333.601 289.611 342.965 296.869C352.334 304.013 363.94 307.598 377.818 307.598C401.313 307.598 419.145 297.395 431.366 276.947C443.557 256.433 449.763 228.35 449.937 192.653H448.258C442.797 203.251 435.462 212.388 426.256 220.059L426.253 220.062C416.972 227.676 406.326 233.564 394.318 237.725C382.425 241.888 369.762 243.967 356.334 243.967C334.827 243.967 315.62 238.917 298.726 228.804C281.839 218.695 268.52 204.78 258.772 187.068C249.021 169.348 244.151 149.141 244.151 126.459C244.032 101.994 249.674 80.1815 261.089 61.0379C272.501 41.8987 288.432 26.9212 308.869 16.1083C329.431 5.17339 353.308 -0.226482 380.483 -0.107954C399.242 -0.107832 417.292 3.03882 434.63 9.33255M515.728 260.65C515.728 260.65 515.728 260.651 515.727 260.651L515.247 260.513L515.728 260.65ZM515.728 260.65C522.727 236.33 526.223 208.702 526.223 177.771V177.769C526.105 144.826 522.017 117.008 513.943 94.3306M513.943 94.3306C505.994 71.5503 495.128 53.2522 481.334 39.4573M513.943 94.3306C513.943 94.3302 513.943 94.3299 513.943 94.3295L513.472 94.4972M513.943 94.3306C513.944 94.3312 513.944 94.3318 513.944 94.3325L513.472 94.4972M481.334 39.4573C467.671 25.6764 452.102 15.6325 434.63 9.33255M481.334 39.4573C481.333 39.4569 481.333 39.4565 481.333 39.4562L480.979 39.8097M481.334 39.4573C481.334 39.4574 481.334 39.4576 481.334 39.4577L480.979 39.8097M434.63 9.33255C434.629 9.33243 434.629 9.33231 434.629 9.33218L434.459 9.80254M434.63 9.33255L434.459 9.80254M434.459 9.80254C451.859 16.0762 467.366 26.0786 480.979 39.8097M434.459 9.80254L525.723 177.771C525.605 144.864 521.521 117.106 513.472 94.4972M480.979 39.8097C494.71 53.5407 505.541 71.7699 513.472 94.4972M313.543 359.945C332.127 369.296 353.552 373.972 377.818 373.972C400.309 373.972 420.669 369.592 438.898 360.832L313.543 359.945ZM313.543 359.945C294.958 350.475 279.984 337.632 268.621 321.415L313.543 359.945ZM327.037 92.1889C321.71 101.777 319.106 112.49 319.224 124.327C319.224 136.282 321.829 147.054 327.037 156.642M327.037 92.1889L327.472 92.4358C327.472 92.4352 327.472 92.4347 327.473 92.4341M327.037 92.1889C332.482 82.6008 339.821 74.9659 349.054 69.2841M327.037 92.1889L327.474 92.4317C327.474 92.4325 327.473 92.4333 327.473 92.4341M327.473 92.4341C322.192 101.94 319.607 112.566 319.724 124.322L319.724 124.327C319.724 136.205 322.311 146.893 327.474 156.4M327.473 92.4341C332.876 82.9194 340.156 75.3475 349.314 69.7111M327.474 156.4C327.474 156.399 327.473 156.398 327.473 156.397L327.037 156.642M327.474 156.4C327.475 156.401 327.476 156.402 327.476 156.403L327.037 156.642M327.474 156.4C332.76 165.795 339.92 173.306 348.96 178.942M327.037 156.642C332.364 166.112 339.584 173.687 348.699 179.369M348.699 179.369L348.957 178.941C348.958 178.941 348.959 178.942 348.96 178.942M348.699 179.369C357.932 184.933 368.467 187.714 380.304 187.714C389.182 187.714 397.409 186.057 404.984 182.743C412.56 179.428 419.13 174.871 424.693 169.071M348.699 179.369L348.964 178.945C348.962 178.944 348.961 178.943 348.96 178.942M348.96 178.942C358.107 184.454 368.55 187.214 380.304 187.214C389.118 187.214 397.276 185.569 404.784 182.285C412.301 178.996 418.816 174.476 424.332 168.725L424.693 169.071M424.693 169.071L424.332 168.725C429.971 162.851 434.376 156.098 437.548 148.46C440.718 140.83 442.304 132.728 442.304 124.151M424.693 169.071C430.375 163.152 434.814 156.346 438.01 148.652C441.206 140.958 442.804 132.79 442.804 124.149M442.304 124.151C442.186 112.75 439.483 102.298 434.199 92.7868L434.636 92.544M442.304 124.151C442.304 124.151 442.304 124.15 442.304 124.149H442.804M442.304 124.151C442.304 124.152 442.304 124.153 442.304 124.154L442.804 124.149M442.804 124.149C442.686 112.667 439.963 102.132 434.636 92.544M434.636 92.544C429.31 82.956 421.971 75.2618 412.619 69.4616M434.636 92.544L434.199 92.7868C428.914 83.2736 421.635 75.642 412.355 69.8865L412.619 69.4616M412.619 69.4616C403.268 63.6614 392.733 60.7613 381.014 60.7613C369.059 60.7613 358.405 63.6023 349.054 69.2841M412.619 69.4616L412.355 69.8865C403.089 64.1386 392.646 61.2613 381.014 61.2613C369.142 61.2613 358.58 64.0814 349.314 69.7111M349.054 69.2841L349.316 69.7099C349.315 69.7104 349.315 69.7107 349.314 69.7111M349.054 69.2841L349.314 69.7114C349.314 69.7113 349.314 69.7112 349.314 69.7111M845.806 260.65C838.927 284.847 829.018 305.443 816.071 322.428C803.124 339.414 787.498 352.369 769.195 361.282L769.193 361.283C750.889 370.079 730.453 374.472 707.896 374.472C683.565 374.472 662.061 369.783 643.396 360.392L643.394 360.391C624.74 350.885 609.703 337.99 598.289 321.702L598.287 321.699C586.994 305.294 580.159 286.868 577.783 266.43L577.719 265.872H578.28H654.097H654.498L654.585 266.263C657.522 279.422 663.679 289.611 673.043 296.869C682.412 304.013 694.019 307.598 707.896 307.598C731.392 307.598 749.223 297.395 761.445 276.946C773.635 256.433 779.841 228.35 780.015 192.653H778.336C772.875 203.251 765.54 212.388 756.334 220.059L756.331 220.062C747.05 227.676 736.404 233.564 724.397 237.725C712.503 241.888 699.84 243.967 686.412 243.967C664.905 243.967 645.698 238.917 628.804 228.804C611.917 218.695 598.598 204.78 588.85 187.068C579.099 169.348 574.229 149.141 574.229 126.459C574.11 101.994 579.752 80.1815 591.168 61.0379C602.579 41.8984 618.51 26.9207 638.948 16.1078C659.51 5.17322 683.386 -0.22648 710.561 -0.107954C729.32 -0.107832 747.37 3.03882 764.708 9.33255M845.806 260.65C845.806 260.65 845.806 260.651 845.805 260.651L845.325 260.513L845.806 260.65ZM845.806 260.65C852.805 236.33 856.301 208.702 856.301 177.771V177.769C856.183 144.826 852.095 117.008 844.021 94.3306M844.021 94.3306C836.072 71.5503 825.206 53.2522 811.412 39.4573C797.749 25.6764 782.181 15.6325 764.708 9.33255M844.021 94.3306C844.021 94.3302 844.021 94.3299 844.021 94.3295L843.55 94.4972M844.021 94.3306C844.022 94.3312 844.022 94.3318 844.022 94.3325L843.55 94.4972M764.708 9.33255C764.707 9.33243 764.707 9.33231 764.707 9.33218L764.537 9.80254M764.708 9.33255L764.537 9.80254M764.537 9.80254C781.938 16.0762 797.444 26.0786 811.057 39.8097C824.788 53.5407 835.619 71.7699 843.55 94.4972M764.537 9.80254L855.801 177.771C855.683 144.864 851.599 117.106 843.55 94.4972M643.621 359.945C662.205 369.296 683.63 373.972 707.896 373.972C730.387 373.972 750.747 369.592 768.976 360.832L643.621 359.945ZM643.621 359.945C625.036 350.475 610.063 337.632 598.699 321.415L643.621 359.945ZM162.986 5.36364V4.86364H162.486H90.2205H90.0755L89.953 4.9412L-0.068248 61.937L-0.300781 62.0842V62.3594V130.541V131.445L0.464786 130.965L83.6172 78.8395H85.1041V369V369.5H85.6041H162.486H162.986V369V5.36364ZM649.803 124.327V124.322C649.685 112.565 652.27 101.938 657.552 92.4317C662.956 82.9184 670.234 75.3473 679.392 69.7114C688.657 64.0815 699.22 61.2613 711.092 61.2613C722.724 61.2613 733.167 64.1386 742.433 69.8865C751.713 75.642 758.992 83.2736 764.277 92.7868C769.562 102.299 772.265 112.751 772.382 124.154C772.381 132.73 770.795 140.831 767.626 148.46C764.454 156.098 760.049 162.851 754.41 168.725L754.771 169.071L754.41 168.725C748.894 174.476 742.379 178.996 734.862 182.285C727.354 185.569 719.196 187.214 710.382 187.214C698.629 187.214 688.186 184.454 679.04 178.944C669.999 173.307 662.839 165.796 657.553 156.401C652.39 146.894 649.803 136.206 649.803 124.327ZM913.239 368.774L912.872 369.5H913.685H993.053H993.361L993.5 369.225L1144.43 69.3313L1144.48 69.2252V69.1065V5.36364V4.86364H1143.98H888.827H888.327V5.36364V68.2188V68.7188H888.827H1063.93V70.5853L913.239 368.774Z" stroke="#9796A5" stroke-opacity="0.35"/>
</svg>
