<svg width="1070" height="376" viewBox="0 0 1070 376" fill="none" xmlns="http://www.w3.org/2000/svg">
<mask id="path-1-outside-1_218_35" maskUnits="userSpaceOnUse" x="0.439453" y="0.390137" width="1070" height="376" fill="black">
<rect fill="white" x="0.439453" y="0.390137" width="1070" height="376"/>
<path d="M163.726 6.36364V370H86.8443V79.3395H84.7136L1.43945 131.541V63.3594L91.4608 6.36364H163.726Z"/>
<path d="M381.722 1.39205C400.424 1.39205 418.417 4.52888 435.699 10.8025C453.1 17.0762 468.606 27.0786 482.219 40.8097C495.95 54.5407 506.781 72.7699 514.712 95.4972C522.761 118.106 526.845 145.864 526.963 178.771C526.963 209.666 523.471 237.247 516.487 261.513C509.622 285.661 499.738 306.198 486.835 323.125C473.933 340.052 458.367 352.955 440.138 361.832C421.909 370.592 401.549 374.972 379.058 374.972C354.792 374.972 333.367 370.296 314.783 360.945C296.199 351.475 281.225 338.632 269.861 322.415C258.616 306.08 251.809 287.732 249.442 267.372H325.259C328.218 280.63 334.432 290.928 343.902 298.267C353.372 305.488 365.091 309.098 379.058 309.098C402.733 309.098 420.725 298.8 433.036 278.203C445.346 257.488 451.561 229.138 451.679 193.153H449.193C443.748 203.807 436.409 212.981 427.176 220.675C417.943 228.25 407.349 234.11 395.394 238.253C383.557 242.396 370.95 244.467 357.574 244.467C336.149 244.467 317.032 239.437 300.223 229.375C283.414 219.313 270.157 205.464 260.45 187.827C250.744 170.189 245.891 150.066 245.891 127.457C245.772 103.073 251.395 81.3518 262.759 62.294C274.122 43.2363 289.984 28.3215 310.344 17.5497C330.822 6.65957 354.615 1.27367 381.722 1.39205ZM382.254 61.7614C370.299 61.7614 359.646 64.6023 350.294 70.2841C341.061 75.9659 333.722 83.6009 328.277 93.1889C322.95 102.777 320.346 113.49 320.465 125.327C320.465 137.282 323.069 148.054 328.277 157.642C333.604 167.112 340.825 174.688 349.939 180.369C359.172 185.933 369.707 188.714 381.544 188.714C390.422 188.714 398.649 187.057 406.225 183.743C413.8 180.429 420.37 175.871 425.933 170.071C431.615 164.152 436.054 157.346 439.25 149.652C442.446 141.958 444.044 133.79 444.044 125.149C443.926 113.667 441.203 103.132 435.877 93.544C430.55 83.956 423.211 76.2618 413.86 70.4616C404.508 64.6615 393.973 61.7614 382.254 61.7614Z"/>
<path d="M715.884 374.972C688.54 374.972 664.215 370.533 642.908 361.655C621.719 352.659 605.088 340.407 593.014 324.901C580.941 309.394 574.904 291.816 574.904 272.166C574.904 257.015 578.336 243.106 585.202 230.44C592.186 217.656 601.655 207.062 613.611 198.658C625.566 190.135 638.942 184.69 653.739 182.322V179.837C634.326 175.93 618.583 166.52 606.509 151.605C594.435 136.572 588.398 119.112 588.398 99.2259C588.398 80.4048 593.902 63.6553 604.911 48.9773C615.919 34.1809 631.012 22.5805 650.188 14.1761C669.482 5.65341 691.381 1.39205 715.884 1.39205C740.387 1.39205 762.226 5.65341 781.402 14.1761C800.697 22.6989 815.848 34.3584 826.857 49.1548C837.865 63.8329 843.429 80.5232 843.547 99.2259C843.429 119.231 837.273 136.69 825.081 151.605C812.889 166.52 797.264 175.93 778.206 179.837V182.322C792.766 184.69 805.964 190.135 817.801 198.658C829.757 207.062 839.227 217.656 846.21 230.44C853.313 243.106 856.923 257.015 857.041 272.166C856.923 291.816 850.827 309.394 838.753 324.901C826.679 340.407 809.989 352.659 788.682 361.655C767.494 370.533 743.227 374.972 715.884 374.972ZM715.884 318.509C728.076 318.509 738.729 316.319 747.844 311.939C756.959 307.441 764.061 301.286 769.151 293.473C774.359 285.542 776.963 276.428 776.963 266.129C776.963 255.594 774.3 246.302 768.973 238.253C763.646 230.085 756.426 223.693 747.311 219.077C738.197 214.342 727.721 211.974 715.884 211.974C704.165 211.974 693.689 214.342 684.456 219.077C675.223 223.693 667.943 230.085 662.617 238.253C657.408 246.302 654.804 255.594 654.804 266.129C654.804 276.428 657.349 285.542 662.439 293.473C667.529 301.286 674.691 307.441 683.923 311.939C693.156 316.319 703.81 318.509 715.884 318.509ZM715.884 156.044C726.064 156.044 735.119 153.973 743.05 149.83C750.981 145.687 757.195 139.946 761.693 132.607C766.191 125.268 768.441 116.804 768.441 107.216C768.441 97.7462 766.191 89.4602 761.693 82.358C757.195 75.1373 751.04 69.5147 743.227 65.4901C735.415 61.3471 726.3 59.2756 715.884 59.2756C705.585 59.2756 696.471 61.3471 688.54 65.4901C680.609 69.5147 674.395 75.1373 669.896 82.358C665.517 89.4602 663.327 97.7462 663.327 107.216C663.327 116.804 665.576 125.268 670.074 132.607C674.572 139.946 680.787 145.687 688.718 149.83C696.648 153.973 705.704 156.044 715.884 156.044Z"/>
<path d="M1069 6.36364V370H992.118V79.3395H989.987L906.713 131.541V63.3594L996.734 6.36364H1069Z"/>
</mask>
<path d="M163.726 6.36364V370H86.8443V79.3395H84.7136L1.43945 131.541V63.3594L91.4608 6.36364H163.726Z" fill="white" fill-opacity="0.7"/>
<path d="M381.722 1.39205C400.424 1.39205 418.417 4.52888 435.699 10.8025C453.1 17.0762 468.606 27.0786 482.219 40.8097C495.95 54.5407 506.781 72.7699 514.712 95.4972C522.761 118.106 526.845 145.864 526.963 178.771C526.963 209.666 523.471 237.247 516.487 261.513C509.622 285.661 499.738 306.198 486.835 323.125C473.933 340.052 458.367 352.955 440.138 361.832C421.909 370.592 401.549 374.972 379.058 374.972C354.792 374.972 333.367 370.296 314.783 360.945C296.199 351.475 281.225 338.632 269.861 322.415C258.616 306.08 251.809 287.732 249.442 267.372H325.259C328.218 280.63 334.432 290.928 343.902 298.267C353.372 305.488 365.091 309.098 379.058 309.098C402.733 309.098 420.725 298.8 433.036 278.203C445.346 257.488 451.561 229.138 451.679 193.153H449.193C443.748 203.807 436.409 212.981 427.176 220.675C417.943 228.25 407.349 234.11 395.394 238.253C383.557 242.396 370.95 244.467 357.574 244.467C336.149 244.467 317.032 239.437 300.223 229.375C283.414 219.313 270.157 205.464 260.45 187.827C250.744 170.189 245.891 150.066 245.891 127.457C245.772 103.073 251.395 81.3518 262.759 62.294C274.122 43.2363 289.984 28.3215 310.344 17.5497C330.822 6.65957 354.615 1.27367 381.722 1.39205ZM382.254 61.7614C370.299 61.7614 359.646 64.6023 350.294 70.2841C341.061 75.9659 333.722 83.6009 328.277 93.1889C322.95 102.777 320.346 113.49 320.465 125.327C320.465 137.282 323.069 148.054 328.277 157.642C333.604 167.112 340.825 174.688 349.939 180.369C359.172 185.933 369.707 188.714 381.544 188.714C390.422 188.714 398.649 187.057 406.225 183.743C413.8 180.429 420.37 175.871 425.933 170.071C431.615 164.152 436.054 157.346 439.25 149.652C442.446 141.958 444.044 133.79 444.044 125.149C443.926 113.667 441.203 103.132 435.877 93.544C430.55 83.956 423.211 76.2618 413.86 70.4616C404.508 64.6615 393.973 61.7614 382.254 61.7614Z" fill="white" fill-opacity="0.7"/>
<path d="M715.884 374.972C688.54 374.972 664.215 370.533 642.908 361.655C621.719 352.659 605.088 340.407 593.014 324.901C580.941 309.394 574.904 291.816 574.904 272.166C574.904 257.015 578.336 243.106 585.202 230.44C592.186 217.656 601.655 207.062 613.611 198.658C625.566 190.135 638.942 184.69 653.739 182.322V179.837C634.326 175.93 618.583 166.52 606.509 151.605C594.435 136.572 588.398 119.112 588.398 99.2259C588.398 80.4048 593.902 63.6553 604.911 48.9773C615.919 34.1809 631.012 22.5805 650.188 14.1761C669.482 5.65341 691.381 1.39205 715.884 1.39205C740.387 1.39205 762.226 5.65341 781.402 14.1761C800.697 22.6989 815.848 34.3584 826.857 49.1548C837.865 63.8329 843.429 80.5232 843.547 99.2259C843.429 119.231 837.273 136.69 825.081 151.605C812.889 166.52 797.264 175.93 778.206 179.837V182.322C792.766 184.69 805.964 190.135 817.801 198.658C829.757 207.062 839.227 217.656 846.21 230.44C853.313 243.106 856.923 257.015 857.041 272.166C856.923 291.816 850.827 309.394 838.753 324.901C826.679 340.407 809.989 352.659 788.682 361.655C767.494 370.533 743.227 374.972 715.884 374.972ZM715.884 318.509C728.076 318.509 738.729 316.319 747.844 311.939C756.959 307.441 764.061 301.286 769.151 293.473C774.359 285.542 776.963 276.428 776.963 266.129C776.963 255.594 774.3 246.302 768.973 238.253C763.646 230.085 756.426 223.693 747.311 219.077C738.197 214.342 727.721 211.974 715.884 211.974C704.165 211.974 693.689 214.342 684.456 219.077C675.223 223.693 667.943 230.085 662.617 238.253C657.408 246.302 654.804 255.594 654.804 266.129C654.804 276.428 657.349 285.542 662.439 293.473C667.529 301.286 674.691 307.441 683.923 311.939C693.156 316.319 703.81 318.509 715.884 318.509ZM715.884 156.044C726.064 156.044 735.119 153.973 743.05 149.83C750.981 145.687 757.195 139.946 761.693 132.607C766.191 125.268 768.441 116.804 768.441 107.216C768.441 97.7462 766.191 89.4602 761.693 82.358C757.195 75.1373 751.04 69.5147 743.227 65.4901C735.415 61.3471 726.3 59.2756 715.884 59.2756C705.585 59.2756 696.471 61.3471 688.54 65.4901C680.609 69.5147 674.395 75.1373 669.896 82.358C665.517 89.4602 663.327 97.7462 663.327 107.216C663.327 116.804 665.576 125.268 670.074 132.607C674.572 139.946 680.787 145.687 688.718 149.83C696.648 153.973 705.704 156.044 715.884 156.044Z" fill="white" fill-opacity="0.7"/>
<path d="M1069 6.36364V370H992.118V79.3395H989.987L906.713 131.541V63.3594L996.734 6.36364H1069Z" fill="white" fill-opacity="0.7"/>
<path d="M163.726 6.36364V370H86.8443V79.3395H84.7136L1.43945 131.541V63.3594L91.4608 6.36364H163.726Z" stroke="#9796A5" stroke-opacity="0.35" stroke-width="2" mask="url(#path-1-outside-1_218_35)"/>
<path d="M381.722 1.39205C400.424 1.39205 418.417 4.52888 435.699 10.8025C453.1 17.0762 468.606 27.0786 482.219 40.8097C495.95 54.5407 506.781 72.7699 514.712 95.4972C522.761 118.106 526.845 145.864 526.963 178.771C526.963 209.666 523.471 237.247 516.487 261.513C509.622 285.661 499.738 306.198 486.835 323.125C473.933 340.052 458.367 352.955 440.138 361.832C421.909 370.592 401.549 374.972 379.058 374.972C354.792 374.972 333.367 370.296 314.783 360.945C296.199 351.475 281.225 338.632 269.861 322.415C258.616 306.08 251.809 287.732 249.442 267.372H325.259C328.218 280.63 334.432 290.928 343.902 298.267C353.372 305.488 365.091 309.098 379.058 309.098C402.733 309.098 420.725 298.8 433.036 278.203C445.346 257.488 451.561 229.138 451.679 193.153H449.193C443.748 203.807 436.409 212.981 427.176 220.675C417.943 228.25 407.349 234.11 395.394 238.253C383.557 242.396 370.95 244.467 357.574 244.467C336.149 244.467 317.032 239.437 300.223 229.375C283.414 219.313 270.157 205.464 260.45 187.827C250.744 170.189 245.891 150.066 245.891 127.457C245.772 103.073 251.395 81.3518 262.759 62.294C274.122 43.2363 289.984 28.3215 310.344 17.5497C330.822 6.65957 354.615 1.27367 381.722 1.39205ZM382.254 61.7614C370.299 61.7614 359.646 64.6023 350.294 70.2841C341.061 75.9659 333.722 83.6009 328.277 93.1889C322.95 102.777 320.346 113.49 320.465 125.327C320.465 137.282 323.069 148.054 328.277 157.642C333.604 167.112 340.825 174.688 349.939 180.369C359.172 185.933 369.707 188.714 381.544 188.714C390.422 188.714 398.649 187.057 406.225 183.743C413.8 180.429 420.37 175.871 425.933 170.071C431.615 164.152 436.054 157.346 439.25 149.652C442.446 141.958 444.044 133.79 444.044 125.149C443.926 113.667 441.203 103.132 435.877 93.544C430.55 83.956 423.211 76.2618 413.86 70.4616C404.508 64.6615 393.973 61.7614 382.254 61.7614Z" stroke="#9796A5" stroke-opacity="0.35" stroke-width="2" mask="url(#path-1-outside-1_218_35)"/>
<path d="M715.884 374.972C688.54 374.972 664.215 370.533 642.908 361.655C621.719 352.659 605.088 340.407 593.014 324.901C580.941 309.394 574.904 291.816 574.904 272.166C574.904 257.015 578.336 243.106 585.202 230.44C592.186 217.656 601.655 207.062 613.611 198.658C625.566 190.135 638.942 184.69 653.739 182.322V179.837C634.326 175.93 618.583 166.52 606.509 151.605C594.435 136.572 588.398 119.112 588.398 99.2259C588.398 80.4048 593.902 63.6553 604.911 48.9773C615.919 34.1809 631.012 22.5805 650.188 14.1761C669.482 5.65341 691.381 1.39205 715.884 1.39205C740.387 1.39205 762.226 5.65341 781.402 14.1761C800.697 22.6989 815.848 34.3584 826.857 49.1548C837.865 63.8329 843.429 80.5232 843.547 99.2259C843.429 119.231 837.273 136.69 825.081 151.605C812.889 166.52 797.264 175.93 778.206 179.837V182.322C792.766 184.69 805.964 190.135 817.801 198.658C829.757 207.062 839.227 217.656 846.21 230.44C853.313 243.106 856.923 257.015 857.041 272.166C856.923 291.816 850.827 309.394 838.753 324.901C826.679 340.407 809.989 352.659 788.682 361.655C767.494 370.533 743.227 374.972 715.884 374.972ZM715.884 318.509C728.076 318.509 738.729 316.319 747.844 311.939C756.959 307.441 764.061 301.286 769.151 293.473C774.359 285.542 776.963 276.428 776.963 266.129C776.963 255.594 774.3 246.302 768.973 238.253C763.646 230.085 756.426 223.693 747.311 219.077C738.197 214.342 727.721 211.974 715.884 211.974C704.165 211.974 693.689 214.342 684.456 219.077C675.223 223.693 667.943 230.085 662.617 238.253C657.408 246.302 654.804 255.594 654.804 266.129C654.804 276.428 657.349 285.542 662.439 293.473C667.529 301.286 674.691 307.441 683.923 311.939C693.156 316.319 703.81 318.509 715.884 318.509ZM715.884 156.044C726.064 156.044 735.119 153.973 743.05 149.83C750.981 145.687 757.195 139.946 761.693 132.607C766.191 125.268 768.441 116.804 768.441 107.216C768.441 97.7462 766.191 89.4602 761.693 82.358C757.195 75.1373 751.04 69.5147 743.227 65.4901C735.415 61.3471 726.3 59.2756 715.884 59.2756C705.585 59.2756 696.471 61.3471 688.54 65.4901C680.609 69.5147 674.395 75.1373 669.896 82.358C665.517 89.4602 663.327 97.7462 663.327 107.216C663.327 116.804 665.576 125.268 670.074 132.607C674.572 139.946 680.787 145.687 688.718 149.83C696.648 153.973 705.704 156.044 715.884 156.044Z" stroke="#9796A5" stroke-opacity="0.35" stroke-width="2" mask="url(#path-1-outside-1_218_35)"/>
<path d="M1069 6.36364V370H992.118V79.3395H989.987L906.713 131.541V63.3594L996.734 6.36364H1069Z" stroke="#9796A5" stroke-opacity="0.35" stroke-width="2" mask="url(#path-1-outside-1_218_35)"/>
</svg>
