<svg width="1181" height="376" viewBox="0 0 1181 376" fill="none" xmlns="http://www.w3.org/2000/svg">
<mask id="path-1-outside-1_218_46" maskUnits="userSpaceOnUse" x="0.621094" y="0.390137" width="1181" height="376" fill="black">
<rect fill="white" x="0.621094" y="0.390137" width="1181" height="376"/>
<path d="M163.908 6.36364V370H87.0259V79.3395H84.8952L1.62109 131.541V63.3594L91.6424 6.36364H163.908Z"/>
<path d="M381.903 1.39205C400.606 1.39205 418.598 4.52888 435.881 10.8025C453.281 17.0762 468.788 27.0786 482.401 40.8097C496.132 54.5407 506.963 72.7699 514.893 95.4972C522.943 118.106 527.027 145.864 527.145 178.771C527.145 209.666 523.653 237.247 516.669 261.513C509.803 285.661 499.92 306.198 487.017 323.125C474.115 340.052 458.549 352.955 440.32 361.832C422.09 370.592 401.731 374.972 379.24 374.972C354.974 374.972 333.549 370.296 314.964 360.945C296.38 351.475 281.406 338.632 270.043 322.415C258.797 306.08 251.991 287.732 249.624 267.372H325.44C328.4 280.63 334.614 290.928 344.084 298.267C353.553 305.488 365.272 309.098 379.24 309.098C402.914 309.098 420.907 298.8 433.217 278.203C445.528 257.488 451.742 229.138 451.861 193.153H449.375C443.93 203.807 436.591 212.981 427.358 220.675C418.125 228.25 407.531 234.11 395.575 238.253C383.738 242.396 371.132 244.467 357.756 244.467C336.33 244.467 317.214 239.437 300.405 229.375C283.596 219.313 270.339 205.464 260.632 187.827C250.926 170.189 246.072 150.066 246.072 127.457C245.954 103.073 251.577 81.3518 262.94 62.294C274.304 43.2363 290.166 28.3215 310.526 17.5497C331.004 6.65957 354.796 1.27367 381.903 1.39205ZM382.436 61.7614C370.481 61.7614 359.827 64.6023 350.476 70.2841C341.243 75.9659 333.904 83.6009 328.459 93.1889C323.132 102.777 320.528 113.49 320.646 125.327C320.646 137.282 323.25 148.054 328.459 157.642C333.786 167.112 341.006 174.688 350.121 180.369C359.354 185.933 369.889 188.714 381.726 188.714C390.604 188.714 398.83 187.057 406.406 183.743C413.982 180.429 420.552 175.871 426.115 170.071C431.797 164.152 436.236 157.346 439.432 149.652C442.628 141.958 444.226 133.79 444.226 125.149C444.107 113.667 441.385 103.132 436.058 93.544C430.732 83.956 423.393 76.2618 414.041 70.4616C404.69 64.6615 394.155 61.7614 382.436 61.7614Z"/>
<path d="M716.065 374.972C688.722 374.972 664.396 370.533 643.089 361.655C621.901 352.659 605.27 340.407 593.196 324.901C581.122 309.394 575.085 291.816 575.085 272.166C575.085 257.015 578.518 243.106 585.384 230.44C592.367 217.656 601.837 207.062 613.793 198.658C625.748 190.135 639.124 184.69 653.92 182.322V179.837C634.508 175.93 618.764 166.52 606.69 151.605C594.617 136.572 588.58 119.112 588.58 99.2259C588.58 80.4048 594.084 63.6553 605.092 48.9773C616.101 34.1809 631.193 22.5805 650.369 14.1761C669.664 5.65341 691.563 1.39205 716.065 1.39205C740.568 1.39205 762.408 5.65341 781.584 14.1761C800.878 22.6989 816.03 34.3584 827.038 49.1548C838.047 63.8329 843.61 80.5232 843.729 99.2259C843.61 119.231 837.455 136.69 825.263 151.605C813.071 166.52 797.446 175.93 778.388 179.837V182.322C792.947 184.69 806.146 190.135 817.983 198.658C829.938 207.062 839.408 217.656 846.392 230.44C853.494 243.106 857.105 257.015 857.223 272.166C857.105 291.816 851.009 309.394 838.935 324.901C826.861 340.407 810.17 352.659 788.864 361.655C767.675 370.533 743.409 374.972 716.065 374.972ZM716.065 318.509C728.258 318.509 738.911 316.319 748.026 311.939C757.14 307.441 764.242 301.286 769.332 293.473C774.541 285.542 777.145 276.428 777.145 266.129C777.145 255.594 774.482 246.302 769.155 238.253C763.828 230.085 756.608 223.693 747.493 219.077C738.378 214.342 727.902 211.974 716.065 211.974C704.347 211.974 693.871 214.342 684.638 219.077C675.405 223.693 668.125 230.085 662.798 238.253C657.59 246.302 654.986 255.594 654.986 266.129C654.986 276.428 657.531 285.542 662.621 293.473C667.711 301.286 674.872 307.441 684.105 311.939C693.338 316.319 703.992 318.509 716.065 318.509ZM716.065 156.044C726.245 156.044 735.301 153.973 743.232 149.83C751.162 145.687 757.377 139.946 761.875 132.607C766.373 125.268 768.622 116.804 768.622 107.216C768.622 97.7462 766.373 89.4602 761.875 82.358C757.377 75.1373 751.222 69.5147 743.409 65.4901C735.597 61.3471 726.482 59.2756 716.065 59.2756C705.767 59.2756 696.652 61.3471 688.722 65.4901C680.791 69.5147 674.576 75.1373 670.078 82.358C665.698 89.4602 663.509 97.7462 663.509 107.216C663.509 116.804 665.758 125.268 670.256 132.607C674.754 139.946 680.968 145.687 688.899 149.83C696.83 153.973 705.885 156.044 716.065 156.044Z"/>
<path d="M1043.79 374.972C1018.7 374.972 996.324 370.355 976.674 361.122C957.143 351.889 941.636 339.164 930.154 322.947C918.672 306.731 912.695 288.146 912.221 267.195H986.795C987.624 281.281 993.542 292.704 1004.55 301.463C1015.56 310.223 1028.64 314.602 1043.79 314.602C1055.86 314.602 1066.52 311.939 1075.75 306.612C1085.1 301.167 1092.38 293.651 1097.59 284.062C1102.92 274.356 1105.58 263.229 1105.58 250.682C1105.58 237.898 1102.86 226.652 1097.41 216.946C1092.09 207.24 1084.69 199.664 1075.22 194.219C1065.75 188.774 1054.92 185.992 1042.73 185.874C1032.07 185.874 1021.71 188.063 1011.65 192.443C1001.71 196.823 993.957 202.801 988.393 210.376L920.034 198.125L937.257 6.36364H1159.56V69.2188H1000.64L991.234 160.305H993.365C999.757 151.309 1009.4 143.852 1022.31 137.933C1035.21 132.015 1049.65 129.055 1065.63 129.055C1087.53 129.055 1107.06 134.205 1124.22 144.503C1141.39 154.801 1154.94 168.947 1164.88 186.939C1174.83 204.813 1179.74 225.41 1179.62 248.729C1179.74 273.232 1174.06 295.012 1162.58 314.07C1151.21 333.009 1135.29 347.924 1114.81 358.814C1094.45 369.586 1070.78 374.972 1043.79 374.972Z"/>
</mask>
<path d="M163.908 6.36364V370H87.0259V79.3395H84.8952L1.62109 131.541V63.3594L91.6424 6.36364H163.908Z" fill="white" fill-opacity="0.6"/>
<path d="M381.903 1.39205C400.606 1.39205 418.598 4.52888 435.881 10.8025C453.281 17.0762 468.788 27.0786 482.401 40.8097C496.132 54.5407 506.963 72.7699 514.893 95.4972C522.943 118.106 527.027 145.864 527.145 178.771C527.145 209.666 523.653 237.247 516.669 261.513C509.803 285.661 499.92 306.198 487.017 323.125C474.115 340.052 458.549 352.955 440.32 361.832C422.09 370.592 401.731 374.972 379.24 374.972C354.974 374.972 333.549 370.296 314.964 360.945C296.38 351.475 281.406 338.632 270.043 322.415C258.797 306.08 251.991 287.732 249.624 267.372H325.44C328.4 280.63 334.614 290.928 344.084 298.267C353.553 305.488 365.272 309.098 379.24 309.098C402.914 309.098 420.907 298.8 433.217 278.203C445.528 257.488 451.742 229.138 451.861 193.153H449.375C443.93 203.807 436.591 212.981 427.358 220.675C418.125 228.25 407.531 234.11 395.575 238.253C383.738 242.396 371.132 244.467 357.756 244.467C336.33 244.467 317.214 239.437 300.405 229.375C283.596 219.313 270.339 205.464 260.632 187.827C250.926 170.189 246.072 150.066 246.072 127.457C245.954 103.073 251.577 81.3518 262.94 62.294C274.304 43.2363 290.166 28.3215 310.526 17.5497C331.004 6.65957 354.796 1.27367 381.903 1.39205ZM382.436 61.7614C370.481 61.7614 359.827 64.6023 350.476 70.2841C341.243 75.9659 333.904 83.6009 328.459 93.1889C323.132 102.777 320.528 113.49 320.646 125.327C320.646 137.282 323.25 148.054 328.459 157.642C333.786 167.112 341.006 174.688 350.121 180.369C359.354 185.933 369.889 188.714 381.726 188.714C390.604 188.714 398.83 187.057 406.406 183.743C413.982 180.429 420.552 175.871 426.115 170.071C431.797 164.152 436.236 157.346 439.432 149.652C442.628 141.958 444.226 133.79 444.226 125.149C444.107 113.667 441.385 103.132 436.058 93.544C430.732 83.956 423.393 76.2618 414.041 70.4616C404.69 64.6615 394.155 61.7614 382.436 61.7614Z" fill="white" fill-opacity="0.6"/>
<path d="M716.065 374.972C688.722 374.972 664.396 370.533 643.089 361.655C621.901 352.659 605.27 340.407 593.196 324.901C581.122 309.394 575.085 291.816 575.085 272.166C575.085 257.015 578.518 243.106 585.384 230.44C592.367 217.656 601.837 207.062 613.793 198.658C625.748 190.135 639.124 184.69 653.92 182.322V179.837C634.508 175.93 618.764 166.52 606.69 151.605C594.617 136.572 588.58 119.112 588.58 99.2259C588.58 80.4048 594.084 63.6553 605.092 48.9773C616.101 34.1809 631.193 22.5805 650.369 14.1761C669.664 5.65341 691.563 1.39205 716.065 1.39205C740.568 1.39205 762.408 5.65341 781.584 14.1761C800.878 22.6989 816.03 34.3584 827.038 49.1548C838.047 63.8329 843.61 80.5232 843.729 99.2259C843.61 119.231 837.455 136.69 825.263 151.605C813.071 166.52 797.446 175.93 778.388 179.837V182.322C792.947 184.69 806.146 190.135 817.983 198.658C829.938 207.062 839.408 217.656 846.392 230.44C853.494 243.106 857.105 257.015 857.223 272.166C857.105 291.816 851.009 309.394 838.935 324.901C826.861 340.407 810.17 352.659 788.864 361.655C767.675 370.533 743.409 374.972 716.065 374.972ZM716.065 318.509C728.258 318.509 738.911 316.319 748.026 311.939C757.14 307.441 764.242 301.286 769.332 293.473C774.541 285.542 777.145 276.428 777.145 266.129C777.145 255.594 774.482 246.302 769.155 238.253C763.828 230.085 756.608 223.693 747.493 219.077C738.378 214.342 727.902 211.974 716.065 211.974C704.347 211.974 693.871 214.342 684.638 219.077C675.405 223.693 668.125 230.085 662.798 238.253C657.59 246.302 654.986 255.594 654.986 266.129C654.986 276.428 657.531 285.542 662.621 293.473C667.711 301.286 674.872 307.441 684.105 311.939C693.338 316.319 703.992 318.509 716.065 318.509ZM716.065 156.044C726.245 156.044 735.301 153.973 743.232 149.83C751.162 145.687 757.377 139.946 761.875 132.607C766.373 125.268 768.622 116.804 768.622 107.216C768.622 97.7462 766.373 89.4602 761.875 82.358C757.377 75.1373 751.222 69.5147 743.409 65.4901C735.597 61.3471 726.482 59.2756 716.065 59.2756C705.767 59.2756 696.652 61.3471 688.722 65.4901C680.791 69.5147 674.576 75.1373 670.078 82.358C665.698 89.4602 663.509 97.7462 663.509 107.216C663.509 116.804 665.758 125.268 670.256 132.607C674.754 139.946 680.968 145.687 688.899 149.83C696.83 153.973 705.885 156.044 716.065 156.044Z" fill="white" fill-opacity="0.6"/>
<path d="M1043.79 374.972C1018.7 374.972 996.324 370.355 976.674 361.122C957.143 351.889 941.636 339.164 930.154 322.947C918.672 306.731 912.695 288.146 912.221 267.195H986.795C987.624 281.281 993.542 292.704 1004.55 301.463C1015.56 310.223 1028.64 314.602 1043.79 314.602C1055.86 314.602 1066.52 311.939 1075.75 306.612C1085.1 301.167 1092.38 293.651 1097.59 284.062C1102.92 274.356 1105.58 263.229 1105.58 250.682C1105.58 237.898 1102.86 226.652 1097.41 216.946C1092.09 207.24 1084.69 199.664 1075.22 194.219C1065.75 188.774 1054.92 185.992 1042.73 185.874C1032.07 185.874 1021.71 188.063 1011.65 192.443C1001.71 196.823 993.957 202.801 988.393 210.376L920.034 198.125L937.257 6.36364H1159.56V69.2188H1000.64L991.234 160.305H993.365C999.757 151.309 1009.4 143.852 1022.31 137.933C1035.21 132.015 1049.65 129.055 1065.63 129.055C1087.53 129.055 1107.06 134.205 1124.22 144.503C1141.39 154.801 1154.94 168.947 1164.88 186.939C1174.83 204.813 1179.74 225.41 1179.62 248.729C1179.74 273.232 1174.06 295.012 1162.58 314.07C1151.21 333.009 1135.29 347.924 1114.81 358.814C1094.45 369.586 1070.78 374.972 1043.79 374.972Z" fill="white" fill-opacity="0.6"/>
<path d="M163.908 6.36364V370H87.0259V79.3395H84.8952L1.62109 131.541V63.3594L91.6424 6.36364H163.908Z" stroke="#9796A5" stroke-opacity="0.15" stroke-width="2" mask="url(#path-1-outside-1_218_46)"/>
<path d="M381.903 1.39205C400.606 1.39205 418.598 4.52888 435.881 10.8025C453.281 17.0762 468.788 27.0786 482.401 40.8097C496.132 54.5407 506.963 72.7699 514.893 95.4972C522.943 118.106 527.027 145.864 527.145 178.771C527.145 209.666 523.653 237.247 516.669 261.513C509.803 285.661 499.92 306.198 487.017 323.125C474.115 340.052 458.549 352.955 440.32 361.832C422.09 370.592 401.731 374.972 379.24 374.972C354.974 374.972 333.549 370.296 314.964 360.945C296.38 351.475 281.406 338.632 270.043 322.415C258.797 306.08 251.991 287.732 249.624 267.372H325.44C328.4 280.63 334.614 290.928 344.084 298.267C353.553 305.488 365.272 309.098 379.24 309.098C402.914 309.098 420.907 298.8 433.217 278.203C445.528 257.488 451.742 229.138 451.861 193.153H449.375C443.93 203.807 436.591 212.981 427.358 220.675C418.125 228.25 407.531 234.11 395.575 238.253C383.738 242.396 371.132 244.467 357.756 244.467C336.33 244.467 317.214 239.437 300.405 229.375C283.596 219.313 270.339 205.464 260.632 187.827C250.926 170.189 246.072 150.066 246.072 127.457C245.954 103.073 251.577 81.3518 262.94 62.294C274.304 43.2363 290.166 28.3215 310.526 17.5497C331.004 6.65957 354.796 1.27367 381.903 1.39205ZM382.436 61.7614C370.481 61.7614 359.827 64.6023 350.476 70.2841C341.243 75.9659 333.904 83.6009 328.459 93.1889C323.132 102.777 320.528 113.49 320.646 125.327C320.646 137.282 323.25 148.054 328.459 157.642C333.786 167.112 341.006 174.688 350.121 180.369C359.354 185.933 369.889 188.714 381.726 188.714C390.604 188.714 398.83 187.057 406.406 183.743C413.982 180.429 420.552 175.871 426.115 170.071C431.797 164.152 436.236 157.346 439.432 149.652C442.628 141.958 444.226 133.79 444.226 125.149C444.107 113.667 441.385 103.132 436.058 93.544C430.732 83.956 423.393 76.2618 414.041 70.4616C404.69 64.6615 394.155 61.7614 382.436 61.7614Z" stroke="#9796A5" stroke-opacity="0.15" stroke-width="2" mask="url(#path-1-outside-1_218_46)"/>
<path d="M716.065 374.972C688.722 374.972 664.396 370.533 643.089 361.655C621.901 352.659 605.27 340.407 593.196 324.901C581.122 309.394 575.085 291.816 575.085 272.166C575.085 257.015 578.518 243.106 585.384 230.44C592.367 217.656 601.837 207.062 613.793 198.658C625.748 190.135 639.124 184.69 653.92 182.322V179.837C634.508 175.93 618.764 166.52 606.69 151.605C594.617 136.572 588.58 119.112 588.58 99.2259C588.58 80.4048 594.084 63.6553 605.092 48.9773C616.101 34.1809 631.193 22.5805 650.369 14.1761C669.664 5.65341 691.563 1.39205 716.065 1.39205C740.568 1.39205 762.408 5.65341 781.584 14.1761C800.878 22.6989 816.03 34.3584 827.038 49.1548C838.047 63.8329 843.61 80.5232 843.729 99.2259C843.61 119.231 837.455 136.69 825.263 151.605C813.071 166.52 797.446 175.93 778.388 179.837V182.322C792.947 184.69 806.146 190.135 817.983 198.658C829.938 207.062 839.408 217.656 846.392 230.44C853.494 243.106 857.105 257.015 857.223 272.166C857.105 291.816 851.009 309.394 838.935 324.901C826.861 340.407 810.17 352.659 788.864 361.655C767.675 370.533 743.409 374.972 716.065 374.972ZM716.065 318.509C728.258 318.509 738.911 316.319 748.026 311.939C757.14 307.441 764.242 301.286 769.332 293.473C774.541 285.542 777.145 276.428 777.145 266.129C777.145 255.594 774.482 246.302 769.155 238.253C763.828 230.085 756.608 223.693 747.493 219.077C738.378 214.342 727.902 211.974 716.065 211.974C704.347 211.974 693.871 214.342 684.638 219.077C675.405 223.693 668.125 230.085 662.798 238.253C657.59 246.302 654.986 255.594 654.986 266.129C654.986 276.428 657.531 285.542 662.621 293.473C667.711 301.286 674.872 307.441 684.105 311.939C693.338 316.319 703.992 318.509 716.065 318.509ZM716.065 156.044C726.245 156.044 735.301 153.973 743.232 149.83C751.162 145.687 757.377 139.946 761.875 132.607C766.373 125.268 768.622 116.804 768.622 107.216C768.622 97.7462 766.373 89.4602 761.875 82.358C757.377 75.1373 751.222 69.5147 743.409 65.4901C735.597 61.3471 726.482 59.2756 716.065 59.2756C705.767 59.2756 696.652 61.3471 688.722 65.4901C680.791 69.5147 674.576 75.1373 670.078 82.358C665.698 89.4602 663.509 97.7462 663.509 107.216C663.509 116.804 665.758 125.268 670.256 132.607C674.754 139.946 680.968 145.687 688.899 149.83C696.83 153.973 705.885 156.044 716.065 156.044Z" stroke="#9796A5" stroke-opacity="0.15" stroke-width="2" mask="url(#path-1-outside-1_218_46)"/>
<path d="M1043.79 374.972C1018.7 374.972 996.324 370.355 976.674 361.122C957.143 351.889 941.636 339.164 930.154 322.947C918.672 306.731 912.695 288.146 912.221 267.195H986.795C987.624 281.281 993.542 292.704 1004.55 301.463C1015.56 310.223 1028.64 314.602 1043.79 314.602C1055.86 314.602 1066.52 311.939 1075.75 306.612C1085.1 301.167 1092.38 293.651 1097.59 284.062C1102.92 274.356 1105.58 263.229 1105.58 250.682C1105.58 237.898 1102.86 226.652 1097.41 216.946C1092.09 207.24 1084.69 199.664 1075.22 194.219C1065.75 188.774 1054.92 185.992 1042.73 185.874C1032.07 185.874 1021.71 188.063 1011.65 192.443C1001.71 196.823 993.957 202.801 988.393 210.376L920.034 198.125L937.257 6.36364H1159.56V69.2188H1000.64L991.234 160.305H993.365C999.757 151.309 1009.4 143.852 1022.31 137.933C1035.21 132.015 1049.65 129.055 1065.63 129.055C1087.53 129.055 1107.06 134.205 1124.22 144.503C1141.39 154.801 1154.94 168.947 1164.88 186.939C1174.83 204.813 1179.74 225.41 1179.62 248.729C1179.74 273.232 1174.06 295.012 1162.58 314.07C1151.21 333.009 1135.29 347.924 1114.81 358.814C1094.45 369.586 1070.78 374.972 1043.79 374.972Z" stroke="#9796A5" stroke-opacity="0.15" stroke-width="2" mask="url(#path-1-outside-1_218_46)"/>
</svg>
