<svg width="1189" height="376" viewBox="0 0 1189 376" fill="none" xmlns="http://www.w3.org/2000/svg">
<mask id="path-1-outside-1_220_73" maskUnits="userSpaceOnUse" x="0.714844" y="0.390137" width="1189" height="376" fill="black">
<rect fill="white" x="0.714844" y="0.390137" width="1189" height="376"/>
<path d="M164.002 6.36364V370H87.1197V79.3395H84.989L1.71484 131.541V63.3594L91.7362 6.36364H164.002Z"/>
<path d="M381.997 1.39205C400.7 1.39205 418.692 4.52888 435.974 10.8025C453.375 17.0762 468.882 27.0786 482.494 40.8097C496.225 54.5407 507.056 72.7699 514.987 95.4972C523.036 118.106 527.12 145.864 527.239 178.771C527.239 209.666 523.747 237.247 516.763 261.513C509.897 285.661 500.013 306.198 487.111 323.125C474.208 340.052 458.643 352.955 440.413 361.832C422.184 370.592 401.824 374.972 379.334 374.972C355.068 374.972 333.643 370.296 315.058 360.945C296.474 351.475 281.5 338.632 270.136 322.415C258.891 306.08 252.085 287.732 249.717 267.372H325.534C328.493 280.63 334.708 290.928 344.178 298.267C353.647 305.488 365.366 309.098 379.334 309.098C403.008 309.098 421 298.8 433.311 278.203C445.622 257.488 451.836 229.138 451.955 193.153H449.469C444.024 203.807 436.685 212.981 427.452 220.675C418.219 228.25 407.625 234.11 395.669 238.253C383.832 242.396 371.225 244.467 357.849 244.467C336.424 244.467 317.307 239.437 300.499 229.375C283.69 219.313 270.432 205.464 260.726 187.827C251.019 170.189 246.166 150.066 246.166 127.457C246.048 103.073 251.67 81.3518 263.034 62.294C274.398 43.2363 290.259 28.3215 310.619 17.5497C331.098 6.65957 354.89 1.27367 381.997 1.39205ZM382.53 61.7614C370.574 61.7614 359.921 64.6023 350.57 70.2841C341.337 75.9659 333.998 83.6009 328.553 93.1889C323.226 102.777 320.622 113.49 320.74 125.327C320.74 137.282 323.344 148.054 328.553 157.642C333.879 167.112 341.1 174.688 350.215 180.369C359.447 185.933 369.982 188.714 381.82 188.714C390.697 188.714 398.924 187.057 406.5 183.743C414.076 180.429 420.645 175.871 426.209 170.071C431.891 164.152 436.33 157.346 439.526 149.652C442.722 141.958 444.32 133.79 444.32 125.149C444.201 113.667 441.479 103.132 436.152 93.544C430.825 83.956 423.486 76.2618 414.135 70.4616C404.784 64.6615 394.249 61.7614 382.53 61.7614Z"/>
<path d="M716.159 374.972C688.815 374.972 664.49 370.533 643.183 361.655C621.995 352.659 605.364 340.407 593.29 324.901C581.216 309.394 575.179 291.816 575.179 272.166C575.179 257.015 578.612 243.106 585.477 230.44C592.461 217.656 601.931 207.062 613.886 198.658C625.842 190.135 639.218 184.69 654.014 182.322V179.837C634.601 175.93 618.858 166.52 606.784 151.605C594.71 136.572 588.673 119.112 588.673 99.2259C588.673 80.4048 594.178 63.6553 605.186 48.9773C616.195 34.1809 631.287 22.5805 650.463 14.1761C669.758 5.65341 691.656 1.39205 716.159 1.39205C740.662 1.39205 762.501 5.65341 781.678 14.1761C800.972 22.6989 816.124 34.3584 827.132 49.1548C838.141 63.8329 843.704 80.5232 843.822 99.2259C843.704 119.231 837.549 136.69 825.357 151.605C813.164 166.52 797.539 175.93 778.482 179.837V182.322C793.041 184.69 806.24 190.135 818.077 198.658C830.032 207.062 839.502 217.656 846.486 230.44C853.588 243.106 857.198 257.015 857.317 272.166C857.198 291.816 851.102 309.394 839.028 324.901C826.955 340.407 810.264 352.659 788.957 361.655C767.769 370.533 743.503 374.972 716.159 374.972ZM716.159 318.509C728.351 318.509 739.005 316.319 748.119 311.939C757.234 307.441 764.336 301.286 769.426 293.473C774.634 285.542 777.239 276.428 777.239 266.129C777.239 255.594 774.575 246.302 769.249 238.253C763.922 230.085 756.701 223.693 747.587 219.077C738.472 214.342 727.996 211.974 716.159 211.974C704.44 211.974 693.964 214.342 684.732 219.077C675.499 223.693 668.219 230.085 662.892 238.253C657.684 246.302 655.08 255.594 655.08 266.129C655.08 276.428 657.625 285.542 662.714 293.473C667.804 301.286 674.966 307.441 684.199 311.939C693.432 316.319 704.085 318.509 716.159 318.509ZM716.159 156.044C726.339 156.044 735.394 153.973 743.325 149.83C751.256 145.687 757.471 139.946 761.969 132.607C766.467 125.268 768.716 116.804 768.716 107.216C768.716 97.7462 766.467 89.4602 761.969 82.358C757.471 75.1373 751.315 69.5147 743.503 65.4901C735.69 61.3471 726.576 59.2756 716.159 59.2756C705.861 59.2756 696.746 61.3471 688.815 65.4901C680.884 69.5147 674.67 75.1373 670.172 82.358C665.792 89.4602 663.602 97.7462 663.602 107.216C663.602 116.804 665.851 125.268 670.349 132.607C674.848 139.946 681.062 145.687 688.993 149.83C696.924 153.973 705.979 156.044 716.159 156.044Z"/>
<path d="M1042.64 1.39205C1061.34 1.39205 1079.34 4.52888 1096.62 10.8025C1114.02 17.0762 1129.53 27.0786 1143.14 40.8097C1156.87 54.5407 1167.7 72.7699 1175.63 95.4972C1183.68 118.106 1187.76 145.864 1187.88 178.771C1187.88 209.666 1184.39 237.247 1177.41 261.513C1170.54 285.661 1160.66 306.198 1147.76 323.125C1134.85 340.052 1119.29 352.955 1101.06 361.832C1082.83 370.592 1062.47 374.972 1039.98 374.972C1015.71 374.972 994.287 370.296 975.703 360.945C957.118 351.475 942.145 338.632 930.781 322.415C919.536 306.08 912.729 287.732 910.362 267.372H986.179C989.138 280.63 995.352 290.928 1004.82 298.267C1014.29 305.488 1026.01 309.098 1039.98 309.098C1063.65 309.098 1081.64 298.8 1093.96 278.203C1106.27 257.488 1112.48 229.138 1112.6 193.153H1110.11C1104.67 203.807 1097.33 212.981 1088.1 220.675C1078.86 228.25 1068.27 234.11 1056.31 238.253C1044.48 242.396 1031.87 244.467 1018.49 244.467C997.069 244.467 977.952 239.437 961.143 229.375C944.334 219.313 931.077 205.464 921.37 187.827C911.664 170.189 906.811 150.066 906.811 127.457C906.692 103.073 912.315 81.3518 923.679 62.294C935.042 43.2363 950.904 28.3215 971.264 17.5497C991.742 6.65957 1015.53 1.27367 1042.64 1.39205ZM1043.17 61.7614C1031.22 61.7614 1020.57 64.6023 1011.21 70.2841C1001.98 75.9659 994.642 83.6009 989.197 93.1889C983.87 102.777 981.266 113.49 981.385 125.327C981.385 137.282 983.989 148.054 989.197 157.642C994.524 167.112 1001.74 174.688 1010.86 180.369C1020.09 185.933 1030.63 188.714 1042.46 188.714C1051.34 188.714 1059.57 187.057 1067.14 183.743C1074.72 180.429 1081.29 175.871 1086.85 170.071C1092.54 164.152 1096.97 157.346 1100.17 149.652C1103.37 141.958 1104.96 133.79 1104.96 125.149C1104.85 113.667 1102.12 103.132 1096.8 93.544C1091.47 83.956 1084.13 76.2618 1074.78 70.4616C1065.43 64.6615 1054.89 61.7614 1043.17 61.7614Z"/>
</mask>
<path d="M164.002 6.36364V370H87.1197V79.3395H84.989L1.71484 131.541V63.3594L91.7362 6.36364H164.002Z" fill="white" fill-opacity="0.7"/>
<path d="M381.997 1.39205C400.7 1.39205 418.692 4.52888 435.974 10.8025C453.375 17.0762 468.882 27.0786 482.494 40.8097C496.225 54.5407 507.056 72.7699 514.987 95.4972C523.036 118.106 527.12 145.864 527.239 178.771C527.239 209.666 523.747 237.247 516.763 261.513C509.897 285.661 500.013 306.198 487.111 323.125C474.208 340.052 458.643 352.955 440.413 361.832C422.184 370.592 401.824 374.972 379.334 374.972C355.068 374.972 333.643 370.296 315.058 360.945C296.474 351.475 281.5 338.632 270.136 322.415C258.891 306.08 252.085 287.732 249.717 267.372H325.534C328.493 280.63 334.708 290.928 344.178 298.267C353.647 305.488 365.366 309.098 379.334 309.098C403.008 309.098 421 298.8 433.311 278.203C445.622 257.488 451.836 229.138 451.955 193.153H449.469C444.024 203.807 436.685 212.981 427.452 220.675C418.219 228.25 407.625 234.11 395.669 238.253C383.832 242.396 371.225 244.467 357.849 244.467C336.424 244.467 317.307 239.437 300.499 229.375C283.69 219.313 270.432 205.464 260.726 187.827C251.019 170.189 246.166 150.066 246.166 127.457C246.048 103.073 251.67 81.3518 263.034 62.294C274.398 43.2363 290.259 28.3215 310.619 17.5497C331.098 6.65957 354.89 1.27367 381.997 1.39205ZM382.53 61.7614C370.574 61.7614 359.921 64.6023 350.57 70.2841C341.337 75.9659 333.998 83.6009 328.553 93.1889C323.226 102.777 320.622 113.49 320.74 125.327C320.74 137.282 323.344 148.054 328.553 157.642C333.879 167.112 341.1 174.688 350.215 180.369C359.447 185.933 369.982 188.714 381.82 188.714C390.697 188.714 398.924 187.057 406.5 183.743C414.076 180.429 420.645 175.871 426.209 170.071C431.891 164.152 436.33 157.346 439.526 149.652C442.722 141.958 444.32 133.79 444.32 125.149C444.201 113.667 441.479 103.132 436.152 93.544C430.825 83.956 423.486 76.2618 414.135 70.4616C404.784 64.6615 394.249 61.7614 382.53 61.7614Z" fill="white" fill-opacity="0.7"/>
<path d="M716.159 374.972C688.815 374.972 664.49 370.533 643.183 361.655C621.995 352.659 605.364 340.407 593.29 324.901C581.216 309.394 575.179 291.816 575.179 272.166C575.179 257.015 578.612 243.106 585.477 230.44C592.461 217.656 601.931 207.062 613.886 198.658C625.842 190.135 639.218 184.69 654.014 182.322V179.837C634.601 175.93 618.858 166.52 606.784 151.605C594.71 136.572 588.673 119.112 588.673 99.2259C588.673 80.4048 594.178 63.6553 605.186 48.9773C616.195 34.1809 631.287 22.5805 650.463 14.1761C669.758 5.65341 691.656 1.39205 716.159 1.39205C740.662 1.39205 762.501 5.65341 781.678 14.1761C800.972 22.6989 816.124 34.3584 827.132 49.1548C838.141 63.8329 843.704 80.5232 843.822 99.2259C843.704 119.231 837.549 136.69 825.357 151.605C813.164 166.52 797.539 175.93 778.482 179.837V182.322C793.041 184.69 806.24 190.135 818.077 198.658C830.032 207.062 839.502 217.656 846.486 230.44C853.588 243.106 857.198 257.015 857.317 272.166C857.198 291.816 851.102 309.394 839.028 324.901C826.955 340.407 810.264 352.659 788.957 361.655C767.769 370.533 743.503 374.972 716.159 374.972ZM716.159 318.509C728.351 318.509 739.005 316.319 748.119 311.939C757.234 307.441 764.336 301.286 769.426 293.473C774.634 285.542 777.239 276.428 777.239 266.129C777.239 255.594 774.575 246.302 769.249 238.253C763.922 230.085 756.701 223.693 747.587 219.077C738.472 214.342 727.996 211.974 716.159 211.974C704.44 211.974 693.964 214.342 684.732 219.077C675.499 223.693 668.219 230.085 662.892 238.253C657.684 246.302 655.08 255.594 655.08 266.129C655.08 276.428 657.625 285.542 662.714 293.473C667.804 301.286 674.966 307.441 684.199 311.939C693.432 316.319 704.085 318.509 716.159 318.509ZM716.159 156.044C726.339 156.044 735.394 153.973 743.325 149.83C751.256 145.687 757.471 139.946 761.969 132.607C766.467 125.268 768.716 116.804 768.716 107.216C768.716 97.7462 766.467 89.4602 761.969 82.358C757.471 75.1373 751.315 69.5147 743.503 65.4901C735.69 61.3471 726.576 59.2756 716.159 59.2756C705.861 59.2756 696.746 61.3471 688.815 65.4901C680.884 69.5147 674.67 75.1373 670.172 82.358C665.792 89.4602 663.602 97.7462 663.602 107.216C663.602 116.804 665.851 125.268 670.349 132.607C674.848 139.946 681.062 145.687 688.993 149.83C696.924 153.973 705.979 156.044 716.159 156.044Z" fill="white" fill-opacity="0.7"/>
<path d="M1042.64 1.39205C1061.34 1.39205 1079.34 4.52888 1096.62 10.8025C1114.02 17.0762 1129.53 27.0786 1143.14 40.8097C1156.87 54.5407 1167.7 72.7699 1175.63 95.4972C1183.68 118.106 1187.76 145.864 1187.88 178.771C1187.88 209.666 1184.39 237.247 1177.41 261.513C1170.54 285.661 1160.66 306.198 1147.76 323.125C1134.85 340.052 1119.29 352.955 1101.06 361.832C1082.83 370.592 1062.47 374.972 1039.98 374.972C1015.71 374.972 994.287 370.296 975.703 360.945C957.118 351.475 942.145 338.632 930.781 322.415C919.536 306.08 912.729 287.732 910.362 267.372H986.179C989.138 280.63 995.352 290.928 1004.82 298.267C1014.29 305.488 1026.01 309.098 1039.98 309.098C1063.65 309.098 1081.64 298.8 1093.96 278.203C1106.27 257.488 1112.48 229.138 1112.6 193.153H1110.11C1104.67 203.807 1097.33 212.981 1088.1 220.675C1078.86 228.25 1068.27 234.11 1056.31 238.253C1044.48 242.396 1031.87 244.467 1018.49 244.467C997.069 244.467 977.952 239.437 961.143 229.375C944.334 219.313 931.077 205.464 921.37 187.827C911.664 170.189 906.811 150.066 906.811 127.457C906.692 103.073 912.315 81.3518 923.679 62.294C935.042 43.2363 950.904 28.3215 971.264 17.5497C991.742 6.65957 1015.53 1.27367 1042.64 1.39205ZM1043.17 61.7614C1031.22 61.7614 1020.57 64.6023 1011.21 70.2841C1001.98 75.9659 994.642 83.6009 989.197 93.1889C983.87 102.777 981.266 113.49 981.385 125.327C981.385 137.282 983.989 148.054 989.197 157.642C994.524 167.112 1001.74 174.688 1010.86 180.369C1020.09 185.933 1030.63 188.714 1042.46 188.714C1051.34 188.714 1059.57 187.057 1067.14 183.743C1074.72 180.429 1081.29 175.871 1086.85 170.071C1092.54 164.152 1096.97 157.346 1100.17 149.652C1103.37 141.958 1104.96 133.79 1104.96 125.149C1104.85 113.667 1102.12 103.132 1096.8 93.544C1091.47 83.956 1084.13 76.2618 1074.78 70.4616C1065.43 64.6615 1054.89 61.7614 1043.17 61.7614Z" fill="white" fill-opacity="0.7"/>
<path d="M164.002 6.36364V370H87.1197V79.3395H84.989L1.71484 131.541V63.3594L91.7362 6.36364H164.002Z" stroke="#9796A5" stroke-opacity="0.35" stroke-width="2" mask="url(#path-1-outside-1_220_73)"/>
<path d="M381.997 1.39205C400.7 1.39205 418.692 4.52888 435.974 10.8025C453.375 17.0762 468.882 27.0786 482.494 40.8097C496.225 54.5407 507.056 72.7699 514.987 95.4972C523.036 118.106 527.12 145.864 527.239 178.771C527.239 209.666 523.747 237.247 516.763 261.513C509.897 285.661 500.013 306.198 487.111 323.125C474.208 340.052 458.643 352.955 440.413 361.832C422.184 370.592 401.824 374.972 379.334 374.972C355.068 374.972 333.643 370.296 315.058 360.945C296.474 351.475 281.5 338.632 270.136 322.415C258.891 306.08 252.085 287.732 249.717 267.372H325.534C328.493 280.63 334.708 290.928 344.178 298.267C353.647 305.488 365.366 309.098 379.334 309.098C403.008 309.098 421 298.8 433.311 278.203C445.622 257.488 451.836 229.138 451.955 193.153H449.469C444.024 203.807 436.685 212.981 427.452 220.675C418.219 228.25 407.625 234.11 395.669 238.253C383.832 242.396 371.225 244.467 357.849 244.467C336.424 244.467 317.307 239.437 300.499 229.375C283.69 219.313 270.432 205.464 260.726 187.827C251.019 170.189 246.166 150.066 246.166 127.457C246.048 103.073 251.67 81.3518 263.034 62.294C274.398 43.2363 290.259 28.3215 310.619 17.5497C331.098 6.65957 354.89 1.27367 381.997 1.39205ZM382.53 61.7614C370.574 61.7614 359.921 64.6023 350.57 70.2841C341.337 75.9659 333.998 83.6009 328.553 93.1889C323.226 102.777 320.622 113.49 320.74 125.327C320.74 137.282 323.344 148.054 328.553 157.642C333.879 167.112 341.1 174.688 350.215 180.369C359.447 185.933 369.982 188.714 381.82 188.714C390.697 188.714 398.924 187.057 406.5 183.743C414.076 180.429 420.645 175.871 426.209 170.071C431.891 164.152 436.33 157.346 439.526 149.652C442.722 141.958 444.32 133.79 444.32 125.149C444.201 113.667 441.479 103.132 436.152 93.544C430.825 83.956 423.486 76.2618 414.135 70.4616C404.784 64.6615 394.249 61.7614 382.53 61.7614Z" stroke="#9796A5" stroke-opacity="0.35" stroke-width="2" mask="url(#path-1-outside-1_220_73)"/>
<path d="M716.159 374.972C688.815 374.972 664.49 370.533 643.183 361.655C621.995 352.659 605.364 340.407 593.29 324.901C581.216 309.394 575.179 291.816 575.179 272.166C575.179 257.015 578.612 243.106 585.477 230.44C592.461 217.656 601.931 207.062 613.886 198.658C625.842 190.135 639.218 184.69 654.014 182.322V179.837C634.601 175.93 618.858 166.52 606.784 151.605C594.71 136.572 588.673 119.112 588.673 99.2259C588.673 80.4048 594.178 63.6553 605.186 48.9773C616.195 34.1809 631.287 22.5805 650.463 14.1761C669.758 5.65341 691.656 1.39205 716.159 1.39205C740.662 1.39205 762.501 5.65341 781.678 14.1761C800.972 22.6989 816.124 34.3584 827.132 49.1548C838.141 63.8329 843.704 80.5232 843.822 99.2259C843.704 119.231 837.549 136.69 825.357 151.605C813.164 166.52 797.539 175.93 778.482 179.837V182.322C793.041 184.69 806.24 190.135 818.077 198.658C830.032 207.062 839.502 217.656 846.486 230.44C853.588 243.106 857.198 257.015 857.317 272.166C857.198 291.816 851.102 309.394 839.028 324.901C826.955 340.407 810.264 352.659 788.957 361.655C767.769 370.533 743.503 374.972 716.159 374.972ZM716.159 318.509C728.351 318.509 739.005 316.319 748.119 311.939C757.234 307.441 764.336 301.286 769.426 293.473C774.634 285.542 777.239 276.428 777.239 266.129C777.239 255.594 774.575 246.302 769.249 238.253C763.922 230.085 756.701 223.693 747.587 219.077C738.472 214.342 727.996 211.974 716.159 211.974C704.44 211.974 693.964 214.342 684.732 219.077C675.499 223.693 668.219 230.085 662.892 238.253C657.684 246.302 655.08 255.594 655.08 266.129C655.08 276.428 657.625 285.542 662.714 293.473C667.804 301.286 674.966 307.441 684.199 311.939C693.432 316.319 704.085 318.509 716.159 318.509ZM716.159 156.044C726.339 156.044 735.394 153.973 743.325 149.83C751.256 145.687 757.471 139.946 761.969 132.607C766.467 125.268 768.716 116.804 768.716 107.216C768.716 97.7462 766.467 89.4602 761.969 82.358C757.471 75.1373 751.315 69.5147 743.503 65.4901C735.69 61.3471 726.576 59.2756 716.159 59.2756C705.861 59.2756 696.746 61.3471 688.815 65.4901C680.884 69.5147 674.67 75.1373 670.172 82.358C665.792 89.4602 663.602 97.7462 663.602 107.216C663.602 116.804 665.851 125.268 670.349 132.607C674.848 139.946 681.062 145.687 688.993 149.83C696.924 153.973 705.979 156.044 716.159 156.044Z" stroke="#9796A5" stroke-opacity="0.35" stroke-width="2" mask="url(#path-1-outside-1_220_73)"/>
<path d="M1042.64 1.39205C1061.34 1.39205 1079.34 4.52888 1096.62 10.8025C1114.02 17.0762 1129.53 27.0786 1143.14 40.8097C1156.87 54.5407 1167.7 72.7699 1175.63 95.4972C1183.68 118.106 1187.76 145.864 1187.88 178.771C1187.88 209.666 1184.39 237.247 1177.41 261.513C1170.54 285.661 1160.66 306.198 1147.76 323.125C1134.85 340.052 1119.29 352.955 1101.06 361.832C1082.83 370.592 1062.47 374.972 1039.98 374.972C1015.71 374.972 994.287 370.296 975.703 360.945C957.118 351.475 942.145 338.632 930.781 322.415C919.536 306.08 912.729 287.732 910.362 267.372H986.179C989.138 280.63 995.352 290.928 1004.82 298.267C1014.29 305.488 1026.01 309.098 1039.98 309.098C1063.65 309.098 1081.64 298.8 1093.96 278.203C1106.27 257.488 1112.48 229.138 1112.6 193.153H1110.11C1104.67 203.807 1097.33 212.981 1088.1 220.675C1078.86 228.25 1068.27 234.11 1056.31 238.253C1044.48 242.396 1031.87 244.467 1018.49 244.467C997.069 244.467 977.952 239.437 961.143 229.375C944.334 219.313 931.077 205.464 921.37 187.827C911.664 170.189 906.811 150.066 906.811 127.457C906.692 103.073 912.315 81.3518 923.679 62.294C935.042 43.2363 950.904 28.3215 971.264 17.5497C991.742 6.65957 1015.53 1.27367 1042.64 1.39205ZM1043.17 61.7614C1031.22 61.7614 1020.57 64.6023 1011.21 70.2841C1001.98 75.9659 994.642 83.6009 989.197 93.1889C983.87 102.777 981.266 113.49 981.385 125.327C981.385 137.282 983.989 148.054 989.197 157.642C994.524 167.112 1001.74 174.688 1010.86 180.369C1020.09 185.933 1030.63 188.714 1042.46 188.714C1051.34 188.714 1059.57 187.057 1067.14 183.743C1074.72 180.429 1081.29 175.871 1086.85 170.071C1092.54 164.152 1096.97 157.346 1100.17 149.652C1103.37 141.958 1104.96 133.79 1104.96 125.149C1104.85 113.667 1102.12 103.132 1096.8 93.544C1091.47 83.956 1084.13 76.2618 1074.78 70.4616C1065.43 64.6615 1054.89 61.7614 1043.17 61.7614Z" stroke="#9796A5" stroke-opacity="0.35" stroke-width="2" mask="url(#path-1-outside-1_220_73)"/>
</svg>
