<svg width="1202" height="379" viewBox="0 0 1202 379" fill="none" xmlns="http://www.w3.org/2000/svg">
<mask id="path-1-outside-1_220_72" maskUnits="userSpaceOnUse" x="0.878906" y="0.390137" width="1201" height="379" fill="black">
<rect fill="white" x="0.878906" y="0.390137" width="1201" height="379"/>
<path d="M164.166 6.36364V370H87.2837V79.3395H85.1531L1.87891 131.541V63.3594L91.9002 6.36364H164.166Z"/>
<path d="M382.161 1.39205C400.864 1.39205 418.856 4.52888 436.138 10.8025C453.539 17.0762 469.046 27.0786 482.658 40.8097C496.389 54.5407 507.22 72.7699 515.151 95.4972C523.201 118.106 527.284 145.864 527.403 178.771C527.403 209.666 523.911 237.247 516.927 261.513C510.061 285.661 500.177 306.198 487.275 323.125C474.372 340.052 458.807 352.955 440.577 361.832C422.348 370.592 401.988 374.972 379.498 374.972C355.232 374.972 333.807 370.296 315.222 360.945C296.638 351.475 281.664 338.632 270.3 322.415C259.055 306.08 252.249 287.732 249.881 267.372H325.698C328.657 280.63 334.872 290.928 344.342 298.267C353.811 305.488 365.53 309.098 379.498 309.098C403.172 309.098 421.165 298.8 433.475 278.203C445.786 257.488 452 229.138 452.119 193.153H449.633C444.188 203.807 436.849 212.981 427.616 220.675C418.383 228.25 407.789 234.11 395.833 238.253C383.996 242.396 371.389 244.467 358.013 244.467C336.588 244.467 317.471 239.437 300.663 229.375C283.854 219.313 270.596 205.464 260.89 187.827C251.183 170.189 246.33 150.066 246.33 127.457C246.212 103.073 251.835 81.3518 263.198 62.294C274.562 43.2363 290.424 28.3215 310.783 17.5497C331.262 6.65957 355.054 1.27367 382.161 1.39205ZM382.694 61.7614C370.738 61.7614 360.085 64.6023 350.734 70.2841C341.501 75.9659 334.162 83.6009 328.717 93.1889C323.39 102.777 320.786 113.49 320.904 125.327C320.904 137.282 323.508 148.054 328.717 157.642C334.043 167.112 341.264 174.688 350.379 180.369C359.612 185.933 370.147 188.714 381.984 188.714C390.862 188.714 399.088 187.057 406.664 183.743C414.24 180.429 420.809 175.871 426.373 170.071C432.055 164.152 436.494 157.346 439.69 149.652C442.886 141.958 444.484 133.79 444.484 125.149C444.365 113.667 441.643 103.132 436.316 93.544C430.989 83.956 423.65 76.2618 414.299 70.4616C404.948 64.6615 394.413 61.7614 382.694 61.7614Z"/>
<path d="M712.239 1.39205C730.942 1.39205 748.934 4.52888 766.217 10.8025C783.617 17.0762 799.124 27.0786 812.737 40.8097C826.468 54.5407 837.299 72.7699 845.229 95.4972C853.279 118.106 857.362 145.864 857.481 178.771C857.481 209.666 853.989 237.247 847.005 261.513C840.139 285.661 830.255 306.198 817.353 323.125C804.451 340.052 788.885 352.955 770.656 361.832C752.426 370.592 732.067 374.972 709.576 374.972C685.31 374.972 663.885 370.296 645.3 360.945C626.716 351.475 611.742 338.632 600.379 322.415C589.133 306.08 582.327 287.732 579.96 267.372H655.776C658.736 280.63 664.95 290.928 674.42 298.267C683.889 305.488 695.608 309.098 709.576 309.098C733.25 309.098 751.243 298.8 763.553 278.203C775.864 257.488 782.078 229.138 782.197 193.153H779.711C774.266 203.807 766.927 212.981 757.694 220.675C748.461 228.25 737.867 234.11 725.911 238.253C714.074 242.396 701.468 244.467 688.092 244.467C666.666 244.467 647.549 239.437 630.741 229.375C613.932 219.313 600.674 205.464 590.968 187.827C581.262 170.189 576.408 150.066 576.408 127.457C576.29 103.073 581.913 81.3518 593.276 62.294C604.64 43.2363 620.502 28.3215 640.862 17.5497C661.34 6.65957 685.132 1.27367 712.239 1.39205ZM712.772 61.7614C700.817 61.7614 690.163 64.6023 680.812 70.2841C671.579 75.9659 664.24 83.6009 658.795 93.1889C653.468 102.777 650.864 113.49 650.982 125.327C650.982 137.282 653.586 148.054 658.795 157.642C664.121 167.112 671.342 174.688 680.457 180.369C689.69 185.933 700.225 188.714 712.062 188.714C720.94 188.714 729.166 187.057 736.742 183.743C744.318 180.429 750.888 175.871 756.451 170.071C762.133 164.152 766.572 157.346 769.768 149.652C772.964 141.958 774.562 133.79 774.562 125.149C774.443 113.667 771.721 103.132 766.394 93.544C761.067 83.956 753.728 76.2618 744.377 70.4616C735.026 64.6615 724.491 61.7614 712.772 61.7614Z"/>
<path d="M1053.33 377.99C1022.79 377.872 996.508 370.355 974.491 355.44C952.592 340.526 935.724 318.923 923.887 290.632C912.168 262.341 906.368 228.31 906.487 188.537C906.487 148.883 912.346 115.088 924.065 87.152C935.902 59.2164 952.77 37.9688 974.668 23.4091C996.685 8.73107 1022.9 1.39205 1053.33 1.39205C1083.75 1.39205 1109.91 8.73107 1131.81 23.4091C1153.82 38.0871 1170.75 59.3939 1182.59 87.3295C1194.42 115.147 1200.28 148.883 1200.17 188.537C1200.17 228.428 1194.25 262.519 1182.41 290.81C1170.69 319.1 1153.88 340.703 1131.98 355.618C1110.08 370.533 1083.87 377.99 1053.33 377.99ZM1053.33 314.247C1074.16 314.247 1090.79 303.771 1103.22 282.82C1115.65 261.868 1121.8 230.44 1121.69 188.537C1121.69 160.956 1118.84 137.992 1113.16 119.645C1107.6 101.297 1099.67 87.5071 1089.37 78.2741C1079.19 69.0412 1067.18 64.4247 1053.33 64.4247C1032.61 64.4247 1016.04 74.7822 1003.61 95.4972C991.181 116.212 984.907 147.225 984.789 188.537C984.789 216.473 987.571 239.792 993.134 258.494C998.816 277.079 1006.81 291.046 1017.1 300.398C1027.4 309.631 1039.48 314.247 1053.33 314.247Z"/>
</mask>
<path d="M164.166 6.36364V370H87.2837V79.3395H85.1531L1.87891 131.541V63.3594L91.9002 6.36364H164.166Z" fill="white" fill-opacity="0.7"/>
<path d="M382.161 1.39205C400.864 1.39205 418.856 4.52888 436.138 10.8025C453.539 17.0762 469.046 27.0786 482.658 40.8097C496.389 54.5407 507.22 72.7699 515.151 95.4972C523.201 118.106 527.284 145.864 527.403 178.771C527.403 209.666 523.911 237.247 516.927 261.513C510.061 285.661 500.177 306.198 487.275 323.125C474.372 340.052 458.807 352.955 440.577 361.832C422.348 370.592 401.988 374.972 379.498 374.972C355.232 374.972 333.807 370.296 315.222 360.945C296.638 351.475 281.664 338.632 270.3 322.415C259.055 306.08 252.249 287.732 249.881 267.372H325.698C328.657 280.63 334.872 290.928 344.342 298.267C353.811 305.488 365.53 309.098 379.498 309.098C403.172 309.098 421.165 298.8 433.475 278.203C445.786 257.488 452 229.138 452.119 193.153H449.633C444.188 203.807 436.849 212.981 427.616 220.675C418.383 228.25 407.789 234.11 395.833 238.253C383.996 242.396 371.389 244.467 358.013 244.467C336.588 244.467 317.471 239.437 300.663 229.375C283.854 219.313 270.596 205.464 260.89 187.827C251.183 170.189 246.33 150.066 246.33 127.457C246.212 103.073 251.835 81.3518 263.198 62.294C274.562 43.2363 290.424 28.3215 310.783 17.5497C331.262 6.65957 355.054 1.27367 382.161 1.39205ZM382.694 61.7614C370.738 61.7614 360.085 64.6023 350.734 70.2841C341.501 75.9659 334.162 83.6009 328.717 93.1889C323.39 102.777 320.786 113.49 320.904 125.327C320.904 137.282 323.508 148.054 328.717 157.642C334.043 167.112 341.264 174.688 350.379 180.369C359.612 185.933 370.147 188.714 381.984 188.714C390.862 188.714 399.088 187.057 406.664 183.743C414.24 180.429 420.809 175.871 426.373 170.071C432.055 164.152 436.494 157.346 439.69 149.652C442.886 141.958 444.484 133.79 444.484 125.149C444.365 113.667 441.643 103.132 436.316 93.544C430.989 83.956 423.65 76.2618 414.299 70.4616C404.948 64.6615 394.413 61.7614 382.694 61.7614Z" fill="white" fill-opacity="0.7"/>
<path d="M712.239 1.39205C730.942 1.39205 748.934 4.52888 766.217 10.8025C783.617 17.0762 799.124 27.0786 812.737 40.8097C826.468 54.5407 837.299 72.7699 845.229 95.4972C853.279 118.106 857.362 145.864 857.481 178.771C857.481 209.666 853.989 237.247 847.005 261.513C840.139 285.661 830.255 306.198 817.353 323.125C804.451 340.052 788.885 352.955 770.656 361.832C752.426 370.592 732.067 374.972 709.576 374.972C685.31 374.972 663.885 370.296 645.3 360.945C626.716 351.475 611.742 338.632 600.379 322.415C589.133 306.08 582.327 287.732 579.96 267.372H655.776C658.736 280.63 664.95 290.928 674.42 298.267C683.889 305.488 695.608 309.098 709.576 309.098C733.25 309.098 751.243 298.8 763.553 278.203C775.864 257.488 782.078 229.138 782.197 193.153H779.711C774.266 203.807 766.927 212.981 757.694 220.675C748.461 228.25 737.867 234.11 725.911 238.253C714.074 242.396 701.468 244.467 688.092 244.467C666.666 244.467 647.549 239.437 630.741 229.375C613.932 219.313 600.674 205.464 590.968 187.827C581.262 170.189 576.408 150.066 576.408 127.457C576.29 103.073 581.913 81.3518 593.276 62.294C604.64 43.2363 620.502 28.3215 640.862 17.5497C661.34 6.65957 685.132 1.27367 712.239 1.39205ZM712.772 61.7614C700.817 61.7614 690.163 64.6023 680.812 70.2841C671.579 75.9659 664.24 83.6009 658.795 93.1889C653.468 102.777 650.864 113.49 650.982 125.327C650.982 137.282 653.586 148.054 658.795 157.642C664.121 167.112 671.342 174.688 680.457 180.369C689.69 185.933 700.225 188.714 712.062 188.714C720.94 188.714 729.166 187.057 736.742 183.743C744.318 180.429 750.888 175.871 756.451 170.071C762.133 164.152 766.572 157.346 769.768 149.652C772.964 141.958 774.562 133.79 774.562 125.149C774.443 113.667 771.721 103.132 766.394 93.544C761.067 83.956 753.728 76.2618 744.377 70.4616C735.026 64.6615 724.491 61.7614 712.772 61.7614Z" fill="white" fill-opacity="0.7"/>
<path d="M1053.33 377.99C1022.79 377.872 996.508 370.355 974.491 355.44C952.592 340.526 935.724 318.923 923.887 290.632C912.168 262.341 906.368 228.31 906.487 188.537C906.487 148.883 912.346 115.088 924.065 87.152C935.902 59.2164 952.77 37.9688 974.668 23.4091C996.685 8.73107 1022.9 1.39205 1053.33 1.39205C1083.75 1.39205 1109.91 8.73107 1131.81 23.4091C1153.82 38.0871 1170.75 59.3939 1182.59 87.3295C1194.42 115.147 1200.28 148.883 1200.17 188.537C1200.17 228.428 1194.25 262.519 1182.41 290.81C1170.69 319.1 1153.88 340.703 1131.98 355.618C1110.08 370.533 1083.87 377.99 1053.33 377.99ZM1053.33 314.247C1074.16 314.247 1090.79 303.771 1103.22 282.82C1115.65 261.868 1121.8 230.44 1121.69 188.537C1121.69 160.956 1118.84 137.992 1113.16 119.645C1107.6 101.297 1099.67 87.5071 1089.37 78.2741C1079.19 69.0412 1067.18 64.4247 1053.33 64.4247C1032.61 64.4247 1016.04 74.7822 1003.61 95.4972C991.181 116.212 984.907 147.225 984.789 188.537C984.789 216.473 987.571 239.792 993.134 258.494C998.816 277.079 1006.81 291.046 1017.1 300.398C1027.4 309.631 1039.48 314.247 1053.33 314.247Z" fill="white" fill-opacity="0.7"/>
<path d="M164.166 6.36364V370H87.2837V79.3395H85.1531L1.87891 131.541V63.3594L91.9002 6.36364H164.166Z" stroke="#9796A5" stroke-opacity="0.35" stroke-width="2" mask="url(#path-1-outside-1_220_72)"/>
<path d="M382.161 1.39205C400.864 1.39205 418.856 4.52888 436.138 10.8025C453.539 17.0762 469.046 27.0786 482.658 40.8097C496.389 54.5407 507.22 72.7699 515.151 95.4972C523.201 118.106 527.284 145.864 527.403 178.771C527.403 209.666 523.911 237.247 516.927 261.513C510.061 285.661 500.177 306.198 487.275 323.125C474.372 340.052 458.807 352.955 440.577 361.832C422.348 370.592 401.988 374.972 379.498 374.972C355.232 374.972 333.807 370.296 315.222 360.945C296.638 351.475 281.664 338.632 270.3 322.415C259.055 306.08 252.249 287.732 249.881 267.372H325.698C328.657 280.63 334.872 290.928 344.342 298.267C353.811 305.488 365.53 309.098 379.498 309.098C403.172 309.098 421.165 298.8 433.475 278.203C445.786 257.488 452 229.138 452.119 193.153H449.633C444.188 203.807 436.849 212.981 427.616 220.675C418.383 228.25 407.789 234.11 395.833 238.253C383.996 242.396 371.389 244.467 358.013 244.467C336.588 244.467 317.471 239.437 300.663 229.375C283.854 219.313 270.596 205.464 260.89 187.827C251.183 170.189 246.33 150.066 246.33 127.457C246.212 103.073 251.835 81.3518 263.198 62.294C274.562 43.2363 290.424 28.3215 310.783 17.5497C331.262 6.65957 355.054 1.27367 382.161 1.39205ZM382.694 61.7614C370.738 61.7614 360.085 64.6023 350.734 70.2841C341.501 75.9659 334.162 83.6009 328.717 93.1889C323.39 102.777 320.786 113.49 320.904 125.327C320.904 137.282 323.508 148.054 328.717 157.642C334.043 167.112 341.264 174.688 350.379 180.369C359.612 185.933 370.147 188.714 381.984 188.714C390.862 188.714 399.088 187.057 406.664 183.743C414.24 180.429 420.809 175.871 426.373 170.071C432.055 164.152 436.494 157.346 439.69 149.652C442.886 141.958 444.484 133.79 444.484 125.149C444.365 113.667 441.643 103.132 436.316 93.544C430.989 83.956 423.65 76.2618 414.299 70.4616C404.948 64.6615 394.413 61.7614 382.694 61.7614Z" stroke="#9796A5" stroke-opacity="0.35" stroke-width="2" mask="url(#path-1-outside-1_220_72)"/>
<path d="M712.239 1.39205C730.942 1.39205 748.934 4.52888 766.217 10.8025C783.617 17.0762 799.124 27.0786 812.737 40.8097C826.468 54.5407 837.299 72.7699 845.229 95.4972C853.279 118.106 857.362 145.864 857.481 178.771C857.481 209.666 853.989 237.247 847.005 261.513C840.139 285.661 830.255 306.198 817.353 323.125C804.451 340.052 788.885 352.955 770.656 361.832C752.426 370.592 732.067 374.972 709.576 374.972C685.31 374.972 663.885 370.296 645.3 360.945C626.716 351.475 611.742 338.632 600.379 322.415C589.133 306.08 582.327 287.732 579.96 267.372H655.776C658.736 280.63 664.95 290.928 674.42 298.267C683.889 305.488 695.608 309.098 709.576 309.098C733.25 309.098 751.243 298.8 763.553 278.203C775.864 257.488 782.078 229.138 782.197 193.153H779.711C774.266 203.807 766.927 212.981 757.694 220.675C748.461 228.25 737.867 234.11 725.911 238.253C714.074 242.396 701.468 244.467 688.092 244.467C666.666 244.467 647.549 239.437 630.741 229.375C613.932 219.313 600.674 205.464 590.968 187.827C581.262 170.189 576.408 150.066 576.408 127.457C576.29 103.073 581.913 81.3518 593.276 62.294C604.64 43.2363 620.502 28.3215 640.862 17.5497C661.34 6.65957 685.132 1.27367 712.239 1.39205ZM712.772 61.7614C700.817 61.7614 690.163 64.6023 680.812 70.2841C671.579 75.9659 664.24 83.6009 658.795 93.1889C653.468 102.777 650.864 113.49 650.982 125.327C650.982 137.282 653.586 148.054 658.795 157.642C664.121 167.112 671.342 174.688 680.457 180.369C689.69 185.933 700.225 188.714 712.062 188.714C720.94 188.714 729.166 187.057 736.742 183.743C744.318 180.429 750.888 175.871 756.451 170.071C762.133 164.152 766.572 157.346 769.768 149.652C772.964 141.958 774.562 133.79 774.562 125.149C774.443 113.667 771.721 103.132 766.394 93.544C761.067 83.956 753.728 76.2618 744.377 70.4616C735.026 64.6615 724.491 61.7614 712.772 61.7614Z" stroke="#9796A5" stroke-opacity="0.35" stroke-width="2" mask="url(#path-1-outside-1_220_72)"/>
<path d="M1053.33 377.99C1022.79 377.872 996.508 370.355 974.491 355.44C952.592 340.526 935.724 318.923 923.887 290.632C912.168 262.341 906.368 228.31 906.487 188.537C906.487 148.883 912.346 115.088 924.065 87.152C935.902 59.2164 952.77 37.9688 974.668 23.4091C996.685 8.73107 1022.9 1.39205 1053.33 1.39205C1083.75 1.39205 1109.91 8.73107 1131.81 23.4091C1153.82 38.0871 1170.75 59.3939 1182.59 87.3295C1194.42 115.147 1200.28 148.883 1200.17 188.537C1200.17 228.428 1194.25 262.519 1182.41 290.81C1170.69 319.1 1153.88 340.703 1131.98 355.618C1110.08 370.533 1083.87 377.99 1053.33 377.99ZM1053.33 314.247C1074.16 314.247 1090.79 303.771 1103.22 282.82C1115.65 261.868 1121.8 230.44 1121.69 188.537C1121.69 160.956 1118.84 137.992 1113.16 119.645C1107.6 101.297 1099.67 87.5071 1089.37 78.2741C1079.19 69.0412 1067.18 64.4247 1053.33 64.4247C1032.61 64.4247 1016.04 74.7822 1003.61 95.4972C991.181 116.212 984.907 147.225 984.789 188.537C984.789 216.473 987.571 239.792 993.134 258.494C998.816 277.079 1006.81 291.046 1017.1 300.398C1027.4 309.631 1039.48 314.247 1053.33 314.247Z" stroke="#9796A5" stroke-opacity="0.35" stroke-width="2" mask="url(#path-1-outside-1_220_72)"/>
</svg>
