<svg width="1070" height="376" viewBox="0 0 1070 376" fill="none" xmlns="http://www.w3.org/2000/svg">
<path d="M163.971 6.36364V370H87.0884V79.3395H84.9577L1.68359 131.541V63.3594L91.7049 6.36364H163.971Z" fill="white" fill-opacity="0.7"/>
<path d="M381.966 1.39205C400.669 1.39205 418.661 4.52888 435.943 10.8025C453.344 17.0762 468.85 27.0786 482.463 40.8097C496.194 54.5407 507.025 72.7699 514.956 95.4972C523.005 118.106 527.089 145.864 527.207 178.771C527.207 209.666 523.715 237.247 516.732 261.513C509.866 285.661 499.982 306.198 487.08 323.125C474.177 340.052 458.611 352.955 440.382 361.832C422.153 370.592 401.793 374.972 379.303 374.972C355.036 374.972 333.611 370.296 315.027 360.945C296.443 351.475 281.469 338.632 270.105 322.415C258.86 306.08 252.054 287.732 249.686 267.372H325.503C328.462 280.63 334.677 290.928 344.146 298.267C353.616 305.488 365.335 309.098 379.303 309.098C402.977 309.098 420.969 298.8 433.28 278.203C445.59 257.488 451.805 229.138 451.923 193.153H449.438C443.992 203.807 436.653 212.981 427.42 220.675C418.188 228.25 407.593 234.11 395.638 238.253C383.801 242.396 371.194 244.467 357.818 244.467C336.393 244.467 317.276 239.437 300.467 229.375C283.659 219.313 270.401 205.464 260.695 187.827C250.988 170.189 246.135 150.066 246.135 127.457C246.017 103.073 251.639 81.3518 263.003 62.294C274.366 43.2363 290.228 28.3215 310.588 17.5497C331.066 6.65957 354.859 1.27367 381.966 1.39205ZM382.499 61.7614C370.543 61.7614 359.89 64.6023 350.538 70.2841C341.305 75.9659 333.966 83.6009 328.521 93.1889C323.195 102.777 320.59 113.49 320.709 125.327C320.709 137.282 323.313 148.054 328.521 157.642C333.848 167.112 341.069 174.688 350.183 180.369C359.416 185.933 369.951 188.714 381.788 188.714C390.666 188.714 398.893 187.057 406.469 183.743C414.045 180.429 420.614 175.871 426.178 170.071C431.859 164.152 436.298 157.346 439.494 149.652C442.69 141.958 444.288 133.79 444.288 125.149C444.17 113.667 441.447 103.132 436.121 93.544C430.794 83.956 423.455 76.2618 414.104 70.4616C404.752 64.6615 394.217 61.7614 382.499 61.7614Z" fill="white" fill-opacity="0.7"/>
<path d="M712.044 1.39205C730.747 1.39205 748.739 4.52888 766.021 10.8025C783.422 17.0762 798.929 27.0786 812.541 40.8097C826.272 54.5407 837.103 72.7699 845.034 95.4972C853.083 118.106 857.167 145.864 857.286 178.771C857.286 209.666 853.794 237.247 846.81 261.513C839.944 285.661 830.06 306.198 817.158 323.125C804.255 340.052 788.689 352.955 770.46 361.832C752.231 370.592 731.871 374.972 709.381 374.972C685.115 374.972 663.689 370.296 645.105 360.945C626.521 351.475 611.547 338.632 600.183 322.415C588.938 306.08 582.132 287.732 579.764 267.372H655.581C658.54 280.63 664.755 290.928 674.224 298.267C683.694 305.488 695.413 309.098 709.381 309.098C733.055 309.098 751.047 298.8 763.358 278.203C775.669 257.488 781.883 229.138 782.001 193.153H779.516C774.071 203.807 766.732 212.981 757.499 220.675C748.266 228.25 737.671 234.11 725.716 238.253C713.879 242.396 701.272 244.467 687.896 244.467C666.471 244.467 647.354 239.437 630.545 229.375C613.737 219.313 600.479 205.464 590.773 187.827C581.066 170.189 576.213 150.066 576.213 127.457C576.095 103.073 581.717 81.3518 593.081 62.294C604.445 43.2363 620.306 28.3215 640.666 17.5497C661.144 6.65957 684.937 1.27367 712.044 1.39205ZM712.577 61.7614C700.621 61.7614 689.968 64.6023 680.616 70.2841C671.383 75.9659 664.044 83.6009 658.599 93.1889C653.273 102.777 650.669 113.49 650.787 125.327C650.787 137.282 653.391 148.054 658.599 157.642C663.926 167.112 671.147 174.688 680.261 180.369C689.494 185.933 700.029 188.714 711.866 188.714C720.744 188.714 728.971 187.057 736.547 183.743C744.123 180.429 750.692 175.871 756.256 170.071C761.937 164.152 766.376 157.346 769.572 149.652C772.768 141.958 774.366 133.79 774.366 125.149C774.248 113.667 771.526 103.132 766.199 93.544C760.872 83.956 753.533 76.2618 744.182 70.4616C734.83 64.6615 724.295 61.7614 712.577 61.7614Z" fill="white" fill-opacity="0.7"/>
<path d="M1068.76 6.36364V370H991.874V79.3395H989.743L906.469 131.541V63.3594L996.49 6.36364H1068.76Z" fill="white" fill-opacity="0.7"/>
<path d="M451.421 193.653C451.247 229.351 445.041 257.434 432.85 277.948C420.628 298.395 402.798 308.598 379.303 308.598C365.425 308.598 353.818 305.013 344.449 297.869C335.086 290.611 328.928 280.422 325.991 267.263L325.904 266.872H325.503H249.686H249.125L249.189 267.43C251.566 287.868 258.4 306.294 269.693 322.698L269.696 322.702C281.109 338.989 296.147 351.885 314.8 361.39L314.802 361.391C333.467 370.783 354.971 375.472 379.303 375.472C401.86 375.472 422.295 371.078 440.599 362.283L440.601 362.282C458.904 353.368 474.53 340.414 487.477 323.428C500.424 306.443 510.333 285.847 517.212 261.65M451.421 193.653L395.803 238.725C395.802 238.725 395.802 238.725 395.802 238.725C383.908 242.888 371.246 244.967 357.818 244.967C336.311 244.967 317.104 239.916 300.211 229.804C283.324 219.696 270.004 205.78 260.257 188.068C250.505 170.349 245.635 150.141 245.635 127.46C245.516 102.994 251.159 81.1815 262.573 62.038C273.986 42.8987 289.916 27.9212 310.353 17.1083C330.916 6.17339 354.792 0.773518 381.967 0.892046C400.726 0.892167 418.776 4.03881 436.114 10.3326M451.421 193.653H449.743H451.421ZM517.212 261.65C517.212 261.65 517.212 261.651 517.212 261.651L516.732 261.513L517.212 261.65ZM517.212 261.65C524.212 237.33 527.707 209.702 527.707 178.771V178.77C527.589 145.827 523.501 118.01 515.428 95.3324M515.428 95.3324C507.478 72.5512 496.612 54.2523 482.817 40.4569M515.428 95.3324C515.428 95.3314 515.427 95.3305 515.427 95.3295L514.956 95.4972M515.428 95.3324L514.956 95.4972M482.817 40.4569C469.155 26.6762 453.587 16.6325 436.114 10.3326M482.817 40.4569C482.817 40.4566 482.817 40.4564 482.817 40.4561L482.463 40.8097M482.817 40.4569C482.818 40.4571 482.818 40.4574 482.818 40.4576L482.463 40.8097M436.114 10.3326C436.113 10.3324 436.113 10.3323 436.113 10.3322L435.943 10.8025M436.114 10.3326L435.943 10.8025M435.943 10.8025C453.344 17.0762 468.85 27.0786 482.463 40.8097M435.943 10.8025L527.207 178.771C527.089 145.864 523.005 118.106 514.956 95.4972M482.463 40.8097C496.194 54.5407 507.025 72.7699 514.956 95.4972M315.027 360.945C333.611 370.296 355.036 374.972 379.303 374.972C401.793 374.972 422.153 370.592 440.382 361.832L315.027 360.945ZM315.027 360.945C296.443 351.475 281.469 338.632 270.105 322.415L315.027 360.945ZM328.521 93.1889C323.195 102.777 320.59 113.49 320.709 125.327C320.709 137.282 323.313 148.054 328.521 157.642M328.521 93.1889L328.956 93.4358C328.956 93.4354 328.957 93.4349 328.957 93.4344M328.521 93.1889C333.966 83.6009 341.305 75.9659 350.538 70.2841M328.521 93.1889L328.958 93.4317C328.958 93.4327 328.957 93.4335 328.957 93.4344M328.957 93.4344C323.677 102.94 321.091 113.565 321.209 125.322L321.209 125.327C321.209 137.206 323.795 147.893 328.959 157.4M328.957 93.4344C334.361 83.9196 341.64 76.3476 350.799 70.7111M328.959 157.4C328.958 157.399 328.958 157.398 328.957 157.397L328.521 157.642M328.959 157.4C328.959 157.401 328.96 157.402 328.961 157.403L328.521 157.642M328.959 157.4C334.244 166.794 341.404 174.306 350.444 179.942M328.521 157.642C333.848 167.112 341.069 174.688 350.183 180.369M350.183 180.369L350.441 179.941C350.442 179.942 350.443 179.942 350.444 179.942M350.183 180.369C359.416 185.933 369.951 188.714 381.788 188.714C390.666 188.714 398.893 187.057 406.469 183.743C414.045 180.429 420.614 175.871 426.178 170.071M350.183 180.369L350.448 179.945C350.446 179.944 350.445 179.943 350.444 179.942M350.444 179.942C359.591 185.453 370.034 188.214 381.788 188.214C390.602 188.214 398.76 186.57 406.268 183.285C413.786 179.996 420.3 175.476 425.817 169.725L426.178 170.071M426.178 170.071L425.817 169.725C431.455 163.852 435.86 157.098 439.033 149.46C442.202 141.83 443.788 133.728 443.788 125.151M426.178 170.071C431.859 164.152 436.298 157.346 439.494 149.652C442.69 141.958 444.288 133.79 444.288 125.149M443.788 125.151C443.67 113.75 440.968 103.298 435.684 93.7869C430.398 84.2735 423.119 76.642 413.84 70.8865C404.573 65.1387 394.13 62.2614 382.499 62.2614C370.626 62.2614 360.064 65.0814 350.799 70.7111M443.788 125.151C443.788 125.151 443.788 125.15 443.788 125.149H444.288M443.788 125.151C443.788 125.152 443.788 125.153 443.788 125.154L444.288 125.149M444.288 125.149C444.17 113.667 441.447 103.132 436.121 93.544C430.794 83.956 423.455 76.2618 414.104 70.4616C404.752 64.6615 394.217 61.7614 382.499 61.7614C370.543 61.7614 359.89 64.6023 350.538 70.2841M350.538 70.2841L350.8 70.7099C350.8 70.7103 350.799 70.7107 350.799 70.7111M350.538 70.2841L350.798 70.7114C350.798 70.7113 350.798 70.7112 350.799 70.7111M164.471 6.36364V5.86364H163.971H91.7049H91.5599L91.4374 5.94119L1.41613 62.9369L1.18359 63.0842V63.3594V131.541V132.445L1.94916 131.965L85.1015 79.8395H86.5884V370V370.5H87.0884H163.971H164.471V370V6.36364ZM712.045 0.892046C684.87 0.77352 660.994 6.17322 640.432 17.1078C619.995 27.9207 604.064 42.8984 592.652 62.038C581.237 81.1815 575.594 102.994 575.713 127.46C575.713 150.141 580.583 170.349 590.335 188.068C600.083 205.78 613.402 219.696 630.289 229.804C647.182 239.916 666.389 244.967 687.896 244.967C701.324 244.967 713.986 242.888 725.88 238.725C737.888 234.564 748.534 228.677 757.816 221.061L757.819 221.059C767.024 213.387 774.359 204.251 779.821 193.653H781.499C781.325 229.351 775.119 257.433 762.929 277.947C750.707 298.395 732.876 308.598 709.381 308.598C695.503 308.598 683.896 305.013 674.528 297.869C665.164 290.611 659.006 280.422 656.069 267.263L655.982 266.872H655.581H579.764H579.203L579.268 267.43C581.644 287.868 588.478 306.294 599.771 322.698L599.774 322.702C611.187 338.989 626.225 351.885 644.878 361.39L644.88 361.391C663.545 370.783 685.049 375.472 709.381 375.472C731.938 375.472 752.373 371.078 770.677 362.283L770.679 362.282C788.982 353.368 804.608 340.414 817.555 323.428C830.502 306.443 840.411 285.847 847.291 261.65L712.045 0.892046ZM651.287 125.327V125.322C651.169 113.564 653.755 102.938 659.036 93.4317C664.44 83.9182 671.719 76.3474 680.876 70.7114C690.142 65.0815 700.704 62.2614 712.577 62.2614C724.209 62.2614 734.651 65.1387 743.918 70.8865C753.197 76.642 760.477 84.2735 765.762 93.7869C771.046 103.299 773.749 113.751 773.866 125.154C773.866 133.73 772.28 141.831 769.111 149.46C765.938 157.098 761.533 163.852 755.895 169.725L756.256 170.071L755.895 169.725C750.378 175.476 743.864 179.996 736.346 183.285C728.838 186.57 720.68 188.214 711.866 188.214C700.112 188.214 689.669 185.454 680.523 179.943C671.483 174.307 664.323 166.796 659.038 157.401C653.874 147.894 651.287 137.206 651.287 125.327ZM1069.26 6.36364V5.86364H1068.76H996.49H996.345L996.223 5.94119L906.201 62.9369L905.969 63.0842V63.3594V131.541V132.445L906.734 131.965L989.887 79.8395H991.374V370V370.5H991.874H1068.76H1069.26V370V6.36364Z" stroke="#9796A5" stroke-opacity="0.35"/>
</svg>
