<svg width="1171" height="376" viewBox="0 0 1171 376" fill="none" xmlns="http://www.w3.org/2000/svg">
<mask id="path-1-outside-1_220_70" maskUnits="userSpaceOnUse" x="0.527344" y="0.390137" width="1171" height="376" fill="black">
<rect fill="white" x="0.527344" y="0.390137" width="1171" height="376"/>
<path d="M163.814 6.36364V370H86.9322V79.3395H84.8015L1.52734 131.541V63.3594L91.5487 6.36364H163.814Z"/>
<path d="M381.81 1.39205C400.512 1.39205 418.505 4.52888 435.787 10.8025C453.187 17.0762 468.694 27.0786 482.307 40.8097C496.038 54.5407 506.869 72.7699 514.8 95.4972C522.849 118.106 526.933 145.864 527.051 178.771C527.051 209.666 523.559 237.247 516.575 261.513C509.71 285.661 499.826 306.198 486.923 323.125C474.021 340.052 458.455 352.955 440.226 361.832C421.997 370.592 401.637 374.972 379.146 374.972C354.88 374.972 333.455 370.296 314.871 360.945C296.286 351.475 281.312 338.632 269.949 322.415C258.704 306.08 251.897 287.732 249.53 267.372H325.347C328.306 280.63 334.52 290.928 343.99 298.267C353.46 305.488 365.178 309.098 379.146 309.098C402.821 309.098 420.813 298.8 433.124 278.203C445.434 257.488 451.649 229.138 451.767 193.153H449.281C443.836 203.807 436.497 212.981 427.264 220.675C418.031 228.25 407.437 234.11 395.482 238.253C383.644 242.396 371.038 244.467 357.662 244.467C336.237 244.467 317.12 239.437 300.311 229.375C283.502 219.313 270.245 205.464 260.538 187.827C250.832 170.189 245.979 150.066 245.979 127.457C245.86 103.073 251.483 81.3518 262.847 62.294C274.21 43.2363 290.072 28.3215 310.432 17.5497C330.91 6.65957 354.703 1.27367 381.81 1.39205ZM382.342 61.7614C370.387 61.7614 359.733 64.6023 350.382 70.2841C341.149 75.9659 333.81 83.6009 328.365 93.1889C323.038 102.777 320.434 113.49 320.553 125.327C320.553 137.282 323.157 148.054 328.365 157.642C333.692 167.112 340.912 174.688 350.027 180.369C359.26 185.933 369.795 188.714 381.632 188.714C390.51 188.714 398.737 187.057 406.312 183.743C413.888 180.429 420.458 175.871 426.021 170.071C431.703 164.152 436.142 157.346 439.338 149.652C442.534 141.958 444.132 133.79 444.132 125.149C444.014 113.667 441.291 103.132 435.965 93.544C430.638 83.956 423.299 76.2618 413.947 70.4616C404.596 64.6615 394.061 61.7614 382.342 61.7614Z"/>
<path d="M711.888 1.39205C730.59 1.39205 748.583 4.52888 765.865 10.8025C783.266 17.0762 798.772 27.0786 812.385 40.8097C826.116 54.5407 836.947 72.7699 844.878 95.4972C852.927 118.106 857.011 145.864 857.129 178.771C857.129 209.666 853.637 237.247 846.653 261.513C839.788 285.661 829.904 306.198 817.001 323.125C804.099 340.052 788.533 352.955 770.304 361.832C752.075 370.592 731.715 374.972 709.224 374.972C684.958 374.972 663.533 370.296 644.949 360.945C626.365 351.475 611.391 338.632 600.027 322.415C588.782 306.08 581.975 287.732 579.608 267.372H655.425C658.384 280.63 664.598 290.928 674.068 298.267C683.538 305.488 695.257 309.098 709.224 309.098C732.899 309.098 750.891 298.8 763.202 278.203C775.512 257.488 781.727 229.138 781.845 193.153H779.359C773.914 203.807 766.575 212.981 757.342 220.675C748.109 228.25 737.515 234.11 725.56 238.253C713.723 242.396 701.116 244.467 687.74 244.467C666.315 244.467 647.198 239.437 630.389 229.375C613.581 219.313 600.323 205.464 590.616 187.827C580.91 170.189 576.057 150.066 576.057 127.457C575.938 103.073 581.561 81.3518 592.925 62.294C604.288 43.2363 620.15 28.3215 640.51 17.5497C660.988 6.65957 684.781 1.27367 711.888 1.39205ZM712.42 61.7614C700.465 61.7614 689.812 64.6023 680.46 70.2841C671.227 75.9659 663.888 83.6009 658.443 93.1889C653.116 102.777 650.512 113.49 650.631 125.327C650.631 137.282 653.235 148.054 658.443 157.642C663.77 167.112 670.991 174.688 680.105 180.369C689.338 185.933 699.873 188.714 711.71 188.714C720.588 188.714 728.815 187.057 736.391 183.743C743.966 180.429 750.536 175.871 756.099 170.071C761.781 164.152 766.22 157.346 769.416 149.652C772.612 141.958 774.21 133.79 774.21 125.149C774.092 113.667 771.369 103.132 766.043 93.544C760.716 83.956 753.377 76.2618 744.026 70.4616C734.674 64.6615 724.139 61.7614 712.42 61.7614Z"/>
<path d="M910.396 370V314.602L1039.84 194.751C1050.84 184.098 1060.08 174.51 1067.53 165.987C1075.11 157.464 1080.85 149.119 1084.76 140.952C1088.66 132.666 1090.62 123.729 1090.62 114.141C1090.62 103.487 1088.19 94.3134 1083.34 86.6193C1078.48 78.8068 1071.85 72.8291 1063.45 68.6861C1055.05 64.4247 1045.52 62.294 1034.86 62.294C1023.74 62.294 1014.03 64.5431 1005.74 69.0412C997.458 73.5393 991.066 79.9905 986.568 88.3949C982.07 96.7992 979.821 106.802 979.821 118.402H906.845C906.845 94.6094 912.231 73.9536 923.003 56.4347C933.775 38.9157 948.867 25.3622 968.28 15.7741C987.693 6.18608 1010.06 1.39205 1035.4 1.39205C1061.44 1.39205 1084.11 6.00853 1103.4 15.2415C1122.81 24.3561 1137.91 37.0218 1148.68 53.2386C1159.45 69.4555 1164.84 88.0398 1164.84 108.991C1164.84 122.723 1162.11 136.276 1156.67 149.652C1151.34 163.028 1141.81 177.884 1128.08 194.219C1114.35 210.436 1095 229.908 1070.02 252.635L1016.93 304.659V307.145H1169.63V370H910.396Z"/>
</mask>
<path d="M163.814 6.36364V370H86.9322V79.3395H84.8015L1.52734 131.541V63.3594L91.5487 6.36364H163.814Z" fill="white" fill-opacity="0.7"/>
<path d="M381.81 1.39205C400.512 1.39205 418.505 4.52888 435.787 10.8025C453.187 17.0762 468.694 27.0786 482.307 40.8097C496.038 54.5407 506.869 72.7699 514.8 95.4972C522.849 118.106 526.933 145.864 527.051 178.771C527.051 209.666 523.559 237.247 516.575 261.513C509.71 285.661 499.826 306.198 486.923 323.125C474.021 340.052 458.455 352.955 440.226 361.832C421.997 370.592 401.637 374.972 379.146 374.972C354.88 374.972 333.455 370.296 314.871 360.945C296.286 351.475 281.312 338.632 269.949 322.415C258.704 306.08 251.897 287.732 249.53 267.372H325.347C328.306 280.63 334.52 290.928 343.99 298.267C353.46 305.488 365.178 309.098 379.146 309.098C402.821 309.098 420.813 298.8 433.124 278.203C445.434 257.488 451.649 229.138 451.767 193.153H449.281C443.836 203.807 436.497 212.981 427.264 220.675C418.031 228.25 407.437 234.11 395.482 238.253C383.644 242.396 371.038 244.467 357.662 244.467C336.237 244.467 317.12 239.437 300.311 229.375C283.502 219.313 270.245 205.464 260.538 187.827C250.832 170.189 245.979 150.066 245.979 127.457C245.86 103.073 251.483 81.3518 262.847 62.294C274.21 43.2363 290.072 28.3215 310.432 17.5497C330.91 6.65957 354.703 1.27367 381.81 1.39205ZM382.342 61.7614C370.387 61.7614 359.733 64.6023 350.382 70.2841C341.149 75.9659 333.81 83.6009 328.365 93.1889C323.038 102.777 320.434 113.49 320.553 125.327C320.553 137.282 323.157 148.054 328.365 157.642C333.692 167.112 340.912 174.688 350.027 180.369C359.26 185.933 369.795 188.714 381.632 188.714C390.51 188.714 398.737 187.057 406.312 183.743C413.888 180.429 420.458 175.871 426.021 170.071C431.703 164.152 436.142 157.346 439.338 149.652C442.534 141.958 444.132 133.79 444.132 125.149C444.014 113.667 441.291 103.132 435.965 93.544C430.638 83.956 423.299 76.2618 413.947 70.4616C404.596 64.6615 394.061 61.7614 382.342 61.7614Z" fill="white" fill-opacity="0.7"/>
<path d="M711.888 1.39205C730.59 1.39205 748.583 4.52888 765.865 10.8025C783.266 17.0762 798.772 27.0786 812.385 40.8097C826.116 54.5407 836.947 72.7699 844.878 95.4972C852.927 118.106 857.011 145.864 857.129 178.771C857.129 209.666 853.637 237.247 846.653 261.513C839.788 285.661 829.904 306.198 817.001 323.125C804.099 340.052 788.533 352.955 770.304 361.832C752.075 370.592 731.715 374.972 709.224 374.972C684.958 374.972 663.533 370.296 644.949 360.945C626.365 351.475 611.391 338.632 600.027 322.415C588.782 306.08 581.975 287.732 579.608 267.372H655.425C658.384 280.63 664.598 290.928 674.068 298.267C683.538 305.488 695.257 309.098 709.224 309.098C732.899 309.098 750.891 298.8 763.202 278.203C775.512 257.488 781.727 229.138 781.845 193.153H779.359C773.914 203.807 766.575 212.981 757.342 220.675C748.109 228.25 737.515 234.11 725.56 238.253C713.723 242.396 701.116 244.467 687.74 244.467C666.315 244.467 647.198 239.437 630.389 229.375C613.581 219.313 600.323 205.464 590.616 187.827C580.91 170.189 576.057 150.066 576.057 127.457C575.938 103.073 581.561 81.3518 592.925 62.294C604.288 43.2363 620.15 28.3215 640.51 17.5497C660.988 6.65957 684.781 1.27367 711.888 1.39205ZM712.42 61.7614C700.465 61.7614 689.812 64.6023 680.46 70.2841C671.227 75.9659 663.888 83.6009 658.443 93.1889C653.116 102.777 650.512 113.49 650.631 125.327C650.631 137.282 653.235 148.054 658.443 157.642C663.77 167.112 670.991 174.688 680.105 180.369C689.338 185.933 699.873 188.714 711.71 188.714C720.588 188.714 728.815 187.057 736.391 183.743C743.966 180.429 750.536 175.871 756.099 170.071C761.781 164.152 766.22 157.346 769.416 149.652C772.612 141.958 774.21 133.79 774.21 125.149C774.092 113.667 771.369 103.132 766.043 93.544C760.716 83.956 753.377 76.2618 744.026 70.4616C734.674 64.6615 724.139 61.7614 712.42 61.7614Z" fill="white" fill-opacity="0.7"/>
<path d="M910.396 370V314.602L1039.84 194.751C1050.84 184.098 1060.08 174.51 1067.53 165.987C1075.11 157.464 1080.85 149.119 1084.76 140.952C1088.66 132.666 1090.62 123.729 1090.62 114.141C1090.62 103.487 1088.19 94.3134 1083.34 86.6193C1078.48 78.8068 1071.85 72.8291 1063.45 68.6861C1055.05 64.4247 1045.52 62.294 1034.86 62.294C1023.74 62.294 1014.03 64.5431 1005.74 69.0412C997.458 73.5393 991.066 79.9905 986.568 88.3949C982.07 96.7992 979.821 106.802 979.821 118.402H906.845C906.845 94.6094 912.231 73.9536 923.003 56.4347C933.775 38.9157 948.867 25.3622 968.28 15.7741C987.693 6.18608 1010.06 1.39205 1035.4 1.39205C1061.44 1.39205 1084.11 6.00853 1103.4 15.2415C1122.81 24.3561 1137.91 37.0218 1148.68 53.2386C1159.45 69.4555 1164.84 88.0398 1164.84 108.991C1164.84 122.723 1162.11 136.276 1156.67 149.652C1151.34 163.028 1141.81 177.884 1128.08 194.219C1114.35 210.436 1095 229.908 1070.02 252.635L1016.93 304.659V307.145H1169.63V370H910.396Z" fill="white" fill-opacity="0.7"/>
<path d="M163.814 6.36364V370H86.9322V79.3395H84.8015L1.52734 131.541V63.3594L91.5487 6.36364H163.814Z" stroke="#9796A5" stroke-opacity="0.35" stroke-width="2" mask="url(#path-1-outside-1_220_70)"/>
<path d="M381.81 1.39205C400.512 1.39205 418.505 4.52888 435.787 10.8025C453.187 17.0762 468.694 27.0786 482.307 40.8097C496.038 54.5407 506.869 72.7699 514.8 95.4972C522.849 118.106 526.933 145.864 527.051 178.771C527.051 209.666 523.559 237.247 516.575 261.513C509.71 285.661 499.826 306.198 486.923 323.125C474.021 340.052 458.455 352.955 440.226 361.832C421.997 370.592 401.637 374.972 379.146 374.972C354.88 374.972 333.455 370.296 314.871 360.945C296.286 351.475 281.312 338.632 269.949 322.415C258.704 306.08 251.897 287.732 249.53 267.372H325.347C328.306 280.63 334.52 290.928 343.99 298.267C353.46 305.488 365.178 309.098 379.146 309.098C402.821 309.098 420.813 298.8 433.124 278.203C445.434 257.488 451.649 229.138 451.767 193.153H449.281C443.836 203.807 436.497 212.981 427.264 220.675C418.031 228.25 407.437 234.11 395.482 238.253C383.644 242.396 371.038 244.467 357.662 244.467C336.237 244.467 317.12 239.437 300.311 229.375C283.502 219.313 270.245 205.464 260.538 187.827C250.832 170.189 245.979 150.066 245.979 127.457C245.86 103.073 251.483 81.3518 262.847 62.294C274.21 43.2363 290.072 28.3215 310.432 17.5497C330.91 6.65957 354.703 1.27367 381.81 1.39205ZM382.342 61.7614C370.387 61.7614 359.733 64.6023 350.382 70.2841C341.149 75.9659 333.81 83.6009 328.365 93.1889C323.038 102.777 320.434 113.49 320.553 125.327C320.553 137.282 323.157 148.054 328.365 157.642C333.692 167.112 340.912 174.688 350.027 180.369C359.26 185.933 369.795 188.714 381.632 188.714C390.51 188.714 398.737 187.057 406.312 183.743C413.888 180.429 420.458 175.871 426.021 170.071C431.703 164.152 436.142 157.346 439.338 149.652C442.534 141.958 444.132 133.79 444.132 125.149C444.014 113.667 441.291 103.132 435.965 93.544C430.638 83.956 423.299 76.2618 413.947 70.4616C404.596 64.6615 394.061 61.7614 382.342 61.7614Z" stroke="#9796A5" stroke-opacity="0.35" stroke-width="2" mask="url(#path-1-outside-1_220_70)"/>
<path d="M711.888 1.39205C730.59 1.39205 748.583 4.52888 765.865 10.8025C783.266 17.0762 798.772 27.0786 812.385 40.8097C826.116 54.5407 836.947 72.7699 844.878 95.4972C852.927 118.106 857.011 145.864 857.129 178.771C857.129 209.666 853.637 237.247 846.653 261.513C839.788 285.661 829.904 306.198 817.001 323.125C804.099 340.052 788.533 352.955 770.304 361.832C752.075 370.592 731.715 374.972 709.224 374.972C684.958 374.972 663.533 370.296 644.949 360.945C626.365 351.475 611.391 338.632 600.027 322.415C588.782 306.08 581.975 287.732 579.608 267.372H655.425C658.384 280.63 664.598 290.928 674.068 298.267C683.538 305.488 695.257 309.098 709.224 309.098C732.899 309.098 750.891 298.8 763.202 278.203C775.512 257.488 781.727 229.138 781.845 193.153H779.359C773.914 203.807 766.575 212.981 757.342 220.675C748.109 228.25 737.515 234.11 725.56 238.253C713.723 242.396 701.116 244.467 687.74 244.467C666.315 244.467 647.198 239.437 630.389 229.375C613.581 219.313 600.323 205.464 590.616 187.827C580.91 170.189 576.057 150.066 576.057 127.457C575.938 103.073 581.561 81.3518 592.925 62.294C604.288 43.2363 620.15 28.3215 640.51 17.5497C660.988 6.65957 684.781 1.27367 711.888 1.39205ZM712.42 61.7614C700.465 61.7614 689.812 64.6023 680.46 70.2841C671.227 75.9659 663.888 83.6009 658.443 93.1889C653.116 102.777 650.512 113.49 650.631 125.327C650.631 137.282 653.235 148.054 658.443 157.642C663.77 167.112 670.991 174.688 680.105 180.369C689.338 185.933 699.873 188.714 711.71 188.714C720.588 188.714 728.815 187.057 736.391 183.743C743.966 180.429 750.536 175.871 756.099 170.071C761.781 164.152 766.22 157.346 769.416 149.652C772.612 141.958 774.21 133.79 774.21 125.149C774.092 113.667 771.369 103.132 766.043 93.544C760.716 83.956 753.377 76.2618 744.026 70.4616C734.674 64.6615 724.139 61.7614 712.42 61.7614Z" stroke="#9796A5" stroke-opacity="0.35" stroke-width="2" mask="url(#path-1-outside-1_220_70)"/>
<path d="M910.396 370V314.602L1039.84 194.751C1050.84 184.098 1060.08 174.51 1067.53 165.987C1075.11 157.464 1080.85 149.119 1084.76 140.952C1088.66 132.666 1090.62 123.729 1090.62 114.141C1090.62 103.487 1088.19 94.3134 1083.34 86.6193C1078.48 78.8068 1071.85 72.8291 1063.45 68.6861C1055.05 64.4247 1045.52 62.294 1034.86 62.294C1023.74 62.294 1014.03 64.5431 1005.74 69.0412C997.458 73.5393 991.066 79.9905 986.568 88.3949C982.07 96.7992 979.821 106.802 979.821 118.402H906.845C906.845 94.6094 912.231 73.9536 923.003 56.4347C933.775 38.9157 948.867 25.3622 968.28 15.7741C987.693 6.18608 1010.06 1.39205 1035.4 1.39205C1061.44 1.39205 1084.11 6.00853 1103.4 15.2415C1122.81 24.3561 1137.91 37.0218 1148.68 53.2386C1159.45 69.4555 1164.84 88.0398 1164.84 108.991C1164.84 122.723 1162.11 136.276 1156.67 149.652C1151.34 163.028 1141.81 177.884 1128.08 194.219C1114.35 210.436 1095 229.908 1070.02 252.635L1016.93 304.659V307.145H1169.63V370H910.396Z" stroke="#9796A5" stroke-opacity="0.35" stroke-width="2" mask="url(#path-1-outside-1_220_70)"/>
</svg>
