<svg width="1186" height="376" viewBox="0 0 1186 376" fill="none" xmlns="http://www.w3.org/2000/svg">
<mask id="path-1-outside-1_218_36" maskUnits="userSpaceOnUse" x="0.203125" y="0.390137" width="1186" height="376" fill="black">
<rect fill="white" x="0.203125" y="0.390137" width="1186" height="376"/>
<path d="M163.49 6.36364V370H86.608V79.3395H84.4773L1.20312 131.541V63.3594L91.2244 6.36364H163.49Z"/>
<path d="M381.485 1.39205C400.188 1.39205 418.181 4.52888 435.463 10.8025C452.863 17.0762 468.37 27.0786 481.983 40.8097C495.714 54.5407 506.545 72.7699 514.476 95.4972C522.525 118.106 526.609 145.864 526.727 178.771C526.727 209.666 523.235 237.247 516.251 261.513C509.386 285.661 499.502 306.198 486.599 323.125C473.697 340.052 458.131 352.955 439.902 361.832C421.672 370.592 401.313 374.972 378.822 374.972C354.556 374.972 333.131 370.296 314.547 360.945C295.962 351.475 280.988 338.632 269.625 322.415C258.379 306.08 251.573 287.732 249.206 267.372H325.022C327.982 280.63 334.196 290.928 343.666 298.267C353.136 305.488 364.854 309.098 378.822 309.098C402.496 309.098 420.489 298.8 432.799 278.203C445.11 257.488 451.324 229.138 451.443 193.153H448.957C443.512 203.807 436.173 212.981 426.94 220.675C417.707 228.25 407.113 234.11 395.157 238.253C383.32 242.396 370.714 244.467 357.338 244.467C335.913 244.467 316.796 239.437 299.987 229.375C283.178 219.313 269.921 205.464 260.214 187.827C250.508 170.189 245.654 150.066 245.654 127.457C245.536 103.073 251.159 81.3518 262.522 62.294C273.886 43.2363 289.748 28.3215 310.108 17.5497C330.586 6.65957 354.378 1.27367 381.485 1.39205ZM382.018 61.7614C370.063 61.7614 359.409 64.6023 350.058 70.2841C340.825 75.9659 333.486 83.6009 328.041 93.1889C322.714 102.777 320.11 113.49 320.228 125.327C320.228 137.282 322.832 148.054 328.041 157.642C333.368 167.112 340.588 174.688 349.703 180.369C358.936 185.933 369.471 188.714 381.308 188.714C390.186 188.714 398.413 187.057 405.988 183.743C413.564 180.429 420.134 175.871 425.697 170.071C431.379 164.152 435.818 157.346 439.014 149.652C442.21 141.958 443.808 133.79 443.808 125.149C443.69 113.667 440.967 103.132 435.64 93.544C430.314 83.956 422.975 76.2618 413.623 70.4616C404.272 64.6615 393.737 61.7614 382.018 61.7614Z"/>
<path d="M711.564 1.39205C730.266 1.39205 748.259 4.52888 765.541 10.8025C782.941 17.0762 798.448 27.0786 812.061 40.8097C825.792 54.5407 836.623 72.7699 844.554 95.4972C852.603 118.106 856.687 145.864 856.805 178.771C856.805 209.666 853.313 237.247 846.329 261.513C839.464 285.661 829.58 306.198 816.677 323.125C803.775 340.052 788.209 352.955 769.98 361.832C751.751 370.592 731.391 374.972 708.9 374.972C684.634 374.972 663.209 370.296 644.625 360.945C626.04 351.475 611.066 338.632 599.703 322.415C588.457 306.08 581.651 287.732 579.284 267.372H655.101C658.06 280.63 664.274 290.928 673.744 298.267C683.214 305.488 694.932 309.098 708.9 309.098C732.574 309.098 750.567 298.8 762.878 278.203C775.188 257.488 781.403 229.138 781.521 193.153H779.035C773.59 203.807 766.251 212.981 757.018 220.675C747.785 228.25 737.191 234.11 725.235 238.253C713.398 242.396 700.792 244.467 687.416 244.467C665.991 244.467 646.874 239.437 630.065 229.375C613.256 219.313 599.999 205.464 590.292 187.827C580.586 170.189 575.733 150.066 575.733 127.457C575.614 103.073 581.237 81.3518 592.601 62.294C603.964 43.2363 619.826 28.3215 640.186 17.5497C660.664 6.65957 684.457 1.27367 711.564 1.39205ZM712.096 61.7614C700.141 61.7614 689.487 64.6023 680.136 70.2841C670.903 75.9659 663.564 83.6009 658.119 93.1889C652.792 102.777 650.188 113.49 650.306 125.327C650.306 137.282 652.911 148.054 658.119 157.642C663.446 167.112 670.666 174.688 679.781 180.369C689.014 185.933 699.549 188.714 711.386 188.714C720.264 188.714 728.491 187.057 736.066 183.743C743.642 180.429 750.212 175.871 755.775 170.071C761.457 164.152 765.896 157.346 769.092 149.652C772.288 141.958 773.886 133.79 773.886 125.149C773.768 113.667 771.045 103.132 765.718 93.544C760.392 83.956 753.053 76.2618 743.701 70.4616C734.35 64.6615 723.815 61.7614 712.096 61.7614Z"/>
<path d="M1044.48 374.972C1017.97 374.972 994.352 370.414 973.637 361.3C953.041 352.067 936.765 339.401 924.809 323.303C912.972 307.086 906.876 288.383 906.521 267.195H983.936C984.409 276.072 987.309 283.885 992.636 290.632C998.081 297.261 1005.3 302.41 1014.3 306.08C1023.29 309.749 1033.41 311.584 1044.66 311.584C1056.38 311.584 1066.74 309.512 1075.73 305.369C1084.73 301.226 1091.77 295.485 1096.86 288.146C1101.95 280.807 1104.5 272.344 1104.5 262.756C1104.5 253.049 1101.77 244.467 1096.33 237.01C1091 229.434 1083.31 223.516 1073.25 219.254C1063.3 214.993 1051.47 212.862 1037.74 212.862H1003.82V156.399H1037.74C1049.34 156.399 1059.57 154.387 1068.45 150.362C1077.45 146.338 1084.43 140.774 1089.4 133.672C1094.38 126.451 1096.86 118.047 1096.86 108.459C1096.86 99.3442 1094.67 91.3542 1090.29 84.4886C1086.03 77.5047 1079.99 72.0597 1072.18 68.1534C1064.49 64.2472 1055.49 62.294 1045.19 62.294C1034.78 62.294 1025.25 64.188 1016.61 67.9759C1007.97 71.6454 1001.04 76.9129 995.832 83.7784C990.624 90.6439 987.842 98.6932 987.487 107.926H913.801C914.156 86.9744 920.134 68.5085 931.734 52.5284C943.334 36.5483 958.959 24.0601 978.609 15.0639C998.377 5.94934 1020.69 1.39205 1045.55 1.39205C1070.64 1.39205 1092.6 5.94934 1111.42 15.0639C1130.24 24.1785 1144.86 36.4891 1155.28 51.9957C1165.81 67.384 1171.02 84.6662 1170.9 103.842C1171.02 124.202 1164.69 141.188 1151.9 154.801C1139.24 168.414 1122.73 177.055 1102.37 180.724V183.565C1129.12 186.998 1149.48 196.29 1163.45 211.442C1177.53 226.475 1184.52 245.296 1184.4 267.905C1184.52 288.62 1178.54 307.027 1166.46 323.125C1154.51 339.223 1138 351.889 1116.93 361.122C1095.86 370.355 1071.71 374.972 1044.48 374.972Z"/>
</mask>
<path d="M163.49 6.36364V370H86.608V79.3395H84.4773L1.20312 131.541V63.3594L91.2244 6.36364H163.49Z" fill="white" fill-opacity="0.7"/>
<path d="M381.485 1.39205C400.188 1.39205 418.181 4.52888 435.463 10.8025C452.863 17.0762 468.37 27.0786 481.983 40.8097C495.714 54.5407 506.545 72.7699 514.476 95.4972C522.525 118.106 526.609 145.864 526.727 178.771C526.727 209.666 523.235 237.247 516.251 261.513C509.386 285.661 499.502 306.198 486.599 323.125C473.697 340.052 458.131 352.955 439.902 361.832C421.672 370.592 401.313 374.972 378.822 374.972C354.556 374.972 333.131 370.296 314.547 360.945C295.962 351.475 280.988 338.632 269.625 322.415C258.379 306.08 251.573 287.732 249.206 267.372H325.022C327.982 280.63 334.196 290.928 343.666 298.267C353.136 305.488 364.854 309.098 378.822 309.098C402.496 309.098 420.489 298.8 432.799 278.203C445.11 257.488 451.324 229.138 451.443 193.153H448.957C443.512 203.807 436.173 212.981 426.94 220.675C417.707 228.25 407.113 234.11 395.157 238.253C383.32 242.396 370.714 244.467 357.338 244.467C335.913 244.467 316.796 239.437 299.987 229.375C283.178 219.313 269.921 205.464 260.214 187.827C250.508 170.189 245.654 150.066 245.654 127.457C245.536 103.073 251.159 81.3518 262.522 62.294C273.886 43.2363 289.748 28.3215 310.108 17.5497C330.586 6.65957 354.378 1.27367 381.485 1.39205ZM382.018 61.7614C370.063 61.7614 359.409 64.6023 350.058 70.2841C340.825 75.9659 333.486 83.6009 328.041 93.1889C322.714 102.777 320.11 113.49 320.228 125.327C320.228 137.282 322.832 148.054 328.041 157.642C333.368 167.112 340.588 174.688 349.703 180.369C358.936 185.933 369.471 188.714 381.308 188.714C390.186 188.714 398.413 187.057 405.988 183.743C413.564 180.429 420.134 175.871 425.697 170.071C431.379 164.152 435.818 157.346 439.014 149.652C442.21 141.958 443.808 133.79 443.808 125.149C443.69 113.667 440.967 103.132 435.64 93.544C430.314 83.956 422.975 76.2618 413.623 70.4616C404.272 64.6615 393.737 61.7614 382.018 61.7614Z" fill="white" fill-opacity="0.7"/>
<path d="M711.564 1.39205C730.266 1.39205 748.259 4.52888 765.541 10.8025C782.941 17.0762 798.448 27.0786 812.061 40.8097C825.792 54.5407 836.623 72.7699 844.554 95.4972C852.603 118.106 856.687 145.864 856.805 178.771C856.805 209.666 853.313 237.247 846.329 261.513C839.464 285.661 829.58 306.198 816.677 323.125C803.775 340.052 788.209 352.955 769.98 361.832C751.751 370.592 731.391 374.972 708.9 374.972C684.634 374.972 663.209 370.296 644.625 360.945C626.04 351.475 611.066 338.632 599.703 322.415C588.457 306.08 581.651 287.732 579.284 267.372H655.101C658.06 280.63 664.274 290.928 673.744 298.267C683.214 305.488 694.932 309.098 708.9 309.098C732.574 309.098 750.567 298.8 762.878 278.203C775.188 257.488 781.403 229.138 781.521 193.153H779.035C773.59 203.807 766.251 212.981 757.018 220.675C747.785 228.25 737.191 234.11 725.235 238.253C713.398 242.396 700.792 244.467 687.416 244.467C665.991 244.467 646.874 239.437 630.065 229.375C613.256 219.313 599.999 205.464 590.292 187.827C580.586 170.189 575.733 150.066 575.733 127.457C575.614 103.073 581.237 81.3518 592.601 62.294C603.964 43.2363 619.826 28.3215 640.186 17.5497C660.664 6.65957 684.457 1.27367 711.564 1.39205ZM712.096 61.7614C700.141 61.7614 689.487 64.6023 680.136 70.2841C670.903 75.9659 663.564 83.6009 658.119 93.1889C652.792 102.777 650.188 113.49 650.306 125.327C650.306 137.282 652.911 148.054 658.119 157.642C663.446 167.112 670.666 174.688 679.781 180.369C689.014 185.933 699.549 188.714 711.386 188.714C720.264 188.714 728.491 187.057 736.066 183.743C743.642 180.429 750.212 175.871 755.775 170.071C761.457 164.152 765.896 157.346 769.092 149.652C772.288 141.958 773.886 133.79 773.886 125.149C773.768 113.667 771.045 103.132 765.718 93.544C760.392 83.956 753.053 76.2618 743.701 70.4616C734.35 64.6615 723.815 61.7614 712.096 61.7614Z" fill="white" fill-opacity="0.7"/>
<path d="M1044.48 374.972C1017.97 374.972 994.352 370.414 973.637 361.3C953.041 352.067 936.765 339.401 924.809 323.303C912.972 307.086 906.876 288.383 906.521 267.195H983.936C984.409 276.072 987.309 283.885 992.636 290.632C998.081 297.261 1005.3 302.41 1014.3 306.08C1023.29 309.749 1033.41 311.584 1044.66 311.584C1056.38 311.584 1066.74 309.512 1075.73 305.369C1084.73 301.226 1091.77 295.485 1096.86 288.146C1101.95 280.807 1104.5 272.344 1104.5 262.756C1104.5 253.049 1101.77 244.467 1096.33 237.01C1091 229.434 1083.31 223.516 1073.25 219.254C1063.3 214.993 1051.47 212.862 1037.74 212.862H1003.82V156.399H1037.74C1049.34 156.399 1059.57 154.387 1068.45 150.362C1077.45 146.338 1084.43 140.774 1089.4 133.672C1094.38 126.451 1096.86 118.047 1096.86 108.459C1096.86 99.3442 1094.67 91.3542 1090.29 84.4886C1086.03 77.5047 1079.99 72.0597 1072.18 68.1534C1064.49 64.2472 1055.49 62.294 1045.19 62.294C1034.78 62.294 1025.25 64.188 1016.61 67.9759C1007.97 71.6454 1001.04 76.9129 995.832 83.7784C990.624 90.6439 987.842 98.6932 987.487 107.926H913.801C914.156 86.9744 920.134 68.5085 931.734 52.5284C943.334 36.5483 958.959 24.0601 978.609 15.0639C998.377 5.94934 1020.69 1.39205 1045.55 1.39205C1070.64 1.39205 1092.6 5.94934 1111.42 15.0639C1130.24 24.1785 1144.86 36.4891 1155.28 51.9957C1165.81 67.384 1171.02 84.6662 1170.9 103.842C1171.02 124.202 1164.69 141.188 1151.9 154.801C1139.24 168.414 1122.73 177.055 1102.37 180.724V183.565C1129.12 186.998 1149.48 196.29 1163.45 211.442C1177.53 226.475 1184.52 245.296 1184.4 267.905C1184.52 288.62 1178.54 307.027 1166.46 323.125C1154.51 339.223 1138 351.889 1116.93 361.122C1095.86 370.355 1071.71 374.972 1044.48 374.972Z" fill="white" fill-opacity="0.7"/>
<path d="M163.49 6.36364V370H86.608V79.3395H84.4773L1.20312 131.541V63.3594L91.2244 6.36364H163.49Z" stroke="#9796A5" stroke-opacity="0.35" stroke-width="2" mask="url(#path-1-outside-1_218_36)"/>
<path d="M381.485 1.39205C400.188 1.39205 418.181 4.52888 435.463 10.8025C452.863 17.0762 468.37 27.0786 481.983 40.8097C495.714 54.5407 506.545 72.7699 514.476 95.4972C522.525 118.106 526.609 145.864 526.727 178.771C526.727 209.666 523.235 237.247 516.251 261.513C509.386 285.661 499.502 306.198 486.599 323.125C473.697 340.052 458.131 352.955 439.902 361.832C421.672 370.592 401.313 374.972 378.822 374.972C354.556 374.972 333.131 370.296 314.547 360.945C295.962 351.475 280.988 338.632 269.625 322.415C258.379 306.08 251.573 287.732 249.206 267.372H325.022C327.982 280.63 334.196 290.928 343.666 298.267C353.136 305.488 364.854 309.098 378.822 309.098C402.496 309.098 420.489 298.8 432.799 278.203C445.11 257.488 451.324 229.138 451.443 193.153H448.957C443.512 203.807 436.173 212.981 426.94 220.675C417.707 228.25 407.113 234.11 395.157 238.253C383.32 242.396 370.714 244.467 357.338 244.467C335.913 244.467 316.796 239.437 299.987 229.375C283.178 219.313 269.921 205.464 260.214 187.827C250.508 170.189 245.654 150.066 245.654 127.457C245.536 103.073 251.159 81.3518 262.522 62.294C273.886 43.2363 289.748 28.3215 310.108 17.5497C330.586 6.65957 354.378 1.27367 381.485 1.39205ZM382.018 61.7614C370.063 61.7614 359.409 64.6023 350.058 70.2841C340.825 75.9659 333.486 83.6009 328.041 93.1889C322.714 102.777 320.11 113.49 320.228 125.327C320.228 137.282 322.832 148.054 328.041 157.642C333.368 167.112 340.588 174.688 349.703 180.369C358.936 185.933 369.471 188.714 381.308 188.714C390.186 188.714 398.413 187.057 405.988 183.743C413.564 180.429 420.134 175.871 425.697 170.071C431.379 164.152 435.818 157.346 439.014 149.652C442.21 141.958 443.808 133.79 443.808 125.149C443.69 113.667 440.967 103.132 435.64 93.544C430.314 83.956 422.975 76.2618 413.623 70.4616C404.272 64.6615 393.737 61.7614 382.018 61.7614Z" stroke="#9796A5" stroke-opacity="0.35" stroke-width="2" mask="url(#path-1-outside-1_218_36)"/>
<path d="M711.564 1.39205C730.266 1.39205 748.259 4.52888 765.541 10.8025C782.941 17.0762 798.448 27.0786 812.061 40.8097C825.792 54.5407 836.623 72.7699 844.554 95.4972C852.603 118.106 856.687 145.864 856.805 178.771C856.805 209.666 853.313 237.247 846.329 261.513C839.464 285.661 829.58 306.198 816.677 323.125C803.775 340.052 788.209 352.955 769.98 361.832C751.751 370.592 731.391 374.972 708.9 374.972C684.634 374.972 663.209 370.296 644.625 360.945C626.04 351.475 611.066 338.632 599.703 322.415C588.457 306.08 581.651 287.732 579.284 267.372H655.101C658.06 280.63 664.274 290.928 673.744 298.267C683.214 305.488 694.932 309.098 708.9 309.098C732.574 309.098 750.567 298.8 762.878 278.203C775.188 257.488 781.403 229.138 781.521 193.153H779.035C773.59 203.807 766.251 212.981 757.018 220.675C747.785 228.25 737.191 234.11 725.235 238.253C713.398 242.396 700.792 244.467 687.416 244.467C665.991 244.467 646.874 239.437 630.065 229.375C613.256 219.313 599.999 205.464 590.292 187.827C580.586 170.189 575.733 150.066 575.733 127.457C575.614 103.073 581.237 81.3518 592.601 62.294C603.964 43.2363 619.826 28.3215 640.186 17.5497C660.664 6.65957 684.457 1.27367 711.564 1.39205ZM712.096 61.7614C700.141 61.7614 689.487 64.6023 680.136 70.2841C670.903 75.9659 663.564 83.6009 658.119 93.1889C652.792 102.777 650.188 113.49 650.306 125.327C650.306 137.282 652.911 148.054 658.119 157.642C663.446 167.112 670.666 174.688 679.781 180.369C689.014 185.933 699.549 188.714 711.386 188.714C720.264 188.714 728.491 187.057 736.066 183.743C743.642 180.429 750.212 175.871 755.775 170.071C761.457 164.152 765.896 157.346 769.092 149.652C772.288 141.958 773.886 133.79 773.886 125.149C773.768 113.667 771.045 103.132 765.718 93.544C760.392 83.956 753.053 76.2618 743.701 70.4616C734.35 64.6615 723.815 61.7614 712.096 61.7614Z" stroke="#9796A5" stroke-opacity="0.35" stroke-width="2" mask="url(#path-1-outside-1_218_36)"/>
<path d="M1044.48 374.972C1017.97 374.972 994.352 370.414 973.637 361.3C953.041 352.067 936.765 339.401 924.809 323.303C912.972 307.086 906.876 288.383 906.521 267.195H983.936C984.409 276.072 987.309 283.885 992.636 290.632C998.081 297.261 1005.3 302.41 1014.3 306.08C1023.29 309.749 1033.41 311.584 1044.66 311.584C1056.38 311.584 1066.74 309.512 1075.73 305.369C1084.73 301.226 1091.77 295.485 1096.86 288.146C1101.95 280.807 1104.5 272.344 1104.5 262.756C1104.5 253.049 1101.77 244.467 1096.33 237.01C1091 229.434 1083.31 223.516 1073.25 219.254C1063.3 214.993 1051.47 212.862 1037.74 212.862H1003.82V156.399H1037.74C1049.34 156.399 1059.57 154.387 1068.45 150.362C1077.45 146.338 1084.43 140.774 1089.4 133.672C1094.38 126.451 1096.86 118.047 1096.86 108.459C1096.86 99.3442 1094.67 91.3542 1090.29 84.4886C1086.03 77.5047 1079.99 72.0597 1072.18 68.1534C1064.49 64.2472 1055.49 62.294 1045.19 62.294C1034.78 62.294 1025.25 64.188 1016.61 67.9759C1007.97 71.6454 1001.04 76.9129 995.832 83.7784C990.624 90.6439 987.842 98.6932 987.487 107.926H913.801C914.156 86.9744 920.134 68.5085 931.734 52.5284C943.334 36.5483 958.959 24.0601 978.609 15.0639C998.377 5.94934 1020.69 1.39205 1045.55 1.39205C1070.64 1.39205 1092.6 5.94934 1111.42 15.0639C1130.24 24.1785 1144.86 36.4891 1155.28 51.9957C1165.81 67.384 1171.02 84.6662 1170.9 103.842C1171.02 124.202 1164.69 141.188 1151.9 154.801C1139.24 168.414 1122.73 177.055 1102.37 180.724V183.565C1129.12 186.998 1149.48 196.29 1163.45 211.442C1177.53 226.475 1184.52 245.296 1184.4 267.905C1184.52 288.62 1178.54 307.027 1166.46 323.125C1154.51 339.223 1138 351.889 1116.93 361.122C1095.86 370.355 1071.71 374.972 1044.48 374.972Z" stroke="#9796A5" stroke-opacity="0.35" stroke-width="2" mask="url(#path-1-outside-1_218_36)"/>
</svg>
