<svg width="1200" height="376" viewBox="0 0 1200 376" fill="none" xmlns="http://www.w3.org/2000/svg">
<mask id="path-1-outside-1_218_47" maskUnits="userSpaceOnUse" x="0.564453" y="0.390137" width="1199" height="376" fill="black">
<rect fill="white" x="0.564453" y="0.390137" width="1199" height="376"/>
<path d="M163.851 6.36364V370H86.9693V79.3395H84.8386L1.56445 131.541V63.3594L91.5858 6.36364H163.851Z"/>
<path d="M381.847 1.39205C400.549 1.39205 418.542 4.52888 435.824 10.8025C453.225 17.0762 468.731 27.0786 482.344 40.8097C496.075 54.5407 506.906 72.7699 514.837 95.4972C522.886 118.106 526.97 145.864 527.088 178.771C527.088 209.666 523.596 237.247 516.612 261.513C509.747 285.661 499.863 306.198 486.96 323.125C474.058 340.052 458.492 352.955 440.263 361.832C422.034 370.592 401.674 374.972 379.183 374.972C354.917 374.972 333.492 370.296 314.908 360.945C296.324 351.475 281.35 338.632 269.986 322.415C258.741 306.08 251.934 287.732 249.567 267.372H325.384C328.343 280.63 334.557 290.928 344.027 298.267C353.497 305.488 365.216 309.098 379.183 309.098C402.858 309.098 420.85 298.8 433.161 278.203C445.471 257.488 451.686 229.138 451.804 193.153H449.318C443.873 203.807 436.534 212.981 427.301 220.675C418.068 228.25 407.474 234.11 395.519 238.253C383.682 242.396 371.075 244.467 357.699 244.467C336.274 244.467 317.157 239.437 300.348 229.375C283.539 219.313 270.282 205.464 260.575 187.827C250.869 170.189 246.016 150.066 246.016 127.457C245.897 103.073 251.52 81.3518 262.884 62.294C274.247 43.2363 290.109 28.3215 310.469 17.5497C330.947 6.65957 354.74 1.27367 381.847 1.39205ZM382.379 61.7614C370.424 61.7614 359.771 64.6023 350.419 70.2841C341.186 75.9659 333.847 83.6009 328.402 93.1889C323.075 102.777 320.471 113.49 320.59 125.327C320.59 137.282 323.194 148.054 328.402 157.642C333.729 167.112 340.95 174.688 350.064 180.369C359.297 185.933 369.832 188.714 381.669 188.714C390.547 188.714 398.774 187.057 406.35 183.743C413.925 180.429 420.495 175.871 426.058 170.071C431.74 164.152 436.179 157.346 439.375 149.652C442.571 141.958 444.169 133.79 444.169 125.149C444.051 113.667 441.328 103.132 436.002 93.544C430.675 83.956 423.336 76.2618 413.985 70.4616C404.633 64.6615 394.098 61.7614 382.379 61.7614Z"/>
<path d="M711.925 1.39205C730.628 1.39205 748.62 4.52888 765.902 10.8025C783.303 17.0762 798.809 27.0786 812.422 40.8097C826.153 54.5407 836.984 72.7699 844.915 95.4972C852.964 118.106 857.048 145.864 857.166 178.771C857.166 209.666 853.674 237.247 846.69 261.513C839.825 285.661 829.941 306.198 817.039 323.125C804.136 340.052 788.57 352.955 770.341 361.832C752.112 370.592 731.752 374.972 709.262 374.972C684.995 374.972 663.57 370.296 644.986 360.945C626.402 351.475 611.428 338.632 600.064 322.415C588.819 306.08 582.013 287.732 579.645 267.372H655.462C658.421 280.63 664.636 290.928 674.105 298.267C683.575 305.488 695.294 309.098 709.262 309.098C732.936 309.098 750.928 298.8 763.239 278.203C775.549 257.488 781.764 229.138 781.882 193.153H779.396C773.951 203.807 766.612 212.981 757.379 220.675C748.146 228.25 737.552 234.11 725.597 238.253C713.76 242.396 701.153 244.467 687.777 244.467C666.352 244.467 647.235 239.437 630.426 229.375C613.618 219.313 600.36 205.464 590.654 187.827C580.947 170.189 576.094 150.066 576.094 127.457C575.976 103.073 581.598 81.3518 592.962 62.294C604.325 43.2363 620.187 28.3215 640.547 17.5497C661.025 6.65957 684.818 1.27367 711.925 1.39205ZM712.458 61.7614C700.502 61.7614 689.849 64.6023 680.497 70.2841C671.264 75.9659 663.925 83.6009 658.48 93.1889C653.154 102.777 650.549 113.49 650.668 125.327C650.668 137.282 653.272 148.054 658.48 157.642C663.807 167.112 671.028 174.688 680.142 180.369C689.375 185.933 699.91 188.714 711.747 188.714C720.625 188.714 728.852 187.057 736.428 183.743C744.003 180.429 750.573 175.871 756.137 170.071C761.818 164.152 766.257 157.346 769.453 149.652C772.649 141.958 774.247 133.79 774.247 125.149C774.129 113.667 771.406 103.132 766.08 93.544C760.753 83.956 753.414 76.2618 744.063 70.4616C734.711 64.6615 724.176 61.7614 712.458 61.7614Z"/>
<path d="M904.929 306.08V245.533L1056.74 6.36364H1108.94V90.1705H1078.05L982.344 241.626V244.467H1198.08V306.08H904.929ZM1079.47 370V287.614L1080.89 260.803V6.36364H1152.98V370H1079.47Z"/>
</mask>
<path d="M163.851 6.36364V370H86.9693V79.3395H84.8386L1.56445 131.541V63.3594L91.5858 6.36364H163.851Z" fill="white" fill-opacity="0.6"/>
<path d="M381.847 1.39205C400.549 1.39205 418.542 4.52888 435.824 10.8025C453.225 17.0762 468.731 27.0786 482.344 40.8097C496.075 54.5407 506.906 72.7699 514.837 95.4972C522.886 118.106 526.97 145.864 527.088 178.771C527.088 209.666 523.596 237.247 516.612 261.513C509.747 285.661 499.863 306.198 486.96 323.125C474.058 340.052 458.492 352.955 440.263 361.832C422.034 370.592 401.674 374.972 379.183 374.972C354.917 374.972 333.492 370.296 314.908 360.945C296.324 351.475 281.35 338.632 269.986 322.415C258.741 306.08 251.934 287.732 249.567 267.372H325.384C328.343 280.63 334.557 290.928 344.027 298.267C353.497 305.488 365.216 309.098 379.183 309.098C402.858 309.098 420.85 298.8 433.161 278.203C445.471 257.488 451.686 229.138 451.804 193.153H449.318C443.873 203.807 436.534 212.981 427.301 220.675C418.068 228.25 407.474 234.11 395.519 238.253C383.682 242.396 371.075 244.467 357.699 244.467C336.274 244.467 317.157 239.437 300.348 229.375C283.539 219.313 270.282 205.464 260.575 187.827C250.869 170.189 246.016 150.066 246.016 127.457C245.897 103.073 251.52 81.3518 262.884 62.294C274.247 43.2363 290.109 28.3215 310.469 17.5497C330.947 6.65957 354.74 1.27367 381.847 1.39205ZM382.379 61.7614C370.424 61.7614 359.771 64.6023 350.419 70.2841C341.186 75.9659 333.847 83.6009 328.402 93.1889C323.075 102.777 320.471 113.49 320.59 125.327C320.59 137.282 323.194 148.054 328.402 157.642C333.729 167.112 340.95 174.688 350.064 180.369C359.297 185.933 369.832 188.714 381.669 188.714C390.547 188.714 398.774 187.057 406.35 183.743C413.925 180.429 420.495 175.871 426.058 170.071C431.74 164.152 436.179 157.346 439.375 149.652C442.571 141.958 444.169 133.79 444.169 125.149C444.051 113.667 441.328 103.132 436.002 93.544C430.675 83.956 423.336 76.2618 413.985 70.4616C404.633 64.6615 394.098 61.7614 382.379 61.7614Z" fill="white" fill-opacity="0.6"/>
<path d="M711.925 1.39205C730.628 1.39205 748.62 4.52888 765.902 10.8025C783.303 17.0762 798.809 27.0786 812.422 40.8097C826.153 54.5407 836.984 72.7699 844.915 95.4972C852.964 118.106 857.048 145.864 857.166 178.771C857.166 209.666 853.674 237.247 846.69 261.513C839.825 285.661 829.941 306.198 817.039 323.125C804.136 340.052 788.57 352.955 770.341 361.832C752.112 370.592 731.752 374.972 709.262 374.972C684.995 374.972 663.57 370.296 644.986 360.945C626.402 351.475 611.428 338.632 600.064 322.415C588.819 306.08 582.013 287.732 579.645 267.372H655.462C658.421 280.63 664.636 290.928 674.105 298.267C683.575 305.488 695.294 309.098 709.262 309.098C732.936 309.098 750.928 298.8 763.239 278.203C775.549 257.488 781.764 229.138 781.882 193.153H779.396C773.951 203.807 766.612 212.981 757.379 220.675C748.146 228.25 737.552 234.11 725.597 238.253C713.76 242.396 701.153 244.467 687.777 244.467C666.352 244.467 647.235 239.437 630.426 229.375C613.618 219.313 600.36 205.464 590.654 187.827C580.947 170.189 576.094 150.066 576.094 127.457C575.976 103.073 581.598 81.3518 592.962 62.294C604.325 43.2363 620.187 28.3215 640.547 17.5497C661.025 6.65957 684.818 1.27367 711.925 1.39205ZM712.458 61.7614C700.502 61.7614 689.849 64.6023 680.497 70.2841C671.264 75.9659 663.925 83.6009 658.48 93.1889C653.154 102.777 650.549 113.49 650.668 125.327C650.668 137.282 653.272 148.054 658.48 157.642C663.807 167.112 671.028 174.688 680.142 180.369C689.375 185.933 699.91 188.714 711.747 188.714C720.625 188.714 728.852 187.057 736.428 183.743C744.003 180.429 750.573 175.871 756.137 170.071C761.818 164.152 766.257 157.346 769.453 149.652C772.649 141.958 774.247 133.79 774.247 125.149C774.129 113.667 771.406 103.132 766.08 93.544C760.753 83.956 753.414 76.2618 744.063 70.4616C734.711 64.6615 724.176 61.7614 712.458 61.7614Z" fill="white" fill-opacity="0.6"/>
<path d="M904.929 306.08V245.533L1056.74 6.36364H1108.94V90.1705H1078.05L982.344 241.626V244.467H1198.08V306.08H904.929ZM1079.47 370V287.614L1080.89 260.803V6.36364H1152.98V370H1079.47Z" fill="white" fill-opacity="0.6"/>
<path d="M163.851 6.36364V370H86.9693V79.3395H84.8386L1.56445 131.541V63.3594L91.5858 6.36364H163.851Z" stroke="#9796A5" stroke-opacity="0.15" stroke-width="2" mask="url(#path-1-outside-1_218_47)"/>
<path d="M381.847 1.39205C400.549 1.39205 418.542 4.52888 435.824 10.8025C453.225 17.0762 468.731 27.0786 482.344 40.8097C496.075 54.5407 506.906 72.7699 514.837 95.4972C522.886 118.106 526.97 145.864 527.088 178.771C527.088 209.666 523.596 237.247 516.612 261.513C509.747 285.661 499.863 306.198 486.96 323.125C474.058 340.052 458.492 352.955 440.263 361.832C422.034 370.592 401.674 374.972 379.183 374.972C354.917 374.972 333.492 370.296 314.908 360.945C296.324 351.475 281.35 338.632 269.986 322.415C258.741 306.08 251.934 287.732 249.567 267.372H325.384C328.343 280.63 334.557 290.928 344.027 298.267C353.497 305.488 365.216 309.098 379.183 309.098C402.858 309.098 420.85 298.8 433.161 278.203C445.471 257.488 451.686 229.138 451.804 193.153H449.318C443.873 203.807 436.534 212.981 427.301 220.675C418.068 228.25 407.474 234.11 395.519 238.253C383.682 242.396 371.075 244.467 357.699 244.467C336.274 244.467 317.157 239.437 300.348 229.375C283.539 219.313 270.282 205.464 260.575 187.827C250.869 170.189 246.016 150.066 246.016 127.457C245.897 103.073 251.52 81.3518 262.884 62.294C274.247 43.2363 290.109 28.3215 310.469 17.5497C330.947 6.65957 354.74 1.27367 381.847 1.39205ZM382.379 61.7614C370.424 61.7614 359.771 64.6023 350.419 70.2841C341.186 75.9659 333.847 83.6009 328.402 93.1889C323.075 102.777 320.471 113.49 320.59 125.327C320.59 137.282 323.194 148.054 328.402 157.642C333.729 167.112 340.95 174.688 350.064 180.369C359.297 185.933 369.832 188.714 381.669 188.714C390.547 188.714 398.774 187.057 406.35 183.743C413.925 180.429 420.495 175.871 426.058 170.071C431.74 164.152 436.179 157.346 439.375 149.652C442.571 141.958 444.169 133.79 444.169 125.149C444.051 113.667 441.328 103.132 436.002 93.544C430.675 83.956 423.336 76.2618 413.985 70.4616C404.633 64.6615 394.098 61.7614 382.379 61.7614Z" stroke="#9796A5" stroke-opacity="0.15" stroke-width="2" mask="url(#path-1-outside-1_218_47)"/>
<path d="M711.925 1.39205C730.628 1.39205 748.62 4.52888 765.902 10.8025C783.303 17.0762 798.809 27.0786 812.422 40.8097C826.153 54.5407 836.984 72.7699 844.915 95.4972C852.964 118.106 857.048 145.864 857.166 178.771C857.166 209.666 853.674 237.247 846.69 261.513C839.825 285.661 829.941 306.198 817.039 323.125C804.136 340.052 788.57 352.955 770.341 361.832C752.112 370.592 731.752 374.972 709.262 374.972C684.995 374.972 663.57 370.296 644.986 360.945C626.402 351.475 611.428 338.632 600.064 322.415C588.819 306.08 582.013 287.732 579.645 267.372H655.462C658.421 280.63 664.636 290.928 674.105 298.267C683.575 305.488 695.294 309.098 709.262 309.098C732.936 309.098 750.928 298.8 763.239 278.203C775.549 257.488 781.764 229.138 781.882 193.153H779.396C773.951 203.807 766.612 212.981 757.379 220.675C748.146 228.25 737.552 234.11 725.597 238.253C713.76 242.396 701.153 244.467 687.777 244.467C666.352 244.467 647.235 239.437 630.426 229.375C613.618 219.313 600.36 205.464 590.654 187.827C580.947 170.189 576.094 150.066 576.094 127.457C575.976 103.073 581.598 81.3518 592.962 62.294C604.325 43.2363 620.187 28.3215 640.547 17.5497C661.025 6.65957 684.818 1.27367 711.925 1.39205ZM712.458 61.7614C700.502 61.7614 689.849 64.6023 680.497 70.2841C671.264 75.9659 663.925 83.6009 658.48 93.1889C653.154 102.777 650.549 113.49 650.668 125.327C650.668 137.282 653.272 148.054 658.48 157.642C663.807 167.112 671.028 174.688 680.142 180.369C689.375 185.933 699.91 188.714 711.747 188.714C720.625 188.714 728.852 187.057 736.428 183.743C744.003 180.429 750.573 175.871 756.137 170.071C761.818 164.152 766.257 157.346 769.453 149.652C772.649 141.958 774.247 133.79 774.247 125.149C774.129 113.667 771.406 103.132 766.08 93.544C760.753 83.956 753.414 76.2618 744.063 70.4616C734.711 64.6615 724.176 61.7614 712.458 61.7614Z" stroke="#9796A5" stroke-opacity="0.15" stroke-width="2" mask="url(#path-1-outside-1_218_47)"/>
<path d="M904.929 306.08V245.533L1056.74 6.36364H1108.94V90.1705H1078.05L982.344 241.626V244.467H1198.08V306.08H904.929ZM1079.47 370V287.614L1080.89 260.803V6.36364H1152.98V370H1079.47Z" stroke="#9796A5" stroke-opacity="0.15" stroke-width="2" mask="url(#path-1-outside-1_218_47)"/>
</svg>
