<svg width="1181" height="376" viewBox="0 0 1181 376" fill="none" xmlns="http://www.w3.org/2000/svg">
<mask id="path-1-outside-1_218_48" maskUnits="userSpaceOnUse" x="0.865234" y="0.390137" width="1180" height="376" fill="black">
<rect fill="white" x="0.865234" y="0.390137" width="1180" height="376"/>
<path d="M164.152 6.36364V370H87.2701V79.3395H85.1394L1.86523 131.541V63.3594L91.8865 6.36364H164.152Z"/>
<path d="M382.148 1.39205C400.85 1.39205 418.843 4.52888 436.125 10.8025C453.525 17.0762 469.032 27.0786 482.645 40.8097C496.376 54.5407 507.207 72.7699 515.138 95.4972C523.187 118.106 527.271 145.864 527.389 178.771C527.389 209.666 523.897 237.247 516.913 261.513C510.048 285.661 500.164 306.198 487.261 323.125C474.359 340.052 458.793 352.955 440.564 361.832C422.335 370.592 401.975 374.972 379.484 374.972C355.218 374.972 333.793 370.296 315.209 360.945C296.624 351.475 281.65 338.632 270.287 322.415C259.041 306.08 252.235 287.732 249.868 267.372H325.684C328.644 280.63 334.858 290.928 344.328 298.267C353.798 305.488 365.516 309.098 379.484 309.098C403.158 309.098 421.151 298.8 433.461 278.203C445.772 257.488 451.987 229.138 452.105 193.153H449.619C444.174 203.807 436.835 212.981 427.602 220.675C418.369 228.25 407.775 234.11 395.819 238.253C383.982 242.396 371.376 244.467 358 244.467C336.575 244.467 317.458 239.437 300.649 229.375C283.84 219.313 270.583 205.464 260.876 187.827C251.17 170.189 246.317 150.066 246.317 127.457C246.198 103.073 251.821 81.3518 263.184 62.294C274.548 43.2363 290.41 28.3215 310.77 17.5497C331.248 6.65957 355.041 1.27367 382.148 1.39205ZM382.68 61.7614C370.725 61.7614 360.071 64.6023 350.72 70.2841C341.487 75.9659 334.148 83.6009 328.703 93.1889C323.376 102.777 320.772 113.49 320.89 125.327C320.89 137.282 323.495 148.054 328.703 157.642C334.03 167.112 341.25 174.688 350.365 180.369C359.598 185.933 370.133 188.714 381.97 188.714C390.848 188.714 399.075 187.057 406.65 183.743C414.226 180.429 420.796 175.871 426.359 170.071C432.041 164.152 436.48 157.346 439.676 149.652C442.872 141.958 444.47 133.79 444.47 125.149C444.352 113.667 441.629 103.132 436.302 93.544C430.976 83.956 423.637 76.2618 414.285 70.4616C404.934 64.6615 394.399 61.7614 382.68 61.7614Z"/>
<path d="M712.226 1.39205C730.928 1.39205 748.921 4.52888 766.203 10.8025C783.604 17.0762 799.11 27.0786 812.723 40.8097C826.454 54.5407 837.285 72.7699 845.216 95.4972C853.265 118.106 857.349 145.864 857.467 178.771C857.467 209.666 853.975 237.247 846.991 261.513C840.126 285.661 830.242 306.198 817.339 323.125C804.437 340.052 788.871 352.955 770.642 361.832C752.413 370.592 732.053 374.972 709.562 374.972C685.296 374.972 663.871 370.296 645.287 360.945C626.702 351.475 611.729 338.632 600.365 322.415C589.12 306.08 582.313 287.732 579.946 267.372H655.763C658.722 280.63 664.936 290.928 674.406 298.267C683.876 305.488 695.595 309.098 709.562 309.098C733.237 309.098 751.229 298.8 763.54 278.203C775.85 257.488 782.065 229.138 782.183 193.153H779.697C774.252 203.807 766.913 212.981 757.68 220.675C748.447 228.25 737.853 234.11 725.898 238.253C714.06 242.396 701.454 244.467 688.078 244.467C666.653 244.467 647.536 239.437 630.727 229.375C613.918 219.313 600.661 205.464 590.954 187.827C581.248 170.189 576.395 150.066 576.395 127.457C576.276 103.073 581.899 81.3518 593.263 62.294C604.626 43.2363 620.488 28.3215 640.848 17.5497C661.326 6.65957 685.119 1.27367 712.226 1.39205ZM712.758 61.7614C700.803 61.7614 690.149 64.6023 680.798 70.2841C671.565 75.9659 664.226 83.6009 658.781 93.1889C653.454 102.777 650.85 113.49 650.969 125.327C650.969 137.282 653.573 148.054 658.781 157.642C664.108 167.112 671.328 174.688 680.443 180.369C689.676 185.933 700.211 188.714 712.048 188.714C720.926 188.714 729.153 187.057 736.729 183.743C744.304 180.429 750.874 175.871 756.437 170.071C762.119 164.152 766.558 157.346 769.754 149.652C772.95 141.958 774.548 133.79 774.548 125.149C774.43 113.667 771.707 103.132 766.38 93.544C761.054 83.956 753.715 76.2618 744.363 70.4616C735.012 64.6615 724.477 61.7614 712.758 61.7614Z"/>
<path d="M1043.55 374.972C1018.45 374.972 996.08 370.355 976.43 361.122C956.899 351.889 941.392 339.164 929.91 322.947C918.428 306.731 912.451 288.146 911.977 267.195H986.551C987.38 281.281 993.298 292.704 1004.31 301.463C1015.32 310.223 1028.4 314.602 1043.55 314.602C1055.62 314.602 1066.27 311.939 1075.51 306.612C1084.86 301.167 1092.14 293.651 1097.35 284.062C1102.67 274.356 1105.34 263.229 1105.34 250.682C1105.34 237.898 1102.61 226.652 1097.17 216.946C1091.84 207.24 1084.44 199.664 1074.97 194.219C1065.5 188.774 1054.67 185.992 1042.48 185.874C1031.83 185.874 1021.47 188.063 1011.41 192.443C1001.47 196.823 993.712 202.801 988.149 210.376L919.79 198.125L937.013 6.36364H1159.31V69.2188H1000.4L990.99 160.305H993.121C999.513 151.309 1009.16 143.852 1022.06 137.933C1034.96 132.015 1049.41 129.055 1065.39 129.055C1087.28 129.055 1106.82 134.205 1123.98 144.503C1141.14 154.801 1154.7 168.947 1164.64 186.939C1174.58 204.813 1179.5 225.41 1179.38 248.729C1179.5 273.232 1173.81 295.012 1162.33 314.07C1150.97 333.009 1135.05 347.924 1114.57 358.814C1094.21 369.586 1070.54 374.972 1043.55 374.972Z"/>
</mask>
<path d="M164.152 6.36364V370H87.2701V79.3395H85.1394L1.86523 131.541V63.3594L91.8865 6.36364H164.152Z" fill="white" fill-opacity="0.7"/>
<path d="M382.148 1.39205C400.85 1.39205 418.843 4.52888 436.125 10.8025C453.525 17.0762 469.032 27.0786 482.645 40.8097C496.376 54.5407 507.207 72.7699 515.138 95.4972C523.187 118.106 527.271 145.864 527.389 178.771C527.389 209.666 523.897 237.247 516.913 261.513C510.048 285.661 500.164 306.198 487.261 323.125C474.359 340.052 458.793 352.955 440.564 361.832C422.335 370.592 401.975 374.972 379.484 374.972C355.218 374.972 333.793 370.296 315.209 360.945C296.624 351.475 281.65 338.632 270.287 322.415C259.041 306.08 252.235 287.732 249.868 267.372H325.684C328.644 280.63 334.858 290.928 344.328 298.267C353.798 305.488 365.516 309.098 379.484 309.098C403.158 309.098 421.151 298.8 433.461 278.203C445.772 257.488 451.987 229.138 452.105 193.153H449.619C444.174 203.807 436.835 212.981 427.602 220.675C418.369 228.25 407.775 234.11 395.819 238.253C383.982 242.396 371.376 244.467 358 244.467C336.575 244.467 317.458 239.437 300.649 229.375C283.84 219.313 270.583 205.464 260.876 187.827C251.17 170.189 246.317 150.066 246.317 127.457C246.198 103.073 251.821 81.3518 263.184 62.294C274.548 43.2363 290.41 28.3215 310.77 17.5497C331.248 6.65957 355.041 1.27367 382.148 1.39205ZM382.68 61.7614C370.725 61.7614 360.071 64.6023 350.72 70.2841C341.487 75.9659 334.148 83.6009 328.703 93.1889C323.376 102.777 320.772 113.49 320.89 125.327C320.89 137.282 323.495 148.054 328.703 157.642C334.03 167.112 341.25 174.688 350.365 180.369C359.598 185.933 370.133 188.714 381.97 188.714C390.848 188.714 399.075 187.057 406.65 183.743C414.226 180.429 420.796 175.871 426.359 170.071C432.041 164.152 436.48 157.346 439.676 149.652C442.872 141.958 444.47 133.79 444.47 125.149C444.352 113.667 441.629 103.132 436.302 93.544C430.976 83.956 423.637 76.2618 414.285 70.4616C404.934 64.6615 394.399 61.7614 382.68 61.7614Z" fill="white" fill-opacity="0.7"/>
<path d="M712.226 1.39205C730.928 1.39205 748.921 4.52888 766.203 10.8025C783.604 17.0762 799.11 27.0786 812.723 40.8097C826.454 54.5407 837.285 72.7699 845.216 95.4972C853.265 118.106 857.349 145.864 857.467 178.771C857.467 209.666 853.975 237.247 846.991 261.513C840.126 285.661 830.242 306.198 817.339 323.125C804.437 340.052 788.871 352.955 770.642 361.832C752.413 370.592 732.053 374.972 709.562 374.972C685.296 374.972 663.871 370.296 645.287 360.945C626.702 351.475 611.729 338.632 600.365 322.415C589.12 306.08 582.313 287.732 579.946 267.372H655.763C658.722 280.63 664.936 290.928 674.406 298.267C683.876 305.488 695.595 309.098 709.562 309.098C733.237 309.098 751.229 298.8 763.54 278.203C775.85 257.488 782.065 229.138 782.183 193.153H779.697C774.252 203.807 766.913 212.981 757.68 220.675C748.447 228.25 737.853 234.11 725.898 238.253C714.06 242.396 701.454 244.467 688.078 244.467C666.653 244.467 647.536 239.437 630.727 229.375C613.918 219.313 600.661 205.464 590.954 187.827C581.248 170.189 576.395 150.066 576.395 127.457C576.276 103.073 581.899 81.3518 593.263 62.294C604.626 43.2363 620.488 28.3215 640.848 17.5497C661.326 6.65957 685.119 1.27367 712.226 1.39205ZM712.758 61.7614C700.803 61.7614 690.149 64.6023 680.798 70.2841C671.565 75.9659 664.226 83.6009 658.781 93.1889C653.454 102.777 650.85 113.49 650.969 125.327C650.969 137.282 653.573 148.054 658.781 157.642C664.108 167.112 671.328 174.688 680.443 180.369C689.676 185.933 700.211 188.714 712.048 188.714C720.926 188.714 729.153 187.057 736.729 183.743C744.304 180.429 750.874 175.871 756.437 170.071C762.119 164.152 766.558 157.346 769.754 149.652C772.95 141.958 774.548 133.79 774.548 125.149C774.43 113.667 771.707 103.132 766.38 93.544C761.054 83.956 753.715 76.2618 744.363 70.4616C735.012 64.6615 724.477 61.7614 712.758 61.7614Z" fill="white" fill-opacity="0.7"/>
<path d="M1043.55 374.972C1018.45 374.972 996.08 370.355 976.43 361.122C956.899 351.889 941.392 339.164 929.91 322.947C918.428 306.731 912.451 288.146 911.977 267.195H986.551C987.38 281.281 993.298 292.704 1004.31 301.463C1015.32 310.223 1028.4 314.602 1043.55 314.602C1055.62 314.602 1066.27 311.939 1075.51 306.612C1084.86 301.167 1092.14 293.651 1097.35 284.062C1102.67 274.356 1105.34 263.229 1105.34 250.682C1105.34 237.898 1102.61 226.652 1097.17 216.946C1091.84 207.24 1084.44 199.664 1074.97 194.219C1065.5 188.774 1054.67 185.992 1042.48 185.874C1031.83 185.874 1021.47 188.063 1011.41 192.443C1001.47 196.823 993.712 202.801 988.149 210.376L919.79 198.125L937.013 6.36364H1159.31V69.2188H1000.4L990.99 160.305H993.121C999.513 151.309 1009.16 143.852 1022.06 137.933C1034.96 132.015 1049.41 129.055 1065.39 129.055C1087.28 129.055 1106.82 134.205 1123.98 144.503C1141.14 154.801 1154.7 168.947 1164.64 186.939C1174.58 204.813 1179.5 225.41 1179.38 248.729C1179.5 273.232 1173.81 295.012 1162.33 314.07C1150.97 333.009 1135.05 347.924 1114.57 358.814C1094.21 369.586 1070.54 374.972 1043.55 374.972Z" fill="white" fill-opacity="0.7"/>
<path d="M164.152 6.36364V370H87.2701V79.3395H85.1394L1.86523 131.541V63.3594L91.8865 6.36364H164.152Z" stroke="#9796A5" stroke-opacity="0.35" stroke-width="2" mask="url(#path-1-outside-1_218_48)"/>
<path d="M382.148 1.39205C400.85 1.39205 418.843 4.52888 436.125 10.8025C453.525 17.0762 469.032 27.0786 482.645 40.8097C496.376 54.5407 507.207 72.7699 515.138 95.4972C523.187 118.106 527.271 145.864 527.389 178.771C527.389 209.666 523.897 237.247 516.913 261.513C510.048 285.661 500.164 306.198 487.261 323.125C474.359 340.052 458.793 352.955 440.564 361.832C422.335 370.592 401.975 374.972 379.484 374.972C355.218 374.972 333.793 370.296 315.209 360.945C296.624 351.475 281.65 338.632 270.287 322.415C259.041 306.08 252.235 287.732 249.868 267.372H325.684C328.644 280.63 334.858 290.928 344.328 298.267C353.798 305.488 365.516 309.098 379.484 309.098C403.158 309.098 421.151 298.8 433.461 278.203C445.772 257.488 451.987 229.138 452.105 193.153H449.619C444.174 203.807 436.835 212.981 427.602 220.675C418.369 228.25 407.775 234.11 395.819 238.253C383.982 242.396 371.376 244.467 358 244.467C336.575 244.467 317.458 239.437 300.649 229.375C283.84 219.313 270.583 205.464 260.876 187.827C251.17 170.189 246.317 150.066 246.317 127.457C246.198 103.073 251.821 81.3518 263.184 62.294C274.548 43.2363 290.41 28.3215 310.77 17.5497C331.248 6.65957 355.041 1.27367 382.148 1.39205ZM382.68 61.7614C370.725 61.7614 360.071 64.6023 350.72 70.2841C341.487 75.9659 334.148 83.6009 328.703 93.1889C323.376 102.777 320.772 113.49 320.89 125.327C320.89 137.282 323.495 148.054 328.703 157.642C334.03 167.112 341.25 174.688 350.365 180.369C359.598 185.933 370.133 188.714 381.97 188.714C390.848 188.714 399.075 187.057 406.65 183.743C414.226 180.429 420.796 175.871 426.359 170.071C432.041 164.152 436.48 157.346 439.676 149.652C442.872 141.958 444.47 133.79 444.47 125.149C444.352 113.667 441.629 103.132 436.302 93.544C430.976 83.956 423.637 76.2618 414.285 70.4616C404.934 64.6615 394.399 61.7614 382.68 61.7614Z" stroke="#9796A5" stroke-opacity="0.35" stroke-width="2" mask="url(#path-1-outside-1_218_48)"/>
<path d="M712.226 1.39205C730.928 1.39205 748.921 4.52888 766.203 10.8025C783.604 17.0762 799.11 27.0786 812.723 40.8097C826.454 54.5407 837.285 72.7699 845.216 95.4972C853.265 118.106 857.349 145.864 857.467 178.771C857.467 209.666 853.975 237.247 846.991 261.513C840.126 285.661 830.242 306.198 817.339 323.125C804.437 340.052 788.871 352.955 770.642 361.832C752.413 370.592 732.053 374.972 709.562 374.972C685.296 374.972 663.871 370.296 645.287 360.945C626.702 351.475 611.729 338.632 600.365 322.415C589.12 306.08 582.313 287.732 579.946 267.372H655.763C658.722 280.63 664.936 290.928 674.406 298.267C683.876 305.488 695.595 309.098 709.562 309.098C733.237 309.098 751.229 298.8 763.54 278.203C775.85 257.488 782.065 229.138 782.183 193.153H779.697C774.252 203.807 766.913 212.981 757.68 220.675C748.447 228.25 737.853 234.11 725.898 238.253C714.06 242.396 701.454 244.467 688.078 244.467C666.653 244.467 647.536 239.437 630.727 229.375C613.918 219.313 600.661 205.464 590.954 187.827C581.248 170.189 576.395 150.066 576.395 127.457C576.276 103.073 581.899 81.3518 593.263 62.294C604.626 43.2363 620.488 28.3215 640.848 17.5497C661.326 6.65957 685.119 1.27367 712.226 1.39205ZM712.758 61.7614C700.803 61.7614 690.149 64.6023 680.798 70.2841C671.565 75.9659 664.226 83.6009 658.781 93.1889C653.454 102.777 650.85 113.49 650.969 125.327C650.969 137.282 653.573 148.054 658.781 157.642C664.108 167.112 671.328 174.688 680.443 180.369C689.676 185.933 700.211 188.714 712.048 188.714C720.926 188.714 729.153 187.057 736.729 183.743C744.304 180.429 750.874 175.871 756.437 170.071C762.119 164.152 766.558 157.346 769.754 149.652C772.95 141.958 774.548 133.79 774.548 125.149C774.43 113.667 771.707 103.132 766.38 93.544C761.054 83.956 753.715 76.2618 744.363 70.4616C735.012 64.6615 724.477 61.7614 712.758 61.7614Z" stroke="#9796A5" stroke-opacity="0.35" stroke-width="2" mask="url(#path-1-outside-1_218_48)"/>
<path d="M1043.55 374.972C1018.45 374.972 996.08 370.355 976.43 361.122C956.899 351.889 941.392 339.164 929.91 322.947C918.428 306.731 912.451 288.146 911.977 267.195H986.551C987.38 281.281 993.298 292.704 1004.31 301.463C1015.32 310.223 1028.4 314.602 1043.55 314.602C1055.62 314.602 1066.27 311.939 1075.51 306.612C1084.86 301.167 1092.14 293.651 1097.35 284.062C1102.67 274.356 1105.34 263.229 1105.34 250.682C1105.34 237.898 1102.61 226.652 1097.17 216.946C1091.84 207.24 1084.44 199.664 1074.97 194.219C1065.5 188.774 1054.67 185.992 1042.48 185.874C1031.83 185.874 1021.47 188.063 1011.41 192.443C1001.47 196.823 993.712 202.801 988.149 210.376L919.79 198.125L937.013 6.36364H1159.31V69.2188H1000.4L990.99 160.305H993.121C999.513 151.309 1009.16 143.852 1022.06 137.933C1034.96 132.015 1049.41 129.055 1065.39 129.055C1087.28 129.055 1106.82 134.205 1123.98 144.503C1141.14 154.801 1154.7 168.947 1164.64 186.939C1174.58 204.813 1179.5 225.41 1179.38 248.729C1179.5 273.232 1173.81 295.012 1162.33 314.07C1150.97 333.009 1135.05 347.924 1114.57 358.814C1094.21 369.586 1070.54 374.972 1043.55 374.972Z" stroke="#9796A5" stroke-opacity="0.35" stroke-width="2" mask="url(#path-1-outside-1_218_48)"/>
</svg>
