<svg width="1188" height="376" viewBox="0 0 1188 376" fill="none" xmlns="http://www.w3.org/2000/svg">
<mask id="path-1-outside-1_218_49" maskUnits="userSpaceOnUse" x="0.958984" y="0.390137" width="1187" height="376" fill="black">
<rect fill="white" x="0.958984" y="0.390137" width="1187" height="376"/>
<path d="M164.246 6.36364V370H87.3638V79.3395H85.2331L1.95898 131.541V63.3594L91.9803 6.36364H164.246Z"/>
<path d="M382.241 1.39205C400.944 1.39205 418.936 4.52888 436.219 10.8025C453.619 17.0762 469.126 27.0786 482.738 40.8097C496.47 54.5407 507.301 72.7699 515.231 95.4972C523.281 118.106 527.364 145.864 527.483 178.771C527.483 209.666 523.991 237.247 517.007 261.513C510.141 285.661 500.257 306.198 487.355 323.125C474.452 340.052 458.887 352.955 440.658 361.832C422.428 370.592 402.068 374.972 379.578 374.972C355.312 374.972 333.887 370.296 315.302 360.945C296.718 351.475 281.744 338.632 270.38 322.415C259.135 306.08 252.329 287.732 249.961 267.372H325.778C328.738 280.63 334.952 290.928 344.422 298.267C353.891 305.488 365.61 309.098 379.578 309.098C403.252 309.098 421.245 298.8 433.555 278.203C445.866 257.488 452.08 229.138 452.199 193.153H449.713C444.268 203.807 436.929 212.981 427.696 220.675C418.463 228.25 407.869 234.11 395.913 238.253C384.076 242.396 371.47 244.467 358.094 244.467C336.668 244.467 317.551 239.437 300.743 229.375C283.934 219.313 270.676 205.464 260.97 187.827C251.264 170.189 246.41 150.066 246.41 127.457C246.292 103.073 251.915 81.3518 263.278 62.294C274.642 43.2363 290.504 28.3215 310.863 17.5497C331.342 6.65957 355.134 1.27367 382.241 1.39205ZM382.774 61.7614C370.818 61.7614 360.165 64.6023 350.814 70.2841C341.581 75.9659 334.242 83.6009 328.797 93.1889C323.47 102.777 320.866 113.49 320.984 125.327C320.984 137.282 323.588 148.054 328.797 157.642C334.123 167.112 341.344 174.688 350.459 180.369C359.692 185.933 370.227 188.714 382.064 188.714C390.942 188.714 399.168 187.057 406.744 183.743C414.32 180.429 420.889 175.871 426.453 170.071C432.135 164.152 436.574 157.346 439.77 149.652C442.966 141.958 444.564 133.79 444.564 125.149C444.445 113.667 441.723 103.132 436.396 93.544C431.069 83.956 423.73 76.2618 414.379 70.4616C405.028 64.6615 394.493 61.7614 382.774 61.7614Z"/>
<path d="M712.319 1.39205C731.022 1.39205 749.014 4.52888 766.297 10.8025C783.697 17.0762 799.204 27.0786 812.817 40.8097C826.548 54.5407 837.379 72.7699 845.31 95.4972C853.359 118.106 857.443 145.864 857.561 178.771C857.561 209.666 854.069 237.247 847.085 261.513C840.22 285.661 830.336 306.198 817.433 323.125C804.531 340.052 788.965 352.955 770.736 361.832C752.506 370.592 732.147 374.972 709.656 374.972C685.39 374.972 663.965 370.296 645.38 360.945C626.796 351.475 611.822 338.632 600.459 322.415C589.213 306.08 582.407 287.732 580.04 267.372H655.856C658.816 280.63 665.03 290.928 674.5 298.267C683.97 305.488 695.688 309.098 709.656 309.098C733.33 309.098 751.323 298.8 763.633 278.203C775.944 257.488 782.158 229.138 782.277 193.153H779.791C774.346 203.807 767.007 212.981 757.774 220.675C748.541 228.25 737.947 234.11 725.991 238.253C714.154 242.396 701.548 244.467 688.172 244.467C666.747 244.467 647.63 239.437 630.821 229.375C614.012 219.313 600.755 205.464 591.048 187.827C581.342 170.189 576.488 150.066 576.488 127.457C576.37 103.073 581.993 81.3518 593.356 62.294C604.72 43.2363 620.582 28.3215 640.942 17.5497C661.42 6.65957 685.212 1.27367 712.319 1.39205ZM712.852 61.7614C700.897 61.7614 690.243 64.6023 680.892 70.2841C671.659 75.9659 664.32 83.6009 658.875 93.1889C653.548 102.777 650.944 113.49 651.062 125.327C651.062 137.282 653.666 148.054 658.875 157.642C664.202 167.112 671.422 174.688 680.537 180.369C689.77 185.933 700.305 188.714 712.142 188.714C721.02 188.714 729.247 187.057 736.822 183.743C744.398 180.429 750.968 175.871 756.531 170.071C762.213 164.152 766.652 157.346 769.848 149.652C773.044 141.958 774.642 133.79 774.642 125.149C774.523 113.667 771.801 103.132 766.474 93.544C761.148 83.956 753.809 76.2618 744.457 70.4616C735.106 64.6615 724.571 61.7614 712.852 61.7614Z"/>
<path d="M1050.39 374.972C1031.68 374.853 1013.63 371.716 996.233 365.561C978.951 359.406 963.444 349.403 949.713 335.554C935.982 321.705 925.092 303.357 917.042 280.511C909.112 257.666 905.146 229.612 905.146 196.349C905.264 165.81 908.756 138.525 915.622 114.496C922.606 90.348 932.549 69.8698 945.452 53.0611C958.472 36.2524 974.038 23.4683 992.149 14.7088C1010.26 5.83096 1030.56 1.39205 1053.05 1.39205C1077.32 1.39205 1098.74 6.1269 1117.33 15.5966C1135.91 24.9479 1150.83 37.6728 1162.07 53.7713C1173.43 69.8698 1180.3 87.9214 1182.67 107.926H1106.85C1103.89 95.2604 1097.68 85.3173 1088.21 78.0966C1078.74 70.876 1067.02 67.2656 1053.05 67.2656C1029.38 67.2656 1011.38 77.5639 999.074 98.1605C986.881 118.757 980.667 146.752 980.43 182.145H982.916C988.361 171.373 995.7 162.199 1004.93 154.624C1014.28 146.929 1024.88 141.07 1036.72 137.045C1048.67 132.902 1061.28 130.831 1074.54 130.831C1096.08 130.831 1115.26 135.921 1132.06 146.101C1148.87 156.162 1162.13 170.012 1171.84 187.649C1181.54 205.286 1186.4 225.469 1186.4 248.196C1186.4 272.817 1180.66 294.716 1169.17 313.892C1157.81 333.068 1141.89 348.101 1121.41 358.991C1101.05 369.763 1077.38 375.09 1050.39 374.972ZM1050.03 314.602C1061.87 314.602 1072.46 311.761 1081.82 306.08C1091.17 300.398 1098.51 292.704 1103.83 282.997C1109.16 273.291 1111.82 262.401 1111.82 250.327C1111.82 238.253 1109.16 227.422 1103.83 217.834C1098.62 208.246 1091.4 200.611 1082.17 194.929C1072.94 189.247 1062.4 186.406 1050.57 186.406C1041.69 186.406 1033.46 188.063 1025.88 191.378C1018.43 194.692 1011.86 199.309 1006.18 205.227C1000.61 211.146 996.233 218.011 993.037 225.824C989.841 233.518 988.243 241.745 988.243 250.504C988.243 262.223 990.906 272.936 996.233 282.642C1001.68 292.349 1009.02 300.102 1018.25 305.902C1027.6 311.702 1038.2 314.602 1050.03 314.602Z"/>
</mask>
<path d="M164.246 6.36364V370H87.3638V79.3395H85.2331L1.95898 131.541V63.3594L91.9803 6.36364H164.246Z" fill="white" fill-opacity="0.7"/>
<path d="M382.241 1.39205C400.944 1.39205 418.936 4.52888 436.219 10.8025C453.619 17.0762 469.126 27.0786 482.738 40.8097C496.47 54.5407 507.301 72.7699 515.231 95.4972C523.281 118.106 527.364 145.864 527.483 178.771C527.483 209.666 523.991 237.247 517.007 261.513C510.141 285.661 500.257 306.198 487.355 323.125C474.452 340.052 458.887 352.955 440.658 361.832C422.428 370.592 402.068 374.972 379.578 374.972C355.312 374.972 333.887 370.296 315.302 360.945C296.718 351.475 281.744 338.632 270.38 322.415C259.135 306.08 252.329 287.732 249.961 267.372H325.778C328.738 280.63 334.952 290.928 344.422 298.267C353.891 305.488 365.61 309.098 379.578 309.098C403.252 309.098 421.245 298.8 433.555 278.203C445.866 257.488 452.08 229.138 452.199 193.153H449.713C444.268 203.807 436.929 212.981 427.696 220.675C418.463 228.25 407.869 234.11 395.913 238.253C384.076 242.396 371.47 244.467 358.094 244.467C336.668 244.467 317.551 239.437 300.743 229.375C283.934 219.313 270.676 205.464 260.97 187.827C251.264 170.189 246.41 150.066 246.41 127.457C246.292 103.073 251.915 81.3518 263.278 62.294C274.642 43.2363 290.504 28.3215 310.863 17.5497C331.342 6.65957 355.134 1.27367 382.241 1.39205ZM382.774 61.7614C370.818 61.7614 360.165 64.6023 350.814 70.2841C341.581 75.9659 334.242 83.6009 328.797 93.1889C323.47 102.777 320.866 113.49 320.984 125.327C320.984 137.282 323.588 148.054 328.797 157.642C334.123 167.112 341.344 174.688 350.459 180.369C359.692 185.933 370.227 188.714 382.064 188.714C390.942 188.714 399.168 187.057 406.744 183.743C414.32 180.429 420.889 175.871 426.453 170.071C432.135 164.152 436.574 157.346 439.77 149.652C442.966 141.958 444.564 133.79 444.564 125.149C444.445 113.667 441.723 103.132 436.396 93.544C431.069 83.956 423.73 76.2618 414.379 70.4616C405.028 64.6615 394.493 61.7614 382.774 61.7614Z" fill="white" fill-opacity="0.7"/>
<path d="M712.319 1.39205C731.022 1.39205 749.014 4.52888 766.297 10.8025C783.697 17.0762 799.204 27.0786 812.817 40.8097C826.548 54.5407 837.379 72.7699 845.31 95.4972C853.359 118.106 857.443 145.864 857.561 178.771C857.561 209.666 854.069 237.247 847.085 261.513C840.22 285.661 830.336 306.198 817.433 323.125C804.531 340.052 788.965 352.955 770.736 361.832C752.506 370.592 732.147 374.972 709.656 374.972C685.39 374.972 663.965 370.296 645.38 360.945C626.796 351.475 611.822 338.632 600.459 322.415C589.213 306.08 582.407 287.732 580.04 267.372H655.856C658.816 280.63 665.03 290.928 674.5 298.267C683.97 305.488 695.688 309.098 709.656 309.098C733.33 309.098 751.323 298.8 763.633 278.203C775.944 257.488 782.158 229.138 782.277 193.153H779.791C774.346 203.807 767.007 212.981 757.774 220.675C748.541 228.25 737.947 234.11 725.991 238.253C714.154 242.396 701.548 244.467 688.172 244.467C666.747 244.467 647.63 239.437 630.821 229.375C614.012 219.313 600.755 205.464 591.048 187.827C581.342 170.189 576.488 150.066 576.488 127.457C576.37 103.073 581.993 81.3518 593.356 62.294C604.72 43.2363 620.582 28.3215 640.942 17.5497C661.42 6.65957 685.212 1.27367 712.319 1.39205ZM712.852 61.7614C700.897 61.7614 690.243 64.6023 680.892 70.2841C671.659 75.9659 664.32 83.6009 658.875 93.1889C653.548 102.777 650.944 113.49 651.062 125.327C651.062 137.282 653.666 148.054 658.875 157.642C664.202 167.112 671.422 174.688 680.537 180.369C689.77 185.933 700.305 188.714 712.142 188.714C721.02 188.714 729.247 187.057 736.822 183.743C744.398 180.429 750.968 175.871 756.531 170.071C762.213 164.152 766.652 157.346 769.848 149.652C773.044 141.958 774.642 133.79 774.642 125.149C774.523 113.667 771.801 103.132 766.474 93.544C761.148 83.956 753.809 76.2618 744.457 70.4616C735.106 64.6615 724.571 61.7614 712.852 61.7614Z" fill="white" fill-opacity="0.7"/>
<path d="M1050.39 374.972C1031.68 374.853 1013.63 371.716 996.233 365.561C978.951 359.406 963.444 349.403 949.713 335.554C935.982 321.705 925.092 303.357 917.042 280.511C909.112 257.666 905.146 229.612 905.146 196.349C905.264 165.81 908.756 138.525 915.622 114.496C922.606 90.348 932.549 69.8698 945.452 53.0611C958.472 36.2524 974.038 23.4683 992.149 14.7088C1010.26 5.83096 1030.56 1.39205 1053.05 1.39205C1077.32 1.39205 1098.74 6.1269 1117.33 15.5966C1135.91 24.9479 1150.83 37.6728 1162.07 53.7713C1173.43 69.8698 1180.3 87.9214 1182.67 107.926H1106.85C1103.89 95.2604 1097.68 85.3173 1088.21 78.0966C1078.74 70.876 1067.02 67.2656 1053.05 67.2656C1029.38 67.2656 1011.38 77.5639 999.074 98.1605C986.881 118.757 980.667 146.752 980.43 182.145H982.916C988.361 171.373 995.7 162.199 1004.93 154.624C1014.28 146.929 1024.88 141.07 1036.72 137.045C1048.67 132.902 1061.28 130.831 1074.54 130.831C1096.08 130.831 1115.26 135.921 1132.06 146.101C1148.87 156.162 1162.13 170.012 1171.84 187.649C1181.54 205.286 1186.4 225.469 1186.4 248.196C1186.4 272.817 1180.66 294.716 1169.17 313.892C1157.81 333.068 1141.89 348.101 1121.41 358.991C1101.05 369.763 1077.38 375.09 1050.39 374.972ZM1050.03 314.602C1061.87 314.602 1072.46 311.761 1081.82 306.08C1091.17 300.398 1098.51 292.704 1103.83 282.997C1109.16 273.291 1111.82 262.401 1111.82 250.327C1111.82 238.253 1109.16 227.422 1103.83 217.834C1098.62 208.246 1091.4 200.611 1082.17 194.929C1072.94 189.247 1062.4 186.406 1050.57 186.406C1041.69 186.406 1033.46 188.063 1025.88 191.378C1018.43 194.692 1011.86 199.309 1006.18 205.227C1000.61 211.146 996.233 218.011 993.037 225.824C989.841 233.518 988.243 241.745 988.243 250.504C988.243 262.223 990.906 272.936 996.233 282.642C1001.68 292.349 1009.02 300.102 1018.25 305.902C1027.6 311.702 1038.2 314.602 1050.03 314.602Z" fill="white" fill-opacity="0.7"/>
<path d="M164.246 6.36364V370H87.3638V79.3395H85.2331L1.95898 131.541V63.3594L91.9803 6.36364H164.246Z" stroke="#9796A5" stroke-opacity="0.35" stroke-width="2" mask="url(#path-1-outside-1_218_49)"/>
<path d="M382.241 1.39205C400.944 1.39205 418.936 4.52888 436.219 10.8025C453.619 17.0762 469.126 27.0786 482.738 40.8097C496.47 54.5407 507.301 72.7699 515.231 95.4972C523.281 118.106 527.364 145.864 527.483 178.771C527.483 209.666 523.991 237.247 517.007 261.513C510.141 285.661 500.257 306.198 487.355 323.125C474.452 340.052 458.887 352.955 440.658 361.832C422.428 370.592 402.068 374.972 379.578 374.972C355.312 374.972 333.887 370.296 315.302 360.945C296.718 351.475 281.744 338.632 270.38 322.415C259.135 306.08 252.329 287.732 249.961 267.372H325.778C328.738 280.63 334.952 290.928 344.422 298.267C353.891 305.488 365.61 309.098 379.578 309.098C403.252 309.098 421.245 298.8 433.555 278.203C445.866 257.488 452.08 229.138 452.199 193.153H449.713C444.268 203.807 436.929 212.981 427.696 220.675C418.463 228.25 407.869 234.11 395.913 238.253C384.076 242.396 371.47 244.467 358.094 244.467C336.668 244.467 317.551 239.437 300.743 229.375C283.934 219.313 270.676 205.464 260.97 187.827C251.264 170.189 246.41 150.066 246.41 127.457C246.292 103.073 251.915 81.3518 263.278 62.294C274.642 43.2363 290.504 28.3215 310.863 17.5497C331.342 6.65957 355.134 1.27367 382.241 1.39205ZM382.774 61.7614C370.818 61.7614 360.165 64.6023 350.814 70.2841C341.581 75.9659 334.242 83.6009 328.797 93.1889C323.47 102.777 320.866 113.49 320.984 125.327C320.984 137.282 323.588 148.054 328.797 157.642C334.123 167.112 341.344 174.688 350.459 180.369C359.692 185.933 370.227 188.714 382.064 188.714C390.942 188.714 399.168 187.057 406.744 183.743C414.32 180.429 420.889 175.871 426.453 170.071C432.135 164.152 436.574 157.346 439.77 149.652C442.966 141.958 444.564 133.79 444.564 125.149C444.445 113.667 441.723 103.132 436.396 93.544C431.069 83.956 423.73 76.2618 414.379 70.4616C405.028 64.6615 394.493 61.7614 382.774 61.7614Z" stroke="#9796A5" stroke-opacity="0.35" stroke-width="2" mask="url(#path-1-outside-1_218_49)"/>
<path d="M712.319 1.39205C731.022 1.39205 749.014 4.52888 766.297 10.8025C783.697 17.0762 799.204 27.0786 812.817 40.8097C826.548 54.5407 837.379 72.7699 845.31 95.4972C853.359 118.106 857.443 145.864 857.561 178.771C857.561 209.666 854.069 237.247 847.085 261.513C840.22 285.661 830.336 306.198 817.433 323.125C804.531 340.052 788.965 352.955 770.736 361.832C752.506 370.592 732.147 374.972 709.656 374.972C685.39 374.972 663.965 370.296 645.38 360.945C626.796 351.475 611.822 338.632 600.459 322.415C589.213 306.08 582.407 287.732 580.04 267.372H655.856C658.816 280.63 665.03 290.928 674.5 298.267C683.97 305.488 695.688 309.098 709.656 309.098C733.33 309.098 751.323 298.8 763.633 278.203C775.944 257.488 782.158 229.138 782.277 193.153H779.791C774.346 203.807 767.007 212.981 757.774 220.675C748.541 228.25 737.947 234.11 725.991 238.253C714.154 242.396 701.548 244.467 688.172 244.467C666.747 244.467 647.63 239.437 630.821 229.375C614.012 219.313 600.755 205.464 591.048 187.827C581.342 170.189 576.488 150.066 576.488 127.457C576.37 103.073 581.993 81.3518 593.356 62.294C604.72 43.2363 620.582 28.3215 640.942 17.5497C661.42 6.65957 685.212 1.27367 712.319 1.39205ZM712.852 61.7614C700.897 61.7614 690.243 64.6023 680.892 70.2841C671.659 75.9659 664.32 83.6009 658.875 93.1889C653.548 102.777 650.944 113.49 651.062 125.327C651.062 137.282 653.666 148.054 658.875 157.642C664.202 167.112 671.422 174.688 680.537 180.369C689.77 185.933 700.305 188.714 712.142 188.714C721.02 188.714 729.247 187.057 736.822 183.743C744.398 180.429 750.968 175.871 756.531 170.071C762.213 164.152 766.652 157.346 769.848 149.652C773.044 141.958 774.642 133.79 774.642 125.149C774.523 113.667 771.801 103.132 766.474 93.544C761.148 83.956 753.809 76.2618 744.457 70.4616C735.106 64.6615 724.571 61.7614 712.852 61.7614Z" stroke="#9796A5" stroke-opacity="0.35" stroke-width="2" mask="url(#path-1-outside-1_218_49)"/>
<path d="M1050.39 374.972C1031.68 374.853 1013.63 371.716 996.233 365.561C978.951 359.406 963.444 349.403 949.713 335.554C935.982 321.705 925.092 303.357 917.042 280.511C909.112 257.666 905.146 229.612 905.146 196.349C905.264 165.81 908.756 138.525 915.622 114.496C922.606 90.348 932.549 69.8698 945.452 53.0611C958.472 36.2524 974.038 23.4683 992.149 14.7088C1010.26 5.83096 1030.56 1.39205 1053.05 1.39205C1077.32 1.39205 1098.74 6.1269 1117.33 15.5966C1135.91 24.9479 1150.83 37.6728 1162.07 53.7713C1173.43 69.8698 1180.3 87.9214 1182.67 107.926H1106.85C1103.89 95.2604 1097.68 85.3173 1088.21 78.0966C1078.74 70.876 1067.02 67.2656 1053.05 67.2656C1029.38 67.2656 1011.38 77.5639 999.074 98.1605C986.881 118.757 980.667 146.752 980.43 182.145H982.916C988.361 171.373 995.7 162.199 1004.93 154.624C1014.28 146.929 1024.88 141.07 1036.72 137.045C1048.67 132.902 1061.28 130.831 1074.54 130.831C1096.08 130.831 1115.26 135.921 1132.06 146.101C1148.87 156.162 1162.13 170.012 1171.84 187.649C1181.54 205.286 1186.4 225.469 1186.4 248.196C1186.4 272.817 1180.66 294.716 1169.17 313.892C1157.81 333.068 1141.89 348.101 1121.41 358.991C1101.05 369.763 1077.38 375.09 1050.39 374.972ZM1050.03 314.602C1061.87 314.602 1072.46 311.761 1081.82 306.08C1091.17 300.398 1098.51 292.704 1103.83 282.997C1109.16 273.291 1111.82 262.401 1111.82 250.327C1111.82 238.253 1109.16 227.422 1103.83 217.834C1098.62 208.246 1091.4 200.611 1082.17 194.929C1072.94 189.247 1062.4 186.406 1050.57 186.406C1041.69 186.406 1033.46 188.063 1025.88 191.378C1018.43 194.692 1011.86 199.309 1006.18 205.227C1000.61 211.146 996.233 218.011 993.037 225.824C989.841 233.518 988.243 241.745 988.243 250.504C988.243 262.223 990.906 272.936 996.233 282.642C1001.68 292.349 1009.02 300.102 1018.25 305.902C1027.6 311.702 1038.2 314.602 1050.03 314.602Z" stroke="#9796A5" stroke-opacity="0.35" stroke-width="2" mask="url(#path-1-outside-1_218_49)"/>
</svg>
