<svg width="1144" height="374" viewBox="0 0 1144 374" fill="none" xmlns="http://www.w3.org/2000/svg">
<path d="M162.486 5.36363V369H85.6041V78.3395H83.4734L0.199219 130.541V62.3594L90.2205 5.36363H162.486ZM380.482 0.392032C399.184 0.392032 417.177 3.52887 434.459 9.80253C451.859 16.0762 467.366 26.0786 480.979 39.8097C494.71 53.5407 505.541 71.7699 513.472 94.4972C521.521 117.106 525.605 144.864 525.723 177.771C525.723 208.666 522.231 236.247 515.247 260.513C508.382 284.661 498.498 305.198 485.595 322.125C472.693 339.052 457.127 351.955 438.898 360.832C420.669 369.592 400.309 373.972 377.818 373.972C353.552 373.972 332.127 369.296 313.543 359.945C294.958 350.475 279.984 337.632 268.621 321.415C257.375 305.08 250.569 286.732 248.202 266.372H324.018C326.978 279.63 333.192 289.928 342.662 297.267C352.132 304.488 363.85 308.098 377.818 308.098C401.492 308.098 419.485 297.8 431.795 277.203C444.106 256.488 450.321 228.138 450.439 192.153H447.953C442.508 202.807 435.169 211.981 425.936 219.675C416.703 227.25 406.109 233.11 394.153 237.253C382.316 241.396 369.71 243.467 356.334 243.467C334.909 243.467 315.792 238.437 298.983 228.375C282.174 218.313 268.917 204.464 259.21 186.827C249.504 169.189 244.651 149.066 244.651 126.457C244.532 102.073 250.155 80.3518 261.518 61.294C272.882 42.2363 288.744 27.3215 309.104 16.5497C329.582 5.65955 353.375 0.273657 380.482 0.392032ZM381.014 60.7613C369.059 60.7613 358.405 63.6023 349.054 69.2841C339.821 74.9659 332.482 82.6008 327.037 92.1889C321.71 101.777 319.106 112.49 319.224 124.327C319.224 136.282 321.829 147.054 327.037 156.642C332.364 166.112 339.584 173.687 348.699 179.369C357.932 184.933 368.467 187.714 380.304 187.714C389.182 187.714 397.409 186.057 404.984 182.743C412.56 179.428 419.13 174.871 424.693 169.071C430.375 163.152 434.814 156.346 438.01 148.652C441.206 140.958 442.804 132.79 442.804 124.149C442.686 112.667 439.963 102.132 434.636 92.544C429.31 82.956 421.971 75.2618 412.619 69.4616C403.268 63.6614 392.733 60.7613 381.014 60.7613ZM710.56 0.392032C729.262 0.392032 747.255 3.52887 764.537 9.80253C781.938 16.0762 797.444 26.0786 811.057 39.8097C824.788 53.5407 835.619 71.7699 843.55 94.4972C851.599 117.106 855.683 144.864 855.801 177.771C855.801 208.666 852.309 236.247 845.325 260.513C838.46 284.661 828.576 305.198 815.673 322.125C802.771 339.052 787.205 351.955 768.976 360.832C750.747 369.592 730.387 373.972 707.896 373.972C683.63 373.972 662.205 369.296 643.621 359.945C625.036 350.475 610.063 337.632 598.699 321.415C587.454 305.08 580.647 286.732 578.28 266.372H654.097C657.056 279.63 663.27 289.928 672.74 297.267C682.21 304.488 693.929 308.098 707.896 308.098C731.571 308.098 749.563 297.8 761.874 277.203C774.184 256.488 780.399 228.138 780.517 192.153H778.031C772.586 202.807 765.247 211.981 756.014 219.675C746.781 227.25 736.187 233.11 724.232 237.253C712.394 241.396 699.788 243.467 686.412 243.467C664.987 243.467 645.87 238.437 629.061 228.375C612.252 218.313 598.995 204.464 589.288 186.827C579.582 169.189 574.729 149.066 574.729 126.457C574.61 102.073 580.233 80.3518 591.597 61.294C602.96 42.2363 618.822 27.3215 639.182 16.5497C659.66 5.65955 683.453 0.273657 710.56 0.392032ZM711.092 60.7613C699.137 60.7613 688.483 63.6023 679.132 69.2841C669.899 74.9659 662.56 82.6008 657.115 92.1889C651.788 101.777 649.184 112.49 649.303 124.327C649.303 136.282 651.907 147.054 657.115 156.642C662.442 166.112 669.662 173.687 678.777 179.369C688.01 184.933 698.545 187.714 710.382 187.714C719.26 187.714 727.487 186.057 735.062 182.743C742.638 179.428 749.208 174.871 754.771 169.071C760.453 163.152 764.892 156.346 768.088 148.652C771.284 140.958 772.882 132.79 772.882 124.149C772.764 112.667 770.041 102.132 764.714 92.544C759.388 82.956 752.049 75.2618 742.697 69.4616C733.346 63.6614 722.811 60.7613 711.092 60.7613ZM913.685 369L1064.43 70.7045V68.2188H888.827V5.36363H1143.98V69.1065L993.053 369H913.685Z" fill="white" fill-opacity="0.6"/>
<path d="M162.486 5.36363H163.486V4.36363H162.486V5.36363ZM162.486 369V370H163.486V369H162.486ZM85.6041 369H84.6041V370H85.6041V369ZM85.6041 78.3395H86.6041V77.3395H85.6041V78.3395ZM83.4734 78.3395V77.3395H83.1858L82.9422 77.4922L83.4734 78.3395ZM0.199219 130.541H-0.800781V132.348L0.730354 131.388L0.199219 130.541ZM0.199219 62.3594L-0.335714 61.5145L-0.800781 61.8089V62.3594H0.199219ZM90.2205 5.36363V4.36363H89.9306L89.6856 4.51873L90.2205 5.36363ZM161.486 5.36363V369H163.486V5.36363H161.486ZM162.486 368H85.6041V370H162.486V368ZM86.6041 369V78.3395H84.6041V369H86.6041ZM85.6041 77.3395H83.4734V79.3395H85.6041V77.3395ZM82.9422 77.4922L-0.331917 129.694L0.730354 131.388L84.0045 79.1868L82.9422 77.4922ZM1.19922 130.541V62.3594H-0.800781V130.541H1.19922ZM0.734152 63.2043L90.7555 6.20852L89.6856 4.51873L-0.335714 61.5145L0.734152 63.2043ZM90.2205 6.36363H162.486V4.36363H90.2205V6.36363ZM380.482 0.392032L380.477 1.39203H380.482V0.392032ZM434.459 9.80253L434.118 10.7425L434.12 10.7433L434.459 9.80253ZM480.979 39.8097L480.269 40.5137L480.272 40.5168L480.979 39.8097ZM513.472 94.4972L512.527 94.8266L512.53 94.8326L513.472 94.4972ZM525.723 177.771H526.723L526.723 177.768L525.723 177.771ZM515.247 260.513L514.286 260.236L514.285 260.239L515.247 260.513ZM485.595 322.125L486.39 322.731L486.39 322.731L485.595 322.125ZM438.898 360.832L439.331 361.734L439.336 361.731L438.898 360.832ZM313.543 359.945L313.089 360.836L313.093 360.838L313.543 359.945ZM268.621 321.415L267.797 321.982L267.802 321.989L268.621 321.415ZM248.202 266.372V265.372H247.079L247.208 266.488L248.202 266.372ZM324.018 266.372L324.994 266.154L324.82 265.372H324.018V266.372ZM342.662 297.267L342.049 298.057L342.056 298.062L342.662 297.267ZM431.795 277.203L432.654 277.716L432.655 277.714L431.795 277.203ZM450.439 192.153L451.439 192.157L451.442 191.153H450.439V192.153ZM447.953 192.153V191.153H447.341L447.063 191.698L447.953 192.153ZM425.936 219.675L426.57 220.448L426.576 220.443L425.936 219.675ZM394.153 237.253L393.826 236.308L393.823 236.309L394.153 237.253ZM298.983 228.375L298.469 229.233L298.469 229.233L298.983 228.375ZM259.21 186.827L258.334 187.309L258.334 187.309L259.21 186.827ZM244.651 126.457H245.651L245.651 126.453L244.651 126.457ZM261.518 61.294L262.377 61.8062L262.377 61.8062L261.518 61.294ZM309.104 16.5497L309.571 17.4336L309.573 17.4326L309.104 16.5497ZM349.054 69.2841L348.535 68.4295L348.53 68.4324L349.054 69.2841ZM327.037 92.1889L326.167 91.6951L326.163 91.7033L327.037 92.1889ZM319.224 124.327H320.224L320.224 124.317L319.224 124.327ZM327.037 156.642L326.158 157.119L326.162 157.126L326.165 157.132L327.037 156.642ZM348.699 179.369L348.17 180.218L348.176 180.222L348.183 180.226L348.699 179.369ZM404.984 182.743L404.584 181.827L404.584 181.827L404.984 182.743ZM424.693 169.071L423.972 168.378L423.972 168.379L424.693 169.071ZM438.01 148.652L438.933 149.036L438.933 149.036L438.01 148.652ZM442.804 124.149H443.804L443.804 124.139L442.804 124.149ZM434.636 92.544L435.511 92.0584L435.511 92.0584L434.636 92.544ZM412.619 69.4616L413.146 68.6118L413.146 68.6118L412.619 69.4616ZM380.482 1.39203C399.07 1.39203 416.947 4.50925 434.118 10.7425L434.8 8.86255C417.407 2.54848 399.299 -0.607968 380.482 -0.607968V1.39203ZM434.12 10.7433C451.374 16.9643 466.756 26.8832 480.269 40.5137L481.689 39.1056C467.976 25.274 452.345 15.1882 434.798 8.86181L434.12 10.7433ZM480.272 40.5168C493.874 54.119 504.635 72.2082 512.527 94.8266L514.416 94.1677C506.447 71.3316 495.546 52.9624 481.686 39.1025L480.272 40.5168ZM512.53 94.8326C520.53 117.304 524.605 144.942 524.723 177.775L526.723 177.768C526.604 144.786 522.512 116.909 514.414 94.1618L512.53 94.8326ZM524.723 177.771C524.723 208.593 521.239 236.077 514.286 260.236L516.208 260.789C523.223 236.416 526.723 208.74 526.723 177.771H524.723ZM514.285 260.239C507.448 284.288 497.614 304.707 484.8 321.519L486.39 322.731C499.381 305.688 509.315 285.033 516.209 260.786L514.285 260.239ZM484.8 321.519C471.987 338.328 456.542 351.127 438.46 359.933L439.336 361.731C457.712 352.782 473.398 339.776 486.39 322.731L484.8 321.519ZM438.465 359.931C420.385 368.619 400.176 372.972 377.818 372.972V374.972C400.442 374.972 420.952 370.565 439.331 361.734L438.465 359.931ZM377.818 372.972C353.682 372.972 332.415 368.322 313.992 359.051L313.093 360.838C331.838 370.27 353.422 374.972 377.818 374.972V372.972ZM313.997 359.054C295.55 349.654 280.704 336.917 269.44 320.841L267.802 321.989C279.264 338.347 294.367 351.296 313.089 360.836L313.997 359.054ZM269.444 320.848C258.295 304.652 251.544 286.46 249.195 266.257L247.208 266.488C249.594 287.004 256.456 305.508 267.797 321.982L269.444 320.848ZM248.202 267.372H324.018V265.372H248.202V267.372ZM323.042 266.59C326.045 280.043 332.371 290.557 342.049 298.057L343.275 296.477C334.013 289.299 327.91 279.217 324.994 266.154L323.042 266.59ZM342.056 298.062C351.728 305.438 363.671 309.098 377.818 309.098V307.098C364.03 307.098 352.535 303.538 343.268 296.472L342.056 298.062ZM377.818 309.098C401.85 309.098 420.166 298.61 432.654 277.716L430.937 276.69C418.804 296.99 401.135 307.098 377.818 307.098V309.098ZM432.655 277.714C445.091 256.788 451.32 228.238 451.439 192.157L449.439 192.15C449.321 228.038 443.121 256.189 430.936 276.692L432.655 277.714ZM450.439 191.153H447.953V193.153H450.439V191.153ZM447.063 191.698C441.679 202.231 434.426 211.298 425.296 218.906L426.576 220.443C435.912 212.663 443.337 203.383 448.844 192.609L447.063 191.698ZM425.302 218.902C416.165 226.398 405.677 232.201 393.826 236.308L394.481 238.198C406.541 234.018 417.241 228.103 426.57 220.448L425.302 218.902ZM393.823 236.309C382.099 240.412 369.605 242.467 356.334 242.467V244.467C369.815 244.467 382.534 242.379 394.484 238.197L393.823 236.309ZM356.334 242.467C335.072 242.467 316.136 237.477 299.497 227.517L298.469 229.233C315.448 239.396 334.745 244.467 356.334 244.467V242.467ZM299.497 227.517C282.844 217.549 269.71 203.831 260.086 186.345L258.334 187.309C268.124 205.097 281.504 219.078 298.469 229.233L299.497 227.517ZM260.086 186.345C250.471 168.872 245.651 148.919 245.651 126.457H243.651C243.651 149.214 248.537 169.506 258.334 187.309L260.086 186.345ZM245.651 126.453C245.533 102.231 251.116 80.6924 262.377 61.8062L260.66 60.7819C249.194 80.0112 243.531 101.914 243.651 126.462L245.651 126.453ZM262.377 61.8062C273.643 42.912 289.367 28.1231 309.571 17.4336L308.636 15.6658C288.121 26.5199 272.121 41.5605 260.66 60.7819L262.377 61.8062ZM309.573 17.4326C329.883 6.63219 353.507 1.27425 380.477 1.39202L380.486 -0.607959C353.242 -0.726933 329.281 4.68692 308.634 15.6668L309.573 17.4326ZM381.014 59.7613C368.893 59.7613 358.057 62.6438 348.535 68.4295L349.573 70.1387C358.754 64.5607 369.224 61.7613 381.014 61.7613V59.7613ZM348.53 68.4324C339.151 74.2041 331.694 81.9632 326.167 91.6951L327.906 92.6827C333.27 83.2385 340.491 75.7277 349.578 70.1358L348.53 68.4324ZM326.163 91.7033C320.745 101.455 318.105 112.34 318.224 124.337L320.224 124.317C320.108 112.639 322.675 102.099 327.911 92.6746L326.163 91.7033ZM318.224 124.327C318.224 136.433 320.863 147.371 326.158 157.119L327.916 156.165C322.794 146.737 320.224 136.132 320.224 124.327H318.224ZM326.165 157.132C331.573 166.747 338.911 174.446 348.17 180.218L349.228 178.521C340.257 172.929 333.154 165.477 327.909 156.152L326.165 157.132ZM348.183 180.226C357.587 185.892 368.303 188.714 380.304 188.714V186.714C368.63 186.714 358.277 183.973 349.215 178.513L348.183 180.226ZM380.304 188.714C389.309 188.714 397.674 187.033 405.385 183.659L404.584 181.827C397.143 185.082 389.054 186.714 380.304 186.714V188.714ZM405.385 183.659C413.078 180.293 419.758 175.661 425.415 169.763L423.972 168.379C418.502 174.081 412.042 178.564 404.584 181.827L405.385 183.659ZM425.415 169.764C431.184 163.754 435.691 156.843 438.933 149.036L437.086 148.268C433.937 155.85 429.566 162.551 423.972 168.378L425.415 169.764ZM438.933 149.036C442.182 141.215 443.804 132.917 443.804 124.149H441.804C441.804 132.664 440.23 140.7 437.086 148.268L438.933 149.036ZM443.804 124.139C443.684 112.498 440.922 101.799 435.511 92.0584L433.762 93.0297C439.004 102.465 441.687 112.836 441.804 124.159L443.804 124.139ZM435.511 92.0584C430.101 82.3208 422.642 74.5016 413.146 68.6118L412.092 70.3114C421.299 76.0221 428.519 83.5911 433.762 93.0297L435.511 92.0584ZM413.146 68.6118C403.626 62.707 392.907 59.7613 381.014 59.7613V61.7613C392.559 61.7613 402.91 64.6159 412.092 70.3114L413.146 68.6118ZM710.56 0.392032L710.555 1.39203H710.56V0.392032ZM764.537 9.80253L764.196 10.7425L764.198 10.7433L764.537 9.80253ZM811.057 39.8097L810.347 40.5137L810.35 40.5168L811.057 39.8097ZM843.55 94.4972L842.606 94.8266L842.608 94.8326L843.55 94.4972ZM855.801 177.771H856.801L856.801 177.768L855.801 177.771ZM845.325 260.513L844.364 260.236L844.363 260.239L845.325 260.513ZM815.673 322.125L816.469 322.731L816.469 322.731L815.673 322.125ZM768.976 360.832L769.409 361.734L769.414 361.731L768.976 360.832ZM643.621 359.945L643.167 360.836L643.171 360.838L643.621 359.945ZM598.699 321.415L597.875 321.982L597.88 321.989L598.699 321.415ZM578.28 266.372V265.372H577.157L577.287 266.488L578.28 266.372ZM654.097 266.372L655.073 266.154L654.898 265.372H654.097V266.372ZM672.74 297.267L672.127 298.057L672.134 298.062L672.74 297.267ZM761.874 277.203L762.732 277.716L762.733 277.714L761.874 277.203ZM780.517 192.153L781.517 192.157L781.52 191.153H780.517V192.153ZM778.031 192.153V191.153H777.419L777.141 191.698L778.031 192.153ZM756.014 219.675L756.649 220.448L756.654 220.443L756.014 219.675ZM724.232 237.253L723.904 236.308L723.901 236.309L724.232 237.253ZM629.061 228.375L628.547 229.233L628.547 229.233L629.061 228.375ZM589.288 186.827L588.412 187.309L588.412 187.309L589.288 186.827ZM574.729 126.457H575.729L575.729 126.453L574.729 126.457ZM591.597 61.294L592.455 61.8062L592.455 61.8062L591.597 61.294ZM639.182 16.5497L639.649 17.4336L639.651 17.4326L639.182 16.5497ZM679.132 69.2841L678.613 68.4295L678.608 68.4324L679.132 69.2841ZM657.115 92.1889L656.245 91.6951L656.241 91.7033L657.115 92.1889ZM649.303 124.327H650.303L650.303 124.317L649.303 124.327ZM657.115 156.642L656.236 157.119L656.24 157.126L656.243 157.132L657.115 156.642ZM678.777 179.369L678.248 180.218L678.254 180.222L678.261 180.226L678.777 179.369ZM735.062 182.743L734.662 181.827L734.662 181.827L735.062 182.743ZM754.771 169.071L754.05 168.378L754.05 168.379L754.771 169.071ZM768.088 148.652L769.012 149.036L769.012 149.036L768.088 148.652ZM772.882 124.149H773.882L773.882 124.139L772.882 124.149ZM764.714 92.544L765.589 92.0584L765.589 92.0584L764.714 92.544ZM742.697 69.4616L743.225 68.6118L743.225 68.6118L742.697 69.4616ZM710.56 1.39203C729.148 1.39203 747.025 4.50925 764.196 10.7425L764.878 8.86255C747.485 2.54848 729.377 -0.607968 710.56 -0.607968V1.39203ZM764.198 10.7433C781.452 16.9643 796.834 26.8832 810.347 40.5137L811.767 39.1056C798.055 25.274 782.423 15.1882 764.876 8.86181L764.198 10.7433ZM810.35 40.5168C823.952 54.119 834.713 72.2082 842.606 94.8266L844.494 94.1677C836.525 71.3316 825.624 52.9624 811.764 39.1025L810.35 40.5168ZM842.608 94.8326C850.608 117.304 854.683 144.942 854.801 177.775L856.801 177.768C856.683 144.786 852.59 116.909 844.492 94.1618L842.608 94.8326ZM854.801 177.771C854.801 208.593 851.317 236.077 844.364 260.236L846.286 260.789C853.301 236.416 856.801 208.74 856.801 177.771H854.801ZM844.363 260.239C837.526 284.288 827.692 304.707 814.878 321.519L816.469 322.731C829.459 305.688 839.393 285.033 846.287 260.786L844.363 260.239ZM814.878 321.519C802.065 338.328 786.62 351.127 768.538 359.933L769.414 361.731C787.79 352.782 803.476 339.776 816.469 322.731L814.878 321.519ZM768.543 359.931C750.463 368.619 730.254 372.972 707.896 372.972V374.972C730.52 374.972 751.03 370.565 769.409 361.734L768.543 359.931ZM707.896 372.972C683.76 372.972 662.494 368.322 644.07 359.051L643.171 360.838C661.916 370.27 683.5 374.972 707.896 374.972V372.972ZM644.075 359.054C625.628 349.654 610.783 336.917 599.518 320.841L597.88 321.989C609.342 338.347 624.445 351.296 643.167 360.836L644.075 359.054ZM599.523 320.848C588.373 304.652 581.622 286.46 579.273 266.257L577.287 266.488C579.672 287.004 586.534 305.508 597.875 321.982L599.523 320.848ZM578.28 267.372H654.097V265.372H578.28V267.372ZM653.121 266.59C656.123 280.043 662.449 290.557 672.127 298.057L673.353 296.477C664.092 289.299 657.988 279.217 655.073 266.154L653.121 266.59ZM672.134 298.062C681.807 305.438 693.749 309.098 707.896 309.098V307.098C694.108 307.098 682.613 303.538 673.346 296.472L672.134 298.062ZM707.896 309.098C731.928 309.098 750.244 298.61 762.732 277.716L761.015 276.69C748.882 296.99 731.213 307.098 707.896 307.098V309.098ZM762.733 277.714C775.169 256.788 781.398 228.238 781.517 192.157L779.517 192.15C779.399 228.038 773.199 256.189 761.014 276.692L762.733 277.714ZM780.517 191.153H778.031V193.153H780.517V191.153ZM777.141 191.698C771.757 202.231 764.504 211.298 755.374 218.906L756.654 220.443C765.991 212.663 773.415 203.383 778.922 192.609L777.141 191.698ZM755.38 218.902C746.244 226.398 735.755 232.201 723.904 236.308L724.559 238.198C736.619 234.018 747.319 228.103 756.649 220.448L755.38 218.902ZM723.901 236.309C712.177 240.412 699.683 242.467 686.412 242.467V244.467C699.893 244.467 712.612 242.379 724.562 238.197L723.901 236.309ZM686.412 242.467C665.15 242.467 646.214 237.477 629.575 227.517L628.547 229.233C645.526 239.396 664.823 244.467 686.412 244.467V242.467ZM629.575 227.517C612.922 217.549 599.788 203.831 590.164 186.345L588.412 187.309C598.202 205.097 611.582 219.078 628.547 229.233L629.575 227.517ZM590.164 186.345C580.549 168.872 575.729 148.919 575.729 126.457H573.729C573.729 149.214 578.615 169.506 588.412 187.309L590.164 186.345ZM575.729 126.453C575.611 102.231 581.194 80.6924 592.455 61.8062L590.738 60.7819C579.272 80.0112 573.61 101.914 573.729 126.462L575.729 126.453ZM592.455 61.8062C603.722 42.912 619.445 28.1231 639.649 17.4336L638.714 15.6658C618.199 26.5199 602.199 41.5605 590.738 60.7819L592.455 61.8062ZM639.651 17.4326C659.961 6.63219 683.586 1.27425 710.555 1.39202L710.564 -0.607959C683.32 -0.726933 659.359 4.68692 638.712 15.6668L639.651 17.4326ZM711.092 59.7613C698.971 59.7613 688.135 62.6438 678.613 68.4295L679.651 70.1387C688.832 64.5607 699.302 61.7613 711.092 61.7613V59.7613ZM678.608 68.4324C669.229 74.2041 661.772 81.9632 656.246 91.6951L657.985 92.6827C663.348 83.2385 670.569 75.7277 679.656 70.1358L678.608 68.4324ZM656.241 91.7033C650.823 101.455 648.183 112.34 648.303 124.337L650.303 124.317C650.186 112.639 652.753 102.099 657.989 92.6746L656.241 91.7033ZM648.303 124.327C648.303 136.433 650.941 147.371 656.236 157.119L657.994 156.165C652.872 146.737 650.303 136.132 650.303 124.327H648.303ZM656.243 157.132C661.651 166.747 668.989 174.446 678.248 180.218L679.306 178.521C670.336 172.929 663.232 165.477 657.987 156.152L656.243 157.132ZM678.261 180.226C687.665 185.892 698.382 188.714 710.382 188.714V186.714C698.708 186.714 688.355 183.973 679.293 178.513L678.261 180.226ZM710.382 188.714C719.388 188.714 727.752 187.033 735.463 183.659L734.662 181.827C727.221 185.082 719.132 186.714 710.382 186.714V188.714ZM735.463 183.659C743.156 180.293 749.836 175.661 755.493 169.763L754.05 168.379C748.58 174.081 742.12 178.564 734.662 181.827L735.463 183.659ZM755.493 169.764C761.262 163.754 765.769 156.843 769.012 149.036L767.165 148.268C764.015 155.85 759.644 162.551 754.05 168.378L755.493 169.764ZM769.012 149.036C772.26 141.215 773.882 132.917 773.882 124.149H771.882C771.882 132.664 770.308 140.7 767.165 148.268L769.012 149.036ZM773.882 124.139C773.762 112.498 771 101.799 765.589 92.0584L763.84 93.0297C769.082 102.465 771.765 112.836 771.882 124.159L773.882 124.139ZM765.589 92.0584C760.179 82.3208 752.72 74.5016 743.225 68.6118L742.17 70.3114C751.377 76.0221 758.597 83.5911 763.84 93.0297L765.589 92.0584ZM743.225 68.6118C733.705 62.707 722.985 59.7613 711.092 59.7613V61.7613C722.637 61.7613 732.988 64.6159 742.17 70.3114L743.225 68.6118ZM913.685 369L912.792 368.549L912.059 370H913.685V369ZM1064.43 70.7045L1065.32 71.1556L1065.43 70.9429V70.7045H1064.43ZM1064.43 68.2188H1065.43V67.2188H1064.43V68.2188ZM888.827 68.2188H887.827V69.2188H888.827V68.2188ZM888.827 5.36363V4.36363H887.827V5.36363H888.827ZM1143.98 5.36363H1144.98V4.36363H1143.98V5.36363ZM1143.98 69.1065L1144.87 69.5561L1144.98 69.344V69.1065H1143.98ZM993.053 369V370H993.669L993.946 369.45L993.053 369ZM914.577 369.451L1065.32 71.1556L1063.54 70.2535L912.792 368.549L914.577 369.451ZM1065.43 70.7045V68.2188H1063.43V70.7045H1065.43ZM1064.43 67.2188H888.827V69.2188H1064.43V67.2188ZM889.827 68.2188V5.36363H887.827V68.2188H889.827ZM888.827 6.36363H1143.98V4.36363H888.827V6.36363ZM1142.98 5.36363V69.1065H1144.98V5.36363H1142.98ZM1143.08 68.657L992.159 368.55L993.946 369.45L1144.87 69.5561L1143.08 68.657ZM993.053 368H913.685V370H993.053V368Z" fill="#9796A5" fill-opacity="0.15"/>
</svg>
