<svg width="1189" height="376" viewBox="0 0 1189 376" fill="none" xmlns="http://www.w3.org/2000/svg">
<mask id="path-1-outside-1_220_69" maskUnits="userSpaceOnUse" x="0.714844" y="0.390137" width="1188" height="376" fill="black">
<rect fill="white" x="0.714844" y="0.390137" width="1188" height="376"/>
<path d="M164.002 6.36364V370H87.1197V79.3395H84.989L1.71484 131.541V63.3594L91.7362 6.36364H164.002Z"/>
<path d="M381.997 1.39205C400.7 1.39205 418.692 4.52888 435.974 10.8025C453.375 17.0762 468.882 27.0786 482.494 40.8097C496.225 54.5407 507.056 72.7699 514.987 95.4972C523.036 118.106 527.12 145.864 527.239 178.771C527.239 209.666 523.747 237.247 516.763 261.513C509.897 285.661 500.013 306.198 487.111 323.125C474.208 340.052 458.643 352.955 440.413 361.832C422.184 370.592 401.824 374.972 379.334 374.972C355.068 374.972 333.643 370.296 315.058 360.945C296.474 351.475 281.5 338.632 270.136 322.415C258.891 306.08 252.085 287.732 249.717 267.372H325.534C328.493 280.63 334.708 290.928 344.178 298.267C353.647 305.488 365.366 309.098 379.334 309.098C403.008 309.098 421 298.8 433.311 278.203C445.622 257.488 451.836 229.138 451.955 193.153H449.469C444.024 203.807 436.685 212.981 427.452 220.675C418.219 228.25 407.625 234.11 395.669 238.253C383.832 242.396 371.225 244.467 357.849 244.467C336.424 244.467 317.307 239.437 300.499 229.375C283.69 219.313 270.432 205.464 260.726 187.827C251.019 170.189 246.166 150.066 246.166 127.457C246.048 103.073 251.67 81.3518 263.034 62.294C274.398 43.2363 290.259 28.3215 310.619 17.5497C331.098 6.65957 354.89 1.27367 381.997 1.39205ZM382.53 61.7614C370.574 61.7614 359.921 64.6023 350.57 70.2841C341.337 75.9659 333.998 83.6009 328.553 93.1889C323.226 102.777 320.622 113.49 320.74 125.327C320.74 137.282 323.344 148.054 328.553 157.642C333.879 167.112 341.1 174.688 350.215 180.369C359.447 185.933 369.982 188.714 381.82 188.714C390.697 188.714 398.924 187.057 406.5 183.743C414.076 180.429 420.645 175.871 426.209 170.071C431.891 164.152 436.33 157.346 439.526 149.652C442.722 141.958 444.32 133.79 444.32 125.149C444.201 113.667 441.479 103.132 436.152 93.544C430.825 83.956 423.486 76.2618 414.135 70.4616C404.784 64.6615 394.249 61.7614 382.53 61.7614Z"/>
<path d="M712.075 1.39205C730.778 1.39205 748.77 4.52888 766.053 10.8025C783.453 17.0762 798.96 27.0786 812.572 40.8097C826.304 54.5407 837.134 72.7699 845.065 95.4972C853.115 118.106 857.198 145.864 857.317 178.771C857.317 209.666 853.825 237.247 846.841 261.513C839.975 285.661 830.091 306.198 817.189 323.125C804.286 340.052 788.721 352.955 770.491 361.832C752.262 370.592 731.902 374.972 709.412 374.972C685.146 374.972 663.721 370.296 645.136 360.945C626.552 351.475 611.578 338.632 600.214 322.415C588.969 306.08 582.163 287.732 579.795 267.372H655.612C658.572 280.63 664.786 290.928 674.256 298.267C683.725 305.488 695.444 309.098 709.412 309.098C733.086 309.098 751.079 298.8 763.389 278.203C775.7 257.488 781.914 229.138 782.033 193.153H779.547C774.102 203.807 766.763 212.981 757.53 220.675C748.297 228.25 737.703 234.11 725.747 238.253C713.91 242.396 701.303 244.467 687.928 244.467C666.502 244.467 647.385 239.437 630.577 229.375C613.768 219.313 600.51 205.464 590.804 187.827C581.098 170.189 576.244 150.066 576.244 127.457C576.126 103.073 581.749 81.3518 593.112 62.294C604.476 43.2363 620.338 28.3215 640.697 17.5497C661.176 6.65957 684.968 1.27367 712.075 1.39205ZM712.608 61.7614C700.652 61.7614 689.999 64.6023 680.648 70.2841C671.415 75.9659 664.076 83.6009 658.631 93.1889C653.304 102.777 650.7 113.49 650.818 125.327C650.818 137.282 653.422 148.054 658.631 157.642C663.957 167.112 671.178 174.688 680.293 180.369C689.526 185.933 700.061 188.714 711.898 188.714C720.776 188.714 729.002 187.057 736.578 183.743C744.154 180.429 750.723 175.871 756.287 170.071C761.969 164.152 766.408 157.346 769.604 149.652C772.8 141.958 774.398 133.79 774.398 125.149C774.279 113.667 771.557 103.132 766.23 93.544C760.903 83.956 753.564 76.2618 744.213 70.4616C734.862 64.6615 724.327 61.7614 712.608 61.7614Z"/>
<path d="M1046.24 374.972C1018.89 374.972 994.568 370.533 973.261 361.655C952.073 352.659 935.442 340.407 923.368 324.901C911.294 309.394 905.257 291.816 905.257 272.166C905.257 257.015 908.69 243.106 915.555 230.44C922.539 217.656 932.009 207.062 943.964 198.658C955.92 190.135 969.296 184.69 984.092 182.322V179.837C964.679 175.93 948.936 166.52 936.862 151.605C924.788 136.572 918.751 119.112 918.751 99.2259C918.751 80.4048 924.256 63.6553 935.264 48.9773C946.273 34.1809 961.365 22.5805 980.541 14.1761C999.836 5.65341 1021.73 1.39205 1046.24 1.39205C1070.74 1.39205 1092.58 5.65341 1111.76 14.1761C1131.05 22.6989 1146.2 34.3584 1157.21 49.1548C1168.22 63.8329 1173.78 80.5232 1173.9 99.2259C1173.78 119.231 1167.63 136.69 1155.43 151.605C1143.24 166.52 1127.62 175.93 1108.56 179.837V182.322C1123.12 184.69 1136.32 190.135 1148.15 198.658C1160.11 207.062 1169.58 217.656 1176.56 230.44C1183.67 243.106 1187.28 257.015 1187.39 272.166C1187.28 291.816 1181.18 309.394 1169.11 324.901C1157.03 340.407 1140.34 352.659 1119.04 361.655C1097.85 370.533 1073.58 374.972 1046.24 374.972ZM1046.24 318.509C1058.43 318.509 1069.08 316.319 1078.2 311.939C1087.31 307.441 1094.41 301.286 1099.5 293.473C1104.71 285.542 1107.32 276.428 1107.32 266.129C1107.32 255.594 1104.65 246.302 1099.33 238.253C1094 230.085 1086.78 223.693 1077.66 219.077C1068.55 214.342 1058.07 211.974 1046.24 211.974C1034.52 211.974 1024.04 214.342 1014.81 219.077C1005.58 223.693 998.297 230.085 992.97 238.253C987.762 246.302 985.158 255.594 985.158 266.129C985.158 276.428 987.703 285.542 992.793 293.473C997.883 301.286 1005.04 307.441 1014.28 311.939C1023.51 316.319 1034.16 318.509 1046.24 318.509ZM1046.24 156.044C1056.42 156.044 1065.47 153.973 1073.4 149.83C1081.33 145.687 1087.55 139.946 1092.05 132.607C1096.54 125.268 1098.79 116.804 1098.79 107.216C1098.79 97.7462 1096.54 89.4602 1092.05 82.358C1087.55 75.1373 1081.39 69.5147 1073.58 65.4901C1065.77 61.3471 1056.65 59.2756 1046.24 59.2756C1035.94 59.2756 1026.82 61.3471 1018.89 65.4901C1010.96 69.5147 1004.75 75.1373 1000.25 82.358C995.87 89.4602 993.68 97.7462 993.68 107.216C993.68 116.804 995.929 125.268 1000.43 132.607C1004.93 139.946 1011.14 145.687 1019.07 149.83C1027 153.973 1036.06 156.044 1046.24 156.044Z"/>
</mask>
<path d="M164.002 6.36364V370H87.1197V79.3395H84.989L1.71484 131.541V63.3594L91.7362 6.36364H164.002Z" fill="white" fill-opacity="0.6"/>
<path d="M381.997 1.39205C400.7 1.39205 418.692 4.52888 435.974 10.8025C453.375 17.0762 468.882 27.0786 482.494 40.8097C496.225 54.5407 507.056 72.7699 514.987 95.4972C523.036 118.106 527.12 145.864 527.239 178.771C527.239 209.666 523.747 237.247 516.763 261.513C509.897 285.661 500.013 306.198 487.111 323.125C474.208 340.052 458.643 352.955 440.413 361.832C422.184 370.592 401.824 374.972 379.334 374.972C355.068 374.972 333.643 370.296 315.058 360.945C296.474 351.475 281.5 338.632 270.136 322.415C258.891 306.08 252.085 287.732 249.717 267.372H325.534C328.493 280.63 334.708 290.928 344.178 298.267C353.647 305.488 365.366 309.098 379.334 309.098C403.008 309.098 421 298.8 433.311 278.203C445.622 257.488 451.836 229.138 451.955 193.153H449.469C444.024 203.807 436.685 212.981 427.452 220.675C418.219 228.25 407.625 234.11 395.669 238.253C383.832 242.396 371.225 244.467 357.849 244.467C336.424 244.467 317.307 239.437 300.499 229.375C283.69 219.313 270.432 205.464 260.726 187.827C251.019 170.189 246.166 150.066 246.166 127.457C246.048 103.073 251.67 81.3518 263.034 62.294C274.398 43.2363 290.259 28.3215 310.619 17.5497C331.098 6.65957 354.89 1.27367 381.997 1.39205ZM382.53 61.7614C370.574 61.7614 359.921 64.6023 350.57 70.2841C341.337 75.9659 333.998 83.6009 328.553 93.1889C323.226 102.777 320.622 113.49 320.74 125.327C320.74 137.282 323.344 148.054 328.553 157.642C333.879 167.112 341.1 174.688 350.215 180.369C359.447 185.933 369.982 188.714 381.82 188.714C390.697 188.714 398.924 187.057 406.5 183.743C414.076 180.429 420.645 175.871 426.209 170.071C431.891 164.152 436.33 157.346 439.526 149.652C442.722 141.958 444.32 133.79 444.32 125.149C444.201 113.667 441.479 103.132 436.152 93.544C430.825 83.956 423.486 76.2618 414.135 70.4616C404.784 64.6615 394.249 61.7614 382.53 61.7614Z" fill="white" fill-opacity="0.6"/>
<path d="M712.075 1.39205C730.778 1.39205 748.77 4.52888 766.053 10.8025C783.453 17.0762 798.96 27.0786 812.572 40.8097C826.304 54.5407 837.134 72.7699 845.065 95.4972C853.115 118.106 857.198 145.864 857.317 178.771C857.317 209.666 853.825 237.247 846.841 261.513C839.975 285.661 830.091 306.198 817.189 323.125C804.286 340.052 788.721 352.955 770.491 361.832C752.262 370.592 731.902 374.972 709.412 374.972C685.146 374.972 663.721 370.296 645.136 360.945C626.552 351.475 611.578 338.632 600.214 322.415C588.969 306.08 582.163 287.732 579.795 267.372H655.612C658.572 280.63 664.786 290.928 674.256 298.267C683.725 305.488 695.444 309.098 709.412 309.098C733.086 309.098 751.079 298.8 763.389 278.203C775.7 257.488 781.914 229.138 782.033 193.153H779.547C774.102 203.807 766.763 212.981 757.53 220.675C748.297 228.25 737.703 234.11 725.747 238.253C713.91 242.396 701.303 244.467 687.928 244.467C666.502 244.467 647.385 239.437 630.577 229.375C613.768 219.313 600.51 205.464 590.804 187.827C581.098 170.189 576.244 150.066 576.244 127.457C576.126 103.073 581.749 81.3518 593.112 62.294C604.476 43.2363 620.338 28.3215 640.697 17.5497C661.176 6.65957 684.968 1.27367 712.075 1.39205ZM712.608 61.7614C700.652 61.7614 689.999 64.6023 680.648 70.2841C671.415 75.9659 664.076 83.6009 658.631 93.1889C653.304 102.777 650.7 113.49 650.818 125.327C650.818 137.282 653.422 148.054 658.631 157.642C663.957 167.112 671.178 174.688 680.293 180.369C689.526 185.933 700.061 188.714 711.898 188.714C720.776 188.714 729.002 187.057 736.578 183.743C744.154 180.429 750.723 175.871 756.287 170.071C761.969 164.152 766.408 157.346 769.604 149.652C772.8 141.958 774.398 133.79 774.398 125.149C774.279 113.667 771.557 103.132 766.23 93.544C760.903 83.956 753.564 76.2618 744.213 70.4616C734.862 64.6615 724.327 61.7614 712.608 61.7614Z" fill="white" fill-opacity="0.6"/>
<path d="M1046.24 374.972C1018.89 374.972 994.568 370.533 973.261 361.655C952.073 352.659 935.442 340.407 923.368 324.901C911.294 309.394 905.257 291.816 905.257 272.166C905.257 257.015 908.69 243.106 915.555 230.44C922.539 217.656 932.009 207.062 943.964 198.658C955.92 190.135 969.296 184.69 984.092 182.322V179.837C964.679 175.93 948.936 166.52 936.862 151.605C924.788 136.572 918.751 119.112 918.751 99.2259C918.751 80.4048 924.256 63.6553 935.264 48.9773C946.273 34.1809 961.365 22.5805 980.541 14.1761C999.836 5.65341 1021.73 1.39205 1046.24 1.39205C1070.74 1.39205 1092.58 5.65341 1111.76 14.1761C1131.05 22.6989 1146.2 34.3584 1157.21 49.1548C1168.22 63.8329 1173.78 80.5232 1173.9 99.2259C1173.78 119.231 1167.63 136.69 1155.43 151.605C1143.24 166.52 1127.62 175.93 1108.56 179.837V182.322C1123.12 184.69 1136.32 190.135 1148.15 198.658C1160.11 207.062 1169.58 217.656 1176.56 230.44C1183.67 243.106 1187.28 257.015 1187.39 272.166C1187.28 291.816 1181.18 309.394 1169.11 324.901C1157.03 340.407 1140.34 352.659 1119.04 361.655C1097.85 370.533 1073.58 374.972 1046.24 374.972ZM1046.24 318.509C1058.43 318.509 1069.08 316.319 1078.2 311.939C1087.31 307.441 1094.41 301.286 1099.5 293.473C1104.71 285.542 1107.32 276.428 1107.32 266.129C1107.32 255.594 1104.65 246.302 1099.33 238.253C1094 230.085 1086.78 223.693 1077.66 219.077C1068.55 214.342 1058.07 211.974 1046.24 211.974C1034.52 211.974 1024.04 214.342 1014.81 219.077C1005.58 223.693 998.297 230.085 992.97 238.253C987.762 246.302 985.158 255.594 985.158 266.129C985.158 276.428 987.703 285.542 992.793 293.473C997.883 301.286 1005.04 307.441 1014.28 311.939C1023.51 316.319 1034.16 318.509 1046.24 318.509ZM1046.24 156.044C1056.42 156.044 1065.47 153.973 1073.4 149.83C1081.33 145.687 1087.55 139.946 1092.05 132.607C1096.54 125.268 1098.79 116.804 1098.79 107.216C1098.79 97.7462 1096.54 89.4602 1092.05 82.358C1087.55 75.1373 1081.39 69.5147 1073.58 65.4901C1065.77 61.3471 1056.65 59.2756 1046.24 59.2756C1035.94 59.2756 1026.82 61.3471 1018.89 65.4901C1010.96 69.5147 1004.75 75.1373 1000.25 82.358C995.87 89.4602 993.68 97.7462 993.68 107.216C993.68 116.804 995.929 125.268 1000.43 132.607C1004.93 139.946 1011.14 145.687 1019.07 149.83C1027 153.973 1036.06 156.044 1046.24 156.044Z" fill="white" fill-opacity="0.6"/>
<path d="M164.002 6.36364V370H87.1197V79.3395H84.989L1.71484 131.541V63.3594L91.7362 6.36364H164.002Z" stroke="#9796A5" stroke-opacity="0.15" stroke-width="2" mask="url(#path-1-outside-1_220_69)"/>
<path d="M381.997 1.39205C400.7 1.39205 418.692 4.52888 435.974 10.8025C453.375 17.0762 468.882 27.0786 482.494 40.8097C496.225 54.5407 507.056 72.7699 514.987 95.4972C523.036 118.106 527.12 145.864 527.239 178.771C527.239 209.666 523.747 237.247 516.763 261.513C509.897 285.661 500.013 306.198 487.111 323.125C474.208 340.052 458.643 352.955 440.413 361.832C422.184 370.592 401.824 374.972 379.334 374.972C355.068 374.972 333.643 370.296 315.058 360.945C296.474 351.475 281.5 338.632 270.136 322.415C258.891 306.08 252.085 287.732 249.717 267.372H325.534C328.493 280.63 334.708 290.928 344.178 298.267C353.647 305.488 365.366 309.098 379.334 309.098C403.008 309.098 421 298.8 433.311 278.203C445.622 257.488 451.836 229.138 451.955 193.153H449.469C444.024 203.807 436.685 212.981 427.452 220.675C418.219 228.25 407.625 234.11 395.669 238.253C383.832 242.396 371.225 244.467 357.849 244.467C336.424 244.467 317.307 239.437 300.499 229.375C283.69 219.313 270.432 205.464 260.726 187.827C251.019 170.189 246.166 150.066 246.166 127.457C246.048 103.073 251.67 81.3518 263.034 62.294C274.398 43.2363 290.259 28.3215 310.619 17.5497C331.098 6.65957 354.89 1.27367 381.997 1.39205ZM382.53 61.7614C370.574 61.7614 359.921 64.6023 350.57 70.2841C341.337 75.9659 333.998 83.6009 328.553 93.1889C323.226 102.777 320.622 113.49 320.74 125.327C320.74 137.282 323.344 148.054 328.553 157.642C333.879 167.112 341.1 174.688 350.215 180.369C359.447 185.933 369.982 188.714 381.82 188.714C390.697 188.714 398.924 187.057 406.5 183.743C414.076 180.429 420.645 175.871 426.209 170.071C431.891 164.152 436.33 157.346 439.526 149.652C442.722 141.958 444.32 133.79 444.32 125.149C444.201 113.667 441.479 103.132 436.152 93.544C430.825 83.956 423.486 76.2618 414.135 70.4616C404.784 64.6615 394.249 61.7614 382.53 61.7614Z" stroke="#9796A5" stroke-opacity="0.15" stroke-width="2" mask="url(#path-1-outside-1_220_69)"/>
<path d="M712.075 1.39205C730.778 1.39205 748.77 4.52888 766.053 10.8025C783.453 17.0762 798.96 27.0786 812.572 40.8097C826.304 54.5407 837.134 72.7699 845.065 95.4972C853.115 118.106 857.198 145.864 857.317 178.771C857.317 209.666 853.825 237.247 846.841 261.513C839.975 285.661 830.091 306.198 817.189 323.125C804.286 340.052 788.721 352.955 770.491 361.832C752.262 370.592 731.902 374.972 709.412 374.972C685.146 374.972 663.721 370.296 645.136 360.945C626.552 351.475 611.578 338.632 600.214 322.415C588.969 306.08 582.163 287.732 579.795 267.372H655.612C658.572 280.63 664.786 290.928 674.256 298.267C683.725 305.488 695.444 309.098 709.412 309.098C733.086 309.098 751.079 298.8 763.389 278.203C775.7 257.488 781.914 229.138 782.033 193.153H779.547C774.102 203.807 766.763 212.981 757.53 220.675C748.297 228.25 737.703 234.11 725.747 238.253C713.91 242.396 701.303 244.467 687.928 244.467C666.502 244.467 647.385 239.437 630.577 229.375C613.768 219.313 600.51 205.464 590.804 187.827C581.098 170.189 576.244 150.066 576.244 127.457C576.126 103.073 581.749 81.3518 593.112 62.294C604.476 43.2363 620.338 28.3215 640.697 17.5497C661.176 6.65957 684.968 1.27367 712.075 1.39205ZM712.608 61.7614C700.652 61.7614 689.999 64.6023 680.648 70.2841C671.415 75.9659 664.076 83.6009 658.631 93.1889C653.304 102.777 650.7 113.49 650.818 125.327C650.818 137.282 653.422 148.054 658.631 157.642C663.957 167.112 671.178 174.688 680.293 180.369C689.526 185.933 700.061 188.714 711.898 188.714C720.776 188.714 729.002 187.057 736.578 183.743C744.154 180.429 750.723 175.871 756.287 170.071C761.969 164.152 766.408 157.346 769.604 149.652C772.8 141.958 774.398 133.79 774.398 125.149C774.279 113.667 771.557 103.132 766.23 93.544C760.903 83.956 753.564 76.2618 744.213 70.4616C734.862 64.6615 724.327 61.7614 712.608 61.7614Z" stroke="#9796A5" stroke-opacity="0.15" stroke-width="2" mask="url(#path-1-outside-1_220_69)"/>
<path d="M1046.24 374.972C1018.89 374.972 994.568 370.533 973.261 361.655C952.073 352.659 935.442 340.407 923.368 324.901C911.294 309.394 905.257 291.816 905.257 272.166C905.257 257.015 908.69 243.106 915.555 230.44C922.539 217.656 932.009 207.062 943.964 198.658C955.92 190.135 969.296 184.69 984.092 182.322V179.837C964.679 175.93 948.936 166.52 936.862 151.605C924.788 136.572 918.751 119.112 918.751 99.2259C918.751 80.4048 924.256 63.6553 935.264 48.9773C946.273 34.1809 961.365 22.5805 980.541 14.1761C999.836 5.65341 1021.73 1.39205 1046.24 1.39205C1070.74 1.39205 1092.58 5.65341 1111.76 14.1761C1131.05 22.6989 1146.2 34.3584 1157.21 49.1548C1168.22 63.8329 1173.78 80.5232 1173.9 99.2259C1173.78 119.231 1167.63 136.69 1155.43 151.605C1143.24 166.52 1127.62 175.93 1108.56 179.837V182.322C1123.12 184.69 1136.32 190.135 1148.15 198.658C1160.11 207.062 1169.58 217.656 1176.56 230.44C1183.67 243.106 1187.28 257.015 1187.39 272.166C1187.28 291.816 1181.18 309.394 1169.11 324.901C1157.03 340.407 1140.34 352.659 1119.04 361.655C1097.85 370.533 1073.58 374.972 1046.24 374.972ZM1046.24 318.509C1058.43 318.509 1069.08 316.319 1078.2 311.939C1087.31 307.441 1094.41 301.286 1099.5 293.473C1104.71 285.542 1107.32 276.428 1107.32 266.129C1107.32 255.594 1104.65 246.302 1099.33 238.253C1094 230.085 1086.78 223.693 1077.66 219.077C1068.55 214.342 1058.07 211.974 1046.24 211.974C1034.52 211.974 1024.04 214.342 1014.81 219.077C1005.58 223.693 998.297 230.085 992.97 238.253C987.762 246.302 985.158 255.594 985.158 266.129C985.158 276.428 987.703 285.542 992.793 293.473C997.883 301.286 1005.04 307.441 1014.28 311.939C1023.51 316.319 1034.16 318.509 1046.24 318.509ZM1046.24 156.044C1056.42 156.044 1065.47 153.973 1073.4 149.83C1081.33 145.687 1087.55 139.946 1092.05 132.607C1096.54 125.268 1098.79 116.804 1098.79 107.216C1098.79 97.7462 1096.54 89.4602 1092.05 82.358C1087.55 75.1373 1081.39 69.5147 1073.58 65.4901C1065.77 61.3471 1056.65 59.2756 1046.24 59.2756C1035.94 59.2756 1026.82 61.3471 1018.89 65.4901C1010.96 69.5147 1004.75 75.1373 1000.25 82.358C995.87 89.4602 993.68 97.7462 993.68 107.216C993.68 116.804 995.929 125.268 1000.43 132.607C1004.93 139.946 1011.14 145.687 1019.07 149.83C1027 153.973 1036.06 156.044 1046.24 156.044Z" stroke="#9796A5" stroke-opacity="0.15" stroke-width="2" mask="url(#path-1-outside-1_220_69)"/>
</svg>
