<svg width="1189" height="376" viewBox="0 0 1189 376" fill="none" xmlns="http://www.w3.org/2000/svg">
<mask id="path-1-outside-1_218_50" maskUnits="userSpaceOnUse" x="0.958984" y="0.390137" width="1188" height="376" fill="black">
<rect fill="white" x="0.958984" y="0.390137" width="1188" height="376"/>
<path d="M164.246 6.36364V370H87.3638V79.3395H85.2331L1.95898 131.541V63.3594L91.9803 6.36364H164.246Z"/>
<path d="M382.241 1.39205C400.944 1.39205 418.936 4.52888 436.219 10.8025C453.619 17.0762 469.126 27.0786 482.738 40.8097C496.47 54.5407 507.301 72.7699 515.231 95.4972C523.281 118.106 527.364 145.864 527.483 178.771C527.483 209.666 523.991 237.247 517.007 261.513C510.141 285.661 500.257 306.198 487.355 323.125C474.452 340.052 458.887 352.955 440.658 361.832C422.428 370.592 402.068 374.972 379.578 374.972C355.312 374.972 333.887 370.296 315.302 360.945C296.718 351.475 281.744 338.632 270.38 322.415C259.135 306.08 252.329 287.732 249.961 267.372H325.778C328.738 280.63 334.952 290.928 344.422 298.267C353.891 305.488 365.61 309.098 379.578 309.098C403.252 309.098 421.245 298.8 433.555 278.203C445.866 257.488 452.08 229.138 452.199 193.153H449.713C444.268 203.807 436.929 212.981 427.696 220.675C418.463 228.25 407.869 234.11 395.913 238.253C384.076 242.396 371.47 244.467 358.094 244.467C336.668 244.467 317.551 239.437 300.743 229.375C283.934 219.313 270.676 205.464 260.97 187.827C251.264 170.189 246.41 150.066 246.41 127.457C246.292 103.073 251.915 81.3518 263.278 62.294C274.642 43.2363 290.504 28.3215 310.863 17.5497C331.342 6.65957 355.134 1.27367 382.241 1.39205ZM382.774 61.7614C370.818 61.7614 360.165 64.6023 350.814 70.2841C341.581 75.9659 334.242 83.6009 328.797 93.1889C323.47 102.777 320.866 113.49 320.984 125.327C320.984 137.282 323.588 148.054 328.797 157.642C334.123 167.112 341.344 174.688 350.459 180.369C359.692 185.933 370.227 188.714 382.064 188.714C390.942 188.714 399.168 187.057 406.744 183.743C414.32 180.429 420.889 175.871 426.453 170.071C432.135 164.152 436.574 157.346 439.77 149.652C442.966 141.958 444.564 133.79 444.564 125.149C444.445 113.667 441.723 103.132 436.396 93.544C431.069 83.956 423.73 76.2618 414.379 70.4616C405.028 64.6615 394.493 61.7614 382.774 61.7614Z"/>
<path d="M712.319 1.39205C731.022 1.39205 749.014 4.52888 766.297 10.8025C783.697 17.0762 799.204 27.0786 812.817 40.8097C826.548 54.5407 837.379 72.7699 845.31 95.4972C853.359 118.106 857.443 145.864 857.561 178.771C857.561 209.666 854.069 237.247 847.085 261.513C840.22 285.661 830.336 306.198 817.433 323.125C804.531 340.052 788.965 352.955 770.736 361.832C752.506 370.592 732.147 374.972 709.656 374.972C685.39 374.972 663.965 370.296 645.38 360.945C626.796 351.475 611.822 338.632 600.459 322.415C589.213 306.08 582.407 287.732 580.04 267.372H655.856C658.816 280.63 665.03 290.928 674.5 298.267C683.97 305.488 695.688 309.098 709.656 309.098C733.33 309.098 751.323 298.8 763.633 278.203C775.944 257.488 782.158 229.138 782.277 193.153H779.791C774.346 203.807 767.007 212.981 757.774 220.675C748.541 228.25 737.947 234.11 725.991 238.253C714.154 242.396 701.548 244.467 688.172 244.467C666.747 244.467 647.63 239.437 630.821 229.375C614.012 219.313 600.755 205.464 591.048 187.827C581.342 170.189 576.488 150.066 576.488 127.457C576.37 103.073 581.993 81.3518 593.356 62.294C604.72 43.2363 620.582 28.3215 640.942 17.5497C661.42 6.65957 685.212 1.27367 712.319 1.39205ZM712.852 61.7614C700.897 61.7614 690.243 64.6023 680.892 70.2841C671.659 75.9659 664.32 83.6009 658.875 93.1889C653.548 102.777 650.944 113.49 651.062 125.327C651.062 137.282 653.666 148.054 658.875 157.642C664.202 167.112 671.422 174.688 680.537 180.369C689.77 185.933 700.305 188.714 712.142 188.714C721.02 188.714 729.247 187.057 736.822 183.743C744.398 180.429 750.968 175.871 756.531 170.071C762.213 164.152 766.652 157.346 769.848 149.652C773.044 141.958 774.642 133.79 774.642 125.149C774.523 113.667 771.801 103.132 766.474 93.544C761.148 83.956 753.809 76.2618 744.457 70.4616C735.106 64.6615 724.571 61.7614 712.852 61.7614Z"/>
<path d="M1042.4 1.39205C1061.1 1.39205 1079.09 4.52888 1096.37 10.8025C1113.78 17.0762 1129.28 27.0786 1142.89 40.8097C1156.63 54.5407 1167.46 72.7699 1175.39 95.4972C1183.44 118.106 1187.52 145.864 1187.64 178.771C1187.64 209.666 1184.15 237.247 1177.16 261.513C1170.3 285.661 1160.41 306.198 1147.51 323.125C1134.61 340.052 1119.04 352.955 1100.81 361.832C1082.58 370.592 1062.22 374.972 1039.73 374.972C1015.47 374.972 994.043 370.296 975.459 360.945C956.874 351.475 941.9 338.632 930.537 322.415C919.291 306.08 912.485 287.732 910.118 267.372H985.935C988.894 280.63 995.108 290.928 1004.58 298.267C1014.05 305.488 1025.77 309.098 1039.73 309.098C1063.41 309.098 1081.4 298.8 1093.71 278.203C1106.02 257.488 1112.24 229.138 1112.35 193.153H1109.87C1104.42 203.807 1097.08 212.981 1087.85 220.675C1078.62 228.25 1068.02 234.11 1056.07 238.253C1044.23 242.396 1031.63 244.467 1018.25 244.467C996.825 244.467 977.708 239.437 960.899 229.375C944.09 219.313 930.833 205.464 921.126 187.827C911.42 170.189 906.567 150.066 906.567 127.457C906.448 103.073 912.071 81.3518 923.435 62.294C934.798 43.2363 950.66 28.3215 971.02 17.5497C991.498 6.65957 1015.29 1.27367 1042.4 1.39205ZM1042.93 61.7614C1030.97 61.7614 1020.32 64.6023 1010.97 70.2841C1001.74 75.9659 994.398 83.6009 988.953 93.1889C983.626 102.777 981.022 113.49 981.14 125.327C981.14 137.282 983.745 148.054 988.953 157.642C994.28 167.112 1001.5 174.688 1010.61 180.369C1019.85 185.933 1030.38 188.714 1042.22 188.714C1051.1 188.714 1059.32 187.057 1066.9 183.743C1074.48 180.429 1081.05 175.871 1086.61 170.071C1092.29 164.152 1096.73 157.346 1099.93 149.652C1103.12 141.958 1104.72 133.79 1104.72 125.149C1104.6 113.667 1101.88 103.132 1096.55 93.544C1091.23 83.956 1083.89 76.2618 1074.54 70.4616C1065.18 64.6615 1054.65 61.7614 1042.93 61.7614Z"/>
</mask>
<path d="M164.246 6.36364V370H87.3638V79.3395H85.2331L1.95898 131.541V63.3594L91.9803 6.36364H164.246Z" fill="white" fill-opacity="0.6"/>
<path d="M382.241 1.39205C400.944 1.39205 418.936 4.52888 436.219 10.8025C453.619 17.0762 469.126 27.0786 482.738 40.8097C496.47 54.5407 507.301 72.7699 515.231 95.4972C523.281 118.106 527.364 145.864 527.483 178.771C527.483 209.666 523.991 237.247 517.007 261.513C510.141 285.661 500.257 306.198 487.355 323.125C474.452 340.052 458.887 352.955 440.658 361.832C422.428 370.592 402.068 374.972 379.578 374.972C355.312 374.972 333.887 370.296 315.302 360.945C296.718 351.475 281.744 338.632 270.38 322.415C259.135 306.08 252.329 287.732 249.961 267.372H325.778C328.738 280.63 334.952 290.928 344.422 298.267C353.891 305.488 365.61 309.098 379.578 309.098C403.252 309.098 421.245 298.8 433.555 278.203C445.866 257.488 452.08 229.138 452.199 193.153H449.713C444.268 203.807 436.929 212.981 427.696 220.675C418.463 228.25 407.869 234.11 395.913 238.253C384.076 242.396 371.47 244.467 358.094 244.467C336.668 244.467 317.551 239.437 300.743 229.375C283.934 219.313 270.676 205.464 260.97 187.827C251.264 170.189 246.41 150.066 246.41 127.457C246.292 103.073 251.915 81.3518 263.278 62.294C274.642 43.2363 290.504 28.3215 310.863 17.5497C331.342 6.65957 355.134 1.27367 382.241 1.39205ZM382.774 61.7614C370.818 61.7614 360.165 64.6023 350.814 70.2841C341.581 75.9659 334.242 83.6009 328.797 93.1889C323.47 102.777 320.866 113.49 320.984 125.327C320.984 137.282 323.588 148.054 328.797 157.642C334.123 167.112 341.344 174.688 350.459 180.369C359.692 185.933 370.227 188.714 382.064 188.714C390.942 188.714 399.168 187.057 406.744 183.743C414.32 180.429 420.889 175.871 426.453 170.071C432.135 164.152 436.574 157.346 439.77 149.652C442.966 141.958 444.564 133.79 444.564 125.149C444.445 113.667 441.723 103.132 436.396 93.544C431.069 83.956 423.73 76.2618 414.379 70.4616C405.028 64.6615 394.493 61.7614 382.774 61.7614Z" fill="white" fill-opacity="0.6"/>
<path d="M712.319 1.39205C731.022 1.39205 749.014 4.52888 766.297 10.8025C783.697 17.0762 799.204 27.0786 812.817 40.8097C826.548 54.5407 837.379 72.7699 845.31 95.4972C853.359 118.106 857.443 145.864 857.561 178.771C857.561 209.666 854.069 237.247 847.085 261.513C840.22 285.661 830.336 306.198 817.433 323.125C804.531 340.052 788.965 352.955 770.736 361.832C752.506 370.592 732.147 374.972 709.656 374.972C685.39 374.972 663.965 370.296 645.38 360.945C626.796 351.475 611.822 338.632 600.459 322.415C589.213 306.08 582.407 287.732 580.04 267.372H655.856C658.816 280.63 665.03 290.928 674.5 298.267C683.97 305.488 695.688 309.098 709.656 309.098C733.33 309.098 751.323 298.8 763.633 278.203C775.944 257.488 782.158 229.138 782.277 193.153H779.791C774.346 203.807 767.007 212.981 757.774 220.675C748.541 228.25 737.947 234.11 725.991 238.253C714.154 242.396 701.548 244.467 688.172 244.467C666.747 244.467 647.63 239.437 630.821 229.375C614.012 219.313 600.755 205.464 591.048 187.827C581.342 170.189 576.488 150.066 576.488 127.457C576.37 103.073 581.993 81.3518 593.356 62.294C604.72 43.2363 620.582 28.3215 640.942 17.5497C661.42 6.65957 685.212 1.27367 712.319 1.39205ZM712.852 61.7614C700.897 61.7614 690.243 64.6023 680.892 70.2841C671.659 75.9659 664.32 83.6009 658.875 93.1889C653.548 102.777 650.944 113.49 651.062 125.327C651.062 137.282 653.666 148.054 658.875 157.642C664.202 167.112 671.422 174.688 680.537 180.369C689.77 185.933 700.305 188.714 712.142 188.714C721.02 188.714 729.247 187.057 736.822 183.743C744.398 180.429 750.968 175.871 756.531 170.071C762.213 164.152 766.652 157.346 769.848 149.652C773.044 141.958 774.642 133.79 774.642 125.149C774.523 113.667 771.801 103.132 766.474 93.544C761.148 83.956 753.809 76.2618 744.457 70.4616C735.106 64.6615 724.571 61.7614 712.852 61.7614Z" fill="white" fill-opacity="0.6"/>
<path d="M1042.4 1.39205C1061.1 1.39205 1079.09 4.52888 1096.37 10.8025C1113.78 17.0762 1129.28 27.0786 1142.89 40.8097C1156.63 54.5407 1167.46 72.7699 1175.39 95.4972C1183.44 118.106 1187.52 145.864 1187.64 178.771C1187.64 209.666 1184.15 237.247 1177.16 261.513C1170.3 285.661 1160.41 306.198 1147.51 323.125C1134.61 340.052 1119.04 352.955 1100.81 361.832C1082.58 370.592 1062.22 374.972 1039.73 374.972C1015.47 374.972 994.043 370.296 975.459 360.945C956.874 351.475 941.9 338.632 930.537 322.415C919.291 306.08 912.485 287.732 910.118 267.372H985.935C988.894 280.63 995.108 290.928 1004.58 298.267C1014.05 305.488 1025.77 309.098 1039.73 309.098C1063.41 309.098 1081.4 298.8 1093.71 278.203C1106.02 257.488 1112.24 229.138 1112.35 193.153H1109.87C1104.42 203.807 1097.08 212.981 1087.85 220.675C1078.62 228.25 1068.02 234.11 1056.07 238.253C1044.23 242.396 1031.63 244.467 1018.25 244.467C996.825 244.467 977.708 239.437 960.899 229.375C944.09 219.313 930.833 205.464 921.126 187.827C911.42 170.189 906.567 150.066 906.567 127.457C906.448 103.073 912.071 81.3518 923.435 62.294C934.798 43.2363 950.66 28.3215 971.02 17.5497C991.498 6.65957 1015.29 1.27367 1042.4 1.39205ZM1042.93 61.7614C1030.97 61.7614 1020.32 64.6023 1010.97 70.2841C1001.74 75.9659 994.398 83.6009 988.953 93.1889C983.626 102.777 981.022 113.49 981.14 125.327C981.14 137.282 983.745 148.054 988.953 157.642C994.28 167.112 1001.5 174.688 1010.61 180.369C1019.85 185.933 1030.38 188.714 1042.22 188.714C1051.1 188.714 1059.32 187.057 1066.9 183.743C1074.48 180.429 1081.05 175.871 1086.61 170.071C1092.29 164.152 1096.73 157.346 1099.93 149.652C1103.12 141.958 1104.72 133.79 1104.72 125.149C1104.6 113.667 1101.88 103.132 1096.55 93.544C1091.23 83.956 1083.89 76.2618 1074.54 70.4616C1065.18 64.6615 1054.65 61.7614 1042.93 61.7614Z" fill="white" fill-opacity="0.6"/>
<path d="M164.246 6.36364V370H87.3638V79.3395H85.2331L1.95898 131.541V63.3594L91.9803 6.36364H164.246Z" stroke="#9796A5" stroke-opacity="0.15" stroke-width="2" mask="url(#path-1-outside-1_218_50)"/>
<path d="M382.241 1.39205C400.944 1.39205 418.936 4.52888 436.219 10.8025C453.619 17.0762 469.126 27.0786 482.738 40.8097C496.47 54.5407 507.301 72.7699 515.231 95.4972C523.281 118.106 527.364 145.864 527.483 178.771C527.483 209.666 523.991 237.247 517.007 261.513C510.141 285.661 500.257 306.198 487.355 323.125C474.452 340.052 458.887 352.955 440.658 361.832C422.428 370.592 402.068 374.972 379.578 374.972C355.312 374.972 333.887 370.296 315.302 360.945C296.718 351.475 281.744 338.632 270.38 322.415C259.135 306.08 252.329 287.732 249.961 267.372H325.778C328.738 280.63 334.952 290.928 344.422 298.267C353.891 305.488 365.61 309.098 379.578 309.098C403.252 309.098 421.245 298.8 433.555 278.203C445.866 257.488 452.08 229.138 452.199 193.153H449.713C444.268 203.807 436.929 212.981 427.696 220.675C418.463 228.25 407.869 234.11 395.913 238.253C384.076 242.396 371.47 244.467 358.094 244.467C336.668 244.467 317.551 239.437 300.743 229.375C283.934 219.313 270.676 205.464 260.97 187.827C251.264 170.189 246.41 150.066 246.41 127.457C246.292 103.073 251.915 81.3518 263.278 62.294C274.642 43.2363 290.504 28.3215 310.863 17.5497C331.342 6.65957 355.134 1.27367 382.241 1.39205ZM382.774 61.7614C370.818 61.7614 360.165 64.6023 350.814 70.2841C341.581 75.9659 334.242 83.6009 328.797 93.1889C323.47 102.777 320.866 113.49 320.984 125.327C320.984 137.282 323.588 148.054 328.797 157.642C334.123 167.112 341.344 174.688 350.459 180.369C359.692 185.933 370.227 188.714 382.064 188.714C390.942 188.714 399.168 187.057 406.744 183.743C414.32 180.429 420.889 175.871 426.453 170.071C432.135 164.152 436.574 157.346 439.77 149.652C442.966 141.958 444.564 133.79 444.564 125.149C444.445 113.667 441.723 103.132 436.396 93.544C431.069 83.956 423.73 76.2618 414.379 70.4616C405.028 64.6615 394.493 61.7614 382.774 61.7614Z" stroke="#9796A5" stroke-opacity="0.15" stroke-width="2" mask="url(#path-1-outside-1_218_50)"/>
<path d="M712.319 1.39205C731.022 1.39205 749.014 4.52888 766.297 10.8025C783.697 17.0762 799.204 27.0786 812.817 40.8097C826.548 54.5407 837.379 72.7699 845.31 95.4972C853.359 118.106 857.443 145.864 857.561 178.771C857.561 209.666 854.069 237.247 847.085 261.513C840.22 285.661 830.336 306.198 817.433 323.125C804.531 340.052 788.965 352.955 770.736 361.832C752.506 370.592 732.147 374.972 709.656 374.972C685.39 374.972 663.965 370.296 645.38 360.945C626.796 351.475 611.822 338.632 600.459 322.415C589.213 306.08 582.407 287.732 580.04 267.372H655.856C658.816 280.63 665.03 290.928 674.5 298.267C683.97 305.488 695.688 309.098 709.656 309.098C733.33 309.098 751.323 298.8 763.633 278.203C775.944 257.488 782.158 229.138 782.277 193.153H779.791C774.346 203.807 767.007 212.981 757.774 220.675C748.541 228.25 737.947 234.11 725.991 238.253C714.154 242.396 701.548 244.467 688.172 244.467C666.747 244.467 647.63 239.437 630.821 229.375C614.012 219.313 600.755 205.464 591.048 187.827C581.342 170.189 576.488 150.066 576.488 127.457C576.37 103.073 581.993 81.3518 593.356 62.294C604.72 43.2363 620.582 28.3215 640.942 17.5497C661.42 6.65957 685.212 1.27367 712.319 1.39205ZM712.852 61.7614C700.897 61.7614 690.243 64.6023 680.892 70.2841C671.659 75.9659 664.32 83.6009 658.875 93.1889C653.548 102.777 650.944 113.49 651.062 125.327C651.062 137.282 653.666 148.054 658.875 157.642C664.202 167.112 671.422 174.688 680.537 180.369C689.77 185.933 700.305 188.714 712.142 188.714C721.02 188.714 729.247 187.057 736.822 183.743C744.398 180.429 750.968 175.871 756.531 170.071C762.213 164.152 766.652 157.346 769.848 149.652C773.044 141.958 774.642 133.79 774.642 125.149C774.523 113.667 771.801 103.132 766.474 93.544C761.148 83.956 753.809 76.2618 744.457 70.4616C735.106 64.6615 724.571 61.7614 712.852 61.7614Z" stroke="#9796A5" stroke-opacity="0.15" stroke-width="2" mask="url(#path-1-outside-1_218_50)"/>
<path d="M1042.4 1.39205C1061.1 1.39205 1079.09 4.52888 1096.37 10.8025C1113.78 17.0762 1129.28 27.0786 1142.89 40.8097C1156.63 54.5407 1167.46 72.7699 1175.39 95.4972C1183.44 118.106 1187.52 145.864 1187.64 178.771C1187.64 209.666 1184.15 237.247 1177.16 261.513C1170.3 285.661 1160.41 306.198 1147.51 323.125C1134.61 340.052 1119.04 352.955 1100.81 361.832C1082.58 370.592 1062.22 374.972 1039.73 374.972C1015.47 374.972 994.043 370.296 975.459 360.945C956.874 351.475 941.9 338.632 930.537 322.415C919.291 306.08 912.485 287.732 910.118 267.372H985.935C988.894 280.63 995.108 290.928 1004.58 298.267C1014.05 305.488 1025.77 309.098 1039.73 309.098C1063.41 309.098 1081.4 298.8 1093.71 278.203C1106.02 257.488 1112.24 229.138 1112.35 193.153H1109.87C1104.42 203.807 1097.08 212.981 1087.85 220.675C1078.62 228.25 1068.02 234.11 1056.07 238.253C1044.23 242.396 1031.63 244.467 1018.25 244.467C996.825 244.467 977.708 239.437 960.899 229.375C944.09 219.313 930.833 205.464 921.126 187.827C911.42 170.189 906.567 150.066 906.567 127.457C906.448 103.073 912.071 81.3518 923.435 62.294C934.798 43.2363 950.66 28.3215 971.02 17.5497C991.498 6.65957 1015.29 1.27367 1042.4 1.39205ZM1042.93 61.7614C1030.97 61.7614 1020.32 64.6023 1010.97 70.2841C1001.74 75.9659 994.398 83.6009 988.953 93.1889C983.626 102.777 981.022 113.49 981.14 125.327C981.14 137.282 983.745 148.054 988.953 157.642C994.28 167.112 1001.5 174.688 1010.61 180.369C1019.85 185.933 1030.38 188.714 1042.22 188.714C1051.1 188.714 1059.32 187.057 1066.9 183.743C1074.48 180.429 1081.05 175.871 1086.61 170.071C1092.29 164.152 1096.73 157.346 1099.93 149.652C1103.12 141.958 1104.72 133.79 1104.72 125.149C1104.6 113.667 1101.88 103.132 1096.55 93.544C1091.23 83.956 1083.89 76.2618 1074.54 70.4616C1065.18 64.6615 1054.65 61.7614 1042.93 61.7614Z" stroke="#9796A5" stroke-opacity="0.15" stroke-width="2" mask="url(#path-1-outside-1_218_50)"/>
</svg>
