<svg width="1299" height="379" viewBox="0 0 1299 379" fill="none" xmlns="http://www.w3.org/2000/svg">
<path d="M4.64635 370V314.602L134.085 194.751C145.094 184.098 154.327 174.51 161.784 165.987C169.36 157.465 175.101 149.119 179.007 140.952C182.913 132.666 184.867 123.729 184.867 114.141C184.867 103.487 182.44 94.3135 177.587 86.6194C172.733 78.8069 166.105 72.8291 157.7 68.6861C149.296 64.4248 139.767 62.2941 129.114 62.2941C117.987 62.2941 108.28 64.5431 99.9944 69.0412C91.7084 73.5393 85.3163 79.9906 80.8182 88.3949C76.3201 96.7993 74.0711 106.802 74.0711 118.402H1.09521C1.09521 94.6094 6.4811 73.9537 17.2529 56.4347C28.0247 38.9158 43.117 25.3623 62.5299 15.7742C81.9428 6.18612 104.315 1.39209 129.646 1.39209C155.688 1.39209 178.356 6.00857 197.651 15.2415C217.064 24.3561 232.156 37.0218 242.928 53.2387C253.699 69.4555 259.085 88.0398 259.085 108.992C259.085 122.723 256.363 136.276 250.918 149.652C245.591 163.028 236.062 177.884 222.331 194.219C208.6 210.436 189.246 229.908 164.27 252.635L111.18 304.659V307.145H263.879V370H4.64635Z" fill="white" fill-opacity="0.6"/>
<path d="M462.166 377.99C431.626 377.872 405.348 370.355 383.331 355.44C361.432 340.526 344.564 318.923 332.727 290.632C321.008 262.341 315.208 228.31 315.326 188.537C315.326 148.883 321.186 115.088 332.905 87.152C344.742 59.2164 361.61 37.9688 383.508 23.4092C405.525 8.73111 431.744 1.39209 462.166 1.39209C492.587 1.39209 518.747 8.73111 540.646 23.4092C562.663 38.0872 579.59 59.394 591.427 87.3296C603.264 115.147 609.124 148.883 609.005 188.537C609.005 228.428 603.087 262.519 591.25 290.81C579.531 319.1 562.722 340.703 540.824 355.618C518.925 370.533 492.706 377.99 462.166 377.99ZM462.166 314.247C482.999 314.247 499.63 303.771 512.059 282.82C524.488 261.868 530.644 230.44 530.525 188.537C530.525 160.956 527.684 137.992 522.003 119.645C516.439 101.297 508.508 87.5071 498.21 78.2742C488.03 69.0412 476.015 64.4248 462.166 64.4248C441.451 64.4248 424.879 74.7823 412.45 95.4972C400.021 116.212 393.747 147.225 393.629 188.537C393.629 216.473 396.411 239.792 401.974 258.494C407.656 277.079 415.646 291.046 425.944 300.398C436.243 309.631 448.316 314.247 462.166 314.247Z" fill="white" fill-opacity="0.6"/>
<path d="M806.404 377.99C775.864 377.872 749.586 370.355 727.569 355.44C705.67 340.526 688.802 318.923 676.965 290.632C665.247 262.341 659.446 228.31 659.565 188.537C659.565 148.883 665.424 115.088 677.143 87.152C688.98 59.2164 705.848 37.9688 727.747 23.4092C749.764 8.73111 775.983 1.39209 806.404 1.39209C836.826 1.39209 862.986 8.73111 884.884 23.4092C906.901 38.0872 923.828 59.394 935.666 87.3296C947.503 115.147 953.362 148.883 953.244 188.537C953.244 228.428 947.325 262.519 935.488 290.81C923.769 319.1 906.96 340.703 885.062 355.618C863.163 370.533 836.944 377.99 806.404 377.99ZM806.404 314.247C827.238 314.247 843.869 303.771 856.298 282.82C868.727 261.868 874.882 230.44 874.764 188.537C874.764 160.956 871.923 137.992 866.241 119.645C860.677 101.297 852.746 87.5071 842.448 78.2742C832.268 69.0412 820.254 64.4248 806.404 64.4248C785.689 64.4248 769.117 74.7823 756.688 95.4972C744.259 116.212 737.986 147.225 737.867 188.537C737.867 216.473 740.649 239.792 746.212 258.494C751.894 277.079 759.884 291.046 770.183 300.398C780.481 309.631 792.555 314.247 806.404 314.247Z" fill="white" fill-opacity="0.6"/>
<path d="M1150.64 377.99C1120.1 377.872 1093.82 370.355 1071.81 355.44C1049.91 340.526 1033.04 318.923 1021.2 290.632C1009.48 262.341 1003.68 228.31 1003.8 188.537C1003.8 148.883 1009.66 115.088 1021.38 87.152C1033.22 59.2164 1050.09 37.9688 1071.98 23.4092C1094 8.73111 1120.22 1.39209 1150.64 1.39209C1181.06 1.39209 1207.22 8.73111 1229.12 23.4092C1251.14 38.0872 1268.07 59.394 1279.9 87.3296C1291.74 115.147 1297.6 148.883 1297.48 188.537C1297.48 228.428 1291.56 262.519 1279.73 290.81C1268.01 319.1 1251.2 340.703 1229.3 355.618C1207.4 370.533 1181.18 377.99 1150.64 377.99ZM1150.64 314.247C1171.48 314.247 1188.11 303.771 1200.54 282.82C1212.96 261.868 1219.12 230.44 1219 188.537C1219 160.956 1216.16 137.992 1210.48 119.645C1204.92 101.297 1196.98 87.5071 1186.69 78.2742C1176.51 69.0412 1164.49 64.4248 1150.64 64.4248C1129.93 64.4248 1113.36 74.7823 1100.93 95.4972C1088.5 116.212 1082.22 147.225 1082.11 188.537C1082.11 216.473 1084.89 239.792 1090.45 258.494C1096.13 277.079 1104.12 291.046 1114.42 300.398C1124.72 309.631 1136.79 314.247 1150.64 314.247Z" fill="white" fill-opacity="0.6"/>
<path d="M4.14635 370V370.5H4.64635H263.879H264.379V370V307.145V306.645H263.879H111.68V304.869L164.606 253.005C164.609 253.003 164.611 253.001 164.613 252.999C189.594 230.267 208.963 210.781 222.713 194.542L222.714 194.541C236.463 178.183 246.027 163.282 251.381 149.84C256.849 136.407 259.585 122.79 259.585 108.992C259.585 87.9492 254.175 69.2672 243.344 52.962C232.517 36.6618 217.351 23.9391 197.865 14.7897C178.49 5.51881 155.746 0.89209 129.646 0.89209C104.251 0.89209 81.801 5.69849 62.3085 15.3259C42.8159 24.9533 27.6507 38.5694 16.827 56.1728C5.99955 73.7822 0.595215 94.5317 0.595215 118.402V118.902H1.09521H74.0711H74.5711V118.402C74.5711 106.866 76.8074 96.9485 81.2591 88.6309C85.7116 80.3116 92.0338 73.9316 100.233 69.4807C108.434 65.0289 118.055 62.7941 129.114 62.7941C139.699 62.7941 149.149 64.9106 157.474 69.1321L157.479 69.1346C165.801 73.2371 172.359 79.1516 177.162 86.8832L177.164 86.8861C181.959 94.4875 184.367 103.565 184.367 114.141C184.367 123.658 182.429 132.521 178.556 140.737C174.674 148.852 168.963 157.159 161.41 165.655L161.408 165.658C153.963 174.166 144.742 183.743 133.742 194.388C133.74 194.39 133.739 194.391 133.738 194.392L4.30665 314.235L4.14635 314.384V314.602V370ZM462.164 378.49H462.166C492.79 378.49 519.111 371.011 541.105 356.031C563.096 341.054 579.961 319.368 591.711 291.003C603.58 262.636 609.505 228.476 609.505 188.538C609.624 148.837 603.758 115.03 591.888 87.1345C580.018 59.1227 563.033 37.7333 540.924 22.9935C518.931 8.25233 492.671 0.89209 462.166 0.89209C431.661 0.89209 405.342 8.25241 383.231 22.993C361.239 37.6148 344.313 58.9455 332.444 86.957L332.443 86.9586C320.693 114.971 314.827 148.835 314.826 188.535C314.708 228.356 320.515 262.456 332.265 290.824L332.266 290.825C344.134 319.191 361.059 340.876 383.049 355.854L383.05 355.854C405.161 370.833 431.54 378.371 462.164 378.49ZM530.025 188.537V188.538C530.144 230.409 523.99 261.728 511.629 282.565C499.272 303.395 482.79 313.747 462.166 313.747C448.439 313.747 436.484 309.176 426.278 300.026C416.069 290.754 408.118 276.879 402.453 258.35C396.908 239.71 394.129 216.443 394.129 188.538C394.247 147.261 400.518 116.355 412.879 95.7545C425.235 75.1605 441.659 64.9248 462.166 64.9248C475.892 64.9248 487.787 69.4957 497.874 78.6446L497.876 78.6465C508.085 87.7992 515.977 101.498 521.524 119.79L521.525 119.793C527.187 138.077 530.025 160.987 530.025 188.537ZM806.402 378.49H806.404C837.029 378.49 863.349 371.011 885.343 356.031C907.334 341.054 924.199 319.368 935.949 291.003C947.818 262.636 953.744 228.476 953.744 188.538C953.862 148.837 947.996 115.03 936.126 87.1345C924.257 59.1227 907.272 37.7333 885.162 22.9935C863.169 8.25233 836.909 0.89209 806.404 0.89209C775.899 0.89209 749.581 8.25235 727.47 22.9928C705.478 37.6146 688.552 58.9454 676.682 86.957L676.682 86.9586C664.931 114.971 659.065 148.835 659.065 188.535C658.946 228.356 664.753 262.456 676.503 290.824L676.504 290.825C688.372 319.191 705.297 340.876 727.288 355.854L727.289 355.854C749.4 370.833 775.778 378.371 806.402 378.49ZM874.264 188.537V188.538C874.382 230.409 868.228 261.728 855.868 282.565C843.511 303.395 827.028 313.747 806.404 313.747C792.678 313.747 780.723 309.176 770.516 300.026C760.308 290.754 752.356 276.879 746.691 258.35C741.146 239.71 738.367 216.443 738.367 188.538C738.486 147.261 744.757 116.355 757.117 95.7545C769.473 75.1605 785.897 64.9248 806.404 64.9248C820.13 64.9248 832.025 69.4957 842.112 78.6446L842.114 78.6465C852.323 87.7992 860.216 101.498 865.762 119.79L865.763 119.793C871.425 138.077 874.264 160.987 874.264 188.537ZM1150.64 378.49H1150.64C1181.27 378.49 1207.59 371.011 1229.58 356.031C1251.57 341.054 1268.44 319.368 1280.19 291.003C1292.06 262.635 1297.98 228.475 1297.98 188.538C1298.1 148.836 1292.23 115.03 1280.36 87.1345C1268.49 59.123 1251.51 37.7336 1229.4 22.9938C1207.41 8.25245 1181.15 0.89209 1150.64 0.89209C1120.14 0.89209 1093.82 8.25247 1071.71 22.9928C1049.72 37.6146 1032.79 58.9454 1020.92 86.957L1020.92 86.9586C1009.17 114.971 1003.3 148.835 1003.3 188.535C1003.18 228.356 1008.99 262.456 1020.74 290.824L1020.74 290.825C1032.61 319.191 1049.54 340.876 1071.53 355.854L1071.53 355.854C1093.64 370.833 1120.02 378.371 1150.64 378.49ZM1210 119.79L1210 119.793C1215.66 138.077 1218.5 160.987 1218.5 188.537C1218.62 230.409 1212.47 261.728 1200.11 282.565C1187.75 303.395 1171.27 313.747 1150.64 313.747C1136.92 313.747 1124.96 309.177 1114.76 300.028C1104.55 290.757 1096.59 276.88 1090.93 258.35C1085.38 239.709 1082.61 216.443 1082.61 188.538C1082.72 147.261 1088.99 116.355 1101.36 95.7545C1113.71 75.1605 1130.14 64.9248 1150.64 64.9248C1164.37 64.9248 1176.26 69.4957 1186.35 78.6446L1186.35 78.6465C1196.56 87.7992 1204.45 101.498 1210 119.79Z" stroke="#9796A5" stroke-opacity="0.15"/>
</svg>
