<svg width="1169" height="379" viewBox="0 0 1169 379" fill="none" xmlns="http://www.w3.org/2000/svg">
<path d="M5.45104 370V314.602L134.89 194.751C145.898 184.098 155.131 174.51 162.589 165.987C170.165 157.465 175.906 149.119 179.812 140.952C183.718 132.666 185.671 123.729 185.671 114.141C185.671 103.487 183.245 94.3135 178.391 86.6194C173.538 78.8069 166.909 72.8291 158.505 68.6861C150.101 64.4248 140.572 62.2941 129.918 62.2941C118.791 62.2941 109.085 64.5431 100.799 69.0412C92.5131 73.5393 86.121 79.9906 81.6229 88.3949C77.1248 96.7993 74.8758 106.802 74.8758 118.402H1.8999C1.8999 94.6094 7.28579 73.9537 18.0576 56.4347C28.8294 38.9158 43.9217 25.3623 63.3346 15.7742C82.7474 6.18612 105.12 1.39209 130.451 1.39209C156.493 1.39209 179.161 6.00857 198.455 15.2415C217.868 24.3561 232.961 37.0218 243.732 53.2387C254.504 69.4555 259.89 88.0398 259.89 108.992C259.89 122.723 257.167 136.276 251.722 149.652C246.396 163.028 236.867 177.884 223.136 194.219C209.405 210.436 190.051 229.908 165.075 252.635L111.985 304.659V307.145H264.684V370H5.45104Z" fill="white" fill-opacity="0.7"/>
<path d="M462.971 377.99C432.431 377.872 406.152 370.355 384.135 355.44C362.237 340.526 345.369 318.923 333.532 290.632C321.813 262.341 316.013 228.31 316.131 188.537C316.131 148.883 321.99 115.088 333.709 87.152C345.546 59.2164 362.414 37.9688 384.313 23.4092C406.33 8.73111 432.549 1.39209 462.971 1.39209C493.392 1.39209 519.552 8.73111 541.451 23.4092C563.468 38.0872 580.395 59.394 592.232 87.3296C604.069 115.147 609.928 148.883 609.81 188.537C609.81 228.428 603.892 262.519 592.054 290.81C580.336 319.1 563.527 340.703 541.628 355.618C519.73 370.533 493.51 377.99 462.971 377.99ZM462.971 314.247C483.804 314.247 500.435 303.771 512.864 282.82C525.293 261.868 531.448 230.44 531.33 188.537C531.33 160.956 528.489 137.992 522.807 119.645C517.244 101.297 509.313 87.5071 499.015 78.2742C488.835 69.0412 476.82 64.4248 462.971 64.4248C442.256 64.4248 425.684 74.7823 413.255 95.4972C400.826 116.212 394.552 147.225 394.434 188.537C394.434 216.473 397.215 239.792 402.779 258.494C408.461 277.079 416.451 291.046 426.749 300.398C437.047 309.631 449.121 314.247 462.971 314.247Z" fill="white" fill-opacity="0.7"/>
<path d="M807.209 377.99C776.669 377.872 750.391 370.355 728.374 355.44C706.475 340.526 689.607 318.923 677.77 290.632C666.051 262.341 660.251 228.31 660.369 188.537C660.369 148.883 666.229 115.088 677.948 87.152C689.785 59.2164 706.653 37.9688 728.551 23.4092C750.568 8.73111 776.787 1.39209 807.209 1.39209C837.63 1.39209 863.79 8.73111 885.689 23.4092C907.706 38.0872 924.633 59.394 936.47 87.3296C948.307 115.147 954.167 148.883 954.048 188.537C954.048 228.428 948.13 262.519 936.293 290.81C924.574 319.1 907.765 340.703 885.867 355.618C863.968 370.533 837.749 377.99 807.209 377.99ZM807.209 314.247C828.042 314.247 844.673 303.771 857.102 282.82C869.531 261.868 875.687 230.44 875.568 188.537C875.568 160.956 872.727 137.992 867.046 119.645C861.482 101.297 853.551 87.5071 843.253 78.2742C833.073 69.0412 821.058 64.4248 807.209 64.4248C786.494 64.4248 769.922 74.7823 757.493 95.4972C745.064 116.212 738.79 147.225 738.672 188.537C738.672 216.473 741.454 239.792 747.017 258.494C752.699 277.079 760.689 291.046 770.987 300.398C781.286 309.631 793.359 314.247 807.209 314.247Z" fill="white" fill-opacity="0.7"/>
<path d="M1167.07 6.36368V370H1090.19V79.3395H1088.06L1004.79 131.541V63.3594L1094.81 6.36368H1167.07Z" fill="white" fill-opacity="0.7"/>
<path d="M4.95104 370V370.5H5.45104H264.684H265.184V370V307.145V306.645H264.684H112.485V304.869L165.411 253.005C165.413 253.003 165.416 253.001 165.418 252.999C190.399 230.267 209.768 210.781 223.517 194.542L223.518 194.541C237.268 178.183 246.832 163.282 252.186 149.84C257.654 136.407 260.39 122.79 260.39 108.992C260.39 87.9492 254.979 69.2672 244.149 52.962C233.322 36.6618 218.156 23.9391 198.67 14.7897C179.295 5.51881 156.551 0.89209 130.451 0.89209C105.056 0.89209 82.6057 5.69849 63.1132 15.3259C43.6206 24.9533 28.4554 38.5694 17.6316 56.1728C6.80424 73.7822 1.3999 94.5317 1.3999 118.402V118.902H1.8999H74.8758H75.3758V118.402C75.3758 106.866 77.6121 96.9485 82.0638 88.6309C86.5163 80.3116 92.8385 73.9316 101.038 69.4807C109.238 65.0289 118.86 62.7941 129.918 62.7941C140.504 62.7941 149.953 64.9106 158.279 69.1321L158.284 69.1346C166.606 73.2371 173.164 79.1516 177.967 86.8832L177.968 86.8861C182.763 94.4875 185.171 103.565 185.171 114.141C185.171 123.658 183.233 132.521 179.361 140.737C175.479 148.852 169.767 157.159 162.215 165.655L162.213 165.658C154.768 174.166 145.546 183.743 134.546 194.388C134.545 194.39 134.544 194.391 134.542 194.392L5.11134 314.235L4.95104 314.384V314.602V370ZM462.969 378.49H462.971C493.595 378.49 519.916 371.011 541.91 356.031C563.9 341.054 580.766 319.368 592.516 291.003C604.385 262.636 610.31 228.476 610.31 188.538C610.429 148.837 604.563 115.03 592.692 87.1345C580.823 59.1227 563.838 37.7333 541.729 22.9935C519.736 8.25233 493.475 0.89209 462.971 0.89209C432.466 0.89209 406.147 8.25241 384.036 22.993C362.044 37.6148 345.118 58.9455 333.249 86.957L333.248 86.9586C321.497 114.971 315.631 148.835 315.631 188.535C315.513 228.356 321.319 262.456 333.07 290.824L333.07 290.825C344.939 319.191 361.863 340.876 383.854 355.854L383.855 355.854C405.966 370.833 432.345 378.371 462.969 378.49ZM530.83 188.537V188.538C530.948 230.409 524.795 261.728 512.434 282.565C500.077 303.395 483.595 313.747 462.971 313.747C449.244 313.747 437.289 309.176 427.083 300.026C416.874 290.754 408.923 276.879 403.258 258.35C397.713 239.71 394.934 216.443 394.934 188.538C395.052 147.261 401.323 116.355 413.683 95.7545C426.04 75.1605 442.463 64.9248 462.971 64.9248C476.697 64.9248 488.592 69.4957 498.679 78.6446L498.681 78.6465C508.89 87.7992 516.782 101.498 522.329 119.79L522.33 119.793C527.992 138.077 530.83 160.987 530.83 188.537ZM807.207 378.49H807.209C837.833 378.49 864.154 371.011 886.148 356.031C908.139 341.054 925.004 319.368 936.754 291.003C948.623 262.636 954.548 228.476 954.548 188.538C954.667 148.837 948.801 115.03 936.931 87.1345C925.061 59.1227 908.076 37.7333 885.967 22.9935C863.974 8.25233 837.714 0.89209 807.209 0.89209C776.704 0.89209 750.385 8.25235 728.274 22.9928C706.282 37.6146 689.356 58.9454 677.487 86.957L677.486 86.9586C665.736 114.971 659.87 148.835 659.869 188.535C659.751 228.356 665.558 262.456 677.308 290.824L677.309 290.825C689.177 319.191 706.102 340.876 728.092 355.854L728.093 355.854C750.204 370.833 776.583 378.371 807.207 378.49ZM875.068 188.537V188.538C875.187 230.409 869.033 261.728 856.672 282.565C844.315 303.395 827.833 313.747 807.209 313.747C793.482 313.747 781.527 309.176 771.321 300.026C761.112 290.754 753.161 276.879 747.496 258.35C741.951 239.71 739.172 216.443 739.172 188.538C739.29 147.261 745.561 116.355 757.922 95.7545C770.278 75.1605 786.701 64.9248 807.209 64.9248C820.935 64.9248 832.83 69.4957 842.917 78.6446L842.919 78.6465C853.128 87.7992 861.02 101.498 866.567 119.79L866.568 119.793C872.23 138.077 875.068 160.987 875.068 188.537ZM1167.57 6.36368V5.86368H1167.07H1094.81H1094.66L1094.54 5.94124L1004.52 62.937L1004.29 63.0842V63.3594V131.541V132.445L1005.05 131.965L1088.2 79.8395H1089.69V370V370.5H1090.19H1167.07H1167.57V370V6.36368Z" stroke="#9796A5" stroke-opacity="0.35"/>
</svg>
