<svg width="1269" height="379" viewBox="0 0 1269 379" fill="none" xmlns="http://www.w3.org/2000/svg">
<path d="M5.29479 370V314.602L134.734 194.751C145.742 184.098 154.975 174.51 162.433 165.987C170.008 157.465 175.749 149.119 179.656 140.952C183.562 132.666 185.515 123.729 185.515 114.141C185.515 103.487 183.088 94.3135 178.235 86.6194C173.382 78.8069 166.753 72.8291 158.349 68.6861C149.944 64.4248 140.416 62.2941 129.762 62.2941C118.635 62.2941 108.929 64.5431 100.643 69.0412C92.3568 73.5393 85.9648 79.9906 81.4667 88.3949C76.9686 96.7993 74.7195 106.802 74.7195 118.402H1.74365C1.74365 94.6094 7.12954 73.9537 17.9013 56.4347C28.6731 38.9158 43.7654 25.3623 63.1783 15.7742C82.5912 6.18612 104.963 1.39209 130.295 1.39209C156.336 1.39209 179.005 6.00857 198.299 15.2415C217.712 24.3561 232.804 37.0218 243.576 53.2387C254.348 69.4555 259.734 88.0398 259.734 108.992C259.734 122.723 257.011 136.276 251.566 149.652C246.239 163.028 236.711 177.884 222.979 194.219C209.248 210.436 189.895 229.908 164.918 252.635L111.829 304.659V307.145H264.528V370H5.29479Z" fill="white" fill-opacity="0.6"/>
<path d="M462.814 377.99C432.275 377.872 405.996 370.355 383.979 355.44C362.08 340.526 345.213 318.923 333.375 290.632C321.657 262.341 315.856 228.31 315.975 188.537C315.975 148.883 321.834 115.088 333.553 87.152C345.39 59.2164 362.258 37.9688 384.157 23.4092C406.174 8.73111 432.393 1.39209 462.814 1.39209C493.236 1.39209 519.396 8.73111 541.294 23.4092C563.311 38.0872 580.239 59.394 592.076 87.3296C603.913 115.147 609.772 148.883 609.654 188.537C609.654 228.428 603.735 262.519 591.898 290.81C580.179 319.1 563.371 340.703 541.472 355.618C519.573 370.533 493.354 377.99 462.814 377.99ZM462.814 314.247C483.648 314.247 500.279 303.771 512.708 282.82C525.137 261.868 531.292 230.44 531.174 188.537C531.174 160.956 528.333 137.992 522.651 119.645C517.088 101.297 509.157 87.5071 498.858 78.2742C488.678 69.0412 476.664 64.4248 462.814 64.4248C442.099 64.4248 425.527 74.7823 413.098 95.4972C400.669 116.212 394.396 147.225 394.277 188.537C394.277 216.473 397.059 239.792 402.623 258.494C408.304 277.079 416.294 291.046 426.593 300.398C436.891 309.631 448.965 314.247 462.814 314.247Z" fill="white" fill-opacity="0.6"/>
<path d="M807.053 377.99C776.513 377.872 750.234 370.355 728.217 355.44C706.319 340.526 689.451 318.923 677.614 290.632C665.895 262.341 660.095 228.31 660.213 188.537C660.213 148.883 666.073 115.088 677.791 87.152C689.628 59.2164 706.496 37.9688 728.395 23.4092C750.412 8.73111 776.631 1.39209 807.053 1.39209C837.474 1.39209 863.634 8.73111 885.533 23.4092C907.55 38.0872 924.477 59.394 936.314 87.3296C948.151 115.147 954.01 148.883 953.892 188.537C953.892 228.428 947.974 262.519 936.136 290.81C924.418 319.1 907.609 340.703 885.71 355.618C863.812 370.533 837.592 377.99 807.053 377.99ZM807.053 314.247C827.886 314.247 844.517 303.771 856.946 282.82C869.375 261.868 875.53 230.44 875.412 188.537C875.412 160.956 872.571 137.992 866.889 119.645C861.326 101.297 853.395 87.5071 843.097 78.2742C832.917 69.0412 820.902 64.4248 807.053 64.4248C786.338 64.4248 769.766 74.7823 757.337 95.4972C744.908 116.212 738.634 147.225 738.516 188.537C738.516 216.473 741.297 239.792 746.861 258.494C752.543 277.079 760.533 291.046 770.831 300.398C781.129 309.631 793.203 314.247 807.053 314.247Z" fill="white" fill-opacity="0.6"/>
<path d="M1008.71 370V314.602L1138.15 194.751C1149.16 184.098 1158.39 174.51 1165.85 165.987C1173.43 157.465 1179.17 149.119 1183.07 140.952C1186.98 132.666 1188.93 123.729 1188.93 114.141C1188.93 103.487 1186.51 94.3135 1181.65 86.6194C1176.8 78.8069 1170.17 72.8291 1161.77 68.6861C1153.36 64.4248 1143.83 62.2941 1133.18 62.2941C1122.05 62.2941 1112.35 64.5431 1104.06 69.0412C1095.77 73.5393 1089.38 79.9906 1084.88 88.3949C1080.39 96.7993 1078.14 106.802 1078.14 118.402H1005.16C1005.16 94.6094 1010.55 73.9537 1021.32 56.4347C1032.09 38.9158 1047.18 25.3623 1066.6 15.7742C1086.01 6.18612 1108.38 1.39209 1133.71 1.39209C1159.75 1.39209 1182.42 6.00857 1201.72 15.2415C1221.13 24.3561 1236.22 37.0218 1246.99 53.2387C1257.77 69.4555 1263.15 88.0398 1263.15 108.992C1263.15 122.723 1260.43 136.276 1254.98 149.652C1249.66 163.028 1240.13 177.884 1226.4 194.219C1212.67 210.436 1193.31 229.908 1168.34 252.635L1115.25 304.659V307.145H1267.95V370H1008.71Z" fill="white" fill-opacity="0.6"/>
<path d="M4.79479 370V370.5H5.29479H264.528H265.028V370V307.145V306.645H264.528H112.329V304.869L165.255 253.005C165.257 253.003 165.259 253.001 165.262 252.999C190.243 230.267 209.612 210.781 223.361 194.542L223.362 194.541C237.112 178.183 246.676 163.282 252.03 149.84C257.498 136.407 260.234 122.79 260.234 108.992C260.234 87.9492 254.823 69.2672 243.993 52.962C233.165 36.6618 217.999 23.9391 198.513 14.7897C179.139 5.51881 156.394 0.89209 130.295 0.89209C104.9 0.89209 82.4494 5.69849 62.9569 15.3259C43.4643 24.9533 28.2991 38.5694 17.4754 56.1728C6.64799 73.7822 1.24365 94.5317 1.24365 118.402V118.902H1.74365H74.7195H75.2195V118.402C75.2195 106.866 77.4558 96.9485 81.9075 88.6309C86.36 80.3116 92.6822 73.9316 100.881 69.4807C109.082 65.0289 118.704 62.7941 129.762 62.7941C140.347 62.7941 149.797 64.9106 158.123 69.1321L158.128 69.1346C166.45 73.2371 173.007 79.1516 177.81 86.8832L177.812 86.8861C182.607 94.4875 185.015 103.565 185.015 114.141C185.015 123.658 183.077 132.521 179.204 140.737C175.323 148.852 169.611 157.159 162.059 165.655L162.056 165.658C154.611 174.166 145.39 183.743 134.39 194.388C134.389 194.39 134.387 194.391 134.386 194.392L4.95509 314.235L4.79479 314.384V314.602V370ZM462.812 378.49H462.814C493.439 378.49 519.76 371.011 541.753 356.031C563.744 341.054 580.609 319.368 592.359 291.003C604.228 262.636 610.154 228.476 610.154 188.538C610.272 148.837 604.406 115.03 592.536 87.1345C580.667 59.1227 563.682 37.7333 541.572 22.9935C519.579 8.25233 493.319 0.89209 462.814 0.89209C432.31 0.89209 405.99 8.25241 383.88 22.993C361.887 37.6148 344.962 58.9455 333.093 86.957L333.092 86.9586C321.341 114.971 315.475 148.835 315.475 188.535C315.356 228.356 321.163 262.456 332.913 290.824L332.914 290.825C344.783 319.191 361.707 340.876 383.698 355.854L383.699 355.854C405.81 370.833 432.188 378.371 462.812 378.49ZM530.674 188.537V188.538C530.792 230.409 524.638 261.728 512.278 282.565C499.921 303.395 483.438 313.747 462.814 313.747C449.088 313.747 437.133 309.176 426.927 300.026C416.718 290.754 408.766 276.879 403.101 258.35C397.557 239.71 394.777 216.443 394.777 188.538C394.896 147.261 401.167 116.355 413.527 95.7545C425.884 75.1605 442.307 64.9248 462.814 64.9248C476.541 64.9248 488.435 69.4957 498.522 78.6446L498.525 78.6465C508.733 87.7992 516.626 101.498 522.172 119.79L522.173 119.793C527.835 138.077 530.674 160.987 530.674 188.537ZM807.051 378.49H807.053C837.677 378.49 863.998 371.011 885.992 356.031C907.982 341.054 924.848 319.368 936.598 291.003C948.467 262.636 954.392 228.476 954.392 188.538C954.511 148.837 948.645 115.03 936.774 87.1345C924.905 59.1227 907.92 37.7333 885.811 22.9935C863.818 8.25233 837.557 0.89209 807.053 0.89209C776.548 0.89209 750.229 8.25235 728.118 22.9928C706.126 37.6146 689.2 58.9454 677.331 86.957L677.33 86.9586C665.579 114.971 659.713 148.835 659.713 188.535C659.595 228.356 665.401 262.456 677.152 290.824L677.152 290.825C689.021 319.191 705.945 340.876 727.936 355.854L727.937 355.854C750.048 370.833 776.427 378.371 807.051 378.49ZM874.912 188.537V188.538C875.03 230.409 868.877 261.728 856.516 282.565C844.159 303.395 827.677 313.747 807.053 313.747C793.326 313.747 781.371 309.176 771.165 300.026C760.956 290.754 753.005 276.879 747.34 258.35C741.795 239.71 739.016 216.443 739.016 188.538C739.134 147.261 745.405 116.355 757.765 95.7545C770.122 75.1605 786.545 64.9248 807.053 64.9248C820.779 64.9248 832.674 69.4957 842.761 78.6446L842.763 78.6465C852.972 87.7992 860.864 101.498 866.411 119.79L866.412 119.793C872.074 138.077 874.912 160.987 874.912 188.537ZM1008.21 370V370.5H1008.71H1267.95H1268.45V370V307.145V306.645H1267.95H1115.75V304.869L1168.67 253.005C1168.68 253.003 1168.68 253.001 1168.68 252.999C1193.66 230.267 1213.03 210.781 1226.78 194.542L1226.78 194.541C1240.53 178.184 1250.09 163.283 1255.45 149.841C1260.92 136.408 1263.65 122.791 1263.65 108.992C1263.65 87.9492 1258.24 69.2672 1247.41 52.962C1236.58 36.6614 1221.42 23.9383 1201.93 14.7889C1182.56 5.51851 1159.81 0.89209 1133.71 0.89209C1108.32 0.89209 1085.87 5.69849 1066.37 15.3259C1046.88 24.9533 1031.72 38.5694 1020.89 56.1728C1010.07 73.7822 1004.66 94.5317 1004.66 118.402V118.902H1005.16H1078.14H1078.64V118.402C1078.64 106.866 1080.87 96.9485 1085.33 88.6309C1089.78 80.3116 1096.1 73.9316 1104.3 69.4807C1112.5 65.0289 1122.12 62.7941 1133.18 62.7941C1143.77 62.7941 1153.21 64.9106 1161.54 69.1321L1161.55 69.1346C1169.87 73.2371 1176.43 79.1516 1181.23 86.8832L1181.23 86.8861C1186.02 94.4876 1188.43 103.565 1188.43 114.141C1188.43 123.659 1186.49 132.522 1182.62 140.739C1178.74 148.854 1173.03 157.16 1165.48 165.655L1165.47 165.658C1158.03 174.166 1148.81 183.742 1137.81 194.387C1137.81 194.389 1137.81 194.39 1137.8 194.392L1008.37 314.235L1008.21 314.384V314.602V370Z" stroke="#9796A5" stroke-opacity="0.15"/>
</svg>
