<svg width="1284" height="379" viewBox="0 0 1284 379" fill="none" xmlns="http://www.w3.org/2000/svg">
<mask id="path-1-outside-1_220_68" maskUnits="userSpaceOnUse" x="0.419434" y="0.39209" width="1284" height="379" fill="black">
<rect fill="white" x="0.419434" y="0.39209" width="1284" height="379"/>
<path d="M4.97057 370V314.602L134.41 194.751C145.418 184.098 154.651 174.51 162.108 165.987C169.684 157.465 175.425 149.119 179.331 140.952C183.238 132.666 185.191 123.729 185.191 114.141C185.191 103.487 182.764 94.3135 177.911 86.6194C173.058 78.8069 166.429 72.8291 158.025 68.6861C149.62 64.4248 140.091 62.2941 129.438 62.2941C118.311 62.2941 108.605 64.5431 100.319 69.0412C92.0326 73.5393 85.6406 79.9906 81.1424 88.3949C76.6443 96.7993 74.3953 106.802 74.3953 118.402H1.41943C1.41943 94.6094 6.80532 73.9537 17.5771 56.4347C28.3489 38.9158 43.4412 25.3623 62.8541 15.7742C82.267 6.18612 104.639 1.39209 129.971 1.39209C156.012 1.39209 178.68 6.00857 197.975 15.2415C217.388 24.3561 232.48 37.0218 243.252 53.2387C254.024 69.4555 259.41 88.0398 259.41 108.992C259.41 122.723 256.687 136.276 251.242 149.652C245.915 163.028 236.386 177.884 222.655 194.219C208.924 210.436 189.57 229.908 164.594 252.635L111.505 304.659V307.145H264.204V370H4.97057Z"/>
<path d="M462.49 377.99C431.95 377.872 405.672 370.355 383.655 355.44C361.756 340.526 344.888 318.923 333.051 290.632C321.332 262.341 315.532 228.31 315.651 188.537C315.651 148.883 321.51 115.088 333.229 87.152C345.066 59.2164 361.934 37.9688 383.832 23.4092C405.849 8.73111 432.069 1.39209 462.49 1.39209C492.912 1.39209 519.072 8.73111 540.97 23.4092C562.987 38.0872 579.914 59.394 591.751 87.3296C603.589 115.147 609.448 148.883 609.33 188.537C609.33 228.428 603.411 262.519 591.574 290.81C579.855 319.1 563.046 340.703 541.148 355.618C519.249 370.533 493.03 377.99 462.49 377.99ZM462.49 314.247C483.323 314.247 499.955 303.771 512.384 282.82C524.813 261.868 530.968 230.44 530.849 188.537C530.849 160.956 528.009 137.992 522.327 119.645C516.763 101.297 508.832 87.5071 498.534 78.2742C488.354 69.0412 476.34 64.4248 462.49 64.4248C441.775 64.4248 425.203 74.7823 412.774 95.4972C400.345 116.212 394.072 147.225 393.953 188.537C393.953 216.473 396.735 239.792 402.298 258.494C407.98 277.079 415.97 291.046 426.269 300.398C436.567 309.631 448.641 314.247 462.49 314.247Z"/>
<path d="M806.728 377.99C776.189 377.872 749.91 370.355 727.893 355.44C705.995 340.526 689.127 318.923 677.289 290.632C665.571 262.341 659.771 228.31 659.889 188.537C659.889 148.883 665.748 115.088 677.467 87.152C689.304 59.2164 706.172 37.9688 728.071 23.4092C750.088 8.73111 776.307 1.39209 806.728 1.39209C837.15 1.39209 863.31 8.73111 885.208 23.4092C907.226 38.0872 924.153 59.394 935.99 87.3296C947.827 115.147 953.686 148.883 953.568 188.537C953.568 228.428 947.649 262.519 935.812 290.81C924.093 319.1 907.285 340.703 885.386 355.618C863.487 370.533 837.268 377.99 806.728 377.99ZM806.728 314.247C827.562 314.247 844.193 303.771 856.622 282.82C869.051 261.868 875.206 230.44 875.088 188.537C875.088 160.956 872.247 137.992 866.565 119.645C861.002 101.297 853.071 87.5071 842.772 78.2742C832.592 69.0412 820.578 64.4248 806.728 64.4248C786.013 64.4248 769.441 74.7823 757.012 95.4972C744.583 116.212 738.31 147.225 738.191 188.537C738.191 216.473 740.973 239.792 746.537 258.494C752.218 277.079 760.208 291.046 770.507 300.398C780.805 309.631 792.879 314.247 806.728 314.247Z"/>
<path d="M1142.8 374.972C1116.28 374.972 1092.67 370.414 1071.95 361.3C1051.36 352.067 1035.08 339.401 1023.13 323.303C1011.29 307.086 1005.19 288.383 1004.84 267.195H1082.25C1082.73 276.073 1085.63 283.885 1090.95 290.632C1096.4 297.261 1103.62 302.41 1112.61 306.08C1121.61 309.749 1131.73 311.584 1142.98 311.584C1154.7 311.584 1165.05 309.512 1174.05 305.369C1183.05 301.226 1190.09 295.485 1195.18 288.146C1200.27 280.807 1202.81 272.344 1202.81 262.756C1202.81 253.049 1200.09 244.467 1194.65 237.01C1189.32 229.434 1181.62 223.516 1171.56 219.254C1161.62 214.993 1149.78 212.862 1136.05 212.862H1102.14V156.399H1136.05C1147.65 156.399 1157.89 154.387 1166.77 150.362C1175.77 146.338 1182.75 140.774 1187.72 133.672C1192.69 126.451 1195.18 118.047 1195.18 108.459C1195.18 99.3443 1192.99 91.3542 1188.61 84.4887C1184.35 77.5048 1178.31 72.0597 1170.5 68.1535C1162.8 64.2472 1153.81 62.2941 1143.51 62.2941C1133.09 62.2941 1123.56 64.188 1114.92 67.9759C1106.28 71.6454 1099.36 76.9129 1094.15 83.7785C1088.94 90.644 1086.16 98.6932 1085.8 107.926H1012.12C1012.47 86.9745 1018.45 68.5086 1030.05 52.5285C1041.65 36.5483 1057.28 24.0602 1076.93 15.064C1096.69 5.94938 1119.01 1.39209 1143.86 1.39209C1168.96 1.39209 1190.92 5.94938 1209.74 15.064C1228.56 24.1785 1243.18 36.4892 1253.59 51.9958C1264.13 67.384 1269.34 84.6662 1269.22 103.842C1269.34 124.202 1263.01 141.188 1250.22 154.801C1237.56 168.414 1221.04 177.055 1200.68 180.724V183.565C1227.43 186.998 1247.79 196.29 1261.76 211.442C1275.85 226.475 1282.83 245.296 1282.71 267.905C1282.83 288.62 1276.85 307.027 1264.78 323.125C1252.83 339.224 1236.31 351.889 1215.24 361.122C1194.17 370.355 1170.02 374.972 1142.8 374.972Z"/>
</mask>
<path d="M4.97057 370V314.602L134.41 194.751C145.418 184.098 154.651 174.51 162.108 165.987C169.684 157.465 175.425 149.119 179.331 140.952C183.238 132.666 185.191 123.729 185.191 114.141C185.191 103.487 182.764 94.3135 177.911 86.6194C173.058 78.8069 166.429 72.8291 158.025 68.6861C149.62 64.4248 140.091 62.2941 129.438 62.2941C118.311 62.2941 108.605 64.5431 100.319 69.0412C92.0326 73.5393 85.6406 79.9906 81.1424 88.3949C76.6443 96.7993 74.3953 106.802 74.3953 118.402H1.41943C1.41943 94.6094 6.80532 73.9537 17.5771 56.4347C28.3489 38.9158 43.4412 25.3623 62.8541 15.7742C82.267 6.18612 104.639 1.39209 129.971 1.39209C156.012 1.39209 178.68 6.00857 197.975 15.2415C217.388 24.3561 232.48 37.0218 243.252 53.2387C254.024 69.4555 259.41 88.0398 259.41 108.992C259.41 122.723 256.687 136.276 251.242 149.652C245.915 163.028 236.386 177.884 222.655 194.219C208.924 210.436 189.57 229.908 164.594 252.635L111.505 304.659V307.145H264.204V370H4.97057Z" fill="white" fill-opacity="0.6"/>
<path d="M462.49 377.99C431.95 377.872 405.672 370.355 383.655 355.44C361.756 340.526 344.888 318.923 333.051 290.632C321.332 262.341 315.532 228.31 315.651 188.537C315.651 148.883 321.51 115.088 333.229 87.152C345.066 59.2164 361.934 37.9688 383.832 23.4092C405.849 8.73111 432.069 1.39209 462.49 1.39209C492.912 1.39209 519.072 8.73111 540.97 23.4092C562.987 38.0872 579.914 59.394 591.751 87.3296C603.589 115.147 609.448 148.883 609.33 188.537C609.33 228.428 603.411 262.519 591.574 290.81C579.855 319.1 563.046 340.703 541.148 355.618C519.249 370.533 493.03 377.99 462.49 377.99ZM462.49 314.247C483.323 314.247 499.955 303.771 512.384 282.82C524.813 261.868 530.968 230.44 530.849 188.537C530.849 160.956 528.009 137.992 522.327 119.645C516.763 101.297 508.832 87.5071 498.534 78.2742C488.354 69.0412 476.34 64.4248 462.49 64.4248C441.775 64.4248 425.203 74.7823 412.774 95.4972C400.345 116.212 394.072 147.225 393.953 188.537C393.953 216.473 396.735 239.792 402.298 258.494C407.98 277.079 415.97 291.046 426.269 300.398C436.567 309.631 448.641 314.247 462.49 314.247Z" fill="white" fill-opacity="0.6"/>
<path d="M806.728 377.99C776.189 377.872 749.91 370.355 727.893 355.44C705.995 340.526 689.127 318.923 677.289 290.632C665.571 262.341 659.771 228.31 659.889 188.537C659.889 148.883 665.748 115.088 677.467 87.152C689.304 59.2164 706.172 37.9688 728.071 23.4092C750.088 8.73111 776.307 1.39209 806.728 1.39209C837.15 1.39209 863.31 8.73111 885.208 23.4092C907.226 38.0872 924.153 59.394 935.99 87.3296C947.827 115.147 953.686 148.883 953.568 188.537C953.568 228.428 947.649 262.519 935.812 290.81C924.093 319.1 907.285 340.703 885.386 355.618C863.487 370.533 837.268 377.99 806.728 377.99ZM806.728 314.247C827.562 314.247 844.193 303.771 856.622 282.82C869.051 261.868 875.206 230.44 875.088 188.537C875.088 160.956 872.247 137.992 866.565 119.645C861.002 101.297 853.071 87.5071 842.772 78.2742C832.592 69.0412 820.578 64.4248 806.728 64.4248C786.013 64.4248 769.441 74.7823 757.012 95.4972C744.583 116.212 738.31 147.225 738.191 188.537C738.191 216.473 740.973 239.792 746.537 258.494C752.218 277.079 760.208 291.046 770.507 300.398C780.805 309.631 792.879 314.247 806.728 314.247Z" fill="white" fill-opacity="0.6"/>
<path d="M1142.8 374.972C1116.28 374.972 1092.67 370.414 1071.95 361.3C1051.36 352.067 1035.08 339.401 1023.13 323.303C1011.29 307.086 1005.19 288.383 1004.84 267.195H1082.25C1082.73 276.073 1085.63 283.885 1090.95 290.632C1096.4 297.261 1103.62 302.41 1112.61 306.08C1121.61 309.749 1131.73 311.584 1142.98 311.584C1154.7 311.584 1165.05 309.512 1174.05 305.369C1183.05 301.226 1190.09 295.485 1195.18 288.146C1200.27 280.807 1202.81 272.344 1202.81 262.756C1202.81 253.049 1200.09 244.467 1194.65 237.01C1189.32 229.434 1181.62 223.516 1171.56 219.254C1161.62 214.993 1149.78 212.862 1136.05 212.862H1102.14V156.399H1136.05C1147.65 156.399 1157.89 154.387 1166.77 150.362C1175.77 146.338 1182.75 140.774 1187.72 133.672C1192.69 126.451 1195.18 118.047 1195.18 108.459C1195.18 99.3443 1192.99 91.3542 1188.61 84.4887C1184.35 77.5048 1178.31 72.0597 1170.5 68.1535C1162.8 64.2472 1153.81 62.2941 1143.51 62.2941C1133.09 62.2941 1123.56 64.188 1114.92 67.9759C1106.28 71.6454 1099.36 76.9129 1094.15 83.7785C1088.94 90.644 1086.16 98.6932 1085.8 107.926H1012.12C1012.47 86.9745 1018.45 68.5086 1030.05 52.5285C1041.65 36.5483 1057.28 24.0602 1076.93 15.064C1096.69 5.94938 1119.01 1.39209 1143.86 1.39209C1168.96 1.39209 1190.92 5.94938 1209.74 15.064C1228.56 24.1785 1243.18 36.4892 1253.59 51.9958C1264.13 67.384 1269.34 84.6662 1269.22 103.842C1269.34 124.202 1263.01 141.188 1250.22 154.801C1237.56 168.414 1221.04 177.055 1200.68 180.724V183.565C1227.43 186.998 1247.79 196.29 1261.76 211.442C1275.85 226.475 1282.83 245.296 1282.71 267.905C1282.83 288.62 1276.85 307.027 1264.78 323.125C1252.83 339.224 1236.31 351.889 1215.24 361.122C1194.17 370.355 1170.02 374.972 1142.8 374.972Z" fill="white" fill-opacity="0.6"/>
<path d="M4.97057 370V314.602L134.41 194.751C145.418 184.098 154.651 174.51 162.108 165.987C169.684 157.465 175.425 149.119 179.331 140.952C183.238 132.666 185.191 123.729 185.191 114.141C185.191 103.487 182.764 94.3135 177.911 86.6194C173.058 78.8069 166.429 72.8291 158.025 68.6861C149.62 64.4248 140.091 62.2941 129.438 62.2941C118.311 62.2941 108.605 64.5431 100.319 69.0412C92.0326 73.5393 85.6406 79.9906 81.1424 88.3949C76.6443 96.7993 74.3953 106.802 74.3953 118.402H1.41943C1.41943 94.6094 6.80532 73.9537 17.5771 56.4347C28.3489 38.9158 43.4412 25.3623 62.8541 15.7742C82.267 6.18612 104.639 1.39209 129.971 1.39209C156.012 1.39209 178.68 6.00857 197.975 15.2415C217.388 24.3561 232.48 37.0218 243.252 53.2387C254.024 69.4555 259.41 88.0398 259.41 108.992C259.41 122.723 256.687 136.276 251.242 149.652C245.915 163.028 236.386 177.884 222.655 194.219C208.924 210.436 189.57 229.908 164.594 252.635L111.505 304.659V307.145H264.204V370H4.97057Z" stroke="#9796A5" stroke-opacity="0.15" stroke-width="2" mask="url(#path-1-outside-1_220_68)"/>
<path d="M462.49 377.99C431.95 377.872 405.672 370.355 383.655 355.44C361.756 340.526 344.888 318.923 333.051 290.632C321.332 262.341 315.532 228.31 315.651 188.537C315.651 148.883 321.51 115.088 333.229 87.152C345.066 59.2164 361.934 37.9688 383.832 23.4092C405.849 8.73111 432.069 1.39209 462.49 1.39209C492.912 1.39209 519.072 8.73111 540.97 23.4092C562.987 38.0872 579.914 59.394 591.751 87.3296C603.589 115.147 609.448 148.883 609.33 188.537C609.33 228.428 603.411 262.519 591.574 290.81C579.855 319.1 563.046 340.703 541.148 355.618C519.249 370.533 493.03 377.99 462.49 377.99ZM462.49 314.247C483.323 314.247 499.955 303.771 512.384 282.82C524.813 261.868 530.968 230.44 530.849 188.537C530.849 160.956 528.009 137.992 522.327 119.645C516.763 101.297 508.832 87.5071 498.534 78.2742C488.354 69.0412 476.34 64.4248 462.49 64.4248C441.775 64.4248 425.203 74.7823 412.774 95.4972C400.345 116.212 394.072 147.225 393.953 188.537C393.953 216.473 396.735 239.792 402.298 258.494C407.98 277.079 415.97 291.046 426.269 300.398C436.567 309.631 448.641 314.247 462.49 314.247Z" stroke="#9796A5" stroke-opacity="0.15" stroke-width="2" mask="url(#path-1-outside-1_220_68)"/>
<path d="M806.728 377.99C776.189 377.872 749.91 370.355 727.893 355.44C705.995 340.526 689.127 318.923 677.289 290.632C665.571 262.341 659.771 228.31 659.889 188.537C659.889 148.883 665.748 115.088 677.467 87.152C689.304 59.2164 706.172 37.9688 728.071 23.4092C750.088 8.73111 776.307 1.39209 806.728 1.39209C837.15 1.39209 863.31 8.73111 885.208 23.4092C907.226 38.0872 924.153 59.394 935.99 87.3296C947.827 115.147 953.686 148.883 953.568 188.537C953.568 228.428 947.649 262.519 935.812 290.81C924.093 319.1 907.285 340.703 885.386 355.618C863.487 370.533 837.268 377.99 806.728 377.99ZM806.728 314.247C827.562 314.247 844.193 303.771 856.622 282.82C869.051 261.868 875.206 230.44 875.088 188.537C875.088 160.956 872.247 137.992 866.565 119.645C861.002 101.297 853.071 87.5071 842.772 78.2742C832.592 69.0412 820.578 64.4248 806.728 64.4248C786.013 64.4248 769.441 74.7823 757.012 95.4972C744.583 116.212 738.31 147.225 738.191 188.537C738.191 216.473 740.973 239.792 746.537 258.494C752.218 277.079 760.208 291.046 770.507 300.398C780.805 309.631 792.879 314.247 806.728 314.247Z" stroke="#9796A5" stroke-opacity="0.15" stroke-width="2" mask="url(#path-1-outside-1_220_68)"/>
<path d="M1142.8 374.972C1116.28 374.972 1092.67 370.414 1071.95 361.3C1051.36 352.067 1035.08 339.401 1023.13 323.303C1011.29 307.086 1005.19 288.383 1004.84 267.195H1082.25C1082.73 276.073 1085.63 283.885 1090.95 290.632C1096.4 297.261 1103.62 302.41 1112.61 306.08C1121.61 309.749 1131.73 311.584 1142.98 311.584C1154.7 311.584 1165.05 309.512 1174.05 305.369C1183.05 301.226 1190.09 295.485 1195.18 288.146C1200.27 280.807 1202.81 272.344 1202.81 262.756C1202.81 253.049 1200.09 244.467 1194.65 237.01C1189.32 229.434 1181.62 223.516 1171.56 219.254C1161.62 214.993 1149.78 212.862 1136.05 212.862H1102.14V156.399H1136.05C1147.65 156.399 1157.89 154.387 1166.77 150.362C1175.77 146.338 1182.75 140.774 1187.72 133.672C1192.69 126.451 1195.18 118.047 1195.18 108.459C1195.18 99.3443 1192.99 91.3542 1188.61 84.4887C1184.35 77.5048 1178.31 72.0597 1170.5 68.1535C1162.8 64.2472 1153.81 62.2941 1143.51 62.2941C1133.09 62.2941 1123.56 64.188 1114.92 67.9759C1106.28 71.6454 1099.36 76.9129 1094.15 83.7785C1088.94 90.644 1086.16 98.6932 1085.8 107.926H1012.12C1012.47 86.9745 1018.45 68.5086 1030.05 52.5285C1041.65 36.5483 1057.28 24.0602 1076.93 15.064C1096.69 5.94938 1119.01 1.39209 1143.86 1.39209C1168.96 1.39209 1190.92 5.94938 1209.74 15.064C1228.56 24.1785 1243.18 36.4892 1253.59 51.9958C1264.13 67.384 1269.34 84.6662 1269.22 103.842C1269.34 124.202 1263.01 141.188 1250.22 154.801C1237.56 168.414 1221.04 177.055 1200.68 180.724V183.565C1227.43 186.998 1247.79 196.29 1261.76 211.442C1275.85 226.475 1282.83 245.296 1282.71 267.905C1282.83 288.62 1276.85 307.027 1264.78 323.125C1252.83 339.224 1236.31 351.889 1215.24 361.122C1194.17 370.355 1170.02 374.972 1142.8 374.972Z" stroke="#9796A5" stroke-opacity="0.15" stroke-width="2" mask="url(#path-1-outside-1_220_68)"/>
</svg>
