<svg width="1298" height="379" viewBox="0 0 1298 379" fill="none" xmlns="http://www.w3.org/2000/svg">
<path d="M5.3319 370V314.602L134.771 194.751C145.779 184.098 155.012 174.51 162.47 165.987C170.045 157.465 175.786 149.119 179.693 140.952C183.599 132.666 185.552 123.729 185.552 114.141C185.552 103.487 183.125 94.3135 178.272 86.6194C173.419 78.8069 166.79 72.8291 158.386 68.6861C149.982 64.4248 140.453 62.2941 129.799 62.2941C118.672 62.2941 108.966 64.5431 100.68 69.0412C92.3939 73.5393 86.0019 79.9906 81.5038 88.3949C77.0057 96.7993 74.7566 106.802 74.7566 118.402H1.78076C1.78076 94.6094 7.16665 73.9537 17.9384 56.4347C28.7102 38.9158 43.8025 25.3623 63.2154 15.7742C82.6283 6.18612 105 1.39209 130.332 1.39209C156.374 1.39209 179.042 6.00857 198.336 15.2415C217.749 24.3561 232.841 37.0218 243.613 53.2387C254.385 69.4555 259.771 88.0398 259.771 108.992C259.771 122.723 257.048 136.276 251.603 149.652C246.277 163.028 236.748 177.884 223.017 194.219C209.285 210.436 189.932 229.908 164.955 252.635L111.866 304.659V307.145H264.565V370H5.3319Z" fill="white" fill-opacity="0.7"/>
<path d="M462.851 377.99C432.312 377.872 406.033 370.355 384.016 355.44C362.118 340.526 345.25 318.923 333.413 290.632C321.694 262.341 315.894 228.31 316.012 188.537C316.012 148.883 321.871 115.088 333.59 87.152C345.427 59.2164 362.295 37.9688 384.194 23.4092C406.211 8.73111 432.43 1.39209 462.851 1.39209C493.273 1.39209 519.433 8.73111 541.332 23.4092C563.349 38.0872 580.276 59.394 592.113 87.3296C603.95 115.147 609.809 148.883 609.691 188.537C609.691 228.428 603.772 262.519 591.935 290.81C580.216 319.1 563.408 340.703 541.509 355.618C519.61 370.533 493.391 377.99 462.851 377.99ZM462.851 314.247C483.685 314.247 500.316 303.771 512.745 282.82C525.174 261.868 531.329 230.44 531.211 188.537C531.211 160.956 528.37 137.992 522.688 119.645C517.125 101.297 509.194 87.5071 498.895 78.2742C488.716 69.0412 476.701 64.4248 462.851 64.4248C442.136 64.4248 425.565 74.7823 413.136 95.4972C400.707 116.212 394.433 147.225 394.314 188.537C394.314 216.473 397.096 239.792 402.66 258.494C408.341 277.079 416.332 291.046 426.63 300.398C436.928 309.631 449.002 314.247 462.851 314.247Z" fill="white" fill-opacity="0.7"/>
<path d="M807.09 377.99C776.55 377.872 750.272 370.355 728.255 355.44C706.356 340.526 689.488 318.923 677.651 290.632C665.932 262.341 660.132 228.31 660.25 188.537C660.25 148.883 666.11 115.088 677.828 87.152C689.665 59.2164 706.533 37.9688 728.432 23.4092C750.449 8.73111 776.668 1.39209 807.09 1.39209C837.511 1.39209 863.671 8.73111 885.57 23.4092C907.587 38.0872 924.514 59.394 936.351 87.3296C948.188 115.147 954.048 148.883 953.929 188.537C953.929 228.428 948.011 262.519 936.174 290.81C924.455 319.1 907.646 340.703 885.747 355.618C863.849 370.533 837.629 377.99 807.09 377.99ZM807.09 314.247C827.923 314.247 844.554 303.771 856.983 282.82C869.412 261.868 875.567 230.44 875.449 188.537C875.449 160.956 872.608 137.992 866.926 119.645C861.363 101.297 853.432 87.5071 843.134 78.2742C832.954 69.0412 820.939 64.4248 807.09 64.4248C786.375 64.4248 769.803 74.7823 757.374 95.4972C744.945 116.212 738.671 147.225 738.553 188.537C738.553 216.473 741.335 239.792 746.898 258.494C752.58 277.079 760.57 291.046 770.868 300.398C781.166 309.631 793.24 314.247 807.09 314.247Z" fill="white" fill-opacity="0.7"/>
<path d="M1003.25 306.08V245.533L1155.06 6.36368H1207.26V90.1705H1176.36L1080.66 241.626V244.467H1296.39V306.08H1003.25ZM1177.78 370V287.614L1179.2 260.803V6.36368H1251.29V370H1177.78Z" fill="white" fill-opacity="0.7"/>
<path d="M4.8319 370V370.5H5.3319H264.565H265.065V370V307.145V306.645H264.565H112.366V304.869L165.292 253.005C165.294 253.003 165.296 253.001 165.299 252.999C190.28 230.267 209.649 210.781 223.398 194.542L223.399 194.541C237.149 178.183 246.713 163.282 252.067 149.84C257.535 136.407 260.271 122.79 260.271 108.992C260.271 87.9492 254.86 69.2672 244.03 52.962C233.203 36.6618 218.037 23.9391 198.55 14.7897C179.176 5.51881 156.432 0.89209 130.332 0.89209C104.937 0.89209 82.4865 5.69849 62.994 15.3259C43.5014 24.9533 28.3362 38.5694 17.5125 56.1728C6.6851 73.7822 1.28076 94.5317 1.28076 118.402V118.902H1.78076H74.7566H75.2566V118.402C75.2566 106.866 77.4929 96.9485 81.9446 88.6309C86.3972 80.3116 92.7193 73.9316 100.918 69.4807C109.119 65.0289 118.741 62.7941 129.799 62.7941C140.384 62.7941 149.834 64.9106 158.16 69.1321L158.165 69.1346C166.487 73.2371 173.045 79.1516 177.848 86.8832L177.849 86.8861C182.644 94.4875 185.052 103.565 185.052 114.141C185.052 123.658 183.114 132.521 179.241 140.737C175.36 148.852 169.648 157.159 162.096 165.655L162.093 165.658C154.649 174.166 145.427 183.743 134.427 194.388C134.426 194.39 134.424 194.391 134.423 194.392L4.99219 314.235L4.8319 314.384V314.602V370ZM462.849 378.49H462.851C493.476 378.49 519.797 371.011 541.791 356.031C563.781 341.054 580.646 319.368 592.396 291.003C604.266 262.636 610.191 228.476 610.191 188.538C610.309 148.837 604.444 115.03 592.573 87.1345C580.704 59.1227 563.719 37.7333 541.609 22.9935C519.616 8.25233 493.356 0.89209 462.851 0.89209C432.347 0.89209 406.028 8.25241 383.917 22.993C361.925 37.6148 344.999 58.9455 333.13 86.957L333.129 86.9586C321.378 114.971 315.512 148.835 315.512 188.535C315.393 228.356 321.2 262.456 332.951 290.824L332.951 290.825C344.82 319.191 361.744 340.876 383.735 355.854L383.736 355.854C405.847 370.833 432.226 378.371 462.849 378.49ZM530.711 188.537V188.538C530.829 230.409 524.676 261.728 512.315 282.565C499.958 303.395 483.476 313.747 462.851 313.747C449.125 313.747 437.17 309.176 426.964 300.026C416.755 290.754 408.803 276.879 403.138 258.35C397.594 239.71 394.815 216.443 394.814 188.538C394.933 147.261 401.204 116.355 413.564 95.7545C425.921 75.1605 442.344 64.9248 462.851 64.9248C476.578 64.9248 488.472 69.4957 498.56 78.6446L498.562 78.6465C508.77 87.7992 516.663 101.498 522.21 119.79L522.211 119.793C527.873 138.077 530.711 160.987 530.711 188.537ZM807.088 378.49H807.09C837.714 378.49 864.035 371.011 886.029 356.031C908.02 341.054 924.885 319.368 936.635 291.003C948.504 262.636 954.429 228.476 954.429 188.538C954.548 148.837 948.682 115.03 936.811 87.1345C924.942 59.1227 907.957 37.7333 885.848 22.9935C863.855 8.25233 837.594 0.89209 807.09 0.89209C776.585 0.89209 750.266 8.25235 728.155 22.9928C706.163 37.6146 689.237 58.9454 677.368 86.957L677.367 86.9586C665.616 114.971 659.75 148.835 659.75 188.535C659.632 228.356 665.438 262.456 677.189 290.824L677.19 290.825C689.058 319.191 705.982 340.876 727.973 355.854L727.974 355.854C750.085 370.833 776.464 378.371 807.088 378.49ZM874.949 188.537V188.538C875.067 230.409 868.914 261.728 856.553 282.565C844.196 303.395 827.714 313.747 807.09 313.747C793.363 313.747 781.408 309.176 771.202 300.026C760.993 290.754 753.042 276.879 747.377 258.35C741.832 239.71 739.053 216.443 739.053 188.538C739.171 147.261 745.442 116.355 757.803 95.7545C770.159 75.1605 786.582 64.9248 807.09 64.9248C820.816 64.9248 832.711 69.4957 842.798 78.6446L842.8 78.6465C853.009 87.7992 860.901 101.498 866.448 119.79L866.449 119.793C872.111 138.077 874.949 160.987 874.949 188.537ZM1002.75 306.08V306.58H1003.25H1177.28V370V370.5H1177.78H1251.29H1251.79V370V306.58H1296.39H1296.89V306.08V244.467V243.967H1296.39H1251.79V6.36368V5.86368H1251.29H1207.76H1207.26H1179.2H1178.7H1155.06H1154.78L1154.63 6.09573L1002.82 245.265L1002.75 245.387V245.533V306.08ZM1176.64 90.6705H1178.7V243.967H1081.16V241.771L1176.64 90.6705Z" stroke="#9796A5" stroke-opacity="0.35"/>
</svg>
