<svg width="1278" height="379" viewBox="0 0 1278 379" fill="none" xmlns="http://www.w3.org/2000/svg">
<path d="M4.63268 370V314.602L134.072 194.751C145.08 184.098 154.313 174.51 161.77 165.987C169.346 157.465 175.087 149.119 178.993 140.952C182.9 132.666 184.853 123.729 184.853 114.141C184.853 103.487 182.426 94.3135 177.573 86.6194C172.72 78.8069 166.091 72.8291 157.687 68.6861C149.282 64.4248 139.753 62.2941 129.1 62.2941C117.973 62.2941 108.267 64.5431 99.9807 69.0412C91.6947 73.5393 85.3027 79.9906 80.8046 88.3949C76.3064 96.7993 74.0574 106.802 74.0574 118.402H1.08154C1.08154 94.6094 6.46743 73.9537 17.2392 56.4347C28.011 38.9158 43.1033 25.3623 62.5162 15.7742C81.9291 6.18612 104.301 1.39209 129.633 1.39209C155.674 1.39209 178.342 6.00857 197.637 15.2415C217.05 24.3561 232.142 37.0218 242.914 53.2387C253.686 69.4555 259.072 88.0398 259.072 108.992C259.072 122.723 256.349 136.276 250.904 149.652C245.577 163.028 236.048 177.884 222.317 194.219C208.586 210.436 189.233 229.908 164.256 252.635L111.167 304.659V307.145H263.866V370H4.63268Z" fill="white" fill-opacity="0.6"/>
<path d="M462.152 377.99C431.612 377.872 405.334 370.355 383.317 355.44C361.418 340.526 344.55 318.923 332.713 290.632C320.995 262.341 315.194 228.31 315.313 188.537C315.313 148.883 321.172 115.088 332.891 87.152C344.728 59.2164 361.596 37.9688 383.495 23.4092C405.512 8.73111 431.731 1.39209 462.152 1.39209C492.574 1.39209 518.734 8.73111 540.632 23.4092C562.649 38.0872 579.576 59.394 591.414 87.3296C603.251 115.147 609.11 148.883 608.992 188.537C608.992 228.428 603.073 262.519 591.236 290.81C579.517 319.1 562.709 340.703 540.81 355.618C518.911 370.533 492.692 377.99 462.152 377.99ZM462.152 314.247C482.986 314.247 499.617 303.771 512.046 282.82C524.475 261.868 530.63 230.44 530.512 188.537C530.512 160.956 527.671 137.992 521.989 119.645C516.425 101.297 508.495 87.5071 498.196 78.2742C488.016 69.0412 476.002 64.4248 462.152 64.4248C441.437 64.4248 424.865 74.7823 412.436 95.4972C400.007 116.212 393.734 147.225 393.615 188.537C393.615 216.473 396.397 239.792 401.96 258.494C407.642 277.079 415.632 291.046 425.931 300.398C436.229 309.631 448.303 314.247 462.152 314.247Z" fill="white" fill-opacity="0.6"/>
<path d="M806.391 377.99C775.851 377.872 749.572 370.355 727.555 355.44C705.657 340.526 688.789 318.923 676.952 290.632C665.233 262.341 659.433 228.31 659.551 188.537C659.551 148.883 665.41 115.088 677.129 87.152C688.966 59.2164 705.834 37.9688 727.733 23.4092C749.75 8.73111 775.969 1.39209 806.391 1.39209C836.812 1.39209 862.972 8.73111 884.871 23.4092C906.888 38.0872 923.815 59.394 935.652 87.3296C947.489 115.147 953.348 148.883 953.23 188.537C953.23 228.428 947.311 262.519 935.474 290.81C923.756 319.1 906.947 340.703 885.048 355.618C863.149 370.533 836.93 377.99 806.391 377.99ZM806.391 314.247C827.224 314.247 843.855 303.771 856.284 282.82C868.713 261.868 874.868 230.44 874.75 188.537C874.75 160.956 871.909 137.992 866.227 119.645C860.664 101.297 852.733 87.5071 842.435 78.2742C832.255 69.0412 820.24 64.4248 806.391 64.4248C785.676 64.4248 769.104 74.7823 756.675 95.4972C744.246 116.212 737.972 147.225 737.854 188.537C737.854 216.473 740.635 239.792 746.199 258.494C751.881 277.079 759.871 291.046 770.169 300.398C780.467 309.631 792.541 314.247 806.391 314.247Z" fill="white" fill-opacity="0.6"/>
<path d="M1140.86 374.972C1115.77 374.972 1093.4 370.355 1073.75 361.122C1054.22 351.889 1038.71 339.164 1027.23 322.948C1015.74 306.731 1009.77 288.146 1009.29 267.195H1083.87C1084.7 281.281 1090.61 292.704 1101.62 301.463C1112.63 310.223 1125.71 314.602 1140.86 314.602C1152.94 314.602 1163.59 311.939 1172.82 306.612C1182.17 301.167 1189.45 293.651 1194.66 284.063C1199.99 274.356 1202.65 263.229 1202.65 250.682C1202.65 237.898 1199.93 226.653 1194.49 216.946C1189.16 207.24 1181.76 199.664 1172.29 194.219C1162.82 188.774 1151.99 185.992 1139.8 185.874C1129.14 185.874 1118.79 188.064 1108.73 192.443C1098.78 196.823 1091.03 202.801 1085.47 210.376L1017.11 198.125L1034.33 6.36368H1256.63V69.2188H1097.72L1088.31 160.305H1090.44C1096.83 151.309 1106.48 143.852 1119.38 137.933C1132.28 132.015 1146.72 129.055 1162.7 129.055C1184.6 129.055 1204.13 134.205 1221.3 144.503C1238.46 154.801 1252.01 168.947 1261.96 186.939C1271.9 204.813 1276.81 225.41 1276.69 248.729C1276.81 273.232 1271.13 295.012 1259.65 314.07C1248.29 333.009 1232.36 347.924 1211.89 358.814C1191.53 369.586 1167.85 374.972 1140.86 374.972Z" fill="white" fill-opacity="0.6"/>
<path d="M1073.53 361.575L1073.53 361.574C1053.93 352.308 1038.35 339.53 1026.82 323.236C1015.28 306.934 1009.27 288.252 1008.79 267.206L1008.78 266.695H1009.29H1083.87H1084.34L1084.37 267.165C1085.19 281.11 1091.04 292.401 1101.93 301.072C1112.85 309.755 1125.82 314.102 1140.86 314.102C1152.86 314.102 1163.43 311.456 1172.57 306.179C1181.84 300.781 1189.06 293.332 1194.22 283.824L1194.22 283.822C1199.51 274.199 1202.15 263.156 1202.15 250.682C1202.15 237.971 1199.45 226.812 1194.05 217.191L1194.05 217.187C1188.76 207.559 1181.43 200.051 1172.04 194.652C1162.66 189.255 1151.91 186.492 1139.8 186.374C1129.21 186.374 1118.92 188.549 1108.92 192.902C1099.05 197.252 1091.37 203.178 1085.87 210.672L1085.68 210.924L1085.38 210.869L1017.02 198.617L1016.57 198.536L1016.61 198.08L1033.83 6.31896L1033.87 5.86368H1034.33H1256.63H1257.13V6.36368V69.2188V69.7188H1256.63H1098.17L1088.86 159.805H1090.18C1096.64 150.815 1106.31 143.378 1119.17 137.479C1132.15 131.527 1146.66 128.555 1162.7 128.555C1184.68 128.555 1204.3 133.725 1221.55 144.074C1238.8 154.419 1252.41 168.63 1262.39 186.697M1073.53 361.575L1261.96 186.939M1073.53 361.575C1093.26 370.843 1115.71 375.472 1140.86 375.472C1167.92 375.472 1191.68 370.072 1212.12 359.256L1212.12 359.255M1073.53 361.575L1212.12 359.255M1262.39 186.697L1261.96 186.939M1262.39 186.697C1262.39 186.697 1262.39 186.696 1262.39 186.696L1261.96 186.939M1262.39 186.697C1272.38 204.655 1277.31 225.338 1277.19 248.729M1261.96 186.939C1271.9 204.813 1276.81 225.41 1276.69 248.729M1277.19 248.729C1277.19 248.728 1277.19 248.727 1277.19 248.726L1276.69 248.729M1277.19 248.729C1277.31 273.313 1271.61 295.184 1260.08 314.327M1277.19 248.729C1277.19 248.73 1277.19 248.73 1277.19 248.731L1276.69 248.729M1276.69 248.729L1260.08 314.327M1260.08 314.327L1259.65 314.07L1260.08 314.328C1260.08 314.327 1260.08 314.327 1260.08 314.327ZM1260.08 314.327C1248.66 333.348 1232.67 348.325 1212.12 359.255M1260.08 314.327L1212.12 359.255M4.13268 370V370.5H4.63268H263.866H264.366V370V307.145V306.645H263.866H111.667V304.869L164.593 253.005C164.595 253.003 164.597 253.001 164.599 252.999C189.58 230.267 208.949 210.781 222.699 194.542L222.7 194.541C236.45 178.183 246.014 163.282 251.368 149.84C256.835 136.407 259.572 122.79 259.572 108.992C259.572 87.9492 254.161 69.2672 243.33 52.962C232.503 36.6618 217.337 23.9391 197.851 14.7897C178.477 5.51881 155.732 0.89209 129.633 0.89209C104.237 0.89209 81.7873 5.69849 62.2948 15.3259C42.8022 24.9533 27.637 38.5694 16.8133 56.1728C5.98588 73.7822 0.581543 94.5317 0.581543 118.402V118.902H1.08154H74.0574H74.5574V118.402C74.5574 106.866 76.7937 96.9485 81.2454 88.6309C85.6979 80.3116 92.0201 73.9316 100.219 69.4807C108.42 65.0289 118.041 62.7941 129.1 62.7941C139.685 62.7941 149.135 64.9106 157.461 69.1321L157.466 69.1346C165.788 73.2371 172.345 79.1516 177.148 86.8832L177.15 86.8861C181.945 94.4875 184.353 103.565 184.353 114.141C184.353 123.658 182.415 132.521 178.542 140.737C174.661 148.852 168.949 157.159 161.397 165.655L161.394 165.658C153.949 174.166 144.728 183.743 133.728 194.388C133.727 194.39 133.725 194.391 133.724 194.392L4.29298 314.235L4.13268 314.384V314.602V370ZM462.15 378.49H462.152C492.777 378.49 519.098 371.011 541.091 356.031C563.082 341.054 579.947 319.368 591.697 291.003C603.566 262.636 609.492 228.476 609.492 188.538C609.61 148.837 603.744 115.03 591.874 87.1345C580.005 59.1227 563.02 37.7333 540.91 22.9935C518.917 8.25233 492.657 0.89209 462.152 0.89209C431.647 0.89209 405.328 8.25241 383.217 22.993C361.225 37.6148 344.3 58.9455 332.43 86.957L332.43 86.9586C320.679 114.971 314.813 148.835 314.813 188.535C314.694 228.356 320.501 262.456 332.251 290.824L332.252 290.825C344.12 319.191 361.045 340.876 383.036 355.854L383.037 355.854C405.148 370.833 431.526 378.371 462.15 378.49ZM530.012 188.537V188.538C530.13 230.409 523.976 261.728 511.616 282.565C499.259 303.395 482.776 313.747 462.152 313.747C448.426 313.747 436.471 309.176 426.264 300.026C416.056 290.754 408.104 276.879 402.439 258.35C396.894 239.71 394.115 216.443 394.115 188.538C394.234 147.261 400.505 116.355 412.865 95.7545C425.221 75.1605 441.645 64.9248 462.152 64.9248C475.879 64.9248 487.773 69.4957 497.86 78.6446L497.862 78.6465C508.071 87.7992 515.964 101.498 521.51 119.79L521.511 119.793C527.173 138.077 530.012 160.987 530.012 188.537ZM806.389 378.49H806.391C837.015 378.49 863.336 371.011 885.33 356.031C907.32 341.054 924.185 319.368 935.936 291.003C947.805 262.636 953.73 228.476 953.73 188.538C953.849 148.837 947.983 115.03 936.112 87.1345C924.243 59.1227 907.258 37.7333 885.148 22.9935C863.155 8.25233 836.895 0.89209 806.391 0.89209C775.886 0.89209 749.567 8.25235 727.456 22.9928C705.464 37.6146 688.538 58.9454 676.669 86.957L676.668 86.9586C664.917 114.971 659.051 148.835 659.051 188.535C658.932 228.356 664.739 262.456 676.49 290.824L676.49 290.825C688.359 319.191 705.283 340.876 727.274 355.854L727.275 355.854C749.386 370.833 775.765 378.371 806.389 378.49ZM874.25 188.537V188.538C874.368 230.409 868.215 261.728 855.854 282.565C843.497 303.395 827.015 313.747 806.391 313.747C792.664 313.747 780.709 309.176 770.503 300.026C760.294 290.754 752.343 276.879 746.678 258.35C741.133 239.71 738.354 216.443 738.354 188.538C738.472 147.261 744.743 116.355 757.103 95.7545C769.46 75.1605 785.883 64.9248 806.391 64.9248C820.117 64.9248 832.011 69.4957 842.099 78.6446L842.101 78.6465C852.31 87.7992 860.202 101.498 865.749 119.79L865.75 119.793C871.412 138.077 874.25 160.987 874.25 188.537ZM1172.82 306.612C1182.17 301.167 1189.45 293.651 1194.66 284.063C1199.99 274.356 1202.65 263.229 1202.65 250.682C1202.65 237.898 1199.93 226.653 1194.49 216.946C1189.16 207.24 1181.76 199.664 1172.29 194.219C1162.82 188.774 1151.99 185.992 1139.8 185.874L1172.82 306.612ZM1088.31 160.305H1088.81H1088.31Z" stroke="#9796A5" stroke-opacity="0.15"/>
</svg>
