<svg width="1276" height="377" viewBox="0 0 1276 377" fill="none" xmlns="http://www.w3.org/2000/svg">
<g clip-path="url(#clip0_237_17)">
<path d="M3.63256 369V313.602L133.072 193.751C144.08 183.098 153.313 173.51 160.77 164.987C168.346 156.465 174.087 148.119 177.993 139.952C181.9 131.666 183.853 122.729 183.853 113.141C183.853 102.487 181.426 93.3135 176.573 85.6194C171.72 77.8069 165.091 71.8291 156.687 67.6861C148.282 63.4248 138.753 61.2941 128.1 61.2941C116.973 61.2941 107.267 63.5431 98.9805 68.0412C90.7945 72.5393 84.3025 78.9906 79.8044 87.3949C75.3063 95.7993 73.0572 105.802 73.0572 117.402H0.0814209C0.0814209 93.6094 5.46731 72.9537 16.2391 55.4347C27.0108 37.9158 42.1032 24.3623 61.516 14.7742C80.9289 5.18612 103.301 0.39209 128.633 0.39209C154.674 0.39209 177.342 5.00857 196.637 14.2415C216.05 23.3561 231.142 36.0218 241.914 52.2387C252.686 68.4555 258.072 87.0398 258.072 107.992C258.072 121.723 255.349 135.276 249.904 148.652C244.577 162.028 235.048 176.884 221.317 193.219C207.586 209.436 188.233 228.908 163.256 251.635L110.167 303.659V306.145H262.866V369H3.63256Z" fill="white" fill-opacity="0.7"/>
<path d="M805.39 376.99C774.851 376.872 748.572 369.355 726.555 354.44C704.657 339.526 687.789 317.923 675.952 289.632C664.233 261.341 658.433 227.31 658.551 187.537C658.551 147.883 664.41 114.088 676.129 86.152C687.966 58.2164 704.834 36.9688 726.733 22.4092C748.75 7.73111 774.969 0.39209 805.39 0.39209C835.812 0.39209 861.972 7.73111 883.871 22.4092C905.888 37.0872 922.815 58.394 934.652 86.3296C946.489 114.147 952.348 147.883 952.23 187.537C952.23 227.428 946.311 261.519 934.474 289.81C922.755 318.1 905.947 339.703 884.048 354.618C862.149 369.533 835.93 376.99 805.39 376.99ZM805.39 313.247C826.224 313.247 842.855 302.771 855.284 281.82C867.713 260.868 873.868 229.44 873.75 187.537C873.75 159.956 870.909 136.992 865.227 118.645C859.664 100.297 851.733 86.5071 841.434 77.2742C831.255 68.0412 819.24 63.4248 805.39 63.4248C784.675 63.4248 768.103 73.7823 755.674 94.4972C743.246 115.212 736.972 146.225 736.854 187.537C736.854 215.473 739.635 238.792 745.199 257.494C750.88 276.079 758.871 290.046 769.169 299.398C779.467 308.631 791.541 313.247 805.39 313.247Z" fill="white" fill-opacity="0.7"/>
<path d="M1139.86 373.972C1114.77 373.972 1092.4 369.355 1072.75 360.122C1053.22 350.889 1037.71 338.164 1026.23 321.948C1014.74 305.731 1008.77 287.146 1008.29 266.195H1082.87C1083.7 280.281 1089.61 291.704 1100.72 300.463C1111.63 309.223 1124.71 313.602 1139.86 313.602C1151.94 313.602 1162.59 310.939 1171.82 305.612C1181.17 300.167 1188.45 292.651 1193.66 283.063C1198.99 273.356 1201.65 262.229 1201.65 249.682C1201.65 236.898 1198.93 225.653 1193.49 215.946C1188.16 206.24 1180.76 198.664 1171.29 193.219C1161.82 187.774 1150.99 184.992 1138.8 184.874C1128.14 184.874 1117.79 187.064 1107.73 191.443C1097.78 195.823 1090.03 201.801 1084.47 209.376L1016.11 197.125L1033.33 5.36377H1255.63V68.2189H1096.72L1087.31 159.305H1089.44C1095.83 150.309 1105.48 142.852 1118.38 136.933C1131.28 131.015 1145.72 128.055 1161.7 128.055C1183.6 128.055 1203.13 133.205 1220.3 143.503C1237.46 153.801 1251.01 167.947 1260.96 185.939C1270.9 203.813 1275.81 224.41 1275.69 247.729C1275.81 272.232 1270.13 294.012 1258.65 313.07C1247.28 332.009 1231.36 346.924 1210.89 357.814C1190.53 368.586 1166.85 373.972 1139.86 373.972Z" fill="white" fill-opacity="0.7"/>
<path d="M456.16 376.99C425.621 376.872 399.342 369.355 377.325 354.44C355.427 339.526 338.559 317.923 326.722 289.632C315.003 261.341 309.203 227.31 309.321 187.537C309.321 147.883 315.18 114.088 326.899 86.152C338.736 58.2164 355.604 36.9688 377.503 22.4092C399.52 7.73111 425.739 0.39209 456.16 0.39209C486.582 0.39209 512.742 7.73111 534.641 22.4092C556.658 37.0872 573.585 58.394 585.422 86.3296C597.259 114.147 603.118 147.883 603 187.537C603 227.428 597.081 261.519 585.244 289.81C573.525 318.1 556.717 339.703 534.818 354.618C512.919 369.533 486.7 376.99 456.16 376.99ZM456.16 313.247C476.994 313.247 493.625 302.771 506.054 281.82C518.483 260.868 524.638 229.44 524.52 187.537C524.52 159.956 521.679 136.992 515.997 118.645C510.434 100.297 502.503 86.5071 492.204 77.2742C482.025 68.0412 470.01 63.4248 456.16 63.4248C435.445 63.4248 418.873 73.7823 406.444 94.4972C394.016 115.212 387.742 146.225 387.624 187.537C387.624 215.473 390.405 238.792 395.969 257.494C401.65 276.079 409.641 290.046 419.939 299.398C430.237 308.631 442.311 313.247 456.16 313.247Z" fill="white" fill-opacity="0.7"/>
<path d="M1255.13 68.2188H1096.72L1087.36 158.805H1087.31V159.305L1087.81 159.356V159.305H1089.44C1095.83 150.309 1105.48 142.852 1118.38 136.933C1131.28 131.015 1145.72 128.055 1161.7 128.055C1183.6 128.055 1203.13 133.205 1220.3 143.503C1237.46 153.801 1251.01 167.947 1260.96 185.939C1270.9 203.813 1275.81 224.41 1275.69 247.729M1096.72 67.7188H1255.13V5.86368H1033.79L1016.65 196.714L1084.25 208.829C1089.86 201.292 1097.62 195.347 1107.53 190.985C1117.65 186.579 1128.07 184.374 1138.8 184.374C1151.07 184.493 1161.99 187.293 1171.54 192.786C1181.09 198.276 1188.55 205.918 1193.93 215.702C1199.41 225.494 1202.15 236.825 1202.15 249.682C1202.15 262.301 1199.47 273.512 1194.1 283.302C1188.85 292.969 1181.5 300.553 1172.07 306.044V306.045C1162.75 311.422 1152.02 314.102 1139.86 314.102C1124.61 314.102 1111.42 309.691 1100.41 300.856C1089.31 292.105 1083.34 280.707 1082.4 266.695H1008.8C1009.37 287.343 1015.3 305.66 1026.64 321.659M1086.81 159.254L1086.76 159.805H1087.31H1089.44H1089.7L1089.85 159.595C1096.17 150.688 1105.75 143.28 1118.59 137.387C1131.42 131.503 1145.78 128.555 1161.7 128.555C1183.52 128.555 1202.96 133.685 1220.04 143.932C1237.13 154.183 1250.61 168.264 1260.52 186.181V186.182C1270.42 203.971 1275.31 224.481 1275.19 247.726V247.731C1275.31 272.152 1269.65 293.84 1258.22 312.812M1258.22 312.812L1258.65 313.07M1258.22 312.812C1246.9 331.669 1231.05 346.522 1210.66 357.372C1190.38 368.1 1166.78 373.472 1139.86 373.472C1114.83 373.472 1092.54 368.867 1072.96 359.669C1053.5 350.47 1038.06 337.799 1026.64 321.659M1026.64 321.659L1026.23 321.948M1255.63 67.7188V5.86368M0.582275 116.902C0.657257 93.398 6.02431 73.0025 16.6652 55.6966C27.3849 38.2621 42.4044 24.7712 61.7376 15.2225C81.0708 5.67376 103.365 0.89209 128.633 0.89209C154.615 0.89209 177.207 5.49808 196.421 14.6925L196.424 14.6941C215.763 23.7739 230.781 36.3823 241.497 52.5154C252.211 68.6439 257.572 87.1304 257.572 107.992C257.572 121.655 254.863 135.144 249.441 148.463L249.439 148.467C244.139 161.775 234.646 176.585 220.935 192.896C207.224 209.09 187.888 228.546 162.919 251.265L162.913 251.271L162.906 251.278L109.817 303.302L109.667 303.449V303.659V306.145V306.645H110.167H262.366V368.5H4.13262V313.82L133.412 194.118L133.42 194.11C144.434 183.451 153.676 173.854 161.145 165.318C168.744 156.77 174.514 148.386 178.444 140.168L178.445 140.165C182.385 131.809 184.353 122.799 184.353 113.141C184.353 102.41 181.908 93.1412 176.997 85.3548C172.095 77.4627 165.395 71.4224 156.911 67.2391C148.428 62.9386 138.82 60.7941 128.1 60.7941C116.905 60.7941 107.114 63.0573 98.7421 67.6018L98.7399 67.603C90.4707 72.1468 83.9084 78.6675 79.3637 87.159C74.8842 95.5285 72.6226 105.449 72.5587 116.902H0.582275ZM727.01 22.8256C748.933 8.21015 775.052 0.89209 805.39 0.89209C835.729 0.89209 861.788 8.20977 883.593 22.8245L883.594 22.8252C905.518 37.4414 922.387 58.6655 934.192 86.5247C945.995 114.263 951.848 147.929 951.73 187.536V187.537C951.73 227.381 945.818 261.403 934.013 289.617L934.012 289.619C922.324 317.833 905.573 339.353 883.766 354.205C861.963 369.055 835.846 376.49 805.392 376.49C774.937 376.372 748.758 368.877 726.835 354.026C705.03 339.175 688.219 317.655 676.413 289.439C664.726 261.225 658.933 227.263 659.051 187.538C659.051 147.932 664.903 114.206 676.589 86.3471C688.394 58.4874 705.204 37.323 727.01 22.8256ZM736.354 187.536V187.537C736.354 215.502 739.137 238.873 744.72 257.637L744.721 257.64C750.418 276.279 758.447 290.336 768.833 299.768L768.835 299.77C779.225 309.086 791.418 313.747 805.39 313.747C826.433 313.747 843.213 303.147 855.714 282.075C868.211 261.008 874.368 229.472 874.25 187.536C874.25 159.926 871.407 136.91 865.705 118.5C860.126 100.098 852.157 86.217 841.77 76.9039C831.498 67.5867 819.363 62.9248 805.39 62.9248C784.467 62.9248 767.747 73.4041 755.245 94.24C742.749 115.069 736.472 146.19 736.354 187.536ZM309.821 187.538C309.821 147.932 315.673 114.206 327.359 86.3471C339.164 58.4874 355.974 37.323 377.78 22.8256C399.703 8.21015 425.823 0.89209 456.16 0.89209C486.499 0.89209 512.558 8.20977 534.363 22.8245L534.364 22.8252C556.288 37.4414 573.157 58.6655 584.962 86.5247C596.766 114.263 602.618 147.929 602.5 187.536V187.537C602.5 227.381 596.588 261.403 584.783 289.617L584.782 289.619C573.094 317.833 556.343 339.353 534.537 354.205C512.733 369.055 486.617 376.49 456.162 376.49C425.708 376.372 399.529 368.878 377.606 354.027C355.801 339.176 338.99 317.656 327.184 289.441C315.497 261.226 309.703 227.264 309.821 187.538ZM387.124 187.536V187.537C387.124 215.502 389.907 238.873 395.49 257.637L395.491 257.64C401.188 276.279 409.217 290.336 419.603 299.768L419.605 299.77C429.995 309.086 442.188 313.747 456.16 313.747C477.203 313.747 493.983 303.147 506.484 282.075C518.981 261.008 525.138 229.472 525.02 187.536C525.02 159.926 522.177 136.91 516.476 118.5C510.896 100.097 502.927 86.2161 492.539 76.9029C482.267 67.5863 470.133 62.9248 456.16 62.9248C435.237 62.9248 418.517 73.4041 406.015 94.24C393.519 115.069 387.242 146.19 387.124 187.536Z" stroke="#9796A5" stroke-opacity="0.35"/>
</g>
<defs>
<clipPath id="clip0_237_17">
<rect width="1276" height="377" fill="white"/>
</clipPath>
</defs>
</svg>
