<svg width="1285" height="379" viewBox="0 0 1285 379" fill="none" xmlns="http://www.w3.org/2000/svg">
<mask id="path-1-outside-1_218_38" maskUnits="userSpaceOnUse" x="0.175293" y="0.39209" width="1285" height="379" fill="black">
<rect fill="white" x="0.175293" y="0.39209" width="1285" height="379"/>
<path d="M4.72643 370V314.602L134.165 194.751C145.174 184.098 154.407 174.51 161.864 165.987C169.44 157.465 175.181 149.119 179.087 140.952C182.993 132.666 184.947 123.729 184.947 114.141C184.947 103.487 182.52 94.3135 177.667 86.6194C172.814 78.8069 166.185 72.8291 157.78 68.6861C149.376 64.4248 139.847 62.2941 129.194 62.2941C118.067 62.2941 108.36 64.5431 100.074 69.0412C91.7885 73.5393 85.3964 79.9906 80.8983 88.3949C76.4002 96.7993 74.1511 106.802 74.1511 118.402H1.17529C1.17529 94.6094 6.56118 73.9537 17.333 56.4347C28.1047 38.9158 43.1971 25.3623 62.61 15.7742C82.0228 6.18612 104.395 1.39209 129.726 1.39209C155.768 1.39209 178.436 6.00857 197.731 15.2415C217.144 24.3561 232.236 37.0218 243.008 53.2387C253.779 69.4555 259.165 88.0398 259.165 108.992C259.165 122.723 256.443 136.276 250.998 149.652C245.671 163.028 236.142 177.884 222.411 194.219C208.68 210.436 189.326 229.908 164.35 252.635L111.261 304.659V307.145H263.959V370H4.72643Z"/>
<path d="M462.246 377.99C431.706 377.872 405.428 370.355 383.411 355.44C361.512 340.526 344.644 318.923 332.807 290.632C321.088 262.341 315.288 228.31 315.406 188.537C315.406 148.883 321.266 115.088 332.985 87.152C344.822 59.2164 361.69 37.9688 383.588 23.4092C405.605 8.73111 431.825 1.39209 462.246 1.39209C492.667 1.39209 518.827 8.73111 540.726 23.4092C562.743 38.0872 579.67 59.394 591.507 87.3296C603.344 115.147 609.204 148.883 609.085 188.537C609.085 228.428 603.167 262.519 591.33 290.81C579.611 319.1 562.802 340.703 540.904 355.618C519.005 370.533 492.786 377.99 462.246 377.99ZM462.246 314.247C483.079 314.247 499.71 303.771 512.139 282.82C524.568 261.868 530.724 230.44 530.605 188.537C530.605 160.956 527.764 137.992 522.083 119.645C516.519 101.297 508.588 87.5071 498.29 78.2742C488.11 69.0412 476.095 64.4248 462.246 64.4248C441.531 64.4248 424.959 74.7823 412.53 95.4972C400.101 116.212 393.827 147.225 393.709 188.537C393.709 216.473 396.491 239.792 402.054 258.494C407.736 277.079 415.726 291.046 426.024 300.398C436.323 309.631 448.397 314.247 462.246 314.247Z"/>
<path d="M806.484 377.99C775.944 377.872 749.666 370.355 727.649 355.44C705.75 340.526 688.882 318.923 677.045 290.632C665.327 262.341 659.526 228.31 659.645 188.537C659.645 148.883 665.504 115.088 677.223 87.152C689.06 59.2164 705.928 37.9688 727.827 23.4092C749.844 8.73111 776.063 1.39209 806.484 1.39209C836.906 1.39209 863.066 8.73111 884.964 23.4092C906.981 38.0872 923.908 59.394 935.746 87.3296C947.583 115.147 953.442 148.883 953.324 188.537C953.324 228.428 947.405 262.519 935.568 290.81C923.849 319.1 907.041 340.703 885.142 355.618C863.243 370.533 837.024 377.99 806.484 377.99ZM806.484 314.247C827.318 314.247 843.949 303.771 856.378 282.82C868.807 261.868 874.962 230.44 874.844 188.537C874.844 160.956 872.003 137.992 866.321 119.645C860.757 101.297 852.827 87.5071 842.528 78.2742C832.348 69.0412 820.334 64.4248 806.484 64.4248C785.769 64.4248 769.197 74.7823 756.768 95.4972C744.339 116.212 738.066 147.225 737.947 188.537C737.947 216.473 740.729 239.792 746.292 258.494C751.974 277.079 759.964 291.046 770.263 300.398C780.561 309.631 792.635 314.247 806.484 314.247Z"/>
<path d="M1147.7 374.972C1129 374.853 1110.95 371.716 1093.55 365.561C1076.27 359.406 1060.76 349.403 1047.03 335.554C1033.3 321.705 1022.41 303.357 1014.36 280.511C1006.43 257.666 1002.46 229.612 1002.46 196.349C1002.58 165.81 1006.07 138.525 1012.94 114.496C1019.92 90.3481 1029.87 69.8698 1042.77 53.0611C1055.79 36.2524 1071.35 23.4683 1089.47 14.7088C1107.58 5.83101 1127.88 1.39209 1150.37 1.39209C1174.63 1.39209 1196.06 6.12694 1214.64 15.5967C1233.23 24.948 1248.14 37.6729 1259.39 53.7714C1270.75 69.8699 1277.62 87.9215 1279.98 107.926H1204.17C1201.21 95.2605 1194.99 85.3173 1185.52 78.0966C1176.05 70.876 1164.34 67.2657 1150.37 67.2657C1126.69 67.2657 1108.7 77.564 1096.39 98.1606C1084.2 118.757 1077.98 146.752 1077.75 182.145H1080.23C1085.68 171.373 1093.02 162.199 1102.25 154.624C1111.6 146.93 1122.2 141.07 1134.03 137.046C1145.99 132.903 1158.59 130.831 1171.85 130.831C1193.4 130.831 1212.57 135.921 1229.38 146.101C1246.19 156.162 1259.45 170.012 1269.15 187.649C1278.86 205.287 1283.71 225.469 1283.71 248.196C1283.71 272.817 1277.97 294.716 1266.49 313.892C1255.13 333.068 1239.21 348.101 1218.73 358.992C1198.37 369.763 1174.69 375.09 1147.7 374.972ZM1147.35 314.602C1159.19 314.602 1169.78 311.761 1179.13 306.08C1188.48 300.398 1195.82 292.704 1201.15 282.997C1206.48 273.291 1209.14 262.401 1209.14 250.327C1209.14 238.253 1206.48 227.422 1201.15 217.834C1195.94 208.246 1188.72 200.611 1179.49 194.929C1170.25 189.247 1159.72 186.406 1147.88 186.406C1139 186.406 1130.78 188.063 1123.2 191.378C1115.74 194.692 1109.17 199.309 1103.49 205.227C1097.93 211.146 1093.55 218.011 1090.35 225.824C1087.16 233.518 1085.56 241.745 1085.56 250.504C1085.56 262.223 1088.22 272.936 1093.55 282.642C1098.99 292.349 1106.33 300.102 1115.57 305.902C1124.92 311.702 1135.51 314.602 1147.35 314.602Z"/>
</mask>
<path d="M4.72643 370V314.602L134.165 194.751C145.174 184.098 154.407 174.51 161.864 165.987C169.44 157.465 175.181 149.119 179.087 140.952C182.993 132.666 184.947 123.729 184.947 114.141C184.947 103.487 182.52 94.3135 177.667 86.6194C172.814 78.8069 166.185 72.8291 157.78 68.6861C149.376 64.4248 139.847 62.2941 129.194 62.2941C118.067 62.2941 108.36 64.5431 100.074 69.0412C91.7885 73.5393 85.3964 79.9906 80.8983 88.3949C76.4002 96.7993 74.1511 106.802 74.1511 118.402H1.17529C1.17529 94.6094 6.56118 73.9537 17.333 56.4347C28.1047 38.9158 43.1971 25.3623 62.61 15.7742C82.0228 6.18612 104.395 1.39209 129.726 1.39209C155.768 1.39209 178.436 6.00857 197.731 15.2415C217.144 24.3561 232.236 37.0218 243.008 53.2387C253.779 69.4555 259.165 88.0398 259.165 108.992C259.165 122.723 256.443 136.276 250.998 149.652C245.671 163.028 236.142 177.884 222.411 194.219C208.68 210.436 189.326 229.908 164.35 252.635L111.261 304.659V307.145H263.959V370H4.72643Z" fill="white" fill-opacity="0.7"/>
<path d="M462.246 377.99C431.706 377.872 405.428 370.355 383.411 355.44C361.512 340.526 344.644 318.923 332.807 290.632C321.088 262.341 315.288 228.31 315.406 188.537C315.406 148.883 321.266 115.088 332.985 87.152C344.822 59.2164 361.69 37.9688 383.588 23.4092C405.605 8.73111 431.825 1.39209 462.246 1.39209C492.667 1.39209 518.827 8.73111 540.726 23.4092C562.743 38.0872 579.67 59.394 591.507 87.3296C603.344 115.147 609.204 148.883 609.085 188.537C609.085 228.428 603.167 262.519 591.33 290.81C579.611 319.1 562.802 340.703 540.904 355.618C519.005 370.533 492.786 377.99 462.246 377.99ZM462.246 314.247C483.079 314.247 499.71 303.771 512.139 282.82C524.568 261.868 530.724 230.44 530.605 188.537C530.605 160.956 527.764 137.992 522.083 119.645C516.519 101.297 508.588 87.5071 498.29 78.2742C488.11 69.0412 476.095 64.4248 462.246 64.4248C441.531 64.4248 424.959 74.7823 412.53 95.4972C400.101 116.212 393.827 147.225 393.709 188.537C393.709 216.473 396.491 239.792 402.054 258.494C407.736 277.079 415.726 291.046 426.024 300.398C436.323 309.631 448.397 314.247 462.246 314.247Z" fill="white" fill-opacity="0.7"/>
<path d="M806.484 377.99C775.944 377.872 749.666 370.355 727.649 355.44C705.75 340.526 688.882 318.923 677.045 290.632C665.327 262.341 659.526 228.31 659.645 188.537C659.645 148.883 665.504 115.088 677.223 87.152C689.06 59.2164 705.928 37.9688 727.827 23.4092C749.844 8.73111 776.063 1.39209 806.484 1.39209C836.906 1.39209 863.066 8.73111 884.964 23.4092C906.981 38.0872 923.908 59.394 935.746 87.3296C947.583 115.147 953.442 148.883 953.324 188.537C953.324 228.428 947.405 262.519 935.568 290.81C923.849 319.1 907.041 340.703 885.142 355.618C863.243 370.533 837.024 377.99 806.484 377.99ZM806.484 314.247C827.318 314.247 843.949 303.771 856.378 282.82C868.807 261.868 874.962 230.44 874.844 188.537C874.844 160.956 872.003 137.992 866.321 119.645C860.757 101.297 852.827 87.5071 842.528 78.2742C832.348 69.0412 820.334 64.4248 806.484 64.4248C785.769 64.4248 769.197 74.7823 756.768 95.4972C744.339 116.212 738.066 147.225 737.947 188.537C737.947 216.473 740.729 239.792 746.292 258.494C751.974 277.079 759.964 291.046 770.263 300.398C780.561 309.631 792.635 314.247 806.484 314.247Z" fill="white" fill-opacity="0.7"/>
<path d="M1147.7 374.972C1129 374.853 1110.95 371.716 1093.55 365.561C1076.27 359.406 1060.76 349.403 1047.03 335.554C1033.3 321.705 1022.41 303.357 1014.36 280.511C1006.43 257.666 1002.46 229.612 1002.46 196.349C1002.58 165.81 1006.07 138.525 1012.94 114.496C1019.92 90.3481 1029.87 69.8698 1042.77 53.0611C1055.79 36.2524 1071.35 23.4683 1089.47 14.7088C1107.58 5.83101 1127.88 1.39209 1150.37 1.39209C1174.63 1.39209 1196.06 6.12694 1214.64 15.5967C1233.23 24.948 1248.14 37.6729 1259.39 53.7714C1270.75 69.8699 1277.62 87.9215 1279.98 107.926H1204.17C1201.21 95.2605 1194.99 85.3173 1185.52 78.0966C1176.05 70.876 1164.34 67.2657 1150.37 67.2657C1126.69 67.2657 1108.7 77.564 1096.39 98.1606C1084.2 118.757 1077.98 146.752 1077.75 182.145H1080.23C1085.68 171.373 1093.02 162.199 1102.25 154.624C1111.6 146.93 1122.2 141.07 1134.03 137.046C1145.99 132.903 1158.59 130.831 1171.85 130.831C1193.4 130.831 1212.57 135.921 1229.38 146.101C1246.19 156.162 1259.45 170.012 1269.15 187.649C1278.86 205.287 1283.71 225.469 1283.71 248.196C1283.71 272.817 1277.97 294.716 1266.49 313.892C1255.13 333.068 1239.21 348.101 1218.73 358.992C1198.37 369.763 1174.69 375.09 1147.7 374.972ZM1147.35 314.602C1159.19 314.602 1169.78 311.761 1179.13 306.08C1188.48 300.398 1195.82 292.704 1201.15 282.997C1206.48 273.291 1209.14 262.401 1209.14 250.327C1209.14 238.253 1206.48 227.422 1201.15 217.834C1195.94 208.246 1188.72 200.611 1179.49 194.929C1170.25 189.247 1159.72 186.406 1147.88 186.406C1139 186.406 1130.78 188.063 1123.2 191.378C1115.74 194.692 1109.17 199.309 1103.49 205.227C1097.93 211.146 1093.55 218.011 1090.35 225.824C1087.16 233.518 1085.56 241.745 1085.56 250.504C1085.56 262.223 1088.22 272.936 1093.55 282.642C1098.99 292.349 1106.33 300.102 1115.57 305.902C1124.92 311.702 1135.51 314.602 1147.35 314.602Z" fill="white" fill-opacity="0.7"/>
<path d="M4.72643 370V314.602L134.165 194.751C145.174 184.098 154.407 174.51 161.864 165.987C169.44 157.465 175.181 149.119 179.087 140.952C182.993 132.666 184.947 123.729 184.947 114.141C184.947 103.487 182.52 94.3135 177.667 86.6194C172.814 78.8069 166.185 72.8291 157.78 68.6861C149.376 64.4248 139.847 62.2941 129.194 62.2941C118.067 62.2941 108.36 64.5431 100.074 69.0412C91.7885 73.5393 85.3964 79.9906 80.8983 88.3949C76.4002 96.7993 74.1511 106.802 74.1511 118.402H1.17529C1.17529 94.6094 6.56118 73.9537 17.333 56.4347C28.1047 38.9158 43.1971 25.3623 62.61 15.7742C82.0228 6.18612 104.395 1.39209 129.726 1.39209C155.768 1.39209 178.436 6.00857 197.731 15.2415C217.144 24.3561 232.236 37.0218 243.008 53.2387C253.779 69.4555 259.165 88.0398 259.165 108.992C259.165 122.723 256.443 136.276 250.998 149.652C245.671 163.028 236.142 177.884 222.411 194.219C208.68 210.436 189.326 229.908 164.35 252.635L111.261 304.659V307.145H263.959V370H4.72643Z" stroke="#9796A5" stroke-opacity="0.35" stroke-width="2" mask="url(#path-1-outside-1_218_38)"/>
<path d="M462.246 377.99C431.706 377.872 405.428 370.355 383.411 355.44C361.512 340.526 344.644 318.923 332.807 290.632C321.088 262.341 315.288 228.31 315.406 188.537C315.406 148.883 321.266 115.088 332.985 87.152C344.822 59.2164 361.69 37.9688 383.588 23.4092C405.605 8.73111 431.825 1.39209 462.246 1.39209C492.667 1.39209 518.827 8.73111 540.726 23.4092C562.743 38.0872 579.67 59.394 591.507 87.3296C603.344 115.147 609.204 148.883 609.085 188.537C609.085 228.428 603.167 262.519 591.33 290.81C579.611 319.1 562.802 340.703 540.904 355.618C519.005 370.533 492.786 377.99 462.246 377.99ZM462.246 314.247C483.079 314.247 499.71 303.771 512.139 282.82C524.568 261.868 530.724 230.44 530.605 188.537C530.605 160.956 527.764 137.992 522.083 119.645C516.519 101.297 508.588 87.5071 498.29 78.2742C488.11 69.0412 476.095 64.4248 462.246 64.4248C441.531 64.4248 424.959 74.7823 412.53 95.4972C400.101 116.212 393.827 147.225 393.709 188.537C393.709 216.473 396.491 239.792 402.054 258.494C407.736 277.079 415.726 291.046 426.024 300.398C436.323 309.631 448.397 314.247 462.246 314.247Z" stroke="#9796A5" stroke-opacity="0.35" stroke-width="2" mask="url(#path-1-outside-1_218_38)"/>
<path d="M806.484 377.99C775.944 377.872 749.666 370.355 727.649 355.44C705.75 340.526 688.882 318.923 677.045 290.632C665.327 262.341 659.526 228.31 659.645 188.537C659.645 148.883 665.504 115.088 677.223 87.152C689.06 59.2164 705.928 37.9688 727.827 23.4092C749.844 8.73111 776.063 1.39209 806.484 1.39209C836.906 1.39209 863.066 8.73111 884.964 23.4092C906.981 38.0872 923.908 59.394 935.746 87.3296C947.583 115.147 953.442 148.883 953.324 188.537C953.324 228.428 947.405 262.519 935.568 290.81C923.849 319.1 907.041 340.703 885.142 355.618C863.243 370.533 837.024 377.99 806.484 377.99ZM806.484 314.247C827.318 314.247 843.949 303.771 856.378 282.82C868.807 261.868 874.962 230.44 874.844 188.537C874.844 160.956 872.003 137.992 866.321 119.645C860.757 101.297 852.827 87.5071 842.528 78.2742C832.348 69.0412 820.334 64.4248 806.484 64.4248C785.769 64.4248 769.197 74.7823 756.768 95.4972C744.339 116.212 738.066 147.225 737.947 188.537C737.947 216.473 740.729 239.792 746.292 258.494C751.974 277.079 759.964 291.046 770.263 300.398C780.561 309.631 792.635 314.247 806.484 314.247Z" stroke="#9796A5" stroke-opacity="0.35" stroke-width="2" mask="url(#path-1-outside-1_218_38)"/>
<path d="M1147.7 374.972C1129 374.853 1110.95 371.716 1093.55 365.561C1076.27 359.406 1060.76 349.403 1047.03 335.554C1033.3 321.705 1022.41 303.357 1014.36 280.511C1006.43 257.666 1002.46 229.612 1002.46 196.349C1002.58 165.81 1006.07 138.525 1012.94 114.496C1019.92 90.3481 1029.87 69.8698 1042.77 53.0611C1055.79 36.2524 1071.35 23.4683 1089.47 14.7088C1107.58 5.83101 1127.88 1.39209 1150.37 1.39209C1174.63 1.39209 1196.06 6.12694 1214.64 15.5967C1233.23 24.948 1248.14 37.6729 1259.39 53.7714C1270.75 69.8699 1277.62 87.9215 1279.98 107.926H1204.17C1201.21 95.2605 1194.99 85.3173 1185.52 78.0966C1176.05 70.876 1164.34 67.2657 1150.37 67.2657C1126.69 67.2657 1108.7 77.564 1096.39 98.1606C1084.2 118.757 1077.98 146.752 1077.75 182.145H1080.23C1085.68 171.373 1093.02 162.199 1102.25 154.624C1111.6 146.93 1122.2 141.07 1134.03 137.046C1145.99 132.903 1158.59 130.831 1171.85 130.831C1193.4 130.831 1212.57 135.921 1229.38 146.101C1246.19 156.162 1259.45 170.012 1269.15 187.649C1278.86 205.287 1283.71 225.469 1283.71 248.196C1283.71 272.817 1277.97 294.716 1266.49 313.892C1255.13 333.068 1239.21 348.101 1218.73 358.992C1198.37 369.763 1174.69 375.09 1147.7 374.972ZM1147.35 314.602C1159.19 314.602 1169.78 311.761 1179.13 306.08C1188.48 300.398 1195.82 292.704 1201.15 282.997C1206.48 273.291 1209.14 262.401 1209.14 250.327C1209.14 238.253 1206.48 227.422 1201.15 217.834C1195.94 208.246 1188.72 200.611 1179.49 194.929C1170.25 189.247 1159.72 186.406 1147.88 186.406C1139 186.406 1130.78 188.063 1123.2 191.378C1115.74 194.692 1109.17 199.309 1103.49 205.227C1097.93 211.146 1093.55 218.011 1090.35 225.824C1087.16 233.518 1085.56 241.745 1085.56 250.504C1085.56 262.223 1088.22 272.936 1093.55 282.642C1098.99 292.349 1106.33 300.102 1115.57 305.902C1124.92 311.702 1135.51 314.602 1147.35 314.602Z" stroke="#9796A5" stroke-opacity="0.35" stroke-width="2" mask="url(#path-1-outside-1_218_38)"/>
</svg>
