<svg width="1245" height="379" viewBox="0 0 1245 379" fill="none" xmlns="http://www.w3.org/2000/svg">
<path d="M4.96666 370V314.602L134.406 194.751C145.414 184.098 154.647 174.51 162.104 165.987C169.68 157.465 175.421 149.119 179.327 140.952C183.234 132.666 185.187 123.729 185.187 114.141C185.187 103.487 182.76 94.3135 177.907 86.6194C173.054 78.8069 166.425 72.8291 158.021 68.6861C149.616 64.4248 140.087 62.2941 129.434 62.2941C118.307 62.2941 108.601 64.5431 100.315 69.0412C92.0287 73.5393 85.6366 79.9906 81.1385 88.3949C76.6404 96.7993 74.3914 106.802 74.3914 118.402H1.41553C1.41553 94.6094 6.80142 73.9537 17.5732 56.4347C28.345 38.9158 43.4373 25.3623 62.8502 15.7742C82.2631 6.18612 104.635 1.39209 129.967 1.39209C156.008 1.39209 178.676 6.00857 197.971 15.2415C217.384 24.3561 232.476 37.0218 243.248 53.2387C254.02 69.4555 259.406 88.0398 259.406 108.992C259.406 122.723 256.683 136.276 251.238 149.652C245.911 163.028 236.382 177.884 222.651 194.219C208.92 210.436 189.567 229.908 164.59 252.635L111.501 304.659V307.145H264.2V370H4.96666Z" fill="white" fill-opacity="0.6"/>
<path d="M462.486 377.99C431.946 377.872 405.668 370.355 383.651 355.44C361.752 340.526 344.884 318.923 333.047 290.632C321.329 262.341 315.528 228.31 315.647 188.537C315.647 148.883 321.506 115.088 333.225 87.152C345.062 59.2164 361.93 37.9688 383.829 23.4092C405.846 8.73111 432.065 1.39209 462.486 1.39209C492.908 1.39209 519.068 8.73111 540.966 23.4092C562.983 38.0872 579.91 59.394 591.748 87.3296C603.585 115.147 609.444 148.883 609.326 188.537C609.326 228.428 603.407 262.519 591.57 290.81C579.851 319.1 563.043 340.703 541.144 355.618C519.245 370.533 493.026 377.99 462.486 377.99ZM462.486 314.247C483.32 314.247 499.951 303.771 512.38 282.82C524.809 261.868 530.964 230.44 530.846 188.537C530.846 160.956 528.005 137.992 522.323 119.645C516.759 101.297 508.829 87.5071 498.53 78.2742C488.35 69.0412 476.336 64.4248 462.486 64.4248C441.771 64.4248 425.199 74.7823 412.77 95.4972C400.341 116.212 394.068 147.225 393.949 188.537C393.949 216.473 396.731 239.792 402.294 258.494C407.976 277.079 415.966 291.046 426.265 300.398C436.563 309.631 448.637 314.247 462.486 314.247Z" fill="white" fill-opacity="0.6"/>
<path d="M806.724 377.99C776.185 377.872 749.906 370.355 727.889 355.44C705.991 340.526 689.123 318.923 677.286 290.632C665.567 262.341 659.767 228.31 659.885 188.537C659.885 148.883 665.744 115.088 677.463 87.152C689.3 59.2164 706.168 37.9688 728.067 23.4092C750.084 8.73111 776.303 1.39209 806.724 1.39209C837.146 1.39209 863.306 8.73111 885.205 23.4092C907.222 38.0872 924.149 59.394 935.986 87.3296C947.823 115.147 953.682 148.883 953.564 188.537C953.564 228.428 947.645 262.519 935.808 290.81C924.09 319.1 907.281 340.703 885.382 355.618C863.483 370.533 837.264 377.99 806.724 377.99ZM806.724 314.247C827.558 314.247 844.189 303.771 856.618 282.82C869.047 261.868 875.202 230.44 875.084 188.537C875.084 160.956 872.243 137.992 866.561 119.645C860.998 101.297 853.067 87.5071 842.768 78.2742C832.589 69.0412 820.574 64.4248 806.724 64.4248C786.01 64.4248 769.438 74.7823 757.009 95.4972C744.58 116.212 738.306 147.225 738.188 188.537C738.188 216.473 740.969 239.792 746.533 258.494C752.215 277.079 760.205 291.046 770.503 300.398C780.801 309.631 792.875 314.247 806.724 314.247Z" fill="white" fill-opacity="0.6"/>
<path d="M1013 370L1163.75 71.7046V69.2188H988.143V6.36368H1243.29V70.1066L1092.37 370H1013Z" fill="white" fill-opacity="0.6"/>
<path d="M4.46666 370V370.5H4.96666H264.2H264.7V370V307.145V306.645H264.2H112.001V304.869L164.927 253.005C164.929 253.003 164.931 253.001 164.933 252.999C189.914 230.267 209.283 210.781 223.033 194.542L223.034 194.541C236.784 178.183 246.348 163.282 251.701 149.84C257.169 136.407 259.906 122.79 259.906 108.992C259.906 87.9492 254.495 69.2672 243.664 52.962C232.837 36.6618 217.671 23.9391 198.185 14.7897C178.811 5.51881 156.066 0.89209 129.967 0.89209C104.571 0.89209 82.1213 5.69849 62.6288 15.3259C43.1362 24.9533 27.971 38.5694 17.1473 56.1728C6.31986 73.7822 0.915527 94.5317 0.915527 118.402V118.902H1.41553H74.3914H74.8914V118.402C74.8914 106.866 77.1277 96.9485 81.5794 88.6309C86.0319 80.3116 92.3541 73.9316 100.553 69.4807C108.754 65.0289 118.375 62.7941 129.434 62.7941C140.019 62.7941 149.469 64.9106 157.795 69.1321L157.8 69.1346C166.122 73.2371 172.679 79.1516 177.482 86.8832L177.484 86.8861C182.279 94.4875 184.687 103.565 184.687 114.141C184.687 123.658 182.749 132.521 178.876 140.737C174.995 148.852 169.283 157.159 161.731 165.655L161.728 165.658C154.283 174.166 145.062 183.743 134.062 194.388C134.061 194.39 134.059 194.391 134.058 194.392L4.62696 314.235L4.46666 314.384V314.602V370ZM462.484 378.49H462.486C493.111 378.49 519.432 371.011 541.425 356.031C563.416 341.054 580.281 319.368 592.031 291.003C603.9 262.636 609.826 228.476 609.826 188.538C609.944 148.837 604.078 115.03 592.208 87.1345C580.339 59.1227 563.354 37.7333 541.244 22.9935C519.251 8.25233 492.991 0.89209 462.486 0.89209C431.981 0.89209 405.662 8.25241 383.551 22.993C361.559 37.6148 344.634 58.9455 332.764 86.957L332.764 86.9586C321.013 114.971 315.147 148.835 315.147 188.535C315.028 228.356 320.835 262.456 332.585 290.824L332.586 290.825C344.454 319.191 361.379 340.876 383.37 355.854L383.371 355.854C405.482 370.833 431.86 378.371 462.484 378.49ZM530.346 188.537V188.538C530.464 230.409 524.31 261.728 511.95 282.565C499.593 303.395 483.11 313.747 462.486 313.747C448.76 313.747 436.805 309.176 426.598 300.026C416.39 290.754 408.438 276.879 402.773 258.35C397.228 239.71 394.449 216.443 394.449 188.538C394.568 147.261 400.839 116.355 413.199 95.7545C425.555 75.1605 441.979 64.9248 462.486 64.9248C476.213 64.9248 488.107 69.4957 498.194 78.6446L498.196 78.6465C508.405 87.7992 516.298 101.498 521.844 119.79L521.845 119.793C527.507 138.077 530.346 160.987 530.346 188.537ZM806.723 378.49H806.724C837.349 378.49 863.67 371.011 885.664 356.031C907.654 341.054 924.519 319.368 936.27 291.003C948.139 262.636 954.064 228.476 954.064 188.538C954.182 148.837 948.317 115.03 936.446 87.1345C924.577 59.1227 907.592 37.7333 885.482 22.9935C863.489 8.25233 837.229 0.89209 806.724 0.89209C776.22 0.89209 749.901 8.25235 727.79 22.9928C705.798 37.6146 688.872 58.9454 677.003 86.957L677.002 86.9586C665.251 114.971 659.385 148.835 659.385 188.535C659.266 228.356 665.073 262.456 676.824 290.824L676.824 290.825C688.693 319.191 705.617 340.876 727.608 355.854L727.609 355.854C749.72 370.833 776.099 378.371 806.723 378.49ZM874.584 188.537V188.538C874.702 230.409 868.549 261.728 856.188 282.565C843.831 303.395 827.349 313.747 806.724 313.747C792.998 313.747 781.043 309.176 770.837 300.026C760.628 290.754 752.677 276.879 747.012 258.35C741.467 239.71 738.688 216.443 738.688 188.538C738.806 147.261 745.077 116.355 757.437 95.7545C769.794 75.1605 786.217 64.9248 806.724 64.9248C820.451 64.9248 832.345 69.4957 842.433 78.6446L842.435 78.6465C852.643 87.7992 860.536 101.498 866.083 119.79L866.084 119.793C871.746 138.077 874.584 160.987 874.584 188.537ZM1012.55 369.775L1012.19 370.5H1013H1092.37H1092.68L1092.82 370.225L1243.74 70.3314L1243.79 70.2253V70.1066V6.36368V5.86368H1243.29H988.143H987.643V6.36368V69.2188V69.7188H988.143H1163.25V71.5854L1012.55 369.775Z" stroke="#9796A5" stroke-opacity="0.15"/>
</svg>
