<svg width="1287" height="379" viewBox="0 0 1287 379" fill="none" xmlns="http://www.w3.org/2000/svg">
<mask id="path-1-outside-1_218_39" maskUnits="userSpaceOnUse" x="0.931152" y="0.39209" width="1286" height="379" fill="black">
<rect fill="white" x="0.931152" y="0.39209" width="1286" height="379"/>
<path d="M5.48229 370V314.602L134.921 194.751C145.93 184.098 155.163 174.51 162.62 165.987C170.196 157.465 175.937 149.119 179.843 140.952C183.749 132.666 185.702 123.729 185.702 114.141C185.702 103.487 183.276 94.3135 178.423 86.6194C173.569 78.8069 166.941 72.8291 158.536 68.6861C150.132 64.4248 140.603 62.2941 129.95 62.2941C118.823 62.2941 109.116 64.5431 100.83 69.0412C92.5443 73.5393 86.1523 79.9906 81.6542 88.3949C77.1561 96.7993 74.907 106.802 74.907 118.402H1.93115C1.93115 94.6094 7.31704 73.9537 18.0888 56.4347C28.8606 38.9158 43.9529 25.3623 63.3658 15.7742C82.7787 6.18612 105.151 1.39209 130.482 1.39209C156.524 1.39209 179.192 6.00857 198.487 15.2415C217.899 24.3561 232.992 37.0218 243.764 53.2387C254.535 69.4555 259.921 88.0398 259.921 108.992C259.921 122.723 257.199 136.276 251.754 149.652C246.427 163.028 236.898 177.884 223.167 194.219C209.436 210.436 190.082 229.908 165.106 252.635L112.016 304.659V307.145H264.715V370H5.48229Z"/>
<path d="M463.002 377.99C432.462 377.872 406.184 370.355 384.167 355.44C362.268 340.526 345.4 318.923 333.563 290.632C321.844 262.341 316.044 228.31 316.162 188.537C316.162 148.883 322.022 115.088 333.74 87.152C345.578 59.2164 362.445 37.9688 384.344 23.4092C406.361 8.73111 432.58 1.39209 463.002 1.39209C493.423 1.39209 519.583 8.73111 541.482 23.4092C563.499 38.0872 580.426 59.394 592.263 87.3296C604.1 115.147 609.96 148.883 609.841 188.537C609.841 228.428 603.923 262.519 592.086 290.81C580.367 319.1 563.558 340.703 541.659 355.618C519.761 370.533 493.542 377.99 463.002 377.99ZM463.002 314.247C483.835 314.247 500.466 303.771 512.895 282.82C525.324 261.868 531.48 230.44 531.361 188.537C531.361 160.956 528.52 137.992 522.839 119.645C517.275 101.297 509.344 87.5071 499.046 78.2742C488.866 69.0412 476.851 64.4248 463.002 64.4248C442.287 64.4248 425.715 74.7823 413.286 95.4972C400.857 116.212 394.583 147.225 394.465 188.537C394.465 216.473 397.247 239.792 402.81 258.494C408.492 277.079 416.482 291.046 426.78 300.398C437.079 309.631 449.152 314.247 463.002 314.247Z"/>
<path d="M807.24 377.99C776.7 377.872 750.422 370.355 728.405 355.44C706.506 340.526 689.638 318.923 677.801 290.632C666.082 262.341 660.282 228.31 660.401 188.537C660.401 148.883 666.26 115.088 677.979 87.152C689.816 59.2164 706.684 37.9688 728.582 23.4092C750.6 8.73111 776.819 1.39209 807.24 1.39209C837.662 1.39209 863.822 8.73111 885.72 23.4092C907.737 38.0872 924.664 59.394 936.501 87.3296C948.339 115.147 954.198 148.883 954.08 188.537C954.08 228.428 948.161 262.519 936.324 290.81C924.605 319.1 907.796 340.703 885.898 355.618C863.999 370.533 837.78 377.99 807.24 377.99ZM807.24 314.247C828.073 314.247 844.705 303.771 857.134 282.82C869.563 261.868 875.718 230.44 875.599 188.537C875.599 160.956 872.759 137.992 867.077 119.645C861.513 101.297 853.582 87.5071 843.284 78.2742C833.104 69.0412 821.09 64.4248 807.24 64.4248C786.525 64.4248 769.953 74.7823 757.524 95.4972C745.095 116.212 738.822 147.225 738.703 188.537C738.703 216.473 741.485 239.792 747.048 258.494C752.73 277.079 760.72 291.046 771.018 300.398C781.317 309.631 793.391 314.247 807.24 314.247Z"/>
<path d="M1144.55 374.972C1117.21 374.972 1092.88 370.533 1071.58 361.655C1050.39 352.659 1033.76 340.407 1021.68 324.901C1009.61 309.394 1003.57 291.816 1003.57 272.166C1003.57 257.015 1007.01 243.106 1013.87 230.44C1020.86 217.656 1030.33 207.062 1042.28 198.658C1054.24 190.135 1067.61 184.69 1082.41 182.322V179.837C1063 175.93 1047.25 166.52 1035.18 151.605C1023.1 136.572 1017.07 119.112 1017.07 99.2259C1017.07 80.4049 1022.57 63.6554 1033.58 48.9773C1044.59 34.1809 1059.68 22.5805 1078.86 14.1762C1098.15 5.65345 1120.05 1.39209 1144.55 1.39209C1169.06 1.39209 1190.9 5.65345 1210.07 14.1762C1229.37 22.6989 1244.52 34.3585 1255.53 49.1549C1266.54 63.8329 1272.1 80.5233 1272.22 99.2259C1272.1 119.231 1265.94 136.69 1253.75 151.605C1241.56 166.52 1225.93 175.93 1206.88 179.837V182.322C1221.44 184.69 1234.63 190.135 1246.47 198.658C1258.43 207.062 1267.9 217.656 1274.88 230.44C1281.98 243.106 1285.59 257.015 1285.71 272.166C1285.59 291.816 1279.5 309.394 1267.42 324.901C1255.35 340.407 1238.66 352.659 1217.35 361.655C1196.16 370.533 1171.9 374.972 1144.55 374.972ZM1144.55 318.509C1156.75 318.509 1167.4 316.319 1176.51 311.939C1185.63 307.441 1192.73 301.286 1197.82 293.473C1203.03 285.542 1205.63 276.428 1205.63 266.129C1205.63 255.594 1202.97 246.302 1197.64 238.253C1192.32 230.085 1185.1 223.693 1175.98 219.077C1166.87 214.342 1156.39 211.974 1144.55 211.974C1132.83 211.974 1122.36 214.342 1113.13 219.077C1103.89 223.693 1096.61 230.085 1091.29 238.253C1086.08 246.302 1083.47 255.594 1083.47 266.129C1083.47 276.428 1086.02 285.542 1091.11 293.473C1096.2 301.286 1103.36 307.441 1112.59 311.939C1121.83 316.319 1132.48 318.509 1144.55 318.509ZM1144.55 156.044C1154.73 156.044 1163.79 153.973 1171.72 149.83C1179.65 145.687 1185.87 139.946 1190.36 132.607C1194.86 125.268 1197.11 116.804 1197.11 107.216C1197.11 97.7463 1194.86 89.4603 1190.36 82.358C1185.87 75.1373 1179.71 69.5147 1171.9 65.4901C1164.08 61.3471 1154.97 59.2756 1144.55 59.2756C1134.26 59.2756 1125.14 61.3471 1117.21 65.4901C1109.28 69.5147 1103.06 75.1373 1098.57 82.358C1094.19 89.4603 1092 97.7463 1092 107.216C1092 116.804 1094.25 125.268 1098.74 132.607C1103.24 139.946 1109.46 145.687 1117.39 149.83C1125.32 153.973 1134.37 156.044 1144.55 156.044Z"/>
</mask>
<path d="M5.48229 370V314.602L134.921 194.751C145.93 184.098 155.163 174.51 162.62 165.987C170.196 157.465 175.937 149.119 179.843 140.952C183.749 132.666 185.702 123.729 185.702 114.141C185.702 103.487 183.276 94.3135 178.423 86.6194C173.569 78.8069 166.941 72.8291 158.536 68.6861C150.132 64.4248 140.603 62.2941 129.95 62.2941C118.823 62.2941 109.116 64.5431 100.83 69.0412C92.5443 73.5393 86.1523 79.9906 81.6542 88.3949C77.1561 96.7993 74.907 106.802 74.907 118.402H1.93115C1.93115 94.6094 7.31704 73.9537 18.0888 56.4347C28.8606 38.9158 43.9529 25.3623 63.3658 15.7742C82.7787 6.18612 105.151 1.39209 130.482 1.39209C156.524 1.39209 179.192 6.00857 198.487 15.2415C217.899 24.3561 232.992 37.0218 243.764 53.2387C254.535 69.4555 259.921 88.0398 259.921 108.992C259.921 122.723 257.199 136.276 251.754 149.652C246.427 163.028 236.898 177.884 223.167 194.219C209.436 210.436 190.082 229.908 165.106 252.635L112.016 304.659V307.145H264.715V370H5.48229Z" fill="white" fill-opacity="0.6"/>
<path d="M463.002 377.99C432.462 377.872 406.184 370.355 384.167 355.44C362.268 340.526 345.4 318.923 333.563 290.632C321.844 262.341 316.044 228.31 316.162 188.537C316.162 148.883 322.022 115.088 333.74 87.152C345.578 59.2164 362.445 37.9688 384.344 23.4092C406.361 8.73111 432.58 1.39209 463.002 1.39209C493.423 1.39209 519.583 8.73111 541.482 23.4092C563.499 38.0872 580.426 59.394 592.263 87.3296C604.1 115.147 609.96 148.883 609.841 188.537C609.841 228.428 603.923 262.519 592.086 290.81C580.367 319.1 563.558 340.703 541.659 355.618C519.761 370.533 493.542 377.99 463.002 377.99ZM463.002 314.247C483.835 314.247 500.466 303.771 512.895 282.82C525.324 261.868 531.48 230.44 531.361 188.537C531.361 160.956 528.52 137.992 522.839 119.645C517.275 101.297 509.344 87.5071 499.046 78.2742C488.866 69.0412 476.851 64.4248 463.002 64.4248C442.287 64.4248 425.715 74.7823 413.286 95.4972C400.857 116.212 394.583 147.225 394.465 188.537C394.465 216.473 397.247 239.792 402.81 258.494C408.492 277.079 416.482 291.046 426.78 300.398C437.079 309.631 449.152 314.247 463.002 314.247Z" fill="white" fill-opacity="0.6"/>
<path d="M807.24 377.99C776.7 377.872 750.422 370.355 728.405 355.44C706.506 340.526 689.638 318.923 677.801 290.632C666.082 262.341 660.282 228.31 660.401 188.537C660.401 148.883 666.26 115.088 677.979 87.152C689.816 59.2164 706.684 37.9688 728.582 23.4092C750.6 8.73111 776.819 1.39209 807.24 1.39209C837.662 1.39209 863.822 8.73111 885.72 23.4092C907.737 38.0872 924.664 59.394 936.501 87.3296C948.339 115.147 954.198 148.883 954.08 188.537C954.08 228.428 948.161 262.519 936.324 290.81C924.605 319.1 907.796 340.703 885.898 355.618C863.999 370.533 837.78 377.99 807.24 377.99ZM807.24 314.247C828.073 314.247 844.705 303.771 857.134 282.82C869.563 261.868 875.718 230.44 875.599 188.537C875.599 160.956 872.759 137.992 867.077 119.645C861.513 101.297 853.582 87.5071 843.284 78.2742C833.104 69.0412 821.09 64.4248 807.24 64.4248C786.525 64.4248 769.953 74.7823 757.524 95.4972C745.095 116.212 738.822 147.225 738.703 188.537C738.703 216.473 741.485 239.792 747.048 258.494C752.73 277.079 760.72 291.046 771.018 300.398C781.317 309.631 793.391 314.247 807.24 314.247Z" fill="white" fill-opacity="0.6"/>
<path d="M1144.55 374.972C1117.21 374.972 1092.88 370.533 1071.58 361.655C1050.39 352.659 1033.76 340.407 1021.68 324.901C1009.61 309.394 1003.57 291.816 1003.57 272.166C1003.57 257.015 1007.01 243.106 1013.87 230.44C1020.86 217.656 1030.33 207.062 1042.28 198.658C1054.24 190.135 1067.61 184.69 1082.41 182.322V179.837C1063 175.93 1047.25 166.52 1035.18 151.605C1023.1 136.572 1017.07 119.112 1017.07 99.2259C1017.07 80.4049 1022.57 63.6554 1033.58 48.9773C1044.59 34.1809 1059.68 22.5805 1078.86 14.1762C1098.15 5.65345 1120.05 1.39209 1144.55 1.39209C1169.06 1.39209 1190.9 5.65345 1210.07 14.1762C1229.37 22.6989 1244.52 34.3585 1255.53 49.1549C1266.54 63.8329 1272.1 80.5233 1272.22 99.2259C1272.1 119.231 1265.94 136.69 1253.75 151.605C1241.56 166.52 1225.93 175.93 1206.88 179.837V182.322C1221.44 184.69 1234.63 190.135 1246.47 198.658C1258.43 207.062 1267.9 217.656 1274.88 230.44C1281.98 243.106 1285.59 257.015 1285.71 272.166C1285.59 291.816 1279.5 309.394 1267.42 324.901C1255.35 340.407 1238.66 352.659 1217.35 361.655C1196.16 370.533 1171.9 374.972 1144.55 374.972ZM1144.55 318.509C1156.75 318.509 1167.4 316.319 1176.51 311.939C1185.63 307.441 1192.73 301.286 1197.82 293.473C1203.03 285.542 1205.63 276.428 1205.63 266.129C1205.63 255.594 1202.97 246.302 1197.64 238.253C1192.32 230.085 1185.1 223.693 1175.98 219.077C1166.87 214.342 1156.39 211.974 1144.55 211.974C1132.83 211.974 1122.36 214.342 1113.13 219.077C1103.89 223.693 1096.61 230.085 1091.29 238.253C1086.08 246.302 1083.47 255.594 1083.47 266.129C1083.47 276.428 1086.02 285.542 1091.11 293.473C1096.2 301.286 1103.36 307.441 1112.59 311.939C1121.83 316.319 1132.48 318.509 1144.55 318.509ZM1144.55 156.044C1154.73 156.044 1163.79 153.973 1171.72 149.83C1179.65 145.687 1185.87 139.946 1190.36 132.607C1194.86 125.268 1197.11 116.804 1197.11 107.216C1197.11 97.7463 1194.86 89.4603 1190.36 82.358C1185.87 75.1373 1179.71 69.5147 1171.9 65.4901C1164.08 61.3471 1154.97 59.2756 1144.55 59.2756C1134.26 59.2756 1125.14 61.3471 1117.21 65.4901C1109.28 69.5147 1103.06 75.1373 1098.57 82.358C1094.19 89.4603 1092 97.7463 1092 107.216C1092 116.804 1094.25 125.268 1098.74 132.607C1103.24 139.946 1109.46 145.687 1117.39 149.83C1125.32 153.973 1134.37 156.044 1144.55 156.044Z" fill="white" fill-opacity="0.6"/>
<path d="M5.48229 370V314.602L134.921 194.751C145.93 184.098 155.163 174.51 162.62 165.987C170.196 157.465 175.937 149.119 179.843 140.952C183.749 132.666 185.702 123.729 185.702 114.141C185.702 103.487 183.276 94.3135 178.423 86.6194C173.569 78.8069 166.941 72.8291 158.536 68.6861C150.132 64.4248 140.603 62.2941 129.95 62.2941C118.823 62.2941 109.116 64.5431 100.83 69.0412C92.5443 73.5393 86.1523 79.9906 81.6542 88.3949C77.1561 96.7993 74.907 106.802 74.907 118.402H1.93115C1.93115 94.6094 7.31704 73.9537 18.0888 56.4347C28.8606 38.9158 43.9529 25.3623 63.3658 15.7742C82.7787 6.18612 105.151 1.39209 130.482 1.39209C156.524 1.39209 179.192 6.00857 198.487 15.2415C217.899 24.3561 232.992 37.0218 243.764 53.2387C254.535 69.4555 259.921 88.0398 259.921 108.992C259.921 122.723 257.199 136.276 251.754 149.652C246.427 163.028 236.898 177.884 223.167 194.219C209.436 210.436 190.082 229.908 165.106 252.635L112.016 304.659V307.145H264.715V370H5.48229Z" stroke="#9796A5" stroke-opacity="0.15" stroke-width="2" mask="url(#path-1-outside-1_218_39)"/>
<path d="M463.002 377.99C432.462 377.872 406.184 370.355 384.167 355.44C362.268 340.526 345.4 318.923 333.563 290.632C321.844 262.341 316.044 228.31 316.162 188.537C316.162 148.883 322.022 115.088 333.74 87.152C345.578 59.2164 362.445 37.9688 384.344 23.4092C406.361 8.73111 432.58 1.39209 463.002 1.39209C493.423 1.39209 519.583 8.73111 541.482 23.4092C563.499 38.0872 580.426 59.394 592.263 87.3296C604.1 115.147 609.96 148.883 609.841 188.537C609.841 228.428 603.923 262.519 592.086 290.81C580.367 319.1 563.558 340.703 541.659 355.618C519.761 370.533 493.542 377.99 463.002 377.99ZM463.002 314.247C483.835 314.247 500.466 303.771 512.895 282.82C525.324 261.868 531.48 230.44 531.361 188.537C531.361 160.956 528.52 137.992 522.839 119.645C517.275 101.297 509.344 87.5071 499.046 78.2742C488.866 69.0412 476.851 64.4248 463.002 64.4248C442.287 64.4248 425.715 74.7823 413.286 95.4972C400.857 116.212 394.583 147.225 394.465 188.537C394.465 216.473 397.247 239.792 402.81 258.494C408.492 277.079 416.482 291.046 426.78 300.398C437.079 309.631 449.152 314.247 463.002 314.247Z" stroke="#9796A5" stroke-opacity="0.15" stroke-width="2" mask="url(#path-1-outside-1_218_39)"/>
<path d="M807.24 377.99C776.7 377.872 750.422 370.355 728.405 355.44C706.506 340.526 689.638 318.923 677.801 290.632C666.082 262.341 660.282 228.31 660.401 188.537C660.401 148.883 666.26 115.088 677.979 87.152C689.816 59.2164 706.684 37.9688 728.582 23.4092C750.6 8.73111 776.819 1.39209 807.24 1.39209C837.662 1.39209 863.822 8.73111 885.72 23.4092C907.737 38.0872 924.664 59.394 936.501 87.3296C948.339 115.147 954.198 148.883 954.08 188.537C954.08 228.428 948.161 262.519 936.324 290.81C924.605 319.1 907.796 340.703 885.898 355.618C863.999 370.533 837.78 377.99 807.24 377.99ZM807.24 314.247C828.073 314.247 844.705 303.771 857.134 282.82C869.563 261.868 875.718 230.44 875.599 188.537C875.599 160.956 872.759 137.992 867.077 119.645C861.513 101.297 853.582 87.5071 843.284 78.2742C833.104 69.0412 821.09 64.4248 807.24 64.4248C786.525 64.4248 769.953 74.7823 757.524 95.4972C745.095 116.212 738.822 147.225 738.703 188.537C738.703 216.473 741.485 239.792 747.048 258.494C752.73 277.079 760.72 291.046 771.018 300.398C781.317 309.631 793.391 314.247 807.24 314.247Z" stroke="#9796A5" stroke-opacity="0.15" stroke-width="2" mask="url(#path-1-outside-1_218_39)"/>
<path d="M1144.55 374.972C1117.21 374.972 1092.88 370.533 1071.58 361.655C1050.39 352.659 1033.76 340.407 1021.68 324.901C1009.61 309.394 1003.57 291.816 1003.57 272.166C1003.57 257.015 1007.01 243.106 1013.87 230.44C1020.86 217.656 1030.33 207.062 1042.28 198.658C1054.24 190.135 1067.61 184.69 1082.41 182.322V179.837C1063 175.93 1047.25 166.52 1035.18 151.605C1023.1 136.572 1017.07 119.112 1017.07 99.2259C1017.07 80.4049 1022.57 63.6554 1033.58 48.9773C1044.59 34.1809 1059.68 22.5805 1078.86 14.1762C1098.15 5.65345 1120.05 1.39209 1144.55 1.39209C1169.06 1.39209 1190.9 5.65345 1210.07 14.1762C1229.37 22.6989 1244.52 34.3585 1255.53 49.1549C1266.54 63.8329 1272.1 80.5233 1272.22 99.2259C1272.1 119.231 1265.94 136.69 1253.75 151.605C1241.56 166.52 1225.93 175.93 1206.88 179.837V182.322C1221.44 184.69 1234.63 190.135 1246.47 198.658C1258.43 207.062 1267.9 217.656 1274.88 230.44C1281.98 243.106 1285.59 257.015 1285.71 272.166C1285.59 291.816 1279.5 309.394 1267.42 324.901C1255.35 340.407 1238.66 352.659 1217.35 361.655C1196.16 370.533 1171.9 374.972 1144.55 374.972ZM1144.55 318.509C1156.75 318.509 1167.4 316.319 1176.51 311.939C1185.63 307.441 1192.73 301.286 1197.82 293.473C1203.03 285.542 1205.63 276.428 1205.63 266.129C1205.63 255.594 1202.97 246.302 1197.64 238.253C1192.32 230.085 1185.1 223.693 1175.98 219.077C1166.87 214.342 1156.39 211.974 1144.55 211.974C1132.83 211.974 1122.36 214.342 1113.13 219.077C1103.89 223.693 1096.61 230.085 1091.29 238.253C1086.08 246.302 1083.47 255.594 1083.47 266.129C1083.47 276.428 1086.02 285.542 1091.11 293.473C1096.2 301.286 1103.36 307.441 1112.59 311.939C1121.83 316.319 1132.48 318.509 1144.55 318.509ZM1144.55 156.044C1154.73 156.044 1163.79 153.973 1171.72 149.83C1179.65 145.687 1185.87 139.946 1190.36 132.607C1194.86 125.268 1197.11 116.804 1197.11 107.216C1197.11 97.7463 1194.86 89.4603 1190.36 82.358C1185.87 75.1373 1179.71 69.5147 1171.9 65.4901C1164.08 61.3471 1154.97 59.2756 1144.55 59.2756C1134.26 59.2756 1125.14 61.3471 1117.21 65.4901C1109.28 69.5147 1103.06 75.1373 1098.57 82.358C1094.19 89.4603 1092 97.7463 1092 107.216C1092 116.804 1094.25 125.268 1098.74 132.607C1103.24 139.946 1109.46 145.687 1117.39 149.83C1125.32 153.973 1134.37 156.044 1144.55 156.044Z" stroke="#9796A5" stroke-opacity="0.15" stroke-width="2" mask="url(#path-1-outside-1_218_39)"/>
</svg>
