<svg width="1286" height="379" viewBox="0 0 1286 379" fill="none" xmlns="http://www.w3.org/2000/svg">
<mask id="path-1-outside-1_218_54" maskUnits="userSpaceOnUse" x="0.175293" y="0.390137" width="1286" height="379" fill="black">
<rect fill="white" x="0.175293" y="0.390137" width="1286" height="379"/>
<path d="M4.72643 370V314.602L134.165 194.751C145.174 184.098 154.407 174.51 161.864 165.987C169.44 157.464 175.181 149.119 179.087 140.952C182.993 132.666 184.947 123.729 184.947 114.141C184.947 103.487 182.52 94.3134 177.667 86.6193C172.814 78.8068 166.185 72.8291 157.78 68.6861C149.376 64.4247 139.847 62.294 129.194 62.294C118.067 62.294 108.36 64.5431 100.074 69.0412C91.7885 73.5393 85.3964 79.9905 80.8983 88.3949C76.4002 96.7992 74.1511 106.802 74.1511 118.402H1.17529C1.17529 94.6094 6.56118 73.9536 17.333 56.4347C28.1047 38.9157 43.1971 25.3622 62.61 15.7741C82.0228 6.18608 104.395 1.39205 129.726 1.39205C155.768 1.39205 178.436 6.00853 197.731 15.2415C217.144 24.3561 232.236 37.0218 243.008 53.2386C253.779 69.4555 259.165 88.0398 259.165 108.991C259.165 122.723 256.443 136.276 250.998 149.652C245.671 163.028 236.142 177.884 222.411 194.219C208.68 210.436 189.326 229.908 164.35 252.635L111.261 304.659V307.145H263.959V370H4.72643Z"/>
<path d="M462.246 377.99C431.706 377.872 405.428 370.355 383.411 355.44C361.512 340.526 344.644 318.923 332.807 290.632C321.088 262.341 315.288 228.31 315.406 188.537C315.406 148.883 321.266 115.088 332.985 87.152C344.822 59.2164 361.69 37.9688 383.588 23.4091C405.605 8.73107 431.825 1.39205 462.246 1.39205C492.667 1.39205 518.827 8.73107 540.726 23.4091C562.743 38.0871 579.67 59.3939 591.507 87.3295C603.344 115.147 609.204 148.883 609.085 188.537C609.085 228.428 603.167 262.519 591.33 290.81C579.611 319.1 562.802 340.703 540.904 355.618C519.005 370.533 492.786 377.99 462.246 377.99ZM462.246 314.247C483.079 314.247 499.71 303.771 512.139 282.82C524.568 261.868 530.724 230.44 530.605 188.537C530.605 160.956 527.764 137.992 522.083 119.645C516.519 101.297 508.588 87.5071 498.29 78.2741C488.11 69.0412 476.095 64.4247 462.246 64.4247C441.531 64.4247 424.959 74.7822 412.53 95.4972C400.101 116.212 393.827 147.225 393.709 188.537C393.709 216.473 396.491 239.792 402.054 258.494C407.736 277.079 415.726 291.046 426.024 300.398C436.323 309.631 448.397 314.247 462.246 314.247Z"/>
<path d="M806.484 377.99C775.944 377.872 749.666 370.355 727.649 355.44C705.75 340.526 688.882 318.923 677.045 290.632C665.327 262.341 659.526 228.31 659.645 188.537C659.645 148.883 665.504 115.088 677.223 87.152C689.06 59.2164 705.928 37.9688 727.827 23.4091C749.844 8.73107 776.063 1.39205 806.484 1.39205C836.906 1.39205 863.066 8.73107 884.964 23.4091C906.981 38.0871 923.908 59.3939 935.746 87.3295C947.583 115.147 953.442 148.883 953.324 188.537C953.324 228.428 947.405 262.519 935.568 290.81C923.849 319.1 907.041 340.703 885.142 355.618C863.243 370.533 837.024 377.99 806.484 377.99ZM806.484 314.247C827.318 314.247 843.949 303.771 856.378 282.82C868.807 261.868 874.962 230.44 874.844 188.537C874.844 160.956 872.003 137.992 866.321 119.645C860.757 101.297 852.827 87.5071 842.528 78.2741C832.348 69.0412 820.334 64.4247 806.484 64.4247C785.769 64.4247 769.197 74.7822 756.768 95.4972C744.339 116.212 738.066 147.225 737.947 188.537C737.947 216.473 740.729 239.792 746.292 258.494C751.974 277.079 759.964 291.046 770.263 300.398C780.561 309.631 792.635 314.247 806.484 314.247Z"/>
<path d="M1139.71 1.39205C1158.42 1.39205 1176.41 4.52888 1193.69 10.8025C1211.09 17.0762 1226.6 27.0786 1240.21 40.8097C1253.94 54.5407 1264.77 72.7699 1272.7 95.4972C1280.75 118.106 1284.84 145.864 1284.96 178.771C1284.96 209.666 1281.46 237.247 1274.48 261.513C1267.61 285.661 1257.73 306.198 1244.83 323.125C1231.93 340.052 1216.36 352.955 1198.13 361.832C1179.9 370.592 1159.54 374.972 1137.05 374.972C1112.78 374.972 1091.36 370.296 1072.78 360.945C1054.19 351.475 1039.22 338.632 1027.85 322.415C1016.61 306.08 1009.8 287.732 1007.43 267.372H1083.25C1086.21 280.63 1092.42 290.928 1101.89 298.267C1111.36 305.488 1123.08 309.098 1137.05 309.098C1160.72 309.098 1178.72 298.8 1191.03 278.203C1203.34 257.488 1209.55 229.138 1209.67 193.153H1207.19C1201.74 203.807 1194.4 212.981 1185.17 220.675C1175.94 228.25 1165.34 234.11 1153.39 238.253C1141.55 242.396 1128.94 244.467 1115.57 244.467C1094.14 244.467 1075.02 239.437 1058.22 229.375C1041.41 219.313 1028.15 205.464 1018.44 187.827C1008.74 170.189 1003.88 150.066 1003.88 127.457C1003.76 103.073 1009.39 81.3518 1020.75 62.294C1032.11 43.2363 1047.98 28.3215 1068.34 17.5497C1088.81 6.65957 1112.61 1.27367 1139.71 1.39205ZM1140.25 61.7614C1128.29 61.7614 1117.64 64.6023 1108.29 70.2841C1099.05 75.9659 1091.71 83.6009 1086.27 93.1889C1080.94 102.777 1078.34 113.49 1078.46 125.327C1078.46 137.282 1081.06 148.054 1086.27 157.642C1091.6 167.112 1098.82 174.688 1107.93 180.369C1117.16 185.933 1127.7 188.714 1139.54 188.714C1148.41 188.714 1156.64 187.057 1164.22 183.743C1171.79 180.429 1178.36 175.871 1183.93 170.071C1189.61 164.152 1194.05 157.346 1197.24 149.652C1200.44 141.958 1202.04 133.79 1202.04 125.149C1201.92 113.667 1199.2 103.132 1193.87 93.544C1188.54 83.956 1181.2 76.2618 1171.85 70.4616C1162.5 64.6615 1151.97 61.7614 1140.25 61.7614Z"/>
</mask>
<path d="M4.72643 370V314.602L134.165 194.751C145.174 184.098 154.407 174.51 161.864 165.987C169.44 157.464 175.181 149.119 179.087 140.952C182.993 132.666 184.947 123.729 184.947 114.141C184.947 103.487 182.52 94.3134 177.667 86.6193C172.814 78.8068 166.185 72.8291 157.78 68.6861C149.376 64.4247 139.847 62.294 129.194 62.294C118.067 62.294 108.36 64.5431 100.074 69.0412C91.7885 73.5393 85.3964 79.9905 80.8983 88.3949C76.4002 96.7992 74.1511 106.802 74.1511 118.402H1.17529C1.17529 94.6094 6.56118 73.9536 17.333 56.4347C28.1047 38.9157 43.1971 25.3622 62.61 15.7741C82.0228 6.18608 104.395 1.39205 129.726 1.39205C155.768 1.39205 178.436 6.00853 197.731 15.2415C217.144 24.3561 232.236 37.0218 243.008 53.2386C253.779 69.4555 259.165 88.0398 259.165 108.991C259.165 122.723 256.443 136.276 250.998 149.652C245.671 163.028 236.142 177.884 222.411 194.219C208.68 210.436 189.326 229.908 164.35 252.635L111.261 304.659V307.145H263.959V370H4.72643Z" fill="white" fill-opacity="0.7"/>
<path d="M462.246 377.99C431.706 377.872 405.428 370.355 383.411 355.44C361.512 340.526 344.644 318.923 332.807 290.632C321.088 262.341 315.288 228.31 315.406 188.537C315.406 148.883 321.266 115.088 332.985 87.152C344.822 59.2164 361.69 37.9688 383.588 23.4091C405.605 8.73107 431.825 1.39205 462.246 1.39205C492.667 1.39205 518.827 8.73107 540.726 23.4091C562.743 38.0871 579.67 59.3939 591.507 87.3295C603.344 115.147 609.204 148.883 609.085 188.537C609.085 228.428 603.167 262.519 591.33 290.81C579.611 319.1 562.802 340.703 540.904 355.618C519.005 370.533 492.786 377.99 462.246 377.99ZM462.246 314.247C483.079 314.247 499.71 303.771 512.139 282.82C524.568 261.868 530.724 230.44 530.605 188.537C530.605 160.956 527.764 137.992 522.083 119.645C516.519 101.297 508.588 87.5071 498.29 78.2741C488.11 69.0412 476.095 64.4247 462.246 64.4247C441.531 64.4247 424.959 74.7822 412.53 95.4972C400.101 116.212 393.827 147.225 393.709 188.537C393.709 216.473 396.491 239.792 402.054 258.494C407.736 277.079 415.726 291.046 426.024 300.398C436.323 309.631 448.397 314.247 462.246 314.247Z" fill="white" fill-opacity="0.7"/>
<path d="M806.484 377.99C775.944 377.872 749.666 370.355 727.649 355.44C705.75 340.526 688.882 318.923 677.045 290.632C665.327 262.341 659.526 228.31 659.645 188.537C659.645 148.883 665.504 115.088 677.223 87.152C689.06 59.2164 705.928 37.9688 727.827 23.4091C749.844 8.73107 776.063 1.39205 806.484 1.39205C836.906 1.39205 863.066 8.73107 884.964 23.4091C906.981 38.0871 923.908 59.3939 935.746 87.3295C947.583 115.147 953.442 148.883 953.324 188.537C953.324 228.428 947.405 262.519 935.568 290.81C923.849 319.1 907.041 340.703 885.142 355.618C863.243 370.533 837.024 377.99 806.484 377.99ZM806.484 314.247C827.318 314.247 843.949 303.771 856.378 282.82C868.807 261.868 874.962 230.44 874.844 188.537C874.844 160.956 872.003 137.992 866.321 119.645C860.757 101.297 852.827 87.5071 842.528 78.2741C832.348 69.0412 820.334 64.4247 806.484 64.4247C785.769 64.4247 769.197 74.7822 756.768 95.4972C744.339 116.212 738.066 147.225 737.947 188.537C737.947 216.473 740.729 239.792 746.292 258.494C751.974 277.079 759.964 291.046 770.263 300.398C780.561 309.631 792.635 314.247 806.484 314.247Z" fill="white" fill-opacity="0.7"/>
<path d="M1139.71 1.39205C1158.42 1.39205 1176.41 4.52888 1193.69 10.8025C1211.09 17.0762 1226.6 27.0786 1240.21 40.8097C1253.94 54.5407 1264.77 72.7699 1272.7 95.4972C1280.75 118.106 1284.84 145.864 1284.96 178.771C1284.96 209.666 1281.46 237.247 1274.48 261.513C1267.61 285.661 1257.73 306.198 1244.83 323.125C1231.93 340.052 1216.36 352.955 1198.13 361.832C1179.9 370.592 1159.54 374.972 1137.05 374.972C1112.78 374.972 1091.36 370.296 1072.78 360.945C1054.19 351.475 1039.22 338.632 1027.85 322.415C1016.61 306.08 1009.8 287.732 1007.43 267.372H1083.25C1086.21 280.63 1092.42 290.928 1101.89 298.267C1111.36 305.488 1123.08 309.098 1137.05 309.098C1160.72 309.098 1178.72 298.8 1191.03 278.203C1203.34 257.488 1209.55 229.138 1209.67 193.153H1207.19C1201.74 203.807 1194.4 212.981 1185.17 220.675C1175.94 228.25 1165.34 234.11 1153.39 238.253C1141.55 242.396 1128.94 244.467 1115.57 244.467C1094.14 244.467 1075.02 239.437 1058.22 229.375C1041.41 219.313 1028.15 205.464 1018.44 187.827C1008.74 170.189 1003.88 150.066 1003.88 127.457C1003.76 103.073 1009.39 81.3518 1020.75 62.294C1032.11 43.2363 1047.98 28.3215 1068.34 17.5497C1088.81 6.65957 1112.61 1.27367 1139.71 1.39205ZM1140.25 61.7614C1128.29 61.7614 1117.64 64.6023 1108.29 70.2841C1099.05 75.9659 1091.71 83.6009 1086.27 93.1889C1080.94 102.777 1078.34 113.49 1078.46 125.327C1078.46 137.282 1081.06 148.054 1086.27 157.642C1091.6 167.112 1098.82 174.688 1107.93 180.369C1117.16 185.933 1127.7 188.714 1139.54 188.714C1148.41 188.714 1156.64 187.057 1164.22 183.743C1171.79 180.429 1178.36 175.871 1183.93 170.071C1189.61 164.152 1194.05 157.346 1197.24 149.652C1200.44 141.958 1202.04 133.79 1202.04 125.149C1201.92 113.667 1199.2 103.132 1193.87 93.544C1188.54 83.956 1181.2 76.2618 1171.85 70.4616C1162.5 64.6615 1151.97 61.7614 1140.25 61.7614Z" fill="white" fill-opacity="0.7"/>
<path d="M4.72643 370V314.602L134.165 194.751C145.174 184.098 154.407 174.51 161.864 165.987C169.44 157.464 175.181 149.119 179.087 140.952C182.993 132.666 184.947 123.729 184.947 114.141C184.947 103.487 182.52 94.3134 177.667 86.6193C172.814 78.8068 166.185 72.8291 157.78 68.6861C149.376 64.4247 139.847 62.294 129.194 62.294C118.067 62.294 108.36 64.5431 100.074 69.0412C91.7885 73.5393 85.3964 79.9905 80.8983 88.3949C76.4002 96.7992 74.1511 106.802 74.1511 118.402H1.17529C1.17529 94.6094 6.56118 73.9536 17.333 56.4347C28.1047 38.9157 43.1971 25.3622 62.61 15.7741C82.0228 6.18608 104.395 1.39205 129.726 1.39205C155.768 1.39205 178.436 6.00853 197.731 15.2415C217.144 24.3561 232.236 37.0218 243.008 53.2386C253.779 69.4555 259.165 88.0398 259.165 108.991C259.165 122.723 256.443 136.276 250.998 149.652C245.671 163.028 236.142 177.884 222.411 194.219C208.68 210.436 189.326 229.908 164.35 252.635L111.261 304.659V307.145H263.959V370H4.72643Z" stroke="#9796A5" stroke-opacity="0.35" stroke-width="2" mask="url(#path-1-outside-1_218_54)"/>
<path d="M462.246 377.99C431.706 377.872 405.428 370.355 383.411 355.44C361.512 340.526 344.644 318.923 332.807 290.632C321.088 262.341 315.288 228.31 315.406 188.537C315.406 148.883 321.266 115.088 332.985 87.152C344.822 59.2164 361.69 37.9688 383.588 23.4091C405.605 8.73107 431.825 1.39205 462.246 1.39205C492.667 1.39205 518.827 8.73107 540.726 23.4091C562.743 38.0871 579.67 59.3939 591.507 87.3295C603.344 115.147 609.204 148.883 609.085 188.537C609.085 228.428 603.167 262.519 591.33 290.81C579.611 319.1 562.802 340.703 540.904 355.618C519.005 370.533 492.786 377.99 462.246 377.99ZM462.246 314.247C483.079 314.247 499.71 303.771 512.139 282.82C524.568 261.868 530.724 230.44 530.605 188.537C530.605 160.956 527.764 137.992 522.083 119.645C516.519 101.297 508.588 87.5071 498.29 78.2741C488.11 69.0412 476.095 64.4247 462.246 64.4247C441.531 64.4247 424.959 74.7822 412.53 95.4972C400.101 116.212 393.827 147.225 393.709 188.537C393.709 216.473 396.491 239.792 402.054 258.494C407.736 277.079 415.726 291.046 426.024 300.398C436.323 309.631 448.397 314.247 462.246 314.247Z" stroke="#9796A5" stroke-opacity="0.35" stroke-width="2" mask="url(#path-1-outside-1_218_54)"/>
<path d="M806.484 377.99C775.944 377.872 749.666 370.355 727.649 355.44C705.75 340.526 688.882 318.923 677.045 290.632C665.327 262.341 659.526 228.31 659.645 188.537C659.645 148.883 665.504 115.088 677.223 87.152C689.06 59.2164 705.928 37.9688 727.827 23.4091C749.844 8.73107 776.063 1.39205 806.484 1.39205C836.906 1.39205 863.066 8.73107 884.964 23.4091C906.981 38.0871 923.908 59.3939 935.746 87.3295C947.583 115.147 953.442 148.883 953.324 188.537C953.324 228.428 947.405 262.519 935.568 290.81C923.849 319.1 907.041 340.703 885.142 355.618C863.243 370.533 837.024 377.99 806.484 377.99ZM806.484 314.247C827.318 314.247 843.949 303.771 856.378 282.82C868.807 261.868 874.962 230.44 874.844 188.537C874.844 160.956 872.003 137.992 866.321 119.645C860.757 101.297 852.827 87.5071 842.528 78.2741C832.348 69.0412 820.334 64.4247 806.484 64.4247C785.769 64.4247 769.197 74.7822 756.768 95.4972C744.339 116.212 738.066 147.225 737.947 188.537C737.947 216.473 740.729 239.792 746.292 258.494C751.974 277.079 759.964 291.046 770.263 300.398C780.561 309.631 792.635 314.247 806.484 314.247Z" stroke="#9796A5" stroke-opacity="0.35" stroke-width="2" mask="url(#path-1-outside-1_218_54)"/>
<path d="M1139.71 1.39205C1158.42 1.39205 1176.41 4.52888 1193.69 10.8025C1211.09 17.0762 1226.6 27.0786 1240.21 40.8097C1253.94 54.5407 1264.77 72.7699 1272.7 95.4972C1280.75 118.106 1284.84 145.864 1284.96 178.771C1284.96 209.666 1281.46 237.247 1274.48 261.513C1267.61 285.661 1257.73 306.198 1244.83 323.125C1231.93 340.052 1216.36 352.955 1198.13 361.832C1179.9 370.592 1159.54 374.972 1137.05 374.972C1112.78 374.972 1091.36 370.296 1072.78 360.945C1054.19 351.475 1039.22 338.632 1027.85 322.415C1016.61 306.08 1009.8 287.732 1007.43 267.372H1083.25C1086.21 280.63 1092.42 290.928 1101.89 298.267C1111.36 305.488 1123.08 309.098 1137.05 309.098C1160.72 309.098 1178.72 298.8 1191.03 278.203C1203.34 257.488 1209.55 229.138 1209.67 193.153H1207.19C1201.74 203.807 1194.4 212.981 1185.17 220.675C1175.94 228.25 1165.34 234.11 1153.39 238.253C1141.55 242.396 1128.94 244.467 1115.57 244.467C1094.14 244.467 1075.02 239.437 1058.22 229.375C1041.41 219.313 1028.15 205.464 1018.44 187.827C1008.74 170.189 1003.88 150.066 1003.88 127.457C1003.76 103.073 1009.39 81.3518 1020.75 62.294C1032.11 43.2363 1047.98 28.3215 1068.34 17.5497C1088.81 6.65957 1112.61 1.27367 1139.71 1.39205ZM1140.25 61.7614C1128.29 61.7614 1117.64 64.6023 1108.29 70.2841C1099.05 75.9659 1091.71 83.6009 1086.27 93.1889C1080.94 102.777 1078.34 113.49 1078.46 125.327C1078.46 137.282 1081.06 148.054 1086.27 157.642C1091.6 167.112 1098.82 174.688 1107.93 180.369C1117.16 185.933 1127.7 188.714 1139.54 188.714C1148.41 188.714 1156.64 187.057 1164.22 183.743C1171.79 180.429 1178.36 175.871 1183.93 170.071C1189.61 164.152 1194.05 157.346 1197.24 149.652C1200.44 141.958 1202.04 133.79 1202.04 125.149C1201.92 113.667 1199.2 103.132 1193.87 93.544C1188.54 83.956 1181.2 76.2618 1171.85 70.4616C1162.5 64.6615 1151.97 61.7614 1140.25 61.7614Z" stroke="#9796A5" stroke-opacity="0.35" stroke-width="2" mask="url(#path-1-outside-1_218_54)"/>
</svg>
