<svg width="1200" height="379" viewBox="0 0 1200 379" fill="none" xmlns="http://www.w3.org/2000/svg">
<path d="M5.45104 370V314.602L134.89 194.751C145.898 184.098 155.131 174.51 162.589 165.987C170.165 157.465 175.906 149.119 179.812 140.952C183.718 132.666 185.671 123.729 185.671 114.141C185.671 103.487 183.245 94.3135 178.391 86.6194C173.538 78.8069 166.909 72.8291 158.505 68.6861C150.101 64.4248 140.572 62.2941 129.918 62.2941C118.791 62.2941 109.085 64.5431 100.799 69.0412C92.5131 73.5393 86.121 79.9906 81.6229 88.3949C77.1248 96.7993 74.8758 106.802 74.8758 118.402H1.8999C1.8999 94.6094 7.28579 73.9537 18.0576 56.4347C28.8294 38.9158 43.9217 25.3623 63.3346 15.7742C82.7474 6.18612 105.12 1.39209 130.451 1.39209C156.493 1.39209 179.161 6.00857 198.455 15.2415C217.868 24.3561 232.961 37.0218 243.732 53.2387C254.504 69.4555 259.89 88.0398 259.89 108.992C259.89 122.723 257.167 136.276 251.722 149.652C246.396 163.028 236.867 177.884 223.136 194.219C209.405 210.436 190.051 229.908 165.075 252.635L111.985 304.659V307.145H264.684V370H5.45104Z" fill="white" fill-opacity="0.7"/>
<path d="M462.971 377.99C432.431 377.872 406.152 370.355 384.135 355.44C362.237 340.526 345.369 318.923 333.532 290.632C321.813 262.341 316.013 228.31 316.131 188.537C316.131 148.883 321.99 115.088 333.709 87.152C345.546 59.2164 362.414 37.9688 384.313 23.4092C406.33 8.73111 432.549 1.39209 462.971 1.39209C493.392 1.39209 519.552 8.73111 541.451 23.4092C563.468 38.0872 580.395 59.394 592.232 87.3296C604.069 115.147 609.928 148.883 609.81 188.537C609.81 228.428 603.892 262.519 592.054 290.81C580.336 319.1 563.527 340.703 541.628 355.618C519.73 370.533 493.51 377.99 462.971 377.99ZM462.971 314.247C483.804 314.247 500.435 303.771 512.864 282.82C525.293 261.868 531.448 230.44 531.33 188.537C531.33 160.956 528.489 137.992 522.807 119.645C517.244 101.297 509.313 87.5071 499.015 78.2742C488.835 69.0412 476.82 64.4248 462.971 64.4248C442.256 64.4248 425.684 74.7823 413.255 95.4972C400.826 116.212 394.552 147.225 394.434 188.537C394.434 216.473 397.215 239.792 402.779 258.494C408.461 277.079 416.451 291.046 426.749 300.398C437.047 309.631 449.121 314.247 462.971 314.247Z" fill="white" fill-opacity="0.7"/>
<path d="M822.834 6.36368V370H745.952V79.3395H743.821L660.547 131.541V63.3594L750.568 6.36368H822.834Z" fill="white" fill-opacity="0.7"/>
<path d="M1051.84 377.99C1021.3 377.872 995.02 370.355 973.003 355.44C951.104 340.526 934.236 318.923 922.399 290.632C910.68 262.341 904.88 228.31 904.998 188.537C904.998 148.883 910.858 115.088 922.576 87.152C934.414 59.2164 951.281 37.9688 973.18 23.4092C995.197 8.73111 1021.42 1.39209 1051.84 1.39209C1082.26 1.39209 1108.42 8.73111 1130.32 23.4092C1152.33 38.0872 1169.26 59.394 1181.1 87.3296C1192.94 115.147 1198.8 148.883 1198.68 188.537C1198.68 228.428 1192.76 262.519 1180.92 290.81C1169.2 319.1 1152.39 340.703 1130.5 355.618C1108.6 370.533 1082.38 377.99 1051.84 377.99ZM1051.84 314.247C1072.67 314.247 1089.3 303.771 1101.73 282.82C1114.16 261.868 1120.32 230.44 1120.2 188.537C1120.2 160.956 1117.36 137.992 1111.67 119.645C1106.11 101.297 1098.18 87.5071 1087.88 78.2742C1077.7 69.0412 1065.69 64.4248 1051.84 64.4248C1031.12 64.4248 1014.55 74.7823 1002.12 95.4972C989.693 116.212 983.419 147.225 983.301 188.537C983.301 216.473 986.083 239.792 991.646 258.494C997.328 277.079 1005.32 291.046 1015.62 300.398C1025.91 309.631 1037.99 314.247 1051.84 314.247Z" fill="white" fill-opacity="0.7"/>
<path d="M4.95104 370V370.5H5.45104H264.684H265.184V370V307.145V306.645H264.684H112.485V304.869L165.411 253.005C165.413 253.003 165.416 253.001 165.418 252.999C190.399 230.267 209.768 210.781 223.517 194.542L223.518 194.541C237.268 178.183 246.832 163.282 252.186 149.84C257.654 136.407 260.39 122.79 260.39 108.992C260.39 87.9492 254.979 69.2672 244.149 52.962C233.322 36.6618 218.156 23.9391 198.67 14.7897C179.295 5.51881 156.551 0.89209 130.451 0.89209C105.056 0.89209 82.6057 5.69849 63.1132 15.3259C43.6206 24.9533 28.4554 38.5694 17.6316 56.1728C6.80424 73.7822 1.3999 94.5317 1.3999 118.402V118.902H1.8999H74.8758H75.3758V118.402C75.3758 106.866 77.6121 96.9485 82.0638 88.6309C86.5163 80.3116 92.8385 73.9316 101.038 69.4807C109.238 65.0289 118.86 62.7941 129.918 62.7941C140.504 62.7941 149.953 64.9106 158.279 69.1321L158.284 69.1346C166.606 73.2371 173.164 79.1516 177.967 86.8832L177.968 86.8861C182.763 94.4875 185.171 103.565 185.171 114.141C185.171 123.658 183.233 132.521 179.361 140.737C175.479 148.852 169.767 157.159 162.215 165.655L162.213 165.658C154.768 174.166 145.546 183.743 134.546 194.388C134.545 194.39 134.544 194.391 134.542 194.392L5.11134 314.235L4.95104 314.384V314.602V370ZM462.969 378.49H462.971C493.595 378.49 519.916 371.011 541.91 356.031C563.9 341.054 580.766 319.368 592.516 291.003C604.385 262.636 610.31 228.476 610.31 188.538C610.429 148.837 604.563 115.03 592.692 87.1345C580.823 59.1227 563.838 37.7333 541.729 22.9935C519.736 8.25233 493.475 0.89209 462.971 0.89209C432.466 0.89209 406.147 8.25241 384.036 22.993C362.044 37.6148 345.118 58.9455 333.249 86.957L333.248 86.9586C321.497 114.971 315.631 148.835 315.631 188.535C315.513 228.356 321.319 262.456 333.07 290.824L333.07 290.825C344.939 319.191 361.863 340.876 383.854 355.854L383.855 355.854C405.966 370.833 432.345 378.371 462.969 378.49ZM530.83 188.537V188.538C530.948 230.409 524.795 261.728 512.434 282.565C500.077 303.395 483.595 313.747 462.971 313.747C449.244 313.747 437.289 309.176 427.083 300.026C416.874 290.754 408.923 276.879 403.258 258.35C397.713 239.71 394.934 216.443 394.934 188.538C395.052 147.261 401.323 116.355 413.683 95.7545C426.04 75.1605 442.463 64.9248 462.971 64.9248C476.697 64.9248 488.592 69.4957 498.679 78.6446L498.681 78.6465C508.89 87.7992 516.782 101.498 522.329 119.79L522.33 119.793C527.992 138.077 530.83 160.987 530.83 188.537ZM823.334 6.36368V5.86368H822.834H750.568H750.423L750.301 5.94124L660.279 62.937L660.047 63.0842V63.3594V131.541V132.445L660.812 131.965L743.965 79.8395H745.452V370V370.5H745.952H822.834H823.334V370V6.36368ZM1051.84 378.49H1051.84C1082.46 378.49 1108.78 371.011 1130.78 356.031C1152.77 341.054 1169.63 319.368 1181.38 291.003C1193.25 262.635 1199.18 228.475 1199.18 188.538C1199.3 148.836 1193.43 115.03 1181.56 87.1345C1169.69 59.123 1152.71 37.7336 1130.6 22.9938C1108.6 8.25245 1082.34 0.89209 1051.84 0.89209C1021.33 0.89209 995.014 8.25235 972.903 22.9928C950.911 37.6146 933.985 58.9454 922.116 86.957L922.115 86.9586C910.364 114.971 904.498 148.835 904.498 188.535C904.38 228.356 910.187 262.456 921.937 290.824L921.938 290.825C933.806 319.191 950.73 340.876 972.721 355.854L972.722 355.854C994.833 370.833 1021.21 378.371 1051.84 378.49ZM1111.2 119.79L1111.2 119.793C1116.86 138.077 1119.7 160.987 1119.7 188.537C1119.82 230.409 1113.66 261.728 1101.3 282.565C1088.94 303.395 1072.46 313.747 1051.84 313.747C1038.11 313.747 1026.16 309.176 1015.95 300.026C1005.74 290.754 997.79 276.879 992.125 258.35C986.58 239.71 983.801 216.443 983.801 188.538C983.919 147.261 990.19 116.355 1002.55 95.7545C1014.91 75.1605 1031.33 64.9248 1051.84 64.9248C1065.56 64.9248 1077.46 69.4957 1087.55 78.6446L1087.55 78.6465C1097.76 87.7992 1105.65 101.498 1111.2 119.79Z" stroke="#9796A5" stroke-opacity="0.35"/>
</svg>
