<svg width="1069" height="379" viewBox="0 0 1069 379" fill="none" xmlns="http://www.w3.org/2000/svg">
<path d="M5.25573 370V314.602L134.695 194.751C145.703 184.098 154.936 174.51 162.394 165.987C169.969 157.465 175.71 149.119 179.617 140.952C183.523 132.666 185.476 123.729 185.476 114.141C185.476 103.487 183.049 94.3135 178.196 86.6194C173.343 78.8069 166.714 72.8291 158.31 68.6861C149.905 64.4248 140.376 62.2941 129.723 62.2941C118.596 62.2941 108.89 64.5431 100.604 69.0412C92.3178 73.5393 85.9257 79.9906 81.4276 88.3949C76.9295 96.7993 74.6804 106.802 74.6804 118.402H1.70459C1.70459 94.6094 7.09048 73.9537 17.8623 56.4347C28.634 38.9158 43.7264 25.3623 63.1393 15.7742C82.5521 6.18612 104.924 1.39209 130.256 1.39209C156.297 1.39209 178.965 6.00857 198.26 15.2415C217.673 24.3561 232.765 37.0218 243.537 53.2387C254.309 69.4555 259.695 88.0398 259.695 108.992C259.695 122.723 256.972 136.276 251.527 149.652C246.2 163.028 236.671 177.884 222.94 194.219C209.209 210.436 189.856 229.908 164.879 252.635L111.79 304.659V307.145H264.489V370H5.25573Z" fill="white" fill-opacity="0.7"/>
<path d="M462.775 377.99C432.235 377.872 405.957 370.355 383.94 355.44C362.041 340.526 345.173 318.923 333.336 290.632C321.618 262.341 315.817 228.31 315.936 188.537C315.936 148.883 321.795 115.088 333.514 87.152C345.351 59.2164 362.219 37.9688 384.118 23.4092C406.135 8.73111 432.354 1.39209 462.775 1.39209C493.197 1.39209 519.357 8.73111 541.255 23.4092C563.272 38.0872 580.199 59.394 592.037 87.3296C603.874 115.147 609.733 148.883 609.615 188.537C609.615 228.428 603.696 262.519 591.859 290.81C580.14 319.1 563.332 340.703 541.433 355.618C519.534 370.533 493.315 377.99 462.775 377.99ZM462.775 314.247C483.609 314.247 500.24 303.771 512.669 282.82C525.098 261.868 531.253 230.44 531.135 188.537C531.135 160.956 528.294 137.992 522.612 119.645C517.048 101.297 509.118 87.5071 498.819 78.2742C488.639 69.0412 476.625 64.4248 462.775 64.4248C442.06 64.4248 425.488 74.7823 413.059 95.4972C400.63 116.212 394.357 147.225 394.238 188.537C394.238 216.473 397.02 239.792 402.583 258.494C408.265 277.079 416.255 291.046 426.554 300.398C436.852 309.631 448.926 314.247 462.775 314.247Z" fill="white" fill-opacity="0.7"/>
<path d="M822.639 6.36368V370H745.756V79.3395H743.626L660.352 131.541V63.3594L750.373 6.36368H822.639Z" fill="white" fill-opacity="0.7"/>
<path d="M1067.27 6.36368V370H990.385V79.3395H988.255L904.981 131.541V63.3594L995.002 6.36368H1067.27Z" fill="white" fill-opacity="0.7"/>
<path d="M4.75573 370V370.5H5.25573H264.489H264.989V370V307.145V306.645H264.489H112.29V304.869L165.216 253.005C165.218 253.003 165.22 253.001 165.222 252.999C190.203 230.267 209.572 210.781 223.322 194.542L223.323 194.541C237.073 178.183 246.637 163.282 251.991 149.84C257.458 136.407 260.195 122.79 260.195 108.992C260.195 87.9492 254.784 69.2672 243.953 52.962C233.126 36.6618 217.96 23.9391 198.474 14.7897C179.1 5.51881 156.355 0.89209 130.256 0.89209C104.861 0.89209 82.4104 5.69849 62.9178 15.3259C43.4253 24.9533 28.26 38.5694 17.4363 56.1728C6.60893 73.7822 1.20459 94.5317 1.20459 118.402V118.902H1.70459H74.6804H75.1804V118.402C75.1804 106.866 77.4167 96.9485 81.8684 88.6309C86.321 80.3116 92.6432 73.9316 100.842 69.4807C109.043 65.0289 118.664 62.7941 129.723 62.7941C140.308 62.7941 149.758 64.9106 158.084 69.1321L158.089 69.1346C166.411 73.2371 172.968 79.1516 177.771 86.8832L177.773 86.8861C182.568 94.4875 184.976 103.565 184.976 114.141C184.976 123.658 183.038 132.521 179.165 140.737C175.284 148.852 169.572 157.159 162.02 165.655L162.017 165.658C154.572 174.166 145.351 183.743 134.351 194.388C134.35 194.39 134.348 194.391 134.347 194.392L4.91602 314.235L4.75573 314.384V314.602V370ZM462.773 378.49H462.775C493.4 378.49 519.721 371.011 541.714 356.031C563.705 341.054 580.57 319.368 592.32 291.003C604.189 262.636 610.115 228.476 610.115 188.538C610.233 148.837 604.367 115.03 592.497 87.1345C580.628 59.1227 563.643 37.7333 541.533 22.9935C519.54 8.25233 493.28 0.89209 462.775 0.89209C432.27 0.89209 405.951 8.25241 383.84 22.993C361.848 37.6148 344.923 58.9455 333.053 86.957L333.053 86.9586C321.302 114.971 315.436 148.835 315.436 188.535C315.317 228.356 321.124 262.456 332.874 290.824L332.875 290.825C344.744 319.191 361.668 340.876 383.659 355.854L383.66 355.854C405.771 370.833 432.149 378.371 462.773 378.49ZM530.635 188.537V188.538C530.753 230.409 524.599 261.728 512.239 282.565C499.882 303.395 483.399 313.747 462.775 313.747C449.049 313.747 437.094 309.176 426.887 300.026C416.679 290.754 408.727 276.879 403.062 258.35C397.518 239.71 394.738 216.443 394.738 188.538C394.857 147.261 401.128 116.355 413.488 95.7545C425.844 75.1605 442.268 64.9248 462.775 64.9248C476.502 64.9248 488.396 69.4957 498.483 78.6446L498.486 78.6465C508.694 87.7992 516.587 101.498 522.133 119.79L522.134 119.793C527.796 138.077 530.635 160.987 530.635 188.537ZM823.139 6.36368V5.86368H822.639H750.373H750.228L750.105 5.94124L660.084 62.937L659.852 63.0842V63.3594V131.541V132.445L660.617 131.965L743.769 79.8395H745.256V370V370.5H745.756H822.639H823.139V370V6.36368ZM1067.77 6.36368V5.86368H1067.27H995.002H994.857L994.734 5.94124L904.713 62.937L904.481 63.0842V63.3594V131.541V132.445L905.246 131.965L988.398 79.8395H989.885V370V370.5H990.385H1067.27H1067.77V370V6.36368Z" stroke="#9796A5" stroke-opacity="0.35"/>
</svg>
