<svg width="1184" height="379" viewBox="0 0 1184 379" fill="none" xmlns="http://www.w3.org/2000/svg">
<path d="M4.77526 370V314.602L134.214 194.751C145.223 184.098 154.456 174.51 161.913 165.987C169.489 157.465 175.23 149.119 179.136 140.952C183.042 132.666 184.995 123.729 184.995 114.141C184.995 103.487 182.569 94.3135 177.716 86.6194C172.862 78.8069 166.234 72.8291 157.829 68.6861C149.425 64.4248 139.896 62.2941 129.243 62.2941C118.116 62.2941 108.409 64.5431 100.123 69.0412C91.8373 73.5393 85.4452 79.9906 80.9471 88.3949C76.449 96.7993 74.2 106.802 74.2 118.402H1.22412C1.22412 94.6094 6.61001 73.9537 17.3818 56.4347C28.1536 38.9158 43.2459 25.3623 62.6588 15.7742C82.0717 6.18612 104.444 1.39209 129.775 1.39209C155.817 1.39209 178.485 6.00857 197.78 15.2415C217.192 24.3561 232.285 37.0218 243.057 53.2387C253.828 69.4555 259.214 88.0398 259.214 108.992C259.214 122.723 256.492 136.276 251.047 149.652C245.72 163.028 236.191 177.884 222.46 194.219C208.729 210.436 189.375 229.908 164.399 252.635L111.309 304.659V307.145H264.008V370H4.77526Z" fill="white" fill-opacity="0.6"/>
<path d="M462.295 377.99C431.755 377.872 405.477 370.355 383.46 355.44C361.561 340.526 344.693 318.923 332.856 290.632C321.137 262.341 315.337 228.31 315.455 188.537C315.455 148.883 321.315 115.088 333.033 87.152C344.871 59.2164 361.738 37.9688 383.637 23.4092C405.654 8.73111 431.873 1.39209 462.295 1.39209C492.716 1.39209 518.876 8.73111 540.775 23.4092C562.792 38.0872 579.719 59.394 591.556 87.3296C603.393 115.147 609.253 148.883 609.134 188.537C609.134 228.428 603.216 262.519 591.379 290.81C579.66 319.1 562.851 340.703 540.952 355.618C519.054 370.533 492.835 377.99 462.295 377.99ZM462.295 314.247C483.128 314.247 499.759 303.771 512.188 282.82C524.617 261.868 530.773 230.44 530.654 188.537C530.654 160.956 527.813 137.992 522.131 119.645C516.568 101.297 508.637 87.5071 498.339 78.2742C488.159 69.0412 476.144 64.4248 462.295 64.4248C441.58 64.4248 425.008 74.7823 412.579 95.4972C400.15 116.212 393.876 147.225 393.758 188.537C393.758 216.473 396.54 239.792 402.103 258.494C407.785 277.079 415.775 291.046 426.073 300.398C436.372 309.631 448.445 314.247 462.295 314.247Z" fill="white" fill-opacity="0.6"/>
<path d="M822.158 6.36368V370H745.276V79.3395H743.145L659.871 131.541V63.3594L749.892 6.36368H822.158Z" fill="white" fill-opacity="0.6"/>
<path d="M1042.99 374.972C1016.48 374.972 992.864 370.414 972.149 361.3C951.553 352.067 935.277 339.401 923.321 323.303C911.484 307.086 905.388 288.383 905.033 267.195H982.448C982.921 276.073 985.821 283.885 991.148 290.632C996.593 297.261 1003.81 302.41 1012.81 306.08C1021.81 309.749 1031.93 311.584 1043.17 311.584C1054.89 311.584 1065.25 309.512 1074.24 305.369C1083.24 301.226 1090.28 295.485 1095.37 288.146C1100.46 280.807 1103.01 272.344 1103.01 262.756C1103.01 253.049 1100.29 244.467 1094.84 237.01C1089.51 229.434 1081.82 223.516 1071.76 219.254C1061.82 214.993 1049.98 212.862 1036.25 212.862H1002.33V156.399H1036.25C1047.85 156.399 1058.09 154.387 1066.96 150.362C1075.96 146.338 1082.94 140.774 1087.92 133.672C1092.89 126.451 1095.37 118.047 1095.37 108.459C1095.37 99.3443 1093.18 91.3542 1088.8 84.4887C1084.54 77.5048 1078.51 72.0597 1070.69 68.1535C1063 64.2472 1054 62.2941 1043.7 62.2941C1033.29 62.2941 1023.76 64.188 1015.12 67.9759C1006.48 71.6454 999.552 76.9129 994.344 83.7785C989.135 90.644 986.354 98.6932 985.999 107.926H912.313C912.668 86.9745 918.645 68.5086 930.246 52.5285C941.846 36.5483 957.471 24.0602 977.121 15.064C996.889 5.94938 1019.2 1.39209 1044.06 1.39209C1069.15 1.39209 1091.11 5.94938 1109.93 15.064C1128.75 24.1785 1143.37 36.4892 1153.79 51.9958C1164.32 67.384 1169.53 84.6662 1169.41 103.842C1169.53 124.202 1163.2 141.188 1150.42 154.801C1137.75 168.414 1121.24 177.055 1100.88 180.724V183.565C1127.63 186.998 1147.99 196.29 1161.96 211.442C1176.04 226.475 1183.03 245.296 1182.91 267.905C1183.03 288.62 1177.05 307.027 1164.98 323.125C1153.02 339.224 1136.51 351.889 1115.44 361.122C1094.37 370.355 1070.22 374.972 1042.99 374.972Z" fill="white" fill-opacity="0.6"/>
<path d="M4.27526 370V370.5H4.77526H264.008H264.508V370V307.145V306.645H264.008H111.809V304.869L164.735 253.005C164.738 253.003 164.74 253.001 164.742 252.999C189.723 230.267 209.092 210.781 222.842 194.542L222.843 194.541C236.592 178.183 246.156 163.282 251.51 149.84C256.978 136.407 259.714 122.79 259.714 108.992C259.714 87.9492 254.303 69.2672 243.473 52.962C232.646 36.6618 217.48 23.9391 197.994 14.7897C178.619 5.51881 155.875 0.89209 129.775 0.89209C104.38 0.89209 81.9299 5.69849 62.4374 15.3259C42.9448 24.9533 27.7796 38.5694 16.9559 56.1728C6.12846 73.7822 0.724121 94.5317 0.724121 118.402V118.902H1.22412H74.2H74.7V118.402C74.7 106.866 76.9363 96.9485 81.388 88.6309C85.8405 80.3116 92.1627 73.9316 100.362 69.4807C108.562 65.0289 118.184 62.7941 129.243 62.7941C139.828 62.7941 149.278 64.9106 157.603 69.1321L157.608 69.1346C165.93 73.2371 172.488 79.1516 177.291 86.8832L177.293 86.8861C182.087 94.4875 184.495 103.565 184.495 114.141C184.495 123.658 182.557 132.521 178.685 140.737C174.803 148.852 169.091 157.159 161.539 165.655L161.537 165.658C154.092 174.166 144.87 183.743 133.87 194.388C133.869 194.39 133.868 194.391 133.866 194.392L4.43555 314.235L4.27526 314.384V314.602V370ZM462.293 378.49H462.295C492.919 378.49 519.24 371.011 541.234 356.031C563.225 341.054 580.09 319.368 591.84 291.003C603.709 262.636 609.634 228.476 609.634 188.538C609.753 148.837 603.887 115.03 592.017 87.1345C580.147 59.1227 563.162 37.7333 541.053 22.9935C519.06 8.25233 492.799 0.89209 462.295 0.89209C431.79 0.89209 405.471 8.25241 383.36 22.993C361.368 37.6148 344.442 58.9455 332.573 86.957L332.572 86.9586C320.821 114.971 314.955 148.835 314.955 188.535C314.837 228.356 320.644 262.456 332.394 290.824L332.395 290.825C344.263 319.191 361.187 340.876 383.178 355.854L383.179 355.854C405.29 370.833 431.669 378.371 462.293 378.49ZM530.154 188.537V188.538C530.272 230.409 524.119 261.728 511.758 282.565C499.401 303.395 482.919 313.747 462.295 313.747C448.568 313.747 436.613 309.176 426.407 300.026C416.198 290.754 408.247 276.879 402.582 258.35C397.037 239.71 394.258 216.443 394.258 188.538C394.376 147.261 400.647 116.355 413.008 95.7545C425.364 75.1605 441.787 64.9248 462.295 64.9248C476.021 64.9248 487.916 69.4957 498.003 78.6446L498.005 78.6465C508.214 87.7992 516.106 101.498 521.653 119.79L521.654 119.793C527.316 138.077 530.154 160.987 530.154 188.537ZM822.658 6.36368V5.86368H822.158H749.892H749.747L749.625 5.94124L659.604 62.937L659.371 63.0842V63.3594V131.541V132.445L660.137 131.965L743.289 79.8395H744.776V370V370.5H745.276H822.158H822.658V370V6.36368ZM971.945 361.756L971.948 361.757C992.736 370.904 1016.42 375.472 1042.99 375.472C1070.28 375.472 1094.49 370.845 1115.64 361.58C1136.78 352.318 1153.36 339.602 1165.38 323.425C1177.52 307.237 1183.53 288.724 1183.41 267.905C1183.53 245.184 1176.51 226.238 1162.33 211.103C1148.33 195.924 1128 186.614 1101.38 183.126V181.142C1121.64 177.413 1138.12 168.751 1150.78 155.142C1163.66 141.428 1170.03 124.316 1169.91 103.843C1170.03 84.5688 1164.8 67.1874 1154.2 51.7133C1143.73 36.1264 1129.04 23.7617 1110.15 14.614C1091.25 5.46054 1069.21 0.89209 1044.06 0.89209C1019.14 0.89209 996.754 5.46104 976.911 14.6099C957.192 23.6384 941.497 36.1788 929.841 52.2347C918.177 68.3031 912.169 86.87 911.813 107.918L911.804 108.426H912.313H985.999H986.48L986.498 107.945C986.85 98.8071 989.6 90.8585 994.742 84.0807C999.893 77.2907 1006.75 72.0747 1015.31 68.4361L1015.32 68.4338C1023.89 64.6765 1033.35 62.7941 1043.7 62.7941C1053.94 62.7941 1062.86 64.7349 1070.47 68.5993L1070.47 68.6007C1078.2 72.4679 1084.17 77.8508 1088.38 84.7492L1088.38 84.7576C1092.71 91.5335 1094.87 99.4278 1094.87 108.459C1094.87 117.955 1092.41 126.257 1087.51 133.386C1082.59 140.404 1075.69 145.913 1066.76 149.906L1066.76 149.907C1057.96 153.897 1047.79 155.899 1036.25 155.899H1002.33H1001.83V156.399V212.862V213.362H1002.33H1036.25C1049.93 213.362 1061.69 215.485 1071.56 219.714L1071.56 219.715C1081.55 223.946 1089.17 229.811 1094.43 237.298L1094.44 237.305C1099.82 244.672 1102.51 253.15 1102.51 262.756C1102.51 272.25 1099.99 280.612 1094.96 287.861C1089.93 295.119 1082.96 300.805 1074.04 304.915C1065.12 309.023 1054.83 311.084 1043.17 311.084C1031.98 311.084 1021.93 309.258 1013 305.617C1004.07 301.975 996.923 296.873 991.537 290.319C986.279 283.656 983.415 275.945 982.947 267.168L982.922 266.695H982.448H905.033H904.524L904.533 267.203C904.89 288.489 911.016 307.293 922.917 323.597L922.92 323.601C934.932 339.776 951.28 352.493 971.945 361.756Z" stroke="#9796A5" stroke-opacity="0.15"/>
</svg>
