<svg width="1198" height="379" viewBox="0 0 1198 379" fill="none" xmlns="http://www.w3.org/2000/svg">
<path d="M5.13659 370V314.602L134.576 194.751C145.584 184.098 154.817 174.51 162.274 165.987C169.85 157.465 175.591 149.119 179.497 140.952C183.404 132.666 185.357 123.729 185.357 114.141C185.357 103.487 182.93 94.3135 178.077 86.6194C173.224 78.8069 166.595 72.8291 158.191 68.6861C149.786 64.4248 140.257 62.2941 129.604 62.2941C118.477 62.2941 108.771 64.5431 100.485 69.0412C92.1986 73.5393 85.8066 79.9906 81.3085 88.3949C76.8104 96.7993 74.5613 106.802 74.5613 118.402H1.58545C1.58545 94.6094 6.97134 73.9537 17.7431 56.4347C28.5149 38.9158 43.6072 25.3623 63.0201 15.7742C82.433 6.18612 104.805 1.39209 130.137 1.39209C156.178 1.39209 178.846 6.00857 198.141 15.2415C217.554 24.3561 232.646 37.0218 243.418 53.2387C254.19 69.4555 259.576 88.0398 259.576 108.992C259.576 122.723 256.853 136.276 251.408 149.652C246.081 163.028 236.552 177.884 222.821 194.219C209.09 210.436 189.736 229.908 164.76 252.635L111.671 304.659V307.145H264.37V370H5.13659Z" fill="white" fill-opacity="0.7"/>
<path d="M462.656 377.99C432.116 377.872 405.838 370.355 383.821 355.44C361.922 340.526 345.054 318.923 333.217 290.632C321.498 262.341 315.698 228.31 315.817 188.537C315.817 148.883 321.676 115.088 333.395 87.152C345.232 59.2164 362.1 37.9688 383.998 23.4092C406.015 8.73111 432.235 1.39209 462.656 1.39209C493.078 1.39209 519.238 8.73111 541.136 23.4092C563.153 38.0872 580.08 59.394 591.917 87.3296C603.755 115.147 609.614 148.883 609.496 188.537C609.496 228.428 603.577 262.519 591.74 290.81C580.021 319.1 563.212 340.703 541.314 355.618C519.415 370.533 493.196 377.99 462.656 377.99ZM462.656 314.247C483.489 314.247 500.121 303.771 512.55 282.82C524.979 261.868 531.134 230.44 531.016 188.537C531.016 160.956 528.175 137.992 522.493 119.645C516.929 101.297 508.998 87.5071 498.7 78.2742C488.52 69.0412 476.506 64.4248 462.656 64.4248C441.941 64.4248 425.369 74.7823 412.94 95.4972C400.511 116.212 394.238 147.225 394.119 188.537C394.119 216.473 396.901 239.792 402.464 258.494C408.146 277.079 416.136 291.046 426.435 300.398C436.733 309.631 448.807 314.247 462.656 314.247Z" fill="white" fill-opacity="0.7"/>
<path d="M822.519 6.36368V370H745.637V79.3395H743.507L660.232 131.541V63.3594L750.254 6.36368H822.519Z" fill="white" fill-opacity="0.7"/>
<path d="M903.441 306.08V245.533L1055.25 6.36368H1107.45V90.1705H1076.56L980.856 241.626V244.467H1196.59V306.08H903.441ZM1077.98 370V287.614L1079.4 260.803V6.36368H1151.49V370H1077.98Z" fill="white" fill-opacity="0.7"/>
<path d="M4.63659 370V370.5H5.13659H264.37H264.87V370V307.145V306.645H264.37H112.171V304.869L165.097 253.005C165.099 253.003 165.101 253.001 165.103 252.999C190.084 230.267 209.453 210.781 223.203 194.542L223.204 194.541C236.954 178.183 246.518 163.282 251.871 149.84C257.339 136.407 260.076 122.79 260.076 108.992C260.076 87.9492 254.665 69.2672 243.834 52.962C233.007 36.6618 217.841 23.9391 198.355 14.7897C178.98 5.51881 156.236 0.89209 130.137 0.89209C104.741 0.89209 82.2912 5.69849 62.7987 15.3259C43.3061 24.9533 28.1409 38.5694 17.3172 56.1728C6.48979 73.7822 1.08545 94.5317 1.08545 118.402V118.902H1.58545H74.5613H75.0613V118.402C75.0613 106.866 77.2976 96.9485 81.7493 88.6309C86.2018 80.3116 92.524 73.9316 100.723 69.4807C108.924 65.0289 118.545 62.7941 129.604 62.7941C140.189 62.7941 149.639 64.9106 157.964 69.1321L157.969 69.1346C166.292 73.2371 172.849 79.1516 177.652 86.8832L177.654 86.8861C182.449 94.4875 184.857 103.565 184.857 114.141C184.857 123.658 182.919 132.521 179.046 140.737C175.164 148.852 169.453 157.159 161.901 165.655L161.898 165.658C154.453 174.166 145.232 183.743 134.232 194.388C134.23 194.39 134.229 194.391 134.228 194.392L4.79688 314.235L4.63659 314.384V314.602V370ZM462.654 378.49H462.656C493.281 378.49 519.601 371.011 541.595 356.031C563.586 341.054 580.451 319.368 592.201 291.003C604.07 262.636 609.995 228.476 609.996 188.538C610.114 148.837 604.248 115.03 592.378 87.1345C580.508 59.1227 563.524 37.7333 541.414 22.9935C519.421 8.25233 493.161 0.89209 462.656 0.89209C432.151 0.89209 405.832 8.25241 383.721 22.993C361.729 37.6148 344.804 58.9455 332.934 86.957L332.934 86.9586C321.183 114.971 315.317 148.835 315.317 188.535C315.198 228.356 321.005 262.456 332.755 290.824L332.756 290.825C344.624 319.191 361.549 340.876 383.539 355.854L383.54 355.854C405.651 370.833 432.03 378.371 462.654 378.49ZM530.516 188.537V188.538C530.634 230.409 524.48 261.728 512.12 282.565C499.763 303.395 483.28 313.747 462.656 313.747C448.93 313.747 436.975 309.176 426.768 300.026C416.56 290.754 408.608 276.879 402.943 258.35C397.398 239.71 394.619 216.443 394.619 188.538C394.737 147.261 401.009 116.355 413.369 95.7545C425.725 75.1605 442.149 64.9248 462.656 64.9248C476.382 64.9248 488.277 69.4957 498.364 78.6446L498.366 78.6465C508.575 87.7992 516.468 101.498 522.014 119.79L522.015 119.793C527.677 138.077 530.516 160.987 530.516 188.537ZM823.019 6.36368V5.86368H822.519H750.254H750.109L749.986 5.94124L659.965 62.937L659.732 63.0842V63.3594V131.541V132.445L660.498 131.965L743.65 79.8395H745.137V370V370.5H745.637H822.519H823.019V370V6.36368ZM902.941 306.08V306.58H903.441H1077.48V370V370.5H1077.98H1151.49H1151.99V370V306.58H1196.59H1197.09V306.08V244.467V243.967H1196.59H1151.99V6.36368V5.86368H1151.49H1107.95H1107.45H1079.4H1078.9H1055.25H1054.98L1054.83 6.09573L903.019 245.265L902.941 245.387V245.533V306.08ZM1076.83 90.6705H1078.9V243.967H981.356V241.771L1076.83 90.6705Z" stroke="#9796A5" stroke-opacity="0.35"/>
</svg>
