<svg width="1179" height="379" viewBox="0 0 1179 379" fill="none" xmlns="http://www.w3.org/2000/svg">
<path d="M5.43737 370V314.602L134.876 194.751C145.885 184.098 155.118 174.51 162.575 165.987C170.151 157.465 175.892 149.119 179.798 140.952C183.704 132.666 185.658 123.729 185.658 114.141C185.658 103.487 183.231 94.3135 178.378 86.6194C173.524 78.8069 166.896 72.8291 158.491 68.6861C150.087 64.4248 140.558 62.2941 129.905 62.2941C118.778 62.2941 109.071 64.5431 100.785 69.0412C92.4994 73.5393 86.1073 79.9906 81.6092 88.3949C77.1111 96.7993 74.8621 106.802 74.8621 118.402H1.88623C1.88623 94.6094 7.27212 73.9537 18.0439 56.4347C28.8157 38.9158 43.908 25.3623 63.3209 15.7742C82.7338 6.18612 105.106 1.39209 130.437 1.39209C156.479 1.39209 179.147 6.00857 198.442 15.2415C217.855 24.3561 232.947 37.0218 243.719 53.2387C254.49 69.4555 259.876 88.0398 259.876 108.992C259.876 122.723 257.154 136.276 251.709 149.652C246.382 163.028 236.853 177.884 223.122 194.219C209.391 210.436 190.037 229.908 165.061 252.635L111.971 304.659V307.145H264.67V370H5.43737Z" fill="white" fill-opacity="0.6"/>
<path d="M462.957 377.99C432.417 377.872 406.139 370.355 384.122 355.44C362.223 340.526 345.355 318.923 333.518 290.632C321.799 262.341 315.999 228.31 316.117 188.537C316.117 148.883 321.977 115.088 333.696 87.152C345.533 59.2164 362.401 37.9688 384.299 23.4092C406.316 8.73111 432.536 1.39209 462.957 1.39209C493.378 1.39209 519.538 8.73111 541.437 23.4092C563.454 38.0872 580.381 59.394 592.218 87.3296C604.055 115.147 609.915 148.883 609.796 188.537C609.796 228.428 603.878 262.519 592.041 290.81C580.322 319.1 563.513 340.703 541.615 355.618C519.716 370.533 493.497 377.99 462.957 377.99ZM462.957 314.247C483.79 314.247 500.421 303.771 512.85 282.82C525.279 261.868 531.435 230.44 531.316 188.537C531.316 160.956 528.475 137.992 522.794 119.645C517.23 101.297 509.299 87.5071 499.001 78.2742C488.821 69.0412 476.806 64.4248 462.957 64.4248C442.242 64.4248 425.67 74.7823 413.241 95.4972C400.812 116.212 394.538 147.225 394.42 188.537C394.42 216.473 397.202 239.792 402.765 258.494C408.447 277.079 416.437 291.046 426.735 300.398C437.034 309.631 449.107 314.247 462.957 314.247Z" fill="white" fill-opacity="0.6"/>
<path d="M822.82 6.36368V370H745.938V79.3395H743.807L660.533 131.541V63.3594L750.555 6.36368H822.82Z" fill="white" fill-opacity="0.6"/>
<path d="M1042.06 374.972C1016.96 374.972 994.592 370.355 974.942 361.122C955.411 351.889 939.904 339.164 928.422 322.948C916.94 306.731 910.962 288.146 910.489 267.195H985.063C985.891 281.281 991.81 292.704 1002.82 301.463C1013.83 310.223 1026.91 314.602 1042.06 314.602C1054.13 314.602 1064.79 311.939 1074.02 306.612C1083.37 301.167 1090.65 293.651 1095.86 284.063C1101.18 274.356 1103.85 263.229 1103.85 250.682C1103.85 237.898 1101.13 226.653 1095.68 216.946C1090.35 207.24 1082.96 199.664 1073.49 194.219C1064.02 188.774 1053.19 185.992 1040.99 185.874C1030.34 185.874 1019.98 188.064 1009.92 192.443C999.977 196.823 992.224 202.801 986.661 210.376L918.301 198.125L935.524 6.36368H1157.83V69.2188H998.912L989.502 160.305H991.632C998.024 151.309 1007.67 143.852 1020.57 137.933C1033.48 132.015 1047.92 129.055 1063.9 129.055C1085.8 129.055 1105.33 134.205 1122.49 144.503C1139.66 154.801 1153.21 168.947 1163.15 186.939C1173.1 204.813 1178.01 225.41 1177.89 248.729C1178.01 273.232 1172.33 295.012 1160.84 314.07C1149.48 333.009 1133.56 347.924 1113.08 358.814C1092.72 369.586 1069.05 374.972 1042.06 374.972Z" fill="white" fill-opacity="0.6"/>
<path d="M974.729 361.575L974.728 361.574C955.126 352.308 939.55 339.53 928.014 323.236C916.471 306.934 910.465 288.252 909.989 267.206L909.977 266.695H910.489H985.063H985.534L985.562 267.165C986.382 281.11 992.233 292.401 1003.13 301.072C1014.04 309.755 1027.01 314.102 1042.06 314.102C1054.06 314.102 1064.62 311.456 1073.77 306.179C1083.04 300.781 1090.25 293.332 1095.42 283.824L1095.42 283.822C1100.7 274.199 1103.35 263.156 1103.35 250.682C1103.35 237.971 1100.64 226.812 1095.24 217.191L1095.24 217.187C1089.96 207.559 1082.63 200.051 1073.24 194.652C1063.85 189.255 1053.11 186.492 1040.99 186.374C1030.41 186.374 1020.12 188.549 1010.12 192.902C1000.25 197.252 992.567 203.178 987.064 210.672L986.879 210.924L986.573 210.869L918.213 198.617L917.762 198.536L917.803 198.08L935.026 6.31896L935.067 5.86368H935.524H1157.83H1158.33V6.36368V69.2188V69.7188H1157.83H999.363L990.056 159.805H991.375C997.831 150.815 1007.51 143.378 1020.37 137.479C1033.34 131.527 1047.85 128.555 1063.9 128.555C1085.88 128.555 1105.5 133.725 1122.75 144.074C1139.99 154.419 1153.61 168.63 1163.59 186.697M974.729 361.575L1163.15 186.939M974.729 361.575C994.455 370.843 1016.9 375.472 1042.06 375.472C1069.11 375.472 1092.87 370.072 1113.32 359.256L1113.32 359.255M974.729 361.575L1113.32 359.255M1163.59 186.697L1163.15 186.939M1163.59 186.697C1163.59 186.697 1163.59 186.696 1163.59 186.696L1163.15 186.939M1163.59 186.697C1173.58 204.655 1178.51 225.338 1178.39 248.729M1163.15 186.939C1173.1 204.813 1178.01 225.41 1177.89 248.729M1178.39 248.729C1178.39 248.728 1178.39 248.727 1178.39 248.726L1177.89 248.729M1178.39 248.729C1178.51 273.313 1172.81 295.184 1161.27 314.327M1178.39 248.729C1178.39 248.73 1178.39 248.73 1178.39 248.731L1177.89 248.729M1177.89 248.729L1161.27 314.327M1161.27 314.327L1160.84 314.07L1161.27 314.328C1161.27 314.327 1161.27 314.327 1161.27 314.327ZM1161.27 314.327C1149.86 333.348 1133.87 348.325 1113.32 359.255M1161.27 314.327L1113.32 359.255M4.93737 370V370.5H5.43737H264.67H265.17V370V307.145V306.645H264.67H112.471V304.869L165.397 253.005C165.4 253.003 165.402 253.001 165.404 252.999C190.385 230.267 209.754 210.781 223.504 194.542L223.505 194.541C237.254 178.183 246.818 163.282 252.172 149.84C257.64 136.407 260.376 122.79 260.376 108.992C260.376 87.9492 254.966 69.2672 244.135 52.962C233.308 36.6618 218.142 23.9391 198.656 14.7897C179.281 5.51881 156.537 0.89209 130.437 0.89209C105.042 0.89209 82.592 5.69849 63.0995 15.3259C43.6069 24.9533 28.4417 38.5694 17.618 56.1728C6.79057 73.7822 1.38623 94.5317 1.38623 118.402V118.902H1.88623H74.8621H75.3621V118.402C75.3621 106.866 77.5984 96.9485 82.0501 88.6309C86.5026 80.3116 92.8248 73.9316 101.024 69.4807C109.225 65.0289 118.846 62.7941 129.905 62.7941C140.49 62.7941 149.94 64.9106 158.265 69.1321L158.27 69.1346C166.592 73.2371 173.15 79.1516 177.953 86.8832L177.955 86.8861C182.75 94.4875 185.158 103.565 185.158 114.141C185.158 123.658 183.22 132.521 179.347 140.737C175.465 148.852 169.754 157.159 162.201 165.655L162.199 165.658C154.754 174.166 145.533 183.743 134.533 194.388C134.531 194.39 134.53 194.391 134.529 194.392L5.09766 314.235L4.93737 314.384V314.602V370ZM462.955 378.49H462.957C493.581 378.49 519.902 371.011 541.896 356.031C563.887 341.054 580.752 319.368 592.502 291.003C604.371 262.636 610.296 228.476 610.296 188.538C610.415 148.837 604.549 115.03 592.679 87.1345C580.809 59.1227 563.824 37.7333 541.715 22.9935C519.722 8.25233 493.462 0.89209 462.957 0.89209C432.452 0.89209 406.133 8.25241 384.022 22.993C362.03 37.6148 345.104 58.9455 333.235 86.957L333.234 86.9586C321.484 114.971 315.618 148.835 315.617 188.535C315.499 228.356 321.306 262.456 333.056 290.824L333.057 290.825C344.925 319.191 361.85 340.876 383.84 355.854L383.841 355.854C405.952 370.833 432.331 378.371 462.955 378.49ZM530.816 188.537V188.538C530.935 230.409 524.781 261.728 512.42 282.565C500.063 303.395 483.581 313.747 462.957 313.747C449.23 313.747 437.276 309.176 427.069 300.026C416.86 290.754 408.909 276.879 403.244 258.35C397.699 239.71 394.92 216.443 394.92 188.538C395.038 147.261 401.309 116.355 413.67 95.7545C426.026 75.1605 442.45 64.9248 462.957 64.9248C476.683 64.9248 488.578 69.4957 498.665 78.6446L498.667 78.6465C508.876 87.7992 516.768 101.498 522.315 119.79L522.316 119.793C527.978 138.077 530.816 160.987 530.816 188.537ZM823.32 6.36368V5.86368H822.82H750.555H750.41L750.287 5.94124L660.266 62.937L660.033 63.0842V63.3594V131.541V132.445L660.799 131.965L743.951 79.8395H745.438V370V370.5H745.938H822.82H823.32V370V6.36368ZM1074.02 306.612C1083.37 301.167 1090.65 293.651 1095.86 284.063C1101.18 274.356 1103.85 263.229 1103.85 250.682C1103.85 237.898 1101.13 226.653 1095.68 216.946C1090.35 207.24 1082.96 199.664 1073.49 194.219C1064.02 188.774 1053.19 185.992 1040.99 185.874L1074.02 306.612ZM989.502 160.305H990.004H989.502Z" stroke="#9796A5" stroke-opacity="0.15"/>
</svg>
