<svg width="1186" height="379" viewBox="0 0 1186 379" fill="none" xmlns="http://www.w3.org/2000/svg">
<path d="M5.53112 370V314.602L134.97 194.751C145.979 184.098 155.212 174.51 162.669 165.987C170.245 157.465 175.986 149.119 179.892 140.952C183.798 132.666 185.751 123.729 185.751 114.141C185.751 103.487 183.325 94.3135 178.471 86.6194C173.618 78.8069 166.989 72.8291 158.585 68.6861C150.181 64.4248 140.652 62.2941 129.998 62.2941C118.872 62.2941 109.165 64.5431 100.879 69.0412C92.5931 73.5393 86.2011 79.9906 81.703 88.3949C77.2049 96.7993 74.9558 106.802 74.9558 118.402H1.97998C1.97998 94.6094 7.36587 73.9537 18.1377 56.4347C28.9094 38.9158 44.0018 25.3623 63.4146 15.7742C82.8275 6.18612 105.2 1.39209 130.531 1.39209C156.573 1.39209 179.241 6.00857 198.535 15.2415C217.948 24.3561 233.041 37.0218 243.812 53.2387C254.584 69.4555 259.97 88.0398 259.97 108.992C259.97 122.723 257.248 136.276 251.802 149.652C246.476 163.028 236.947 177.884 223.216 194.219C209.485 210.436 190.131 229.908 165.155 252.635L112.065 304.659V307.145H264.764V370H5.53112Z" fill="white" fill-opacity="0.6"/>
<path d="M463.051 377.99C432.511 377.872 406.232 370.355 384.215 355.44C362.317 340.526 345.449 318.923 333.612 290.632C321.893 262.341 316.093 228.31 316.211 188.537C316.211 148.883 322.071 115.088 333.789 87.152C345.626 59.2164 362.494 37.9688 384.393 23.4092C406.41 8.73111 432.629 1.39209 463.051 1.39209C493.472 1.39209 519.632 8.73111 541.531 23.4092C563.548 38.0872 580.475 59.394 592.312 87.3296C604.149 115.147 610.009 148.883 609.89 188.537C609.89 228.428 603.972 262.519 592.134 290.81C580.416 319.1 563.607 340.703 541.708 355.618C519.81 370.533 493.59 377.99 463.051 377.99ZM463.051 314.247C483.884 314.247 500.515 303.771 512.944 282.82C525.373 261.868 531.528 230.44 531.41 188.537C531.41 160.956 528.569 137.992 522.887 119.645C517.324 101.297 509.393 87.5071 499.095 78.2742C488.915 69.0412 476.9 64.4248 463.051 64.4248C442.336 64.4248 425.764 74.7823 413.335 95.4972C400.906 116.212 394.632 147.225 394.514 188.537C394.514 216.473 397.295 239.792 402.859 258.494C408.541 277.079 416.531 291.046 426.829 300.398C437.127 309.631 449.201 314.247 463.051 314.247Z" fill="white" fill-opacity="0.6"/>
<path d="M822.914 6.36368V370H746.032V79.3395H743.901L660.627 131.541V63.3594L750.648 6.36368H822.914Z" fill="white" fill-opacity="0.6"/>
<path d="M1048.9 374.972C1030.2 374.853 1012.15 371.716 994.745 365.561C977.462 359.406 961.956 349.403 948.225 335.554C934.494 321.705 923.603 303.357 915.554 280.511C907.623 257.666 903.658 229.612 903.658 196.349C903.776 165.81 907.268 138.525 914.134 114.496C921.118 90.3481 931.061 69.8698 943.963 53.0611C956.984 36.2524 972.55 23.4683 990.661 14.7088C1008.77 5.83101 1029.07 1.39209 1051.56 1.39209C1075.83 1.39209 1097.25 6.12694 1115.84 15.5967C1134.42 24.948 1149.34 37.6729 1160.58 53.7714C1171.95 69.8699 1178.81 87.9215 1181.18 107.926H1105.36C1102.4 95.2605 1096.19 85.3173 1086.72 78.0966C1077.25 70.876 1065.53 67.2657 1051.56 67.2657C1027.89 67.2657 1009.9 77.564 997.585 98.1606C985.393 118.757 979.179 146.752 978.942 182.145H981.428C986.873 171.373 994.212 162.199 1003.44 154.624C1012.8 146.93 1023.39 141.07 1035.23 137.046C1047.18 132.903 1059.79 130.831 1073.05 130.831C1094.59 130.831 1113.77 135.921 1130.58 146.101C1147.38 156.162 1160.64 170.012 1170.35 187.649C1180.05 205.287 1184.91 225.469 1184.91 248.196C1184.91 272.817 1179.17 294.716 1167.68 313.892C1156.32 333.068 1140.4 348.101 1119.92 358.992C1099.56 369.763 1075.89 375.09 1048.9 374.972ZM1048.54 314.602C1060.38 314.602 1070.98 311.761 1080.33 306.08C1089.68 300.398 1097.02 292.704 1102.34 282.997C1107.67 273.291 1110.33 262.401 1110.33 250.327C1110.33 238.253 1107.67 227.422 1102.34 217.834C1097.14 208.246 1089.91 200.611 1080.68 194.929C1071.45 189.247 1060.91 186.406 1049.08 186.406C1040.2 186.406 1031.97 188.063 1024.4 191.378C1016.94 194.692 1010.37 199.309 1004.69 205.227C999.124 211.146 994.745 218.011 991.549 225.824C988.353 233.518 986.755 241.745 986.755 250.504C986.755 262.223 989.418 272.936 994.745 282.642C1000.19 292.349 1007.53 300.102 1016.76 305.902C1026.11 311.702 1036.71 314.602 1048.54 314.602Z" fill="white" fill-opacity="0.6"/>
<path d="M994.578 366.033L994.577 366.032C977.22 359.85 961.65 349.805 947.87 335.906C934.075 321.993 923.151 303.577 915.083 280.678L915.082 280.675C907.127 257.761 903.158 229.648 903.158 196.349V196.348C903.276 165.772 906.772 138.44 913.653 114.358L913.653 114.357C920.651 90.1601 930.62 69.6231 943.567 52.7567L943.568 52.7549C956.633 35.8892 972.258 23.0544 990.442 14.2595C1008.63 5.34461 1029.01 0.89209 1051.56 0.89209C1075.89 0.89209 1097.4 5.64019 1116.07 15.1512C1134.72 24.5373 1149.7 37.3152 1160.99 53.485C1172.4 69.6526 1179.3 87.7828 1181.68 107.867L1181.74 108.426H1181.18H1105.36H1104.97L1104.88 108.04C1101.94 95.4762 1095.78 85.6378 1086.42 78.4942C1077.05 71.351 1065.44 67.7657 1051.56 67.7657C1028.07 67.7657 1010.24 77.969 998.015 98.4171C985.942 118.812 979.738 146.54 979.446 181.645H981.121C986.582 170.93 993.919 161.793 1003.13 154.238C1003.13 154.237 1003.13 154.237 1003.13 154.237L1003.44 154.624C1012.8 146.93 1023.39 141.07 1035.23 137.046L994.578 366.033ZM994.578 366.033C1012.03 372.207 1030.14 375.353 1048.9 375.472C1075.95 375.59 1099.71 370.25 1120.16 359.434L1120.16 359.433M994.578 366.033L1120.16 359.433M1120.16 359.433C1140.71 348.502 1156.7 333.405 1168.12 314.147L1120.16 359.433ZM5.03112 370V370.5H5.53112H264.764H265.264V370V307.145V306.645H264.764H112.565V304.869L165.491 253.005C165.493 253.003 165.496 253.001 165.498 252.999C190.479 230.267 209.848 210.781 223.597 194.542L223.599 194.541C237.348 178.183 246.912 163.282 252.266 149.84C257.734 136.407 260.47 122.79 260.47 108.992C260.47 87.9492 255.059 69.2672 244.229 52.962C233.402 36.6618 218.236 23.9391 198.75 14.7897C179.375 5.51881 156.631 0.89209 130.531 0.89209C105.136 0.89209 82.6857 5.69849 63.1932 15.3259C43.7007 24.9533 28.5354 38.5694 17.7117 56.1728C6.88432 73.7822 1.47998 94.5317 1.47998 118.402V118.902H1.97998H74.9558H75.4558V118.402C75.4558 106.866 77.6921 96.9485 82.1438 88.6309C86.5964 80.3116 92.9186 73.9316 101.118 69.4807C109.318 65.0289 118.94 62.7941 129.998 62.7941C140.584 62.7941 150.033 64.9106 158.359 69.1321L158.364 69.1346C166.686 73.2371 173.244 79.1516 178.047 86.8832L178.049 86.8861C182.843 94.4875 185.251 103.565 185.251 114.141C185.251 123.658 183.313 132.521 179.441 140.737C175.559 148.852 169.847 157.159 162.295 165.655L162.293 165.658C154.848 174.166 145.626 183.743 134.626 194.388C134.625 194.39 134.624 194.391 134.622 194.392L5.19141 314.235L5.03112 314.384V314.602V370ZM463.049 378.49H463.051C493.675 378.49 519.996 371.011 541.99 356.031C563.98 341.054 580.846 319.368 592.596 291.003C604.465 262.636 610.39 228.476 610.39 188.538C610.509 148.837 604.643 115.03 592.772 87.1345C580.903 59.1227 563.918 37.7333 541.809 22.9935C519.816 8.25233 493.555 0.89209 463.051 0.89209C432.546 0.89209 406.227 8.25241 384.116 22.993C362.124 37.6148 345.198 58.9455 333.329 86.957L333.328 86.9586C321.577 114.971 315.711 148.835 315.711 188.535C315.593 228.356 321.399 262.456 333.15 290.824L333.15 290.825C345.019 319.191 361.943 340.876 383.934 355.854L383.935 355.854C406.046 370.833 432.425 378.371 463.049 378.49ZM530.91 188.537V188.538C531.028 230.409 524.875 261.728 512.514 282.565C500.157 303.395 483.675 313.747 463.051 313.747C449.324 313.747 437.369 309.176 427.163 300.026C416.954 290.754 409.003 276.879 403.338 258.35C397.793 239.71 395.014 216.443 395.014 188.538C395.132 147.261 401.403 116.355 413.763 95.7545C426.12 75.1605 442.543 64.9248 463.051 64.9248C476.777 64.9248 488.672 69.4957 498.759 78.6446L498.761 78.6465C508.97 87.7992 516.862 101.498 522.409 119.79L522.41 119.793C528.072 138.077 530.91 160.987 530.91 188.537ZM823.414 6.36368V5.86368H822.914H750.648H750.503L750.381 5.94124L660.36 62.937L660.127 63.0842V63.3594V131.541V132.445L660.893 131.965L744.045 79.8395H745.532V370V370.5H746.032H822.914H823.414V370V6.36368ZM1101.9 218.073L1101.91 218.077C1107.19 227.583 1109.83 238.329 1109.83 250.327C1109.83 262.324 1107.19 273.131 1101.91 282.757C1096.62 292.387 1089.34 300.017 1080.07 305.652C1070.8 311.283 1060.3 314.102 1048.54 314.102C1036.79 314.102 1026.29 311.225 1017.03 305.479C1007.87 299.724 1000.59 292.033 995.181 282.399C989.898 272.771 987.255 262.143 987.255 250.504C987.255 241.807 988.841 233.646 992.01 226.016L992.011 226.013C995.185 218.256 999.531 211.444 1005.05 205.573C1010.69 199.702 1017.2 195.124 1024.6 191.836C1032.1 188.551 1040.26 186.906 1049.08 186.906C1060.83 186.906 1071.27 189.726 1080.42 195.355C1089.58 200.991 1096.74 208.561 1101.9 218.073Z" stroke="#9796A5" stroke-opacity="0.15"/>
</svg>
