<svg width="1155" height="379" viewBox="0 0 1155 379" fill="none" xmlns="http://www.w3.org/2000/svg">
<path d="M4.88854 370V314.602L134.327 194.751C145.336 184.098 154.569 174.51 162.026 165.987C169.602 157.465 175.343 149.119 179.249 140.952C183.156 132.666 185.109 123.729 185.109 114.141C185.109 103.487 182.682 94.3135 177.829 86.6194C172.976 78.8069 166.347 72.8291 157.943 68.6861C149.538 64.4248 140.009 62.2941 129.356 62.2941C118.229 62.2941 108.523 64.5431 100.237 69.0412C91.9506 73.5393 85.5585 79.9906 81.0604 88.3949C76.5623 96.7993 74.3133 106.802 74.3133 118.402H1.3374C1.3374 94.6094 6.72329 73.9537 17.4951 56.4347C28.2669 38.9158 43.3592 25.3623 62.7721 15.7742C82.1849 6.18612 104.557 1.39209 129.889 1.39209C155.93 1.39209 178.598 6.00857 197.893 15.2415C217.306 24.3561 232.398 37.0218 243.17 53.2387C253.942 69.4555 259.327 88.0398 259.327 108.992C259.327 122.723 256.605 136.276 251.16 149.652C245.833 163.028 236.304 177.884 222.573 194.219C208.842 210.436 189.488 229.908 164.512 252.635L111.423 304.659V307.145H264.122V370H4.88854Z" fill="white" fill-opacity="0.6"/>
<path d="M462.408 377.99C431.868 377.872 405.59 370.355 383.573 355.44C361.674 340.526 344.806 318.923 332.969 290.632C321.25 262.341 315.45 228.31 315.569 188.537C315.569 148.883 321.428 115.088 333.147 87.152C344.984 59.2164 361.852 37.9688 383.75 23.4092C405.767 8.73111 431.987 1.39209 462.408 1.39209C492.829 1.39209 518.99 8.73111 540.888 23.4092C562.905 38.0872 579.832 59.394 591.669 87.3296C603.507 115.147 609.366 148.883 609.248 188.537C609.248 228.428 603.329 262.519 591.492 290.81C579.773 319.1 562.964 340.703 541.066 355.618C519.167 370.533 492.948 377.99 462.408 377.99ZM462.408 314.247C483.241 314.247 499.873 303.771 512.302 282.82C524.731 261.868 530.886 230.44 530.767 188.537C530.767 160.956 527.927 137.992 522.245 119.645C516.681 101.297 508.75 87.5071 498.452 78.2742C488.272 69.0412 476.258 64.4248 462.408 64.4248C441.693 64.4248 425.121 74.7823 412.692 95.4972C400.263 116.212 393.989 147.225 393.871 188.537C393.871 216.473 396.653 239.792 402.216 258.494C407.898 277.079 415.888 291.046 426.186 300.398C436.485 309.631 448.559 314.247 462.408 314.247Z" fill="white" fill-opacity="0.6"/>
<path d="M822.271 6.36368V370H745.389V79.3395H743.259L659.984 131.541V63.3594L750.006 6.36368H822.271Z" fill="white" fill-opacity="0.6"/>
<path d="M923.079 370L1073.82 71.7046V69.2188H898.221V6.36368H1153.37V70.1066L1002.45 370H923.079Z" fill="white" fill-opacity="0.6"/>
<path d="M4.38854 370V370.5H4.88854H264.122H264.622V370V307.145V306.645H264.122H111.923V304.869L164.849 253.005C164.851 253.003 164.853 253.001 164.855 252.999C189.836 230.267 209.205 210.781 222.955 194.542L222.956 194.541C236.706 178.183 246.27 163.282 251.623 149.84C257.091 136.407 259.827 122.79 259.827 108.992C259.827 87.9492 254.417 69.2672 243.586 52.962C232.759 36.6618 217.593 23.9391 198.107 14.7897C178.732 5.51881 155.988 0.89209 129.889 0.89209C104.493 0.89209 82.0432 5.69849 62.5507 15.3259C43.0581 24.9533 27.8929 38.5694 17.0691 56.1728C6.24174 73.7822 0.837402 94.5317 0.837402 118.402V118.902H1.3374H74.3133H74.8133V118.402C74.8133 106.866 77.0496 96.9485 81.5013 88.6309C85.9538 80.3116 92.276 73.9316 100.475 69.4807C108.676 65.0289 118.297 62.7941 129.356 62.7941C139.941 62.7941 149.391 64.9106 157.716 69.1321L157.721 69.1346C166.044 73.2371 172.601 79.1516 177.404 86.8832L177.406 86.8861C182.201 94.4875 184.609 103.565 184.609 114.141C184.609 123.658 182.671 132.521 178.798 140.737C174.916 148.852 169.205 157.159 161.653 165.655L161.65 165.658C154.205 174.166 144.984 183.743 133.984 194.388C133.982 194.39 133.981 194.391 133.98 194.392L4.54884 314.235L4.38854 314.384V314.602V370ZM462.406 378.49H462.408C493.032 378.49 519.353 371.011 541.347 356.031C563.338 341.054 580.203 319.368 591.953 291.003C603.822 262.636 609.747 228.476 609.748 188.538C609.866 148.837 604 115.03 592.13 87.1345C580.26 59.1227 563.276 37.7333 541.166 22.9935C519.173 8.25233 492.913 0.89209 462.408 0.89209C431.903 0.89209 405.584 8.25241 383.473 22.993C361.481 37.6148 344.556 58.9455 332.686 86.957L332.686 86.9586C320.935 114.971 315.069 148.835 315.069 188.535C314.95 228.356 320.757 262.456 332.507 290.824L332.508 290.825C344.376 319.191 361.301 340.876 383.291 355.854L383.292 355.854C405.403 370.833 431.782 378.371 462.406 378.49ZM530.267 188.537V188.538C530.386 230.409 524.232 261.728 511.872 282.565C499.515 303.395 483.032 313.747 462.408 313.747C448.682 313.747 436.727 309.176 426.52 300.026C416.311 290.754 408.36 276.879 402.695 258.35C397.15 239.71 394.371 216.443 394.371 188.538C394.489 147.261 400.761 116.355 413.121 95.7545C425.477 75.1605 441.901 64.9248 462.408 64.9248C476.134 64.9248 488.029 69.4957 498.116 78.6446L498.118 78.6465C508.327 87.7992 516.22 101.498 521.766 119.79L521.767 119.793C527.429 138.077 530.267 160.987 530.267 188.537ZM822.771 6.36368V5.86368H822.271H750.006H749.861L749.738 5.94124L659.717 62.937L659.484 63.0842V63.3594V131.541V132.445L660.25 131.965L743.402 79.8395H744.889V370V370.5H745.389H822.271H822.771V370V6.36368ZM922.633 369.775L922.266 370.5H923.079H1002.45H1002.76L1002.89 370.225L1153.82 70.3314L1153.87 70.2253V70.1066V6.36368V5.86368H1153.37H898.221H897.721V6.36368V69.2188V69.7188H898.221H1073.32V71.5854L922.633 369.775Z" stroke="#9796A5" stroke-opacity="0.15"/>
</svg>
