<svg width="1187" height="379" viewBox="0 0 1187 379" fill="none" xmlns="http://www.w3.org/2000/svg">
<mask id="path-1-outside-1_218_62" maskUnits="userSpaceOnUse" x="0.73584" y="0.39209" width="1187" height="379" fill="black">
<rect fill="white" x="0.73584" y="0.39209" width="1187" height="379"/>
<path d="M5.28698 370V314.602L134.726 194.751C145.734 184.098 154.967 174.51 162.425 165.987C170.001 157.465 175.742 149.119 179.648 140.952C183.554 132.666 185.507 123.729 185.507 114.141C185.507 103.487 183.081 94.3135 178.227 86.6194C173.374 78.8069 166.745 72.8291 158.341 68.6861C149.937 64.4248 140.408 62.2941 129.754 62.2941C118.627 62.2941 108.921 64.5431 100.635 69.0412C92.349 73.5393 85.957 79.9906 81.4589 88.3949C76.9607 96.7993 74.7117 106.802 74.7117 118.402H1.73584C1.73584 94.6094 7.12173 73.9537 17.8935 56.4347C28.6653 38.9158 43.7576 25.3623 63.1705 15.7742C82.5834 6.18612 104.956 1.39209 130.287 1.39209C156.329 1.39209 178.997 6.00857 198.291 15.2415C217.704 24.3561 232.796 37.0218 243.568 53.2387C254.34 69.4555 259.726 88.0398 259.726 108.992C259.726 122.723 257.003 136.276 251.558 149.652C246.232 163.028 236.703 177.884 222.972 194.219C209.241 210.436 189.887 229.908 164.911 252.635L111.821 304.659V307.145H264.52V370H5.28698Z"/>
<path d="M462.807 377.99C432.267 377.872 405.988 370.355 383.971 355.44C362.073 340.526 345.205 318.923 333.368 290.632C321.649 262.341 315.849 228.31 315.967 188.537C315.967 148.883 321.826 115.088 333.545 87.152C345.382 59.2164 362.25 37.9688 384.149 23.4092C406.166 8.73111 432.385 1.39209 462.807 1.39209C493.228 1.39209 519.388 8.73111 541.287 23.4092C563.304 38.0872 580.231 59.394 592.068 87.3296C603.905 115.147 609.764 148.883 609.646 188.537C609.646 228.428 603.727 262.519 591.89 290.81C580.172 319.1 563.363 340.703 541.464 355.618C519.565 370.533 493.346 377.99 462.807 377.99ZM462.807 314.247C483.64 314.247 500.271 303.771 512.7 282.82C525.129 261.868 531.284 230.44 531.166 188.537C531.166 160.956 528.325 137.992 522.643 119.645C517.08 101.297 509.149 87.5071 498.851 78.2742C488.671 69.0412 476.656 64.4248 462.807 64.4248C442.092 64.4248 425.52 74.7823 413.091 95.4972C400.662 116.212 394.388 147.225 394.27 188.537C394.27 216.473 397.051 239.792 402.615 258.494C408.297 277.079 416.287 291.046 426.585 300.398C436.883 309.631 448.957 314.247 462.807 314.247Z"/>
<path d="M822.67 6.36368V370H745.788V79.3395H743.657L660.383 131.541V63.3594L750.404 6.36368H822.67Z"/>
<path d="M1044.75 374.972C1017.41 374.972 993.08 370.533 971.773 361.655C950.585 352.659 933.954 340.407 921.88 324.901C909.806 309.394 903.769 291.816 903.769 272.166C903.769 257.015 907.202 243.106 914.067 230.44C921.051 217.656 930.521 207.062 942.476 198.658C954.432 190.135 967.808 184.69 982.604 182.322V179.837C963.191 175.93 947.448 166.52 935.374 151.605C923.3 136.572 917.263 119.112 917.263 99.2259C917.263 80.4049 922.767 63.6554 933.776 48.9773C944.784 34.1809 959.877 22.5805 979.053 14.1762C998.347 5.65345 1020.25 1.39209 1044.75 1.39209C1069.25 1.39209 1091.09 5.65345 1110.27 14.1762C1129.56 22.6989 1144.71 34.3585 1155.72 49.1549C1166.73 63.8329 1172.29 80.5233 1172.41 99.2259C1172.29 119.231 1166.14 136.69 1153.95 151.605C1141.75 166.52 1126.13 175.93 1107.07 179.837V182.322C1121.63 184.69 1134.83 190.135 1146.67 198.658C1158.62 207.062 1168.09 217.656 1175.08 230.44C1182.18 243.106 1185.79 257.015 1185.91 272.166C1185.79 291.816 1179.69 309.394 1167.62 324.901C1155.54 340.407 1138.85 352.659 1117.55 361.655C1096.36 370.533 1072.09 374.972 1044.75 374.972ZM1044.75 318.509C1056.94 318.509 1067.59 316.319 1076.71 311.939C1085.82 307.441 1092.93 301.286 1098.02 293.473C1103.22 285.542 1105.83 276.428 1105.83 266.129C1105.83 255.594 1103.17 246.302 1097.84 238.253C1092.51 230.085 1085.29 223.693 1076.18 219.077C1067.06 214.342 1056.59 211.974 1044.75 211.974C1033.03 211.974 1022.55 214.342 1013.32 219.077C1004.09 223.693 996.809 230.085 991.482 238.253C986.274 246.302 983.669 255.594 983.669 266.129C983.669 276.428 986.214 285.542 991.304 293.473C996.394 301.286 1003.56 307.441 1012.79 311.939C1022.02 316.319 1032.68 318.509 1044.75 318.509ZM1044.75 156.044C1054.93 156.044 1063.98 153.973 1071.92 149.83C1079.85 145.687 1086.06 139.946 1090.56 132.607C1095.06 125.268 1097.31 116.804 1097.31 107.216C1097.31 97.7463 1095.06 89.4603 1090.56 82.358C1086.06 75.1373 1079.91 69.5147 1072.09 65.4901C1064.28 61.3471 1055.17 59.2756 1044.75 59.2756C1034.45 59.2756 1025.34 61.3471 1017.41 65.4901C1009.47 69.5147 1003.26 75.1373 998.762 82.358C994.382 89.4603 992.192 97.7463 992.192 107.216C992.192 116.804 994.441 125.268 998.939 132.607C1003.44 139.946 1009.65 145.687 1017.58 149.83C1025.51 153.973 1034.57 156.044 1044.75 156.044Z"/>
</mask>
<path d="M5.28698 370V314.602L134.726 194.751C145.734 184.098 154.967 174.51 162.425 165.987C170.001 157.465 175.742 149.119 179.648 140.952C183.554 132.666 185.507 123.729 185.507 114.141C185.507 103.487 183.081 94.3135 178.227 86.6194C173.374 78.8069 166.745 72.8291 158.341 68.6861C149.937 64.4248 140.408 62.2941 129.754 62.2941C118.627 62.2941 108.921 64.5431 100.635 69.0412C92.349 73.5393 85.957 79.9906 81.4589 88.3949C76.9607 96.7993 74.7117 106.802 74.7117 118.402H1.73584C1.73584 94.6094 7.12173 73.9537 17.8935 56.4347C28.6653 38.9158 43.7576 25.3623 63.1705 15.7742C82.5834 6.18612 104.956 1.39209 130.287 1.39209C156.329 1.39209 178.997 6.00857 198.291 15.2415C217.704 24.3561 232.796 37.0218 243.568 53.2387C254.34 69.4555 259.726 88.0398 259.726 108.992C259.726 122.723 257.003 136.276 251.558 149.652C246.232 163.028 236.703 177.884 222.972 194.219C209.241 210.436 189.887 229.908 164.911 252.635L111.821 304.659V307.145H264.52V370H5.28698Z" fill="white" fill-opacity="0.6"/>
<path d="M462.807 377.99C432.267 377.872 405.988 370.355 383.971 355.44C362.073 340.526 345.205 318.923 333.368 290.632C321.649 262.341 315.849 228.31 315.967 188.537C315.967 148.883 321.826 115.088 333.545 87.152C345.382 59.2164 362.25 37.9688 384.149 23.4092C406.166 8.73111 432.385 1.39209 462.807 1.39209C493.228 1.39209 519.388 8.73111 541.287 23.4092C563.304 38.0872 580.231 59.394 592.068 87.3296C603.905 115.147 609.764 148.883 609.646 188.537C609.646 228.428 603.727 262.519 591.89 290.81C580.172 319.1 563.363 340.703 541.464 355.618C519.565 370.533 493.346 377.99 462.807 377.99ZM462.807 314.247C483.64 314.247 500.271 303.771 512.7 282.82C525.129 261.868 531.284 230.44 531.166 188.537C531.166 160.956 528.325 137.992 522.643 119.645C517.08 101.297 509.149 87.5071 498.851 78.2742C488.671 69.0412 476.656 64.4248 462.807 64.4248C442.092 64.4248 425.52 74.7823 413.091 95.4972C400.662 116.212 394.388 147.225 394.27 188.537C394.27 216.473 397.051 239.792 402.615 258.494C408.297 277.079 416.287 291.046 426.585 300.398C436.883 309.631 448.957 314.247 462.807 314.247Z" fill="white" fill-opacity="0.6"/>
<path d="M822.67 6.36368V370H745.788V79.3395H743.657L660.383 131.541V63.3594L750.404 6.36368H822.67Z" fill="white" fill-opacity="0.6"/>
<path d="M1044.75 374.972C1017.41 374.972 993.08 370.533 971.773 361.655C950.585 352.659 933.954 340.407 921.88 324.901C909.806 309.394 903.769 291.816 903.769 272.166C903.769 257.015 907.202 243.106 914.067 230.44C921.051 217.656 930.521 207.062 942.476 198.658C954.432 190.135 967.808 184.69 982.604 182.322V179.837C963.191 175.93 947.448 166.52 935.374 151.605C923.3 136.572 917.263 119.112 917.263 99.2259C917.263 80.4049 922.767 63.6554 933.776 48.9773C944.784 34.1809 959.877 22.5805 979.053 14.1762C998.347 5.65345 1020.25 1.39209 1044.75 1.39209C1069.25 1.39209 1091.09 5.65345 1110.27 14.1762C1129.56 22.6989 1144.71 34.3585 1155.72 49.1549C1166.73 63.8329 1172.29 80.5233 1172.41 99.2259C1172.29 119.231 1166.14 136.69 1153.95 151.605C1141.75 166.52 1126.13 175.93 1107.07 179.837V182.322C1121.63 184.69 1134.83 190.135 1146.67 198.658C1158.62 207.062 1168.09 217.656 1175.08 230.44C1182.18 243.106 1185.79 257.015 1185.91 272.166C1185.79 291.816 1179.69 309.394 1167.62 324.901C1155.54 340.407 1138.85 352.659 1117.55 361.655C1096.36 370.533 1072.09 374.972 1044.75 374.972ZM1044.75 318.509C1056.94 318.509 1067.59 316.319 1076.71 311.939C1085.82 307.441 1092.93 301.286 1098.02 293.473C1103.22 285.542 1105.83 276.428 1105.83 266.129C1105.83 255.594 1103.17 246.302 1097.84 238.253C1092.51 230.085 1085.29 223.693 1076.18 219.077C1067.06 214.342 1056.59 211.974 1044.75 211.974C1033.03 211.974 1022.55 214.342 1013.32 219.077C1004.09 223.693 996.809 230.085 991.482 238.253C986.274 246.302 983.669 255.594 983.669 266.129C983.669 276.428 986.214 285.542 991.304 293.473C996.394 301.286 1003.56 307.441 1012.79 311.939C1022.02 316.319 1032.68 318.509 1044.75 318.509ZM1044.75 156.044C1054.93 156.044 1063.98 153.973 1071.92 149.83C1079.85 145.687 1086.06 139.946 1090.56 132.607C1095.06 125.268 1097.31 116.804 1097.31 107.216C1097.31 97.7463 1095.06 89.4603 1090.56 82.358C1086.06 75.1373 1079.91 69.5147 1072.09 65.4901C1064.28 61.3471 1055.17 59.2756 1044.75 59.2756C1034.45 59.2756 1025.34 61.3471 1017.41 65.4901C1009.47 69.5147 1003.26 75.1373 998.762 82.358C994.382 89.4603 992.192 97.7463 992.192 107.216C992.192 116.804 994.441 125.268 998.939 132.607C1003.44 139.946 1009.65 145.687 1017.58 149.83C1025.51 153.973 1034.57 156.044 1044.75 156.044Z" fill="white" fill-opacity="0.6"/>
<path d="M5.28698 370V314.602L134.726 194.751C145.734 184.098 154.967 174.51 162.425 165.987C170.001 157.465 175.742 149.119 179.648 140.952C183.554 132.666 185.507 123.729 185.507 114.141C185.507 103.487 183.081 94.3135 178.227 86.6194C173.374 78.8069 166.745 72.8291 158.341 68.6861C149.937 64.4248 140.408 62.2941 129.754 62.2941C118.627 62.2941 108.921 64.5431 100.635 69.0412C92.349 73.5393 85.957 79.9906 81.4589 88.3949C76.9607 96.7993 74.7117 106.802 74.7117 118.402H1.73584C1.73584 94.6094 7.12173 73.9537 17.8935 56.4347C28.6653 38.9158 43.7576 25.3623 63.1705 15.7742C82.5834 6.18612 104.956 1.39209 130.287 1.39209C156.329 1.39209 178.997 6.00857 198.291 15.2415C217.704 24.3561 232.796 37.0218 243.568 53.2387C254.34 69.4555 259.726 88.0398 259.726 108.992C259.726 122.723 257.003 136.276 251.558 149.652C246.232 163.028 236.703 177.884 222.972 194.219C209.241 210.436 189.887 229.908 164.911 252.635L111.821 304.659V307.145H264.52V370H5.28698Z" stroke="#9796A5" stroke-opacity="0.15" stroke-width="2" mask="url(#path-1-outside-1_218_62)"/>
<path d="M462.807 377.99C432.267 377.872 405.988 370.355 383.971 355.44C362.073 340.526 345.205 318.923 333.368 290.632C321.649 262.341 315.849 228.31 315.967 188.537C315.967 148.883 321.826 115.088 333.545 87.152C345.382 59.2164 362.25 37.9688 384.149 23.4092C406.166 8.73111 432.385 1.39209 462.807 1.39209C493.228 1.39209 519.388 8.73111 541.287 23.4092C563.304 38.0872 580.231 59.394 592.068 87.3296C603.905 115.147 609.764 148.883 609.646 188.537C609.646 228.428 603.727 262.519 591.89 290.81C580.172 319.1 563.363 340.703 541.464 355.618C519.565 370.533 493.346 377.99 462.807 377.99ZM462.807 314.247C483.64 314.247 500.271 303.771 512.7 282.82C525.129 261.868 531.284 230.44 531.166 188.537C531.166 160.956 528.325 137.992 522.643 119.645C517.08 101.297 509.149 87.5071 498.851 78.2742C488.671 69.0412 476.656 64.4248 462.807 64.4248C442.092 64.4248 425.52 74.7823 413.091 95.4972C400.662 116.212 394.388 147.225 394.27 188.537C394.27 216.473 397.051 239.792 402.615 258.494C408.297 277.079 416.287 291.046 426.585 300.398C436.883 309.631 448.957 314.247 462.807 314.247Z" stroke="#9796A5" stroke-opacity="0.15" stroke-width="2" mask="url(#path-1-outside-1_218_62)"/>
<path d="M822.67 6.36368V370H745.788V79.3395H743.657L660.383 131.541V63.3594L750.404 6.36368H822.67Z" stroke="#9796A5" stroke-opacity="0.15" stroke-width="2" mask="url(#path-1-outside-1_218_62)"/>
<path d="M1044.75 374.972C1017.41 374.972 993.08 370.533 971.773 361.655C950.585 352.659 933.954 340.407 921.88 324.901C909.806 309.394 903.769 291.816 903.769 272.166C903.769 257.015 907.202 243.106 914.067 230.44C921.051 217.656 930.521 207.062 942.476 198.658C954.432 190.135 967.808 184.69 982.604 182.322V179.837C963.191 175.93 947.448 166.52 935.374 151.605C923.3 136.572 917.263 119.112 917.263 99.2259C917.263 80.4049 922.767 63.6554 933.776 48.9773C944.784 34.1809 959.877 22.5805 979.053 14.1762C998.347 5.65345 1020.25 1.39209 1044.75 1.39209C1069.25 1.39209 1091.09 5.65345 1110.27 14.1762C1129.56 22.6989 1144.71 34.3585 1155.72 49.1549C1166.73 63.8329 1172.29 80.5233 1172.41 99.2259C1172.29 119.231 1166.14 136.69 1153.95 151.605C1141.75 166.52 1126.13 175.93 1107.07 179.837V182.322C1121.63 184.69 1134.83 190.135 1146.67 198.658C1158.62 207.062 1168.09 217.656 1175.08 230.44C1182.18 243.106 1185.79 257.015 1185.91 272.166C1185.79 291.816 1179.69 309.394 1167.62 324.901C1155.54 340.407 1138.85 352.659 1117.55 361.655C1096.36 370.533 1072.09 374.972 1044.75 374.972ZM1044.75 318.509C1056.94 318.509 1067.59 316.319 1076.71 311.939C1085.82 307.441 1092.93 301.286 1098.02 293.473C1103.22 285.542 1105.83 276.428 1105.83 266.129C1105.83 255.594 1103.17 246.302 1097.84 238.253C1092.51 230.085 1085.29 223.693 1076.18 219.077C1067.06 214.342 1056.59 211.974 1044.75 211.974C1033.03 211.974 1022.55 214.342 1013.32 219.077C1004.09 223.693 996.809 230.085 991.482 238.253C986.274 246.302 983.669 255.594 983.669 266.129C983.669 276.428 986.214 285.542 991.304 293.473C996.394 301.286 1003.56 307.441 1012.79 311.939C1022.02 316.319 1032.68 318.509 1044.75 318.509ZM1044.75 156.044C1054.93 156.044 1063.98 153.973 1071.92 149.83C1079.85 145.687 1086.06 139.946 1090.56 132.607C1095.06 125.268 1097.31 116.804 1097.31 107.216C1097.31 97.7463 1095.06 89.4603 1090.56 82.358C1086.06 75.1373 1079.91 69.5147 1072.09 65.4901C1064.28 61.3471 1055.17 59.2756 1044.75 59.2756C1034.45 59.2756 1025.34 61.3471 1017.41 65.4901C1009.47 69.5147 1003.26 75.1373 998.762 82.358C994.382 89.4603 992.192 97.7463 992.192 107.216C992.192 116.804 994.441 125.268 998.939 132.607C1003.44 139.946 1009.65 145.687 1017.58 149.83C1025.51 153.973 1034.57 156.044 1044.75 156.044Z" stroke="#9796A5" stroke-opacity="0.15" stroke-width="2" mask="url(#path-1-outside-1_218_62)"/>
</svg>
