<svg width="1188" height="379" viewBox="0 0 1188 379" fill="none" xmlns="http://www.w3.org/2000/svg">
<path d="M5.53112 370V314.602L134.97 194.751C145.979 184.098 155.212 174.51 162.669 165.987C170.245 157.464 175.986 149.119 179.892 140.952C183.798 132.666 185.751 123.729 185.751 114.141C185.751 103.487 183.325 94.3134 178.471 86.6193C173.618 78.8068 166.989 72.8291 158.585 68.6861C150.181 64.4247 140.652 62.294 129.998 62.294C118.872 62.294 109.165 64.5431 100.879 69.0412C92.5931 73.5393 86.2011 79.9905 81.703 88.3949C77.2049 96.7992 74.9558 106.802 74.9558 118.402H1.97998C1.97998 94.6094 7.36587 73.9536 18.1377 56.4347C28.9094 38.9157 44.0018 25.3622 63.4146 15.7741C82.8275 6.18608 105.2 1.39205 130.531 1.39205C156.573 1.39205 179.241 6.00853 198.535 15.2415C217.948 24.3561 233.041 37.0218 243.812 53.2386C254.584 69.4555 259.97 88.0398 259.97 108.991C259.97 122.723 257.248 136.276 251.802 149.652C246.476 163.028 236.947 177.884 223.216 194.219C209.485 210.436 190.131 229.908 165.155 252.635L112.065 304.659V307.145H264.764V370H5.53112Z" fill="white" fill-opacity="0.6"/>
<path d="M463.051 377.99C432.511 377.872 406.232 370.355 384.215 355.44C362.317 340.526 345.449 318.923 333.612 290.632C321.893 262.341 316.093 228.31 316.211 188.537C316.211 148.883 322.071 115.088 333.789 87.152C345.626 59.2164 362.494 37.9688 384.393 23.4091C406.41 8.73107 432.629 1.39205 463.051 1.39205C493.472 1.39205 519.632 8.73107 541.531 23.4091C563.548 38.0871 580.475 59.3939 592.312 87.3295C604.149 115.147 610.009 148.883 609.89 188.537C609.89 228.428 603.972 262.519 592.134 290.81C580.416 319.1 563.607 340.703 541.708 355.618C519.81 370.533 493.59 377.99 463.051 377.99ZM463.051 314.247C483.884 314.247 500.515 303.771 512.944 282.82C525.373 261.868 531.528 230.44 531.41 188.537C531.41 160.956 528.569 137.992 522.887 119.645C517.324 101.297 509.393 87.5071 499.095 78.2741C488.915 69.0412 476.9 64.4247 463.051 64.4247C442.336 64.4247 425.764 74.7822 413.335 95.4972C400.906 116.212 394.632 147.225 394.514 188.537C394.514 216.473 397.295 239.792 402.859 258.494C408.541 277.079 416.531 291.046 426.829 300.398C437.127 309.631 449.201 314.247 463.051 314.247Z" fill="white" fill-opacity="0.6"/>
<path d="M822.914 6.36364V370H746.032V79.3395H743.901L660.627 131.541V63.3594L750.648 6.36364H822.914Z" fill="white" fill-opacity="0.6"/>
<path d="M1040.91 1.39205C1059.61 1.39205 1077.6 4.52888 1094.89 10.8025C1112.29 17.0762 1127.79 27.0786 1141.41 40.8097C1155.14 54.5407 1165.97 72.7699 1173.9 95.4972C1181.95 118.106 1186.03 145.864 1186.15 178.771C1186.15 209.666 1182.66 237.247 1175.67 261.513C1168.81 285.661 1158.93 306.198 1146.02 323.125C1133.12 340.052 1117.55 352.955 1099.33 361.832C1081.1 370.592 1060.74 374.972 1038.25 374.972C1013.98 374.972 992.555 370.296 973.97 360.945C955.386 351.475 940.412 338.632 929.049 322.415C917.803 306.08 910.997 287.732 908.629 267.372H984.446C987.406 280.63 993.62 290.928 1003.09 298.267C1012.56 305.488 1024.28 309.098 1038.25 309.098C1061.92 309.098 1079.91 298.8 1092.22 278.203C1104.53 257.488 1110.75 229.138 1110.87 193.153H1108.38C1102.94 203.807 1095.6 212.981 1086.36 220.675C1077.13 228.25 1066.54 234.11 1054.58 238.253C1042.74 242.396 1030.14 244.467 1016.76 244.467C995.336 244.467 976.219 239.437 959.411 229.375C942.602 219.313 929.344 205.464 919.638 187.827C909.932 170.189 905.078 150.066 905.078 127.457C904.96 103.073 910.583 81.3518 921.946 62.294C933.31 43.2363 949.172 28.3215 969.531 17.5497C990.01 6.65957 1013.8 1.27367 1040.91 1.39205ZM1041.44 61.7614C1029.49 61.7614 1018.83 64.6023 1009.48 70.2841C1000.25 75.9659 992.91 83.6009 987.465 93.1889C982.138 102.777 979.534 113.49 979.652 125.327C979.652 137.282 982.256 148.054 987.465 157.642C992.791 167.112 1000.01 174.688 1009.13 180.369C1018.36 185.933 1028.89 188.714 1040.73 188.714C1049.61 188.714 1057.84 187.057 1065.41 183.743C1072.99 180.429 1079.56 175.871 1085.12 170.071C1090.8 164.152 1095.24 157.346 1098.44 149.652C1101.63 141.958 1103.23 133.79 1103.23 125.149C1103.11 113.667 1100.39 103.132 1095.06 93.544C1089.74 83.956 1082.4 76.2618 1073.05 70.4616C1063.7 64.6615 1053.16 61.7614 1041.44 61.7614Z" fill="white" fill-opacity="0.6"/>
<path d="M1110.36 193.653C1110.19 229.351 1103.98 257.433 1091.79 277.947C1079.57 298.395 1061.74 308.598 1038.25 308.598C1024.37 308.598 1012.76 305.013 1003.39 297.869C994.029 290.611 987.871 280.422 984.934 267.263L984.847 266.872H984.446H908.629H908.068L908.133 267.43C910.509 287.868 917.344 306.294 928.637 322.698L928.639 322.702C940.052 338.989 955.09 351.885 973.743 361.39L973.746 361.391C992.41 370.783 1013.91 375.472 1038.25 375.472C1060.8 375.472 1081.24 371.078 1099.54 362.283L1099.54 362.282C1117.85 353.368 1133.47 340.414 1146.42 323.428C1159.37 306.443 1169.28 285.847 1176.16 261.65M1110.36 193.653L1040.91 1.39205M1110.36 193.653H1108.69C1103.22 204.251 1095.89 213.387 1086.68 221.059L1086.68 221.061C1077.4 228.677 1066.75 234.564 1054.74 238.725C1042.85 242.888 1030.19 244.967 1016.76 244.967C995.255 244.967 976.047 239.916 959.154 229.804C942.267 219.696 928.948 205.78 919.2 188.068C909.448 170.349 904.579 150.141 904.578 127.46C904.46 102.994 910.102 81.1815 921.517 62.038C932.929 42.8984 948.86 27.9207 969.298 17.1078C989.86 6.17322 1013.74 0.77352 1040.91 0.892046M1110.36 193.653L1040.91 0.892046M1176.16 261.65C1176.16 261.65 1176.16 261.651 1176.16 261.651L1175.67 261.513L1176.16 261.65ZM1176.16 261.65C1183.16 237.33 1186.65 209.702 1186.65 178.771C1186.53 145.825 1182.44 118.007 1174.37 95.3295M1174.37 95.3295C1166.42 72.55 1155.56 54.2523 1141.76 40.4576M1174.37 95.3295L1173.9 95.4972L1174.37 95.3324C1174.37 95.3315 1174.37 95.3305 1174.37 95.3295ZM1141.76 40.4576C1141.76 40.4571 1141.76 40.4566 1141.76 40.4561L1141.41 40.8097L1141.76 40.4576ZM1141.76 40.4576C1128.1 26.6766 1112.53 16.6326 1095.06 10.3326C1095.06 10.3324 1095.06 10.3323 1095.06 10.3322L1094.89 10.8025C1077.6 4.52888 1059.61 1.39205 1040.91 1.39205M1040.91 1.39205L1040.91 0.892051C1040.91 0.892049 1040.91 0.892048 1040.91 0.892046M1040.91 1.39205V0.892046C1040.91 0.892046 1040.91 0.892046 1040.91 0.892046M5.03112 370V370.5H5.53112H264.764H265.264V370V307.145V306.645H264.764H112.565V304.869L165.491 253.005C165.493 253.003 165.496 253.001 165.498 252.999C190.479 230.267 209.848 210.781 223.597 194.542L223.599 194.54C237.348 178.183 246.912 163.282 252.266 149.839C257.734 136.407 260.47 122.79 260.47 108.991C260.47 87.9492 255.059 69.2671 244.229 52.962C233.402 36.6618 218.236 23.939 198.75 14.7897C179.375 5.51876 156.631 0.892046 130.531 0.892046C105.136 0.892046 82.6857 5.69844 63.1932 15.3258C43.7007 24.9533 28.5354 38.5694 17.7117 56.1728C6.88432 73.7822 1.47998 94.5317 1.47998 118.402V118.902H1.97998H74.9558H75.4558V118.402C75.4558 106.866 77.6921 96.9485 82.1438 88.6308C86.5964 80.3116 92.9186 73.9316 101.118 69.4806C109.318 65.0289 118.94 62.794 129.998 62.794C140.584 62.794 150.033 64.9106 158.359 69.1321L158.364 69.1346C166.686 73.2371 173.244 79.1516 178.047 86.8832L178.049 86.8861C182.843 94.4875 185.251 103.565 185.251 114.141C185.251 123.658 183.313 132.521 179.441 140.737C175.559 148.852 169.847 157.159 162.295 165.655L162.293 165.658C154.848 174.166 145.626 183.743 134.626 194.388C134.625 194.39 134.624 194.391 134.622 194.392L5.19141 314.235L5.03112 314.384V314.602V370ZM463.049 378.49H463.051C493.675 378.49 519.996 371.011 541.99 356.031C563.98 341.054 580.846 319.368 592.596 291.003C604.465 262.636 610.39 228.476 610.39 188.538C610.509 148.837 604.643 115.03 592.772 87.1345C580.903 59.1227 563.918 37.7333 541.809 22.9934C519.816 8.25229 493.555 0.892046 463.051 0.892046C432.546 0.892046 406.227 8.25237 384.116 22.9929C362.124 37.6147 345.198 58.9455 333.329 86.9569L333.328 86.9586C321.577 114.971 315.711 148.835 315.711 188.535C315.593 228.355 321.399 262.456 333.15 290.823L333.15 290.825C345.019 319.191 361.943 340.876 383.934 355.854L383.935 355.854C406.046 370.833 432.425 378.371 463.049 378.49ZM530.91 188.537V188.538C531.028 230.409 524.875 261.728 512.514 282.565C500.157 303.395 483.675 313.747 463.051 313.747C449.324 313.747 437.369 309.176 427.163 300.025C416.954 290.754 409.003 276.879 403.338 258.35C397.793 239.71 395.014 216.443 395.014 188.538C395.132 147.261 401.403 116.355 413.763 95.7544C426.12 75.1605 442.543 64.9247 463.051 64.9247C476.777 64.9247 488.672 69.4957 498.759 78.6445L498.761 78.6464C508.97 87.7991 516.862 101.498 522.409 119.79L522.41 119.793C528.072 138.077 530.91 160.987 530.91 188.537ZM823.414 6.36364V5.86364H822.914H750.648H750.503L750.381 5.94119L660.36 62.9369L660.127 63.0842V63.3594V131.541V132.445L660.893 131.965L744.045 79.8395H745.532V370V370.5H746.032H822.914H823.414V370V6.36364ZM1038.25 374.972C1013.98 374.972 992.555 370.296 973.97 360.945L1099.33 361.832C1081.1 370.592 1060.74 374.972 1038.25 374.972ZM980.152 125.327V125.322C980.035 113.564 982.62 102.938 987.902 93.4317C993.305 83.9182 1000.58 76.3474 1009.74 70.7114C1019.01 65.0815 1029.57 62.2614 1041.44 62.2614C1053.07 62.2614 1063.52 65.1387 1072.78 70.8865C1082.06 76.642 1089.34 84.2735 1094.63 93.7869C1099.91 103.299 1102.61 113.751 1102.73 125.154C1102.73 133.73 1101.15 141.831 1097.98 149.46C1094.8 157.098 1090.4 163.852 1084.76 169.725C1079.24 175.476 1072.73 179.996 1065.21 183.285C1057.7 186.57 1049.55 188.214 1040.73 188.214C1028.98 188.214 1018.53 185.454 1009.39 179.943C1000.35 174.307 993.188 166.796 987.903 157.401C982.739 147.894 980.152 137.206 980.152 125.327Z" stroke="#9796A5" stroke-opacity="0.15"/>
</svg>
