<svg width="1270" height="379" viewBox="0 0 1270 379" fill="none" xmlns="http://www.w3.org/2000/svg">
<path d="M5.29479 370V314.602L134.734 194.751C145.742 184.098 154.975 174.51 162.433 165.987C170.008 157.465 175.749 149.119 179.656 140.952C183.562 132.666 185.515 123.729 185.515 114.141C185.515 103.487 183.088 94.3135 178.235 86.6194C173.382 78.8069 166.753 72.8291 158.349 68.6861C149.944 64.4248 140.416 62.2941 129.762 62.2941C118.635 62.2941 108.929 64.5431 100.643 69.0412C92.3568 73.5393 85.9648 79.9906 81.4667 88.3949C76.9686 96.7993 74.7195 106.802 74.7195 118.402H1.74365C1.74365 94.6094 7.12954 73.9537 17.9013 56.4347C28.6731 38.9158 43.7654 25.3623 63.1783 15.7742C82.5912 6.18612 104.963 1.39209 130.295 1.39209C156.336 1.39209 179.005 6.00857 198.299 15.2415C217.712 24.3561 232.804 37.0218 243.576 53.2387C254.348 69.4555 259.734 88.0398 259.734 108.992C259.734 122.723 257.011 136.276 251.566 149.652C246.239 163.028 236.711 177.884 222.979 194.219C209.248 210.436 189.895 229.908 164.918 252.635L111.829 304.659V307.145H264.528V370H5.29479Z" fill="white" fill-opacity="0.7"/>
<path d="M462.814 377.99C432.275 377.872 405.996 370.355 383.979 355.44C362.08 340.526 345.213 318.923 333.375 290.632C321.657 262.341 315.856 228.31 315.975 188.537C315.975 148.883 321.834 115.088 333.553 87.152C345.39 59.2164 362.258 37.9688 384.157 23.4092C406.174 8.73111 432.393 1.39209 462.814 1.39209C493.236 1.39209 519.396 8.73111 541.294 23.4092C563.311 38.0872 580.239 59.394 592.076 87.3296C603.913 115.147 609.772 148.883 609.654 188.537C609.654 228.428 603.735 262.519 591.898 290.81C580.179 319.1 563.371 340.703 541.472 355.618C519.573 370.533 493.354 377.99 462.814 377.99ZM462.814 314.247C483.648 314.247 500.279 303.771 512.708 282.82C525.137 261.868 531.292 230.44 531.174 188.537C531.174 160.956 528.333 137.992 522.651 119.645C517.088 101.297 509.157 87.5071 498.858 78.2742C488.678 69.0412 476.664 64.4248 462.814 64.4248C442.099 64.4248 425.527 74.7823 413.098 95.4972C400.669 116.212 394.396 147.225 394.277 188.537C394.277 216.473 397.059 239.792 402.623 258.494C408.304 277.079 416.294 291.046 426.593 300.398C436.891 309.631 448.965 314.247 462.814 314.247Z" fill="white" fill-opacity="0.7"/>
<path d="M664.474 370V314.602L793.913 194.751C804.922 184.098 814.155 174.51 821.612 165.987C829.188 157.465 834.929 149.119 838.835 140.952C842.742 132.666 844.695 123.729 844.695 114.141C844.695 103.487 842.268 94.3135 837.415 86.6194C832.562 78.8069 825.933 72.8291 817.528 68.6861C809.124 64.4248 799.595 62.2941 788.942 62.2941C777.815 62.2941 768.108 64.5431 759.823 69.0412C751.537 73.5393 745.144 79.9906 740.646 88.3949C736.148 96.7993 733.899 106.802 733.899 118.402H660.923C660.923 94.6094 666.309 73.9537 677.081 56.4347C687.853 38.9158 702.945 25.3623 722.358 15.7742C741.771 6.18612 764.143 1.39209 789.474 1.39209C815.516 1.39209 838.184 6.00857 857.479 15.2415C876.892 24.3561 891.984 37.0218 902.756 53.2387C913.528 69.4555 918.913 88.0398 918.913 108.992C918.913 122.723 916.191 136.276 910.746 149.652C905.419 163.028 895.89 177.884 882.159 194.219C868.428 210.436 849.074 229.908 824.098 252.635L771.009 304.659V307.145H923.707V370H664.474Z" fill="white" fill-opacity="0.7"/>
<path d="M1121.99 377.99C1091.45 377.872 1065.18 370.355 1043.16 355.44C1021.26 340.526 1004.39 318.923 992.555 290.632C980.836 262.341 975.036 228.31 975.155 188.537C975.155 148.883 981.014 115.088 992.733 87.152C1004.57 59.2164 1021.44 37.9688 1043.34 23.4092C1065.35 8.73111 1091.57 1.39209 1121.99 1.39209C1152.42 1.39209 1178.58 8.73111 1200.47 23.4092C1222.49 38.0872 1239.42 59.394 1251.26 87.3296C1263.09 115.147 1268.95 148.883 1268.83 188.537C1268.83 228.428 1262.92 262.519 1251.08 290.81C1239.36 319.1 1222.55 340.703 1200.65 355.618C1178.75 370.533 1152.53 377.99 1121.99 377.99ZM1121.99 314.247C1142.83 314.247 1159.46 303.771 1171.89 282.82C1184.32 261.868 1190.47 230.44 1190.35 188.537C1190.35 160.956 1187.51 137.992 1181.83 119.645C1176.27 101.297 1168.34 87.5071 1158.04 78.2742C1147.86 69.0412 1135.84 64.4248 1121.99 64.4248C1101.28 64.4248 1084.71 74.7823 1072.28 95.4972C1059.85 116.212 1053.58 147.225 1053.46 188.537C1053.46 216.473 1056.24 239.792 1061.8 258.494C1067.48 277.079 1075.47 291.046 1085.77 300.398C1096.07 309.631 1108.14 314.247 1121.99 314.247Z" fill="white" fill-opacity="0.7"/>
<path d="M4.79479 370V370.5H5.29479H264.528H265.028V370V307.145V306.645H264.528H112.329V304.869L165.255 253.005C165.257 253.003 165.259 253.001 165.262 252.999C190.243 230.267 209.612 210.781 223.361 194.542L223.362 194.541C237.112 178.183 246.676 163.282 252.03 149.84C257.498 136.407 260.234 122.79 260.234 108.992C260.234 87.9492 254.823 69.2672 243.993 52.962C233.165 36.6618 217.999 23.9391 198.513 14.7897C179.139 5.51881 156.394 0.89209 130.295 0.89209C104.9 0.89209 82.4494 5.69849 62.9569 15.3259C43.4643 24.9533 28.2991 38.5694 17.4754 56.1728C6.64799 73.7822 1.24365 94.5317 1.24365 118.402V118.902H1.74365H74.7195H75.2195V118.402C75.2195 106.866 77.4558 96.9485 81.9075 88.6309C86.36 80.3116 92.6822 73.9316 100.881 69.4807C109.082 65.0289 118.704 62.7941 129.762 62.7941C140.347 62.7941 149.797 64.9106 158.123 69.1321L158.128 69.1346C166.45 73.2371 173.007 79.1516 177.81 86.8832L177.812 86.8861C182.607 94.4875 185.015 103.565 185.015 114.141C185.015 123.658 183.077 132.521 179.204 140.737C175.323 148.852 169.611 157.159 162.059 165.655L162.056 165.658C154.611 174.166 145.39 183.743 134.39 194.388C134.389 194.39 134.387 194.391 134.386 194.392L4.95509 314.235L4.79479 314.384V314.602V370ZM462.812 378.49H462.814C493.439 378.49 519.76 371.011 541.753 356.031C563.744 341.054 580.609 319.368 592.359 291.003C604.228 262.636 610.154 228.476 610.154 188.538C610.272 148.837 604.406 115.03 592.536 87.1345C580.667 59.1227 563.682 37.7333 541.572 22.9935C519.579 8.25233 493.319 0.89209 462.814 0.89209C432.31 0.89209 405.99 8.25241 383.88 22.993C361.887 37.6148 344.962 58.9455 333.093 86.957L333.092 86.9586C321.341 114.971 315.475 148.835 315.475 188.535C315.356 228.356 321.163 262.456 332.913 290.824L332.914 290.825C344.783 319.191 361.707 340.876 383.698 355.854L383.699 355.854C405.81 370.833 432.188 378.371 462.812 378.49ZM530.674 188.537V188.538C530.792 230.409 524.638 261.728 512.278 282.565C499.921 303.395 483.438 313.747 462.814 313.747C449.088 313.747 437.133 309.176 426.927 300.026C416.718 290.754 408.766 276.879 403.101 258.35C397.557 239.71 394.777 216.443 394.777 188.538C394.896 147.261 401.167 116.355 413.527 95.7545C425.884 75.1605 442.307 64.9248 462.814 64.9248C476.541 64.9248 488.435 69.4957 498.522 78.6446L498.525 78.6465C508.733 87.7992 516.626 101.498 522.172 119.79L522.173 119.793C527.835 138.077 530.674 160.987 530.674 188.537ZM663.974 370V370.5H664.474H923.707H924.207V370V307.145V306.645H923.707H771.509V304.869L824.435 253.005C824.437 253.003 824.44 253 824.442 252.998C849.423 230.266 868.791 210.78 882.541 194.542L882.542 194.541C896.292 178.182 905.857 163.28 911.21 149.837C916.678 136.406 919.413 122.789 919.413 108.992C919.413 87.9492 914.003 69.2672 903.172 52.962C892.345 36.6614 877.178 23.9383 857.691 14.7889C838.317 5.51851 815.573 0.89209 789.474 0.89209C764.079 0.89209 741.629 5.69849 722.137 15.3259C702.644 24.9533 687.479 38.5694 676.655 56.1728C665.828 73.7822 660.423 94.5317 660.423 118.402V118.902H660.923H733.899H734.399V118.402C734.399 106.866 736.635 96.9485 741.087 88.6309C745.54 80.3116 751.862 73.9316 760.061 69.4807C768.262 65.0289 777.883 62.7941 788.942 62.7941C799.527 62.7941 808.977 64.9106 817.302 69.1321L817.307 69.1346C825.63 73.2371 832.187 79.1516 836.99 86.8832L836.992 86.8861C841.787 94.4875 844.195 103.565 844.195 114.141C844.195 123.659 842.256 132.522 838.383 140.739C834.501 148.854 828.79 157.16 821.239 165.655L821.236 165.658C813.791 174.166 804.57 183.743 793.57 194.388C793.569 194.389 793.567 194.391 793.566 194.392L664.135 314.235L663.974 314.384V314.602V370ZM1121.99 378.49H1121.99C1152.62 378.49 1178.94 371.011 1200.93 356.031C1222.92 341.054 1239.79 319.368 1251.54 291.003C1263.41 262.635 1269.33 228.475 1269.33 188.538C1269.45 148.836 1263.59 115.03 1251.72 87.1345C1239.85 59.123 1222.86 37.7336 1200.75 22.9938C1178.76 8.25245 1152.5 0.89209 1121.99 0.89209C1091.49 0.89209 1065.17 8.25247 1043.06 22.9928C1021.07 37.6146 1004.14 58.9454 992.272 86.957L992.272 86.9586C980.521 114.971 974.655 148.835 974.655 188.535C974.536 228.356 980.343 262.456 992.093 290.824L992.094 290.825C1003.96 319.191 1020.89 340.876 1042.88 355.854L1042.88 355.854C1064.99 370.833 1091.37 378.371 1121.99 378.49ZM1181.35 119.79L1181.35 119.793C1187.02 138.077 1189.85 160.987 1189.85 188.537C1189.97 230.409 1183.82 261.728 1171.46 282.565C1159.1 303.395 1142.62 313.747 1121.99 313.747C1108.27 313.747 1096.31 309.177 1086.11 300.028C1075.9 290.757 1067.95 276.88 1062.28 258.35C1056.74 239.709 1053.96 216.443 1053.96 188.538C1054.08 147.261 1060.35 116.355 1072.71 95.7545C1085.06 75.1605 1101.49 64.9248 1121.99 64.9248C1135.72 64.9248 1147.61 69.4957 1157.7 78.6446L1157.7 78.6465C1167.91 87.7992 1175.81 101.498 1181.35 119.79Z" stroke="#9796A5" stroke-opacity="0.35"/>
</svg>
