<svg width="1139" height="379" viewBox="0 0 1139 379" fill="none" xmlns="http://www.w3.org/2000/svg">
<path d="M5.09948 370V314.602L134.538 194.751C145.547 184.098 154.78 174.51 162.237 165.987C169.813 157.465 175.554 149.119 179.46 140.952C183.367 132.666 185.32 123.729 185.32 114.141C185.32 103.487 182.893 94.3135 178.04 86.6194C173.187 78.8069 166.558 72.8291 158.153 68.6861C149.749 64.4248 140.22 62.2941 129.567 62.2941C118.44 62.2941 108.733 64.5431 100.447 69.0412C92.1615 73.5393 85.7695 79.9906 81.2714 88.3949C76.7732 96.7993 74.5242 106.802 74.5242 118.402H1.54834C1.54834 94.6094 6.93423 73.9537 17.706 56.4347C28.4778 38.9158 43.5701 25.3623 62.983 15.7742C82.3959 6.18612 104.768 1.39209 130.099 1.39209C156.141 1.39209 178.809 6.00857 198.104 15.2415C217.517 24.3561 232.609 37.0218 243.381 53.2387C254.153 69.4555 259.538 88.0398 259.538 108.992C259.538 122.723 256.816 136.276 251.371 149.652C246.044 163.028 236.515 177.884 222.784 194.219C209.053 210.436 189.699 229.908 164.723 252.635L111.634 304.659V307.145H264.332V370H5.09948Z" fill="white" fill-opacity="0.7"/>
<path d="M462.619 377.99C432.079 377.872 405.801 370.355 383.784 355.44C361.885 340.526 345.017 318.923 333.18 290.632C321.461 262.341 315.661 228.31 315.78 188.537C315.78 148.883 321.639 115.088 333.358 87.152C345.195 59.2164 362.063 37.9688 383.961 23.4092C405.978 8.73111 432.198 1.39209 462.619 1.39209C493.04 1.39209 519.2 8.73111 541.099 23.4092C563.116 38.0872 580.043 59.394 591.88 87.3296C603.717 115.147 609.577 148.883 609.458 188.537C609.458 228.428 603.54 262.519 591.703 290.81C579.984 319.1 563.175 340.703 541.277 355.618C519.378 370.533 493.159 377.99 462.619 377.99ZM462.619 314.247C483.452 314.247 500.084 303.771 512.512 282.82C524.941 261.868 531.097 230.44 530.978 188.537C530.978 160.956 528.138 137.992 522.456 119.645C516.892 101.297 508.961 87.5071 498.663 78.2742C488.483 69.0412 476.468 64.4248 462.619 64.4248C441.904 64.4248 425.332 74.7823 412.903 95.4972C400.474 116.212 394.2 147.225 394.082 188.537C394.082 216.473 396.864 239.792 402.427 258.494C408.109 277.079 416.099 291.046 426.397 300.398C436.696 309.631 448.77 314.247 462.619 314.247Z" fill="white" fill-opacity="0.7"/>
<path d="M664.279 370V314.602L793.718 194.751C804.727 184.098 813.96 174.51 821.417 165.987C828.993 157.465 834.734 149.119 838.64 140.952C842.546 132.666 844.499 123.729 844.499 114.141C844.499 103.487 842.073 94.3135 837.219 86.6194C832.366 78.8069 825.737 72.8291 817.333 68.6861C808.929 64.4248 799.4 62.2941 788.747 62.2941C777.62 62.2941 767.913 64.5431 759.627 69.0412C751.341 73.5393 744.949 79.9906 740.451 88.3949C735.953 96.7993 733.704 106.802 733.704 118.402H660.728C660.728 94.6094 666.114 73.9537 676.886 56.4347C687.657 38.9158 702.75 25.3623 722.163 15.7742C741.576 6.18612 763.948 1.39209 789.279 1.39209C815.321 1.39209 837.989 6.00857 857.283 15.2415C876.696 24.3561 891.789 37.0218 902.56 53.2387C913.332 69.4555 918.718 88.0398 918.718 108.992C918.718 122.723 915.996 136.276 910.55 149.652C905.224 163.028 895.695 177.884 881.964 194.219C868.233 210.436 848.879 229.908 823.903 252.635L770.813 304.659V307.145H923.512V370H664.279Z" fill="white" fill-opacity="0.7"/>
<path d="M1137.42 6.36368V370H1060.54V79.3395H1058.41L975.137 131.541V63.3594L1065.16 6.36368H1137.42Z" fill="white" fill-opacity="0.7"/>
<path d="M4.59948 370V370.5H5.09948H264.332H264.832V370V307.145V306.645H264.332H112.134V304.869L165.06 253.005C165.062 253.003 165.064 253.001 165.066 252.999C190.047 230.267 209.416 210.781 223.166 194.542L223.167 194.541C236.917 178.183 246.481 163.282 251.834 149.84C257.302 136.407 260.038 122.79 260.038 108.992C260.038 87.9492 254.628 69.2672 243.797 52.962C232.97 36.6618 217.804 23.9391 198.318 14.7897C178.943 5.51881 156.199 0.89209 130.099 0.89209C104.704 0.89209 82.2541 5.69849 62.7616 15.3259C43.269 24.9533 28.1038 38.5694 17.2801 56.1728C6.45268 73.7822 1.04834 94.5317 1.04834 118.402V118.902H1.54834H74.5242H75.0242V118.402C75.0242 106.866 77.2605 96.9485 81.7122 88.6309C86.1647 80.3116 92.4869 73.9316 100.686 69.4807C108.887 65.0289 118.508 62.7941 129.567 62.7941C140.152 62.7941 149.602 64.9106 157.927 69.1321L157.932 69.1346C166.255 73.2371 172.812 79.1516 177.615 86.8832L177.617 86.8861C182.412 94.4875 184.82 103.565 184.82 114.141C184.82 123.658 182.882 132.521 179.009 140.737C175.127 148.852 169.416 157.159 161.864 165.655L161.861 165.658C154.416 174.166 145.195 183.743 134.195 194.388C134.193 194.39 134.192 194.391 134.191 194.392L4.75977 314.235L4.59948 314.384V314.602V370ZM462.617 378.49H462.619C493.243 378.49 519.564 371.011 541.558 356.031C563.549 341.054 580.414 319.368 592.164 291.003C604.033 262.636 609.958 228.476 609.958 188.538C610.077 148.837 604.211 115.03 592.341 87.1345C580.471 59.1227 563.487 37.7333 541.377 22.9935C519.384 8.25233 493.124 0.89209 462.619 0.89209C432.114 0.89209 405.795 8.25241 383.684 22.993C361.692 37.6148 344.766 58.9455 332.897 86.957L332.897 86.9586C321.146 114.971 315.28 148.835 315.28 188.535C315.161 228.356 320.968 262.456 332.718 290.824L332.719 290.825C344.587 319.191 361.512 340.876 383.502 355.854L383.503 355.854C405.614 370.833 431.993 378.371 462.617 378.49ZM530.478 188.537V188.538C530.597 230.409 524.443 261.728 512.082 282.565C499.725 303.395 483.243 313.747 462.619 313.747C448.893 313.747 436.938 309.176 426.731 300.026C416.522 290.754 408.571 276.879 402.906 258.35C397.361 239.71 394.582 216.443 394.582 188.538C394.7 147.261 400.972 116.355 413.332 95.7545C425.688 75.1605 442.112 64.9248 462.619 64.9248C476.345 64.9248 488.24 69.4957 498.327 78.6446L498.329 78.6465C508.538 87.7992 516.43 101.498 521.977 119.79L521.978 119.793C527.64 138.077 530.478 160.987 530.478 188.537ZM663.779 370V370.5H664.279H923.512H924.012V370V307.145V306.645H923.512H771.313V304.869L824.239 253.005C824.242 253.003 824.244 253 824.247 252.998C849.227 230.266 868.596 210.78 882.345 194.542L882.347 194.541C896.097 178.182 905.661 163.28 911.015 149.837C916.482 136.406 919.218 122.789 919.218 108.992C919.218 87.9492 913.807 69.2672 902.977 52.962C892.149 36.6614 876.983 23.9383 857.496 14.7889C838.122 5.51851 815.378 0.89209 789.279 0.89209C763.884 0.89209 741.434 5.69849 721.941 15.3259C702.449 24.9533 687.283 38.5694 676.46 56.1728C665.632 73.7822 660.228 94.5317 660.228 118.402V118.902H660.728H733.704H734.204V118.402C734.204 106.866 736.44 96.9485 740.892 88.6309C745.344 80.3116 751.667 73.9316 759.866 69.4807C768.066 65.0289 777.688 62.7941 788.747 62.7941C799.332 62.7941 808.781 64.9106 817.107 69.1321L817.112 69.1346C825.434 73.2371 831.992 79.1516 836.795 86.8832L836.797 86.8861C841.591 94.4875 843.999 103.565 843.999 114.141C843.999 123.659 842.061 132.522 838.188 140.739C834.306 148.854 828.595 157.16 821.043 165.655L821.041 165.658C813.596 174.166 804.375 183.743 793.375 194.388C793.373 194.389 793.372 194.391 793.37 194.392L663.939 314.235L663.779 314.384V314.602V370ZM1137.92 6.36368V5.86368H1137.42H1065.16H1065.01L1064.89 5.94124L974.869 62.937L974.637 63.0842V63.3594V131.541V132.445L975.402 131.965L1058.55 79.8395H1060.04V370V370.5H1060.54H1137.42H1137.92V370V6.36368Z" stroke="#9796A5" stroke-opacity="0.35"/>
</svg>
