<svg width="1240" height="379" viewBox="0 0 1240 379" fill="none" xmlns="http://www.w3.org/2000/svg">
<mask id="path-1-outside-1_218_42" maskUnits="userSpaceOnUse" x="0.39209" y="0.39209" width="1239" height="379" fill="black">
<rect fill="white" x="0.39209" y="0.39209" width="1239" height="379"/>
<path d="M4.94323 370V314.602L134.382 194.751C145.391 184.098 154.624 174.51 162.081 165.987C169.657 157.465 175.398 149.119 179.304 140.952C183.21 132.666 185.163 123.729 185.163 114.141C185.163 103.487 182.737 94.3135 177.884 86.6194C173.03 78.8069 166.402 72.8291 157.997 68.6861C149.593 64.4248 140.064 62.2941 129.411 62.2941C118.284 62.2941 108.577 64.5431 100.291 69.0412C92.0053 73.5393 85.6132 79.9906 81.1151 88.3949C76.617 96.7993 74.3679 106.802 74.3679 118.402H1.39209C1.39209 94.6094 6.77798 73.9537 17.5498 56.4347C28.3215 38.9158 43.4139 25.3623 62.8268 15.7742C82.2396 6.18612 104.612 1.39209 129.943 1.39209C155.985 1.39209 178.653 6.00857 197.947 15.2415C217.36 24.3561 232.453 37.0218 243.224 53.2387C253.996 69.4555 259.382 88.0398 259.382 108.992C259.382 122.723 256.66 136.276 251.215 149.652C245.888 163.028 236.359 177.884 222.628 194.219C208.897 210.436 189.543 229.908 164.567 252.635L111.477 304.659V307.145H264.176V370H4.94323Z"/>
<path d="M462.463 377.99C431.923 377.872 405.645 370.355 383.628 355.44C361.729 340.526 344.861 318.923 333.024 290.632C321.305 262.341 315.505 228.31 315.623 188.537C315.623 148.883 321.483 115.088 333.201 87.152C345.039 59.2164 361.906 37.9688 383.805 23.4092C405.822 8.73111 432.041 1.39209 462.463 1.39209C492.884 1.39209 519.044 8.73111 540.943 23.4092C562.96 38.0872 579.887 59.394 591.724 87.3296C603.561 115.147 609.421 148.883 609.302 188.537C609.302 228.428 603.384 262.519 591.547 290.81C579.828 319.1 563.019 340.703 541.12 355.618C519.222 370.533 493.003 377.99 462.463 377.99ZM462.463 314.247C483.296 314.247 499.927 303.771 512.356 282.82C524.785 261.868 530.941 230.44 530.822 188.537C530.822 160.956 527.981 137.992 522.299 119.645C516.736 101.297 508.805 87.5071 498.507 78.2742C488.327 69.0412 476.312 64.4248 462.463 64.4248C441.748 64.4248 425.176 74.7823 412.747 95.4972C400.318 116.212 394.044 147.225 393.926 188.537C393.926 216.473 396.708 239.792 402.271 258.494C407.953 277.079 415.943 291.046 426.241 300.398C436.539 309.631 448.613 314.247 462.463 314.247Z"/>
<path d="M664.123 370V314.602L793.562 194.751C804.57 184.098 813.803 174.51 821.261 165.987C828.836 157.465 834.577 149.119 838.484 140.952C842.39 132.666 844.343 123.729 844.343 114.141C844.343 103.487 841.916 94.3135 837.063 86.6194C832.21 78.8069 825.581 72.8291 817.177 68.6861C808.773 64.4248 799.244 62.2941 788.59 62.2941C777.463 62.2941 767.757 64.5431 759.471 69.0412C751.185 73.5393 744.793 79.9906 740.295 88.3949C735.797 96.7993 733.548 106.802 733.548 118.402H660.572C660.572 94.6094 665.958 73.9537 676.729 56.4347C687.501 38.9158 702.594 25.3623 722.006 15.7742C741.419 6.18612 763.791 1.39209 789.123 1.39209C815.165 1.39209 837.833 6.00857 857.127 15.2415C876.54 24.3561 891.632 37.0218 902.404 53.2387C913.176 69.4555 918.562 88.0398 918.562 108.992C918.562 122.723 915.839 136.276 910.394 149.652C905.068 163.028 895.539 177.884 881.808 194.219C868.076 210.436 848.723 229.908 823.747 252.635L770.657 304.659V307.145H923.356V370H664.123Z"/>
<path d="M979.064 370V314.602L1108.5 194.751C1119.51 184.098 1128.74 174.51 1136.2 165.987C1143.78 157.465 1149.52 149.119 1153.43 140.952C1157.33 132.666 1159.28 123.729 1159.28 114.141C1159.28 103.487 1156.86 94.3135 1152 86.6194C1147.15 78.8069 1140.52 72.8291 1132.12 68.6861C1123.71 64.4248 1114.19 62.2941 1103.53 62.2941C1092.4 62.2941 1082.7 64.5431 1074.41 69.0412C1066.13 73.5393 1059.73 79.9906 1055.24 88.3949C1050.74 96.7993 1048.49 106.802 1048.49 118.402H975.513C975.513 94.6094 980.899 73.9537 991.671 56.4347C1002.44 38.9158 1017.53 25.3623 1036.95 15.7742C1056.36 6.18612 1078.73 1.39209 1104.06 1.39209C1130.11 1.39209 1152.77 6.00857 1172.07 15.2415C1191.48 24.3561 1206.57 37.0218 1217.35 53.2387C1228.12 69.4555 1233.5 88.0398 1233.5 108.992C1233.5 122.723 1230.78 136.276 1225.34 149.652C1220.01 163.028 1210.48 177.884 1196.75 194.219C1183.02 210.436 1163.66 229.908 1138.69 252.635L1085.6 304.659V307.145H1238.3V370H979.064Z"/>
</mask>
<path d="M4.94323 370V314.602L134.382 194.751C145.391 184.098 154.624 174.51 162.081 165.987C169.657 157.465 175.398 149.119 179.304 140.952C183.21 132.666 185.163 123.729 185.163 114.141C185.163 103.487 182.737 94.3135 177.884 86.6194C173.03 78.8069 166.402 72.8291 157.997 68.6861C149.593 64.4248 140.064 62.2941 129.411 62.2941C118.284 62.2941 108.577 64.5431 100.291 69.0412C92.0053 73.5393 85.6132 79.9906 81.1151 88.3949C76.617 96.7993 74.3679 106.802 74.3679 118.402H1.39209C1.39209 94.6094 6.77798 73.9537 17.5498 56.4347C28.3215 38.9158 43.4139 25.3623 62.8268 15.7742C82.2396 6.18612 104.612 1.39209 129.943 1.39209C155.985 1.39209 178.653 6.00857 197.947 15.2415C217.36 24.3561 232.453 37.0218 243.224 53.2387C253.996 69.4555 259.382 88.0398 259.382 108.992C259.382 122.723 256.66 136.276 251.215 149.652C245.888 163.028 236.359 177.884 222.628 194.219C208.897 210.436 189.543 229.908 164.567 252.635L111.477 304.659V307.145H264.176V370H4.94323Z" fill="white" fill-opacity="0.6"/>
<path d="M462.463 377.99C431.923 377.872 405.645 370.355 383.628 355.44C361.729 340.526 344.861 318.923 333.024 290.632C321.305 262.341 315.505 228.31 315.623 188.537C315.623 148.883 321.483 115.088 333.201 87.152C345.039 59.2164 361.906 37.9688 383.805 23.4092C405.822 8.73111 432.041 1.39209 462.463 1.39209C492.884 1.39209 519.044 8.73111 540.943 23.4092C562.96 38.0872 579.887 59.394 591.724 87.3296C603.561 115.147 609.421 148.883 609.302 188.537C609.302 228.428 603.384 262.519 591.547 290.81C579.828 319.1 563.019 340.703 541.12 355.618C519.222 370.533 493.003 377.99 462.463 377.99ZM462.463 314.247C483.296 314.247 499.927 303.771 512.356 282.82C524.785 261.868 530.941 230.44 530.822 188.537C530.822 160.956 527.981 137.992 522.299 119.645C516.736 101.297 508.805 87.5071 498.507 78.2742C488.327 69.0412 476.312 64.4248 462.463 64.4248C441.748 64.4248 425.176 74.7823 412.747 95.4972C400.318 116.212 394.044 147.225 393.926 188.537C393.926 216.473 396.708 239.792 402.271 258.494C407.953 277.079 415.943 291.046 426.241 300.398C436.539 309.631 448.613 314.247 462.463 314.247Z" fill="white" fill-opacity="0.6"/>
<path d="M664.123 370V314.602L793.562 194.751C804.57 184.098 813.803 174.51 821.261 165.987C828.836 157.465 834.577 149.119 838.484 140.952C842.39 132.666 844.343 123.729 844.343 114.141C844.343 103.487 841.916 94.3135 837.063 86.6194C832.21 78.8069 825.581 72.8291 817.177 68.6861C808.773 64.4248 799.244 62.2941 788.59 62.2941C777.463 62.2941 767.757 64.5431 759.471 69.0412C751.185 73.5393 744.793 79.9906 740.295 88.3949C735.797 96.7993 733.548 106.802 733.548 118.402H660.572C660.572 94.6094 665.958 73.9537 676.729 56.4347C687.501 38.9158 702.594 25.3623 722.006 15.7742C741.419 6.18612 763.791 1.39209 789.123 1.39209C815.165 1.39209 837.833 6.00857 857.127 15.2415C876.54 24.3561 891.632 37.0218 902.404 53.2387C913.176 69.4555 918.562 88.0398 918.562 108.992C918.562 122.723 915.839 136.276 910.394 149.652C905.068 163.028 895.539 177.884 881.808 194.219C868.076 210.436 848.723 229.908 823.747 252.635L770.657 304.659V307.145H923.356V370H664.123Z" fill="white" fill-opacity="0.6"/>
<path d="M979.064 370V314.602L1108.5 194.751C1119.51 184.098 1128.74 174.51 1136.2 165.987C1143.78 157.465 1149.52 149.119 1153.43 140.952C1157.33 132.666 1159.28 123.729 1159.28 114.141C1159.28 103.487 1156.86 94.3135 1152 86.6194C1147.15 78.8069 1140.52 72.8291 1132.12 68.6861C1123.71 64.4248 1114.19 62.2941 1103.53 62.2941C1092.4 62.2941 1082.7 64.5431 1074.41 69.0412C1066.13 73.5393 1059.73 79.9906 1055.24 88.3949C1050.74 96.7993 1048.49 106.802 1048.49 118.402H975.513C975.513 94.6094 980.899 73.9537 991.671 56.4347C1002.44 38.9158 1017.53 25.3623 1036.95 15.7742C1056.36 6.18612 1078.73 1.39209 1104.06 1.39209C1130.11 1.39209 1152.77 6.00857 1172.07 15.2415C1191.48 24.3561 1206.57 37.0218 1217.35 53.2387C1228.12 69.4555 1233.5 88.0398 1233.5 108.992C1233.5 122.723 1230.78 136.276 1225.34 149.652C1220.01 163.028 1210.48 177.884 1196.75 194.219C1183.02 210.436 1163.66 229.908 1138.69 252.635L1085.6 304.659V307.145H1238.3V370H979.064Z" fill="white" fill-opacity="0.6"/>
<path d="M4.94323 370V314.602L134.382 194.751C145.391 184.098 154.624 174.51 162.081 165.987C169.657 157.465 175.398 149.119 179.304 140.952C183.21 132.666 185.163 123.729 185.163 114.141C185.163 103.487 182.737 94.3135 177.884 86.6194C173.03 78.8069 166.402 72.8291 157.997 68.6861C149.593 64.4248 140.064 62.2941 129.411 62.2941C118.284 62.2941 108.577 64.5431 100.291 69.0412C92.0053 73.5393 85.6132 79.9906 81.1151 88.3949C76.617 96.7993 74.3679 106.802 74.3679 118.402H1.39209C1.39209 94.6094 6.77798 73.9537 17.5498 56.4347C28.3215 38.9158 43.4139 25.3623 62.8268 15.7742C82.2396 6.18612 104.612 1.39209 129.943 1.39209C155.985 1.39209 178.653 6.00857 197.947 15.2415C217.36 24.3561 232.453 37.0218 243.224 53.2387C253.996 69.4555 259.382 88.0398 259.382 108.992C259.382 122.723 256.66 136.276 251.215 149.652C245.888 163.028 236.359 177.884 222.628 194.219C208.897 210.436 189.543 229.908 164.567 252.635L111.477 304.659V307.145H264.176V370H4.94323Z" stroke="#9796A5" stroke-opacity="0.15" stroke-width="2" mask="url(#path-1-outside-1_218_42)"/>
<path d="M462.463 377.99C431.923 377.872 405.645 370.355 383.628 355.44C361.729 340.526 344.861 318.923 333.024 290.632C321.305 262.341 315.505 228.31 315.623 188.537C315.623 148.883 321.483 115.088 333.201 87.152C345.039 59.2164 361.906 37.9688 383.805 23.4092C405.822 8.73111 432.041 1.39209 462.463 1.39209C492.884 1.39209 519.044 8.73111 540.943 23.4092C562.96 38.0872 579.887 59.394 591.724 87.3296C603.561 115.147 609.421 148.883 609.302 188.537C609.302 228.428 603.384 262.519 591.547 290.81C579.828 319.1 563.019 340.703 541.12 355.618C519.222 370.533 493.003 377.99 462.463 377.99ZM462.463 314.247C483.296 314.247 499.927 303.771 512.356 282.82C524.785 261.868 530.941 230.44 530.822 188.537C530.822 160.956 527.981 137.992 522.299 119.645C516.736 101.297 508.805 87.5071 498.507 78.2742C488.327 69.0412 476.312 64.4248 462.463 64.4248C441.748 64.4248 425.176 74.7823 412.747 95.4972C400.318 116.212 394.044 147.225 393.926 188.537C393.926 216.473 396.708 239.792 402.271 258.494C407.953 277.079 415.943 291.046 426.241 300.398C436.539 309.631 448.613 314.247 462.463 314.247Z" stroke="#9796A5" stroke-opacity="0.15" stroke-width="2" mask="url(#path-1-outside-1_218_42)"/>
<path d="M664.123 370V314.602L793.562 194.751C804.57 184.098 813.803 174.51 821.261 165.987C828.836 157.465 834.577 149.119 838.484 140.952C842.39 132.666 844.343 123.729 844.343 114.141C844.343 103.487 841.916 94.3135 837.063 86.6194C832.21 78.8069 825.581 72.8291 817.177 68.6861C808.773 64.4248 799.244 62.2941 788.59 62.2941C777.463 62.2941 767.757 64.5431 759.471 69.0412C751.185 73.5393 744.793 79.9906 740.295 88.3949C735.797 96.7993 733.548 106.802 733.548 118.402H660.572C660.572 94.6094 665.958 73.9537 676.729 56.4347C687.501 38.9158 702.594 25.3623 722.006 15.7742C741.419 6.18612 763.791 1.39209 789.123 1.39209C815.165 1.39209 837.833 6.00857 857.127 15.2415C876.54 24.3561 891.632 37.0218 902.404 53.2387C913.176 69.4555 918.562 88.0398 918.562 108.992C918.562 122.723 915.839 136.276 910.394 149.652C905.068 163.028 895.539 177.884 881.808 194.219C868.076 210.436 848.723 229.908 823.747 252.635L770.657 304.659V307.145H923.356V370H664.123Z" stroke="#9796A5" stroke-opacity="0.15" stroke-width="2" mask="url(#path-1-outside-1_218_42)"/>
<path d="M979.064 370V314.602L1108.5 194.751C1119.51 184.098 1128.74 174.51 1136.2 165.987C1143.78 157.465 1149.52 149.119 1153.43 140.952C1157.33 132.666 1159.28 123.729 1159.28 114.141C1159.28 103.487 1156.86 94.3135 1152 86.6194C1147.15 78.8069 1140.52 72.8291 1132.12 68.6861C1123.71 64.4248 1114.19 62.2941 1103.53 62.2941C1092.4 62.2941 1082.7 64.5431 1074.41 69.0412C1066.13 73.5393 1059.73 79.9906 1055.24 88.3949C1050.74 96.7993 1048.49 106.802 1048.49 118.402H975.513C975.513 94.6094 980.899 73.9537 991.671 56.4347C1002.44 38.9158 1017.53 25.3623 1036.95 15.7742C1056.36 6.18612 1078.73 1.39209 1104.06 1.39209C1130.11 1.39209 1152.77 6.00857 1172.07 15.2415C1191.48 24.3561 1206.57 37.0218 1217.35 53.2387C1228.12 69.4555 1233.5 88.0398 1233.5 108.992C1233.5 122.723 1230.78 136.276 1225.34 149.652C1220.01 163.028 1210.48 177.884 1196.75 194.219C1183.02 210.436 1163.66 229.908 1138.69 252.635L1085.6 304.659V307.145H1238.3V370H979.064Z" stroke="#9796A5" stroke-opacity="0.15" stroke-width="2" mask="url(#path-1-outside-1_218_42)"/>
</svg>
