<svg width="1255" height="379" viewBox="0 0 1255 379" fill="none" xmlns="http://www.w3.org/2000/svg">
<mask id="path-1-outside-1_218_43" maskUnits="userSpaceOnUse" x="0.0678711" y="0.39209" width="1254" height="379" fill="black">
<rect fill="white" x="0.0678711" y="0.39209" width="1254" height="379"/>
<path d="M4.61901 370V314.602L134.058 194.751C145.066 184.098 154.299 174.51 161.757 165.987C169.333 157.465 175.074 149.119 178.98 140.952C182.886 132.666 184.839 123.729 184.839 114.141C184.839 103.487 182.413 94.3135 177.559 86.6194C172.706 78.8069 166.077 72.8291 157.673 68.6861C149.269 64.4248 139.74 62.2941 129.086 62.2941C117.959 62.2941 108.253 64.5431 99.967 69.0412C91.681 73.5393 85.289 79.9906 80.7909 88.3949C76.2928 96.7993 74.0437 106.802 74.0437 118.402H1.06787C1.06787 94.6094 6.45376 73.9537 17.2255 56.4347C27.9973 38.9158 43.0897 25.3623 62.5025 15.7742C81.9154 6.18612 104.288 1.39209 129.619 1.39209C155.661 1.39209 178.329 6.00857 197.623 15.2415C217.036 24.3561 232.128 37.0218 242.9 53.2387C253.672 69.4555 259.058 88.0398 259.058 108.992C259.058 122.723 256.335 136.276 250.89 149.652C245.564 163.028 236.035 177.884 222.304 194.219C208.573 210.436 189.219 229.908 164.243 252.635L111.153 304.659V307.145H263.852V370H4.61901Z"/>
<path d="M462.139 377.99C431.599 377.872 405.32 370.355 383.303 355.44C361.405 340.526 344.537 318.923 332.7 290.632C320.981 262.341 315.181 228.31 315.299 188.537C315.299 148.883 321.158 115.088 332.877 87.152C344.714 59.2164 361.582 37.9688 383.481 23.4092C405.498 8.73111 431.717 1.39209 462.139 1.39209C492.56 1.39209 518.72 8.73111 540.619 23.4092C562.636 38.0872 579.563 59.394 591.4 87.3296C603.237 115.147 609.096 148.883 608.978 188.537C608.978 228.428 603.059 262.519 591.222 290.81C579.504 319.1 562.695 340.703 540.796 355.618C518.898 370.533 492.678 377.99 462.139 377.99ZM462.139 314.247C482.972 314.247 499.603 303.771 512.032 282.82C524.461 261.868 530.616 230.44 530.498 188.537C530.498 160.956 527.657 137.992 521.975 119.645C516.412 101.297 508.481 87.5071 498.183 78.2742C488.003 69.0412 475.988 64.4248 462.139 64.4248C441.424 64.4248 424.852 74.7823 412.423 95.4972C399.994 116.212 393.72 147.225 393.602 188.537C393.602 216.473 396.383 239.792 401.947 258.494C407.629 277.079 415.619 291.046 425.917 300.398C436.215 309.631 448.289 314.247 462.139 314.247Z"/>
<path d="M663.799 370V314.602L793.238 194.751C804.246 184.098 813.479 174.51 820.936 165.987C828.512 157.465 834.253 149.119 838.159 140.952C842.066 132.666 844.019 123.729 844.019 114.141C844.019 103.487 841.592 94.3135 836.739 86.6194C831.886 78.8069 825.257 72.8291 816.853 68.6861C808.448 64.4248 798.919 62.2941 788.266 62.2941C777.139 62.2941 767.433 64.5431 759.147 69.0412C750.861 73.5393 744.469 79.9906 739.971 88.3949C735.472 96.7993 733.223 106.802 733.223 118.402H660.248C660.248 94.6094 665.633 73.9537 676.405 56.4347C687.177 38.9158 702.269 25.3623 721.682 15.7742C741.095 6.18612 763.467 1.39209 788.799 1.39209C814.84 1.39209 837.508 6.00857 856.803 15.2415C876.216 24.3561 891.308 37.0218 902.08 53.2387C912.852 69.4555 918.238 88.0398 918.238 108.992C918.238 122.723 915.515 136.276 910.07 149.652C904.743 163.028 895.214 177.884 881.483 194.219C867.752 210.436 848.399 229.908 823.422 252.635L770.333 304.659V307.145H923.032V370H663.799Z"/>
<path d="M1113.15 374.972C1086.64 374.972 1063.02 370.414 1042.31 361.3C1021.71 352.067 1005.43 339.401 993.477 323.303C981.64 307.086 975.544 288.383 975.189 267.195H1052.6C1053.08 276.073 1055.98 283.885 1061.3 290.632C1066.75 297.261 1073.97 302.41 1082.97 306.08C1091.96 309.749 1102.08 311.584 1113.33 311.584C1125.05 311.584 1135.4 309.512 1144.4 305.369C1153.4 301.226 1160.44 295.485 1165.53 288.146C1170.62 280.807 1173.16 272.344 1173.16 262.756C1173.16 253.049 1170.44 244.467 1165 237.01C1159.67 229.434 1151.98 223.516 1141.91 219.254C1131.97 214.993 1120.13 212.862 1106.4 212.862H1072.49V156.399H1106.4C1118 156.399 1128.24 154.387 1137.12 150.362C1146.12 146.338 1153.1 140.774 1158.07 133.672C1163.04 126.451 1165.53 118.047 1165.53 108.459C1165.53 99.3443 1163.34 91.3542 1158.96 84.4887C1154.7 77.5048 1148.66 72.0597 1140.85 68.1535C1133.16 64.2472 1124.16 62.2941 1113.86 62.2941C1103.44 62.2941 1093.92 64.188 1085.27 67.9759C1076.63 71.6454 1069.71 76.9129 1064.5 83.7785C1059.29 90.644 1056.51 98.6932 1056.15 107.926H982.469C982.824 86.9745 988.802 68.5086 1000.4 52.5285C1012 36.5483 1027.63 24.0602 1047.28 15.064C1067.04 5.94938 1089.36 1.39209 1114.22 1.39209C1139.31 1.39209 1161.27 5.94938 1180.09 15.064C1198.91 24.1785 1213.53 36.4892 1223.95 51.9958C1234.48 67.384 1239.69 84.6662 1239.57 103.842C1239.69 124.202 1233.36 141.188 1220.57 154.801C1207.91 168.414 1191.39 177.055 1171.03 180.724V183.565C1197.79 186.998 1218.15 196.29 1232.11 211.442C1246.2 226.475 1253.18 245.296 1253.07 267.905C1253.18 288.62 1247.21 307.027 1235.13 323.125C1223.18 339.224 1206.66 351.889 1185.59 361.122C1164.52 370.355 1140.38 374.972 1113.15 374.972Z"/>
</mask>
<path d="M4.61901 370V314.602L134.058 194.751C145.066 184.098 154.299 174.51 161.757 165.987C169.333 157.465 175.074 149.119 178.98 140.952C182.886 132.666 184.839 123.729 184.839 114.141C184.839 103.487 182.413 94.3135 177.559 86.6194C172.706 78.8069 166.077 72.8291 157.673 68.6861C149.269 64.4248 139.74 62.2941 129.086 62.2941C117.959 62.2941 108.253 64.5431 99.967 69.0412C91.681 73.5393 85.289 79.9906 80.7909 88.3949C76.2928 96.7993 74.0437 106.802 74.0437 118.402H1.06787C1.06787 94.6094 6.45376 73.9537 17.2255 56.4347C27.9973 38.9158 43.0897 25.3623 62.5025 15.7742C81.9154 6.18612 104.288 1.39209 129.619 1.39209C155.661 1.39209 178.329 6.00857 197.623 15.2415C217.036 24.3561 232.128 37.0218 242.9 53.2387C253.672 69.4555 259.058 88.0398 259.058 108.992C259.058 122.723 256.335 136.276 250.89 149.652C245.564 163.028 236.035 177.884 222.304 194.219C208.573 210.436 189.219 229.908 164.243 252.635L111.153 304.659V307.145H263.852V370H4.61901Z" fill="white" fill-opacity="0.6"/>
<path d="M462.139 377.99C431.599 377.872 405.32 370.355 383.303 355.44C361.405 340.526 344.537 318.923 332.7 290.632C320.981 262.341 315.181 228.31 315.299 188.537C315.299 148.883 321.158 115.088 332.877 87.152C344.714 59.2164 361.582 37.9688 383.481 23.4092C405.498 8.73111 431.717 1.39209 462.139 1.39209C492.56 1.39209 518.72 8.73111 540.619 23.4092C562.636 38.0872 579.563 59.394 591.4 87.3296C603.237 115.147 609.096 148.883 608.978 188.537C608.978 228.428 603.059 262.519 591.222 290.81C579.504 319.1 562.695 340.703 540.796 355.618C518.898 370.533 492.678 377.99 462.139 377.99ZM462.139 314.247C482.972 314.247 499.603 303.771 512.032 282.82C524.461 261.868 530.616 230.44 530.498 188.537C530.498 160.956 527.657 137.992 521.975 119.645C516.412 101.297 508.481 87.5071 498.183 78.2742C488.003 69.0412 475.988 64.4248 462.139 64.4248C441.424 64.4248 424.852 74.7823 412.423 95.4972C399.994 116.212 393.72 147.225 393.602 188.537C393.602 216.473 396.383 239.792 401.947 258.494C407.629 277.079 415.619 291.046 425.917 300.398C436.215 309.631 448.289 314.247 462.139 314.247Z" fill="white" fill-opacity="0.6"/>
<path d="M663.799 370V314.602L793.238 194.751C804.246 184.098 813.479 174.51 820.936 165.987C828.512 157.465 834.253 149.119 838.159 140.952C842.066 132.666 844.019 123.729 844.019 114.141C844.019 103.487 841.592 94.3135 836.739 86.6194C831.886 78.8069 825.257 72.8291 816.853 68.6861C808.448 64.4248 798.919 62.2941 788.266 62.2941C777.139 62.2941 767.433 64.5431 759.147 69.0412C750.861 73.5393 744.469 79.9906 739.971 88.3949C735.472 96.7993 733.223 106.802 733.223 118.402H660.248C660.248 94.6094 665.633 73.9537 676.405 56.4347C687.177 38.9158 702.269 25.3623 721.682 15.7742C741.095 6.18612 763.467 1.39209 788.799 1.39209C814.84 1.39209 837.508 6.00857 856.803 15.2415C876.216 24.3561 891.308 37.0218 902.08 53.2387C912.852 69.4555 918.238 88.0398 918.238 108.992C918.238 122.723 915.515 136.276 910.07 149.652C904.743 163.028 895.214 177.884 881.483 194.219C867.752 210.436 848.399 229.908 823.422 252.635L770.333 304.659V307.145H923.032V370H663.799Z" fill="white" fill-opacity="0.6"/>
<path d="M1113.15 374.972C1086.64 374.972 1063.02 370.414 1042.31 361.3C1021.71 352.067 1005.43 339.401 993.477 323.303C981.64 307.086 975.544 288.383 975.189 267.195H1052.6C1053.08 276.073 1055.98 283.885 1061.3 290.632C1066.75 297.261 1073.97 302.41 1082.97 306.08C1091.96 309.749 1102.08 311.584 1113.33 311.584C1125.05 311.584 1135.4 309.512 1144.4 305.369C1153.4 301.226 1160.44 295.485 1165.53 288.146C1170.62 280.807 1173.16 272.344 1173.16 262.756C1173.16 253.049 1170.44 244.467 1165 237.01C1159.67 229.434 1151.98 223.516 1141.91 219.254C1131.97 214.993 1120.13 212.862 1106.4 212.862H1072.49V156.399H1106.4C1118 156.399 1128.24 154.387 1137.12 150.362C1146.12 146.338 1153.1 140.774 1158.07 133.672C1163.04 126.451 1165.53 118.047 1165.53 108.459C1165.53 99.3443 1163.34 91.3542 1158.96 84.4887C1154.7 77.5048 1148.66 72.0597 1140.85 68.1535C1133.16 64.2472 1124.16 62.2941 1113.86 62.2941C1103.44 62.2941 1093.92 64.188 1085.27 67.9759C1076.63 71.6454 1069.71 76.9129 1064.5 83.7785C1059.29 90.644 1056.51 98.6932 1056.15 107.926H982.469C982.824 86.9745 988.802 68.5086 1000.4 52.5285C1012 36.5483 1027.63 24.0602 1047.28 15.064C1067.04 5.94938 1089.36 1.39209 1114.22 1.39209C1139.31 1.39209 1161.27 5.94938 1180.09 15.064C1198.91 24.1785 1213.53 36.4892 1223.95 51.9958C1234.48 67.384 1239.69 84.6662 1239.57 103.842C1239.69 124.202 1233.36 141.188 1220.57 154.801C1207.91 168.414 1191.39 177.055 1171.03 180.724V183.565C1197.79 186.998 1218.15 196.29 1232.11 211.442C1246.2 226.475 1253.18 245.296 1253.07 267.905C1253.18 288.62 1247.21 307.027 1235.13 323.125C1223.18 339.224 1206.66 351.889 1185.59 361.122C1164.52 370.355 1140.38 374.972 1113.15 374.972Z" fill="white" fill-opacity="0.6"/>
<path d="M4.61901 370V314.602L134.058 194.751C145.066 184.098 154.299 174.51 161.757 165.987C169.333 157.465 175.074 149.119 178.98 140.952C182.886 132.666 184.839 123.729 184.839 114.141C184.839 103.487 182.413 94.3135 177.559 86.6194C172.706 78.8069 166.077 72.8291 157.673 68.6861C149.269 64.4248 139.74 62.2941 129.086 62.2941C117.959 62.2941 108.253 64.5431 99.967 69.0412C91.681 73.5393 85.289 79.9906 80.7909 88.3949C76.2928 96.7993 74.0437 106.802 74.0437 118.402H1.06787C1.06787 94.6094 6.45376 73.9537 17.2255 56.4347C27.9973 38.9158 43.0897 25.3623 62.5025 15.7742C81.9154 6.18612 104.288 1.39209 129.619 1.39209C155.661 1.39209 178.329 6.00857 197.623 15.2415C217.036 24.3561 232.128 37.0218 242.9 53.2387C253.672 69.4555 259.058 88.0398 259.058 108.992C259.058 122.723 256.335 136.276 250.89 149.652C245.564 163.028 236.035 177.884 222.304 194.219C208.573 210.436 189.219 229.908 164.243 252.635L111.153 304.659V307.145H263.852V370H4.61901Z" stroke="#9796A5" stroke-opacity="0.15" stroke-width="2" mask="url(#path-1-outside-1_218_43)"/>
<path d="M462.139 377.99C431.599 377.872 405.32 370.355 383.303 355.44C361.405 340.526 344.537 318.923 332.7 290.632C320.981 262.341 315.181 228.31 315.299 188.537C315.299 148.883 321.158 115.088 332.877 87.152C344.714 59.2164 361.582 37.9688 383.481 23.4092C405.498 8.73111 431.717 1.39209 462.139 1.39209C492.56 1.39209 518.72 8.73111 540.619 23.4092C562.636 38.0872 579.563 59.394 591.4 87.3296C603.237 115.147 609.096 148.883 608.978 188.537C608.978 228.428 603.059 262.519 591.222 290.81C579.504 319.1 562.695 340.703 540.796 355.618C518.898 370.533 492.678 377.99 462.139 377.99ZM462.139 314.247C482.972 314.247 499.603 303.771 512.032 282.82C524.461 261.868 530.616 230.44 530.498 188.537C530.498 160.956 527.657 137.992 521.975 119.645C516.412 101.297 508.481 87.5071 498.183 78.2742C488.003 69.0412 475.988 64.4248 462.139 64.4248C441.424 64.4248 424.852 74.7823 412.423 95.4972C399.994 116.212 393.72 147.225 393.602 188.537C393.602 216.473 396.383 239.792 401.947 258.494C407.629 277.079 415.619 291.046 425.917 300.398C436.215 309.631 448.289 314.247 462.139 314.247Z" stroke="#9796A5" stroke-opacity="0.15" stroke-width="2" mask="url(#path-1-outside-1_218_43)"/>
<path d="M663.799 370V314.602L793.238 194.751C804.246 184.098 813.479 174.51 820.936 165.987C828.512 157.465 834.253 149.119 838.159 140.952C842.066 132.666 844.019 123.729 844.019 114.141C844.019 103.487 841.592 94.3135 836.739 86.6194C831.886 78.8069 825.257 72.8291 816.853 68.6861C808.448 64.4248 798.919 62.2941 788.266 62.2941C777.139 62.2941 767.433 64.5431 759.147 69.0412C750.861 73.5393 744.469 79.9906 739.971 88.3949C735.472 96.7993 733.223 106.802 733.223 118.402H660.248C660.248 94.6094 665.633 73.9537 676.405 56.4347C687.177 38.9158 702.269 25.3623 721.682 15.7742C741.095 6.18612 763.467 1.39209 788.799 1.39209C814.84 1.39209 837.508 6.00857 856.803 15.2415C876.216 24.3561 891.308 37.0218 902.08 53.2387C912.852 69.4555 918.238 88.0398 918.238 108.992C918.238 122.723 915.515 136.276 910.07 149.652C904.743 163.028 895.214 177.884 881.483 194.219C867.752 210.436 848.399 229.908 823.422 252.635L770.333 304.659V307.145H923.032V370H663.799Z" stroke="#9796A5" stroke-opacity="0.15" stroke-width="2" mask="url(#path-1-outside-1_218_43)"/>
<path d="M1113.15 374.972C1086.64 374.972 1063.02 370.414 1042.31 361.3C1021.71 352.067 1005.43 339.401 993.477 323.303C981.64 307.086 975.544 288.383 975.189 267.195H1052.6C1053.08 276.073 1055.98 283.885 1061.3 290.632C1066.75 297.261 1073.97 302.41 1082.97 306.08C1091.96 309.749 1102.08 311.584 1113.33 311.584C1125.05 311.584 1135.4 309.512 1144.4 305.369C1153.4 301.226 1160.44 295.485 1165.53 288.146C1170.62 280.807 1173.16 272.344 1173.16 262.756C1173.16 253.049 1170.44 244.467 1165 237.01C1159.67 229.434 1151.98 223.516 1141.91 219.254C1131.97 214.993 1120.13 212.862 1106.4 212.862H1072.49V156.399H1106.4C1118 156.399 1128.24 154.387 1137.12 150.362C1146.12 146.338 1153.1 140.774 1158.07 133.672C1163.04 126.451 1165.53 118.047 1165.53 108.459C1165.53 99.3443 1163.34 91.3542 1158.96 84.4887C1154.7 77.5048 1148.66 72.0597 1140.85 68.1535C1133.16 64.2472 1124.16 62.2941 1113.86 62.2941C1103.44 62.2941 1093.92 64.188 1085.27 67.9759C1076.63 71.6454 1069.71 76.9129 1064.5 83.7785C1059.29 90.644 1056.51 98.6932 1056.15 107.926H982.469C982.824 86.9745 988.802 68.5086 1000.4 52.5285C1012 36.5483 1027.63 24.0602 1047.28 15.064C1067.04 5.94938 1089.36 1.39209 1114.22 1.39209C1139.31 1.39209 1161.27 5.94938 1180.09 15.064C1198.91 24.1785 1213.53 36.4892 1223.95 51.9958C1234.48 67.384 1239.69 84.6662 1239.57 103.842C1239.69 124.202 1233.36 141.188 1220.57 154.801C1207.91 168.414 1191.39 177.055 1171.03 180.724V183.565C1197.79 186.998 1218.15 196.29 1232.11 211.442C1246.2 226.475 1253.18 245.296 1253.07 267.905C1253.18 288.62 1247.21 307.027 1235.13 323.125C1223.18 339.224 1206.66 351.889 1185.59 361.122C1164.52 370.355 1140.38 374.972 1113.15 374.972Z" stroke="#9796A5" stroke-opacity="0.15" stroke-width="2" mask="url(#path-1-outside-1_218_43)"/>
</svg>
