<svg width="198" height="34" viewBox="0 0 198 34" fill="none" xmlns="http://www.w3.org/2000/svg">
<path d="M43.6227 30.1475C46.2552 30.1475 47.6125 28.96 48.143 26.17H45.9364C45.5155 27.605 45.0797 28.275 43.6426 28.275C42.0836 28.275 41.2343 27.125 41.2343 24.9175C41.2343 22.725 42.0761 21.53 43.6202 21.53C44.9925 21.53 45.5006 22.135 45.919 23.49H48.1181C47.6324 20.78 46.1954 19.66 43.6202 19.66C40.6665 19.66 38.8982 21.6325 38.8982 24.9175C38.9007 28.195 40.6565 30.1475 43.6227 30.1475ZM48.9873 29.9275H56.5111V28.07H51.824V28.055L56.541 21.385V19.8775H49.184V21.735H53.7043V21.75L48.9873 28.42V29.9275ZM65.4446 21.7V19.88H58.1175V29.93H65.4446V28.11H60.3665V25.7425H64.4733V24.0375H60.3665V21.7H65.4446ZM71.1429 30.1475C73.7754 30.1475 75.1327 28.96 75.6632 26.17H73.4566C73.0357 27.605 72.5999 28.275 71.1629 28.275C69.6038 28.275 68.7545 27.125 68.7545 24.9175C68.7545 22.725 69.5963 21.53 71.1404 21.53C72.5127 21.53 73.0208 22.135 73.4392 23.49H75.6383C75.1527 20.78 73.7156 19.66 71.1404 19.66C68.1867 19.66 66.4184 21.6325 66.4184 24.9175C66.4209 28.195 68.1767 30.1475 71.1429 30.1475ZM77.2049 29.9275H79.4912V25.7825H83.5756V29.9275H85.8619V19.8775H83.5756V23.9125H79.4912V19.8775H77.2049V29.9275ZM95.3906 30.1475C98.0231 30.1475 99.3804 28.96 99.9109 26.17H97.7043C97.2834 27.605 96.8476 28.275 95.4105 28.275C93.8515 28.275 93.0022 27.125 93.0022 24.9175C93.0022 22.725 93.844 21.53 95.3881 21.53C96.7604 21.53 97.2685 22.135 97.6869 23.49H99.886C99.4004 20.78 97.9633 19.66 95.3881 19.66C92.4344 19.66 90.6661 21.6325 90.6661 24.9175C90.6686 28.195 92.4244 30.1475 95.3906 30.1475ZM108.782 21.7V19.88H101.453V29.93H108.782V28.11H103.704V25.7425H107.811V24.0375H103.704V21.7H108.782ZM110.461 29.9275H112.433V23.445H112.448L117.15 29.9275H119.125V19.8775H117.15V26.345H117.135L112.433 19.8775H110.461V29.9275ZM123.202 29.9275H125.489V21.735H128.412V19.8775H120.278V21.735H123.202V29.9275ZM135.966 26.745C135.682 26.3225 135.443 26.0375 135.094 25.8775C136.683 25.725 137.642 24.5525 137.642 22.9575C137.642 21.0275 136.409 19.8775 134.021 19.8775H129.568V29.9275H131.847V26.155H132.435C133.03 26.155 133.232 26.3225 133.573 26.84L135.617 29.9275H138.106L135.966 26.745ZM131.847 24.48V21.6025H133.633C134.843 21.6025 135.438 22.01 135.438 23.03C135.438 24.0275 134.83 24.48 133.61 24.48H131.847ZM146.89 21.7V19.88H139.562V29.93H146.89V28.11H141.811V25.7425H145.918V24.0375H141.811V21.7H146.89ZM151.709 30.1475C154.212 30.1475 155.699 28.8575 155.699 26.8775C155.699 25.2375 154.625 24.43 152.687 24.08L151.425 23.855C150.359 23.6725 149.953 23.265 149.953 22.64C149.953 21.8675 150.59 21.395 151.622 21.395C152.752 21.395 153.188 21.875 153.472 22.845H155.532C155.126 20.71 153.985 19.6625 151.622 19.6625C149.104 19.6625 147.761 20.9675 147.761 22.8025C147.761 24.4775 148.815 25.3575 150.737 25.715L152.045 25.9625C153.046 26.145 153.502 26.415 153.502 27.0925C153.502 27.9225 152.827 28.4175 151.766 28.4175C150.628 28.4175 150.018 28.0525 149.657 26.9325H147.56C147.921 29.165 149.183 30.1475 151.709 30.1475Z" fill="#D52B1E"/>
<path d="M42.883 2.28502H44.3624L46.3872 0.122517H44.6314L43.68 1.03252H43.665L42.7012 0.122517H40.8582L42.883 2.28502ZM43.6227 13.51C46.2552 13.51 47.6125 12.3225 48.143 9.53252H45.9364C45.5155 10.9675 45.0797 11.6375 43.6426 11.6375C42.0836 11.6375 41.2343 10.4875 41.2343 8.28001C41.2343 6.08751 42.0761 4.89252 43.6202 4.89252C44.9925 4.89252 45.5006 5.49752 45.919 6.85252H48.1181C47.6324 4.14252 46.1954 3.02251 43.6202 3.02251C40.6665 3.02251 38.8982 4.99501 38.8982 8.28001C38.9007 11.5575 40.6565 13.51 43.6227 13.51ZM57.0117 5.06002V3.24002H49.6846V13.29H57.0117V11.47H51.9336V9.10252H56.0404V7.39751H51.9336V5.06002H57.0117ZM61.8334 13.51C64.3364 13.51 65.8232 12.22 65.8232 10.24C65.8232 8.60001 64.7498 7.79251 62.8122 7.44251L61.5495 7.21751C60.4835 7.03501 60.0776 6.62752 60.0776 6.00252C60.0776 5.23002 60.7151 4.75751 61.7462 4.75751C62.8769 4.75751 63.3127 5.23751 63.5967 6.20751H65.6563C65.2504 4.07251 64.1097 3.02502 61.7462 3.02502C59.2283 3.02502 57.8859 4.32752 57.8859 6.16502C57.8859 7.84002 58.9369 8.72001 60.8596 9.07751L62.1646 9.32501C63.1658 9.50751 63.6241 9.77752 63.6241 10.455C63.6241 11.285 62.9491 11.78 61.8907 11.78C60.7525 11.78 60.1423 11.415 59.7787 10.295H57.6817C58.0453 12.525 59.308 13.51 61.8334 13.51ZM75.8376 3.24002H73.3993L69.6984 7.98752H69.6835V3.24002H67.3972V13.29H69.6835V8.33752H69.6984L73.3769 13.29H75.9671L72.0495 7.98752L75.8376 3.24002ZM80.201 2.28502H81.8322L83.6528 0.0775146H81.4263L80.201 2.28502ZM83.7997 13.29H86.1657L82.3702 3.24002H80.0565L76.241 13.29H78.4476L79.145 11.3175H83.1198L83.7997 13.29ZM79.7302 9.64252L81.1673 5.60751H81.1822L82.5669 9.64252H79.7302ZM94.768 13.51C97.4005 13.51 98.7578 12.3225 99.2883 9.53252H97.0817C96.6608 10.9675 96.2249 11.6375 94.7879 11.6375C93.2288 11.6375 92.3796 10.4875 92.3796 8.28001C92.3796 6.08751 93.2214 4.89252 94.7655 4.89252C96.1378 4.89252 96.6458 5.49752 97.0643 6.85252H99.2634C98.7777 4.14252 97.3407 3.02251 94.7655 3.02251C91.8117 3.02251 90.0435 4.99501 90.0435 8.28001C90.046 11.5575 91.8018 13.51 94.768 13.51ZM108.157 5.06002V3.24002H100.83V13.29H108.157V11.47H103.079V9.10252H107.186V7.39751H103.079V5.06002H108.157ZM109.836 13.29H111.808V6.80752H111.823L116.525 13.29H118.498V3.24002H116.525V9.70751H116.51L111.808 3.24002H109.836V13.29ZM122.577 13.29H124.863V5.09752H127.787V3.24002H119.653V5.09752H122.577V13.29ZM135.344 10.1075C135.06 9.68501 134.821 9.40001 134.474 9.24001C136.063 9.08751 137.022 7.91501 137.022 6.32001C137.022 4.39002 135.787 3.24002 133.401 3.24002H128.948V13.29H131.227V9.51752H131.814C132.41 9.51752 132.611 9.68501 132.953 10.2025L135 13.29H137.488L135.344 10.1075ZM131.222 7.84251V4.96502H133.007C134.218 4.96502 134.816 5.37252 134.816 6.39252C134.816 7.39002 134.205 7.84251 132.987 7.84251H131.222ZM145.373 13.29H147.739L143.946 3.24002H141.63L137.814 13.29H140.021L140.718 11.3175H144.693L145.373 13.29ZM141.303 9.64252L142.74 5.60751H142.755L144.143 9.64252H141.303Z" fill="#0039A6"/>
<path d="M28.5551 27.7876H6.23511V5.38257H28.5551V13.2901H25.9276V8.02007H8.8626V25.1501H25.9276V19.8826H28.5551V27.7876Z" fill="#0039A6"/>
<path d="M0.985107 0.112549V33.0576H33.8052V19.8825H31.1801V30.4226H3.61011V2.74755H31.1801V13.2875H33.8052V0.112549H0.985107Z" fill="#0039A6"/>
<path d="M23.3003 22.515H11.4902V10.655H23.3003V13.29H14.1152V19.88H23.3003V22.515Z" fill="#0039A6"/>
<path d="M175.8 28.0626V19.8701H173.516V29.9201H179.914V28.0626H175.8ZM188.586 21.6901V19.8701H181.259V29.9201H188.586V28.1001H183.508V25.7326H187.612V24.0275H183.508V21.6901H188.586ZM192.698 29.9176H194.984V21.7251H197.906V19.8676H189.774V21.7251H192.698V29.9176Z" fill="#D52B1E"/>
<path d="M176.808 13.5001C179.376 13.5001 180.748 12.4076 180.748 10.5651C180.748 8.99257 179.712 8.32257 178.674 8.19007V8.17508C179.66 7.92008 180.479 7.15507 180.464 5.70007C180.449 4.01757 179.187 3.01257 176.836 3.01257C174.465 3.01257 173.493 4.05507 173.013 6.16507H175.102C175.416 5.13007 175.834 4.68007 176.843 4.68007C177.829 4.68007 178.382 5.11757 178.382 6.01257C178.382 7.01007 177.672 7.41758 176.592 7.41758H175.814V9.04258H176.699C177.854 9.04258 178.621 9.34007 178.621 10.3676C178.621 11.3651 178.034 11.8376 176.808 11.8326C175.675 11.8251 175.147 11.3801 174.828 10.3176H172.731C173.087 12.5301 174.268 13.5001 176.808 13.5001ZM186.095 13.5001C188.745 13.5001 190.225 11.8476 190.225 8.25757C190.225 4.66757 188.745 3.01507 186.095 3.01507C183.455 3.01507 181.969 4.66757 181.969 8.25757C181.969 11.8476 183.455 13.5001 186.095 13.5001ZM186.095 11.6876C184.783 11.6876 184.232 10.6601 184.232 8.25757C184.232 5.85507 184.783 4.82757 186.095 4.82757C187.415 4.82757 187.968 5.85507 187.968 8.25757C187.968 10.6601 187.418 11.6876 186.095 11.6876Z" fill="#0039A6"/>
</svg>
