<svg width="370" height="370" viewBox="0 0 370 370" fill="none" xmlns="http://www.w3.org/2000/svg">
<g clip-path="url(#clip0_143_2)">
<path d="M368.948 292.749C340.746 276.112 310.221 267.791 277.37 267.791C244.519 267.791 213.096 276.027 184.897 292.495C157.599 308.433 135.821 329.91 119.558 356.92L118.725 355.423L98.2932 370H137.907C152.19 345.535 171.56 326.182 196.031 311.948C220.818 297.531 247.931 290.316 277.37 290.316C306.809 290.316 332.873 297.614 357.619 312.205C361.898 314.73 366.022 317.412 369.997 320.249V293.379C369.647 293.17 369.298 292.958 368.945 292.749H368.948Z" fill="#1F419B"/>
<path d="M277.373 356.872C260.052 356.872 244.114 361.082 229.568 369.496C229.287 369.661 229.013 369.832 228.732 370H325.199C324.956 369.856 324.72 369.705 324.473 369.561C309.964 361.099 294.266 356.872 277.373 356.872Z" fill="#1F419B"/>
<path d="M277.435 311.821C252.104 311.821 228.715 318.114 207.265 330.698C189.94 340.862 175.527 353.963 164.016 370H192.811C200.221 362.298 208.697 355.666 218.242 350.099C236.245 339.598 255.954 334.346 277.373 334.346C298.792 334.346 317.453 339.684 335.415 350.356C344.747 355.902 353.086 362.449 360.438 370H370V348.197C362.905 341.692 355.101 335.898 346.584 330.828C325.302 318.159 302.256 311.824 277.435 311.824V311.821Z" fill="#1F419B"/>
<path d="M370 271.117C341.287 270.271 314.575 262.673 289.857 248.318C263.591 233.069 242.812 212.373 227.512 186.244C212.212 160.114 204.562 131.662 204.562 100.88C204.562 70.0978 212.144 41.1316 227.307 14.776C230.263 9.63707 233.432 4.71402 236.81 -0.003479H208.45C207.892 0.921521 207.34 1.85337 206.796 2.79208C189.419 32.7141 180.735 65.4077 180.735 100.88C180.735 136.352 189.488 168.216 207.001 197.816C224.511 227.423 248.225 250.846 278.147 268.082C306.514 284.424 337.132 293.016 370 293.866V271.114V271.117Z" fill="#1F419B"/>
<path d="M247.609 174.195C261.049 196.806 279.093 214.631 301.738 227.673C322.811 239.815 345.566 246.3 370 247.139V223.295C349.605 222.483 330.674 217.06 313.215 207.018C294.215 196.093 279.141 181.19 267.997 162.317C256.849 143.443 251.278 122.943 251.278 100.815C251.278 78.6866 256.78 57.2403 267.794 38.0962C276.565 22.844 287.891 10.1475 301.759 -0.003479H266.705C259.408 7.95495 252.946 16.7596 247.338 26.4207C234.08 49.2545 227.447 74.0753 227.447 100.883C227.447 127.691 234.169 151.587 247.609 174.195Z" fill="#1F419B"/>
<path d="M275.102 100.887C275.102 118.962 279.614 135.571 288.641 150.71C297.665 165.846 309.899 177.802 325.333 186.569C339.201 194.445 354.09 198.782 370 199.581V178.95C358.256 178.148 347.289 174.715 337.108 168.645C325.374 161.652 316.076 152.039 309.217 139.809C302.355 127.578 298.929 114.244 298.929 99.804C298.929 85.3638 302.379 72.5234 309.286 60.4744C316.192 48.4254 325.487 38.9253 337.176 31.9741C347.317 25.9445 358.259 22.5357 370 21.7375V0.0205078C353.761 0.818749 338.714 5.22449 324.857 13.2412C309.467 22.1417 297.329 34.3449 288.439 49.8438C279.549 65.3461 275.105 82.3592 275.105 100.887H275.102Z" fill="#1F419B"/>
<path d="M31.5665 277.274C22.5152 277.274 11.9942 274.382 0 268.606V290.782C1.47315 291.348 2.98741 291.899 4.55648 292.434C15.1631 296.045 24.1631 297.85 31.5665 297.85C51.7829 297.85 67.6483 291.738 79.156 279.508C90.6637 267.277 96.4193 252.138 96.4193 234.083C96.4193 222.26 93.0105 211.428 86.1963 201.588C79.3787 191.752 70.694 183.808 60.1353 177.761C49.5766 171.714 38.9254 168.103 28.1851 166.932L62.5711 80.9615H0V102.082H31.5665L0.0205556 181.961C18.524 181.961 35.4241 186.292 50.7243 194.959C66.021 203.623 73.6711 216.669 73.6711 234.087C73.6711 246.362 69.5874 256.629 61.42 264.886C53.2492 273.146 43.3003 277.274 31.5665 277.274Z" fill="#1F419B"/>
<path d="M154.633 20.5795L106.978 139.72C120.788 149.836 131.823 159.227 140.079 167.898C148.339 176.569 154.588 186.638 158.829 198.108C163.071 209.578 165.373 224.165 165.736 241.867C165.736 257.76 163.006 272.731 157.545 286.774C152.084 300.817 144.231 313.26 133.988 324.096C123.744 334.936 111.648 343.357 97.704 349.362C83.757 355.368 68.5733 358.369 52.146 358.369C31.7618 358.369 14.382 355.923 0 351.034V370H98.7043C100.637 369.281 102.562 368.523 104.47 367.711C121.031 360.671 135.608 350.9 148.199 338.399C160.789 325.898 170.649 311.321 177.782 294.671C184.911 278.017 188.477 260.576 188.477 242.343C188.477 197.035 168.891 159.895 129.719 130.918L186.312 0H0V20.5795H154.633Z" fill="#1F419B"/>
<path d="M43.2078 337.789C62.5232 337.789 79.6939 333.391 94.7234 324.589C109.753 315.788 121.37 304.01 129.586 289.251C137.798 274.492 141.905 258.315 141.905 240.716C141.905 224.741 139.829 211.452 135.677 200.845C131.525 190.242 125.07 180.766 116.317 172.413C107.56 164.068 95.3778 155.016 79.7624 145.27L124.169 39.9395H0V60.519H91.9484L52.146 154.749C73.8972 163.684 90.5027 175.418 101.969 189.947C113.429 204.48 119.164 220.636 119.164 238.417C119.164 260.71 111.603 279.415 96.4878 294.534C81.3692 309.652 61.3994 317.21 36.5786 317.21C23.4162 317.21 11.2268 315.226 0 311.262V331.294C12.8198 335.621 27.2224 337.789 43.2078 337.789Z" fill="#1F419B"/>
</g>
<defs>
<clipPath id="clip0_143_2">
<rect width="370" height="370" fill="white"/>
</clipPath>
</defs>
</svg>
