<svg width="200" height="34" viewBox="0 0 200 34" fill="none" xmlns="http://www.w3.org/2000/svg">
<path d="M173.321 20.804H175.677V29.9895H180.453V31.9307H173.321V20.804Z" fill="#D52B1E"/>
<path d="M181.952 20.804H189.457V22.7451H184.304V25.3947H189.069V27.3359H184.304V29.9935H189.477V31.9347H181.948V20.808L181.952 20.804Z" fill="#D52B1E"/>
<path d="M190.852 20.804H200V22.7451H196.59V31.9307H194.262V22.7451H190.852V20.804Z" fill="#D52B1E"/>
<path d="M173.06 11.0623H175.432C175.476 11.8788 176.254 12.4191 177.292 12.4191C178.33 12.4191 179.131 11.8107 179.123 10.9262C179.127 10.0297 178.342 9.40127 177.079 9.40127H176.041V7.67222H177.079C178.149 7.67222 178.895 7.07986 178.891 6.20733C178.895 5.37083 178.261 4.79448 177.308 4.79448C176.354 4.79448 175.569 5.34281 175.541 6.19132H173.285C173.317 4.26616 175.036 2.93335 177.32 2.93335C179.604 2.93335 181.167 4.31419 181.159 6.06725C181.163 7.31601 180.305 8.19654 179.059 8.42068V8.50873C180.698 8.71686 181.579 9.70545 181.571 11.0903C181.575 12.9914 179.788 14.3683 177.284 14.3683C174.779 14.3683 173.096 13.0155 173.056 11.0703L173.06 11.0623Z" fill="#0039A6"/>
<path d="M182.894 8.65667C182.898 5.01046 184.597 2.9292 187.394 2.9292C190.191 2.9292 191.898 5.01446 191.894 8.65667C191.89 12.3229 190.195 14.4522 187.394 14.4522C184.589 14.4482 182.886 12.3109 182.894 8.65667ZM189.485 8.65667C189.485 6.13114 188.66 4.85837 187.39 4.85837C186.119 4.85837 185.294 6.13114 185.29 8.65667C185.286 11.2222 186.111 12.503 187.39 12.503C188.668 12.503 189.489 11.2222 189.485 8.65667Z" fill="#0039A6"/>
<path d="M151.566 31.0863C154.082 31.0863 155.577 29.7975 155.577 27.8163C155.577 26.1753 154.499 25.3668 152.547 25.0186L151.277 24.7945C150.203 24.6104 149.795 24.2061 149.795 23.5777C149.795 22.8053 150.436 22.333 151.474 22.333C152.612 22.333 153.048 22.8133 153.333 23.7819H155.405C154.996 21.6486 153.85 20.5959 151.474 20.5959C148.941 20.5959 147.591 21.9007 147.591 23.7378C147.591 25.4148 148.649 26.2954 150.58 26.6516L151.894 26.8997C152.9 27.0839 153.361 27.352 153.361 28.0284C153.361 28.8609 152.684 29.3532 151.618 29.3532C150.472 29.3532 149.859 28.989 149.494 27.8683H147.386C147.751 30.1057 149.021 31.0903 151.558 31.0903M146.709 22.6372V20.8161H139.34V30.8742H146.709V29.053H141.604V26.6836H145.731V24.9786H141.604V22.6412H146.709V22.6372ZM131.582 25.4228V22.5451H133.377C134.596 22.5451 135.193 22.9534 135.193 23.974C135.193 24.9946 134.58 25.4228 133.353 25.4228H131.582ZM135.726 27.6882C135.441 27.264 135.201 26.9798 134.852 26.8197C136.451 26.6676 137.413 25.4949 137.413 23.8979C137.413 21.9688 136.174 20.8161 133.77 20.8161H129.29V30.8742H131.582V27.0999H132.171C132.768 27.0999 132.973 27.268 133.317 27.7843L135.373 30.8742H137.873L135.722 27.6882H135.726ZM122.891 30.8742H125.191V22.6772H128.132V20.8201H119.953V22.6772H122.895V30.8742H122.891ZM110.076 30.8742H112.059V24.3902H112.075L116.804 30.8742H118.787V20.8161H116.804V27.288H116.788L112.059 20.8161H110.076V30.8742ZM108.389 22.6412V20.8201H101.02V30.8782H108.389V29.057H103.284V26.6876H107.411V24.9826H103.284V22.6452H108.389V22.6412ZM94.9249 31.0943C97.5736 31.0943 98.9361 29.9056 99.469 27.1159H97.2531C96.8283 28.5527 96.3915 29.2211 94.949 29.2211C93.3822 29.2211 92.5287 28.0684 92.5287 25.8631C92.5287 23.6578 93.3742 22.4731 94.9289 22.4731C96.3074 22.4731 96.8203 23.0774 97.241 24.4342H99.453C98.9641 21.7246 97.5215 20.5999 94.9289 20.5999C91.9596 20.5999 90.1805 22.5731 90.1805 25.8591C90.1805 29.1451 91.9476 31.0903 94.9289 31.0903M76.6404 30.8701H78.9405V26.7236H83.0478V30.8701H85.3479V20.8121H83.0478V24.8505H78.9405V20.8121H76.6404V30.8701ZM70.5455 31.0903C73.1942 31.0903 74.5567 29.9016 75.0896 27.1119H72.8737C72.4489 28.5487 72.0121 29.2171 70.5696 29.2171C69.0028 29.2171 68.1493 28.0644 68.1493 25.8591C68.1493 23.6538 68.9948 22.4691 70.5495 22.4691C71.928 22.4691 72.4409 23.0734 72.8617 24.4302H75.0736C74.5847 21.7206 73.1422 20.5959 70.5495 20.5959C67.5803 20.5959 65.8011 22.5691 65.8011 25.8551C65.8011 29.1411 67.5682 31.0863 70.5495 31.0863M64.8193 22.6332V20.8121H57.4502V30.8701H64.8193V29.049H59.7143V26.6796H63.8416V24.9746H59.7143V22.6372H64.8193V22.6332ZM48.2699 30.8661H55.8353V29.009H51.123V28.993L55.8634 22.317V20.8081H48.4662V22.6652H53.0103V22.6812L48.2699 29.3572V30.8661ZM42.8763 31.0863C45.525 31.0863 46.8874 29.8976 47.4204 27.1079H45.2044C44.7797 28.5447 44.3429 29.2131 42.9003 29.2131C41.3335 29.2131 40.48 28.0604 40.48 25.8551C40.48 23.6498 41.3255 22.4651 42.8803 22.4651C44.2587 22.4651 44.7717 23.0694 45.1924 24.4262H47.4043C46.9155 21.7166 45.4729 20.5919 42.8803 20.5919C39.911 20.5919 38.1318 22.5651 38.1318 25.8511C38.1318 29.1371 39.899 31.0823 42.8803 31.0823" fill="#D52B1E"/>
<path d="M141.099 10.5698L142.542 6.53133H142.558L143.952 10.5698H141.099ZM145.19 14.22H147.571L143.756 4.16189H141.428L137.589 14.22H139.805L140.506 12.2468H144.505L145.19 14.22ZM130.961 8.76868V5.89094H132.756C133.974 5.89094 134.572 6.29919 134.572 7.3198C134.572 8.34042 133.958 8.76868 132.732 8.76868H130.961ZM135.105 11.0341C134.82 10.6098 134.58 10.3256 134.231 10.1655C135.83 10.0134 136.792 8.84073 136.792 7.24376C136.792 5.31059 135.553 4.16189 133.149 4.16189H128.669V14.22H130.961V10.4457H131.55C132.147 10.4457 132.352 10.6138 132.696 11.1301L134.752 14.22H137.252L135.101 11.0341H135.105ZM122.27 14.22H124.57V6.01902H127.511V4.16189H119.332V6.01902H122.274V14.216L122.27 14.22ZM109.455 14.22H111.438V7.73606H111.454L116.183 14.22H118.166V4.16189H116.183V10.6338H116.167L111.438 4.16189H109.455V14.22ZM107.768 5.987V4.16589H100.399V14.224H107.768V12.4029H102.663V10.0334H106.79V8.32842H102.663V5.991H107.768V5.987ZM94.3039 14.4401C96.9526 14.4401 98.315 13.2514 98.848 10.4617H96.632C96.2073 11.8986 95.7705 12.567 94.3279 12.567C92.7611 12.567 91.9076 11.4143 91.9076 9.20895C91.9076 7.00361 92.7531 5.81889 94.3079 5.81889C95.6863 5.81889 96.1993 6.42326 96.62 7.78008H98.8319C98.3431 5.07044 96.9005 3.94576 94.3079 3.94576C91.3386 3.94576 89.5594 5.91896 89.5594 9.20495C89.5594 12.4909 91.3266 14.4361 94.3079 14.4361M79.185 10.5658L80.6275 6.52732H80.6436L82.038 10.5658H79.185ZM83.2763 14.216H85.6565L81.8417 4.15789H79.5136L75.6747 14.216H77.8907L78.5919 12.2428H82.591L83.2763 14.216ZM79.6578 3.20531H81.3007L83.132 0.995972H80.892L79.6578 3.20531ZM75.27 4.16189H72.8176L69.095 8.91277H69.079V4.16189H66.7789V14.22H69.079V9.26498H69.095L72.7936 14.22H75.3982L71.4592 8.91677L75.266 4.16589L75.27 4.16189ZM61.1849 14.4361C63.7014 14.4361 65.1961 13.1473 65.1961 11.1661C65.1961 9.52514 64.1182 8.71665 62.1667 8.36844L60.8964 8.1443C59.8225 7.96019 59.4138 7.55595 59.4138 6.92757C59.4138 6.1551 60.0549 5.68281 61.0928 5.68281C62.2308 5.68281 62.6676 6.1631 62.9521 7.13169H65.0238C64.615 4.9984 63.469 3.94576 61.0928 3.94576C58.5603 3.94576 57.2099 5.25055 57.2099 7.08766C57.2099 8.76468 58.2677 9.64521 60.1992 10.0014L61.5135 10.2496C62.5193 10.4337 62.9801 10.7019 62.9801 11.3783C62.9801 12.2108 62.3029 12.7031 61.237 12.7031C60.091 12.7031 59.4779 12.3388 59.1132 11.2182H57.0055C57.3701 13.4555 58.6404 14.4401 61.1769 14.4401M56.3283 5.987V4.16589H48.9592V14.224H56.3283V12.4029H51.2232V10.0334H55.3505V8.32842H51.2232V5.991H56.3283V5.987ZM42.8643 14.4401C45.513 14.4401 46.8755 13.2514 47.4084 10.4617H45.1925C44.7677 11.8986 44.3309 12.567 42.8884 12.567C41.3216 12.567 40.4681 11.4143 40.4681 9.20895C40.4681 7.00361 41.3136 5.81889 42.8683 5.81889C44.2468 5.81889 44.7597 6.42326 45.1804 7.78008H47.3924C46.9035 5.07044 45.4609 3.94576 42.8683 3.94576C39.899 3.94576 38.1199 5.91896 38.1199 9.20495C38.1199 12.4909 39.887 14.4361 42.8683 14.4361M42.123 3.20531H43.6096L45.6573 1.044H43.8901L42.9324 1.95655H42.9164L41.9467 1.044H40.0954L42.131 3.20931L42.123 3.20531Z" fill="#0039A6"/>
<path d="M27.7254 28.7248H5.28149V6.30725H27.7254V14.216H25.0847V8.94485H7.92219V26.0872H25.0847V20.812H27.7254V28.7248Z" fill="#0039A6"/>
<path d="M0 1.03198V34H33.0027V20.816H30.362V31.3624H2.6407V3.66958H30.362V14.216H33.0027V1.03198H0Z" fill="#0039A6"/>
<path d="M22.4399 23.4496H10.5627V11.5824H22.4399V14.22H13.2034V20.812H22.4399V23.4496Z" fill="#0039A6"/>
</svg>
