<svg width="1526" height="542" viewBox="0 0 1526 542" fill="none" xmlns="http://www.w3.org/2000/svg">
<path d="M1007.11 188.014L1042.27 298.526H1043.62L1078.84 188.014H1112.94L1062.79 333.469H1023.16L972.95 188.014H1007.11Z" fill="white" fill-opacity="0.6"/>
<path d="M1148.55 374.378C1144.72 374.378 1141.12 374.07 1137.76 373.455C1134.44 372.886 1131.7 372.152 1129.52 371.253L1136.34 348.668C1139.89 349.757 1143.08 350.348 1145.93 350.443C1148.81 350.538 1151.3 349.875 1153.38 348.455C1155.51 347.034 1157.24 344.619 1158.57 341.21L1160.34 336.594L1121.21 224.378H1153.03L1175.61 304.491H1176.75L1199.55 224.378H1231.58L1189.18 345.259C1187.14 351.13 1184.37 356.243 1180.87 360.599C1177.41 365.003 1173.03 368.388 1167.73 370.756C1162.43 373.17 1156.03 374.378 1148.55 374.378ZM1165.32 210.315L1180.37 178H1208.35L1186.69 210.315H1165.32Z" fill="white" fill-opacity="0.6"/>
<path d="M1348.77 224.378L1310.63 333.469H1276.54L1238.4 224.378H1270.36L1293.01 302.432H1294.15L1316.74 224.378H1348.77Z" fill="white" fill-opacity="0.6"/>
<path d="M1410.02 335.599C1398.99 335.599 1389.45 333.256 1381.4 328.568C1373.4 323.833 1367.22 317.252 1362.86 308.824C1358.51 300.348 1356.33 290.524 1356.33 279.349C1356.33 268.08 1358.51 258.232 1362.86 249.804C1367.22 241.329 1373.4 234.747 1381.4 230.06C1389.45 225.325 1398.99 222.957 1410.02 222.957C1421.06 222.957 1430.57 225.325 1438.57 230.06C1446.62 234.747 1452.83 241.329 1457.18 249.804C1461.54 258.232 1463.72 268.08 1463.72 279.349C1463.72 290.524 1461.54 300.348 1457.18 308.824C1452.83 317.252 1446.62 323.833 1438.57 328.568C1430.57 333.256 1421.06 335.599 1410.02 335.599ZM1410.17 312.162C1415.18 312.162 1419.38 310.741 1422.74 307.901C1426.1 305.012 1428.63 301.082 1430.34 296.111C1432.09 291.139 1432.96 285.481 1432.96 279.136C1432.96 272.792 1432.09 267.134 1430.34 262.162C1428.63 257.19 1426.1 253.26 1422.74 250.372C1419.38 247.484 1415.18 246.04 1410.17 246.04C1405.1 246.04 1400.84 247.484 1397.38 250.372C1393.97 253.26 1391.39 257.19 1389.64 262.162C1387.94 267.134 1387.08 272.792 1387.08 279.136C1387.08 285.481 1387.94 291.139 1389.64 296.111C1391.39 301.082 1393.97 305.012 1397.38 307.901C1400.84 310.741 1405.1 312.162 1410.17 312.162Z" fill="white" fill-opacity="0.6"/>
<path d="M1483.39 224.378H1513.65V338.866C1513.65 347.295 1511.99 354.113 1508.67 359.321C1505.36 364.529 1500.6 368.341 1494.4 370.756C1488.24 373.17 1480.88 374.378 1472.31 374.378C1471.27 374.378 1470.27 374.354 1469.33 374.307C1468.33 374.307 1467.29 374.283 1466.2 374.236V350.585C1467.01 350.633 1467.72 350.656 1468.33 350.656C1468.9 350.704 1469.52 350.727 1470.18 350.727C1475.06 350.727 1478.47 349.686 1480.41 347.602C1482.4 345.566 1483.39 342.489 1483.39 338.369V224.378ZM1498.45 210.315C1494 210.315 1490.16 208.824 1486.94 205.841C1483.72 202.811 1482.11 199.188 1482.11 194.974C1482.11 190.808 1483.72 187.233 1486.94 184.25C1490.16 181.22 1494 179.705 1498.45 179.705C1502.99 179.705 1506.85 181.22 1510.02 184.25C1513.24 187.233 1514.85 190.808 1514.85 194.974C1514.85 199.188 1513.24 202.811 1510.02 205.841C1506.85 208.824 1502.99 210.315 1498.45 210.315Z" fill="white" fill-opacity="0.6"/>
<path d="M1176.37 303.991L1199.07 224.241L1199.17 223.878H1199.55H1231.58H1232.28L1232.05 224.543L1189.65 345.422L1176.37 303.991ZM1176.37 303.991H1175.99L1153.51 224.242L1153.41 223.878H1153.03H1121.21H1120.51L1120.74 224.542L1159.81 336.585L1158.1 341.029C1158.1 341.029 1158.1 341.029 1158.1 341.03C1156.8 344.382 1155.12 346.695 1153.11 348.038L1153.1 348.041C1151.12 349.394 1148.74 350.035 1145.94 349.943C1143.16 349.851 1140.01 349.269 1136.48 348.19L1136 348.042L1135.86 348.523L1129.04 371.108L1128.91 371.542L1129.33 371.715C1131.55 372.633 1134.34 373.375 1137.67 373.947C1141.07 374.568 1144.69 374.878 1148.55 374.878C1156.09 374.878 1162.55 373.663 1167.94 371.211C1173.31 368.812 1177.75 365.378 1181.26 360.91C1184.8 356.506 1187.6 351.342 1189.65 345.424L1176.37 303.991ZM1007.59 187.863L1007.48 187.514H1007.11H972.95H972.248L972.477 188.177L1022.69 333.632L1022.81 333.969H1023.16H1062.79H1063.15L1063.27 333.632L1113.41 188.177L1113.64 187.514H1112.94H1078.84H1078.48L1078.37 187.862L1043.25 298.026H1042.63L1007.59 187.863ZM1164.86 210.104L1164.53 210.815H1165.32H1186.69H1186.96L1187.11 210.594L1208.77 178.278L1209.29 177.5H1208.35H1180.37H1180.05L1179.92 177.789L1164.86 210.104ZM1349.24 224.543L1349.47 223.878H1348.77H1316.74H1316.36L1316.26 224.239L1293.77 301.932H1293.39L1270.84 224.238L1270.73 223.878H1270.36H1238.4H1237.69L1237.93 224.543L1276.06 333.634L1276.18 333.969H1276.54H1310.63H1310.98L1311.1 333.634L1349.24 224.543ZM1362.42 309.052L1362.42 309.053C1366.82 317.563 1373.06 324.215 1381.15 328.999L1381.15 329C1389.29 333.74 1398.92 336.099 1410.02 336.099C1421.13 336.099 1430.74 333.74 1438.83 329L1438.83 328.999C1446.96 324.216 1453.23 317.564 1457.63 309.053L1457.63 309.052C1462.03 300.495 1464.22 290.589 1464.22 279.349C1464.22 268.016 1462.03 258.086 1457.63 249.574C1453.23 241.017 1446.96 234.365 1438.83 229.628C1430.74 224.841 1421.13 222.457 1410.02 222.457C1398.92 222.457 1389.29 224.841 1381.15 229.629C1373.06 234.365 1366.82 241.018 1362.42 249.574C1358.02 258.086 1355.83 268.016 1355.83 279.349C1355.83 290.589 1358.02 300.495 1362.42 309.052ZM1429.86 295.945L1429.86 295.949C1428.18 300.851 1425.69 304.7 1422.41 307.521C1419.15 310.273 1415.08 311.662 1410.17 311.662C1405.2 311.662 1401.06 310.273 1397.7 307.517C1394.37 304.695 1391.84 300.846 1390.11 295.945C1388.43 291.036 1387.58 285.435 1387.58 279.136C1387.58 272.837 1388.43 267.237 1390.11 262.328C1391.84 257.426 1394.37 253.576 1397.7 250.755C1401.06 247.952 1405.2 246.54 1410.17 246.54C1415.08 246.54 1419.15 247.951 1422.41 250.751C1425.69 253.572 1428.18 257.421 1429.86 262.324L1429.86 262.328C1431.59 267.237 1432.46 272.837 1432.46 279.136C1432.46 285.436 1431.59 291.036 1429.86 295.945ZM1483.39 223.878H1482.89V224.378V338.369C1482.89 342.416 1481.91 345.345 1480.05 347.253L1480.04 347.261C1478.24 349.191 1475.01 350.227 1470.18 350.227C1469.53 350.227 1468.93 350.204 1468.38 350.158L1468.35 350.156H1468.33C1467.73 350.156 1467.03 350.133 1466.23 350.086L1465.7 350.055V350.585V374.236V374.715L1466.18 374.735C1467.27 374.783 1468.32 374.807 1469.32 374.807C1470.27 374.854 1471.27 374.878 1472.31 374.878C1480.93 374.878 1488.35 373.664 1494.58 371.221C1500.87 368.771 1505.72 364.894 1509.1 359.589C1512.48 354.277 1514.15 347.356 1514.15 338.866V224.378V223.878H1513.65H1483.39ZM1486.6 206.205L1486.6 206.208C1489.92 209.278 1493.87 210.815 1498.45 210.815C1503.11 210.815 1507.1 209.279 1510.37 206.205L1510.02 205.841L1510.37 206.205C1513.68 203.085 1515.35 199.334 1515.35 194.974C1515.35 190.662 1513.68 186.957 1510.37 183.886C1507.1 180.765 1503.11 179.205 1498.45 179.205C1493.87 179.205 1489.91 180.768 1486.6 183.886C1483.28 186.957 1481.61 190.662 1481.61 194.974C1481.61 199.334 1483.28 203.085 1486.6 206.205Z" stroke="#9796A5" stroke-opacity="0.15"/>
<rect width="1" height="1" fill="white"/>
</svg>
