<svg width="1187" height="374" viewBox="0 0 1187 374" fill="none" xmlns="http://www.w3.org/2000/svg">
<g clip-path="url(#clip0_221_75)">
<path d="M673.112 184.545L708.268 295.057H709.618L744.845 184.545H778.936L728.794 330H689.163L638.95 184.545H673.112Z" fill="white" fill-opacity="0.6"/>
<path d="M814.554 370.909C810.718 370.909 807.12 370.601 803.758 369.986C800.444 369.418 797.698 368.684 795.52 367.784L802.338 345.199C805.889 346.288 809.085 346.88 811.926 346.974C814.814 347.069 817.3 346.406 819.383 344.986C821.514 343.565 823.242 341.151 824.568 337.741L826.343 333.125L787.21 220.909H819.028L841.613 301.023H842.75L865.548 220.909H897.579L855.179 341.79C853.143 347.661 850.373 352.775 846.869 357.131C843.413 361.534 839.033 364.92 833.73 367.287C828.427 369.702 822.035 370.909 814.554 370.909ZM831.315 206.847L846.372 174.531H874.355L852.693 206.847H831.315Z" fill="white" fill-opacity="0.6"/>
<path d="M1014.77 220.909L976.628 330H942.537L904.397 220.909H936.358L959.014 298.963H960.15L982.735 220.909H1014.77Z" fill="white" fill-opacity="0.6"/>
<path d="M1076.02 332.131C1064.99 332.131 1055.45 329.787 1047.4 325.099C1039.4 320.365 1033.22 313.783 1028.86 305.355C1024.51 296.88 1022.33 287.055 1022.33 275.881C1022.33 264.612 1024.51 254.763 1028.86 246.335C1033.22 237.86 1039.4 231.278 1047.4 226.591C1055.45 221.856 1064.99 219.489 1076.02 219.489C1087.06 219.489 1096.57 221.856 1104.57 226.591C1112.62 231.278 1118.83 237.86 1123.18 246.335C1127.54 254.763 1129.72 264.612 1129.72 275.881C1129.72 287.055 1127.54 296.88 1123.18 305.355C1118.83 313.783 1112.62 320.365 1104.57 325.099C1096.57 329.787 1087.06 332.131 1076.02 332.131ZM1076.17 308.693C1081.18 308.693 1085.38 307.273 1088.74 304.432C1092.1 301.544 1094.63 297.614 1096.34 292.642C1098.09 287.67 1098.96 282.012 1098.96 275.668C1098.96 269.323 1098.09 263.665 1096.34 258.693C1094.63 253.722 1092.1 249.792 1088.74 246.903C1085.38 244.015 1081.18 242.571 1076.17 242.571C1071.1 242.571 1066.84 244.015 1063.38 246.903C1059.97 249.792 1057.39 253.722 1055.64 258.693C1053.94 263.665 1053.08 269.323 1053.08 275.668C1053.08 282.012 1053.94 287.67 1055.64 292.642C1057.39 297.614 1059.97 301.544 1063.38 304.432C1066.84 307.273 1071.1 308.693 1076.17 308.693Z" fill="white" fill-opacity="0.6"/>
<path d="M1149.39 220.909H1179.65V335.398C1179.65 343.826 1177.99 350.644 1174.67 355.852C1171.36 361.061 1166.6 364.872 1160.4 367.287C1154.24 369.702 1146.88 370.909 1138.31 370.909C1137.27 370.909 1136.27 370.885 1135.33 370.838C1134.33 370.838 1133.29 370.814 1132.2 370.767V347.116C1133.01 347.164 1133.72 347.188 1134.33 347.188C1134.9 347.235 1135.52 347.259 1136.18 347.259C1141.06 347.259 1144.47 346.217 1146.41 344.134C1148.4 342.098 1149.39 339.02 1149.39 334.901V220.909ZM1164.45 206.847C1160 206.847 1156.16 205.355 1152.94 202.372C1149.72 199.342 1148.11 195.72 1148.11 191.506C1148.11 187.339 1149.72 183.764 1152.94 180.781C1156.16 177.751 1160 176.236 1164.45 176.236C1168.99 176.236 1172.85 177.751 1176.02 180.781C1179.24 183.764 1180.85 187.339 1180.85 191.506C1180.85 195.72 1179.24 199.342 1176.02 202.372C1172.85 205.355 1168.99 206.847 1164.45 206.847Z" fill="white" fill-opacity="0.6"/>
<path d="M842.372 300.523L865.067 220.772L865.17 220.409H865.548H897.579H898.284L898.051 221.075L855.651 341.954L842.372 300.523ZM842.372 300.523H841.992L819.509 220.773L819.407 220.409H819.028H787.21H786.506L786.738 221.074L825.811 333.117L824.102 337.56C824.102 337.56 824.102 337.561 824.102 337.561C822.798 340.913 821.121 343.226 819.106 344.57L819.102 344.573C817.118 345.925 814.741 346.566 811.942 346.475C809.157 346.382 806.005 345.801 802.484 344.721L802.004 344.574L801.859 345.054L795.041 367.64L794.91 368.073L795.329 368.246C797.551 369.164 800.336 369.906 803.671 370.478C807.065 371.099 810.693 371.409 814.554 371.409C822.086 371.409 828.552 370.194 833.935 367.743C839.308 365.344 843.753 361.91 847.261 357.441C850.803 353.037 853.598 347.873 855.65 341.955L842.372 300.523ZM673.588 184.394L673.478 184.045H673.112H638.95H638.248L638.477 184.709L688.69 330.163L688.807 330.5H689.163H728.794H729.15L729.266 330.163L779.408 184.708L779.637 184.045H778.936H744.845H744.479L744.368 184.394L709.252 294.557H708.634L673.588 184.394ZM830.862 206.635L830.53 207.347H831.315H852.693H852.96L853.108 207.125L874.77 174.81L875.292 174.031H874.355H846.372H846.053L845.919 174.32L830.862 206.635ZM1015.24 221.074L1015.47 220.409H1014.77H982.735H982.36L982.255 220.77L959.774 298.463H959.389L936.838 220.77L936.733 220.409H936.358H904.397H903.693L903.925 221.074L942.065 330.165L942.182 330.5H942.537H976.628H976.982L977.099 330.165L1015.24 221.074ZM1028.42 305.584L1028.42 305.585C1032.82 314.094 1039.06 320.746 1047.15 325.53L1047.15 325.531C1055.29 330.271 1064.92 332.631 1076.02 332.631C1087.13 332.631 1096.74 330.271 1104.83 325.531L1104.83 325.53C1112.96 320.747 1119.23 314.095 1123.63 305.585L1123.63 305.584C1128.03 297.026 1130.22 287.121 1130.22 275.881C1130.22 264.547 1128.03 254.617 1123.63 246.106C1119.23 237.548 1112.96 230.896 1104.83 226.159C1096.74 221.372 1087.13 218.989 1076.02 218.989C1064.92 218.989 1055.29 221.372 1047.15 226.16C1039.06 230.897 1032.82 237.549 1028.42 246.106C1024.02 254.617 1021.83 264.547 1021.83 275.881C1021.83 287.121 1024.02 297.026 1028.42 305.584ZM1095.86 292.476L1095.86 292.48C1094.18 297.383 1091.69 301.232 1088.41 304.052C1085.15 306.805 1081.08 308.193 1076.17 308.193C1071.2 308.193 1067.06 306.804 1063.7 304.048C1060.37 301.227 1057.84 297.377 1056.11 292.476C1054.43 287.567 1053.58 281.966 1053.58 275.668C1053.58 269.369 1054.43 263.768 1056.11 258.859C1057.84 253.957 1060.37 250.108 1063.7 247.286C1067.06 244.483 1071.2 243.071 1076.17 243.071C1081.08 243.071 1085.15 244.483 1088.41 247.283C1091.69 250.103 1094.18 253.952 1095.86 258.855L1095.86 258.859C1097.59 263.768 1098.46 269.368 1098.46 275.668C1098.46 281.967 1097.59 287.567 1095.86 292.476ZM1149.39 220.409H1148.89V220.909V334.901C1148.89 338.948 1147.91 341.876 1146.05 343.784L1146.04 343.793C1144.24 345.722 1141.01 346.759 1136.18 346.759C1135.53 346.759 1134.93 346.735 1134.38 346.689L1134.35 346.688H1134.33C1133.73 346.688 1133.03 346.664 1132.23 346.617L1131.7 346.586V347.116V370.767V371.246L1132.18 371.267C1133.27 371.314 1134.32 371.338 1135.32 371.338C1136.27 371.385 1137.27 371.409 1138.31 371.409C1146.93 371.409 1154.35 370.196 1160.58 367.752C1166.87 365.302 1171.72 361.426 1175.1 356.121C1178.48 350.808 1180.15 343.887 1180.15 335.398V220.909V220.409H1179.65H1149.39ZM1152.6 202.736L1152.6 202.739C1155.92 205.809 1159.87 207.347 1164.45 207.347C1169.11 207.347 1173.1 205.811 1176.37 202.736L1176.02 202.372L1176.37 202.736C1179.68 199.617 1181.35 195.865 1181.35 191.506C1181.35 187.193 1179.68 183.488 1176.37 180.417C1173.1 177.296 1169.11 175.736 1164.45 175.736C1159.87 175.736 1155.91 177.299 1152.6 180.417C1149.28 183.489 1147.61 187.193 1147.61 191.506C1147.61 195.865 1149.28 199.617 1152.6 202.736Z" stroke="#9796A5" stroke-opacity="0.15"/>
<path d="M1 0H2V1H1V0Z" fill="white"/>
</g>
<defs>
<clipPath id="clip0_221_75">
<rect width="1186.17" height="373.581" fill="white" transform="translate(0.714844 0.390137)"/>
</clipPath>
</defs>
</svg>
